<svg width="16" height="16" viewBox="0 0 16 16" fill="none" xmlns="http://www.w3.org/2000/svg">
<path d="M2.66667 8.66602C2.29848 8.66602 2 8.36755 2 7.99935C2 7.63115 2.29848 7.33268 2.66667 7.33268L4 7.33268L4 4.33268C4 3.41221 4.74619 2.66602 5.66667 2.66602C6.58714 2.66602 7.33333 3.41221 7.33333 4.33268L7.33333 7.33268L8.66667 7.33268L8.66667 5.66602C8.66667 4.74554 9.41287 3.99935 10.3333 3.99935C11.2538 3.99935 12 4.74554 12 5.66602L12 7.33268L13.3333 7.33268C13.7015 7.33268 14 7.63115 14 7.99935C14 8.36755 13.7015 8.66602 13.3333 8.66602L12 8.66602L12 10.3327C12 11.2531 11.2538 11.9993 10.3333 11.9993C9.41287 11.9993 8.66667 11.2531 8.66667 10.3327L8.66667 8.66602L7.33333 8.66602L7.33333 11.666C7.33333 12.5865 6.58714 13.3327 5.66667 13.3327C4.74619 13.3327 4 12.5865 4 11.666L4 8.66602L2.66667 8.66602Z" fill="#070707"/>
</svg>
