<svg width="16" height="16" viewBox="0 0 16 16" fill="none" xmlns="http://www.w3.org/2000/svg">
    <path
        d="M13.3333 12.6667C13.7015 12.6667 14 12.9651 14 13.3333C14 13.7015 13.7015 14 13.3333 14L2.66667 14C2.29847 14 2 13.7015 2 13.3333C2 12.9651 2.29847 12.6667 2.66667 12.6667L13.3333 12.6667Z"
        fill="#070707" />
    <path
        d="M12 9.66732C12 10.5878 11.2538 11.334 10.3333 11.334C9.41286 11.334 8.66667 10.5878 8.66667 9.66732L8.66667 3.66732C8.66667 2.74685 9.41286 2.00065 10.3333 2.00065C11.2538 2.00065 12 2.74685 12 3.66732L12 9.66732Z"
        fill="#070707" />
    <path
        d="M7.33398 9.66732C7.33398 10.5878 6.58778 11.334 5.66732 11.334C4.74685 11.334 4.00065 10.5878 4.00065 9.66732L4.00065 6.33398C4.00065 5.41352 4.74685 4.66732 5.66732 4.66732C6.58778 4.66732 7.33398 5.41352 7.33398 6.33398L7.33398 9.66732Z"
        fill="#070707" />
</svg>