<svg width="16" height="16" viewBox="0 0 16 16" fill="none" xmlns="http://www.w3.org/2000/svg">
<path d="M13.3333 3.33333C13.7015 3.33333 14 3.03485 14 2.66667C14 2.29848 13.7015 2 13.3333 2L2.66667 2C2.29847 2 2 2.29848 2 2.66667C2 3.03485 2.29847 3.33333 2.66667 3.33333L13.3333 3.33333Z" fill="#070707"/>
<path d="M12 6.33268C12 5.41221 11.2538 4.66602 10.3333 4.66602C9.41286 4.66602 8.66667 5.41221 8.66667 6.33268L8.66667 12.3327C8.66667 13.2531 9.41286 13.9993 10.3333 13.9993C11.2538 13.9993 12 13.2531 12 12.3327L12 6.33268Z" fill="#070707"/>
<path d="M7.33398 6.33268C7.33398 5.41221 6.58778 4.66602 5.66732 4.66602C4.74685 4.66602 4.00065 5.41221 4.00065 6.33268L4.00065 9.66602C4.00065 10.5865 4.74685 11.3327 5.66732 11.3327C6.58778 11.3327 7.33398 10.5865 7.33398 9.66602L7.33398 6.33268Z" fill="#070707"/>
</svg>
