<svg width="16" height="16" viewBox="0 0 16 16" fill="none" xmlns="http://www.w3.org/2000/svg">
    <path
        d="M13.7167 4.55219L12.0235 7.59441L12.8294 8.03961C13.4745 8.39594 13.7082 9.20801 13.3505 9.85227C13.2721 9.99361 13.1935 10.1349 13.1151 10.2762C12.9365 10.5974 12.5317 10.7133 12.2101 10.5355L5.57023 6.86341C5.24742 6.68494 5.13095 6.27819 5.31032 5.95585L5.54505 5.53405C5.90234 4.89202 6.71168 4.66003 7.35488 5.01532L8.18641 5.47469L9.92354 2.42968C10.5129 1.39661 11.8264 1.02953 12.8685 1.6049C13.9192 2.18495 14.2997 3.50449 13.7167 4.55219Z"
        fill="#B2B2B2" />
    <path
        d="M4.91054 8.01953C4.61071 8.26306 4.30718 8.4282 3.99384 8.5308C3.47811 8.69973 2.87638 8.7188 2.1286 8.56013C1.67429 8.46366 1.26145 8.85026 1.33061 9.30946C1.71349 11.8521 4.05141 13.8435 6.31586 14.4601C7.46535 14.7731 8.69948 14.763 9.72175 14.1982C10.6015 13.7121 11.2336 12.8659 11.5249 11.6775L4.91054 8.01953Z"
        fill="#B2B2B2" />
</svg>