<svg width="16" height="16" viewBox="0 0 16 16" fill="none" xmlns="http://www.w3.org/2000/svg">
    <g clip-path="url(#clip0_13424_11840)">
        <path fill-rule="evenodd" clip-rule="evenodd"
            d="M1.77778 0C1.30628 0 0.854097 0.187301 0.520699 0.520699C0.187301 0.854097 0 1.30628 0 1.77778V14.2222C0 14.6937 0.187301 15.1459 0.520699 15.4793C0.854097 15.8127 1.30628 16 1.77778 16H14.2222C14.6937 16 15.1459 15.8127 15.4793 15.4793C15.8127 15.1459 16 14.6937 16 14.2222V1.77778C16 1.30628 15.8127 0.854097 15.4793 0.520699C15.1459 0.187301 14.6937 0 14.2222 0H1.77778ZM12.4 6.04089C12.5668 5.87421 12.6605 5.64811 12.6606 5.41231C12.6607 5.17652 12.5671 4.95035 12.4004 4.78356C12.2338 4.61676 12.0077 4.52302 11.7719 4.52293C11.5361 4.52285 11.3099 4.61644 11.1431 4.78311L6.74311 9.18311L4.85778 7.29778C4.77525 7.21519 4.67726 7.14967 4.56941 7.10495C4.46156 7.06023 4.34596 7.03719 4.2292 7.03715C3.99341 7.03707 3.76724 7.13066 3.60044 7.29733C3.43365 7.46401 3.3399 7.69011 3.33982 7.92591C3.33974 8.1617 3.43333 8.38787 3.6 8.55467L6.05156 11.0062C6.14236 11.0971 6.25017 11.1691 6.36883 11.2183C6.48749 11.2675 6.61467 11.2928 6.74311 11.2928C6.87155 11.2928 6.99874 11.2675 7.1174 11.2183C7.23606 11.1691 7.34387 11.0971 7.43467 11.0062L12.4 6.04089Z"
            fill="#5C59ED" />
    </g>
    <defs>
        <clipPath id="clip0_13424_11840">
            <rect width="16" height="16" rx="8" fill="white" />
        </clipPath>
    </defs>
</svg>