<svg width="12" height="12" viewBox="0 0 12 12" fill="none" xmlns="http://www.w3.org/2000/svg">
    <g clip-path="url(#clip0_13373_12607)">
        <path
            d="M10.6473 1.35233C10.8421 1.54711 10.8421 1.86289 10.6473 2.05767L8.70802 3.99698C8.51296 4.19203 8.51272 4.5082 8.70748 4.70355L9.14957 5.14698C9.46381 5.46218 9.24057 6 8.79548 6H6V3.20711C6 2.76165 6.53857 2.53857 6.85355 2.85355L7.29178 3.29178C7.48691 3.48691 7.80324 3.48706 7.99855 3.29211L9.94233 1.352C10.1372 1.15754 10.4527 1.15769 10.6473 1.35233ZM1.35233 10.6473C1.54711 10.8421 1.86289 10.8421 2.05767 10.6473L3.99698 8.70802C4.19203 8.51296 4.5082 8.51272 4.70355 8.70748L5.14698 9.14957C5.46218 9.46381 6 9.24057 6 8.79548V6H3.20711C2.76165 6 2.53857 6.53857 2.85355 6.85355L3.29178 7.29178C3.48691 7.48691 3.48706 7.80324 3.29211 7.99855L1.352 9.94233C1.15754 10.1372 1.15769 10.4527 1.35233 10.6473Z"
            fill="black" />
    </g>
    <defs>
        <clipPath id="clip0_13373_12607">
            <rect width="12" height="12" fill="white" />
        </clipPath>
    </defs>
</svg>