<svg width="16" height="16" viewBox="0 0 16 16" fill="none" xmlns="http://www.w3.org/2000/svg">
    <path
        d="M9.22883 0.676614C9.59123 0.614681 9.93516 0.858201 9.9971 1.22054L9.9973 1.22149L9.9975 1.2227C10.0249 1.38699 10.0402 1.55367 10.0498 1.71981C10.0662 2.00004 10.0683 2.39206 9.9955 2.78506C9.9105 3.24409 9.6975 3.65717 9.5287 3.93401C9.4413 4.07733 9.35863 4.19563 9.29696 4.27913C9.26163 4.32697 9.22556 4.3743 9.18756 4.42009L9.18663 4.42127L9.18583 4.42221C8.9499 4.70411 8.5301 4.74137 8.24816 4.50545C7.96676 4.26991 7.92916 3.85113 8.16376 3.56924L8.16536 3.56731C8.24816 3.46391 8.32316 3.35407 8.3921 3.24101C8.52423 3.02432 8.6441 2.77181 8.6865 2.54267C8.73203 2.2967 8.7341 2.02314 8.7209 1.79752C8.71403 1.67995 8.70296 1.56241 8.6851 1.44597L8.68483 1.44431L8.6847 1.44356C8.62356 1.08169 8.8669 0.738481 9.22883 0.676614Z"
        fill="#8D8D8D" />
    <path
        d="M12.7279 1.70457C13.0738 1.82907 13.2532 2.21039 13.1287 2.55625L12.8292 3.38824C12.7046 3.7341 12.3233 3.91355 11.9774 3.78903C11.6316 3.66452 11.4521 3.28321 11.5766 2.93735L11.8762 2.10536C12.0007 1.75949 12.382 1.58005 12.7279 1.70457Z"
        fill="#8D8D8D" />
    <path
        d="M14.5967 4.69522C14.7611 5.02401 14.6278 5.42381 14.299 5.5882L13.6333 5.921C13.3045 6.08539 12.9047 5.95212 12.7403 5.62334C12.5759 5.29455 12.7092 4.89475 13.038 4.73036L13.7036 4.39756C14.0324 4.23317 14.4323 4.36644 14.5967 4.69522Z"
        fill="#8D8D8D" />
    <path
        d="M11.4757 4.52209C11.7356 4.78202 11.7356 5.20345 11.4757 5.46337L10.8101 6.12896C10.5502 6.38889 10.1287 6.38889 9.86878 6.12896C9.60884 5.86903 9.60884 5.44761 9.86878 5.18768L10.5344 4.52209C10.7943 4.26217 11.2158 4.26217 11.4757 4.52209Z"
        fill="#8D8D8D" />
    <path
        d="M11.3385 7.29472C11.354 6.92745 11.6644 6.64231 12.0316 6.65783L12.0324 6.65786L12.0334 6.65791L12.036 6.65802C12.1596 6.66408 12.2828 6.67718 12.4054 6.69358C12.616 6.72178 12.9072 6.77338 13.2048 6.86858C13.4862 6.95865 13.7782 7.10285 13.9824 7.21205C14.1063 7.27832 14.2288 7.34745 14.3485 7.42112L14.3505 7.42232L14.3512 7.42278C14.6634 7.61678 14.7598 8.02745 14.5658 8.33972C14.3718 8.65185 13.9616 8.74772 13.6494 8.55392C13.5531 8.49472 13.4544 8.43925 13.3547 8.38598C13.1714 8.28798 12.964 8.18925 12.7991 8.13645C12.6016 8.07325 12.3935 8.03498 12.2288 8.01298C12.1446 8.00172 12.0601 7.99258 11.9754 7.98785L11.9744 7.98778C11.6077 7.97158 11.323 7.66158 11.3385 7.29472Z"
        fill="#8D8D8D" />
    <path
        d="M4.36774 4.75044C4.70022 3.83471 5.87148 3.57457 6.56038 4.26343L11.7376 9.44049C12.4266 10.1294 12.1664 11.3006 11.2506 11.633L3.12231 14.5839C2.06035 14.9695 1.03114 13.9403 1.41669 12.8784L4.36774 4.75044Z"
        fill="#8D8D8D" />
</svg>