<svg width="119" height="95" viewBox="0 0 119 95" fill="none" xmlns="http://www.w3.org/2000/svg">
<g filter="url(#filter0_ddddd_14083_16899)">
<path d="M79.0523 55.5876C78.4888 55.0917 77.8368 54.7067 77.1297 54.4536C75.9468 54.0299 74.6692 53.9561 73.4134 53.9437C70.0494 53.9134 66.694 54.2922 63.4217 55.0715C63.0887 55.1506 62.6983 55.2236 62.4336 55.0039C62.2784 54.844 62.1744 54.6415 62.1356 54.4218C61.7654 53.0418 61.2445 51.706 60.5809 50.44C57.6796 45.1155 50.8135 42.3236 45.0217 44.1197C39.2291 45.9157 35.1403 52.0941 35.755 58.1265C34.6877 57.6204 33.2751 57.178 32.4446 58.0194C31.5807 58.8825 32.1178 60.3642 32.8032 61.3802C33.7028 62.7106 34.7879 63.9059 36.0243 64.9304C32.5703 66.9058 29.0543 68.9355 26.4393 71.9331C25.4761 73.0368 24.6076 74.4354 24.8699 75.8776C25.2409 77.9049 27.5741 78.8791 29.6139 79.188C32.8948 79.6839 36.2502 79.3812 39.5024 78.7254C43.1946 77.9779 46.7813 76.7795 50.1817 75.1573C51.6099 74.475 53.0085 73.7167 54.4988 73.1664C56.4346 72.4492 58.4829 72.0992 60.4777 71.5721C64.7947 70.4327 68.8666 68.4636 72.728 66.2189C73.3583 65.8525 74.0731 65.1152 73.647 64.5229L76.0213 63.1413C77.0676 62.5336 78.1434 61.8995 78.8722 60.9347C79.303 60.3479 79.6072 59.6781 79.7656 58.9671C79.9068 58.3609 80.0916 57.4768 79.9154 56.8675C79.7485 56.3708 79.4505 55.9284 79.0523 55.5876Z" fill="white" stroke="white" stroke-width="4.95889" stroke-miterlimit="10"/>
<path d="M73.6571 64.6797C73.8659 65.3961 73.8302 65.5211 73.1961 65.9177C67.7077 69.3934 61.583 71.7421 55.1772 72.8257C54.8489 72.8769 54.5314 72.9871 54.2411 73.1501C48.5999 76.3378 42.6071 78.4863 36.1485 79.2501C34.177 79.5101 32.1815 79.5419 30.203 79.3432C28.9642 79.2035 27.7627 78.9287 26.6784 78.2845C24.8203 77.1792 24.3189 75.3746 25.3465 73.4784C26.1079 72.0728 27.2466 70.9846 28.4551 69.9725C30.7844 68.0165 33.3683 66.4447 36.0259 64.9646C35.9762 64.7457 35.7721 64.6712 35.6308 64.5485C34.4215 63.4867 33.2907 62.352 32.4873 60.9355C32.2777 60.5738 32.1264 60.181 32.0387 59.772C31.7453 58.3042 32.7465 57.2975 34.2158 57.594C34.7584 57.7105 35.2815 57.903 35.7705 58.1661C35.748 57.3643 35.71 56.6254 35.7596 55.888C35.9017 53.8304 36.5195 51.834 37.5643 50.0558C37.8615 49.5381 38.1208 49.4535 38.6851 49.6313C39.1345 50.0737 39.1655 50.2809 38.8356 50.8631C37.4828 53.1962 36.9612 55.9206 37.3578 58.5891C37.3733 58.8018 37.4346 59.009 37.5371 59.1961C37.6395 59.3839 37.7808 59.5469 37.9516 59.675C38.4693 60.0708 38.9994 60.4938 39.3603 61.017C39.8904 61.7893 40.5432 61.8094 41.3504 61.7077C44.213 61.3119 46.942 60.4278 49.6392 59.4336C52.5335 58.3958 55.3456 57.1407 58.0513 55.6792C58.7794 55.3082 59.4818 54.8883 60.1525 54.4218C60.3946 54.2596 60.4497 54.0958 60.3597 53.8017C59.9514 52.4201 59.3088 51.1192 58.4604 49.9542C56.6542 47.5108 54.2885 45.9095 51.2971 45.2762C50.5333 45.0907 49.7486 45.0022 48.9624 45.0138C46.1441 45.0138 43.6673 45.9654 41.4878 47.7281C40.9111 48.1946 40.6969 48.207 40.1706 47.8096C39.8998 47.3346 40.0356 46.9737 40.4369 46.6283C47.1849 40.8101 58.0646 43.5577 61.2352 51.8923C61.6109 52.8749 61.9617 53.8653 62.2893 54.8619C62.3964 55.1887 62.5322 55.2492 62.8504 55.1848C65.4894 54.6151 68.1641 54.2239 70.8559 54.0143C72.7451 53.8863 74.6312 53.8793 76.4878 54.3271C77.441 54.5546 78.3196 54.9349 79.0469 55.6202C79.6756 56.2109 79.8983 56.9739 80 57.7912L79.7415 59.276C79.5475 59.3334 79.5498 59.5298 79.4854 59.668C78.9522 60.8167 78.1457 61.7613 77.2733 62.6555C76.9605 62.9791 76.6035 62.9892 76.2526 62.6888C75.8816 62.2068 75.8917 61.953 76.2907 61.5091C76.626 61.1381 76.9815 60.7787 77.2857 60.3883C77.8174 59.7184 78.2528 58.9927 78.4081 58.1296C78.4632 57.8323 78.3716 57.7275 78.0751 57.7842C76.9884 57.9565 75.9072 58.1537 74.8749 58.5456C74.8423 58.5456 74.8043 58.52 74.7763 58.5286C72.7078 59.2426 70.7302 60.1958 68.8821 61.3678C65.7735 63.3152 63.4458 66.1405 60.7555 68.5567L60.7346 68.5722C60.7299 68.5699 60.7253 68.5684 60.7198 68.5684C60.7144 68.5676 60.7098 68.5691 60.7051 68.5715C60.7004 68.5738 60.6958 68.5777 60.6935 68.5816C60.6904 68.5862 60.6888 68.5909 60.688 68.5963L58.212 70.581C58.2788 70.6175 58.3541 70.6368 58.4309 70.6368C58.5078 70.6368 58.583 70.6175 58.6506 70.581C63.5079 69.2886 68.1106 67.3948 72.3516 64.6727C72.8235 64.3514 73.2225 64.2738 73.6571 64.6797ZM58.4883 57.192C58.3812 57.2401 58.2718 57.2797 58.1701 57.3348C54.4398 59.3327 50.5023 60.9168 46.4274 62.0586C45.229 62.404 44.0096 62.6749 42.7561 62.9683C43.0898 63.4045 43.3126 63.9152 43.4057 64.457C43.4989 64.998 43.4585 65.5545 43.2893 66.0768C43.4834 66.1242 43.6875 66.1125 43.8746 66.0442C47.66 65.3045 51.28 64.0355 54.8217 62.5383C56.4672 61.8475 58.1026 61.1186 59.6293 60.181C60.4218 59.8186 61.1266 59.3179 61.8438 58.8258C61.8771 58.8111 61.9074 58.7893 61.9322 58.7622C61.9571 58.735 61.9765 58.7032 61.9889 58.669C62.0005 58.6341 62.0052 58.5976 62.0029 58.5612C62.0005 58.5239 61.9897 58.4882 61.9726 58.4556C61.6365 57.5335 61.3167 56.6068 60.9799 55.6552L58.4883 57.192ZM62.9576 56.6929C63.0779 57.0383 63.1904 57.3511 63.303 57.667C63.8603 59.2869 64.076 59.1658 62.4181 60.2571C58.101 63.0878 53.3594 64.9661 48.4462 66.4742C45.933 67.2427 43.3343 67.609 40.7823 68.1873C40.662 68.2121 40.5486 68.2602 40.4477 68.3293C40.3468 68.3984 40.2607 68.4869 40.1947 68.5893C39.4736 69.5743 38.6501 70.4801 37.7373 71.2904C36.8742 72.0604 35.9723 72.7946 34.8019 73.0694C33.2891 73.428 32.2754 72.4717 32.5564 70.945C32.7295 70.026 33.161 69.218 33.6562 68.4356C33.7323 68.3153 33.8968 68.2113 33.8192 67.9761C31.7088 69.3422 29.6209 70.7122 27.8939 72.5323C27.3832 73.0399 26.9586 73.6267 26.635 74.2694C26.0722 75.4561 26.3416 76.3674 27.4779 77.0325C27.7674 77.1994 28.0724 77.336 28.3899 77.4416C30.1526 78.0392 31.9851 78.0617 33.8014 77.9236C43.3111 77.2048 51.7729 73.8378 59.1877 67.8209C61.0078 66.3392 62.5687 64.585 64.3027 63.0133C68.0035 59.6563 72.2204 57.2781 77.1926 56.377C77.2772 56.3615 77.3649 56.3506 77.3874 56.235C76.8169 55.961 76.2076 55.7762 75.5812 55.6862C73.0944 55.2857 70.6161 55.486 68.1401 55.7879C66.4045 56.0006 64.6776 56.3025 62.9506 56.6859L62.9576 56.6929ZM37.3733 66.4587C36.563 67.1542 35.8411 67.9474 35.2249 68.8191C34.7273 69.5324 34.2779 70.2752 34.073 71.1313C33.9551 71.6133 34.0521 71.6979 34.5512 71.6272C34.9959 71.545 35.415 71.3587 35.7736 71.0832C36.9224 70.2783 37.8064 69.2126 38.6649 68.1236C38.7681 67.9917 38.8372 67.9039 38.6253 67.7867C38.089 67.4685 37.6535 67.0059 37.3679 66.4517L37.3733 66.4587ZM37.2157 63.9113C37.4905 63.3292 37.8188 62.813 38.3265 62.4436C38.4646 62.3419 38.4988 62.2588 38.3645 62.1292C37.1878 60.9983 36.0259 59.8442 34.4596 59.2434C34.1918 59.1402 33.8448 58.898 33.629 59.1332C33.4133 59.3676 33.6671 59.7045 33.8014 59.9637C34.5682 61.5712 35.793 62.8029 37.2189 63.9043L37.2157 63.9113ZM41.9248 65.3224C42.0102 64.8846 41.9186 64.4313 41.671 64.0603C41.4234 63.6901 41.0392 63.4317 40.6022 63.3432C39.6591 63.1701 38.734 63.7817 38.5748 64.6813C38.4941 65.1385 38.5973 65.608 38.862 65.9891C39.1267 66.3695 39.5311 66.6303 39.9875 66.7141C40.4291 66.7816 40.8785 66.6722 41.2402 66.4106C41.6019 66.149 41.8464 65.7555 41.9201 65.3154L41.9248 65.3224Z" fill="black" stroke="black" stroke-width="0.55099" stroke-miterlimit="10"/>
<path d="M58.042 55.6707C55.337 57.1323 52.525 58.3873 49.6306 59.4243C46.9365 60.4194 44.2083 61.3034 41.3411 61.6993C40.5346 61.8095 39.8819 61.7885 39.3518 61.0085C38.9908 60.49 38.4561 60.0615 37.943 59.6665C37.7722 59.5384 37.631 59.3746 37.5285 59.1876C37.4261 59.0005 37.3648 58.7933 37.3485 58.5798C36.9526 55.9113 37.4742 53.1877 38.8271 50.8538C39.1569 50.2717 39.1259 50.0644 38.6765 49.6228L40.1652 47.7918C40.6922 48.1892 40.9064 48.1775 41.4831 47.7111C43.6626 45.9476 46.1456 44.9999 48.9569 44.996C49.7432 44.9851 50.5279 45.0728 51.2916 45.2583C52.8354 46.2728 54.2279 47.4518 55.2641 48.9941C55.9215 49.9775 56.4439 51.0455 56.818 52.1679C57.2356 53.3422 57.73 54.4739 58.042 55.6707Z" fill="#EAB48E"/>
<path d="M73.6571 64.6789C73.2271 64.28 72.8281 64.3584 72.3554 64.6618C68.1136 67.3839 63.5117 69.2777 58.6536 70.5701C58.5869 70.6066 58.5108 70.626 58.4348 70.626C58.3579 70.626 58.2826 70.6066 58.2151 70.5701L60.6919 68.5854L60.7485 68.6405L60.7384 68.5614L60.7586 68.5474C60.9457 68.6855 61.104 68.5652 61.2771 68.4938C62.1161 68.1282 62.9606 67.7735 63.7896 67.3854C65.782 66.4618 67.6992 65.3837 69.5232 64.1612C70.2613 63.6466 70.97 63.0901 71.6452 62.4948C72.9593 61.3709 74.1445 60.1391 74.8733 58.5363C75.9095 58.1443 76.9869 57.9511 78.0727 57.7749C78.37 57.7267 78.4616 57.8323 78.4065 58.1203C78.2505 58.9841 77.8158 59.7091 77.2841 60.3789C76.9729 60.7694 76.6244 61.1287 76.2891 61.4997C75.8901 61.9437 75.88 62.1905 76.2511 62.6795C75.5603 63.2267 74.8819 63.7793 74.1926 64.3219C74.0234 64.4546 73.8302 64.5563 73.6571 64.6789Z" fill="#CF7C40"/>
<path d="M62.9505 56.6858C64.6774 56.3024 66.4044 55.995 68.1415 55.7894C70.6175 55.4874 73.0958 55.2872 75.5827 55.6877C76.2091 55.7777 76.8183 55.9632 77.3888 56.2372C77.3593 56.3529 77.2786 56.3629 77.194 56.3785C72.2219 57.2796 68.0049 59.6594 64.3041 63.0148C62.5771 64.5865 61.0092 66.3414 59.1891 67.8231C51.7805 73.8494 43.3187 77.2172 33.8036 77.9251C31.9866 78.0632 30.154 78.0407 28.3913 77.4438C28.0739 77.3383 27.7688 77.2009 27.4793 77.034C26.343 76.3673 26.0737 75.456 26.6364 74.2708C26.9601 73.6282 27.3854 73.0414 27.8954 72.5337C29.6223 70.7136 31.7118 69.3476 33.8346 67.9784C33.9123 68.2128 33.7477 68.3238 33.6724 68.4379C33.1764 69.2195 32.7379 70.0283 32.5718 70.9465C32.2939 72.4732 33.3076 73.4302 34.8173 73.0709C35.9792 72.7961 36.8788 72.0626 37.7528 71.2919C38.6609 70.4761 39.479 69.5649 40.1946 68.576C40.2606 68.4728 40.3467 68.3843 40.4476 68.3152C40.5485 68.2462 40.6619 68.1981 40.7822 68.1732C43.3342 67.595 45.9328 67.2286 48.4461 66.4602C53.3593 64.9575 58.0994 63.0792 62.418 60.243C64.0759 59.1556 63.8601 59.2759 63.3028 57.6529C63.1849 57.344 63.0731 57.0297 62.9505 56.6858Z" fill="#E9B38E"/>
<path d="M59.6308 60.1741C58.1025 61.1118 56.4694 61.8367 54.8232 62.5314C51.2815 64.0286 47.6622 65.2946 43.8768 66.0366C43.689 66.1049 43.4848 66.1165 43.2908 66.07C43.4608 65.5468 43.5004 64.9911 43.4072 64.4493C43.3149 63.9083 43.0913 63.3976 42.7576 62.9614C44.0142 62.6672 45.2304 62.3932 46.4289 62.0509C50.5038 60.9092 54.4413 59.3258 58.1716 57.3279C58.274 57.2728 58.3827 57.2332 58.4898 57.1843C58.5325 57.2728 58.583 57.3574 58.621 57.4474C58.9874 58.3431 59.2132 59.2947 59.6308 60.1741Z" fill="#008D36"/>
<path d="M74.8665 58.5286C74.1377 60.1314 72.9525 61.3623 71.6384 62.487C70.9631 63.0823 70.2545 63.6381 69.5164 64.1535C67.6885 65.3767 65.7682 66.4556 63.7727 67.3792C62.9437 67.7673 62.0992 68.1221 61.2594 68.4876C61.0972 68.5583 60.9334 68.6793 60.7417 68.5412C63.4319 66.1234 65.7496 63.2981 68.8682 61.3507C70.7163 60.1787 72.6948 59.2256 74.7625 58.5115C74.8021 58.5029 74.8401 58.5216 74.8665 58.5286Z" fill="#D88C56"/>
<path d="M58.043 55.6708C57.7302 54.4739 57.2358 53.343 56.8337 52.1772C56.4596 51.0541 55.9373 49.9868 55.2798 49.0027C54.2436 47.4612 52.8426 46.2814 51.3074 45.2677C54.2987 45.9018 56.6614 47.5023 58.4707 49.9457C59.3167 51.1131 59.9555 52.417 60.3599 53.8002C60.4499 54.0936 60.3948 54.2581 60.1526 54.4204C59.4789 54.8845 58.7742 55.3029 58.043 55.6708Z" fill="#E3A479"/>
<path d="M37.3679 66.4517C37.6528 67.002 38.0867 67.4622 38.6199 67.7797C38.8326 67.8969 38.7635 67.9846 38.6595 68.1158C37.7964 69.2055 36.917 70.2712 35.769 71.0761C35.4096 71.3517 34.9905 71.5379 34.5458 71.6202C34.0467 71.6909 33.9504 71.6062 34.0676 71.1242C34.2733 70.2611 34.722 69.5253 35.2195 68.812C35.8365 67.9404 36.5576 67.1471 37.3679 66.4517Z" fill="#008D36"/>
<path d="M37.2199 63.9043C35.8019 62.8029 34.5771 61.5695 33.797 59.9567C33.6705 59.6974 33.4322 59.352 33.6239 59.1261C33.8156 58.9003 34.1874 59.1261 34.4544 59.2364C36.0207 59.8379 37.1835 60.9913 38.3594 62.1222C38.4944 62.2518 38.4595 62.3349 38.3213 62.4365C37.8137 62.806 37.4854 63.3229 37.2199 63.9043Z" fill="#008D36"/>
<path d="M41.9203 65.3153C41.8451 65.7554 41.599 66.1481 41.2365 66.4089C40.8741 66.6689 40.4239 66.7761 39.9822 66.707C39.5266 66.6239 39.1222 66.3631 38.8576 65.982C38.5929 65.6017 38.4897 65.1313 38.5696 64.6749C38.7287 63.7754 39.6547 63.1653 40.597 63.3361C41.034 63.4253 41.4182 63.683 41.6658 64.0532C41.9141 64.4242 42.0049 64.8775 41.9203 65.3153Z" fill="#F7F4F1"/>
<path d="M59.6309 60.1742C59.2133 59.2956 58.9874 58.344 58.6141 57.4475C58.5761 57.3574 58.5256 57.2744 58.4829 57.1851L60.9814 55.6483C61.3268 56.5999 61.6381 57.5267 61.9749 58.4488C61.992 58.4814 62.0021 58.517 62.0044 58.5543C62.0075 58.5908 62.0021 58.6273 61.9904 58.6622C61.978 58.6963 61.9586 58.7282 61.9338 58.7553C61.909 58.7825 61.8787 58.8042 61.8453 58.819C61.1281 59.3056 60.4241 59.8117 59.6309 60.1742Z" fill="#39A935"/>
</g>
<g filter="url(#filter1_ddddd_14083_16899)">
<path d="M93.7446 44.4665C93.6765 44.3985 93.6034 44.3355 93.5303 44.2725C93.4571 44.2096 93.3865 44.1416 93.3134 44.0786C93.2402 44.0156 93.1721 43.9476 93.099 43.8821L92.8821 43.6882C92.814 43.6201 92.7409 43.5572 92.6677 43.4942C92.5946 43.4312 92.524 43.3632 92.4508 43.3003C92.3777 43.2373 92.3096 43.1693 92.2365 43.1038C92.1633 43.0383 92.0927 42.9728 92.0196 42.9098C91.9464 42.8469 91.8784 42.7788 91.8052 42.7159C91.7321 42.6529 91.6615 42.5849 91.5883 42.5194C91.5152 42.4539 91.4471 42.3909 91.374 42.3254C91.3008 42.26 91.2302 42.1945 91.1571 42.1315C91.0839 42.0685 91.0158 42.0005 90.9427 41.9375C90.8696 41.8746 90.7989 41.8066 90.7258 41.7411C90.6527 41.6756 90.5846 41.6101 90.5114 41.5471C90.4383 41.4841 90.3677 41.4161 90.2945 41.3532C90.2214 41.2902 90.1533 41.2222 90.0802 41.1567C90.007 41.0912 89.9364 41.0282 89.8633 40.9627C89.7901 40.8973 89.722 40.8318 89.6489 40.7688C89.5758 40.7058 89.5052 40.6378 89.432 40.5723C89.1114 40.2553 88.7491 39.9833 88.3551 39.7638C87.586 39.3489 86.7191 39.1487 85.8457 39.1844L85.7802 39.1265C85.707 39.0635 85.644 38.9904 85.5633 38.9325C85.4826 38.8746 85.4271 38.7965 85.3489 38.736C85.2707 38.6756 85.2127 38.6 85.132 38.5421C85.0513 38.4842 85.0135 38.4212 84.9454 38.3708C86.292 38.7623 87.6976 38.9116 89.0966 38.8116C90.4509 38.7109 91.5152 38.3758 92.35 37.7889C93.4849 36.9879 94.1154 35.6781 93.9464 34.4565C93.8078 33.5929 93.3485 32.8132 92.6602 32.2726C92.5921 32.2071 92.5215 32.1416 92.4458 32.0787C92.3701 32.0157 92.3046 31.9452 92.2289 31.8847C92.1533 31.8242 92.0902 31.7512 92.0145 31.6882C91.9389 31.6253 91.8758 31.5573 91.8002 31.4943C91.7245 31.4313 91.6589 31.3633 91.5833 31.3003C91.5076 31.2373 91.442 31.1668 91.3664 31.1064C91.2907 31.0459 91.2277 30.9729 91.152 30.9099C91.0764 30.8469 91.0133 30.7789 90.9377 30.7159C90.862 30.653 90.7964 30.5824 90.7208 30.522C90.6451 30.4615 90.5821 30.3885 90.5039 30.3255C90.4257 30.2625 90.3652 30.1945 90.2895 30.1316C90.2138 30.0686 90.1508 29.9981 90.0751 29.9376C89.9995 29.8772 89.9339 29.8041 89.8582 29.7437C89.7826 29.6832 89.7195 29.6102 89.6439 29.5472C89.5682 29.4842 89.5026 29.4162 89.427 29.3532C89.3513 29.2903 89.2883 29.2197 89.2126 29.1593C89.137 29.0988 89.0714 29.0258 88.9957 28.9628C88.9201 28.8998 88.857 28.8318 88.7813 28.7689C88.7057 28.7059 88.6401 28.6353 88.5645 28.5749C88.4888 28.5144 88.4257 28.4414 88.3501 28.3784C88.0735 28.1166 87.7631 27.893 87.427 27.7134C86.5087 27.264 85.4963 27.0395 84.4738 27.0585C82.635 27.0377 80.8129 27.4095 79.1297 28.1492L79.0187 28.056C77.8418 27.0139 76.5397 26.1221 75.1424 25.4011C73.6431 24.6363 71.9653 24.2883 70.285 24.3936C69.5807 24.4564 68.8902 24.6263 68.2372 24.8973C68.1767 24.8394 68.1136 24.7865 68.0506 24.7336C67.9875 24.6807 67.9093 24.6026 67.8362 24.5397C67.7631 24.4767 67.6924 24.4062 67.6193 24.3432C67.5462 24.2802 67.4781 24.2122 67.4049 24.1492C67.3318 24.0863 67.2612 24.0183 67.188 23.9553C67.1149 23.8923 67.0468 23.8243 66.9737 23.7588C66.9005 23.6933 66.8299 23.6278 66.7568 23.5648C66.6836 23.5019 66.6155 23.4339 66.5424 23.3709C66.4693 23.3079 66.3987 23.2399 66.3255 23.1769C66.2524 23.114 66.1843 23.0434 66.1112 22.9805C66.038 22.9175 65.9674 22.8495 65.8943 22.7865C65.8211 22.7235 65.753 22.6555 65.6799 22.5926C65.6068 22.5296 65.5361 22.4616 65.463 22.3961C65.3899 22.3306 65.3218 22.2651 65.2486 22.2021C65.1755 22.1392 65.1049 22.0712 65.0317 22.0082C64.9586 21.9452 64.8905 21.8772 64.8174 21.8117C64.7442 21.7462 64.6736 21.6807 64.6005 21.6178C64.5273 21.5548 64.4592 21.4868 64.3861 21.4238C64.313 21.3608 64.2423 21.2928 64.1692 21.2299C64.0961 21.1669 64.028 21.0964 63.9548 21.0334C63.5099 20.5717 62.9434 20.2452 62.3206 20.0913C60.8074 19.7261 59.153 20.4641 57.6902 22.1669C54.6235 25.7361 53.4028 30.3003 52.4621 34.7058C50.2524 36.1074 47.8681 37.2134 45.3703 37.9955C45.1757 38.0557 45.0082 38.1816 44.8964 38.3516C44.7846 38.5217 44.7354 38.7252 44.7574 38.9275C44.7725 39.0581 44.8171 39.1836 44.8879 39.2944C44.9586 39.4053 45.0538 39.4986 45.166 39.5673C45.2264 39.644 45.2998 39.7097 45.3829 39.7612C45.4424 39.838 45.515 39.9036 45.5973 39.9552C45.6576 40.0327 45.731 40.0992 45.8141 40.1517C45.8743 40.2277 45.9468 40.2933 46.0285 40.3456C46.089 40.4224 46.1624 40.488 46.2454 40.5396C46.3048 40.617 46.3774 40.6835 46.4598 40.736C46.5209 40.8122 46.5942 40.8777 46.6767 40.93C46.7362 41.0067 46.8087 41.0724 46.891 41.1239C46.9515 41.2007 47.0249 41.2664 47.1079 41.3179C47.1674 41.3954 47.2399 41.4619 47.3223 41.5144C47.3834 41.5905 47.4567 41.656 47.5392 41.7083C47.5987 41.785 47.6713 41.8507 47.7536 41.9023C47.8139 41.9798 47.8873 42.0463 47.9705 42.0987C48.0306 42.1748 48.1031 42.2404 48.1848 42.2927C48.2453 42.3695 48.3187 42.4351 48.4017 42.4867C48.4618 42.5635 48.5343 42.6299 48.6161 42.6831C48.6769 42.7586 48.7492 42.8241 48.8304 42.8771C48.8915 42.9533 48.9648 43.0188 49.0473 43.071C49.1068 43.1478 49.1794 43.2134 49.2617 43.265C49.3227 43.342 49.396 43.4083 49.4786 43.4615C49.5506 43.556 49.6412 43.6347 49.7449 43.6928C49.8486 43.7508 49.9631 43.787 50.0814 43.799C50.1469 43.799 50.2175 43.799 50.2831 43.799C50.2302 43.9602 50.1822 44.1239 50.1268 44.2851C46.8664 44.9173 43.7741 46.2222 41.0476 48.1163C38.4525 49.9576 37.2419 52.2649 37.8093 54.2876C38.0234 55.0243 38.4528 55.6803 39.0426 56.1717C39.1107 56.2397 39.1838 56.3027 39.2595 56.3657C39.3351 56.4286 39.4007 56.4967 39.4739 56.5621C39.547 56.6276 39.6151 56.6931 39.6907 56.7561C39.7664 56.8191 39.832 56.8871 39.9051 56.9501C39.9783 57.013 40.0463 57.081 40.122 57.1465C40.1977 57.212 40.2632 57.2775 40.3364 57.3405C40.4095 57.4034 40.4776 57.4715 40.5507 57.5344C40.6239 57.5974 40.6945 57.6654 40.7676 57.7284C40.8408 57.7914 40.9089 57.8619 40.982 57.9249C41.0551 57.9878 41.1258 58.0558 41.1989 58.1188C41.272 58.1818 41.3401 58.2498 41.4133 58.3128C41.4864 58.3757 41.557 58.4437 41.6302 58.5092C41.7033 58.5747 41.7714 58.6402 41.8471 58.7032C41.9227 58.7662 41.9883 58.8342 42.0614 58.8971C42.1346 58.9601 42.2027 59.0281 42.2758 59.0936L42.4927 59.2876C42.5608 59.3556 42.6339 59.4185 42.707 59.4815C42.7802 59.5445 42.8508 59.6125 42.9239 59.6755C42.9971 59.7384 43.0652 59.809 43.1383 59.8719C43.2115 59.9349 43.2821 60.0029 43.3552 60.0659C44.4245 61.1112 46.0512 61.6175 47.4661 61.6377H47.5821C52.1217 61.6377 55.6323 58.1113 57.2615 55.0659C57.7985 54.0497 58.2457 52.9885 58.5981 51.8947C59.4503 51.8515 60.3043 51.8599 61.1554 51.9199C64.8981 52.1717 68.56 53.3027 72.1034 54.3884L72.7163 54.5748C76.6985 55.7939 80.605 56.8896 84.6024 56.9198C87.2152 56.9349 89.432 56.474 91.2327 55.5319C93.4823 54.3606 95.1015 52.3657 95.5655 50.1969C95.7889 49.1661 95.7383 48.0949 95.4189 47.0896C95.0995 46.0843 94.5223 45.18 93.7446 44.4665Z" fill="white"/>
<mask id="path-14-inside-1_14083_16899" fill="white">
<path d="M93.7446 44.4665C93.6765 44.3985 93.6034 44.3355 93.5303 44.2725C93.4571 44.2096 93.3865 44.1416 93.3134 44.0786C93.2402 44.0156 93.1721 43.9476 93.099 43.8821L92.8821 43.6882C92.814 43.6201 92.7409 43.5572 92.6677 43.4942C92.5946 43.4312 92.524 43.3632 92.4508 43.3003C92.3777 43.2373 92.3096 43.1693 92.2365 43.1038C92.1633 43.0383 92.0927 42.9728 92.0196 42.9098C91.9464 42.8469 91.8784 42.7788 91.8052 42.7159C91.7321 42.6529 91.6615 42.5849 91.5883 42.5194C91.5152 42.4539 91.4471 42.3909 91.374 42.3254C91.3008 42.26 91.2302 42.1945 91.1571 42.1315C91.0839 42.0685 91.0158 42.0005 90.9427 41.9375C90.8696 41.8746 90.7989 41.8066 90.7258 41.7411C90.6527 41.6756 90.5846 41.6101 90.5114 41.5471C90.4383 41.4841 90.3677 41.4161 90.2945 41.3532C90.2214 41.2902 90.1533 41.2222 90.0802 41.1567C90.007 41.0912 89.9364 41.0282 89.8633 40.9627C89.7901 40.8973 89.722 40.8318 89.6489 40.7688C89.5758 40.7058 89.5052 40.6378 89.432 40.5723C89.1114 40.2553 88.7491 39.9833 88.3551 39.7638C87.586 39.3489 86.7191 39.1487 85.8457 39.1844L85.7802 39.1265C85.707 39.0635 85.644 38.9904 85.5633 38.9325C85.4826 38.8746 85.4271 38.7965 85.3489 38.736C85.2707 38.6756 85.2127 38.6 85.132 38.5421C85.0513 38.4842 85.0135 38.4212 84.9454 38.3708C86.292 38.7623 87.6976 38.9116 89.0966 38.8116C90.4509 38.7109 91.5152 38.3758 92.35 37.7889C93.4849 36.9879 94.1154 35.6781 93.9464 34.4565C93.8078 33.5929 93.3485 32.8132 92.6602 32.2726C92.5921 32.2071 92.5215 32.1416 92.4458 32.0787C92.3701 32.0157 92.3046 31.9452 92.2289 31.8847C92.1533 31.8242 92.0902 31.7512 92.0145 31.6882C91.9389 31.6253 91.8758 31.5573 91.8002 31.4943C91.7245 31.4313 91.6589 31.3633 91.5833 31.3003C91.5076 31.2373 91.442 31.1668 91.3664 31.1064C91.2907 31.0459 91.2277 30.9729 91.152 30.9099C91.0764 30.8469 91.0133 30.7789 90.9377 30.7159C90.862 30.653 90.7964 30.5824 90.7208 30.522C90.6451 30.4615 90.5821 30.3885 90.5039 30.3255C90.4257 30.2625 90.3652 30.1945 90.2895 30.1316C90.2138 30.0686 90.1508 29.9981 90.0751 29.9376C89.9995 29.8772 89.9339 29.8041 89.8582 29.7437C89.7826 29.6832 89.7195 29.6102 89.6439 29.5472C89.5682 29.4842 89.5026 29.4162 89.427 29.3532C89.3513 29.2903 89.2883 29.2197 89.2126 29.1593C89.137 29.0988 89.0714 29.0258 88.9957 28.9628C88.9201 28.8998 88.857 28.8318 88.7813 28.7689C88.7057 28.7059 88.6401 28.6353 88.5645 28.5749C88.4888 28.5144 88.4257 28.4414 88.3501 28.3784C88.0735 28.1166 87.7631 27.893 87.427 27.7134C86.5087 27.264 85.4963 27.0395 84.4738 27.0585C82.635 27.0377 80.8129 27.4095 79.1297 28.1492L79.0187 28.056C77.8418 27.0139 76.5397 26.1221 75.1424 25.4011C73.6431 24.6363 71.9653 24.2883 70.285 24.3936C69.5807 24.4564 68.8902 24.6263 68.2372 24.8973C68.1767 24.8394 68.1136 24.7865 68.0506 24.7336C67.9875 24.6807 67.9093 24.6026 67.8362 24.5397C67.7631 24.4767 67.6924 24.4062 67.6193 24.3432C67.5462 24.2802 67.4781 24.2122 67.4049 24.1492C67.3318 24.0863 67.2612 24.0183 67.188 23.9553C67.1149 23.8923 67.0468 23.8243 66.9737 23.7588C66.9005 23.6933 66.8299 23.6278 66.7568 23.5648C66.6836 23.5019 66.6155 23.4339 66.5424 23.3709C66.4693 23.3079 66.3987 23.2399 66.3255 23.1769C66.2524 23.114 66.1843 23.0434 66.1112 22.9805C66.038 22.9175 65.9674 22.8495 65.8943 22.7865C65.8211 22.7235 65.753 22.6555 65.6799 22.5926C65.6068 22.5296 65.5361 22.4616 65.463 22.3961C65.3899 22.3306 65.3218 22.2651 65.2486 22.2021C65.1755 22.1392 65.1049 22.0712 65.0317 22.0082C64.9586 21.9452 64.8905 21.8772 64.8174 21.8117C64.7442 21.7462 64.6736 21.6807 64.6005 21.6178C64.5273 21.5548 64.4592 21.4868 64.3861 21.4238C64.313 21.3608 64.2423 21.2928 64.1692 21.2299C64.0961 21.1669 64.028 21.0964 63.9548 21.0334C63.5099 20.5717 62.9434 20.2452 62.3206 20.0913C60.8074 19.7261 59.153 20.4641 57.6902 22.1669C54.6235 25.7361 53.4028 30.3003 52.4621 34.7058C50.2524 36.1074 47.8681 37.2134 45.3703 37.9955C45.1757 38.0557 45.0082 38.1816 44.8964 38.3516C44.7846 38.5217 44.7354 38.7252 44.7574 38.9275C44.7725 39.0581 44.8171 39.1836 44.8879 39.2944C44.9586 39.4053 45.0538 39.4986 45.166 39.5673C45.2264 39.644 45.2998 39.7097 45.3829 39.7612C45.4424 39.838 45.515 39.9036 45.5973 39.9552C45.6576 40.0327 45.731 40.0992 45.8141 40.1517C45.8743 40.2277 45.9468 40.2933 46.0285 40.3456C46.089 40.4224 46.1624 40.488 46.2454 40.5396C46.3048 40.617 46.3774 40.6835 46.4598 40.736C46.5209 40.8122 46.5942 40.8777 46.6767 40.93C46.7362 41.0067 46.8087 41.0724 46.891 41.1239C46.9515 41.2007 47.0249 41.2664 47.1079 41.3179C47.1674 41.3954 47.2399 41.4619 47.3223 41.5144C47.3834 41.5905 47.4567 41.656 47.5392 41.7083C47.5987 41.785 47.6713 41.8507 47.7536 41.9023C47.8139 41.9798 47.8873 42.0463 47.9705 42.0987C48.0306 42.1748 48.1031 42.2404 48.1848 42.2927C48.2453 42.3695 48.3187 42.4351 48.4017 42.4867C48.4618 42.5635 48.5343 42.6299 48.6161 42.6831C48.6769 42.7586 48.7492 42.8241 48.8304 42.8771C48.8915 42.9533 48.9648 43.0188 49.0473 43.071C49.1068 43.1478 49.1794 43.2134 49.2617 43.265C49.3227 43.342 49.396 43.4083 49.4786 43.4615C49.5506 43.556 49.6412 43.6347 49.7449 43.6928C49.8486 43.7508 49.9631 43.787 50.0814 43.799C50.1469 43.799 50.2175 43.799 50.2831 43.799C50.2302 43.9602 50.1822 44.1239 50.1268 44.2851C46.8664 44.9173 43.7741 46.2222 41.0476 48.1163C38.4525 49.9576 37.2419 52.2649 37.8093 54.2876C38.0234 55.0243 38.4528 55.6803 39.0426 56.1717C39.1107 56.2397 39.1838 56.3027 39.2595 56.3657C39.3351 56.4286 39.4007 56.4967 39.4739 56.5621C39.547 56.6276 39.6151 56.6931 39.6907 56.7561C39.7664 56.8191 39.832 56.8871 39.9051 56.9501C39.9783 57.013 40.0463 57.081 40.122 57.1465C40.1977 57.212 40.2632 57.2775 40.3364 57.3405C40.4095 57.4034 40.4776 57.4715 40.5507 57.5344C40.6239 57.5974 40.6945 57.6654 40.7676 57.7284C40.8408 57.7914 40.9089 57.8619 40.982 57.9249C41.0551 57.9878 41.1258 58.0558 41.1989 58.1188C41.272 58.1818 41.3401 58.2498 41.4133 58.3128C41.4864 58.3757 41.557 58.4437 41.6302 58.5092C41.7033 58.5747 41.7714 58.6402 41.8471 58.7032C41.9227 58.7662 41.9883 58.8342 42.0614 58.8971C42.1346 58.9601 42.2027 59.0281 42.2758 59.0936L42.4927 59.2876C42.5608 59.3556 42.6339 59.4185 42.707 59.4815C42.7802 59.5445 42.8508 59.6125 42.9239 59.6755C42.9971 59.7384 43.0652 59.809 43.1383 59.8719C43.2115 59.9349 43.2821 60.0029 43.3552 60.0659C44.4245 61.1112 46.0512 61.6175 47.4661 61.6377H47.5821C52.1217 61.6377 55.6323 58.1113 57.2615 55.0659C57.7985 54.0497 58.2457 52.9885 58.5981 51.8947C59.4503 51.8515 60.3043 51.8599 61.1554 51.9199C64.8981 52.1717 68.56 53.3027 72.1034 54.3884L72.7163 54.5748C76.6985 55.7939 80.605 56.8896 84.6024 56.9198C87.2152 56.9349 89.432 56.474 91.2327 55.5319C93.4823 54.3606 95.1015 52.3657 95.5655 50.1969C95.7889 49.1661 95.7383 48.0949 95.4189 47.0896C95.0995 46.0843 94.5223 45.18 93.7446 44.4665Z"/>
</mask>
<path d="M93.7446 44.4665C93.6765 44.3985 93.6034 44.3355 93.5303 44.2725C93.4571 44.2096 93.3865 44.1416 93.3134 44.0786C93.2402 44.0156 93.1721 43.9476 93.099 43.8821L92.8821 43.6882C92.814 43.6201 92.7409 43.5572 92.6677 43.4942C92.5946 43.4312 92.524 43.3632 92.4508 43.3003C92.3777 43.2373 92.3096 43.1693 92.2365 43.1038C92.1633 43.0383 92.0927 42.9728 92.0196 42.9098C91.9464 42.8469 91.8784 42.7788 91.8052 42.7159C91.7321 42.6529 91.6615 42.5849 91.5883 42.5194C91.5152 42.4539 91.4471 42.3909 91.374 42.3254C91.3008 42.26 91.2302 42.1945 91.1571 42.1315C91.0839 42.0685 91.0158 42.0005 90.9427 41.9375C90.8696 41.8746 90.7989 41.8066 90.7258 41.7411C90.6527 41.6756 90.5846 41.6101 90.5114 41.5471C90.4383 41.4841 90.3677 41.4161 90.2945 41.3532C90.2214 41.2902 90.1533 41.2222 90.0802 41.1567C90.007 41.0912 89.9364 41.0282 89.8633 40.9627C89.7901 40.8973 89.722 40.8318 89.6489 40.7688C89.5758 40.7058 89.5052 40.6378 89.432 40.5723C89.1114 40.2553 88.7491 39.9833 88.3551 39.7638C87.586 39.3489 86.7191 39.1487 85.8457 39.1844L85.7802 39.1265C85.707 39.0635 85.644 38.9904 85.5633 38.9325C85.4826 38.8746 85.4271 38.7965 85.3489 38.736C85.2707 38.6756 85.2127 38.6 85.132 38.5421C85.0513 38.4842 85.0135 38.4212 84.9454 38.3708C86.292 38.7623 87.6976 38.9116 89.0966 38.8116C90.4509 38.7109 91.5152 38.3758 92.35 37.7889C93.4849 36.9879 94.1154 35.6781 93.9464 34.4565C93.8078 33.5929 93.3485 32.8132 92.6602 32.2726C92.5921 32.2071 92.5215 32.1416 92.4458 32.0787C92.3701 32.0157 92.3046 31.9452 92.2289 31.8847C92.1533 31.8242 92.0902 31.7512 92.0145 31.6882C91.9389 31.6253 91.8758 31.5573 91.8002 31.4943C91.7245 31.4313 91.6589 31.3633 91.5833 31.3003C91.5076 31.2373 91.442 31.1668 91.3664 31.1064C91.2907 31.0459 91.2277 30.9729 91.152 30.9099C91.0764 30.8469 91.0133 30.7789 90.9377 30.7159C90.862 30.653 90.7964 30.5824 90.7208 30.522C90.6451 30.4615 90.5821 30.3885 90.5039 30.3255C90.4257 30.2625 90.3652 30.1945 90.2895 30.1316C90.2138 30.0686 90.1508 29.9981 90.0751 29.9376C89.9995 29.8772 89.9339 29.8041 89.8582 29.7437C89.7826 29.6832 89.7195 29.6102 89.6439 29.5472C89.5682 29.4842 89.5026 29.4162 89.427 29.3532C89.3513 29.2903 89.2883 29.2197 89.2126 29.1593C89.137 29.0988 89.0714 29.0258 88.9957 28.9628C88.9201 28.8998 88.857 28.8318 88.7813 28.7689C88.7057 28.7059 88.6401 28.6353 88.5645 28.5749C88.4888 28.5144 88.4257 28.4414 88.3501 28.3784C88.0735 28.1166 87.7631 27.893 87.427 27.7134C86.5087 27.264 85.4963 27.0395 84.4738 27.0585C82.635 27.0377 80.8129 27.4095 79.1297 28.1492L79.0187 28.056C77.8418 27.0139 76.5397 26.1221 75.1424 25.4011C73.6431 24.6363 71.9653 24.2883 70.285 24.3936C69.5807 24.4564 68.8902 24.6263 68.2372 24.8973C68.1767 24.8394 68.1136 24.7865 68.0506 24.7336C67.9875 24.6807 67.9093 24.6026 67.8362 24.5397C67.7631 24.4767 67.6924 24.4062 67.6193 24.3432C67.5462 24.2802 67.4781 24.2122 67.4049 24.1492C67.3318 24.0863 67.2612 24.0183 67.188 23.9553C67.1149 23.8923 67.0468 23.8243 66.9737 23.7588C66.9005 23.6933 66.8299 23.6278 66.7568 23.5648C66.6836 23.5019 66.6155 23.4339 66.5424 23.3709C66.4693 23.3079 66.3987 23.2399 66.3255 23.1769C66.2524 23.114 66.1843 23.0434 66.1112 22.9805C66.038 22.9175 65.9674 22.8495 65.8943 22.7865C65.8211 22.7235 65.753 22.6555 65.6799 22.5926C65.6068 22.5296 65.5361 22.4616 65.463 22.3961C65.3899 22.3306 65.3218 22.2651 65.2486 22.2021C65.1755 22.1392 65.1049 22.0712 65.0317 22.0082C64.9586 21.9452 64.8905 21.8772 64.8174 21.8117C64.7442 21.7462 64.6736 21.6807 64.6005 21.6178C64.5273 21.5548 64.4592 21.4868 64.3861 21.4238C64.313 21.3608 64.2423 21.2928 64.1692 21.2299C64.0961 21.1669 64.028 21.0964 63.9548 21.0334C63.5099 20.5717 62.9434 20.2452 62.3206 20.0913C60.8074 19.7261 59.153 20.4641 57.6902 22.1669C54.6235 25.7361 53.4028 30.3003 52.4621 34.7058C50.2524 36.1074 47.8681 37.2134 45.3703 37.9955C45.1757 38.0557 45.0082 38.1816 44.8964 38.3516C44.7846 38.5217 44.7354 38.7252 44.7574 38.9275C44.7725 39.0581 44.8171 39.1836 44.8879 39.2944C44.9586 39.4053 45.0538 39.4986 45.166 39.5673C45.2264 39.644 45.2998 39.7097 45.3829 39.7612C45.4424 39.838 45.515 39.9036 45.5973 39.9552C45.6576 40.0327 45.731 40.0992 45.8141 40.1517C45.8743 40.2277 45.9468 40.2933 46.0285 40.3456C46.089 40.4224 46.1624 40.488 46.2454 40.5396C46.3048 40.617 46.3774 40.6835 46.4598 40.736C46.5209 40.8122 46.5942 40.8777 46.6767 40.93C46.7362 41.0067 46.8087 41.0724 46.891 41.1239C46.9515 41.2007 47.0249 41.2664 47.1079 41.3179C47.1674 41.3954 47.2399 41.4619 47.3223 41.5144C47.3834 41.5905 47.4567 41.656 47.5392 41.7083C47.5987 41.785 47.6713 41.8507 47.7536 41.9023C47.8139 41.9798 47.8873 42.0463 47.9705 42.0987C48.0306 42.1748 48.1031 42.2404 48.1848 42.2927C48.2453 42.3695 48.3187 42.4351 48.4017 42.4867C48.4618 42.5635 48.5343 42.6299 48.6161 42.6831C48.6769 42.7586 48.7492 42.8241 48.8304 42.8771C48.8915 42.9533 48.9648 43.0188 49.0473 43.071C49.1068 43.1478 49.1794 43.2134 49.2617 43.265C49.3227 43.342 49.396 43.4083 49.4786 43.4615C49.5506 43.556 49.6412 43.6347 49.7449 43.6928C49.8486 43.7508 49.9631 43.787 50.0814 43.799C50.1469 43.799 50.2175 43.799 50.2831 43.799C50.2302 43.9602 50.1822 44.1239 50.1268 44.2851C46.8664 44.9173 43.7741 46.2222 41.0476 48.1163C38.4525 49.9576 37.2419 52.2649 37.8093 54.2876C38.0234 55.0243 38.4528 55.6803 39.0426 56.1717C39.1107 56.2397 39.1838 56.3027 39.2595 56.3657C39.3351 56.4286 39.4007 56.4967 39.4739 56.5621C39.547 56.6276 39.6151 56.6931 39.6907 56.7561C39.7664 56.8191 39.832 56.8871 39.9051 56.9501C39.9783 57.013 40.0463 57.081 40.122 57.1465C40.1977 57.212 40.2632 57.2775 40.3364 57.3405C40.4095 57.4034 40.4776 57.4715 40.5507 57.5344C40.6239 57.5974 40.6945 57.6654 40.7676 57.7284C40.8408 57.7914 40.9089 57.8619 40.982 57.9249C41.0551 57.9878 41.1258 58.0558 41.1989 58.1188C41.272 58.1818 41.3401 58.2498 41.4133 58.3128C41.4864 58.3757 41.557 58.4437 41.6302 58.5092C41.7033 58.5747 41.7714 58.6402 41.8471 58.7032C41.9227 58.7662 41.9883 58.8342 42.0614 58.8971C42.1346 58.9601 42.2027 59.0281 42.2758 59.0936L42.4927 59.2876C42.5608 59.3556 42.6339 59.4185 42.707 59.4815C42.7802 59.5445 42.8508 59.6125 42.9239 59.6755C42.9971 59.7384 43.0652 59.809 43.1383 59.8719C43.2115 59.9349 43.2821 60.0029 43.3552 60.0659C44.4245 61.1112 46.0512 61.6175 47.4661 61.6377H47.5821C52.1217 61.6377 55.6323 58.1113 57.2615 55.0659C57.7985 54.0497 58.2457 52.9885 58.5981 51.8947C59.4503 51.8515 60.3043 51.8599 61.1554 51.9199C64.8981 52.1717 68.56 53.3027 72.1034 54.3884L72.7163 54.5748C76.6985 55.7939 80.605 56.8896 84.6024 56.9198C87.2152 56.9349 89.432 56.474 91.2327 55.5319C93.4823 54.3606 95.1015 52.3657 95.5655 50.1969C95.7889 49.1661 95.7383 48.0949 95.4189 47.0896C95.0995 46.0843 94.5223 45.18 93.7446 44.4665Z" fill="white" stroke="white" stroke-width="5.2688" mask="url(#path-14-inside-1_14083_16899)"/>
<path d="M87.9283 40.5327C86.0898 39.5125 83.3887 40.1826 82.501 42.0843C83.2727 42.2153 83.8679 43.1826 83.5955 43.9055C83.3232 44.6284 82.6296 45.1145 81.9361 45.4798C79.2501 46.8878 76.0674 47.1372 73.0208 46.8551C69.9742 46.573 66.968 45.7871 63.9164 45.2531C60.6581 44.6419 57.3366 44.4363 54.0277 44.641C54.3782 43.1297 54.6607 41.5755 54.986 40.0591C55.2256 38.9483 55.4904 37.845 55.788 36.7493C56.3988 36.4213 56.9884 36.0553 57.5534 35.6536C60.8747 33.3043 63.1978 29.8009 64.0677 25.83C64.2644 24.8804 64.3678 23.8879 64.0929 22.9585C63.8181 22.029 63.0993 21.1701 62.1207 20.9434C60.6857 20.6008 59.3062 21.6411 58.363 22.7368C55.3668 26.2078 54.2269 30.6587 53.2509 35.2254C50.8893 36.7682 48.3265 37.9794 45.6345 38.8249C48.0035 39.0369 50.3912 38.7801 52.6608 38.0692C52.1564 40.4496 51.6141 42.8173 50.7894 45.0566C47.4773 45.639 44.3298 46.9277 41.5615 48.8349C39.7961 50.0944 38.1038 52.0616 38.6637 54.0515C39.1378 55.7442 41.1151 56.6459 42.9511 56.6686C46.7921 56.719 50.1968 53.855 51.9571 50.5629C52.561 49.415 53.0493 48.2101 53.4148 46.9659C54.5062 46.8852 55.6021 46.8852 56.6934 46.9659C60.7538 47.248 64.6251 48.4772 68.451 49.6586C72.2768 50.8399 76.1254 51.9256 80.0849 51.9659C82.2286 51.981 84.4126 51.6636 86.3016 50.6762C88.1906 49.6888 89.7416 47.9835 90.1804 45.9357C90.6193 43.8878 89.7618 41.5528 87.9283 40.5327ZM58.2823 29.2406C58.7867 27.9811 59.5836 26.0391 60.653 24.9282C60.7153 24.8632 60.7955 24.8182 60.8835 24.7989C60.9715 24.7797 61.0633 24.787 61.1471 24.8199C61.2309 24.8529 61.3031 24.91 61.3543 24.984C61.4055 25.058 61.4335 25.1456 61.4348 25.2356C61.3717 27.1423 59.9342 29.4975 58.6606 30.7997C58.1839 31.2834 57.6921 31.7569 57.1852 32.2128C57.5282 31.2137 57.8939 30.2229 58.2823 29.2406ZM47.4175 51.0943C46.9484 51.656 46.4087 52.2152 45.6799 52.3941C44.951 52.5729 44.0608 52.1976 43.9901 51.4923C43.9271 50.9004 44.434 50.3865 44.9283 50.0087C46.345 48.9377 47.9496 48.1406 49.6596 47.6586C49.0437 48.8843 48.2916 50.0368 47.4175 51.0943Z" fill="#098AF5"/>
<path d="M60.6036 35.1878C59.5191 35.9057 58.7424 36.9762 58.0993 38.0845C57.5696 38.9939 57.0905 40.0367 57.3427 41.0468C57.4578 41.4586 57.6669 41.8382 57.9535 42.1559C58.2401 42.4736 58.5964 42.7208 58.9946 42.878C59.8123 43.1968 60.7082 43.2584 61.562 43.0543C62.2954 42.8956 62.9893 42.5907 63.6021 42.1579C64.2148 41.7251 64.7338 41.1733 65.128 40.5354C65.5053 39.9103 65.7453 39.2122 65.8322 38.4875C65.9192 37.7628 65.8511 37.0279 65.6324 36.3314C64.9061 34.1249 62.3892 34.004 60.6036 35.1878ZM63.3349 36.6085C63.1458 38.1677 61.3173 42.0467 60.4144 41.752C59.6427 41.5001 60.6212 38.7117 61.0601 37.7672C61.3526 37.14 61.7814 36.344 62.3715 35.9259C62.9617 35.5077 63.4131 35.9536 63.3349 36.6085Z" fill="#098AF5"/>
<path d="M70.7207 32.924C70.9277 32.8325 71.11 32.6934 71.253 32.5181C71.3959 32.3428 71.4954 32.1363 71.5434 31.9154C71.5913 31.6944 71.5863 31.4653 71.5288 31.2466C71.4713 31.028 71.3629 30.826 71.2125 30.6571C70.8846 30.982 70.2314 30.71 70.1381 30.2641C70.0448 29.8183 70.3903 29.3724 70.8317 29.2037C71.281 29.0639 71.7615 29.0586 72.2137 29.1886C73.6109 29.4984 74.8265 30.2289 76.027 31.0072C75.7344 31.2372 75.4511 31.4757 75.1771 31.7226C72.6349 34.045 70.6173 36.9895 69.1899 40.128C69.6004 38.538 69.7469 36.8914 69.6236 35.254C69.6157 35.145 69.5861 35.0387 69.5364 34.9413C69.4867 34.8439 69.418 34.7575 69.3343 34.687C69.2506 34.6166 69.1537 34.5636 69.0492 34.5312C68.9447 34.4988 68.8347 34.4876 68.7258 34.4983C67.8921 34.5828 67.088 34.8531 66.3728 35.2893C67.316 36.4857 67.2378 38.1507 67.0588 39.657C66.9251 40.7578 66.7713 41.924 66.9831 42.9819C67.0108 43.1194 67.0733 43.2475 67.1646 43.354C67.256 43.4605 67.3731 43.5419 67.5048 43.5904C67.6366 43.6389 67.7785 43.6528 67.9172 43.631C68.0559 43.6091 68.1867 43.5522 68.2971 43.4656C69.9565 42.1583 71.2629 40.5537 72.4483 38.8056C73.8379 36.7578 75.1317 34.6369 76.8769 32.8989C77.1493 32.6268 77.4343 32.3649 77.7293 32.118C78.1329 32.3699 78.5389 32.5916 78.9601 32.7956C80.6858 33.6244 82.5987 33.9874 84.5084 33.8485C85.5021 33.7754 86.5134 33.5538 87.3179 32.9845C88.1225 32.4152 88.6798 31.4555 88.5487 30.4908C88.4327 29.6369 87.7921 28.9039 87.0204 28.4959C86.2228 28.1149 85.3469 27.926 84.4631 27.9442C82.5646 27.9309 80.6886 28.3541 78.9802 29.181L78.4481 28.7276C77.328 27.7304 76.0877 26.8766 74.7559 26.1861C73.4022 25.4889 71.8855 25.1687 70.3651 25.2591C68.8519 25.3876 67.3387 26.0903 66.4585 27.2918C65.5784 28.4933 65.3917 30.2163 66.1912 31.4807C66.9907 32.7452 69.3412 33.5714 70.7207 32.924ZM83.3559 29.7578C83.6622 29.7318 83.9702 29.7802 84.2537 29.8989C84.393 29.9588 84.5116 30.0583 84.5945 30.1851C84.6775 30.3119 84.7213 30.4603 84.7203 30.6117C84.6774 31.0576 84.1453 31.2843 83.6888 31.3271C82.6782 31.3802 81.6764 31.116 80.8238 30.5714C80.7255 30.5135 80.6296 30.4505 80.5338 30.3901C81.4272 30.0066 82.3841 29.7922 83.3559 29.7578Z" fill="#098AF5"/>
<path d="M77.1941 41.0756C78.0673 41.2981 78.9877 41.2488 79.8321 40.9345C80.2669 40.7619 80.6606 40.5001 80.9877 40.166C81.3148 39.8319 81.5681 39.433 81.7312 38.995C82.054 38.0857 81.9178 36.9799 81.3025 36.2671C80.7927 35.7406 80.1028 35.4258 79.3706 35.3855C78.6678 35.3234 77.9597 35.4044 77.2891 35.6235C76.6185 35.8425 75.9994 36.1952 75.4691 36.66C74.3405 37.6694 73.6136 39.0509 73.4212 40.5517C73.2951 41.5089 73.3935 42.534 73.8701 43.3426C74.2031 43.8886 74.6967 44.3185 75.2835 44.5737C75.8704 44.8289 76.5218 44.8969 77.1487 44.7683C78.3719 44.5164 79.4185 43.592 80.0843 42.4308C79.5421 42.5819 78.6317 42.7935 78.0667 42.728C77.7762 42.7079 77.4941 42.6218 77.242 42.4761C77.1126 42.3926 77.0032 42.2816 76.9217 42.1509C76.8401 42.0203 76.7885 41.8733 76.7704 41.7204C76.7489 41.5797 76.7803 41.4359 76.8585 41.3169C76.9367 41.1979 77.0563 41.1119 77.1941 41.0756ZM77.4463 39.2419C77.7853 38.6001 78.2095 38.007 78.7073 37.4787C78.8618 37.2971 79.0481 37.1452 79.2571 37.0303C80.3971 36.4661 79.8246 37.9094 79.5472 38.3401C79.1438 38.9713 78.5479 39.4562 77.8473 39.723C77.7061 39.7759 77.527 39.8111 77.4211 39.7079C77.3152 39.6046 77.3808 39.3905 77.4564 39.2545L77.4463 39.2419Z" fill="#098AF5"/>
</g>
<g filter="url(#filter2_ddddd_14083_16899)">
<path d="M69.0193 62.1106C72.2191 53.1649 79.6084 46.4421 87.4672 41.0145C87.733 40.8306 88.0795 41.1868 87.9054 41.459C86.6321 43.4512 85.7221 45.658 85.2229 47.9782C90.4475 45.6542 95.9508 44.02 101.594 43.1149C101.874 43.0701 102.037 43.4166 101.826 43.6062C98.2107 46.8604 94.7679 50.3016 91.5121 53.9157C95.0086 54.0163 98.4773 54.5576 101.836 55.5255C102.1 55.6017 102.109 55.9675 101.851 56.061C92.6058 59.4151 83.7338 63.7204 75.378 68.9097L69.0193 62.1106Z" fill="#FED33D"/>
<path d="M68.1148 61.7865L67.9175 62.3387L68.3178 62.7666L74.6766 69.5657L75.2152 70.1422L75.8853 69.7258C84.1844 64.5717 92.9963 60.2952 102.179 56.9649C103.281 56.5652 103.292 54.9451 102.103 54.6024C99.3247 53.8017 96.4733 53.2867 93.5928 53.0637C96.4187 50.0178 99.3805 47.1006 102.469 44.3205C103.371 43.5095 102.696 41.9651 101.443 42.1662C96.3723 42.9791 91.4135 44.3724 86.6638 46.3185C87.1601 44.79 87.8494 43.3308 88.7153 41.9766C89.1037 41.3693 88.8632 40.7256 88.538 40.3937C88.2094 40.0581 87.5427 39.7941 86.9214 40.2233C79.0156 45.6843 71.4186 52.5506 68.1148 61.7865Z" stroke="white" stroke-width="1.92174"/>
<path d="M73.8294 55.4286L70.8411 59.2695L67.8518 55.428C67.0804 54.437 65.4911 55.0154 65.5377 56.2703L65.7182 61.1336L60.9597 60.1119C59.7315 59.8479 58.8858 61.313 59.7284 62.245L62.9927 65.854L58.6897 68.1306C57.5793 68.7187 57.8731 70.3842 59.1174 70.5565L63.9389 71.2233L62.1059 75.7311C61.6327 76.895 62.9284 77.9821 63.9923 77.3146L68.1148 74.7267L69.6098 79.3587C69.9956 80.554 71.6869 80.554 72.0725 79.3587L73.5667 74.7267L77.689 77.3146C78.753 77.9821 80.0486 76.895 79.5755 75.7311L77.7425 71.2233L82.5639 70.5565C83.8083 70.3842 84.102 68.7187 82.9917 68.1306L78.6887 65.854L81.953 62.245C82.7956 61.313 81.9499 59.8479 80.7217 60.1119L75.9632 61.1336L76.1437 56.2709C76.1902 55.0154 74.6008 54.437 73.8294 55.4286Z" fill="#5C59ED" stroke="white" stroke-width="1.92174"/>
</g>
<g filter="url(#filter3_ddddd_14083_16899)">
<path d="M40.8746 53.7897C47.7085 46.9558 47.7085 35.8749 40.8746 29.041C34.0401 22.2066 22.9597 22.2066 16.1258 29.041C9.29139 35.8749 9.29139 46.9558 16.1258 53.7897C22.9597 60.6241 34.0401 60.6241 40.8746 53.7897Z" fill="#DD7907" stroke="white" stroke-width="2.08956"/>
<path d="M28.5008 57.1022C37.1647 57.1022 44.1877 50.0787 44.1877 41.4154C44.1877 32.752 37.1647 25.7285 28.5008 25.7285C19.8375 25.7285 12.814 32.752 12.814 41.4154C12.814 50.0787 19.8375 57.1022 28.5008 57.1022Z" fill="#FFDD68"/>
<path d="M16.9637 42.5051C17.1235 44.7582 17.4662 46.9951 17.9876 49.1928C18.0189 49.2137 18.0539 49.2277 18.0905 49.234C18.1887 49.2466 18.1965 49.0899 18.1213 48.7529C17.5247 46.1081 17.3158 43.4783 17.2667 40.7745C17.4124 40.4657 17.6219 40.1915 17.8815 39.9689C18.1009 39.7553 18.3627 39.5897 18.65 39.4836C19.1896 39.3128 19.5845 39.517 19.8504 40.0676C20.1163 40.6177 20.2595 41.3846 20.296 42.3207C20.3159 42.8431 20.273 44.0347 20.2762 45.7711C20.2898 47.9463 20.4381 50.1179 20.7202 52.2743C20.8492 53.1431 20.831 53.6791 20.6575 53.8791C20.5034 54.051 20.2344 53.993 19.8395 53.7255C19.5532 53.5187 19.2847 53.2878 19.0371 53.0355C18.7498 52.7523 18.4687 52.454 18.1934 52.1453C17.2526 50.9135 16.3802 49.6305 15.5804 48.3026C14.6908 46.8258 13.89 45.2116 13.53 43.4506C13.6173 42.9878 13.7965 42.5469 14.0561 42.1541C14.3162 41.7612 14.6521 41.4243 15.0439 41.1631C16.0265 40.5561 16.6132 41.0482 16.9637 42.5051Z" fill="#DD7907"/>
<path d="M23.7574 41.867C23.8096 46.2138 24.0066 50.5481 24.5122 54.8688C24.4328 55.1117 24.2829 55.3253 24.0818 55.4836C23.8974 55.6205 23.6592 55.6372 23.364 55.5327C23.0689 55.4282 22.7847 55.1482 22.4989 54.7209C22.15 54.1844 21.9076 53.5852 21.7854 52.9568C20.9187 48.7834 20.5666 44.5677 20.47 40.3144C20.6183 39.953 20.8372 39.6244 21.1141 39.348C21.2363 39.2143 21.3862 39.1093 21.5534 39.0403C21.7211 38.9708 21.9013 38.939 22.0821 38.9468C22.5156 38.9468 22.9137 39.2127 23.235 39.698C23.5928 40.2455 23.7542 40.9909 23.7574 41.867Z" fill="#DD7907"/>
<path d="M24.188 41.3568C24.1984 41.1207 24.2768 40.8919 24.4142 40.6992C24.7213 40.2227 25.2761 39.9307 25.9803 39.9443C26.3977 39.9662 26.8025 40.0916 27.1588 40.3099C28.1534 40.8694 28.8895 41.8766 29.3847 43.0771C29.8329 44.1757 30.0659 45.35 30.0717 46.5369C30.0779 46.9673 30.0471 47.3977 29.9797 47.823C29.9463 48.1312 29.8486 48.4289 29.6919 48.6964C29.5785 48.4948 29.4051 48.3333 29.1956 48.2351C29.1664 48.2216 29.1329 48.2184 29.1016 48.2268C29.0708 48.2351 29.0436 48.2545 29.0248 48.2811C28.9736 48.3929 28.9527 48.5167 28.9652 48.6395C29.4584 48.85 29.8199 49.3557 30.0795 50.1304C30.3229 50.9072 30.4326 51.72 30.4039 52.5339C30.3778 53.9297 30.0748 54.8674 29.5336 55.4823C29.0279 56.0569 28.2778 56.3782 27.2988 56.2951C26.7817 56.2711 26.2734 56.1499 25.8001 55.9388C25.449 55.7382 25.1821 55.417 25.0505 55.0346C24.8269 54.4103 24.6947 53.7573 24.6581 53.0949C24.3541 49.1833 24.2063 45.2826 24.188 41.3568ZM27.1081 47.3512C27.1207 47.3805 27.1604 47.4066 27.2236 47.4296C27.2868 47.4526 27.3375 47.4082 27.3772 47.2975C27.4174 47.1047 27.4326 46.9072 27.4237 46.7103V46.6319C27.4279 46.412 27.4127 46.1915 27.3772 45.9742C27.3479 45.8327 27.3004 45.7481 27.2346 45.7219C27.1682 45.6958 27.1238 45.6942 27.1008 45.7219C27.1008 45.7669 27.1008 45.8389 27.1008 45.9387C27.1082 46.5092 27.1081 46.7855 27.1176 47.3512H27.1081ZM27.1729 51.8699C27.1849 51.8961 27.2236 51.9164 27.2852 51.93C27.3464 51.9441 27.3929 51.9039 27.4237 51.8119C27.4618 51.6422 27.4754 51.4672 27.4634 51.2937C27.4634 51.206 27.4634 51.1616 27.4634 51.0738C27.4655 50.8628 27.4487 50.6517 27.4127 50.4438C27.3835 50.3101 27.3359 50.2348 27.2711 50.216C27.2069 50.1978 27.162 50.2024 27.1405 50.2286C27.1405 50.2683 27.1405 50.3362 27.1405 50.4313C27.1635 51.0142 27.1698 51.3016 27.1823 51.8699H27.1729Z" fill="#DD7907"/>
<path d="M32.8304 43.8038C33.9452 44.2473 35.1315 44.4819 36.3304 44.4955C36.4563 44.8063 36.5456 45.1307 36.5963 45.4624C36.6459 45.767 36.6668 46.0757 36.6595 46.3844C36.6381 46.9873 36.5305 47.4376 36.3597 47.7463C36.2986 47.8816 36.2014 47.9981 36.0791 48.0817C35.9564 48.1658 35.8133 48.2149 35.6649 48.2227C34.8965 48.253 34.1265 48.1976 33.37 48.0587C33.2363 48.0367 33.1705 48.1182 33.1689 48.3058C33.1689 48.3366 33.1689 48.3518 33.1689 48.3841C33.1668 48.4108 33.1705 48.4374 33.1794 48.4625C34.0685 48.6276 34.9753 48.6767 35.877 48.6088C35.9444 48.8219 35.9846 49.0429 35.9971 49.2664C36.0133 49.5193 36.0039 49.7732 35.9694 50.0244C35.9057 50.5661 35.7401 51.0906 35.4805 51.5707C35.0192 51.6459 34.7998 51.6752 34.3568 51.7118C34.0037 51.7253 33.6526 51.7765 33.31 51.8659C33.1856 51.9035 33.0691 51.963 32.9657 52.0424C32.9176 52.0999 32.8905 52.172 32.8889 52.2467C32.8842 52.2806 32.8858 52.3151 32.8952 52.3486C32.9041 52.3815 32.9197 52.4123 32.9411 52.4389C33.1125 52.335 33.2985 52.2577 33.4933 52.2101C33.7624 52.1516 34.035 52.1103 34.3093 52.0868C34.7904 52.044 35.2679 51.9682 35.7385 51.8611C35.8399 52.2608 35.7971 52.7477 35.6189 53.3228C35.5191 53.6425 35.3948 53.9539 35.247 54.2542C35.1195 54.518 34.9696 54.7698 34.7982 55.0075C33.8172 55.4578 32.7823 55.7796 31.7193 55.965C31.5584 56.0042 31.3891 55.9886 31.2382 55.9196C31.0877 55.8507 30.9644 55.7326 30.8892 55.5853C30.6714 55.2348 30.5653 54.6627 30.582 53.8713C30.6667 50.5024 30.6588 47.1408 30.582 43.7719C30.5711 43.4042 30.7356 43.2307 31.0908 43.2537C31.4455 43.2767 31.9993 43.4935 32.8304 43.8038Z" fill="#DD7907"/>
<path d="M38.542 51.2953C38.6512 51.218 38.7369 51.1114 38.7881 50.9876C38.8434 50.8612 38.8785 50.7259 38.891 50.588C38.9056 50.4632 38.8847 50.3362 38.8309 50.2223C38.6893 49.9533 38.3529 49.8979 37.8598 50.0552C37.5955 50.1429 37.3489 50.2767 37.1311 50.4501C36.9482 50.3284 36.8239 50.0782 36.756 49.6921C36.6839 49.2517 36.6745 48.803 36.7283 48.3595C36.8683 47.053 37.2402 45.9664 37.958 45.1317C38.5608 44.4452 39.3496 43.9484 40.2299 43.7024C40.9011 43.4966 41.4591 43.378 41.9125 43.3952C42.3659 43.4119 42.7086 43.4887 42.9515 43.6653C42.9897 44.0216 42.9719 44.3815 42.8977 44.732C42.8225 45.1097 42.7086 45.4785 42.5582 45.8327C42.4281 46.1477 42.2646 46.4481 42.0708 46.7286C41.9987 46.6659 41.8326 46.6502 41.5667 46.6706C41.2971 46.6899 41.0333 46.7557 40.7862 46.8654C40.6018 46.9375 40.4273 47.0337 40.268 47.1517C40.2085 47.1998 40.1609 47.2614 40.1285 47.3314C40.0961 47.4009 40.0805 47.4772 40.082 47.554C40.2309 47.4484 40.3908 47.3596 40.5585 47.2881C41.2208 46.9961 41.7067 46.9485 41.9417 47.182C42.217 47.4589 42.0802 48.1427 41.4669 49.1666C40.9247 50.0688 40.1818 50.9203 39.4045 51.7378C38.5666 52.617 37.8671 53.2841 37.2157 53.75C36.9472 53.9559 36.6494 54.1199 36.3318 54.2369C36.1014 54.308 35.7708 54.2662 35.7169 54.1648C35.6203 53.982 35.777 53.2982 35.9369 52.7538C36.0868 52.2147 36.3344 51.7075 36.6667 51.2567C37.0036 50.8126 37.3557 50.5373 37.7151 50.4209C38.075 50.3038 38.3378 50.3085 38.4835 50.4423C38.6298 50.576 38.6559 50.8665 38.542 51.2953Z" fill="#DD7907"/>
<path d="M18.6287 32.0039C19.5309 31.5426 20.4816 31.1822 21.4627 30.9283C21.564 31.4261 21.575 31.9386 21.4951 32.4406C21.4449 33.0016 21.3201 33.5538 21.1247 34.0819L20.9267 34.119C20.8687 34.9888 20.8604 35.8612 20.9016 36.732C20.3025 37.8337 19.4969 38.4549 18.2092 38.8963C17.4847 39.1606 16.7157 39.2818 15.9452 39.2541C15.1903 39.2034 14.5896 38.9469 14.2971 38.389C13.9763 37.7742 14.0421 36.8026 14.5661 35.5776C15.2656 33.944 16.3845 32.5038 17.5897 31.1926C18.6146 30.0872 19.4233 29.3131 20.2074 28.8027C20.5929 28.5472 20.9157 28.4088 21.2015 28.403C21.3253 28.3905 21.4496 28.413 21.5614 28.4673C21.6732 28.5216 21.7678 28.6057 21.8346 28.7102C21.749 28.9714 21.6272 29.3084 21.4768 29.7278C21.3263 30.1473 21.1968 30.4931 21.0787 30.7345C20.2163 30.9946 19.381 31.3389 18.5854 31.7615C18.3869 32.0311 18.2082 32.3147 18.052 32.6114C17.8483 32.9781 17.6936 33.3705 17.5913 33.7779C17.4497 34.3572 17.4805 34.7799 17.6419 35.0306C17.8033 35.2808 18.0201 35.3242 18.309 35.215C18.3623 35.1993 18.4098 35.1669 18.4443 35.1236C18.4793 35.0797 18.4997 35.0264 18.5028 34.9705C18.5028 34.8953 18.5133 34.8582 18.5211 34.783L18.4595 34.806C18.3649 34.8551 18.2552 34.865 18.1533 34.8347C18.051 34.8044 17.9648 34.736 17.9125 34.643C17.7908 34.4403 17.7788 34.0913 17.8921 33.604C18.0269 33.0267 18.2777 32.4824 18.6287 32.0039Z" fill="#DD7907"/>
<path d="M25.4571 38.8701C24.7341 38.5849 24.067 38.1733 23.4882 37.654C22.8044 37.0606 22.2616 36.3214 21.8991 35.4913C21.5041 34.6033 21.5501 33.512 21.6671 32.3053C21.7993 30.9664 22.4491 29.2467 23.3252 28.2108C24.0492 27.3515 24.7597 26.7538 25.5892 26.5909C26.493 26.4138 27.2186 26.8045 27.766 27.9308C28.4989 29.4389 28.6572 31.2417 28.6713 32.8987C28.6849 34.6294 28.6248 36.6672 27.7718 38.1889C27.2619 39.1005 26.5118 39.2541 25.4571 38.8701ZM25.5124 31.7996C25.5286 31.3864 25.5234 30.9721 25.4973 30.5594C25.4743 30.338 25.4221 30.2288 25.3437 30.2272C25.3144 30.2283 25.2862 30.2366 25.2612 30.2507C25.2356 30.2653 25.2147 30.2857 25.199 30.3103C25.199 30.4147 25.199 30.5532 25.2131 30.7282C25.2267 30.9037 25.2131 31.2772 25.199 31.8701C25.199 32.1057 25.199 32.2254 25.188 32.4651C25.188 32.883 25.176 33.1939 25.165 33.3877C25.1546 33.5809 25.1452 33.7471 25.1389 33.8855C25.1389 33.9623 25.1389 34.0391 25.1285 34.1143C25.1441 34.1446 25.1656 34.1707 25.1922 34.1921C25.2189 34.213 25.2492 34.2287 25.2821 34.2376C25.3714 34.2528 25.4356 34.1436 25.4602 33.9085C25.4988 33.4754 25.5161 33.0413 25.5109 32.6067C25.5051 32.2792 25.5077 32.1178 25.5124 31.798V31.7996Z" fill="#DD7907"/>
<path d="M32.1068 42.5802C31.492 42.2866 30.9847 41.6582 30.5188 40.7664C30.0533 39.8752 29.6798 38.7286 29.3737 37.4095C29.0576 35.9505 28.8983 34.4622 28.8973 32.9692C28.8852 31.2939 29.0049 29.4144 29.8026 27.9062C30.3145 26.9367 30.9879 26.4937 31.8101 26.6771C32.7029 26.8766 33.4624 27.7281 34.2016 29.2404C35.1116 31.1033 35.5248 33.057 35.7646 35.0813C36.0091 37.1316 35.7891 39.5383 34.7658 41.3447C34.06 42.5864 33.0921 43.0535 32.1068 42.5802ZM32.4526 33.6269C32.4464 33.0884 32.4129 32.5503 32.3523 32.0148C32.3095 31.7197 32.2479 31.5614 32.1664 31.5369C32.1173 31.5233 32.0729 31.5463 32.0358 31.609C32.0483 31.7474 32.065 31.9318 32.0865 32.1653C32.1084 32.3993 32.1345 32.8877 32.1512 33.6562C32.1512 33.9639 32.1606 34.1175 32.1648 34.4252C32.1742 34.9658 32.1648 35.3623 32.1648 35.6099C32.1648 35.8576 32.1465 36.0712 32.1403 36.2462C32.1403 36.3428 32.1329 36.44 32.1298 36.5367C32.1528 36.6114 32.2029 36.6746 32.2709 36.7137C32.3555 36.7456 32.414 36.6119 32.4464 36.3157C32.4856 35.7651 32.4965 35.2129 32.4788 34.6618C32.4678 34.2449 32.4631 34.0375 32.4526 33.6269Z" fill="#DD7907"/>
<path d="M37.929 43.2093C37.6704 43.2448 37.4066 43.1947 37.1788 43.0667C36.9516 42.9382 36.7719 42.7391 36.6684 42.4988C36.4245 41.9827 36.3137 41.1986 36.3122 40.1935C36.2542 36.6402 35.9005 33.0979 35.2543 29.6036C35.1441 29.0687 35.2763 28.7072 35.596 28.5583C35.9157 28.4089 36.2813 28.4982 36.7484 28.7981C37.5696 29.3299 38.4393 30.2613 39.4366 31.3296C40.6339 32.5974 41.7236 34.0283 42.4403 35.5902C43.0014 36.8199 43.1623 38.7193 42.6644 40.0029C42.1666 41.2864 41.2195 42.4915 39.715 42.8849C39.131 43.0468 38.5329 43.1555 37.929 43.2093ZM39.4998 35.0151C39.3812 34.5371 39.2302 34.068 39.0479 33.6104C38.9403 33.3554 38.8452 33.2201 38.7653 33.2044C38.7157 33.1956 38.6823 33.2201 38.6619 33.2802C38.7068 33.403 38.7653 33.5675 38.839 33.7749C38.9126 33.9823 39.0464 34.4206 39.214 35.1107C39.2799 35.3855 39.3123 35.5239 39.3676 35.8039C39.4737 36.2897 39.5353 36.6491 39.5646 36.8795C39.5933 37.1104 39.6168 37.3021 39.6351 37.4651C39.6461 37.5544 39.6565 37.6437 39.6659 37.7325C39.6847 37.7623 39.7108 37.7868 39.7417 37.8041C39.7725 37.8213 39.8075 37.8307 39.8425 37.8313C39.9365 37.8219 39.9778 37.6772 39.9658 37.4039C39.9219 36.9061 39.8394 36.413 39.7182 35.9282C39.6398 35.5656 39.5949 35.3765 39.4998 35.0151Z" fill="#DD7907"/>
</g>
<defs>
<filter id="filter0_ddddd_14083_16899" x="13.4266" y="31.2681" width="79.9368" height="60.6292" filterUnits="userSpaceOnUse" color-interpolation-filters="sRGB">
<feFlood flood-opacity="0" result="BackgroundImageFix"/>
<feColorMatrix in="SourceAlpha" type="matrix" values="0 0 0 0 0 0 0 0 0 0 0 0 0 0 0 0 0 0 127 0" result="hardAlpha"/>
<feOffset dx="0.990579" dy="0.0777184"/>
<feGaussianBlur stdDeviation="4.9529"/>
<feColorMatrix type="matrix" values="0 0 0 0 0 0 0 0 0 0 0 0 0 0 0 0 0 0 0.1 0"/>
<feBlend mode="normal" in2="BackgroundImageFix" result="effect1_dropShadow_14083_16899"/>
<feColorMatrix in="SourceAlpha" type="matrix" values="0 0 0 0 0 0 0 0 0 0 0 0 0 0 0 0 0 0 127 0" result="hardAlpha"/>
<feOffset dx="0.252585" dy="0.330304"/>
<feGaussianBlur stdDeviation="0.204011"/>
<feColorMatrix type="matrix" values="0 0 0 0 0 0 0 0 0 0 0 0 0 0 0 0 0 0 0.09 0"/>
<feBlend mode="normal" in2="effect1_dropShadow_14083_16899" result="effect2_dropShadow_14083_16899"/>
<feColorMatrix in="SourceAlpha" type="matrix" values="0 0 0 0 0 0 0 0 0 0 0 0 0 0 0 0 0 0 127 0" result="hardAlpha"/>
<feOffset dx="0.544031" dy="0.738328"/>
<feGaussianBlur stdDeviation="0.272015"/>
<feColorMatrix type="matrix" values="0 0 0 0 0 0 0 0 0 0 0 0 0 0 0 0 0 0 0.05 0"/>
<feBlend mode="normal" in2="effect2_dropShadow_14083_16899" result="effect3_dropShadow_14083_16899"/>
<feColorMatrix in="SourceAlpha" type="matrix" values="0 0 0 0 0 0 0 0 0 0 0 0 0 0 0 0 0 0 127 0" result="hardAlpha"/>
<feOffset dx="0.971481" dy="1.30178"/>
<feGaussianBlur stdDeviation="1.23822"/>
<feColorMatrix type="matrix" values="0 0 0 0 0 0 0 0 0 0 0 0 0 0 0 0 0 0 0.05 0"/>
<feBlend mode="normal" in2="effect3_dropShadow_14083_16899" result="effect4_dropShadow_14083_16899"/>
<feColorMatrix in="SourceAlpha" type="matrix" values="0 0 0 0 0 0 0 0 0 0 0 0 0 0 0 0 0 0 127 0" result="hardAlpha"/>
<feOffset dx="1.51551" dy="2.04011"/>
<feGaussianBlur stdDeviation="1.23822"/>
<feColorMatrix type="matrix" values="0 0 0 0 0 0 0 0 0 0 0 0 0 0 0 0 0 0 0.03 0"/>
<feBlend mode="normal" in2="effect4_dropShadow_14083_16899" result="effect5_dropShadow_14083_16899"/>
<feBlend mode="normal" in="SourceGraphic" in2="effect5_dropShadow_14083_16899" result="shape"/>
</filter>
<filter id="filter1_ddddd_14083_16899" x="19.6719" y="0.156915" width="98.0305" height="81.6377" filterUnits="userSpaceOnUse" color-interpolation-filters="sRGB">
<feFlood flood-opacity="0" result="BackgroundImageFix"/>
<feColorMatrix in="SourceAlpha" type="matrix" values="0 0 0 0 0 0 0 0 0 0 0 0 0 0 0 0 0 0 127 0" result="hardAlpha"/>
<feOffset dx="2" dy="0.156915"/>
<feGaussianBlur stdDeviation="10"/>
<feColorMatrix type="matrix" values="0 0 0 0 0 0 0 0 0 0 0 0 0 0 0 0 0 0 0.1 0"/>
<feBlend mode="normal" in2="BackgroundImageFix" result="effect1_dropShadow_14083_16899"/>
<feColorMatrix in="SourceAlpha" type="matrix" values="0 0 0 0 0 0 0 0 0 0 0 0 0 0 0 0 0 0 127 0" result="hardAlpha"/>
<feOffset dx="0.509975" dy="0.66689"/>
<feGaussianBlur stdDeviation="0.411903"/>
<feColorMatrix type="matrix" values="0 0 0 0 0 0 0 0 0 0 0 0 0 0 0 0 0 0 0.09 0"/>
<feBlend mode="normal" in2="effect1_dropShadow_14083_16899" result="effect2_dropShadow_14083_16899"/>
<feColorMatrix in="SourceAlpha" type="matrix" values="0 0 0 0 0 0 0 0 0 0 0 0 0 0 0 0 0 0 127 0" result="hardAlpha"/>
<feOffset dx="1.09841" dy="1.4907"/>
<feGaussianBlur stdDeviation="0.549204"/>
<feColorMatrix type="matrix" values="0 0 0 0 0 0 0 0 0 0 0 0 0 0 0 0 0 0 0.05 0"/>
<feBlend mode="normal" in2="effect2_dropShadow_14083_16899" result="effect3_dropShadow_14083_16899"/>
<feColorMatrix in="SourceAlpha" type="matrix" values="0 0 0 0 0 0 0 0 0 0 0 0 0 0 0 0 0 0 127 0" result="hardAlpha"/>
<feOffset dx="1.96144" dy="2.62833"/>
<feGaussianBlur stdDeviation="2.5"/>
<feColorMatrix type="matrix" values="0 0 0 0 0 0 0 0 0 0 0 0 0 0 0 0 0 0 0.05 0"/>
<feBlend mode="normal" in2="effect3_dropShadow_14083_16899" result="effect4_dropShadow_14083_16899"/>
<feColorMatrix in="SourceAlpha" type="matrix" values="0 0 0 0 0 0 0 0 0 0 0 0 0 0 0 0 0 0 127 0" result="hardAlpha"/>
<feOffset dx="3.05985" dy="4.11903"/>
<feGaussianBlur stdDeviation="2.5"/>
<feColorMatrix type="matrix" values="0 0 0 0 0 0 0 0 0 0 0 0 0 0 0 0 0 0 0.03 0"/>
<feBlend mode="normal" in2="effect4_dropShadow_14083_16899" result="effect5_dropShadow_14083_16899"/>
<feBlend mode="normal" in="SourceGraphic" in2="effect5_dropShadow_14083_16899" result="shape"/>
</filter>
<filter id="filter2_ddddd_14083_16899" x="45.5082" y="26.3249" width="72.5453" height="67.8032" filterUnits="userSpaceOnUse" color-interpolation-filters="sRGB">
<feFlood flood-opacity="0" result="BackgroundImageFix"/>
<feColorMatrix in="SourceAlpha" type="matrix" values="0 0 0 0 0 0 0 0 0 0 0 0 0 0 0 0 0 0 127 0" result="hardAlpha"/>
<feOffset dx="1.28116" dy="0.100516"/>
<feGaussianBlur stdDeviation="6.40579"/>
<feColorMatrix type="matrix" values="0 0 0 0 0 0 0 0 0 0 0 0 0 0 0 0 0 0 0.1 0"/>
<feBlend mode="normal" in2="BackgroundImageFix" result="effect1_dropShadow_14083_16899"/>
<feColorMatrix in="SourceAlpha" type="matrix" values="0 0 0 0 0 0 0 0 0 0 0 0 0 0 0 0 0 0 127 0" result="hardAlpha"/>
<feOffset dx="0.326679" dy="0.427196"/>
<feGaussianBlur stdDeviation="0.263856"/>
<feColorMatrix type="matrix" values="0 0 0 0 0 0 0 0 0 0 0 0 0 0 0 0 0 0 0.09 0"/>
<feBlend mode="normal" in2="effect1_dropShadow_14083_16899" result="effect2_dropShadow_14083_16899"/>
<feColorMatrix in="SourceAlpha" type="matrix" values="0 0 0 0 0 0 0 0 0 0 0 0 0 0 0 0 0 0 127 0" result="hardAlpha"/>
<feOffset dx="0.703618" dy="0.954911"/>
<feGaussianBlur stdDeviation="0.351809"/>
<feColorMatrix type="matrix" values="0 0 0 0 0 0 0 0 0 0 0 0 0 0 0 0 0 0 0.05 0"/>
<feBlend mode="normal" in2="effect2_dropShadow_14083_16899" result="effect3_dropShadow_14083_16899"/>
<feColorMatrix in="SourceAlpha" type="matrix" values="0 0 0 0 0 0 0 0 0 0 0 0 0 0 0 0 0 0 127 0" result="hardAlpha"/>
<feOffset dx="1.25646" dy="1.68365"/>
<feGaussianBlur stdDeviation="1.60145"/>
<feColorMatrix type="matrix" values="0 0 0 0 0 0 0 0 0 0 0 0 0 0 0 0 0 0 0.05 0"/>
<feBlend mode="normal" in2="effect3_dropShadow_14083_16899" result="effect4_dropShadow_14083_16899"/>
<feColorMatrix in="SourceAlpha" type="matrix" values="0 0 0 0 0 0 0 0 0 0 0 0 0 0 0 0 0 0 127 0" result="hardAlpha"/>
<feOffset dx="1.96008" dy="2.63856"/>
<feGaussianBlur stdDeviation="1.60145"/>
<feColorMatrix type="matrix" values="0 0 0 0 0 0 0 0 0 0 0 0 0 0 0 0 0 0 0.03 0"/>
<feBlend mode="normal" in2="effect4_dropShadow_14083_16899" result="effect5_dropShadow_14083_16899"/>
<feBlend mode="normal" in="SourceGraphic" in2="effect5_dropShadow_14083_16899" result="shape"/>
</filter>
<filter id="filter3_ddddd_14083_16899" x="0.552301" y="12.5045" width="57.985" height="57.9856" filterUnits="userSpaceOnUse" color-interpolation-filters="sRGB">
<feFlood flood-opacity="0" result="BackgroundImageFix"/>
<feColorMatrix in="SourceAlpha" type="matrix" values="0 0 0 0 0 0 0 0 0 0 0 0 0 0 0 0 0 0 127 0" result="hardAlpha"/>
<feOffset dx="1.04478" dy="0.0819708"/>
<feGaussianBlur stdDeviation="5.2239"/>
<feColorMatrix type="matrix" values="0 0 0 0 0 0 0 0 0 0 0 0 0 0 0 0 0 0 0.1 0"/>
<feBlend mode="normal" in2="BackgroundImageFix" result="effect1_dropShadow_14083_16899"/>
<feColorMatrix in="SourceAlpha" type="matrix" values="0 0 0 0 0 0 0 0 0 0 0 0 0 0 0 0 0 0 127 0" result="hardAlpha"/>
<feOffset dx="0.266406" dy="0.348377"/>
<feGaussianBlur stdDeviation="0.215174"/>
<feColorMatrix type="matrix" values="0 0 0 0 0 0 0 0 0 0 0 0 0 0 0 0 0 0 0.09 0"/>
<feBlend mode="normal" in2="effect1_dropShadow_14083_16899" result="effect2_dropShadow_14083_16899"/>
<feColorMatrix in="SourceAlpha" type="matrix" values="0 0 0 0 0 0 0 0 0 0 0 0 0 0 0 0 0 0 127 0" result="hardAlpha"/>
<feOffset dx="0.573798" dy="0.778727"/>
<feGaussianBlur stdDeviation="0.286899"/>
<feColorMatrix type="matrix" values="0 0 0 0 0 0 0 0 0 0 0 0 0 0 0 0 0 0 0.05 0"/>
<feBlend mode="normal" in2="effect2_dropShadow_14083_16899" result="effect3_dropShadow_14083_16899"/>
<feColorMatrix in="SourceAlpha" type="matrix" values="0 0 0 0 0 0 0 0 0 0 0 0 0 0 0 0 0 0 127 0" result="hardAlpha"/>
<feOffset dx="1.02464" dy="1.37301"/>
<feGaussianBlur stdDeviation="1.30598"/>
<feColorMatrix type="matrix" values="0 0 0 0 0 0 0 0 0 0 0 0 0 0 0 0 0 0 0.05 0"/>
<feBlend mode="normal" in2="effect3_dropShadow_14083_16899" result="effect4_dropShadow_14083_16899"/>
<feColorMatrix in="SourceAlpha" type="matrix" values="0 0 0 0 0 0 0 0 0 0 0 0 0 0 0 0 0 0 127 0" result="hardAlpha"/>
<feOffset dx="1.59844" dy="2.15174"/>
<feGaussianBlur stdDeviation="1.30598"/>
<feColorMatrix type="matrix" values="0 0 0 0 0 0 0 0 0 0 0 0 0 0 0 0 0 0 0.03 0"/>
<feBlend mode="normal" in2="effect4_dropShadow_14083_16899" result="effect5_dropShadow_14083_16899"/>
<feBlend mode="normal" in="SourceGraphic" in2="effect5_dropShadow_14083_16899" result="shape"/>
</filter>
</defs>
</svg>
