<svg width="16" height="16" viewBox="0 0 16 16" fill="none" xmlns="http://www.w3.org/2000/svg">
<path d="M5.25222 6.20444C5.11216 6.07105 4.92549 5.9977 4.73208 6.00006C4.53866 6.00241 4.35384 6.08029 4.21707 6.21707C4.08029 6.35384 4.00241 6.53866 4.00006 6.73208C3.9977 6.92549 4.07105 7.11216 4.20444 7.25222L7.38444 10.4322C7.48165 10.5295 7.59709 10.6068 7.72416 10.6594C7.85123 10.7121 7.98744 10.7392 8.125 10.7392C8.26256 10.7392 8.39877 10.7121 8.52584 10.6594C8.65291 10.6068 8.76835 10.5295 8.86556 10.4322L12.0444 7.25222C12.1778 7.11216 12.2512 6.92549 12.2488 6.73208C12.2465 6.53866 12.1686 6.35384 12.0318 6.21707C11.8951 6.08029 11.7102 6.00241 11.5168 6.00006C11.3234 5.9977 11.1367 6.07105 10.9967 6.20444L8.12444 9.07444L5.25222 6.20444Z" fill="white"/>
</svg>
