<svg width="16" height="16" viewBox="0 0 16 16" fill="none" xmlns="http://www.w3.org/2000/svg">
    <path fill-rule="evenodd" clip-rule="evenodd"
        d="M7.58265 10.1897C7.58511 10.2977 7.45459 10.3535 7.3782 10.2771L5.93463 8.83353C5.6092 8.5081 5.08156 8.5081 4.75612 8.83353C4.43069 9.15897 4.43069 9.68661 4.75612 10.012L7.8148 13.0707C8.15058 13.4065 8.69499 13.4065 9.03078 13.0707L12.0895 10.012C12.4149 9.68661 12.4149 9.15897 12.0895 8.83353C11.764 8.5081 11.2364 8.5081 10.9109 8.83353L9.46738 10.2771C9.39098 10.3535 9.26046 10.2977 9.26292 10.1897L9.4132 3.58753C9.41889 3.33747 9.26089 3.11291 9.0236 3.03381C8.63359 2.90381 8.21195 2.90381 7.82194 3.03381C7.58465 3.11291 7.42665 3.33747 7.43235 3.58753L7.58265 10.1897Z"
        fill="white" />
</svg>