<svg width="12" height="12" viewBox="0 0 12 12" fill="none" xmlns="http://www.w3.org/2000/svg">
<path d="M5.46 6.54C5.56534 6.64547 5.62451 6.78844 5.62451 6.9375C5.62451 7.08656 5.56534 7.22953 5.46 7.335L3.75 9L4.6875 9.9375C4.6875 10.0867 4.62824 10.2298 4.52275 10.3352C4.41726 10.4407 4.27418 10.5 4.125 10.5H2.0625C1.91332 10.5 1.77024 10.4407 1.66475 10.3352C1.55926 10.2298 1.5 10.0867 1.5 9.9375V7.875C1.5 7.72582 1.55926 7.58274 1.66475 7.47725C1.77024 7.37176 1.91332 7.3125 2.0625 7.3125L3 8.25L4.665 6.54C4.77047 6.43466 4.91344 6.37549 5.0625 6.37549C5.21156 6.37549 5.35453 6.43466 5.46 6.54ZM6.54 5.46C6.43466 5.35453 6.37549 5.21156 6.37549 5.0625C6.37549 4.91344 6.43466 4.77047 6.54 4.665L8.25 3L7.3125 2.0625C7.3125 1.91332 7.37176 1.77024 7.47725 1.66475C7.58274 1.55926 7.72582 1.5 7.875 1.5H9.9375C10.0867 1.5 10.2298 1.55926 10.3352 1.66475C10.4407 1.77024 10.5 1.91332 10.5 2.0625V4.125C10.5 4.27418 10.4407 4.41726 10.3352 4.52275C10.2298 4.62824 10.0867 4.6875 9.9375 4.6875L9 3.75L7.335 5.46C7.22953 5.56534 7.08656 5.62451 6.9375 5.62451C6.78844 5.62451 6.64547 5.56534 6.54 5.46Z" fill="#2C3137"/>
</svg>
