<svg width="20" height="20" viewBox="0 0 20 20" fill="none" xmlns="http://www.w3.org/2000/svg">
    <path
        d="M18.7511 10.1932C18.7511 9.47373 18.6915 8.94873 18.5626 8.4043H10.1797V11.6515H15.1003C15.0011 12.4585 14.4654 13.6737 13.2749 14.4904L13.2582 14.5991L15.9087 16.6113L16.0924 16.6293C17.7788 15.1029 18.7511 12.857 18.7511 10.1932Z"
        fill="white" />
    <path
        d="M10.1793 18.75C12.59 18.75 14.6138 17.9722 16.092 16.6305L13.2745 14.4916C12.5206 15.0068 11.5086 15.3666 10.1793 15.3666C7.81822 15.3666 5.81427 13.8402 5.09992 11.7305L4.99522 11.7392L2.23917 13.8295L2.20312 13.9277C3.67136 16.786 6.68723 18.75 10.1793 18.75Z"
        fill="white" />
    <path
        d="M5.10112 11.7322C4.91263 11.1877 4.80354 10.6044 4.80354 10.0016C4.80354 9.39881 4.91263 8.8155 5.0912 8.27106L5.08621 8.15511L2.29561 6.03125L2.20431 6.07381C1.59918 7.25994 1.25195 8.59191 1.25195 10.0016C1.25195 11.4113 1.59918 12.7432 2.20431 13.9294L5.10112 11.7322Z"
        fill="white" />
    <path
        d="M10.1794 4.63331C11.8559 4.63331 12.9868 5.34303 13.6317 5.93612L16.1516 3.525C14.604 2.11528 12.59 1.25 10.1794 1.25C6.68725 1.25 3.67137 3.21387 2.20312 6.07218L5.09002 8.26944C5.8143 6.15972 7.81825 4.63331 10.1794 4.63331Z"
        fill="white" />
</svg>