<svg width="16" height="16" viewBox="0 0 16 16" fill="none" xmlns="http://www.w3.org/2000/svg">
    <path fill-rule="evenodd" clip-rule="evenodd"
        d="M12.0791 2.7486C11.534 2.47767 10.8708 2.70352 10.5976 3.25303L8.78422 6.90125C8.69317 7.08442 8.4721 7.15968 8.29044 7.06938C8.10877 6.97908 8.0353 6.75741 8.12634 6.57424L9.61006 3.58933C9.8832 3.03982 9.66275 2.37471 9.11772 2.10379C8.57268 1.83287 7.90942 2.05871 7.63627 2.60822L5.658 6.58807C5.59132 6.72222 5.45105 6.80332 5.30261 6.79356C5.15417 6.7838 5.02677 6.68512 4.97984 6.54349L4.67792 5.6324C4.47044 5.00634 3.76632 4.70407 3.1687 4.9845L2.73614 5.18744L2.73177 9.97067C2.73008 11.8215 3.76911 13.5076 5.41568 14.3261C7.81656 15.5195 10.7381 14.5247 11.9413 12.1042L13.2248 9.52211C13.239 9.49352 13.2565 9.46751 13.2764 9.44435C13.2828 9.41455 13.293 9.38492 13.3072 9.35633L14.6261 6.70305C14.8992 6.15354 14.6788 5.48845 14.1338 5.21753C13.5887 4.9466 12.9255 5.17245 12.6523 5.72196L11.1686 8.70686C11.0776 8.89002 10.8565 8.96534 10.6748 8.87504C10.4931 8.78474 10.4196 8.56298 10.5107 8.37982L12.5714 4.23412C12.8445 3.68461 12.6241 3.01953 12.0791 2.7486Z"
        fill="#B2B2B2" />
</svg>