<svg width="20" height="20" viewBox="0 0 20 20" fill="none" xmlns="http://www.w3.org/2000/svg">
    <g clip-path="url(#clip0_13530_3796)">
        <path
            d="M10.0001 1.66699C5.40008 1.66699 1.66675 5.40033 1.66675 10.0003C1.66675 14.6003 5.40008 18.3337 10.0001 18.3337C14.6001 18.3337 18.3334 14.6003 18.3334 10.0003C18.3334 5.40033 14.6001 1.66699 10.0001 1.66699ZM10.8334 15.8337H9.16675V14.167H10.8334V15.8337ZM12.5584 9.37533L11.8084 10.142C11.2084 10.7503 10.8334 11.2503 10.8334 12.5003H9.16675V12.0837C9.16675 11.167 9.54175 10.3337 10.1417 9.72533L11.1751 8.67533C11.4834 8.37533 11.6667 7.95866 11.6667 7.50033C11.6667 6.58366 10.9167 5.83366 10.0001 5.83366C9.08341 5.83366 8.33341 6.58366 8.33341 7.50033H6.66675C6.66675 5.65866 8.15841 4.16699 10.0001 4.16699C11.8417 4.16699 13.3334 5.65866 13.3334 7.50033C13.3334 8.23366 13.0334 8.90033 12.5584 9.37533Z"
            fill="#B2B2B2" />
    </g>
    <defs>
        <clipPath id="clip0_13530_3796">
            <rect width="20" height="20" fill="white" />
        </clipPath>
    </defs>
</svg>