<svg width="16" height="16" viewBox="0 0 16 16" fill="none" xmlns="http://www.w3.org/2000/svg">
<path d="M9.30541 10.2059C9.57207 10.4725 9.5943 10.8911 9.37208 11.183L9.30541 11.2593L6.84734 13.7174C5.58675 14.978 3.54294 14.978 2.28235 13.7174C1.06523 12.5003 1.02327 10.553 2.15644 9.2855L2.28235 9.15237L4.74042 6.69429C5.03133 6.40339 5.50298 6.40339 5.79388 6.69429C6.06054 6.96096 6.08277 7.37949 5.86055 7.67147L5.79388 7.74775L3.33581 10.2059C2.65703 10.8846 2.65703 11.9852 3.33581 12.6639C3.98065 13.3088 5.00611 13.341 5.68901 12.7607L5.79388 12.6639L8.25195 10.2059C8.54286 9.91492 9.01451 9.91492 9.30541 10.2059ZM9.82965 6.17005C10.1205 6.46095 10.1205 6.9326 9.82965 7.22351L7.34904 9.70413C7.05813 9.99504 6.58648 9.99504 6.29558 9.70413C6.00467 9.41323 6.00467 8.94158 6.29558 8.65067L8.7762 6.17005C9.0671 5.87914 9.53875 5.87914 9.82965 6.17005ZM13.7173 2.28236C14.9344 3.49948 14.9764 5.44674 13.8432 6.71422L13.7173 6.84735L11.2592 9.30543C10.9683 9.59633 10.4967 9.59633 10.2058 9.30543C9.93914 9.03877 9.91692 8.62023 10.1391 8.32825L10.2058 8.25197L12.6638 5.79389C13.3426 5.11511 13.3426 4.0146 12.6638 3.33582C12.019 2.69098 10.9936 2.65874 10.3107 3.23909L10.2058 3.33582L7.74774 5.79389C7.45683 6.0848 6.98518 6.0848 6.69428 5.79389C6.42762 5.52723 6.40539 5.10869 6.62761 4.81672L6.69428 4.74043L9.15235 2.28236C10.4129 1.02177 12.4567 1.02177 13.7173 2.28236Z" fill="#8D8D8D"/>
</svg>
