<svg width="35" height="20" viewBox="0 0 35 20" fill="none" xmlns="http://www.w3.org/2000/svg">
    <path fill-rule="evenodd" clip-rule="evenodd"
        d="M25.4562 9.66319L22.518 9.7914C21.4092 9.83979 20.7532 10.1469 20.3551 10.4504C19.9453 10.7629 19.6391 11.202 19.443 11.7606C18.989 13.0542 19.3076 14.3629 19.5682 14.7395C19.9655 15.3136 20.4575 15.6928 20.9188 15.9362C21.3027 16.1388 21.6049 16.216 21.7214 16.2406H31.7606L31.597 5.84165C31.4553 4.78838 30.9658 4.24763 30.3967 3.888C29.7517 3.48036 28.9678 3.30799 28.455 3.28032C27.0533 3.47034 26.3863 4.08443 26.0032 4.65905C25.5228 5.3796 25.3731 6.24491 25.3844 6.71259L25.4562 9.66319ZM28.3115 0.267966C23.4584 0.783674 22.3402 4.82816 22.3878 6.78594C15.8221 7.07245 15.3219 13.8769 17.1062 16.4555C18.5336 18.5183 20.6508 19.1773 21.5311 19.2489H34.8058L34.5917 5.63992C34.1349 1.34236 30.2146 0.267966 28.3115 0.267966Z"
        fill="#5C59ED" />
    <path fill-rule="evenodd" clip-rule="evenodd"
        d="M18.82 6.02476C16.9882 2.5867 11.4119 -2.94283 3.76106 2.44345C1.52482 4.1864 -1.96278 9.24809 1.97682 15.5512C3.14242 17.4373 6.88672 20.8658 12.5392 19.4906C13.6573 19.1802 16.3207 18.0984 17.1771 16.3794L16.392 12.2967C15.0598 14.8991 10.8549 19.1898 5.54498 14.8349L18.82 6.02476ZM3.42809 10.3555C3.55687 11.1341 3.84222 11.8722 4.26784 12.5277L14.7922 5.64511C14.3665 4.98959 13.809 4.4295 13.1513 3.99682C12.4936 3.56414 11.7487 3.26735 10.9591 3.12338C10.1695 2.97942 9.3507 2.9911 8.54938 3.15776C7.74807 3.32442 6.97996 3.64281 6.28892 4.09473C5.59788 4.54665 4.99745 5.12326 4.52189 5.79163C4.04634 6.46001 3.70498 7.20706 3.5173 7.99014C3.32963 8.77321 3.29931 9.57698 3.42809 10.3555Z"
        fill="#5C59ED" />
    <path
        d="M17.3528 16.38L16.9007 16.6069L15.9963 14.3379L16.2224 12.5226L16.4485 12.0688L17.3528 16.38Z"
        fill="#5C59ED" />
    <path fill-rule="evenodd" clip-rule="evenodd"
        d="M13.5496 0.749377C16.1789 1.91023 18.0588 4.18918 18.9886 5.93429L19.0707 6.08839L5.86954 14.8495C7.09927 15.8116 8.25705 16.2966 9.32009 16.4517C10.4412 16.6152 11.4695 16.4137 12.3814 16C14.0435 15.2459 15.315 13.7877 16.0237 12.5711L16.0368 12.4662L16.0621 12.4154C16.1174 11.8384 16.239 11.2572 16.4355 10.6975C16.8074 9.63779 17.4498 8.6467 18.4261 7.90231C19.3671 7.18483 20.6086 6.70389 22.1956 6.60407C22.2072 5.59588 22.5013 4.15699 23.353 2.87949C24.264 1.5131 25.807 0.341188 28.2913 0.0771902L28.3014 0.0761238H28.3115C29.2918 0.0761238 30.7846 0.3514 32.0958 1.18002C33.4146 2.01343 34.5465 3.40588 34.7818 5.61957L34.7827 5.62821L35 19.4407H21.5233L21.5156 19.4401C20.6287 19.3679 18.5966 18.7399 17.1386 16.8258C16.6445 17.5687 15.8492 18.1714 15.0512 18.6297C14.123 19.1628 13.1626 19.5166 12.5901 19.6755L12.5872 19.6763L12.5842 19.6771C6.82741 21.0777 3.0091 17.5852 1.81462 15.6527C-0.183984 12.4548 -0.304706 9.55716 0.369466 7.23363C1.04126 4.91829 2.49854 3.18457 3.64381 2.29193L3.64748 2.28907L3.65128 2.2864C7.52794 -0.442827 10.9052 -0.418175 13.5496 0.749377ZM17.4186 16.5615C18.7972 18.3934 20.7306 18.9885 21.539 19.057H34.6116L34.4007 5.65171C34.1772 3.57285 33.1218 2.2818 31.8921 1.50469C30.6576 0.724561 29.2445 0.46171 28.3215 0.459814C25.9588 0.713594 24.519 1.82044 23.6708 3.09285C22.816 4.37491 22.5559 5.83497 22.5789 6.78126L22.5835 6.96942L22.3961 6.9776C20.7887 7.04774 19.565 7.51578 18.6574 8.20782C17.749 8.90043 17.1469 9.82533 16.7961 10.8249C16.6983 11.1034 16.6203 11.387 16.5606 11.6723L17.5703 16.4854L17.4186 16.5615ZM16.8038 15.4504C16.58 14.858 16.4419 14.161 16.4143 13.4249L16.8038 15.4504ZM16.7421 16.7257L15.8005 14.3632L15.9148 13.4458C15.1406 14.5406 13.9856 15.6932 12.5389 16.3496C11.5693 16.7895 10.4675 17.0068 9.26509 16.8313C8.06314 16.656 6.7733 16.0901 5.42401 14.9835L5.223 14.8186L18.5681 5.96199C17.6397 4.29136 15.8496 2.18403 13.3957 1.10057C10.8821 -0.00921195 7.64717 -0.0565297 3.87465 2.59781C2.7842 3.449 1.38197 5.11636 0.736526 7.3409C0.0927667 9.55962 0.198006 12.3442 2.13875 15.4492L2.13926 15.4501C3.27607 17.2896 6.94513 20.6527 12.4912 19.3049C13.0372 19.153 13.9658 18.811 14.8613 18.2967C15.5975 17.8739 16.2925 17.3454 16.7421 16.7257ZM10.9249 3.31213C10.16 3.17266 9.36593 3.18384 8.58817 3.34561C7.81039 3.50737 7.06449 3.81649 6.39327 4.25545C5.72205 4.69441 5.13903 5.25437 4.67745 5.90311C4.21587 6.55184 3.88497 7.27635 3.70315 8.035C3.52134 8.79361 3.49216 9.57144 3.61666 10.3241C3.7306 11.013 3.97128 11.6688 4.32645 12.2604L14.5248 5.59096C14.129 5.02593 13.6284 4.54011 13.0465 4.15726C12.4107 3.73896 11.6899 3.4516 10.9249 3.31213ZM8.51059 2.96991C9.33545 2.79835 10.1791 2.78617 10.9933 2.93463C11.8075 3.08309 12.5766 3.38932 13.2561 3.83638C13.9357 4.28346 14.5121 4.86245 14.9523 5.54037L15.0567 5.7011L4.21205 12.7932L4.10769 12.6325C3.66751 11.9545 3.37258 11.1914 3.23951 10.387C3.10645 9.58251 3.13791 8.75281 3.33145 7.94527C3.52497 7.13776 3.87679 6.36817 4.36632 5.68015C4.85585 4.99214 5.4737 4.39888 6.18455 3.934C6.89541 3.46912 7.68573 3.14147 8.51059 2.96991ZM28.4473 3.08778L28.4653 3.08875C29.0022 3.11773 29.8197 3.29662 30.4986 3.72566C31.1093 4.11163 31.6362 4.69942 31.7864 5.81598L31.7879 5.82725L31.9548 16.4324H21.7015L21.6821 16.4283C21.552 16.4009 21.2324 16.3184 20.8299 16.106C20.3457 15.8505 19.8286 15.4521 19.4112 14.849C19.2546 14.6226 19.1045 14.1644 19.0475 13.6138C18.9897 13.0554 19.0246 12.3754 19.2627 11.6969C19.4694 11.1081 19.7958 10.636 20.2395 10.2977C20.6722 9.96778 21.3668 9.64961 22.5097 9.59974L25.2605 9.4797L25.1933 6.71726C25.1812 6.21679 25.3385 5.31103 25.8443 4.55237C26.2564 3.93424 26.9708 3.28793 28.4294 3.0902L28.4473 3.08778ZM28.4626 3.4729C27.1301 3.65795 26.5146 4.23699 26.1621 4.76573C25.7071 5.44817 25.565 6.27303 25.5755 6.70791L25.6518 9.84667L22.5263 9.98306C21.4516 10.03 20.8342 10.3261 20.4708 10.6032C20.0948 10.8899 19.8088 11.296 19.6233 11.8244C19.4075 12.4394 19.3746 13.0606 19.4278 13.5741C19.4817 14.0954 19.6212 14.4798 19.7252 14.6301C20.1023 15.1751 20.5693 15.535 21.0078 15.7664C21.3526 15.9484 21.6258 16.0228 21.7418 16.0487H31.5664L31.406 5.85617C31.2709 4.87361 30.8203 4.38237 30.2949 4.05033C29.6911 3.66877 28.9516 3.5023 28.4626 3.4729Z"
        fill="#5C59ED" />
</svg>