<svg width="59" height="15" viewBox="0 0 59 15" fill="none" xmlns="http://www.w3.org/2000/svg">
<path d="M0.373333 14C0.224 14 0.149333 13.9316 0.149333 13.7947C0.149333 13.6702 0.217778 13.5956 0.354667 13.5707L0.616 13.5333C0.877333 13.496 1.07022 13.4213 1.19467 13.3093C1.31911 13.1973 1.38133 13.0107 1.38133 12.7493V2.05333C1.38133 1.82933 1.344 1.67378 1.26933 1.58667C1.20711 1.49955 1.08889 1.44978 0.914667 1.43733L0.485333 1.38133C0.348444 1.35644 0.28 1.28178 0.28 1.15733C0.28 1.03289 0.348444 0.958221 0.485333 0.933332C0.833778 0.858665 1.13244 0.771554 1.38133 0.671998C1.63022 0.572442 1.83556 0.472887 1.99733 0.373332C2.19644 0.248888 2.34578 0.186666 2.44533 0.186666C2.58222 0.186666 2.65067 0.286221 2.65067 0.485332V12.7493C2.65067 13.0107 2.688 13.1973 2.76267 13.3093C2.84978 13.4089 3.024 13.4773 3.28533 13.5147L3.71467 13.5707C3.85156 13.5956 3.92 13.6702 3.92 13.7947C3.92 13.9316 3.84533 14 3.696 14H0.373333ZM7.8909 14.168C7.25623 14.168 6.68379 13.9564 6.17356 13.5333C5.67579 13.0978 5.27756 12.5067 4.9789 11.76C4.68023 11.0133 4.5309 10.1796 4.5309 9.25867C4.5309 8.33778 4.68023 7.51022 4.9789 6.776C5.27756 6.04178 5.68201 5.45689 6.19223 5.02133C6.70245 4.58578 7.26867 4.368 7.8909 4.368C8.52556 4.368 9.09179 4.58578 9.58956 5.02133C10.0998 5.45689 10.5042 6.04178 10.8029 6.776C11.1016 7.51022 11.2509 8.33778 11.2509 9.25867C11.2509 10.1796 11.1016 11.0133 10.8029 11.76C10.5167 12.5067 10.1185 13.0978 9.60823 13.5333C9.09801 13.9564 8.52556 14.168 7.8909 14.168ZM7.8909 13.7013C9.18512 13.7013 9.83223 12.2204 9.83223 9.25867C9.83223 6.30933 9.18512 4.83467 7.8909 4.83467C6.59667 4.83467 5.94956 6.30933 5.94956 9.25867C5.94956 12.2204 6.59667 13.7013 7.8909 13.7013ZM15.2333 14.168C15.1213 14.168 15.0404 14.0996 14.9906 13.9627L12.508 5.73067C12.4209 5.432 12.3338 5.23911 12.2466 5.152C12.172 5.06489 12.0475 5.00267 11.8733 4.96533L11.5933 4.90933C11.4315 4.872 11.3506 4.79111 11.3506 4.66667C11.3506 4.54222 11.4378 4.48 11.612 4.48H14.692C14.8662 4.48 14.9533 4.54222 14.9533 4.66667C14.9533 4.80355 14.8724 4.88444 14.7106 4.90933L14.412 4.94667C14.1133 4.984 13.9266 5.05867 13.852 5.17067C13.7773 5.27022 13.7773 5.45689 13.852 5.73067L15.4013 11.1253C15.4386 11.2622 15.5009 11.3307 15.588 11.3307C15.6751 11.3307 15.7373 11.2622 15.7746 11.1253L17.2866 6.06667C17.3862 5.73067 17.4111 5.48178 17.3613 5.32C17.324 5.14578 17.1498 5.03378 16.8386 4.984L16.4466 4.90933C16.2849 4.872 16.204 4.79111 16.204 4.66667C16.204 4.54222 16.2911 4.48 16.4653 4.48H18.836C19.0102 4.48 19.0973 4.54844 19.0973 4.68533C19.0973 4.80978 19.0226 4.89689 18.8733 4.94667L18.7053 5.00267C18.5186 5.06489 18.3569 5.17689 18.22 5.33867C18.0955 5.50044 17.9711 5.78044 17.8466 6.17867L15.476 13.9627C15.4262 14.0996 15.3453 14.168 15.2333 14.168ZM22.3054 14.168C21.708 14.168 21.1729 13.9689 20.7 13.5707C20.2271 13.1724 19.8476 12.6124 19.5614 11.8907C19.2876 11.1564 19.1507 10.3102 19.1507 9.352C19.1507 8.36889 19.2938 7.504 19.58 6.75733C19.8662 6.01067 20.2582 5.42578 20.756 5.00267C21.2538 4.57955 21.8076 4.368 22.4174 4.368C23.1516 4.368 23.7427 4.67289 24.1907 5.28267C24.6511 5.88 24.8814 6.85689 24.8814 8.21333C24.8814 8.624 24.7258 8.82933 24.4147 8.82933H20.868C20.6191 8.82933 20.4947 8.97244 20.4947 9.25867C20.4947 10.5778 20.6876 11.5671 21.0734 12.2267C21.4591 12.8862 21.9507 13.216 22.548 13.216C23.0209 13.216 23.4067 13.048 23.7054 12.712C24.004 12.376 24.2467 11.8098 24.4334 11.0133C24.4707 10.8764 24.5516 10.808 24.676 10.808C24.8254 10.808 24.8814 10.9324 24.844 11.1813C24.6449 12.2889 24.3276 13.0667 23.892 13.5147C23.4565 13.9502 22.9276 14.168 22.3054 14.168ZM20.812 8.36267H22.6974C23.2947 8.36267 23.5934 8.05155 23.5934 7.42933C23.5934 6.62044 23.4938 5.98578 23.2947 5.52533C23.0956 5.06489 22.7969 4.83467 22.3987 4.83467C21.9134 4.83467 21.5027 5.11467 21.1667 5.67467C20.8431 6.23467 20.6316 7.03111 20.532 8.064C20.5071 8.26311 20.6005 8.36267 20.812 8.36267ZM27.8021 14.168C27.5159 14.168 27.211 14.1307 26.8874 14.056C26.5639 13.9938 26.3026 13.9129 26.1034 13.8133C25.9914 13.7511 25.9354 13.6453 25.9354 13.496L25.8794 11.4053C25.8794 11.1938 25.9603 11.088 26.1221 11.088C26.259 11.088 26.3523 11.1876 26.4021 11.3867C26.6137 12.2702 26.8688 12.8738 27.1674 13.1973C27.4786 13.5209 27.8519 13.6827 28.2874 13.6827C28.6483 13.6827 28.947 13.5458 29.1834 13.272C29.4199 12.9858 29.5381 12.5938 29.5381 12.096C29.5381 11.5982 29.4012 11.1564 29.1274 10.7707C28.8537 10.3849 28.3932 9.96178 27.7461 9.50133C27.099 9.06578 26.6261 8.63022 26.3274 8.19467C26.0288 7.74667 25.8794 7.26133 25.8794 6.73867C25.8794 6.02933 26.1283 5.45689 26.6261 5.02133C27.1239 4.58578 27.7834 4.368 28.6048 4.368C28.8537 4.368 29.0963 4.39911 29.3328 4.46133C29.5692 4.51111 29.7808 4.59822 29.9674 4.72267C30.0794 4.79733 30.1354 4.89689 30.1354 5.02133L30.1728 7.07467C30.1728 7.26133 30.0981 7.35467 29.9488 7.35467C29.8617 7.35467 29.7994 7.32978 29.7621 7.28C29.7248 7.21778 29.6937 7.14311 29.6688 7.056C29.4199 6.24711 29.171 5.68711 28.9221 5.376C28.6732 5.05244 28.3683 4.89067 28.0074 4.89067C27.6839 4.89067 27.4163 5.00267 27.2048 5.22667C26.9932 5.45067 26.8874 5.73067 26.8874 6.06667C26.8874 6.50222 27.0181 6.88178 27.2794 7.20533C27.5408 7.52889 28.0137 7.92711 28.6981 8.4C29.3203 8.848 29.787 9.33333 30.0981 9.856C30.4217 10.3662 30.5834 10.9262 30.5834 11.536C30.5834 12.3324 30.3283 12.9733 29.8181 13.4587C29.3079 13.9316 28.6359 14.168 27.8021 14.168ZM34.459 14.168C33.9114 14.168 33.4136 13.9876 32.9656 13.6267C32.5301 13.2533 32.1816 12.7244 31.9203 12.04C31.659 11.3556 31.5283 10.5404 31.5283 9.59467C31.5283 8.53689 31.6838 7.616 31.995 6.832C32.3185 6.048 32.7541 5.44444 33.3016 5.02133C33.8492 4.58578 34.459 4.368 35.131 4.368C35.7034 4.368 36.1514 4.48 36.475 4.704C36.5994 4.79111 36.6616 4.928 36.6616 5.11467L36.699 7.392C36.699 7.57867 36.6243 7.672 36.475 7.672C36.3381 7.672 36.251 7.59111 36.2136 7.42933C36.0394 6.74489 35.8714 6.216 35.7096 5.84267C35.5479 5.46933 35.3799 5.21422 35.2056 5.07733C35.0314 4.928 34.8385 4.85333 34.627 4.85333C34.3781 4.85333 34.1167 4.99644 33.843 5.28267C33.5816 5.56889 33.3576 6.03555 33.171 6.68267C32.9967 7.31733 32.9096 8.15733 32.9096 9.20267C32.9096 10.5342 33.0776 11.536 33.4136 12.208C33.7621 12.88 34.2101 13.216 34.7576 13.216C35.1932 13.216 35.5541 13.0356 35.8403 12.6747C36.139 12.3138 36.3941 11.6604 36.6056 10.7147C36.643 10.5778 36.7176 10.5093 36.8296 10.5093C36.979 10.5093 37.035 10.6338 36.9976 10.8827C36.8607 11.7538 36.6679 12.432 36.419 12.9173C36.1825 13.3902 35.8963 13.72 35.5603 13.9067C35.2367 14.0809 34.8696 14.168 34.459 14.168ZM40.2991 5.67467C40.8094 4.80355 41.4254 4.368 42.1471 4.368C42.5578 4.368 42.8627 4.49244 43.0618 4.74133C43.2609 4.97778 43.3605 5.24533 43.3605 5.544C43.3605 5.78044 43.2983 5.97333 43.1738 6.12267C43.0618 6.272 42.8814 6.34667 42.6325 6.34667C42.4334 6.34667 42.284 6.30311 42.1845 6.216C42.0974 6.11644 42.0227 6.00444 41.9605 5.88C41.9107 5.75555 41.8485 5.64978 41.7738 5.56267C41.6991 5.46311 41.5747 5.41333 41.4005 5.41333C41.1765 5.41333 40.9649 5.55022 40.7658 5.824C40.5667 6.08533 40.3987 6.44 40.2618 6.888C40.1374 7.336 40.0751 7.84622 40.0751 8.41867V12.7493C40.0751 13.0107 40.1125 13.1973 40.1871 13.3093C40.2743 13.4213 40.4485 13.4898 40.7098 13.5147L41.2138 13.5707C41.3507 13.5956 41.4191 13.664 41.4191 13.776C41.4191 13.9253 41.3258 14 41.1391 14H37.9845C37.7978 14 37.7045 13.9316 37.7045 13.7947C37.7045 13.6827 37.7854 13.608 37.9471 13.5707L38.1711 13.5333C38.4325 13.4836 38.6005 13.4089 38.6751 13.3093C38.7623 13.1973 38.8058 13.0107 38.8058 12.7493V6.47733C38.8058 6.25333 38.7685 6.104 38.6938 6.02933C38.6316 5.94222 38.5134 5.88622 38.3391 5.86133L37.9471 5.80533C37.7854 5.79289 37.7045 5.72444 37.7045 5.6C37.7045 5.50044 37.804 5.432 38.0031 5.39467C38.3889 5.33244 38.6814 5.23289 38.8805 5.096C39.092 4.95911 39.3098 4.79111 39.5338 4.592C39.6458 4.48 39.7391 4.424 39.8138 4.424C39.9258 4.424 39.9818 4.49867 39.9818 4.648V5.656C39.9818 5.74311 40.0191 5.79911 40.0938 5.824C40.1685 5.83644 40.2369 5.78667 40.2991 5.67467ZM47.1565 14.168C46.5219 14.168 45.9494 13.9564 45.4392 13.5333C44.9414 13.0978 44.5432 12.5067 44.2445 11.76C43.9459 11.0133 43.7965 10.1796 43.7965 9.25867C43.7965 8.33778 43.9459 7.51022 44.2445 6.776C44.5432 6.04178 44.9476 5.45689 45.4579 5.02133C45.9681 4.58578 46.5343 4.368 47.1565 4.368C47.7912 4.368 48.3574 4.58578 48.8552 5.02133C49.3654 5.45689 49.7699 6.04178 50.0685 6.776C50.3672 7.51022 50.5165 8.33778 50.5165 9.25867C50.5165 10.1796 50.3672 11.0133 50.0685 11.76C49.7823 12.5067 49.3841 13.0978 48.8739 13.5333C48.3636 13.9564 47.7912 14.168 47.1565 14.168ZM47.1565 13.7013C48.4507 13.7013 49.0979 12.2204 49.0979 9.25867C49.0979 6.30933 48.4507 4.83467 47.1565 4.83467C45.8623 4.83467 45.2152 6.30933 45.2152 9.25867C45.2152 12.2204 45.8623 13.7013 47.1565 13.7013ZM51.3603 14C51.211 14 51.1363 13.9316 51.1363 13.7947C51.1363 13.6702 51.2048 13.5956 51.3417 13.5707L51.603 13.5333C51.8643 13.496 52.0572 13.4213 52.1817 13.3093C52.3061 13.1973 52.3683 13.0107 52.3683 12.7493V2.05333C52.3683 1.82933 52.331 1.67378 52.2563 1.58667C52.1941 1.49955 52.0759 1.44978 51.9017 1.43733L51.4723 1.38133C51.3354 1.35644 51.267 1.28178 51.267 1.15733C51.267 1.03289 51.3354 0.958221 51.4723 0.933332C51.8208 0.858665 52.1194 0.771554 52.3683 0.671998C52.6172 0.572442 52.8225 0.472887 52.9843 0.373332C53.1834 0.248888 53.3328 0.186666 53.4323 0.186666C53.5692 0.186666 53.6377 0.286221 53.6377 0.485332V12.7493C53.6377 13.0107 53.675 13.1973 53.7497 13.3093C53.8368 13.4089 54.011 13.4773 54.2723 13.5147L54.7017 13.5707C54.8385 13.5956 54.907 13.6702 54.907 13.7947C54.907 13.9316 54.8323 14 54.683 14H51.3603ZM55.4619 14C55.3125 14 55.2379 13.9316 55.2379 13.7947C55.2379 13.6702 55.3063 13.5956 55.4432 13.5707L55.7045 13.5333C55.9659 13.496 56.1588 13.4213 56.2832 13.3093C56.4077 13.1973 56.4699 13.0107 56.4699 12.7493V2.05333C56.4699 1.82933 56.4325 1.67378 56.3579 1.58667C56.2957 1.49955 56.1774 1.44978 56.0032 1.43733L55.5739 1.38133C55.437 1.35644 55.3685 1.28178 55.3685 1.15733C55.3685 1.03289 55.437 0.958221 55.5739 0.933332C55.9223 0.858665 56.221 0.771554 56.4699 0.671998C56.7188 0.572442 56.9241 0.472887 57.0859 0.373332C57.285 0.248888 57.4343 0.186666 57.5339 0.186666C57.6708 0.186666 57.7392 0.286221 57.7392 0.485332V12.7493C57.7392 13.0107 57.7765 13.1973 57.8512 13.3093C57.9383 13.4089 58.1125 13.4773 58.3739 13.5147L58.8032 13.5707C58.9401 13.5956 59.0085 13.6702 59.0085 13.7947C59.0085 13.9316 58.9339 14 58.7845 14H55.4619Z" fill="#070707"/>
</svg>
