<svg width="16" height="16" viewBox="0 0 16 16" fill="none" xmlns="http://www.w3.org/2000/svg">
<path fill-rule="evenodd" clip-rule="evenodd" d="M12.0952 10.7046C11.9317 10.5714 11.9001 10.3355 12.0086 10.1547C12.5333 9.28037 12.816 8.24759 12.7684 7.15266C12.6391 4.18049 10.1248 1.87589 7.15266 2.00519C4.18049 2.13448 1.87589 4.64872 2.00519 7.62089C2.13448 10.5931 4.64872 12.8977 7.62089 12.7684C8.6229 12.7248 9.54904 12.4101 10.3316 11.8982C10.5063 11.784 10.7406 11.8047 10.8806 11.9596L12.9404 14.2385C13.1241 14.4417 13.4172 14.5048 13.6683 14.395C14.1264 14.1948 14.4829 13.8122 14.6525 13.3418C14.7447 13.0858 14.6658 12.798 14.4549 12.6262L12.0952 10.7046ZM7.55065 11.1539C5.47014 11.2444 3.71017 9.63117 3.61966 7.55066C3.52915 5.47014 5.14238 3.71017 7.22289 3.61966C9.30341 3.52915 11.0634 5.14238 11.1539 7.22289C11.2444 9.30341 9.63117 11.0634 7.55065 11.1539Z" fill="#8D8D8D"/>
</svg>
