<svg width="111" height="111" viewBox="0 0 111 111" fill="none" xmlns="http://www.w3.org/2000/svg">
<g filter="url(#filter0_ddddd_13401_3980)">
<path d="M87.0972 56.3293L87.0972 56.3292C87.1236 55.5886 86.7546 55.0478 86.4394 54.7339C86.1356 54.4314 85.7757 54.2252 85.4761 54.0817C84.8683 53.7905 84.0902 53.5641 83.2939 53.3754C81.6767 52.9921 79.5405 52.6658 77.4848 52.3532L77.3929 52.3393C75.3249 52.0249 73.3348 51.7224 71.8238 51.3799C71.5179 51.3106 71.2451 51.2425 71.005 51.1761C71.1909 51.0142 71.4047 50.8368 71.6466 50.6443C72.8145 49.7151 74.3954 48.6221 76.0492 47.4789C76.1389 47.4168 76.2289 47.3546 76.3191 47.2923C78.032 46.1078 79.8099 44.8714 81.0954 43.8055C81.7283 43.2808 82.3288 42.7274 82.7461 42.1872C82.9524 41.9202 83.1824 41.5703 83.3175 41.1582C83.4586 40.7279 83.5351 40.0908 83.1951 39.4517C82.8551 38.8126 82.284 38.52 81.8484 38.3965C81.4311 38.2783 81.0124 38.2735 80.6757 38.2953C79.9945 38.3395 79.2 38.5282 78.4112 38.7598C76.809 39.2301 74.79 40.0136 72.8505 40.7721C72.7484 40.812 72.6466 40.8518 72.545 40.8916C70.6727 41.6241 68.8828 42.3244 67.4595 42.7736C67.1647 42.8666 66.8982 42.9447 66.66 43.0084C66.7391 42.7723 66.8351 42.5079 66.9486 42.2155C67.509 40.7711 68.3702 38.9518 69.2652 37.0612L69.305 36.9771C70.1947 35.0976 71.1179 33.1439 71.7038 31.5886C71.9924 30.8227 72.2394 30.051 72.3376 29.3841C72.386 29.0555 72.4162 28.6419 72.3351 28.2208C72.251 27.7841 72.0087 27.1758 71.3797 26.7838L71.3797 26.7838C70.7568 26.3956 70.1091 26.4387 69.6762 26.5531C69.2599 26.6631 68.899 26.8706 68.6223 27.0584C68.0617 27.4389 67.4733 28 66.9095 28.5958C65.7645 29.8056 64.412 31.4941 63.1133 33.1205L62.9925 33.2718C61.7087 34.8798 60.4768 36.4227 59.4442 37.5454C59.2328 37.7751 59.0389 37.9772 58.8626 38.152C58.8141 37.9087 58.7662 37.6329 58.7194 37.3244C58.4904 35.8162 58.3311 33.8479 58.1651 31.7966L58.1495 31.6046C57.9815 29.53 57.8036 27.3739 57.5302 25.7306C57.3956 24.9214 57.2213 24.1273 56.9691 23.4984C56.8446 23.188 56.6612 22.8143 56.3775 22.4904C56.0825 22.1536 55.5694 21.7558 54.8359 21.7296L54.8358 21.7296C54.0952 21.7032 53.5543 22.0722 53.2405 22.3874C52.938 22.6912 52.7318 23.0511 52.5883 23.3507C52.2971 23.9585 52.0707 24.7366 51.8819 25.5329C51.4986 27.1501 51.1724 29.2863 50.8598 31.342L50.8458 31.4339C50.5315 33.502 50.2289 35.492 49.8865 37.003C49.8171 37.3089 49.749 37.5817 49.6827 37.8217C49.5208 37.6359 49.3434 37.4221 49.1509 37.1802C48.2216 36.0123 47.1287 34.4313 45.9855 32.7776C45.9234 32.6878 45.8612 32.5979 45.7988 32.5077C44.6143 30.7948 43.3779 29.0168 42.3121 27.7314C41.7874 27.0985 41.234 26.498 40.6938 26.0807C40.4268 25.8744 40.0768 25.6444 39.6647 25.5093C39.2345 25.3682 38.5974 25.2917 37.9583 25.6317C37.3192 25.9716 37.0266 26.5427 36.9031 26.9783C36.7849 27.3955 36.78 27.8143 36.8019 28.151C36.846 28.8321 37.0347 29.6266 37.2662 30.4153C37.7365 32.0175 38.5199 34.0363 39.2784 35.9757C39.3183 36.0779 39.3582 36.1799 39.398 36.2816C40.1304 38.1536 40.8306 39.9434 41.2798 41.3667C41.3729 41.6617 41.4511 41.9284 41.5148 42.1667C41.2787 42.0876 41.0144 41.9916 40.7221 41.8782C39.2777 41.3178 37.4585 40.4566 35.5679 39.5616L35.4837 39.5217C33.6042 38.6321 31.6505 37.7089 30.0952 37.123C29.3293 36.8344 28.5575 36.5874 27.8907 36.4892C27.5621 36.4408 27.1484 36.4106 26.7274 36.4917C26.2906 36.5758 25.6824 36.8181 25.2904 37.4471L25.2904 37.4471C24.9022 38.07 24.9453 38.7177 25.0597 39.1506C25.1697 39.5669 25.3772 39.9278 25.565 40.2045C25.9455 40.7651 26.5066 41.3535 27.1024 41.9173C28.3122 43.0623 30.0007 44.4148 31.6271 45.7135C31.6776 45.7538 31.7281 45.7941 31.7784 45.8343C33.3864 47.1181 34.9293 48.35 36.0519 49.3826C36.2817 49.5939 36.4838 49.7879 36.6586 49.9642C36.4153 50.0127 36.1394 50.0605 35.831 50.1074C34.3228 50.3364 32.3545 50.4957 30.3033 50.6617L30.1111 50.6773C28.0366 50.8453 25.8804 51.0232 24.2371 51.2966C23.428 51.4312 22.6338 51.6055 22.0049 51.8577C21.6946 51.9822 21.3208 52.1656 20.9969 52.4493C20.6601 52.7443 20.2624 53.2574 20.2362 53.9909L20.2362 53.991C20.2098 54.7316 20.5787 55.2725 20.8939 55.5863C21.1978 55.8888 21.5577 56.095 21.8572 56.2385C22.4651 56.5297 23.2431 56.7561 24.0395 56.9449C25.6567 57.3281 27.7928 57.6544 29.8486 57.967L29.9406 57.981C32.0086 58.2953 33.9986 58.5979 35.5096 58.9403C35.8154 59.0096 36.0883 59.0777 36.3283 59.1441C36.1425 59.306 35.9287 59.4834 35.6868 59.6759C34.5189 60.6052 32.9379 61.6981 31.2841 62.8414C31.1944 62.9034 31.1044 62.9656 31.0143 63.0279C29.3013 64.2125 27.5234 65.4489 26.2379 66.5147C25.6051 67.0394 25.0046 67.5928 24.5873 68.133C24.381 68.4 24.151 68.7499 24.0158 69.162C23.8747 69.5923 23.7982 70.2294 24.1382 70.8685C24.4782 71.5076 25.0492 71.8002 25.4849 71.9237C25.9021 72.0419 26.3209 72.0468 26.6576 72.0249C27.3387 71.9808 28.1331 71.7921 28.9219 71.5605C30.5241 71.0902 32.5428 70.3069 34.4823 69.5484C34.5845 69.5085 34.6865 69.4686 34.7882 69.4287C36.6602 68.6964 38.4499 67.9962 39.8732 67.547C40.1682 67.4539 40.435 67.3757 40.6733 67.312C40.5942 67.5481 40.4982 67.8124 40.3848 68.1047C39.8243 69.5491 38.9631 71.3684 38.0681 73.2591L38.0283 73.3431C37.1386 75.2226 36.2154 77.1763 35.6295 78.7316C35.341 79.4975 35.0939 80.2692 34.9957 80.9361C34.9473 81.2647 34.9172 81.6783 34.9983 82.0994C35.0823 82.5361 35.3247 83.1444 35.9536 83.5364L35.9536 83.5364C36.5765 83.9246 37.2243 83.8815 37.6571 83.7671C38.0735 83.6571 38.4344 83.4496 38.711 83.2618C39.2717 82.8813 39.86 82.3202 40.4238 81.7244C41.5689 80.5146 42.9213 78.8261 44.22 77.1997L44.3408 77.0484C45.6246 75.4404 46.8565 73.8975 47.8892 72.7748C48.1005 72.5451 48.2945 72.343 48.4708 72.1682C48.5192 72.4115 48.5671 72.6874 48.6139 72.9958C48.8429 74.504 49.0022 76.4722 49.1683 78.5235L49.1838 78.7156C49.3519 80.7902 49.5298 82.9463 49.8031 84.5896C49.9377 85.3988 50.1121 86.1929 50.3643 86.8218C50.4888 87.1322 50.6721 87.5059 50.9559 87.8298C51.2509 88.1666 51.764 88.5644 52.4975 88.5906L52.4975 88.5906C53.2381 88.617 53.779 88.248 54.0928 87.9328C54.3954 87.629 54.6015 87.2691 54.745 86.9695C55.0362 86.3617 55.2627 85.5837 55.4514 84.7873C55.8347 83.1701 56.161 81.0339 56.4735 78.9782L56.4875 78.8861C56.8019 76.8181 57.1044 74.8282 57.4469 73.3172C57.5162 73.0113 57.5843 72.7385 57.6507 72.4985C57.8126 72.6843 57.99 72.8981 58.1825 73.14C59.1117 74.3079 60.2047 75.8889 61.3479 77.5427C61.41 77.6324 61.4722 77.7224 61.5345 77.8125C62.719 79.5254 63.9554 81.3034 65.0213 82.5888C65.546 83.2217 66.0994 83.8222 66.6395 84.2395C66.9066 84.4458 67.2565 84.6758 67.6686 84.8109C68.0989 84.952 68.7359 85.0285 69.3751 84.6885C70.0142 84.3486 70.3068 83.7776 70.4302 83.3419C70.5485 82.9247 70.5533 82.5059 70.5315 82.1692C70.4873 81.4881 70.2987 80.6936 70.0671 79.9049C69.5968 78.3027 68.8134 76.2839 68.055 74.3445C68.015 74.2423 67.9751 74.1403 67.9353 74.0385C67.2029 72.1665 66.5027 70.3768 66.0535 68.9536C65.9604 68.6585 65.8822 68.3918 65.8185 68.1535C66.0546 68.2326 66.3189 68.3286 66.6112 68.442C68.0557 69.0024 69.875 69.8637 71.7656 70.7586L71.8497 70.7985C73.7291 71.6881 75.6829 72.6113 77.2382 73.1972C78.0041 73.4858 78.7758 73.7328 79.4426 73.831C79.7712 73.8794 80.1849 73.9096 80.606 73.8285C81.0427 73.7444 81.6509 73.5021 82.0429 72.8731L82.0429 72.8731C82.4311 72.2503 82.3881 71.6025 82.2737 71.1696C82.1636 70.7533 81.9562 70.3924 81.7684 70.1157C81.3878 69.5551 80.8267 68.9667 80.231 68.4029C79.0211 67.2579 77.3326 65.9054 75.7062 64.6068L75.5548 64.4858C73.9469 63.202 72.404 61.9702 71.2814 60.9376C71.0517 60.7263 70.8496 60.5323 70.6748 60.356C70.9181 60.3076 71.1939 60.2597 71.5023 60.2128C73.0106 59.9838 74.9789 59.8245 77.0301 59.6585L77.2222 59.6429C79.2968 59.4749 81.4529 59.297 83.0962 59.0236C83.9054 58.889 84.6995 58.7147 85.3284 58.4625C85.6388 58.338 86.0125 58.1547 86.3364 57.8709C86.6732 57.5759 87.071 57.0628 87.0972 56.3293Z" fill="#098AF5" stroke="white" stroke-width="3.30769"/>
<path d="M45.0404 63.8455L44.8832 63.2909C44.9793 63.1854 45.0305 63.0465 45.0258 62.9038L45.0252 62.3283C44.9226 61.5071 44.8338 60.9667 44.7591 60.7071C44.3233 59.1872 43.8674 58.0384 43.3914 57.2604C43.2507 57.1098 43.1235 57.0424 43.0083 57.057L42.8528 56.5071L44.8978 55.4192L44.8977 55.4295L47.2383 54.1844C48.4225 53.5544 49.3052 53.7886 49.8864 54.887C49.9381 54.9943 49.9801 55.1061 50.0119 55.2209C50.0295 55.278 50.0428 55.3363 50.0516 55.3954C50.2182 55.9864 49.9379 56.5911 49.211 57.2095C49.7295 56.9336 50.2725 57.088 50.84 57.6725C50.961 57.8392 51.0596 58.021 51.1333 58.2134L51.1515 58.2773C51.4089 59.1721 51.1381 60.0358 50.3393 60.8682C50.0638 61.1315 49.6396 61.4153 49.0666 61.7195L49.0085 61.7504L45.0404 63.8455ZM46.6597 59.0307L47.0236 60.3102C47.3128 61.321 47.7721 61.659 48.4015 61.3242C48.9644 60.9005 49.134 60.3034 48.9105 59.5328L48.7643 59.0198C48.5932 58.4214 48.073 58.2901 47.2037 58.6258L46.9771 58.7463C46.7511 58.8908 46.6445 58.9829 46.6605 59.0321L46.6597 59.0307ZM46.4265 58.1159C46.4335 58.1501 46.556 58.1159 46.7941 58.0135L47.02 57.8933C47.8301 57.353 48.1623 56.8297 48.0166 56.3233L47.8908 55.889C47.7036 55.2394 47.3029 55.025 46.6885 55.2456C46.0591 55.5804 45.8664 56.1739 46.1105 57.0262L46.4265 58.1159Z" fill="#F8DCD8"/>
<path d="M51.6784 60.3104L51.5175 59.7206C51.6017 59.6338 51.6465 59.4972 51.6536 59.3109C51.5816 58.2922 51.4073 57.2833 51.1334 56.2995C50.8666 55.355 50.4727 54.4512 49.9623 53.613C49.935 53.5839 49.9009 53.5622 49.863 53.5497C49.8251 53.5373 49.7848 53.5346 49.7456 53.5419L49.5854 52.9833L53.279 51.0081L53.3989 50.9444C54.8874 50.3562 55.7428 50.4499 55.9653 51.2254L56.002 51.3541L54.372 52.8734C53.954 51.9944 53.5708 51.6477 53.2222 51.8331L53.1068 51.8945C52.6052 52.1613 52.493 52.9459 52.7702 54.2482L52.8431 54.4834C53.0859 54.1486 53.4009 53.8727 53.7648 53.6763C53.9567 53.5678 54.1704 53.5034 54.3903 53.4878C54.6102 53.4722 54.8308 53.5057 55.0361 53.586C55.1843 53.6986 55.291 53.8572 55.3394 54.0369C55.4297 54.3515 55.3912 54.8314 55.2237 55.4764C54.6735 55.3014 54.2234 55.2523 53.8735 55.3291C53.6733 55.3774 53.4794 55.4493 53.296 55.5431L53.1929 55.598L53.5631 56.7791C53.7867 57.5496 54.1447 57.9381 54.6369 57.9446L54.8328 58.6315L51.6784 60.3104Z" fill="#F8DCD8"/>
<path d="M57.6091 57.1591L57.4489 56.5688C57.5428 56.4537 57.591 56.308 57.5843 56.1595C57.5123 55.1408 57.338 54.1319 57.0641 53.1481C56.7976 52.2036 56.4039 51.2996 55.8937 50.4612C55.8662 50.4323 55.8319 50.4107 55.7939 50.3984C55.756 50.386 55.7155 50.3833 55.6763 50.3905L55.5168 49.8316L59.2105 47.8564L59.3295 47.793C60.818 47.2049 61.6738 47.2985 61.8967 48.0737L61.9335 48.2023L60.3034 49.7217C59.8845 48.8432 59.5013 48.4964 59.1536 48.6814L59.0382 48.7428C58.5366 49.0096 58.4245 49.7942 58.7017 51.0965L58.7739 51.332C59.0166 50.9972 59.3316 50.7214 59.6955 50.5249C59.8874 50.4164 60.1011 50.352 60.321 50.3364C60.5409 50.3208 60.7615 50.3544 60.9669 50.4346C61.1154 50.5469 61.2221 50.7056 61.27 50.8855C61.3604 51.2002 61.3219 51.68 61.1544 52.3251C60.6046 52.1498 60.1546 52.1007 59.8042 52.1777C59.6039 52.2259 59.4101 52.2978 59.2268 52.3918L59.1243 52.4462L59.4939 53.6277C59.7174 54.3983 60.0754 54.7868 60.5676 54.7932L60.7642 55.4797L57.6091 57.1591Z" fill="#F8DCD8"/>
<path d="M65.3772 51.6733L65.4128 51.6805C65.5349 51.7278 65.644 51.8036 65.731 51.9016C65.818 51.9996 65.8803 52.1169 65.9127 52.2438C65.923 52.2701 65.9303 52.2974 65.9347 52.3253C65.9782 52.5729 65.9678 52.827 65.9042 53.0702C65.7915 53.5345 65.5435 53.8686 65.16 54.0726C65.1186 54.0946 65.0787 54.1159 65.0386 54.1316C64.9403 54.1748 64.8385 54.2096 64.7343 54.2357C64.6515 54.2259 64.5738 54.1906 64.512 54.1347C64.4502 54.0787 64.4073 54.0049 64.3894 53.9235L64.3777 53.8822C64.3415 53.7151 64.3472 53.39 64.3946 52.907C64.442 52.424 64.5577 52.081 64.7418 51.8782C64.8037 51.805 64.8785 51.7437 64.9624 51.6974C65.0247 51.6608 65.0948 51.6395 65.1669 51.6354C65.239 51.6312 65.3111 51.6442 65.3772 51.6733Z" fill="#F8DCD8"/>
</g>
<defs>
<filter id="filter0_ddddd_13401_3980" x="0.580948" y="0.231134" width="110.171" height="110.172" filterUnits="userSpaceOnUse" color-interpolation-filters="sRGB">
<feFlood flood-opacity="0" result="BackgroundImageFix"/>
<feColorMatrix in="SourceAlpha" type="matrix" values="0 0 0 0 0 0 0 0 0 0 0 0 0 0 0 0 0 0 127 0" result="hardAlpha"/>
<feOffset dx="2" dy="0.156915"/>
<feGaussianBlur stdDeviation="10"/>
<feColorMatrix type="matrix" values="0 0 0 0 0 0 0 0 0 0 0 0 0 0 0 0 0 0 0.1 0"/>
<feBlend mode="normal" in2="BackgroundImageFix" result="effect1_dropShadow_13401_3980"/>
<feColorMatrix in="SourceAlpha" type="matrix" values="0 0 0 0 0 0 0 0 0 0 0 0 0 0 0 0 0 0 127 0" result="hardAlpha"/>
<feOffset dx="0.509975" dy="0.66689"/>
<feGaussianBlur stdDeviation="0.411903"/>
<feColorMatrix type="matrix" values="0 0 0 0 0 0 0 0 0 0 0 0 0 0 0 0 0 0 0.09 0"/>
<feBlend mode="normal" in2="effect1_dropShadow_13401_3980" result="effect2_dropShadow_13401_3980"/>
<feColorMatrix in="SourceAlpha" type="matrix" values="0 0 0 0 0 0 0 0 0 0 0 0 0 0 0 0 0 0 127 0" result="hardAlpha"/>
<feOffset dx="1.09841" dy="1.4907"/>
<feGaussianBlur stdDeviation="0.549204"/>
<feColorMatrix type="matrix" values="0 0 0 0 0 0 0 0 0 0 0 0 0 0 0 0 0 0 0.05 0"/>
<feBlend mode="normal" in2="effect2_dropShadow_13401_3980" result="effect3_dropShadow_13401_3980"/>
<feColorMatrix in="SourceAlpha" type="matrix" values="0 0 0 0 0 0 0 0 0 0 0 0 0 0 0 0 0 0 127 0" result="hardAlpha"/>
<feOffset dx="1.96144" dy="2.62833"/>
<feGaussianBlur stdDeviation="2.5"/>
<feColorMatrix type="matrix" values="0 0 0 0 0 0 0 0 0 0 0 0 0 0 0 0 0 0 0.05 0"/>
<feBlend mode="normal" in2="effect3_dropShadow_13401_3980" result="effect4_dropShadow_13401_3980"/>
<feColorMatrix in="SourceAlpha" type="matrix" values="0 0 0 0 0 0 0 0 0 0 0 0 0 0 0 0 0 0 127 0" result="hardAlpha"/>
<feOffset dx="3.05985" dy="4.11903"/>
<feGaussianBlur stdDeviation="2.5"/>
<feColorMatrix type="matrix" values="0 0 0 0 0 0 0 0 0 0 0 0 0 0 0 0 0 0 0.03 0"/>
<feBlend mode="normal" in2="effect4_dropShadow_13401_3980" result="effect5_dropShadow_13401_3980"/>
<feBlend mode="normal" in="SourceGraphic" in2="effect5_dropShadow_13401_3980" result="shape"/>
</filter>
</defs>
</svg>
