<svg width="99" height="118" viewBox="0 0 99 118" fill="none" xmlns="http://www.w3.org/2000/svg">
    <g filter="url(#filter0_ddddd_13838_46298)">
        <path
            d="M71.8282 71.0035C71.805 69.1689 70.1347 68.0495 68.4527 68.7745C67.3082 69.2675 66.1502 69.716 64.9844 70.1471C64.3638 70.323 63.7452 70.5183 63.1188 70.671C61.6553 71.0306 60.1879 71.3709 58.7225 71.7189C55.9753 72.1713 53.2069 72.4129 50.4346 72.6294H44.7237C44.2481 72.5869 43.7744 72.5328 43.2988 72.5038C41.6556 72.4071 40.0123 72.2312 38.3922 71.9973C37.7368 71.9083 37.0988 71.7053 36.4299 71.7208C34.3323 71.2665 32.2424 70.7793 30.1873 70.1568C28.9153 69.6464 27.6606 69.0819 26.3653 68.6372C24.9153 68.1404 23.3706 69.2868 23.33 70.8257C23.3087 71.6125 23.33 72.3994 23.33 73.1862C23.33 74.4255 23.8559 75.1968 25.0062 75.6492C26.3231 76.178 27.6016 76.7982 28.8321 77.5052C31.1057 78.7869 33.1279 80.4051 35.1307 82.0696L36.5807 83.4036L40.2191 87.3127C40.6406 87.8675 41.0601 88.4224 41.4835 88.9753C43.9851 92.2406 47.842 93.0971 51.2929 91.1676C52.9169 90.2609 53.8584 88.7182 54.9507 87.3127L58.5814 83.4055C59.7858 82.3306 60.969 81.2325 62.2546 80.2465C64.6886 78.3771 67.2811 76.7667 70.1424 75.6415C71.3159 75.1814 71.863 74.2882 71.8379 73.0374C71.8205 72.3588 71.8379 71.6821 71.8282 71.0035Z"
            fill="white" stroke="white" stroke-width="10.0121" stroke-miterlimit="10" />
        <path
            d="M36.4221 62.8953C37.1954 62.8509 37.9919 62.8509 38.7671 62.7523C41.6148 62.3927 44.3388 61.5517 46.9952 60.4923C47.1804 60.4089 47.3807 60.3642 47.5838 60.3609C47.7869 60.3576 47.9885 60.3957 48.1764 60.4729C49.1933 60.8596 50.2083 61.2714 51.2484 61.5865C54.4344 62.5531 57.6494 63.253 61.0153 62.6749C65.3342 61.9306 68.0273 59.34 69.485 55.3149C70.2472 53.4675 70.6463 51.4904 70.6604 49.4919C70.7223 48.0439 70.1694 46.8472 69.2162 45.78C68.2631 44.7129 67.0026 44.3088 65.7093 43.9221C65.5952 42.4587 65.4599 40.999 64.992 39.5955C64.989 39.4658 64.9761 39.3365 64.9534 39.2088C63.829 34.6843 61.8948 30.4007 59.2444 26.5652C58.7959 25.9079 58.299 25.3298 57.5451 25.0186H56.4953C55.6002 25.4168 54.9738 26.1573 54.2449 26.7682C53.025 27.7909 52.8453 28.8696 53.7384 30.1959C54.8203 31.7863 55.777 33.4585 56.5997 35.1973C57.228 36.5351 57.6842 37.9425 58.2178 39.3171C58.207 39.5107 58.2346 39.7045 58.299 39.8874C58.6152 41.0295 58.851 42.1923 59.0047 43.3673C58.8113 43.4156 58.5852 43.3673 58.4247 43.52C56.3036 43.6528 54.2432 44.2804 52.4083 45.3528C50.997 45.9327 49.839 46.8994 48.6984 47.8815C47.8361 48.62 47.3451 48.62 46.4828 47.8815C45.3422 46.9052 44.1861 45.9385 42.7729 45.3547C40.94 44.2778 38.8784 43.6498 36.7565 43.522C36.5902 43.3596 36.3699 43.4176 36.1765 43.3692C36.1997 43.1991 36.2133 43.027 36.2461 42.8569C36.482 41.6776 36.7236 40.5002 36.9614 39.3209C37.1818 39.0619 37.1896 38.7197 37.2959 38.4181C38.3175 35.4685 39.736 32.6718 41.5124 30.105C42.2064 29.0958 42.1871 27.9494 41.3693 27.1742C40.5515 26.3989 39.7454 25.5309 38.6801 25.034H37.6304C36.8764 25.3414 36.3776 25.9175 35.931 26.5806C34.2201 29.0748 32.7984 31.7554 31.6933 34.5709C31.0591 36.2103 30.4772 37.8671 30.1814 39.609C29.7252 41.0106 29.5686 42.4606 29.4816 43.9221C29.1723 44.0149 28.8649 44.1155 28.5536 44.1986C27.3723 44.5189 26.329 45.2183 25.584 46.1893C24.8389 47.1603 24.4335 48.3492 24.4299 49.5731C24.5904 51.5354 24.9133 53.4629 25.6498 55.3034C27.3492 60.2313 31.2505 62.8915 36.4221 62.8953Z"
            fill="white" stroke="white" stroke-width="10.0121" stroke-miterlimit="10" />
        <path
            d="M38.6627 25.0203C39.728 25.5171 40.5206 26.3736 41.3519 27.1604C42.1832 27.9472 42.189 29.0821 41.495 30.0913C39.7186 32.658 38.3001 35.4547 37.2785 38.4043C37.1722 38.7059 37.1645 39.0481 36.9441 39.3072C34.6802 39.2782 32.4163 39.2724 30.1641 39.5856C30.4599 37.8456 31.0418 36.1869 31.6759 34.5475C32.7817 31.7353 34.2033 29.058 35.9136 26.5669C36.3602 25.9076 36.859 25.3315 37.613 25.0203H38.6627Z"
            fill="#F48CAC" stroke="#1D1D1B" stroke-width="1.55744" stroke-miterlimit="10" />
        <path
            d="M61.4078 30.1067C60.7505 28.8991 60.0294 27.7191 59.2445 26.5669C58.7959 25.9096 58.2991 25.3315 57.5451 25.0203H56.4953C55.6002 25.4185 54.9758 26.159 54.245 26.7699C53.0251 27.7926 52.8453 28.8714 53.7385 30.1976C54.8203 31.7874 55.7769 33.459 56.5997 35.197C57.2281 36.5349 57.6843 37.9423 58.2179 39.3169C60.4837 39.2898 62.7475 39.2821 64.9979 39.5952C64.9949 39.4656 64.982 39.3363 64.9592 39.2086C64.5716 37.6198 64.0782 36.0588 63.4822 34.5359"
            fill="#F48CAC" />
        <path
            d="M61.4078 30.1067C60.7505 28.8991 60.0294 27.7191 59.2445 26.5669C58.7959 25.9096 58.2991 25.3315 57.5451 25.0203H56.4953C55.6002 25.4185 54.9758 26.159 54.245 26.7699C53.0251 27.7926 52.8453 28.8714 53.7385 30.1976C54.8203 31.7874 55.7769 33.459 56.5997 35.197C57.2281 36.5349 57.6843 37.9423 58.2179 39.3169C60.4837 39.2898 62.7475 39.2821 64.9979 39.5952C64.9949 39.4656 64.982 39.3363 64.9592 39.2086C64.5716 37.6198 64.0782 36.0588 63.4822 34.5359"
            stroke="#1D1D1B" stroke-width="1.55744" stroke-miterlimit="10" stroke-linecap="round" />
        <path
            d="M58.4132 43.518C58.5795 43.3556 58.7999 43.4136 58.9932 43.3653C61.2445 43.2727 63.4985 43.4597 65.7036 43.9221C66.997 44.3087 68.2633 44.7205 69.2106 45.7799C70.1579 46.8394 70.7166 48.0438 70.6548 49.4918C70.4614 49.3894 70.2681 49.2792 70.0748 49.1864C69.5756 48.9484 69.0243 48.8407 68.4722 48.8733C67.9202 48.9059 67.3854 49.0778 66.9177 49.373C66.45 49.6681 66.0647 50.0768 65.7976 50.5611C65.5306 51.0454 65.3905 51.5893 65.3904 52.1424C65.3975 52.6392 65.5163 53.1281 65.738 53.5728C65.9597 54.0175 66.2786 54.4066 66.6711 54.7113C67.0636 55.016 67.5197 55.2284 68.0055 55.3329C68.4912 55.4374 68.9943 55.4312 69.4774 55.3149C68.0197 59.34 65.3266 61.9306 61.0077 62.6749C57.6419 63.2548 54.4346 62.5492 51.2408 61.5864C50.2007 61.2713 49.1857 60.8672 48.1688 60.4729C47.9809 60.3956 47.7793 60.3575 47.5762 60.3608C47.3731 60.3642 47.1728 60.4089 46.9876 60.4922C44.3313 61.5516 41.6073 62.3926 38.7595 62.7522C37.9862 62.8508 37.1975 62.8508 36.4145 62.8952C36.4252 62.8094 36.4162 62.7223 36.388 62.6406C36.3599 62.5588 36.3134 62.4845 36.2521 62.4235C35.0062 60.9367 33.9807 59.2784 33.2072 57.4995C32.0249 54.9033 31.3767 52.096 31.301 49.2444C31.2661 47.3336 31.4032 45.4235 31.7108 43.5374C33.1859 43.2957 34.6726 43.3575 36.1574 43.3595C36.3507 43.4078 36.5769 43.3595 36.7373 43.5122C36.2289 44.4344 36.0742 45.4146 36.4415 46.4121C37.0215 47.9839 38.4522 48.7649 40.136 48.5001C41.5976 48.27 42.6493 47.0172 42.7537 45.3508C44.1669 45.9307 45.323 46.8974 46.4637 47.8776C47.3298 48.618 47.817 48.618 48.6792 47.8776C49.8198 46.8993 50.9779 45.9443 52.3892 45.3488C52.5631 48.0129 55.1924 49.4087 57.4369 48.0225C58.682 47.2531 59.4514 45.3991 58.4132 43.518ZM38.2008 52.2796C37.7688 52.2714 37.3393 52.3492 36.9376 52.5085C36.5359 52.6678 36.1698 52.9054 35.8607 53.2074C35.5517 53.5095 35.3057 53.87 35.1373 54.268C34.9688 54.6659 34.8812 55.0934 34.8795 55.5256C34.8992 56.3844 35.2465 57.2032 35.8504 57.8142C36.4542 58.4253 37.2688 58.7823 38.1274 58.8122C38.9878 58.8123 39.8139 58.4751 40.4284 57.8729C41.0429 57.2707 41.3967 56.4515 41.4139 55.5913C41.4391 53.7296 40.0491 52.297 38.2008 52.2796ZM56.9962 52.2796C56.5699 52.2727 56.1466 52.3508 55.7509 52.5093C55.3553 52.6679 54.9951 52.9037 54.6917 53.2031C54.3882 53.5024 54.1474 53.8592 53.9834 54.2527C53.8195 54.6462 53.7356 55.0684 53.7367 55.4947C53.7303 55.9272 53.8093 56.3568 53.9694 56.7588C54.1294 57.1607 54.3671 57.5271 54.6691 57.837C54.971 58.1468 55.3311 58.394 55.7288 58.5643C56.1265 58.7346 56.5539 58.8248 56.9865 58.8296C58.74 58.8489 60.2885 57.2829 60.2731 55.5063C60.2654 54.6442 59.9161 53.8203 59.3018 53.2154C58.6875 52.6105 57.8583 52.274 56.9962 52.2796Z"
            fill="#FFB5C5" stroke="#1D1D1B" stroke-width="1.55744" stroke-miterlimit="10" />
        <path
            d="M31.7125 43.5434C31.4049 45.4296 31.2678 47.3396 31.3027 49.2504C31.3786 52.1 32.0261 54.9052 33.207 57.4997C33.9828 59.2769 35.0102 60.9333 36.2577 62.418C36.319 62.479 36.3655 62.5532 36.3936 62.635C36.4218 62.7168 36.4308 62.8039 36.4201 62.8897C31.2486 62.8897 27.3472 60.2256 25.6479 55.2977C25.7561 55.3113 25.8644 55.3229 25.9726 55.3403C26.5106 55.4248 27.0611 55.3736 27.5742 55.1914C28.0873 55.0092 28.5468 54.7017 28.9109 54.2968C29.275 53.8919 29.5323 53.4025 29.6592 52.873C29.7862 52.3435 29.7789 51.7907 29.638 51.2647C29.497 50.7387 29.227 50.2563 28.8523 49.8612C28.4776 49.4661 28.0102 49.1708 27.4924 49.0022C26.9746 48.8336 26.423 48.797 25.8875 48.8957C25.352 48.9944 24.8496 49.2253 24.426 49.5675C24.4255 48.3435 24.8271 47.1533 25.569 46.1798C26.3109 45.2064 27.352 44.5035 28.5323 44.1794C28.8436 44.0924 29.151 43.9861 29.4603 43.903L31.7125 43.5434Z"
            fill="#F48CAC" stroke="#1D1D1B" stroke-width="1.55744" stroke-miterlimit="10" />
        <path
            d="M36.575 83.4049C37.2129 81.6436 38.2337 80.793 39.7417 80.7659C41.4429 80.735 42.7904 81.893 43.0804 83.6388C43.3221 85.0752 42.3187 86.647 40.8417 87.1419C40.6368 87.2095 40.4241 87.2559 40.2134 87.3139L36.575 83.4049Z"
            fill="#E55A85" stroke="#1D1D1B" stroke-width="1.77993" stroke-miterlimit="10" />
        <path
            d="M54.9449 87.3103C53.5259 87.0184 52.5283 86.247 52.1668 84.797C51.964 84.0088 52.0678 83.173 52.4571 82.4583C52.8464 81.7436 53.4922 81.2031 54.2644 80.9459C55.0314 80.6747 55.8724 80.7014 56.6207 81.0208C57.369 81.3401 57.9701 81.9289 58.3049 82.6704C58.4132 82.9063 58.4983 83.1576 58.5814 83.4012L54.9449 87.3103Z"
            fill="#E55A85" stroke="#1D1D1B" stroke-width="1.77993" stroke-miterlimit="10" />
        <path
            d="M65.7093 43.9221C63.5041 43.4598 61.2501 43.2728 58.9988 43.3654C58.8452 42.1903 58.6094 41.0275 58.2932 39.8855C58.2288 39.7026 58.2012 39.5087 58.212 39.3151C60.4778 39.2881 62.7417 39.2803 64.992 39.5935C65.4599 40.999 65.5952 42.4587 65.7093 43.9221Z"
            fill="#F48CAC" stroke="#1D1D1B" stroke-width="1.55744" stroke-miterlimit="10" />
        <path
            d="M31.7128 43.5429L29.4644 43.9083C29.5514 42.4468 29.7079 40.9968 30.1642 39.5952C32.4165 39.282 34.6803 39.2878 36.9442 39.3168C36.7064 40.4961 36.4648 41.6735 36.2289 42.8528C36.196 43.0229 36.1825 43.195 36.1593 43.3651C34.6745 43.3632 33.1878 43.3013 31.7128 43.5429Z"
            fill="#FFB5C5" stroke="#1D1D1B" stroke-width="1.55744" stroke-miterlimit="10" />
        <path
            d="M50.4345 72.6296C51.0918 74.0486 51.028 75.3806 49.9067 76.5503C49.3888 77.1061 48.6897 77.4591 47.935 77.5459C47.1803 77.6327 46.4194 77.4476 45.7888 77.0239C45.1544 76.6079 44.6844 75.9843 44.4594 75.2598C44.2344 74.5354 44.2683 73.7552 44.5554 73.053L44.7236 72.6277L50.4345 72.6296Z"
            fill="#E55A85" stroke="#1D1D1B" stroke-width="1.77993" stroke-miterlimit="10" />
        <path
            d="M24.4299 49.5728C24.8535 49.2307 25.3559 48.9998 25.8914 48.901C26.4269 48.8023 26.9785 48.8389 27.4963 49.0075C28.0141 49.1761 28.4815 49.4714 28.8562 49.8665C29.2309 50.2616 29.5009 50.744 29.6419 51.27C29.7828 51.796 29.7901 52.3488 29.6631 52.8783C29.5361 53.4078 29.2789 53.8972 28.9148 54.3021C28.5507 54.707 28.0912 55.0145 27.5781 55.1967C27.065 55.3789 26.5145 55.4301 25.9765 55.3456C25.8702 55.3282 25.7619 55.3166 25.6537 55.303C25.2156 54.3877 24.891 53.4223 24.687 52.4283C24.4931 51.4893 24.4069 50.5313 24.4299 49.5728Z"
            fill="#E55A85" stroke="#1D1D1B" stroke-width="1.77993" stroke-miterlimit="10" />
        <path
            d="M69.489 55.3155C69.0057 55.4318 68.5025 55.438 68.0165 55.3335C67.5305 55.229 67.0743 55.0166 66.6815 54.712C66.2887 54.4074 65.9694 54.0183 65.7473 53.5737C65.5251 53.129 65.4058 52.64 65.3982 52.143C65.401 51.5906 65.543 51.0479 65.811 50.5649C66.0791 50.0819 66.4646 49.6743 66.9318 49.3796C67.3991 49.085 67.9331 48.9129 68.4844 48.8793C69.0358 48.8456 69.5868 48.9515 70.0864 49.1871C70.2797 49.2798 70.473 49.3804 70.6664 49.4925C70.6507 51.491 70.251 53.4679 69.489 55.3155Z"
            fill="#E55A85" stroke="#1D1D1B" stroke-width="1.77993" stroke-miterlimit="10" />
        <path
            d="M54.945 87.3104C53.8527 88.7159 52.9112 90.2586 51.2872 91.1653C47.8363 93.0986 43.9794 92.2383 41.4778 88.973C41.0544 88.4201 40.6348 87.8652 40.2134 87.3104C40.4241 87.2524 40.6368 87.206 40.8417 87.1383C42.3187 86.6434 43.3221 85.0716 43.0804 83.6352C42.7904 81.8952 41.443 80.7353 39.7417 80.7624C38.2337 80.7894 37.2129 81.64 36.575 83.4013L35.125 82.0673C35.3821 81.7155 35.2043 81.3075 35.2661 80.9305C35.6992 78.224 36.4628 75.6198 37.8277 73.2129C38.0462 72.8262 38.3787 72.4802 38.3922 71.9949C40.0201 72.2289 41.6556 72.4048 43.2989 72.5014C43.7745 72.5304 44.2481 72.5846 44.7237 72.6271L44.5555 73.0524C44.268 73.7549 44.2338 74.5355 44.4588 75.2604C44.6839 75.9853 45.1541 76.6093 45.789 77.0253C46.4195 77.449 47.1805 77.6341 47.9352 77.5473C48.6899 77.4605 49.3889 77.1075 49.9068 76.5517C51.0281 75.3917 51.0919 74.05 50.4346 72.631C53.2069 72.4145 55.9754 72.1728 58.7226 71.7204C59.001 74.282 61.5935 75.645 63.7066 74.3245C64.7525 73.673 65.7829 72.1979 64.9845 70.1487C66.1444 69.7175 67.3044 69.269 68.4528 68.776C70.1347 68.0511 71.8051 69.1627 71.8283 71.0051C71.8283 71.6837 71.8283 72.3584 71.8283 73.037C71.8534 74.2936 71.3063 75.181 70.1328 75.6411C67.2619 76.7624 64.679 78.3767 62.245 80.2462C60.9652 81.2321 59.782 82.3302 58.5718 83.4051C58.4809 83.1615 58.4036 82.9102 58.2953 82.6744C57.9605 81.9328 57.3594 81.3441 56.6111 81.0247C55.8628 80.7053 55.0218 80.6786 54.2548 80.9499C53.4826 81.2071 52.8368 81.7476 52.4475 82.4623C52.0582 83.177 51.9545 84.0128 52.1572 84.801C52.5284 86.247 53.5259 87.0184 54.945 87.3104Z"
            fill="#FFB5C5" stroke="#1D1D1B" stroke-width="1.55744" stroke-miterlimit="10" />
        <path
            d="M28.0433 77.0743C28.3011 77.216 28.5621 77.3591 28.8263 77.5035C31.0998 78.7852 33.122 80.4034 35.1249 82.0679C35.382 81.7161 35.2042 81.3081 35.266 80.9312C35.6991 78.2246 36.4627 75.6205 37.8276 73.2135C38.0461 72.8269 38.3786 72.4808 38.3921 71.9955C37.7368 71.9066 37.0988 71.7036 36.4299 71.7191C36.2365 73.606 34.7267 74.9554 32.9828 74.8239C32.1272 74.7663 31.3271 74.3796 30.7504 73.7448C30.1737 73.1101 29.8652 72.2767 29.8896 71.4194C29.9229 70.9853 30.0227 70.5589 30.1854 70.1551C28.9133 69.6447 27.6586 69.0802 26.3633 68.6355C24.9133 68.1387 23.3687 69.2851 23.3281 70.824C23.3068 71.6108 23.3281 72.3977 23.3281 73.1845C23.3281 74.4237 23.8539 75.1951 25.0042 75.6475C25.3909 75.8002 25.7775 75.9646 26.1642 76.1366"
            fill="#FFB5C5" />
        <path
            d="M28.0433 77.0743C28.3011 77.216 28.5621 77.3591 28.8263 77.5035C31.0998 78.7852 33.122 80.4034 35.1249 82.0679C35.382 81.7161 35.2042 81.3081 35.266 80.9312C35.6991 78.2246 36.4627 75.6205 37.8276 73.2135C38.0461 72.8269 38.3786 72.4808 38.3921 71.9955C37.7368 71.9066 37.0988 71.7036 36.4299 71.7191C36.2365 73.606 34.7267 74.9554 32.9828 74.8239C32.1272 74.7663 31.3271 74.3796 30.7504 73.7448C30.1737 73.1101 29.8652 72.2767 29.8896 71.4194C29.9229 70.9853 30.0227 70.5589 30.1854 70.1551C28.9133 69.6447 27.6586 69.0802 26.3633 68.6355C24.9133 68.1387 23.3687 69.2851 23.3281 70.824C23.3068 71.6108 23.3281 72.3977 23.3281 73.1845C23.3281 74.4237 23.8539 75.1951 25.0042 75.6475C25.3909 75.8002 25.7775 75.9646 26.1642 76.1366"
            stroke="#1D1D1B" stroke-width="1.55744" stroke-miterlimit="10" stroke-linecap="round" />
        <path
            d="M36.4299 71.7133C36.2365 73.604 34.7267 74.9554 32.9828 74.8239C32.1263 74.7649 31.3259 74.3766 30.7493 73.7405C30.1727 73.1044 29.8646 72.2699 29.8896 71.4117C29.9229 70.9776 30.0227 70.5512 30.1854 70.1473C32.2405 70.7679 34.3323 71.259 36.4299 71.7133Z"
            fill="#E55A85" stroke="#1D1D1B" stroke-width="1.77993" stroke-miterlimit="10" />
        <path
            d="M64.9843 70.1473C65.7827 72.2024 64.7523 73.6717 63.7064 74.3232C61.5933 75.6437 59.0008 74.2807 58.7224 71.7191C60.1878 71.3711 61.6552 71.0309 63.1187 70.6713C63.7528 70.5185 64.3637 70.3233 64.9843 70.1473Z"
            fill="#E55A85" stroke="#1D1D1B" stroke-width="1.77993" stroke-miterlimit="10" />
        <path
            d="M42.7614 45.3199C42.6473 47.0019 41.6014 48.2701 40.1437 48.5002C38.4598 48.7689 37.0311 47.9801 36.4492 46.391C36.0819 45.3895 36.2365 44.3997 36.745 43.4679C38.8692 43.598 40.9317 44.2329 42.7614 45.3199Z"
            fill="#E55A85" stroke="#1D1D1B" stroke-width="1.77993" stroke-miterlimit="10" />
        <path
            d="M58.4131 43.4662C59.4513 45.3666 58.6818 47.2477 57.4465 48.0191C55.2019 49.4168 52.5727 48.0094 52.3987 45.3125C54.2303 44.2323 56.2909 43.5997 58.4131 43.4662Z"
            fill="#E55A85" stroke="#1D1D1B" stroke-width="1.77993" stroke-miterlimit="10" />
        <path
            d="M38.2008 52.2797C40.0491 52.2894 41.4391 53.7219 41.4217 55.6011C41.4045 56.4613 41.0506 57.2805 40.4361 57.8827C39.8216 58.4849 38.9955 58.8221 38.1351 58.8219C37.2766 58.7921 36.4619 58.435 35.8581 57.824C35.2543 57.213 34.9069 56.3942 34.8872 55.5354C34.8877 55.103 34.9741 54.6751 35.1415 54.2766C35.3089 53.878 35.554 53.5167 35.8623 53.2137C36.1707 52.9107 36.5363 52.6721 36.9378 52.5118C37.3392 52.3514 37.7686 52.2725 38.2008 52.2797Z"
            fill="#E55A85" stroke="#1D1D1B" stroke-width="1.77993" stroke-miterlimit="10" />
        <path
            d="M56.9961 52.2796C57.8586 52.2714 58.6891 52.6057 59.3053 53.2092C59.9215 53.8127 60.273 54.6361 60.2827 55.4985C60.2963 57.2771 58.7477 58.8412 56.9961 58.8218C56.5639 58.8175 56.1367 58.728 55.7391 58.5584C55.3415 58.3887 54.9813 58.1423 54.679 57.8333C54.3768 57.5242 54.1385 57.1586 53.9778 56.7573C53.8171 56.356 53.7371 55.9269 53.7424 55.4946C53.7414 55.0689 53.8251 54.6471 53.9887 54.2541C54.1523 53.861 54.3926 53.5044 54.6954 53.2052C54.9983 52.9059 55.3577 52.6699 55.7527 52.511C56.1477 52.3521 56.5704 52.2734 56.9961 52.2796Z"
            fill="#E55A85" stroke="#1D1D1B" stroke-width="1.77993" stroke-miterlimit="10" />
    </g>
    <defs>
        <filter id="filter0_ddddd_13838_46298" x="0.314941" y="0.169397" width="98.5298"
            height="117.183" filterUnits="userSpaceOnUse" color-interpolation-filters="sRGB">
            <feFlood flood-opacity="0" result="BackgroundImageFix" />
            <feColorMatrix in="SourceAlpha" type="matrix"
                values="0 0 0 0 0 0 0 0 0 0 0 0 0 0 0 0 0 0 127 0" result="hardAlpha" />
            <feOffset dx="2" dy="0.156915" />
            <feGaussianBlur stdDeviation="10" />
            <feColorMatrix type="matrix" values="0 0 0 0 0 0 0 0 0 0 0 0 0 0 0 0 0 0 0.1 0" />
            <feBlend mode="normal" in2="BackgroundImageFix" result="effect1_dropShadow_13838_46298" />
            <feColorMatrix in="SourceAlpha" type="matrix"
                values="0 0 0 0 0 0 0 0 0 0 0 0 0 0 0 0 0 0 127 0" result="hardAlpha" />
            <feOffset dx="0.509975" dy="0.66689" />
            <feGaussianBlur stdDeviation="0.411903" />
            <feColorMatrix type="matrix" values="0 0 0 0 0 0 0 0 0 0 0 0 0 0 0 0 0 0 0.09 0" />
            <feBlend mode="normal" in2="effect1_dropShadow_13838_46298"
                result="effect2_dropShadow_13838_46298" />
            <feColorMatrix in="SourceAlpha" type="matrix"
                values="0 0 0 0 0 0 0 0 0 0 0 0 0 0 0 0 0 0 127 0" result="hardAlpha" />
            <feOffset dx="1.09841" dy="1.4907" />
            <feGaussianBlur stdDeviation="0.549204" />
            <feColorMatrix type="matrix" values="0 0 0 0 0 0 0 0 0 0 0 0 0 0 0 0 0 0 0.05 0" />
            <feBlend mode="normal" in2="effect2_dropShadow_13838_46298"
                result="effect3_dropShadow_13838_46298" />
            <feColorMatrix in="SourceAlpha" type="matrix"
                values="0 0 0 0 0 0 0 0 0 0 0 0 0 0 0 0 0 0 127 0" result="hardAlpha" />
            <feOffset dx="1.96144" dy="2.62833" />
            <feGaussianBlur stdDeviation="2.5" />
            <feColorMatrix type="matrix" values="0 0 0 0 0 0 0 0 0 0 0 0 0 0 0 0 0 0 0.05 0" />
            <feBlend mode="normal" in2="effect3_dropShadow_13838_46298"
                result="effect4_dropShadow_13838_46298" />
            <feColorMatrix in="SourceAlpha" type="matrix"
                values="0 0 0 0 0 0 0 0 0 0 0 0 0 0 0 0 0 0 127 0" result="hardAlpha" />
            <feOffset dx="3.05985" dy="4.11903" />
            <feGaussianBlur stdDeviation="2.5" />
            <feColorMatrix type="matrix" values="0 0 0 0 0 0 0 0 0 0 0 0 0 0 0 0 0 0 0.03 0" />
            <feBlend mode="normal" in2="effect4_dropShadow_13838_46298"
                result="effect5_dropShadow_13838_46298" />
            <feBlend mode="normal" in="SourceGraphic" in2="effect5_dropShadow_13838_46298"
                result="shape" />
        </filter>
    </defs>
</svg>