<svg width="110" height="110" viewBox="0 0 110 110" fill="none" xmlns="http://www.w3.org/2000/svg">
    <g filter="url(#filter0_ddddd_13838_46379)">
        <path
            d="M82.2212 61.4256C82.8302 58.5727 83.0193 55.6461 82.7825 52.7386C82.632 51.2983 82.3795 49.8705 82.027 48.466C81.7158 47.0982 81.3162 45.7521 80.8307 44.4361C79.7878 41.6395 78.2088 39.0779 76.3794 36.7299C76.0958 36.3674 75.8026 36.012 75.4996 35.6637C75.4996 35.6637 75.0471 35.149 74.5752 34.6596C71.9481 31.9454 68.8226 29.7628 65.3696 28.2313C63.3691 27.3422 61.2773 26.6747 59.1316 26.2406C46.7546 23.7314 33.8999 29.5907 27.7357 40.5694C27.3473 41.2705 26.9899 41.9969 26.617 42.7057C26.5568 42.8203 26.5355 42.8572 26.5044 42.9135C26.2946 43.3019 25.6052 44.6614 24.8381 47.5881C24.8187 47.66 24.7953 47.7455 24.7681 47.8581C24.3257 49.5872 24.0397 51.3525 23.9136 53.1328C22.8843 69.025 34.2359 82.6352 50.1009 84.5268C64.9793 86.3097 79.143 76.1273 82.2212 61.4256ZM50.2504 63.9115C48.527 63.2927 47.0257 62.1769 45.9364 60.705C44.847 59.2332 44.2185 57.4714 44.1303 55.6424C44.042 53.8134 44.4981 51.9993 45.4407 50.4295C46.3833 48.8596 47.7702 47.6045 49.426 46.8227C51.0819 46.0409 52.9323 45.7676 54.7435 46.0373C56.5546 46.3071 58.2451 47.1077 59.6013 48.3381C60.9575 49.5684 61.9184 51.1733 62.3627 52.9497C62.807 54.7261 62.7146 56.5943 62.0972 58.3182C61.6883 59.4646 61.0571 60.5189 60.2399 61.4209C59.4227 62.3228 58.4355 63.0546 57.3349 63.5742C56.2343 64.0938 55.042 64.3911 53.8263 64.449C52.6106 64.5068 51.3954 64.3242 50.2504 63.9115Z"
            fill="white" stroke="white" stroke-width="10.0121" stroke-miterlimit="10" />
        <path
            d="M65.3698 28.2302C68.8228 29.7618 71.9483 31.9443 74.5754 34.6586C76.4031 36.5624 77.9746 38.6967 79.25 41.0073C79.619 41.6695 79.5763 41.9259 79.0169 42.46C78.3935 42.6386 78.0148 42.3706 77.7157 41.8249C76.2215 39.0702 74.2599 36.596 71.9186 34.5129C68.3043 31.3007 64.1502 29.1216 59.4173 28.104C59.3571 28.0625 59.2883 28.035 59.216 28.0236C59.1438 28.0121 59.0699 28.0171 58.9998 28.038L58.9726 28.0147C57.6892 27.6877 56.3734 27.5053 55.0495 27.4709C44.6917 27.1213 36.4773 31.1537 30.4063 39.5682C29.7205 40.5408 29.1139 41.5669 28.5923 42.6367C28.4739 42.8736 28.4214 43.0445 28.7497 43.1611C29.7829 43.5301 30.7286 44.0855 31.6978 44.5866L32.1211 44.8818C32.823 45.3759 33.3494 46.0805 33.6242 46.8937C33.899 47.7068 33.9079 48.5864 33.6496 49.4049C33.4418 50.0419 33.1815 50.6634 32.9834 51.3023C32.8009 51.885 32.4319 52.1471 31.8182 52.0792C31.1986 51.6461 31.1093 51.382 31.354 50.6847C31.5482 50.1021 31.7735 49.5389 31.9677 48.9621C32.327 47.8862 31.9541 46.8685 30.985 46.2432C30.0811 45.6684 29.1269 45.1769 28.134 44.7749C27.8019 44.6351 27.6446 44.6545 27.5009 45.0294C26.745 46.9221 26.2143 48.8972 25.92 50.9139C24.6434 60.4522 27.4329 68.6051 34.2885 75.3727C35.9916 77.0655 37.9489 78.4815 40.0896 79.5696L40.5343 79.7968C40.5906 79.8317 40.645 79.8686 40.6994 79.9055C43.3151 81.2974 46.1525 82.2246 49.0854 82.6458C60.9807 84.419 72.4177 78.6218 78.007 68.0257C78.3469 67.3829 78.3469 67.3829 77.6711 67.1129C76.9952 66.843 76.9991 66.8449 76.7505 67.5402C76.7097 67.649 76.6728 67.7577 76.6321 67.8665C76.0494 69.4202 74.5793 70.1853 73.0994 69.6823C71.6195 69.1793 70.9087 67.6315 71.4525 66.0234C71.637 65.4777 71.8409 64.9397 72.0351 64.394C72.2429 63.7822 72.0604 63.3472 71.5457 63.1783C71.0621 63.0171 70.6854 63.2404 70.4659 63.8424C70.0386 65.0077 69.625 66.1943 69.1977 67.3674C68.6151 68.9812 67.0614 69.7814 65.5854 69.2473C64.1094 68.7132 63.4336 67.111 64.0123 65.4971C64.4959 64.1376 65.0008 62.7898 65.4631 61.4187C65.935 60.0204 65.2941 58.3677 64.0764 57.7986C63.7937 58.7346 63.4305 59.6443 62.9908 60.5176C60.0271 65.969 52.8297 67.8781 47.6016 64.5435C44.0456 62.2752 42.3346 58.9697 42.3851 54.7631C42.3851 54.3747 42.29 54.2194 41.9384 54.1125C41.3558 53.9319 40.7732 53.7028 40.1906 53.4969C38.7437 52.9881 37.5474 53.5513 37.021 54.9981C36.5161 56.3887 36.0325 57.787 35.514 59.1717C35.3327 59.682 35.0261 60.1385 34.6222 60.4992C34.2184 60.86 33.7303 61.1134 33.2029 61.2362C31.5909 61.6673 30.179 60.9604 29.2274 59.2669C28.9946 58.5761 28.928 57.8402 29.0332 57.1189C29.2844 56.4211 29.5362 55.7232 29.7887 55.0253C30.0586 54.2815 30.2781 54.1378 31.0549 54.1922C31.6026 54.5437 31.6745 55.0078 31.4317 55.5866C31.2103 56.1168 31.0277 56.6645 30.8491 57.2121C30.5014 58.2531 30.9209 59.2183 31.8454 59.5232C32.7698 59.8281 33.6146 59.3601 33.9914 58.3211C34.4886 56.948 34.9624 55.5672 35.4771 54.2019C35.7948 53.3375 36.399 52.608 37.1891 52.1348C37.9792 51.6617 38.9076 51.4734 39.8196 51.6014C40.5654 51.7044 41.247 52.0481 41.9559 52.2909C42.6648 52.5336 42.6687 52.5453 42.9037 51.8228C45.3021 44.4428 54.3018 41.7608 60.2912 46.6588C63.0257 48.8941 64.3483 51.8384 64.3599 55.373C64.3599 55.6157 64.2706 55.8643 64.6105 56.0546C67.0459 57.4141 67.9023 59.7446 66.9701 62.3645C66.5118 63.6482 66.0399 64.9281 65.5912 66.2157C65.3776 66.8333 65.6262 67.4043 66.1583 67.6062C66.6904 67.8082 67.242 67.5227 67.5061 66.9304C67.5605 66.808 67.6013 66.6779 67.646 66.542C68.048 65.4214 68.4539 64.3008 68.852 63.1783C68.9739 62.8117 69.1726 62.4754 69.4346 62.1917C69.8235 61.7747 70.3407 61.5 70.9039 61.4112C71.4671 61.3225 72.0438 61.425 72.542 61.7023C73.0357 61.9697 73.4261 62.3941 73.6516 62.9083C73.877 63.4226 73.9246 63.9973 73.7869 64.5416C73.5927 65.2252 73.3305 65.8875 73.1071 66.5614C72.8683 67.278 73.0858 67.8257 73.6781 68.0238C74.2705 68.2219 74.756 67.9209 75.0104 67.2469C75.1463 66.8877 75.2609 66.5206 75.3988 66.1652C75.4743 65.946 75.5948 65.7449 75.7526 65.575C75.9104 65.4051 76.102 65.2701 76.3151 65.1786C76.5281 65.0872 76.758 65.0413 76.9898 65.044C77.2217 65.0467 77.4504 65.0978 77.6614 65.1942C78.0012 65.3301 78.345 65.4583 78.6693 65.6195C78.9936 65.7807 79.0966 65.67 79.2112 65.3728C79.782 63.9247 80.2277 62.4303 80.5434 60.906C81.6031 55.9227 81.2616 50.7432 79.5569 45.9421C79.349 45.3479 79.3471 44.8604 79.9045 44.4759C80.7357 44.4215 80.9066 44.5341 81.1785 45.3071C83.0131 50.4692 83.3715 56.0407 82.2136 61.3954C79.1354 76.0971 64.9717 86.2795 50.0933 84.5064C34.2283 82.6147 22.8768 69.0045 23.9061 53.1124C24.0321 51.332 24.3181 49.5667 24.7606 47.8376C24.7878 47.725 24.8111 47.6434 24.8305 47.5677C25.6073 44.6545 26.2871 43.2951 26.4968 42.8931C26.5279 42.8367 26.5493 42.7998 26.6075 42.6852C26.9824 41.9706 27.3339 41.2442 27.7281 40.5489C33.8923 29.5703 46.749 23.711 59.124 26.2202C61.2732 26.6599 63.3676 27.334 65.3698 28.2302ZM56.4925 46.4859C54.7685 45.8689 52.9003 45.7769 51.124 46.2215C49.3477 46.666 47.7431 47.6272 46.513 48.9836C45.2829 50.3399 44.4826 52.0305 44.2131 53.8416C43.9437 55.6528 44.2172 57.5032 44.9992 59.1588C45.7812 60.8145 47.0365 62.2012 48.6064 63.1436C50.1764 64.086 51.9904 64.5418 53.8194 64.4534C55.6483 64.365 57.41 63.7363 58.8817 62.6469C60.3534 61.5574 61.4691 60.0561 62.0877 58.3327C62.5024 57.1871 62.6865 55.9708 62.6295 54.7537C62.5725 53.5367 62.2754 52.3429 61.7555 51.241C61.2355 50.1392 60.5028 49.151 59.5996 48.3333C58.6964 47.5155 57.6405 46.8844 56.4925 46.4762V46.4859Z"
            fill="#040303" />
        <path
            d="M58.9725 28.0142L58.9997 28.0375C59.1318 28.1035 59.2619 28.187 59.4173 28.1035C64.1579 29.1212 68.3043 31.3002 71.9185 34.5124C74.2599 36.5956 76.2214 39.0697 77.7157 41.8244C78.0148 42.3702 78.3935 42.6382 79.0169 42.4595C79.3665 43.1179 79.7393 43.7685 79.9122 44.5045C79.3548 44.8929 79.3568 45.3765 79.5646 45.9708C81.268 50.7722 81.6082 55.9517 80.5473 60.9347C80.2315 62.4589 79.7858 63.9533 79.215 65.4015C79.1004 65.6986 78.98 65.7899 78.6731 65.6481C78.3663 65.5064 78.0051 65.3588 77.6652 65.2228C77.4543 65.1265 77.2255 65.0753 76.9937 65.0727C76.7618 65.07 76.532 65.1159 76.3189 65.2073C76.1058 65.2988 75.9142 65.4338 75.7564 65.6037C75.5986 65.7736 75.4781 65.9746 75.4027 66.1939C75.2589 66.5493 75.1444 66.9163 75.0142 67.2756C74.7598 67.9437 74.2374 68.2467 73.682 68.0524C73.1265 67.8582 72.8721 67.3067 73.111 66.5901C73.3343 65.9161 73.6043 65.2539 73.7907 64.5703C73.9285 64.026 73.8809 63.4512 73.6554 62.937C73.43 62.4228 73.0395 61.9984 72.5458 61.7309C72.0476 61.4537 71.471 61.3512 70.9078 61.4399C70.3446 61.5286 69.8273 61.8034 69.4385 62.2203C69.1764 62.5041 68.9778 62.8404 68.8558 63.2069C68.4674 64.3294 68.0518 65.45 67.6498 66.5706C67.6051 66.6969 67.5644 66.827 67.51 66.959C67.2458 67.5417 66.6826 67.833 66.1622 67.6349C65.6417 67.4368 65.3853 66.8581 65.5951 66.2444C66.0437 64.9567 66.5156 63.6769 66.974 62.3932C67.9062 59.7694 67.0497 57.4467 64.6143 56.0833C64.2744 55.8891 64.3657 55.6444 64.3638 55.4016C64.3521 51.867 63.0296 48.9228 60.2951 46.6874C54.3057 41.7895 45.306 44.4793 42.9075 51.8515C42.6764 52.5429 42.6764 52.5429 41.9617 52.2943C41.247 52.0457 40.5731 51.7116 39.8254 51.6048C38.9146 51.4787 37.9881 51.6679 37.1996 52.1409C36.4111 52.6139 35.8081 53.3424 35.4906 54.2053C34.976 55.5648 34.5021 56.9514 34.0049 58.3245C33.6282 59.3635 32.7853 59.8296 31.8589 59.5266C30.9325 59.2237 30.515 58.2565 30.8626 57.2156C31.0452 56.6679 31.2277 56.1202 31.4452 55.59C31.688 55.0074 31.6161 54.5471 31.0685 54.1956C31.3274 53.4887 31.5805 52.7824 31.8278 52.0768C32.4338 52.1467 32.7989 51.8825 32.9931 51.2999C33.1873 50.661 33.4514 50.0395 33.6592 49.4025C33.9175 48.5839 33.9087 47.7044 33.6339 46.8913C33.3591 46.0781 32.8327 45.3734 32.1308 44.8794L31.6977 44.5803C32.2263 43.4064 32.8484 42.277 33.5582 41.203C34.0865 40.4009 34.572 39.5541 35.3061 38.8977C35.0459 39.9056 35.0614 40.9466 34.9701 41.974C34.8459 43.3762 35.7606 44.5142 37.0773 44.6482C38.3941 44.7822 39.538 43.8054 39.6758 42.3818C39.7399 41.7157 39.7807 41.0457 39.839 40.3795C40.0332 38.1131 38.565 36.9342 36.4209 37.6392C36.4513 37.4882 36.5248 37.3492 36.6326 37.2391C37.6895 36.1012 38.8364 35.0503 40.0623 34.0968C42.6626 32.0953 45.5817 30.5464 48.6969 29.5154C51.0451 28.733 53.4871 28.2667 55.9584 28.1288C56.9566 28.0724 57.9684 28.1657 58.9725 28.0142ZM57.0304 31.1992C56.854 31.1405 56.6704 31.1065 56.4847 31.0982C55.2806 31.172 54.0726 31.2808 52.9209 31.6362C51.8606 31.9644 51.276 33.1025 51.4605 34.2075C51.645 35.3126 52.6005 36.2079 53.7424 36.1632C54.8521 36.1236 55.9541 35.9621 57.0285 35.6816C57.5018 35.5425 57.9169 35.2531 58.2112 34.8572C58.5055 34.4613 58.663 33.9803 58.6598 33.487C58.6628 32.9821 58.5063 32.4891 58.2127 32.0783C57.9191 31.6675 57.5033 31.3599 57.0246 31.1992H57.0304ZM65.9077 32.8675C64.1715 32.213 62.5091 33.353 62.544 35.0271C62.5705 35.9828 62.6477 36.9364 62.7751 37.8839C62.8617 38.4755 63.1705 39.0119 63.6386 39.3838C64.1068 39.7557 64.6991 39.9351 65.2949 39.8856C65.8907 39.8361 66.4453 39.5613 66.8457 39.1173C67.246 38.6732 67.462 38.0933 67.4498 37.4955C67.4148 36.5419 67.3371 35.5845 67.2148 34.6387C67.1724 34.2536 67.0286 33.8867 66.7979 33.5755C66.5672 33.2643 66.258 33.02 65.9019 32.8675H65.9077ZM43.7834 37.3654C43.7286 37.5299 43.696 37.701 43.6863 37.8742C43.7581 39.0802 43.8591 40.296 44.2242 41.4477C44.5699 42.5411 45.7313 43.1237 46.8577 42.9042C47.9841 42.6848 48.8289 41.6924 48.7474 40.5582C48.6685 39.5061 48.5173 38.4608 48.2949 37.4295C48.0793 36.4215 47.1296 35.7379 46.1003 35.7107C45.588 35.7026 45.0865 35.8589 44.6695 36.1567C44.2525 36.4545 43.9419 36.8781 43.7834 37.3654ZM71.0951 46.8137C71.5631 45.5047 71.1495 44.3686 70.1415 43.7529C69.6752 43.4745 69.1255 43.3699 68.5895 43.4577C68.0536 43.5455 67.5659 43.82 67.2128 44.2326C66.5858 44.9795 65.9966 45.7573 65.4475 46.5632C65.1457 47.0274 65.019 47.5839 65.0902 48.133C65.1614 48.682 65.4257 49.1879 65.8359 49.5598C66.671 50.3269 67.9916 50.4415 68.8442 49.6899C69.8308 48.8354 70.4989 47.7012 71.0951 46.8137ZM73.4547 58.0021C74.7307 58.4663 75.894 58.0526 76.4902 57.0602C76.7793 56.5903 76.8892 56.0318 76.7997 55.4874C76.7101 54.9429 76.4272 54.4491 76.0028 54.0965C75.2686 53.4848 74.4996 52.908 73.7072 52.37C73.2441 52.0674 72.689 51.938 72.1398 52.0044C71.5905 52.0708 71.0824 52.3289 70.7047 52.7332C69.9279 53.5586 69.8036 54.8811 70.5474 55.7434C71.4039 56.7242 72.5478 57.3826 73.4547 58.0021Z"
            fill="#E73D62" />
        <path
            d="M40.54 79.7923L40.0953 79.565C40.1536 79.3708 39.9865 79.299 39.872 79.2077C37.5891 77.3687 35.5876 75.2056 33.9311 72.7871C32.7153 71.0256 31.7948 69.1165 30.9636 67.155C30.1374 65.1362 29.5779 63.0183 29.2992 60.8549C29.2273 60.3363 28.9652 59.8042 29.2448 59.2662C30.1964 60.9597 31.6083 61.6667 33.2203 61.2355C33.7477 61.1127 34.2358 60.8593 34.6396 60.4986C35.0434 60.1378 35.3501 59.6813 35.5314 59.1711C36.0499 57.7863 36.5335 56.388 37.0384 54.9975C37.5647 53.5506 38.7611 52.9874 40.2079 53.4963C40.7906 53.7021 41.3596 53.9313 41.9558 54.1119C42.3073 54.2187 42.4083 54.3799 42.4025 54.7625C42.352 58.9691 44.063 62.2745 47.619 64.5429C52.8471 67.8775 60.0484 65.9684 63.0082 60.5169C63.4479 59.6437 63.8111 58.734 64.0938 57.798C65.3115 58.367 65.9524 60.0198 65.4804 61.4181C65.0182 62.7775 64.5094 64.137 64.0297 65.4965C63.4471 67.1201 64.121 68.7106 65.6028 69.2467C67.0846 69.7827 68.6247 68.9806 69.2151 67.3667C69.6424 66.2015 70.056 65.0148 70.4833 63.8418C70.7027 63.2398 71.0795 63.0164 71.5631 63.1776C72.0778 63.3466 72.2603 63.7816 72.0525 64.3934C71.8699 64.9391 71.6641 65.4771 71.4699 66.0228C70.9261 67.6308 71.6233 69.1709 73.1168 69.6817C74.6102 70.1925 76.0707 69.4273 76.6494 67.8658C76.6902 67.7571 76.7271 67.6483 76.7679 67.5396C77.0165 66.8443 77.0165 66.8443 77.6885 67.1123C78.3604 67.3803 78.3643 67.3823 78.0245 68.0251C72.4351 78.6212 60.9981 84.4183 49.1028 82.6452C46.1677 82.2234 43.3282 81.2948 40.711 79.901L40.54 79.7923Z"
            fill="#FBB63F" />
        <path
            d="M29.2387 59.2718C28.959 59.8098 29.2212 60.3419 29.2931 60.8604C29.5718 63.0239 30.1313 65.1418 30.9575 67.1606C31.7828 69.1163 32.7053 71.0254 33.925 72.7927C35.5815 75.2112 37.583 77.3742 39.8659 79.2132C39.9804 79.3045 40.1475 79.3686 40.0892 79.5706C37.9486 78.4826 35.9913 77.0665 34.2882 75.3737C27.4507 68.6139 24.6612 60.4591 25.9197 50.9091C26.214 48.8924 26.7446 46.9173 27.5005 45.0246C27.6442 44.6497 27.8016 44.6361 28.1337 44.7701C29.1293 45.173 30.0862 45.6657 30.9924 46.2423C30.1293 48.3647 29.5419 50.5891 29.2445 52.8609C29.0503 54.2689 28.8736 55.6925 29.0503 57.1335C28.9448 57.8512 29.0093 58.5836 29.2387 59.2718Z"
            fill="#FC9930" />
        <path
            d="M58.9727 28.0154C57.9686 28.1669 56.9568 28.0659 55.9508 28.13C53.4821 28.2686 51.0428 28.7349 48.697 29.5167C45.5821 30.5497 42.6637 32.1005 40.0644 34.1039C38.8385 35.0574 37.6916 36.1083 36.6347 37.2462C36.5269 37.3563 36.4534 37.4953 36.423 37.6463C35.9346 37.9457 35.5465 38.3838 35.3082 38.9048C34.5799 39.5612 34.0944 40.408 33.5603 41.21C32.8501 42.2821 32.2273 43.4096 31.6979 44.5815C30.7268 44.0805 29.783 43.525 28.7498 43.156C28.4215 43.0395 28.474 42.8686 28.5924 42.6317C29.114 41.5619 29.7206 40.5358 30.4064 39.5631C36.4657 31.1474 44.6801 27.115 55.0496 27.4658C56.3737 27.5022 57.6896 27.6865 58.9727 28.0154Z"
            fill="#E94C6E" />
        <path
            d="M29.045 57.1236C28.876 55.6922 29.0547 54.2687 29.2392 52.8509C29.5365 50.5791 30.1239 48.3547 30.9871 46.2323C31.9581 46.8576 32.3291 47.8753 31.9698 48.9512C31.7756 49.5338 31.558 50.099 31.3561 50.6738C31.1114 51.3711 31.2007 51.6449 31.8202 52.0683C31.5677 52.7752 31.3146 53.4815 31.0609 54.1871C30.284 54.1327 30.0646 54.2764 29.7946 55.0203C29.5434 55.7246 29.2936 56.4257 29.045 57.1236Z"
            fill="#FFB36E" />
        <path
            d="M59.4173 28.104C59.2619 28.1875 59.1318 28.104 58.9998 28.038C59.0699 28.0171 59.1438 28.0122 59.216 28.0236C59.2883 28.035 59.3571 28.0625 59.4173 28.104Z"
            fill="#FB636E" />
        <path
            d="M57.0246 31.201C57.5022 31.3626 57.9167 31.6707 58.2092 32.0814C58.5017 32.4921 58.6573 32.9845 58.654 33.4888C58.6571 33.9821 58.4997 34.463 58.2054 34.8589C57.9111 35.2548 57.4959 35.5442 57.0226 35.6833C55.9514 35.9631 54.8527 36.1246 53.7463 36.165C52.6043 36.2096 51.6547 35.3357 51.4643 34.2093C51.274 33.0829 51.8644 31.9661 52.9248 31.6379C54.0765 31.2825 55.2844 31.1738 56.4885 31.1C56.671 31.1092 56.8513 31.1431 57.0246 31.201ZM56.8847 33.6771C56.9231 33.5725 56.9331 33.4595 56.9138 33.3497C56.8946 33.2399 56.8466 33.1372 56.7749 33.0519C56.7032 32.9665 56.6102 32.9016 56.5053 32.8638C56.4005 32.8259 56.2875 32.8164 56.1778 32.8362C55.3602 32.9236 54.5464 33.0518 53.7346 33.1877C53.3462 33.2499 53.0957 33.479 53.1695 33.9063C53.2433 34.3336 53.5152 34.4889 53.9192 34.4346C54.7348 34.3239 55.5486 34.2034 56.3623 34.0811C56.4768 34.0644 56.585 34.0185 56.6766 33.9477C56.7681 33.8769 56.8398 33.7837 56.8847 33.6771Z"
            fill="#050302" />
        <path
            d="M65.9019 32.868C66.2555 33.0205 66.5627 33.2637 66.7922 33.573C67.0217 33.8823 67.1654 34.2467 67.2089 34.6294C67.3312 35.5752 67.4031 36.5327 67.4439 37.4863C67.4562 38.084 67.2401 38.664 66.8398 39.1081C66.4394 39.5521 65.8849 39.8269 65.289 39.8764C64.6932 39.9259 64.1009 39.7464 63.6327 39.3745C63.1646 39.0026 62.8558 38.4663 62.7692 37.8747C62.6418 36.9272 62.5646 35.9736 62.5381 35.0179C62.5032 33.3535 64.1656 32.2135 65.9019 32.868ZM65.7232 37.6028C65.6397 36.7114 65.6746 35.6918 65.4183 34.7052C65.3522 34.4547 65.0842 34.3459 64.8046 34.3886C64.5249 34.4314 64.2627 34.6139 64.2763 34.9033C64.319 35.8394 64.3967 36.7755 64.5016 37.7057C64.521 37.8425 64.5924 37.9665 64.7009 38.0518C64.8094 38.1372 64.9468 38.1774 65.0842 38.1641C65.3833 38.1718 65.5931 38.0087 65.7232 37.6028Z"
            fill="#040202" />
        <path
            d="M43.7834 37.3666C43.9419 36.8793 44.2525 36.4557 44.6695 36.1579C45.0865 35.8601 45.588 35.7038 46.1003 35.7119C47.1316 35.7391 48.0793 36.4227 48.2949 37.4307C48.5173 38.462 48.6685 39.5073 48.7474 40.5594C48.829 41.6936 47.9705 42.6957 46.8577 42.9054C45.7449 43.1152 44.5699 42.5423 44.2242 41.4489C43.8591 40.2972 43.7581 39.0814 43.6863 37.8754C43.696 37.7022 43.7286 37.5311 43.7834 37.3666ZM46.2557 37.4792C45.7799 37.3277 45.3623 37.687 45.4225 38.2172C45.5138 39.0174 45.6381 39.8136 45.7643 40.6079C45.8245 40.9963 46.0401 41.2585 46.4654 41.2042C46.8907 41.1498 47.0791 40.8507 47.0189 40.4273C46.9102 39.6505 46.7897 38.8736 46.681 38.0968C46.674 37.9646 46.6306 37.8369 46.5556 37.7279C46.4805 37.6189 46.3767 37.5328 46.2557 37.4792Z"
            fill="#040202" />
        <path
            d="M71.0951 46.8146C70.4988 47.7021 69.8308 48.8363 68.85 49.7005C67.9974 50.4521 66.6768 50.3375 65.8417 49.5704C65.4315 49.1985 65.1672 48.6927 65.096 48.1436C65.0248 47.5945 65.1515 47.038 65.4533 46.5738C66.0024 45.7679 66.5916 44.9901 67.2186 44.2432C67.5717 43.8306 68.0594 43.5561 68.5953 43.4683C69.1313 43.3805 69.681 43.4851 70.1473 43.7635C71.1494 44.3695 71.5631 45.5056 71.0951 46.8146ZM66.9137 47.4671C66.7564 47.8885 66.8205 48.143 67.0555 48.3236C67.2905 48.5042 67.6381 48.5508 67.8323 48.3003C68.415 47.572 68.9762 46.8185 69.5084 46.0494C69.7026 45.7794 69.5666 45.4842 69.3141 45.2881C69.2127 45.1941 69.0782 45.144 68.9399 45.1488C68.8017 45.1535 68.671 45.2127 68.5761 45.3133C67.9741 46.0474 67.4109 46.8185 66.9137 47.4671Z"
            fill="#040202" />
        <path
            d="M35.2964 38.9039C35.5347 38.383 35.9228 37.9448 36.4112 37.6455C38.5475 36.9405 40.0254 38.1193 39.8293 40.3858C39.771 41.0519 39.7302 41.7219 39.6661 42.3881C39.5283 43.8116 38.4018 44.7904 37.0676 44.6545C35.7334 44.5185 34.8362 43.3824 34.9605 41.9802C35.0556 40.9528 35.0401 39.9197 35.2964 38.9039ZM37.9357 42.4191C37.994 41.5568 38.0853 40.6052 38.1086 39.6516C38.1086 39.3428 37.8522 39.1409 37.526 39.1467C37.379 39.132 37.2322 39.1761 37.1176 39.2692C37.003 39.3623 36.9299 39.497 36.9142 39.6439C36.8171 40.5372 36.7426 41.4325 36.6909 42.3298C36.6714 42.6619 36.9025 42.8542 37.221 42.9124C37.5395 42.9707 37.7571 42.794 37.9396 42.4191H37.9357Z"
            fill="#040202" />
        <path
            d="M73.4548 58.0035C72.5479 57.384 71.404 56.7256 70.5417 55.7371C69.7979 54.8748 69.9241 53.5522 70.699 52.7268C71.0767 52.3226 71.5848 52.0645 72.1341 51.998C72.6833 51.9316 73.2383 52.0611 73.7015 52.3637C74.4939 52.9016 75.2552 53.4784 75.9971 54.0902C76.4234 54.4431 76.7077 54.9384 76.7973 55.4846C76.8869 56.0308 76.7758 56.5909 76.4845 57.0616C75.8864 58.054 74.7308 58.4677 73.4548 58.0035ZM74.1152 56.4129C74.5347 56.5469 74.7949 56.479 74.9813 56.2187C75.071 56.1148 75.1167 55.98 75.1087 55.843C75.1007 55.706 75.0397 55.5774 74.9386 55.4846C74.2326 54.8693 73.4815 54.3077 72.6916 53.8047C72.5761 53.7295 72.4361 53.7019 72.3007 53.7276C72.1654 53.7533 72.0452 53.8303 71.9653 53.9426C71.7711 54.1873 71.6934 54.5252 71.9439 54.7194C72.6741 55.3292 73.4451 55.8944 74.1152 56.4129Z"
            fill="#040202" />
        <path
            d="M56.8844 33.6763C56.8394 33.7829 56.7677 33.8761 56.6762 33.9469C56.5847 34.0176 56.4764 34.0636 56.362 34.0802C55.5482 34.2026 54.7345 34.323 53.9188 34.4337C53.5149 34.4881 53.2391 34.3152 53.1692 33.9055C53.0993 33.4957 53.3498 33.249 53.7343 33.1869C54.5461 33.0509 55.3598 32.9228 56.1775 32.8354C56.2872 32.8156 56.4002 32.8251 56.505 32.8629C56.6098 32.9008 56.7028 32.9657 56.7746 33.051C56.8463 33.1363 56.8942 33.2391 56.9135 33.3489C56.9328 33.4587 56.9227 33.5716 56.8844 33.6763Z"
            fill="#FAB23F" />
        <path
            d="M65.7233 37.604C65.5893 38.0099 65.3834 38.1633 65.0843 38.1652C64.9469 38.1786 64.8096 38.1384 64.701 38.053C64.5925 37.9676 64.5211 37.8436 64.5017 37.7069C64.3968 36.7766 64.3191 35.8405 64.2764 34.9044C64.2628 34.6151 64.5075 34.4345 64.8047 34.3898C65.1018 34.3451 65.3523 34.4558 65.4184 34.7064C65.6747 35.6929 65.6398 36.7125 65.7233 37.604Z"
            fill="#4BC66A" />
        <path
            d="M46.2557 37.4787C46.3755 37.5317 46.4786 37.6166 46.5536 37.7241C46.6286 37.8316 46.6726 37.9577 46.681 38.0885C46.7897 38.8653 46.9101 39.6422 47.0189 40.419C47.0791 40.8482 46.9082 41.1434 46.4654 41.1958C46.0226 41.2483 45.8245 40.9822 45.7643 40.5996C45.6381 39.8053 45.5138 39.009 45.4225 38.2089C45.3623 37.6865 45.7837 37.3272 46.2557 37.4787Z"
            fill="#69B4F9" />
        <path
            d="M66.9137 47.4666C67.4108 46.818 67.974 46.047 68.5839 45.3129C68.6787 45.2122 68.8094 45.153 68.9477 45.1483C69.0859 45.1436 69.2204 45.1936 69.3219 45.2876C69.5743 45.4818 69.7103 45.7789 69.5161 46.0489C68.9839 46.8257 68.4266 47.5715 67.84 48.2998C67.6458 48.5503 67.3118 48.5193 67.0632 48.3231C66.8146 48.1269 66.7583 47.8822 66.9137 47.4666Z"
            fill="#FDF9FA" />
        <path
            d="M37.9394 42.4189C37.7568 42.7937 37.551 42.9705 37.215 42.9103C36.879 42.8501 36.6654 42.6617 36.6848 42.3276C36.7353 41.4304 36.8098 40.5351 36.9081 39.6417C36.9238 39.4949 36.9969 39.3602 37.1116 39.267C37.2262 39.1739 37.373 39.1299 37.5199 39.1445C37.8559 39.1445 38.122 39.3387 38.1025 39.6495C38.0889 40.605 37.9977 41.5566 37.9394 42.4189Z"
            fill="#4BC66A" />
        <path
            d="M74.1151 56.4115C73.4451 55.8929 72.6741 55.3278 71.9438 54.716C71.6933 54.5082 71.7671 54.1761 71.9652 53.9392C72.0451 53.827 72.1653 53.7499 72.3007 53.7242C72.436 53.6986 72.5761 53.7262 72.6915 53.8013C73.4815 54.3043 74.2326 54.8659 74.9386 55.4812C75.0397 55.574 75.1007 55.7026 75.1086 55.8396C75.1166 55.9766 75.0709 56.1114 74.9813 56.2153C74.7948 56.4775 74.5268 56.5455 74.1151 56.4115Z"
            fill="#F979A8" />
    </g>
    <defs>
        <filter id="filter0_ddddd_13838_46379" x="0.842529" y="0.815622" width="109.045"
            height="109.077" filterUnits="userSpaceOnUse" color-interpolation-filters="sRGB">
            <feFlood flood-opacity="0" result="BackgroundImageFix" />
            <feColorMatrix in="SourceAlpha" type="matrix"
                values="0 0 0 0 0 0 0 0 0 0 0 0 0 0 0 0 0 0 127 0" result="hardAlpha" />
            <feOffset dx="2" dy="0.156915" />
            <feGaussianBlur stdDeviation="10" />
            <feColorMatrix type="matrix" values="0 0 0 0 0 0 0 0 0 0 0 0 0 0 0 0 0 0 0.1 0" />
            <feBlend mode="normal" in2="BackgroundImageFix" result="effect1_dropShadow_13838_46379" />
            <feColorMatrix in="SourceAlpha" type="matrix"
                values="0 0 0 0 0 0 0 0 0 0 0 0 0 0 0 0 0 0 127 0" result="hardAlpha" />
            <feOffset dx="0.509975" dy="0.66689" />
            <feGaussianBlur stdDeviation="0.411903" />
            <feColorMatrix type="matrix" values="0 0 0 0 0 0 0 0 0 0 0 0 0 0 0 0 0 0 0.09 0" />
            <feBlend mode="normal" in2="effect1_dropShadow_13838_46379"
                result="effect2_dropShadow_13838_46379" />
            <feColorMatrix in="SourceAlpha" type="matrix"
                values="0 0 0 0 0 0 0 0 0 0 0 0 0 0 0 0 0 0 127 0" result="hardAlpha" />
            <feOffset dx="1.09841" dy="1.4907" />
            <feGaussianBlur stdDeviation="0.549204" />
            <feColorMatrix type="matrix" values="0 0 0 0 0 0 0 0 0 0 0 0 0 0 0 0 0 0 0.05 0" />
            <feBlend mode="normal" in2="effect2_dropShadow_13838_46379"
                result="effect3_dropShadow_13838_46379" />
            <feColorMatrix in="SourceAlpha" type="matrix"
                values="0 0 0 0 0 0 0 0 0 0 0 0 0 0 0 0 0 0 127 0" result="hardAlpha" />
            <feOffset dx="1.96144" dy="2.62833" />
            <feGaussianBlur stdDeviation="2.5" />
            <feColorMatrix type="matrix" values="0 0 0 0 0 0 0 0 0 0 0 0 0 0 0 0 0 0 0.05 0" />
            <feBlend mode="normal" in2="effect3_dropShadow_13838_46379"
                result="effect4_dropShadow_13838_46379" />
            <feColorMatrix in="SourceAlpha" type="matrix"
                values="0 0 0 0 0 0 0 0 0 0 0 0 0 0 0 0 0 0 127 0" result="hardAlpha" />
            <feOffset dx="3.05985" dy="4.11903" />
            <feGaussianBlur stdDeviation="2.5" />
            <feColorMatrix type="matrix" values="0 0 0 0 0 0 0 0 0 0 0 0 0 0 0 0 0 0 0.03 0" />
            <feBlend mode="normal" in2="effect4_dropShadow_13838_46379"
                result="effect5_dropShadow_13838_46379" />
            <feBlend mode="normal" in="SourceGraphic" in2="effect5_dropShadow_13838_46379"
                result="shape" />
        </filter>
    </defs>
</svg>