<svg width="62" height="91" viewBox="0 0 62 91" fill="none" xmlns="http://www.w3.org/2000/svg">
<g clip-path="url(#clip0_13426_5675)">
<path d="M31.2964 89.8367L31.2968 89.9291L31.2955 89.8367C25.0225 89.9279 18.8698 87.8349 14.1557 83.7316L13.7013 84.2536L14.1557 83.7315C8.16803 78.5201 3.74026 71.5058 1.81362 63.8109L1.81357 63.8107C-0.783731 53.448 1.2062 42.0411 7.0225 33.0964C6.04464 40.4041 9.83093 48.3008 16.441 51.7287L17.6477 52.3545L17.4439 51.0106C14.5894 32.1859 24.4948 12.1729 40.8666 2.61509C31.5851 13.6201 30.5355 31.1478 39.0933 42.8823L40.0329 44.1707L40.3323 42.6044C41.8944 34.4322 48.0187 27.3019 55.7937 24.3932C52.4311 30.9644 53.8585 39.1593 56.0526 46.0596C56.4378 47.271 56.8421 48.4751 57.2457 49.6766C58.1009 52.2232 58.9523 54.7583 59.609 57.3272C60.5702 61.0873 61.0865 64.8293 60.5501 68.5813C59.6309 75.0098 55.6562 80.2878 50.2134 83.9883C44.7678 87.6907 37.8952 89.7806 31.2964 89.8367Z" fill="#FFADE3" stroke="#26103D" stroke-width="1.38422"/>
<path d="M42.4953 88.2383L42.4959 88.2417C38.3991 89.7759 33.9211 89.9623 29.9622 88.6144C24.9021 86.8904 20.492 83.7179 17.5758 79.5632C13.8019 74.1819 12.5825 67.2183 14.1636 60.6993C15.4419 65.1112 19.5722 68.6474 24.4614 69.1309L25.7792 69.2612L25.1339 68.1049C19.4031 57.8353 21.2209 44.0438 29.2134 34.4314C26.2157 43.1688 29.4591 53.4288 37.4094 58.3454L38.6646 59.1216L38.4588 57.6603C37.7473 52.6079 40.0139 47.0997 44.2078 43.5051C43.7184 48.1899 46.4134 52.6673 49.2476 56.1797C49.7727 56.8305 50.306 57.4685 50.8363 58.103C51.9534 59.4395 53.0576 60.7605 54.046 62.1538C55.4903 64.1896 56.6234 66.2984 57.0766 68.6458C57.8515 72.6604 56.4174 76.7356 53.6479 80.2473C50.8792 83.7581 46.8194 86.643 42.4953 88.2383Z" fill="#5C59ED" stroke="#26103D" stroke-width="1.38422"/>
</g>
<defs>
<clipPath id="clip0_13426_5675">
<rect width="61.4594" height="90.5281" fill="white"/>
</clipPath>
</defs>
</svg>
