<svg width="124" height="101" viewBox="0 0 124 101" fill="none" xmlns="http://www.w3.org/2000/svg">
    <g filter="url(#filter0_ddddd_13838_46209)">
        <path
            d="M96.5458 52.0196C96.5458 50.2576 95.9697 49.6609 94.2077 49.6927C93.6747 49.7021 93.4296 49.53 93.2089 49.0474C91.1627 44.5752 89.094 40.1161 87.0159 35.6533V35.6308C86.3289 34.1607 85.643 32.6899 84.9585 31.2185C84.9153 31.0943 84.8653 30.9725 84.8088 30.8538C84.5039 30.1879 84.2159 29.5127 83.8736 28.8674C81.7189 24.8123 76.2647 23.8172 72.8904 26.9034C71.265 28.3998 69.7294 29.9803 68.2144 31.5795C67.5965 32.2335 67.2554 33.1011 67.2623 34.0008C67.2693 34.9005 67.6238 35.7627 68.2518 36.4071C68.8792 37.0614 69.733 37.4513 70.6384 37.4969C71.5438 37.5424 72.4324 37.2402 73.1224 36.6521C73.6068 36.2369 74.0445 35.7655 74.4971 35.3129C75.5109 34.2991 76.521 33.2816 77.5908 32.2061C79.8073 36.9981 81.9789 41.6873 84.1748 46.4326C84.0132 46.4299 83.852 46.4168 83.6922 46.3933C78.3895 45.2149 73.1205 45.3777 67.859 46.6944C65.4835 47.2874 63.4747 48.3348 62.287 50.5793C62.1186 50.8973 61.9129 50.8748 61.6454 50.8468C60.6321 50.7271 59.6081 50.7271 58.5947 50.8468C58.4482 50.8834 58.2934 50.8656 58.1589 50.7969C58.0245 50.7281 57.9195 50.6129 57.8634 50.4727C56.8646 48.6509 55.3159 47.538 53.3314 46.9713C51.4025 46.4135 49.4305 46.0181 47.4358 45.7892C46.4181 45.6584 45.3941 45.5841 44.3683 45.5666C43.2642 45.5462 42.1599 45.5924 41.0613 45.705C40.0658 45.7754 39.0748 45.9003 38.093 46.0791C37.4346 46.2063 36.7724 46.3166 36.0355 46.4532L42.6344 32.1874C43.3975 32.9674 44.0877 33.6837 44.7872 34.3889C45.4868 35.094 46.2106 35.8534 46.9588 36.5436C47.6393 37.185 48.5452 37.5322 49.48 37.5102C50.4149 37.4881 51.3033 37.0985 51.9528 36.4258C52.5994 35.7647 52.9599 34.8758 52.9564 33.9511C52.9529 33.0264 52.5857 32.1403 51.9341 31.4841C50.4659 29.969 48.9751 28.4727 47.4451 27.0119C46.7847 26.357 45.9935 25.8487 45.1233 25.5203C44.2531 25.1918 43.3234 25.0507 42.3949 25.1059C39.4023 25.2612 37.2849 26.7594 36.0355 29.4827C33.0179 36.008 30.0027 42.5315 26.9901 49.0531C26.7656 49.5394 26.5169 49.7545 25.9875 49.6834C24.8915 49.5319 24.1171 49.9864 23.657 50.9927V59.0973C24.3565 60.5936 25.5742 61.0743 27.1379 60.9303C27.5381 60.8929 27.9459 60.9452 28.348 60.9172C28.6828 60.8947 28.7745 61.0145 28.8156 61.3437C28.9078 62.072 29.0415 62.7946 29.2159 63.5077C31.0863 70.9221 38.4727 75.8825 45.917 74.7303C53.4361 73.5688 58.7762 67.3047 58.8024 59.621C58.8024 57.9526 58.9894 57.7917 60.6859 57.9974C60.7776 58.0204 60.8707 58.0373 60.9646 58.048C61.3387 58.048 61.4135 58.25 61.406 58.5866C61.3679 59.8435 61.45 61.1012 61.651 62.3425C63.1623 71.5169 72.8736 77.2386 81.5674 73.9522C87.2946 71.79 90.5454 67.5198 91.3871 61.4521C91.447 61.0201 91.5517 60.891 91.9744 60.9153C92.6141 60.949 93.2557 60.9378 93.8954 60.9153C95.5152 60.8704 96.5383 59.823 96.5439 58.2032C96.5514 56.1476 96.5458 54.0826 96.5458 52.0196Z"
            fill="white" stroke="white" stroke-width="10.0121" stroke-miterlimit="10" />
        <path
            d="M28.9208 51.8302C28.4532 53.9718 28.6926 56.0686 28.6571 58.1523C28.6571 58.6685 28.543 58.8873 27.9875 58.8368C27.4418 58.8057 26.8949 58.8025 26.349 58.8275C25.9169 58.8275 25.6906 58.6722 25.6924 58.199C25.7055 56.2276 25.6924 54.2543 25.6924 52.281C25.6924 52.0303 25.6793 51.8171 26.0441 51.8246C26.9943 51.8414 27.9407 51.8302 28.9208 51.8302Z"
            fill="#00EEF0" />
        <path
            d="M94.5111 55.2863C94.5111 56.2383 94.498 57.1904 94.5111 58.1424C94.5223 58.6325 94.3128 58.8382 93.834 58.8289C93.2729 58.8177 92.6912 58.8027 92.1207 58.8289C91.683 58.8532 91.5408 58.6961 91.5483 58.2678C91.5708 56.9585 91.5633 55.6492 91.5483 54.3399C91.5551 53.8399 91.5288 53.34 91.4698 52.8435C91.3239 51.826 91.3052 51.8279 92.362 51.8279C92.8606 51.8503 93.3601 51.8465 93.8583 51.8166C94.4194 51.7587 94.5335 51.9925 94.5111 52.5012C94.483 53.429 94.5111 54.3586 94.5111 55.2863Z"
            fill="#00EEF0" />
        <path
            d="M45.7374 46.7127C46.0685 45.8561 46.3865 45.6896 47.3123 45.7906C49.3416 46.0172 51.3478 46.4171 53.3089 46.9858C55.2972 47.5469 56.8515 48.6692 57.8541 50.4966C57.9102 50.6368 58.0152 50.752 58.1496 50.8207C58.2841 50.8895 58.4389 50.9073 58.5854 50.8707C59.6019 50.75 60.629 50.75 61.6455 50.8707C61.9092 50.8987 62.1205 50.9212 62.2889 50.6032C63.4803 48.3587 65.4948 47.3019 67.8777 46.7052C73.1542 45.3866 78.4382 45.222 83.7558 46.4041C83.8982 46.426 84.042 46.4379 84.186 46.4396C83.9354 45.7289 77.9631 32.8341 77.5927 32.2244C76.564 33.2568 75.5521 34.2818 74.5346 35.2956C74.0801 35.7483 73.6424 36.2215 73.1561 36.6386C72.4618 37.2316 71.5659 37.5346 70.6542 37.4848C69.7424 37.435 68.8849 37.0362 68.2593 36.3711C67.6295 35.7247 67.274 34.8598 67.267 33.9574C67.26 33.0549 67.6022 32.1847 68.2219 31.5286C69.75 29.9312 71.2894 28.3357 72.9185 26.8525C76.304 23.7532 81.7731 24.7539 83.9354 28.8221C84.2795 29.4692 84.5694 30.1463 84.8706 30.8159C85.2447 31.6483 85.1886 31.9176 84.4965 32.5498C83.724 32.7369 83.2171 32.4413 82.9253 31.7006C82.7271 31.1938 82.4764 30.7056 82.2389 30.2043C80.621 26.8375 76.665 26.1455 73.9996 28.7585C72.6754 30.0565 71.381 31.3771 70.0717 32.6864C69.288 33.4757 69.2207 34.3062 69.8847 34.9309C70.4945 35.5182 71.3474 35.4359 72.0843 34.7046C73.3338 33.4645 74.5739 32.2169 75.8252 30.9637C77.3571 29.4356 78.902 29.7143 79.8167 31.6894C82.1111 36.6423 84.4005 41.5977 86.6849 46.5556C86.7674 46.7743 86.8925 46.9744 87.0531 47.1443C87.2136 47.3142 87.4064 47.4504 87.6201 47.5451C88.4382 47.8845 89.1551 48.4288 89.7019 49.1256C90.1171 49.6717 90.5866 49.754 91.2263 49.6081C91.1234 49.3631 91.0393 49.1237 90.9233 48.8899L85.211 36.5451C84.7958 35.6454 84.8519 35.376 85.5682 34.7494C86.4885 34.626 86.7354 34.7494 87.1263 35.5949C89.1838 40.0259 91.2413 44.4551 93.2688 48.8974C93.5269 49.4585 93.8112 49.7148 94.4752 49.6811C95.7677 49.6175 96.2204 49.9617 96.6805 51.1157V59.1137C95.9323 60.7634 94.5388 61.0514 92.9078 60.9598C91.5985 60.885 91.5854 60.9448 91.4115 62.2261C90.5773 68.3255 85.37 73.6787 79.2986 74.6794C70.6796 76.1009 63.0109 70.5644 61.608 61.9081C61.4397 60.8251 61.3852 59.7274 61.4453 58.633C61.4621 58.2589 61.3611 58.055 60.9646 58.0531C60.8711 58.0531 60.7776 58.0157 60.684 58.0064C59.0007 57.8193 58.8361 57.9634 58.8323 59.6037C58.8117 67.3398 53.3894 73.6993 45.8759 74.7954C38.1323 75.927 30.5888 70.6299 29.0139 62.9537C28.9746 62.7666 28.9279 62.5796 28.8961 62.3925C28.8175 61.9287 28.8961 61.304 28.6305 61.0402C28.3144 60.7316 27.684 60.9673 27.1903 60.943C26.8573 60.928 26.5244 60.943 26.1914 60.943C24.6091 60.8794 23.5915 59.8319 23.5859 58.2458C23.5785 56.0574 23.5785 53.8684 23.5859 51.6787C23.5859 50.3582 24.2873 49.6212 25.6172 49.6886C26.4252 49.7353 26.7544 49.4305 27.0724 48.7347C30.0127 42.3091 32.9774 35.8948 35.9663 29.4917C38.2782 24.5051 44.0092 23.4857 47.9015 27.3669C49.1996 28.6593 50.4977 29.9499 51.7864 31.2536C53.3071 32.793 53.3576 34.972 51.9173 36.416C50.4771 37.86 48.2812 37.8076 46.7512 36.3056C45.3914 34.9739 44.0503 33.6235 42.7017 32.2824C42.6599 32.2576 42.6161 32.2364 42.5708 32.2188L35.985 46.434C36.7332 46.3012 37.3916 46.1927 38.0425 46.0599C39.3767 45.8255 40.7241 45.6737 42.077 45.6054C42.8252 45.5568 43.2292 45.9477 43.3676 46.6566C43.1076 47.5638 42.9393 47.7115 41.8189 47.7789C39.3019 47.9116 36.8118 48.3629 34.4082 49.1218C32.4237 49.7559 31.0658 51.1325 30.9068 53.2012C30.6861 56.0854 30.587 58.9996 31.0078 61.8875C31.8701 67.77 36.8548 72.2703 42.9655 72.7753C48.588 73.2429 54.1562 69.4721 55.9986 63.9843C56.6383 62.0783 56.7094 60.1181 56.6869 58.1392C56.6738 56.8916 57.1433 56.3174 58.3703 56.0387C59.603 55.7504 60.8877 55.7696 62.1112 56.0948C63.0782 56.351 63.557 56.9421 63.5776 57.9278C63.5926 58.618 63.5589 59.3101 63.5926 59.9984C63.817 64.5809 65.7922 68.2114 69.6303 70.7403C72.1068 72.3713 74.8544 73.0727 77.834 72.678C78.0212 72.6825 78.2085 72.6768 78.3951 72.6612C83.767 71.9822 88.4674 67.424 89.253 62.0503C89.6608 59.2633 89.4625 56.4483 89.4064 53.6501C89.3596 51.2448 87.5359 49.3482 85.1137 48.9554C85.0096 48.9035 84.9021 48.8585 84.792 48.8207C79.2563 47.3252 73.4192 47.3536 67.8983 48.903C66.1214 49.3893 64.7653 50.2983 63.9704 52.006C63.5683 52.872 62.8874 53.1694 61.9129 53.0292C60.7342 52.8616 59.5378 52.8616 58.3591 53.0292C57.3229 53.1751 56.6907 52.8646 56.2268 51.9069C55.4786 50.3694 54.2722 49.4454 52.6468 48.9946C50.7974 48.4684 48.9064 48.1017 46.9944 47.8986C46.2088 47.8387 45.8029 47.4702 45.7374 46.7127ZM28.9896 49.6362C29.6798 49.784 30.1549 49.6493 30.5795 49.0975C31.116 48.4221 31.8166 47.8953 32.6145 47.5675C32.8281 47.4737 33.0209 47.3382 33.1815 47.169C33.3421 46.9997 33.4673 46.8001 33.5497 46.5818C35.8528 41.5765 38.1647 36.5762 40.4853 31.5809C41.3176 29.7853 42.9168 29.4992 44.3122 30.8889C45.5953 32.1633 46.8747 33.4414 48.1503 34.7233C48.4028 34.9776 48.6591 35.2302 49.0313 35.2937C49.6766 35.4022 50.2115 35.2302 50.5669 34.6503C50.9223 34.0705 50.8549 33.4121 50.2882 32.836C48.9789 31.5136 47.6696 30.2062 46.3603 28.8969C43.5303 26.08 39.5575 26.7926 37.8741 30.4213C35.5374 35.4615 33.2031 40.5035 30.8713 45.5474C30.2409 46.8998 29.6218 48.2483 28.9896 49.6362ZM28.9204 51.8302C27.9403 51.8302 26.9939 51.8414 26.0474 51.8302C25.6827 51.8302 25.6958 52.036 25.6958 52.2866C25.6958 54.2599 25.7051 56.2332 25.6958 58.2046C25.6958 58.6779 25.9202 58.8387 26.3523 58.8331C26.8983 58.8082 27.4452 58.8113 27.9908 58.8425C28.5519 58.893 28.6511 58.6741 28.6604 58.1579C28.6922 56.0686 28.4528 53.9719 28.9204 51.8302ZM94.5108 55.2868C94.5108 54.3516 94.4827 53.4294 94.522 52.5036C94.5444 51.9948 94.436 51.7554 93.8692 51.819C93.371 51.8489 92.8715 51.8526 92.3729 51.8302C91.3161 51.8302 91.3348 51.8302 91.4807 52.8459C91.5398 53.3424 91.566 53.8422 91.5592 54.3422C91.5705 55.6515 91.5779 56.9608 91.5592 58.2701C91.5592 58.7059 91.6939 58.863 92.1316 58.8312C92.6927 58.7994 93.2744 58.8144 93.8449 58.8312C94.3237 58.8406 94.5332 58.6348 94.522 58.1448C94.4977 57.1909 94.5108 56.2388 94.5108 55.2868Z"
            fill="#040403" />
        <path
            d="M77.7987 72.7033C74.8191 73.098 72.0714 72.3966 69.595 70.7655C65.7569 68.2367 63.7817 64.6062 63.5572 60.0237C63.5236 59.3353 63.5573 58.6433 63.5423 57.9531C63.5217 56.9674 63.0429 56.3763 62.0759 56.1201C60.8524 55.7949 59.5677 55.7756 58.335 56.064C57.1155 56.3427 56.6516 56.9169 56.6516 58.1645C56.6741 60.1434 56.603 62.1036 55.9633 64.0096C54.1209 69.5011 48.5527 73.2719 42.9301 72.8006C36.8195 72.2956 31.8348 67.7953 30.9725 61.9128C30.5516 59.0305 30.6508 56.1145 30.8715 53.2265C31.0305 51.1578 32.3884 49.7812 34.3729 49.1471C36.7765 48.3882 39.2665 47.9369 41.7836 47.8041C42.9058 47.7424 43.0723 47.5947 43.3323 46.6819L45.7264 46.7043C45.7919 47.4619 46.1978 47.8266 46.9628 47.907C48.8748 48.1102 50.7659 48.4769 52.6152 49.0031C54.2406 49.4539 55.4527 50.3779 56.1952 51.9154C56.6591 52.8786 57.2913 53.1891 58.3275 53.0376C59.5062 52.87 60.7027 52.87 61.8813 53.0376C62.854 53.1779 63.5348 52.8805 63.9388 52.0145C64.7337 50.3068 66.0898 49.3959 67.8667 48.9114C73.3876 47.362 79.2247 47.3336 84.7604 48.8291C84.8705 48.8669 84.978 48.9119 85.0822 48.9638C85.2692 49.2837 85.4899 49.5941 85.6583 49.9271C86.2362 51.0662 86.6776 52.2408 86.4382 53.5576C86.1764 52.6224 85.546 52.0986 84.6239 51.8424C82.7294 51.3042 80.7878 50.9485 78.8256 50.78C75.1982 50.4809 71.5471 50.8841 68.0725 51.9677C67.0793 52.2763 66.5555 53.0096 66.5275 54.0345C66.5163 54.4086 66.5275 54.7939 66.5275 55.1755C66.5275 55.8638 66.8604 56.2716 67.5282 56.4156C67.5282 57.2137 67.5282 58.013 67.5282 58.8135C66.78 58.9351 66.477 59.3971 66.5312 60.1228C66.5686 60.6428 66.6023 61.1665 66.6846 61.679C67.5169 66.847 72.7411 70.5879 77.9072 69.763C81.173 69.2411 83.5746 67.4998 85.258 64.6997C85.4338 64.8737 85.3384 65.0439 85.258 65.2178C84.2371 67.4167 82.7166 69.3465 80.8176 70.8535C79.8805 71.5885 78.805 72.0805 77.7987 72.7033ZM53.687 57.5229C53.687 56.2604 53.687 55.2129 53.687 54.1674C53.6776 52.9983 53.1726 52.2707 52.0616 51.9397C46.616 50.274 40.7968 50.274 35.3512 51.9397C34.3467 52.2389 33.7426 52.9403 33.7388 53.9635C33.7388 56.3165 33.5742 58.677 33.8193 61.0225C34.3112 65.7378 38.2877 69.5554 42.9358 69.8359C47.8943 70.1352 52.2542 66.9723 53.4102 62.2738C53.8086 60.6316 53.6365 58.965 53.687 57.5229Z"
            fill="#F85094" />
        <path
            d="M85.5403 34.7821C84.8239 35.4086 84.7678 35.678 85.1831 36.5777L90.8954 48.9225C91.002 49.1563 91.0955 49.3957 91.1984 49.6408C90.5587 49.7866 90.0892 49.7043 89.674 49.1582C89.1272 48.4614 88.4102 47.9171 87.5922 47.5777C87.3785 47.483 87.1857 47.3468 87.0251 47.1769C86.8646 47.007 86.7394 46.8069 86.657 46.5882C84.3763 41.6303 82.0869 36.6749 79.7887 31.722C78.8741 29.7469 77.3291 29.4682 75.7972 30.9963C74.5515 32.2401 73.3114 33.4877 72.0564 34.7372C71.3194 35.4685 70.4665 35.5508 69.8568 34.9635C69.2021 34.3332 69.2694 33.5027 70.0438 32.719C71.3531 31.4097 72.6624 30.0854 73.9717 28.7911C76.6371 26.1725 80.593 26.8776 82.211 30.2369C82.4485 30.7288 82.6991 31.217 82.8974 31.7333C83.1892 32.4814 83.6961 32.762 84.4686 32.5824L85.5403 34.7821Z"
            fill="#00EEF0" />
        <path
            d="M28.9897 49.6356C29.622 48.2552 30.2411 46.8992 30.8602 45.5468C33.192 40.5042 35.5263 35.4621 37.8631 30.4207C39.5465 26.792 43.5192 26.0794 46.3492 28.8963C47.6585 30.2056 48.9809 31.5149 50.2771 32.8354C50.8382 33.4115 50.9261 34.0474 50.5558 34.6497C50.1855 35.252 49.6655 35.3979 49.0202 35.2931C48.6461 35.2295 48.3917 34.977 48.1392 34.7227C46.8598 33.4433 45.5805 32.1652 44.3011 30.8883C42.9039 29.4985 41.3084 29.7847 40.4742 31.5803C38.1561 36.5769 35.8443 41.5772 33.5386 46.5812C33.4562 46.7995 33.331 46.9991 33.1704 47.1684C33.0098 47.3376 32.8171 47.4731 32.6034 47.5669C31.8055 47.8947 31.1049 48.4215 30.5684 49.0969C30.155 49.6487 29.6799 49.7834 28.9897 49.6356Z"
            fill="#00B2B6" />
        <path
            d="M86.4458 53.5727C86.6852 52.2634 86.2438 51.0813 85.6659 49.9422C85.4975 49.6093 85.2918 49.2988 85.0898 48.9789C87.5064 49.3717 89.3356 51.2684 89.3824 53.6737C89.4385 56.4794 89.6368 59.285 89.229 62.0738C88.4435 67.4401 83.7431 72.0058 78.3712 72.6848C78.1846 72.7004 77.9973 72.706 77.8101 72.7016C78.8126 72.0788 79.8881 71.5793 80.8271 70.848C82.726 69.3411 84.2466 67.4112 85.2675 65.2124C85.3498 65.0385 85.4545 64.8682 85.2675 64.6943C85.6696 63.8115 86.0961 62.9342 86.2532 61.9635C86.7002 59.1765 86.4458 56.3728 86.4458 53.5727Z"
            fill="#FF7CC7" />
        <path
            d="M67.5244 58.8117C67.5244 58.0112 67.5244 57.2119 67.5244 56.4138C68.4933 56.1669 68.656 55.9331 68.6691 54.8426C68.6691 54.448 68.5251 54.0271 69.1554 53.8551C73.9642 52.5005 79.0538 52.5005 83.8626 53.8551C84.2591 53.9654 84.3676 54.1618 84.362 54.5602C84.3396 56.296 84.362 58.0336 84.3433 59.7694C84.3367 60.3635 84.2677 60.9553 84.1376 61.535C83.2398 65.4536 79.7252 68.0329 75.7917 67.685C71.8582 67.3371 68.8711 64.1312 68.6729 60.0649C68.6336 59.255 68.353 58.9501 67.5244 58.8117Z"
            fill="#908190" />
        <path
            d="M53.6867 57.5219C53.6362 58.964 53.8083 60.6305 53.4043 62.2765C52.2521 66.975 47.8921 70.1323 42.9299 69.8386C38.2819 69.5581 34.3053 65.7405 33.8134 61.0252C33.5684 58.6797 33.7255 56.3192 33.733 53.9662C33.733 52.943 34.3409 52.2416 35.3453 51.9424C40.7909 50.2767 46.6101 50.2767 52.0557 51.9424C53.1667 52.2734 53.6718 53.001 53.6811 54.17C53.6942 55.2119 53.6867 56.2593 53.6867 57.5219ZM51.5451 57.6659C51.5451 56.51 51.5208 55.5579 51.5544 54.6077C51.5713 54.1476 51.4291 53.9568 50.9671 53.8334C49.2246 53.3576 47.441 53.0476 45.6401 52.9075C42.5025 52.6806 39.3496 53.0112 36.3273 53.8839C36.0822 53.9549 35.8409 54.0073 35.8503 54.3814C35.9083 56.4969 35.7325 58.6179 35.9457 60.7296C36.1382 62.5506 36.964 64.2462 38.2791 65.5204C39.5942 66.7946 41.315 67.5666 43.1411 67.7016C44.9673 67.8365 46.7828 67.3259 48.2709 66.2588C49.759 65.1918 50.8251 63.636 51.2832 61.8631C51.6704 60.4061 51.4852 58.9303 51.5451 57.6659Z"
            fill="#030302" />
        <path
            d="M67.5243 58.8122C68.3529 58.9506 68.6279 59.2555 68.6709 60.071C68.8785 64.1448 71.8694 67.347 75.7898 67.6912C79.7102 68.0353 83.2378 65.4597 84.1356 61.5412C84.2658 60.9614 84.3347 60.3696 84.3414 59.7755C84.3676 58.0397 84.3414 56.3021 84.3601 54.5663C84.3601 54.1679 84.2572 53.9715 83.8607 53.8612C79.0519 52.5066 73.9623 52.5066 69.1535 53.8612C68.5232 54.0333 68.6728 54.4541 68.6672 54.8488C68.6541 55.9392 68.4914 56.173 67.5225 56.4199C66.8547 56.2759 66.5162 55.8588 66.5218 55.1798C66.5218 54.8058 66.5218 54.4186 66.5218 54.0389C66.5499 53.0139 67.0736 52.2807 68.0668 51.9721C71.5449 50.8932 75.1986 50.4956 78.8274 50.8012C80.7896 50.9696 82.7312 51.3254 84.6257 51.8636C85.5478 52.1198 86.1781 52.6435 86.44 53.5788C86.44 56.3844 86.6944 59.19 86.2417 61.9695C86.0846 62.9403 85.6582 63.8175 85.256 64.7003C83.5726 67.506 81.171 69.2417 77.9052 69.7636C72.7316 70.5884 67.5075 66.8476 66.6827 61.6796C66.6004 61.1671 66.5667 60.6434 66.5293 60.1234C66.4732 59.3958 66.7818 58.9338 67.5243 58.8122Z"
            fill="#030302" />
        <path
            d="M51.5452 57.6669C51.4853 58.9313 51.6705 60.407 51.2852 61.8641C50.8271 63.637 49.7609 65.1928 48.2728 66.2598C46.7848 67.3269 44.9692 67.8375 43.143 67.7025C41.3169 67.5676 39.5961 66.7956 38.281 65.5214C36.966 64.2472 36.1401 62.5516 35.9476 60.7306C35.7344 58.6189 35.9102 56.4978 35.8522 54.3824C35.8429 54.0083 36.0842 53.9559 36.3292 53.8849C39.3515 53.0122 42.5045 52.6816 45.6421 52.9085C47.4429 53.0486 49.2265 53.3586 50.9691 53.8343C51.4311 53.9578 51.5732 54.1486 51.5564 54.6087C51.5208 55.5589 51.5452 56.5109 51.5452 57.6669Z"
            fill="#908190" />
        <path
            d="M39.2676 57.0549C37.7376 58.7944 37.732 61.7535 38.9515 63.6576C38.9656 63.6865 38.9888 63.71 39.0176 63.7244C39.0464 63.7388 39.0792 63.7432 39.1108 63.737C39.1424 63.7308 39.1711 63.7143 39.1923 63.6902C39.2136 63.666 39.2262 63.6354 39.2283 63.6033C39.3724 62.4605 39.2639 61.3289 39.2975 60.1823C39.3293 59.1367 39.7633 58.1865 39.6473 57.1335C39.6305 56.9315 39.3798 56.9352 39.2676 57.0549Z"
            fill="#A9F7FF" />
        <path
            d="M82.7008 55.129C82.4711 54.9416 82.2199 54.7821 81.9526 54.6539C81.6777 54.4949 81.4046 54.2798 81.0903 54.2219C80.9838 54.1933 80.8716 54.1931 80.765 54.2214C80.6583 54.2496 80.5609 54.3052 80.4824 54.3827C80.4525 54.4183 80.4226 54.4557 80.3964 54.4931L80.3852 54.5099C80.3291 54.6055 80.2996 54.7143 80.2996 54.8251C80.2996 54.9359 80.3291 55.0447 80.3852 55.1402C80.6433 55.6284 81.2643 55.8884 81.7151 56.1652C82.1522 56.4369 82.6405 56.6158 83.1497 56.6908C83.1952 56.6915 83.2396 56.677 83.2758 56.6495C83.3121 56.6221 83.3381 56.5833 83.3498 56.5393C83.4564 56.0006 83.0693 55.4807 82.7008 55.129Z"
            fill="#A9F7FF" />
        <path
            d="M39.4904 54.996C39.4136 55.1951 39.3627 55.4031 39.3389 55.6151C39.3389 55.8807 39.3781 56.5391 39.8158 56.4306C40.117 56.3539 40.3246 56.0154 40.4237 55.7367C40.5603 55.3626 40.6482 55.0951 40.5135 54.6986C40.4647 54.5986 40.3783 54.5219 40.2733 54.4851C40.1682 54.4483 40.0529 54.4545 39.9524 54.5022C39.744 54.6058 39.5799 54.7812 39.4904 54.996Z"
            fill="#A9F7FF" />
    </g>
    <defs>
        <filter id="filter0_ddddd_13838_46209" x="0.650879" y="0.240778" width="122.903"
            height="99.8197" filterUnits="userSpaceOnUse" color-interpolation-filters="sRGB">
            <feFlood flood-opacity="0" result="BackgroundImageFix" />
            <feColorMatrix in="SourceAlpha" type="matrix"
                values="0 0 0 0 0 0 0 0 0 0 0 0 0 0 0 0 0 0 127 0" result="hardAlpha" />
            <feOffset dx="2" dy="0.156915" />
            <feGaussianBlur stdDeviation="10" />
            <feColorMatrix type="matrix" values="0 0 0 0 0 0 0 0 0 0 0 0 0 0 0 0 0 0 0.1 0" />
            <feBlend mode="normal" in2="BackgroundImageFix" result="effect1_dropShadow_13838_46209" />
            <feColorMatrix in="SourceAlpha" type="matrix"
                values="0 0 0 0 0 0 0 0 0 0 0 0 0 0 0 0 0 0 127 0" result="hardAlpha" />
            <feOffset dx="0.509975" dy="0.66689" />
            <feGaussianBlur stdDeviation="0.411903" />
            <feColorMatrix type="matrix" values="0 0 0 0 0 0 0 0 0 0 0 0 0 0 0 0 0 0 0.09 0" />
            <feBlend mode="normal" in2="effect1_dropShadow_13838_46209"
                result="effect2_dropShadow_13838_46209" />
            <feColorMatrix in="SourceAlpha" type="matrix"
                values="0 0 0 0 0 0 0 0 0 0 0 0 0 0 0 0 0 0 127 0" result="hardAlpha" />
            <feOffset dx="1.09841" dy="1.4907" />
            <feGaussianBlur stdDeviation="0.549204" />
            <feColorMatrix type="matrix" values="0 0 0 0 0 0 0 0 0 0 0 0 0 0 0 0 0 0 0.05 0" />
            <feBlend mode="normal" in2="effect2_dropShadow_13838_46209"
                result="effect3_dropShadow_13838_46209" />
            <feColorMatrix in="SourceAlpha" type="matrix"
                values="0 0 0 0 0 0 0 0 0 0 0 0 0 0 0 0 0 0 127 0" result="hardAlpha" />
            <feOffset dx="1.96144" dy="2.62833" />
            <feGaussianBlur stdDeviation="2.5" />
            <feColorMatrix type="matrix" values="0 0 0 0 0 0 0 0 0 0 0 0 0 0 0 0 0 0 0.05 0" />
            <feBlend mode="normal" in2="effect3_dropShadow_13838_46209"
                result="effect4_dropShadow_13838_46209" />
            <feColorMatrix in="SourceAlpha" type="matrix"
                values="0 0 0 0 0 0 0 0 0 0 0 0 0 0 0 0 0 0 127 0" result="hardAlpha" />
            <feOffset dx="3.05985" dy="4.11903" />
            <feGaussianBlur stdDeviation="2.5" />
            <feColorMatrix type="matrix" values="0 0 0 0 0 0 0 0 0 0 0 0 0 0 0 0 0 0 0.03 0" />
            <feBlend mode="normal" in2="effect4_dropShadow_13838_46209"
                result="effect5_dropShadow_13838_46209" />
            <feBlend mode="normal" in="SourceGraphic" in2="effect5_dropShadow_13838_46209"
                result="shape" />
        </filter>
    </defs>
</svg>