<svg width="104" height="113" viewBox="0 0 104 113" fill="none" xmlns="http://www.w3.org/2000/svg">
<g filter="url(#filter0_ddddd_13849_50696)">
<path d="M20.7427 88.4894V90.4894H22.7427H77.2571H79.2571V88.4894V50.0851V50.0478L79.2557 50.0106C78.6875 34.7644 66.4062 22.576 51.0912 22.012C34.9448 21.4054 21.356 33.9393 20.7441 50.009L20.7427 50.047V50.0851V88.4894Z" fill="#2AA27F" stroke="white" stroke-width="4"/>
<path d="M73.5551 84.851H26.4448V50.0851C26.4448 37.1489 36.9816 26.6787 49.9593 26.6787C49.9593 26.6787 49.9593 26.6787 49.9999 26.6787C63.0183 26.6787 73.5551 37.1489 73.5551 50.0851C73.5551 50.0851 73.5551 50.0851 73.5551 50.1255V84.851Z" fill="#FEC401"/>
<path d="M31.2862 46.6085C31.2862 46.6085 30.4318 48.266 32.3032 48.266L31.8964 48.6702C31.8964 48.6702 34.2153 49.4383 35.3951 48.1447C35.3951 48.1447 34.4187 48.4277 34.0526 48.3064C33.8898 47.3362 34.2153 46.3255 34.9069 45.5979C33.8085 45.7191 32.9541 46.5681 32.8728 47.7C32.3032 47.3766 31.7743 47.0128 31.2862 46.6085Z" fill="#1E1107"/>
<path d="M40.3582 47.2553C40.3582 47.2553 40.4396 47.7 40.2768 47.7404C40.1141 47.7808 39.7073 47.417 39.7073 46.7702C39.7073 46.1234 41.66 46.2043 41.66 46.2043L41.1718 46.5277C41.1718 46.5277 41.7414 48.0638 41.4566 48.266C41.1718 48.4681 40.3989 47.5787 40.3582 47.2553Z" fill="#1E1107"/>
<path d="M43.3687 43.4553C43.3687 43.4553 44.5484 44.2234 44.9553 44.9915C45.3621 45.7596 45.6469 44.7085 44.7925 43.9808C44.7925 43.9808 45.118 43.7383 44.8739 43.5766C44.6298 43.4149 44.4264 43.7787 44.4264 43.7787C44.4264 43.7787 43.5721 43.0511 43.3687 43.4553Z" fill="#1E1107"/>
<path d="M57.1194 45.2745C60.0628 45.2745 62.4488 42.9035 62.4488 39.9787C62.4488 37.054 60.0628 34.683 57.1194 34.683C54.1761 34.683 51.79 37.054 51.79 39.9787C51.79 42.9035 54.1761 45.2745 57.1194 45.2745Z" fill="#A969E3"/>
<path d="M59.3162 78.8277H33.2388L26.4448 77.9383V66.8213C29.4553 63.9915 37.0223 56.7149 38.8936 54.3298C39.0564 54.1277 39.3818 54.0468 39.6259 54.2085C41.66 55.5426 50.3254 61 56.1023 61.9298L59.3162 78.8277Z" fill="#FF8C1F"/>
<path d="M73.5551 66.8213V83.7596C73.5551 83.7596 73.5144 83.7596 73.4737 83.7596L41.3346 83.0723C41.2125 83.0723 41.0905 82.9915 41.0498 82.8298L38.4461 71.9149C38.4055 71.834 38.4461 71.7128 38.5275 71.6319C39.2598 70.8638 43.2873 66.7809 47.1929 65.5681C51.3018 64.2745 59.2349 58.7766 61.4724 56.8766C61.5944 56.7553 61.7978 56.7958 61.9199 56.917C61.9199 56.9575 61.9606 56.9575 61.9606 56.9979C62.4894 58.0489 64.1574 61.0404 65.8254 61.6468C67.6561 62.334 70.5446 63.8298 73.5551 66.8213Z" fill="#FFB171"/>
<path d="M73.0669 79.9596V84.8511H26.4448V73.6532C27.6246 72.4404 29.6181 70.3787 32.3438 67.3064C32.5879 67.0234 33.0354 66.983 33.3608 67.1851C34.5813 68.0745 35.9238 68.8021 37.307 69.3277C40.0734 70.3383 42.5144 72.8043 46.0131 75.2298C49.5118 77.6957 70.1784 80.2426 73.0669 79.9596Z" fill="#D86F19"/>
<path d="M73.5551 69.0851V84.8511H26.4448V81.6575C28.6824 83.3149 32.5879 84.5681 39.0971 82.9106C48.9422 80.4043 64.9711 73.9362 73.5551 69.0851Z" fill="#6D380C"/>
</g>
<defs>
<filter id="filter0_ddddd_13849_50696" x="0.742676" y="0.147791" width="102.514" height="119.009" filterUnits="userSpaceOnUse" color-interpolation-filters="sRGB">
<feFlood flood-opacity="0" result="BackgroundImageFix"/>
<feColorMatrix in="SourceAlpha" type="matrix" values="0 0 0 0 0 0 0 0 0 0 0 0 0 0 0 0 0 0 127 0" result="hardAlpha"/>
<feOffset dx="2" dy="0.156915"/>
<feGaussianBlur stdDeviation="10"/>
<feColorMatrix type="matrix" values="0 0 0 0 0 0 0 0 0 0 0 0 0 0 0 0 0 0 0.1 0"/>
<feBlend mode="normal" in2="BackgroundImageFix" result="effect1_dropShadow_13849_50696"/>
<feColorMatrix in="SourceAlpha" type="matrix" values="0 0 0 0 0 0 0 0 0 0 0 0 0 0 0 0 0 0 127 0" result="hardAlpha"/>
<feOffset dx="0.509975" dy="0.66689"/>
<feGaussianBlur stdDeviation="0.411903"/>
<feColorMatrix type="matrix" values="0 0 0 0 0 0 0 0 0 0 0 0 0 0 0 0 0 0 0.09 0"/>
<feBlend mode="normal" in2="effect1_dropShadow_13849_50696" result="effect2_dropShadow_13849_50696"/>
<feColorMatrix in="SourceAlpha" type="matrix" values="0 0 0 0 0 0 0 0 0 0 0 0 0 0 0 0 0 0 127 0" result="hardAlpha"/>
<feOffset dx="1.09841" dy="1.4907"/>
<feGaussianBlur stdDeviation="0.549204"/>
<feColorMatrix type="matrix" values="0 0 0 0 0 0 0 0 0 0 0 0 0 0 0 0 0 0 0.05 0"/>
<feBlend mode="normal" in2="effect2_dropShadow_13849_50696" result="effect3_dropShadow_13849_50696"/>
<feColorMatrix in="SourceAlpha" type="matrix" values="0 0 0 0 0 0 0 0 0 0 0 0 0 0 0 0 0 0 127 0" result="hardAlpha"/>
<feOffset dx="1.96144" dy="2.62833"/>
<feGaussianBlur stdDeviation="2.5"/>
<feColorMatrix type="matrix" values="0 0 0 0 0 0 0 0 0 0 0 0 0 0 0 0 0 0 0.05 0"/>
<feBlend mode="normal" in2="effect3_dropShadow_13849_50696" result="effect4_dropShadow_13849_50696"/>
<feColorMatrix in="SourceAlpha" type="matrix" values="0 0 0 0 0 0 0 0 0 0 0 0 0 0 0 0 0 0 127 0" result="hardAlpha"/>
<feOffset dx="3.05985" dy="4.11903"/>
<feGaussianBlur stdDeviation="2.5"/>
<feColorMatrix type="matrix" values="0 0 0 0 0 0 0 0 0 0 0 0 0 0 0 0 0 0 0.03 0"/>
<feBlend mode="normal" in2="effect4_dropShadow_13849_50696" result="effect5_dropShadow_13849_50696"/>
<feBlend mode="normal" in="SourceGraphic" in2="effect5_dropShadow_13849_50696" result="shape"/>
</filter>
</defs>
</svg>
