<svg width="75" height="67" viewBox="0 0 75 67" fill="none" xmlns="http://www.w3.org/2000/svg">
<path d="M15.4745 41.5188L15.7615 41.4254C15.7616 41.4257 15.7617 41.426 15.7618 41.4263C15.7739 41.4635 15.7853 41.5009 15.796 41.5385M15.4745 41.5188L14.3351 41.8896M15.4745 41.5188C15.1522 41.5076 14.7731 41.5176 14.3295 41.5562M15.4745 41.5188L14.3295 41.5562M15.796 41.5385C15.6972 41.5296 15.5918 41.523 15.4794 41.519L14.3351 41.8896M15.796 41.5385C15.8994 41.9015 15.937 42.2772 15.9096 42.6484M15.796 41.5385C16.1623 41.5713 16.4379 41.6355 16.6394 41.7152C16.7973 41.7847 16.8868 41.8464 16.9318 41.8842M14.3351 41.8896C14.2989 41.7776 14.2517 41.6697 14.1945 41.5675C14.2395 41.564 14.2845 41.5602 14.3295 41.5562M14.3351 41.8896C14.4529 42.2515 14.4449 42.6412 14.3149 42.9961C14.3857 42.9949 14.4633 42.9906 14.5484 42.9823L14.5855 42.9788L14.6228 42.977C14.8855 42.9647 15.1458 42.9206 15.3979 42.8457C15.5849 42.7855 15.7549 42.7194 15.9096 42.6484M14.3295 41.5562C14.33 41.5562 14.3305 41.5561 14.331 41.5561L14.2842 41.0308L14.1979 40.062M14.3295 41.5562L14.86 40.0208C14.6482 40.0282 14.4275 40.042 14.1979 40.062M14.3295 41.5562L15.6595 43.6728C15.8001 43.3451 15.8838 42.9988 15.9096 42.6484M14.3295 41.5562C14.329 41.5562 14.3285 41.5563 14.3281 41.5563L14.2824 41.0324L14.1979 40.062M14.3295 41.5562L14.1979 40.062M15.9096 42.6484C16.3022 42.4681 16.5962 42.2562 16.8205 42.0285C16.8828 41.962 16.9154 41.9134 16.9318 41.8842M16.9318 41.8842C16.936 41.8766 16.9392 41.8703 16.9415 41.8653C16.9464 41.855 16.9475 41.8505 16.9471 41.852C16.9466 41.8537 16.9456 41.8582 16.9452 41.8642C16.9449 41.867 16.9448 41.8701 16.9449 41.8735C16.9449 41.8741 16.9449 41.8747 16.9449 41.8753C16.9549 41.9026 16.9651 41.9159 16.9651 41.916C16.965 41.916 16.9604 41.9102 16.9482 41.8987C16.9435 41.8944 16.9381 41.8895 16.9318 41.8842ZM13.4536 32.8521C13.1411 32.3887 12.8575 31.797 12.6236 31.0647L13.4536 32.8521ZM13.4536 32.8521C13.4457 32.3566 13.3416 31.7201 13.0851 30.9167C12.8556 30.198 12.5702 29.6008 12.2487 29.1213C12.2589 29.616 12.3652 30.254 12.6234 31.0641L13.4536 32.8521ZM12.9506 46.8845L12.9788 46.8916L13.0073 46.8976C14.3175 47.1737 15.6636 47.0418 17.0215 46.6029C18.6497 46.0827 20.0512 45.2789 21.1153 44.1227C21.7699 43.451 22.2741 42.6473 22.5938 41.7652L22.5985 41.7521L22.603 41.739C22.9363 40.7638 23.0175 39.7355 22.6963 38.7296C22.2958 37.475 21.357 36.6088 20.1515 36.0712L20.1059 36.0508L20.0589 36.0335C19.6888 35.8972 19.3091 35.7908 18.9235 35.7149C19.3362 35.1898 19.6902 34.6013 19.9835 33.9529L19.9987 33.9192L20.0123 33.8847C20.6565 32.2503 20.7502 30.556 20.2242 28.9086C19.8207 27.6446 19.1087 26.5687 18.1144 25.6922C18.3186 25.3823 18.4595 25.0336 18.5273 24.6663L17.0686 24.3968L18.5273 24.6663C18.6131 24.2018 18.5793 23.7233 18.4292 23.2758C18.288 22.8018 18.0378 22.3673 17.6986 22.0069C17.3479 21.6344 16.9125 21.3522 16.4292 21.1842L16.4292 21.1842L16.4185 21.1806C15.5534 20.8872 14.6162 20.8845 13.7497 21.1724C12.4994 21.5682 11.4508 22.4329 10.8243 23.5853C10.7079 23.799 10.6064 24.02 10.5202 24.2468C8.33137 24.9937 6.75452 26.5214 5.82447 28.6896L5.81213 28.7184L5.80099 28.7477C5.18961 30.355 5.12626 31.9726 5.6352 33.5666C6.08283 34.9686 6.90778 36.1337 8.05937 37.0378C8.05297 37.6519 8.12556 38.2352 8.29874 38.7776C8.56163 39.601 9.06429 40.2871 9.7904 40.7751C9.80782 40.7868 9.82531 40.7984 9.84289 40.8098C9.75382 40.978 9.6781 41.1551 9.61588 41.3395L9.60261 41.3788L9.59153 41.4188C9.41095 42.0708 9.38986 42.754 9.52665 43.4115L9.16915 43.5007L9.62724 43.8012C9.63635 43.8306 9.64579 43.86 9.65556 43.8893C10.1702 45.4888 11.3501 46.482 12.9506 46.8845ZM17.0523 24.3938C17.0249 24.542 16.9718 24.6836 16.8959 24.8124L15.9369 22.6011C16.1917 22.6897 16.4214 22.8386 16.6064 23.035C16.7913 23.2315 16.926 23.4697 16.999 23.7295C17.075 23.9424 17.0933 24.1715 17.0523 24.3938Z" fill="#FFADE3" stroke="white" stroke-width="3"/>
<path d="M23.0122 36.0302L22.9904 36.0202C20.6527 34.9478 19.0628 33.1885 18.295 30.7841L23.0122 36.0302ZM23.0122 36.0302L23.0344 36.0395M23.0122 36.0302L23.0344 36.0395M23.0344 36.0395C25.0363 36.8813 27.0484 37.0052 29.0516 36.3692L29.0532 36.3687C30.9634 35.7599 32.6011 34.5031 33.6832 32.8153C34.7653 31.1276 35.2238 29.1149 34.9795 27.1251C34.7352 25.1352 33.8034 23.2933 32.3451 21.9176C30.8869 20.5418 28.9939 19.7186 26.9931 19.5903L26.978 19.5893L26.963 19.5886C25.9126 19.5424 24.8622 19.6787 23.8584 19.9914M23.0344 36.0395L23.8584 19.9914M23.8584 19.9914C22.6045 20.381 21.4583 21.0564 20.5098 21.9643L20.5098 21.9643L20.5022 21.9717C19.3507 23.0898 18.534 24.507 18.144 26.0638C17.7542 27.6205 17.8064 29.2551 18.2949 30.7837L23.8584 19.9914ZM23.8584 19.9914C23.8582 19.9914 23.858 19.9915 23.8578 19.9915L24.2856 21.3646M23.8584 19.9914L24.2816 21.3659M24.2856 21.3646C24.2843 21.365 24.283 21.3655 24.2816 21.3659M24.2856 21.3646L24.304 21.4236M24.2856 21.3646L24.304 21.4236M24.2816 21.3659L24.3004 21.4248M24.2816 21.3659L24.3004 21.4248M24.3004 21.4248C24.3016 21.4244 24.3028 21.424 24.304 21.4236M24.3004 21.4248L24.304 21.4236M24.2801 21.3664L24.299 21.4252M24.2801 21.3664L24.299 21.4252M24.2801 21.3664C24.0591 21.4371 23.8621 21.533 23.6867 21.6478C23.8868 21.5643 24.0911 21.49 24.299 21.4252M24.2801 21.3664L24.299 21.4252M27.0152 27.9994C27.5114 29.5535 27.6455 30.7443 27.5456 31.6172C27.4679 31.5267 27.3822 31.4197 27.2888 31.2935C26.7394 30.5112 26.2728 29.5336 25.897 28.3565L25.8955 28.352C25.6078 27.4604 25.4206 26.5395 25.3375 25.6063C25.3151 25.2263 25.3177 24.9219 25.3345 24.6828C25.3929 24.7507 25.4559 24.8277 25.5232 24.9148C26.1109 25.7136 26.6106 26.7323 27.0152 27.9994Z" fill="#FFADE3" stroke="white" stroke-width="3"/>
<path d="M37.1592 31.5136L37.1374 31.5036C34.7997 30.4312 33.2098 28.6718 32.442 26.2675L37.1592 31.5136ZM37.1592 31.5136L37.1813 31.5229M37.1592 31.5136L37.1813 31.5229M37.1813 31.5229C39.1832 32.3647 41.1954 32.4886 43.1986 31.8526L43.2002 31.8521C45.1104 31.2433 46.7481 29.9865 47.8302 28.2987C48.9122 26.611 49.3708 24.5983 49.1265 22.6085C48.8822 20.6186 47.9503 18.7767 46.4921 17.4009C45.0338 16.0252 43.1408 15.2021 41.14 15.0737L41.1249 15.0727L41.1097 15.072C40.0593 15.0259 39.0087 15.1623 38.0048 15.4749L37.1813 31.5229ZM38.0045 15.475C36.751 15.8647 35.605 16.54 34.6567 17.4478L34.6567 17.4478L34.6491 17.4551C33.4976 18.5732 32.6809 19.9904 32.291 21.5472C31.9011 23.1039 31.9533 24.7385 32.4418 26.2671L38.0045 15.475ZM38.0045 15.475C38.0043 15.4751 38.0041 15.4752 38.0038 15.4752L38.4317 16.8483M38.0045 15.475L38.4277 16.8496M38.4317 16.8483C38.4303 16.8487 38.429 16.8491 38.4277 16.8496M38.4317 16.8483L38.4501 16.9073M38.4317 16.8483L38.4501 16.9073M38.4277 16.8496L38.4465 16.9084M38.4277 16.8496L38.4465 16.9084M38.4465 16.9084C38.4477 16.9081 38.4489 16.9077 38.4501 16.9073M38.4465 16.9084L38.4501 16.9073M38.4262 16.8501L38.445 16.9089M38.4262 16.8501L38.445 16.9089M38.4262 16.8501C38.2052 16.9208 38.0081 17.0167 37.8328 17.1315C38.0329 17.048 38.2371 16.9737 38.445 16.9089M38.4262 16.8501L38.445 16.9089M41.1622 23.4828C41.6579 25.0355 41.7918 26.2268 41.6925 27.1005C41.6148 27.0101 41.5292 26.903 41.4357 26.7769C40.8863 25.9946 40.4198 25.0169 40.0439 23.8399L40.0425 23.8354C39.7547 22.9437 39.5675 22.0226 39.4844 21.0893C39.4618 20.7093 39.4643 20.405 39.4811 20.1658C39.5396 20.2339 39.6027 20.311 39.6702 20.3982C40.2578 21.1971 40.7576 22.2158 41.1622 23.4828Z" fill="#FFADE3" stroke="white" stroke-width="3"/>
<path d="M55.4193 27.742L55.4597 27.7404L55.5 27.7367C56.0633 27.6844 56.6191 27.5691 57.1567 27.3929C58.8652 26.8527 60.3473 25.7634 61.3728 24.2945C61.8518 23.6567 62.2151 22.9397 62.4461 22.1761C63.0061 20.546 63.0226 18.778 62.4927 17.1373L58.3595 4.19213L57.9033 2.7632L56.4744 3.21943L54.1664 3.95633C53.669 4.10731 53.2059 4.35418 52.8033 4.68301C52.3968 5.01506 52.0598 5.42421 51.8119 5.88697C51.5639 6.34978 51.41 6.85696 51.3588 7.37931L51.3588 7.37931C51.3076 7.90171 51.3601 8.42913 51.5134 8.93125L51.5162 8.94033L51.5191 8.94937L52.1596 10.9554L51.8516 11.0537C49.522 11.7975 47.8717 13.4102 46.8929 15.7142L46.8869 15.7282L46.8812 15.7423C46.1244 17.6296 46.0554 19.7228 46.6862 21.6555C47.0402 22.7923 47.6008 23.8541 48.34 24.7876L48.3478 24.7975L48.3558 24.8072C50.0987 26.9342 52.5347 27.8534 55.4193 27.742ZM53.7714 16.7392C53.7416 16.4008 53.7482 16.1434 53.7714 15.9513L55.5699 21.5845C55.639 21.8007 55.6807 21.9923 55.7019 22.162C55.268 21.6036 54.7937 20.6789 54.3394 19.2558C54.0078 18.2173 53.8283 17.3845 53.7714 16.7392Z" fill="#FFADE3" stroke="white" stroke-width="3"/>
<path d="M18.8096 64.9178L18.8141 64.9199C19.8862 65.4178 21.1076 65.4889 22.2301 65.1189C25.5033 64.0693 27.0265 60.7051 27.4847 56.3062L27.4851 56.3017C27.7191 53.9887 27.5855 51.8787 27.0003 50.0458C26.6813 49.0467 26.1151 48.2028 25.2435 47.6235L25.1853 47.5847L25.1237 47.5516C24.0951 46.9983 22.9633 46.8046 21.8269 47.1674L21.8269 47.1674L21.8181 47.1702C20.852 47.4853 20.0477 48.1663 19.5778 49.0672L20.9077 49.761L19.5778 49.0672C19.1475 49.892 19.0288 50.8411 19.2378 51.7419L19.1924 51.6623C19.1667 51.617 19.1528 51.5924 19.1468 51.5818C19.1438 51.5766 19.1428 51.5748 19.1432 51.5756L19.0863 51.4716L19.0137 51.3779C18.3737 50.5514 17.4965 49.9402 16.4995 49.626L16.4728 49.6176L16.4459 49.6102C15.9233 49.4667 15.3776 49.4286 14.8404 49.4979C14.7722 49.5043 14.7219 49.5135 14.7049 49.5166L14.704 49.5167C14.6398 49.5284 14.584 49.5426 14.5593 49.549C14.4983 49.5648 14.4268 49.5854 14.3565 49.6063C14.21 49.6497 13.9998 49.7148 13.732 49.7989C13.1949 49.9677 12.3918 50.2241 11.326 50.5644L11.32 50.5663L9.52471 51.1395L10.4861 52.7604L16.382 62.7011L16.4064 62.7423L16.4335 62.7818C17.0444 63.6765 17.82 64.4543 18.8096 64.9178ZM21.2093 54.3234C21.7986 54.6293 22.4221 54.8066 23.0606 54.8281C23.0582 55.8432 22.9174 56.8168 22.6452 57.756C22.5834 57.6465 22.5176 57.5297 22.4477 57.4056C22.3147 57.1696 22.1668 56.9073 22.0036 56.618L22.0035 56.6178C21.3307 55.4256 20.7755 54.4456 20.3384 53.6758C20.5808 53.9129 20.8538 54.1204 21.1522 54.2922L21.1804 54.3084L21.2093 54.3234Z" fill="#FFADE3" stroke="white" stroke-width="3"/>
<path d="M30.1833 45.5204C30.2946 45.3462 30.3953 45.1628 30.4854 44.9717L30.4979 44.9453L30.5093 44.9185C30.8767 44.0545 30.9223 43.0875 30.638 42.1928L30.6373 42.1908C30.2478 40.9707 29.3962 40.1382 28.2496 39.6653L28.2143 39.6508L28.1784 39.6381C27.3514 39.3453 26.451 39.3333 25.6166 39.6038M25.6166 39.6038C25.6179 39.6034 25.6192 39.603 25.6205 39.6026L26.0767 41.0315L25.6126 39.6051C25.6139 39.6047 25.6152 39.6042 25.6166 39.6038Z" fill="#FFADE3" stroke="white" stroke-width="3"/>
<path d="M37.5976 57.5436L37.5769 57.5321C35.678 56.4754 34.3788 54.9143 33.7348 52.8973L30.3403 42.2657L30.3401 42.2651L31.769 41.8089C31.5752 41.2037 31.625 40.5467 31.9079 39.9777L37.5976 57.5436ZM37.5976 57.5436L37.6186 57.5544M37.5976 57.5436L37.6186 57.5544M37.6186 57.5544C39.7055 58.631 41.869 58.8493 44.0265 58.1605C44.6015 57.9769 45.2193 57.7446 45.6853 57.416C47.8203 56.0209 49.204 54.1503 49.6183 51.7885L49.6207 51.7747M37.6186 57.5544L49.6207 51.7747M49.6207 51.7747L49.6229 51.7608M49.6207 51.7747L49.6229 51.7608M49.6229 51.7608C49.8451 50.3379 49.7002 48.8833 49.2324 47.4181L49.6229 51.7608ZM38.8431 41.803C38.7553 41.8312 38.668 41.8609 38.5813 41.892L49.2322 47.4175C48.7372 45.8631 47.8249 44.4746 46.5947 43.4033L46.5855 43.3953L46.5762 43.3874C45.9195 42.834 45.1806 42.3862 44.3861 42.0601L44.3853 42.0598C42.5575 41.3108 40.6831 41.2155 38.8458 41.8021L38.8431 41.803ZM41.6219 49.8896C42.0869 51.3459 42.233 52.3822 42.2 53.0628C42.118 52.909 42.0394 52.7231 41.9673 52.497L40.2916 47.2487C40.2483 47.113 40.2167 46.9879 40.1948 46.8723C40.7018 47.5619 41.1961 48.556 41.6219 49.8896Z" fill="#FFADE3" stroke="white" stroke-width="3"/>
<path d="M51.5598 53.0615L51.5828 53.0733L51.6061 53.0843C53.8176 54.1305 56.1026 54.3042 58.421 53.565C60.032 53.0602 61.4653 52.1058 62.5522 50.8139C63.737 49.4164 64.4655 47.6928 64.6444 45.8746L66.1772 42.9002L62.7299 44.0008L61.8807 44.272L61.0106 44.5498L60.858 45.4503C60.7396 46.1488 60.4982 46.8208 60.1452 47.4349C59.6363 48.197 59.0558 48.6179 58.4608 48.8079C57.5554 49.097 56.9664 48.9772 56.5203 48.6663C56.4423 48.5954 56.3671 48.5217 56.2947 48.4455C57.8753 47.8436 59.1688 46.833 60.1217 45.4065L60.1507 45.363L60.1767 45.3176C60.9896 43.8952 61.297 42.385 60.8297 40.9043C60.6043 40.1506 60.2178 39.4548 59.697 38.8651C59.1727 38.2714 58.5249 37.7995 57.799 37.4825L57.7919 37.4794L57.7848 37.4764C56.1703 36.7911 54.4495 36.7995 52.721 37.3509C51.6622 37.6859 50.6762 38.2182 49.8153 38.9196L49.8084 38.9252L49.8015 38.9309C48.1733 40.29 47.1701 42.0202 46.8616 44.0769L46.8587 44.0958L46.8564 44.1148C46.6916 45.4433 46.8255 46.7918 47.2482 48.0619C47.9627 50.2917 49.4232 51.9592 51.5598 53.0615Z" fill="#FFADE3" stroke="white" stroke-width="3"/>
<path d="M64.6318 50.9194L64.6413 50.9204L64.6509 50.9212C65.7543 51.0195 66.8662 50.8894 67.9171 50.539C69.5039 50.0308 70.8264 49.2292 71.7947 48.0988C72.254 47.6362 72.5939 47.0685 72.7846 46.4448C73.0928 45.5859 73.1092 44.6488 72.8304 43.779L72.8282 43.7719L72.8259 43.7649C72.4799 42.7207 71.8232 41.8072 70.9439 41.1467C70.3783 40.7022 69.4027 40.1992 68.2167 39.6495L68.1999 39.6417L68.1828 39.6343C67.2664 39.2369 66.7334 38.8883 66.4588 38.6298L66.4458 38.6175L66.4325 38.6056C66.2094 38.4055 66.0417 38.1514 65.9454 37.8678C65.9345 37.8328 65.9287 37.8063 65.9255 37.7876C65.9641 37.7544 66.0095 37.7295 66.0589 37.7147L66.0743 37.7101L66.0896 37.7051C66.2088 37.6666 66.3348 37.6535 66.4595 37.6666L66.4783 37.6685L66.4972 37.67C66.6929 37.6856 66.8002 37.7254 66.8656 37.7658C66.8878 37.7941 66.9118 37.8229 66.9375 37.8516C66.9986 37.9197 67.1343 38.0616 67.3461 38.1798C67.5652 38.302 68.012 38.4733 68.5496 38.3017L69.4568 38.012L70.9639 37.5308L70.4032 36.0514C70.1248 35.3167 69.5825 34.7781 69.0561 34.3838C68.4101 33.8856 67.6268 33.6432 66.8341 33.5343L66.8157 33.5318L66.7973 33.5297C65.709 33.4075 64.6153 33.5572 63.5307 33.9035C61.8716 34.4333 60.5276 35.3187 59.5166 36.5729L59.5002 36.5932L59.4846 36.6141C58.5813 37.8181 58.225 39.2042 58.6837 40.6408L58.6857 40.6471C59.029 41.7059 59.697 42.6292 60.5943 43.2864C60.8958 43.5286 61.3281 43.7876 61.8543 44.061C61.5109 44.3158 61.2175 44.6373 60.9938 45.0105L60.9592 45.0682L60.9299 45.1288C60.483 46.0527 60.4701 47.0362 60.7746 47.9962L59.7854 48.2806L61.1501 48.8538C61.4192 49.3202 61.7782 49.7288 62.2305 50.0596C62.9264 50.5685 63.7557 50.8301 64.6318 50.9194Z" fill="#FFADE3" stroke="white" stroke-width="3"/>
<path d="M11.0778 46.2802L11.0493 46.2731C9.44635 45.8706 8.26793 44.8763 7.75331 43.2766C7.74305 43.2458 7.73316 43.215 7.72362 43.184L7.2593 42.8788L7.62254 42.7894C7.48812 42.135 7.50997 41.4556 7.68965 40.807L7.70045 40.768L7.71334 40.7297C7.77551 40.5447 7.85129 40.367 7.9405 40.1984C7.92298 40.187 7.90554 40.1755 7.88817 40.1638C7.16217 39.6761 6.65899 38.9902 6.39595 38.1663C6.22282 37.624 6.1502 37.0408 6.15654 36.4268C5.00407 35.5225 4.17988 34.3569 3.73237 32.9553C3.22362 31.3619 3.28558 29.7443 3.89844 28.1356L3.90945 28.1067L3.92164 28.0783C4.85163 25.9103 6.42756 24.3827 8.61732 23.6355C8.70345 23.4088 8.80498 23.1878 8.92136 22.9742L11.0778 46.2802ZM11.0778 46.2802L11.1065 46.2862C12.4153 46.5609 13.7592 46.4299 15.1161 46.0013L15.1204 45.9999C16.7493 45.4798 18.1515 44.6757 19.2168 43.5189C19.8711 42.847 20.3751 42.0436 20.6951 41.1619L20.7001 41.148L20.7049 41.1341C21.0372 40.1593 21.1192 39.1321 20.7979 38.1257C20.3969 36.87 19.4582 36.0048 18.2531 35.4673L18.2071 35.4468L18.1599 35.4295C17.7898 35.2933 17.4101 35.187 17.0245 35.1111M11.0778 46.2802L17.0245 35.1111M17.0245 35.1111C17.4373 34.5861 17.7912 33.9975 18.0843 33.3488L18.0995 33.3153L18.1129 33.2811C18.7572 31.6466 18.8506 29.9514 18.3249 28.305C17.9206 27.0387 17.2066 25.9606 16.2096 25.0831M17.0245 35.1111L16.2096 25.0831M16.2096 25.0831C16.415 24.7728 16.5566 24.4234 16.6247 24.0551C16.7108 23.5902 16.6767 23.1112 16.5261 22.6635C16.3848 22.1899 16.1348 21.7557 15.7957 21.3955C15.4451 21.023 15.0096 20.7408 14.5264 20.5729L14.5264 20.5729L14.5165 20.5695C13.6514 20.2757 12.7141 20.2728 11.8475 20.5609C10.5975 20.9568 9.54893 21.8212 8.9219 22.9732L16.2096 25.0831ZM15.0292 41.2734C15.0123 41.303 14.9793 41.3518 14.9167 41.4183C14.6969 41.6432 14.4029 41.8556 14.0074 42.0369C14.0348 41.6657 13.9971 41.2898 13.8932 40.9268C14.2579 40.9595 14.5327 41.0231 14.734 41.1022C14.8926 41.1732 14.983 41.2351 15.0292 41.2734ZM13.8588 40.8146C13.7257 40.4033 13.5127 40.0225 13.2321 39.6938C13.1464 39.5934 13.0548 39.4984 12.9581 39.4094C13.9298 39.3754 14.7146 39.4752 15.3163 39.7196C15.9345 39.99 16.3262 40.3515 16.4686 40.7975L13.8588 40.8146ZM11.5514 32.241C11.2384 31.7767 10.9543 31.1848 10.7206 30.4528C10.4616 29.6415 10.3554 29.0031 10.3457 28.5083C10.6671 28.9877 10.9524 29.5855 11.1823 30.3054C11.4391 31.11 11.5434 31.7464 11.5514 32.241Z" fill="#5C59ED" stroke="white" stroke-width="3"/>
<path d="M21.1101 35.418L21.0887 35.4082C18.7509 34.3367 17.1609 32.577 16.3932 30.1728L21.1101 35.418ZM21.1101 35.418L21.1317 35.4271M21.1101 35.418L21.1317 35.4271M21.1317 35.4271C23.1342 36.27 25.1465 36.3939 27.1498 35.7579L27.1513 35.7574C29.0616 35.1486 30.6992 33.8917 31.7813 32.204C32.8634 30.5162 33.3219 28.5036 33.0776 26.5138C32.8333 24.5239 31.9015 22.682 30.4433 21.3062C28.985 19.9305 27.0919 19.1073 25.0912 18.9789L25.076 18.978L25.0609 18.9773C24.0104 18.9312 22.9599 19.0675 21.956 19.3802L21.1317 35.4271ZM21.955 19.3805C20.7017 19.7702 19.556 20.4455 18.6079 21.3531L18.6079 21.3531L18.6003 21.3604C17.4488 22.4785 16.6321 23.8957 16.2422 25.4525C15.8523 27.0092 15.9045 28.6437 16.393 30.1723L21.955 19.3805ZM25.1133 27.3881C25.6093 28.9414 25.7429 30.1327 25.6434 31.0053C25.5658 30.915 25.4802 30.8081 25.387 30.6823C24.8371 29.8988 24.3708 28.9219 23.9951 27.7451L23.9937 27.7406C23.7058 26.8489 23.5186 25.9279 23.4356 24.9946C23.413 24.6147 23.4154 24.3103 23.4323 24.0712C23.4908 24.1392 23.5539 24.2164 23.6214 24.3036C24.2091 25.1025 24.7088 26.1211 25.1133 27.3881Z" fill="#5C59ED" stroke="white" stroke-width="3"/>
<path d="M35.2569 30.9013L35.2358 30.8916C32.8979 29.8201 31.308 28.0604 30.5403 25.6562L35.2569 30.9013ZM35.2569 30.9013L35.2783 30.9103M35.2569 30.9013L35.2783 30.9103M35.2783 30.9103C37.2802 31.7538 39.2927 31.8776 41.2959 31.2416L41.2973 31.2411C43.2077 30.6326 44.8457 29.3759 45.928 27.6881C47.0103 26.0004 47.469 23.9877 47.2248 21.9977C46.9806 20.0078 46.0488 18.1657 44.5906 16.7898C43.1323 15.414 41.2392 14.5907 39.2383 14.4623L39.2231 14.4614L39.2078 14.4607C38.1574 14.4147 37.107 14.551 36.1031 14.8636L35.2783 30.9103ZM36.1023 14.8639C34.8487 15.2536 33.7026 15.9289 32.7543 16.8366L32.7542 16.8366L32.7463 16.8443C31.5951 17.9625 30.7788 19.3797 30.3891 20.9364C29.9994 22.493 30.0517 24.1273 30.5401 25.6557L36.1023 14.8639ZM39.2604 22.8715C39.7566 24.4255 39.8906 25.6159 39.7906 26.4876C39.7133 26.3974 39.6279 26.2909 39.5349 26.1654C38.985 25.3819 38.5188 24.405 38.1431 23.2283L38.1417 23.2239C37.854 22.3322 37.6665 21.4111 37.5827 20.4779C37.5603 20.0977 37.5629 19.7932 37.5798 19.554C37.6385 19.6222 37.7019 19.6995 37.7696 19.787C38.3568 20.5853 38.8557 21.6039 39.2604 22.8715Z" fill="#5C59ED" stroke="white" stroke-width="3"/>
<path d="M53.5177 27.1307L53.558 27.1292L53.5981 27.1254C54.163 27.0732 54.7203 26.9574 55.2593 26.7803C56.9674 26.2401 58.449 25.1508 59.4741 23.6822C59.953 23.0442 60.3165 22.3273 60.548 21.564C61.1076 19.9338 61.1242 18.1658 60.5948 16.525L56.4616 3.57969L56.0054 2.15075L54.5764 2.60699L52.2691 3.34366C51.7716 3.4942 51.3082 3.74063 50.9052 4.06912C50.498 4.40103 50.1604 4.81017 49.9119 5.27299C49.6634 5.7358 49.5088 6.24319 49.4571 6.76599C49.4055 7.28867 49.4576 7.81653 49.6107 8.31918L49.6136 8.32878L49.6166 8.33834L50.2571 10.3443L49.9492 10.4427C47.6203 11.1862 45.97 12.799 44.9913 15.1029L44.9854 15.1168L44.9797 15.1309C44.2228 17.0178 44.1537 19.1105 44.7842 21.0429C45.1379 22.1806 45.6989 23.2431 46.4389 24.1768L46.4463 24.1862L46.4539 24.1954C48.1962 26.3235 50.6336 27.2421 53.5177 27.1307ZM51.8698 16.1276C51.84 15.7893 51.8466 15.5319 51.8698 15.3398L53.6687 20.9741C53.7378 21.1906 53.7796 21.3824 53.8008 21.552C53.3668 20.9935 52.8924 20.0683 52.4378 18.6445C52.1061 17.6055 51.9266 16.7727 51.8698 16.1276Z" fill="#5C59ED" stroke="white" stroke-width="3"/>
<path d="M16.9077 64.3087L16.9123 64.3109C17.9822 64.8076 19.2008 64.8794 20.3215 64.5119C23.5967 63.4625 25.1206 60.0981 25.5783 55.6983L25.5788 55.6938C25.8124 53.3802 25.6792 51.2711 25.0939 49.4381C24.7749 48.4391 24.2087 47.5952 23.3372 47.0158L23.2783 46.9766L23.2159 46.9432C22.1875 46.3914 21.0563 46.1971 19.9205 46.5597L19.9205 46.5597L19.9117 46.5626C18.9457 46.8776 18.1414 47.5586 17.6714 48.4596C17.2439 49.2792 17.1239 50.2215 17.3276 51.1172L17.2899 51.0512L17.2494 50.9802C17.2382 50.9605 17.2351 50.9549 17.2359 50.9563L17.1853 50.8655L17.1226 50.7825C16.4731 49.922 15.6108 49.3643 14.6356 49.0288L14.5907 49.0134L14.5449 49.0008C14.0222 48.8573 13.4764 48.8193 12.9394 48.8886C12.8711 48.895 12.8208 48.9041 12.8039 48.9072L12.803 48.9074C12.7387 48.9191 12.683 48.9333 12.6582 48.9397C12.5973 48.9554 12.5257 48.976 12.4554 48.9969C12.309 49.0403 12.0987 49.1054 11.831 49.1895C11.2939 49.3583 10.4908 49.6147 9.42503 49.955L9.41901 49.9569L7.62368 50.5301L8.58511 52.1511L14.4807 62.0909L14.5066 62.1344L14.5353 62.1761C15.1448 63.0617 15.9143 63.8434 16.9077 64.3087ZM19.303 53.7158C19.8932 54.0222 20.5179 54.1995 21.1575 54.2205C21.1525 55.2067 21.0123 56.189 20.7397 57.1397C20.6762 57.027 20.6084 56.9067 20.5364 56.7788C20.4061 56.5473 20.2617 56.291 20.103 56.0093L20.1025 56.0084C19.4342 54.8242 18.8819 53.8494 18.4461 53.0818C18.685 53.3132 18.9532 53.5161 19.2459 53.6845L19.2741 53.7008L19.303 53.7158Z" fill="#5C59ED" stroke="white" stroke-width="3"/>
<path d="M28.2809 44.9101C28.3925 44.7358 28.4933 44.5522 28.5836 44.3608L28.5963 44.3339L28.6079 44.3066C28.9745 43.4426 29.0197 42.476 28.7352 41.5817L28.7347 41.5802C28.3452 40.3603 27.494 39.528 26.3488 39.0548L26.3129 39.04L26.2763 39.027C25.449 38.7344 24.5484 38.7225 23.7138 38.9932M23.7138 38.9932C23.7151 38.9928 23.7165 38.9924 23.7178 38.9919L24.174 40.4209L23.7098 38.9945C23.7111 38.9941 23.7125 38.9936 23.7138 38.9932Z" fill="#5C59ED" stroke="white" stroke-width="3"/>
<path d="M35.6956 56.9312L35.6752 56.9198C33.7763 55.8631 32.477 54.302 31.833 52.285L28.4386 41.6534L28.4384 41.6528L29.8673 41.1966C29.6734 40.5914 29.7232 39.9344 30.0061 39.3654L35.6956 56.9312ZM35.6956 56.9312L35.7164 56.9419C37.8029 58.0191 39.9674 58.237 42.1238 57.5485C42.7 57.3645 43.3162 57.1326 43.7822 56.8043M35.6956 56.9312L43.7822 56.8043M37.3994 42.6191C38.8857 42.1445 40.3963 42.2146 41.9139 42.8358C42.564 43.103 43.1687 43.4693 43.7067 43.9216C44.7297 44.8133 45.4883 45.9687 45.8998 47.262M37.3994 42.6191L33.262 51.8287C33.7857 53.4691 34.8266 54.7309 36.4046 55.6091C38.1608 56.5158 39.9146 56.6792 41.6676 56.1195C42.2466 55.9347 42.6774 55.7539 42.9366 55.565M37.3994 42.6191C37.3107 42.6476 37.2227 42.678 37.1353 42.7101L37.3994 42.6191ZM45.8998 47.262C46.3064 48.5357 46.4189 49.7543 46.2373 50.9177C45.9063 52.8093 44.8036 54.3526 42.9366 55.565M45.8998 47.262L47.3292 46.8072C47.3291 46.807 47.329 46.8067 47.3289 46.8065M45.8998 47.262L47.3287 46.8057C47.3288 46.806 47.3288 46.8062 47.3289 46.8065M42.9366 55.565L43.7535 56.823C43.7631 56.8168 43.7727 56.8105 43.7822 56.8043M42.9366 55.565L43.8201 56.7772C43.8076 56.7863 43.795 56.7953 43.7822 56.8043M43.7822 56.8043C45.9174 55.4092 47.3016 53.5383 47.7148 51.1762L47.7172 51.1627L47.7193 51.1491C47.9415 49.7262 47.7966 48.2717 47.3289 46.8065M43.7822 56.8043L47.3289 46.8065M39.7202 49.2773C40.1852 50.7338 40.3308 51.7708 40.2977 52.4513C40.2156 52.2975 40.137 52.1115 40.0647 51.885L38.389 46.6367C38.3455 46.5006 38.314 46.375 38.2922 46.2589C38.7988 46.9551 39.2966 47.9507 39.7202 49.2773Z" fill="#5C59ED" stroke="white" stroke-width="3"/>
<path d="M49.659 52.4492L49.6819 52.461L49.7053 52.472C51.915 53.5173 54.1968 53.6935 56.5203 52.9527C58.131 52.4475 59.564 51.4932 60.6511 50.2018C61.8357 48.8045 62.5639 47.0812 62.7425 45.2634L64.2816 42.2852L60.8288 43.3876L59.9795 43.6588L59.1096 43.9365L58.9569 44.8368C58.8383 45.5358 58.5969 46.2082 58.2441 46.8229C57.7352 47.5848 57.1548 48.0057 56.56 48.1956C55.6504 48.486 55.064 48.3663 54.6197 48.0546C54.5414 47.9836 54.466 47.9097 54.3934 47.8333C55.9738 47.2314 57.267 46.2209 58.2205 44.7947L58.2499 44.7506L58.2762 44.7046C59.0909 43.2773 59.3984 41.7626 58.924 40.2766C58.4273 38.721 57.4046 37.5604 55.9214 36.8813L55.9024 36.8725L55.883 36.8643C54.2686 36.1791 52.548 36.1874 50.8203 36.7386C49.7613 37.0734 48.7753 37.6057 47.9142 38.3074L47.9072 38.3131L47.9003 38.3189C46.2726 39.6784 45.2695 41.4083 44.9608 43.4644L44.9579 43.4834L44.9556 43.5025C44.7908 44.831 44.9246 46.1794 45.3473 47.4496C46.0618 49.6793 47.5223 51.3469 49.659 52.4492ZM53.0144 45.0812C53.0176 45.0886 53.0189 45.0927 53.0188 45.0929C53.0187 45.0931 53.0171 45.0894 53.0144 45.0812Z" fill="#5C59ED" stroke="white" stroke-width="3"/>
<path d="M62.7309 50.307L62.7411 50.3081L62.7513 50.309C63.8557 50.4064 64.9682 50.2755 66.0198 49.9245C67.6073 49.4161 68.9286 48.6148 69.8967 47.4848C70.3568 47.0222 70.6972 46.4541 70.888 45.8298C71.1959 44.9708 71.212 44.0336 70.9327 43.1637L70.9327 43.1637L70.9285 43.1511C70.583 42.1066 69.9265 41.1929 69.0474 40.5321C68.4815 40.0874 67.5043 39.5844 66.3192 39.0351L66.3027 39.0275L66.286 39.0202C65.37 38.6223 64.8373 38.2738 64.5626 38.0149L64.549 38.0021L64.5351 37.9897C64.3124 37.7899 64.1449 37.5362 64.0487 37.2531C64.0378 37.2179 64.0316 37.1909 64.028 37.1713C64.0663 37.1395 64.1107 37.1156 64.1588 37.1011L64.1731 37.0968L64.1872 37.0922C64.3073 37.0535 64.434 37.0403 64.5594 37.0533L64.5788 37.0554L64.5983 37.0569C64.7908 37.0719 64.8976 37.1112 64.9634 37.1515C64.9841 37.1778 65.0062 37.2047 65.0299 37.2314C65.0908 37.3002 65.2296 37.4475 65.4485 37.5688C65.685 37.6997 66.1267 37.8549 66.6484 37.6884L67.5557 37.3987L69.0628 36.9175L68.5021 35.4382C68.2231 34.7021 67.6786 34.1638 67.1559 33.7712C66.5092 33.2721 65.7243 33.0302 64.9339 32.9211L64.9151 32.9185L64.8962 32.9164C63.8078 32.7942 62.7141 32.944 61.6287 33.2905C59.971 33.8198 58.6262 34.7042 57.615 35.9603L57.5991 35.98L57.5839 36.0002C56.6798 37.2042 56.3223 38.5858 56.7825 40.0275L56.7843 40.033C57.127 41.092 57.7949 42.0155 58.6923 42.6725C58.9942 42.9156 59.4268 43.175 59.9529 43.4483C59.6093 43.7035 59.3158 44.0256 59.0922 44.3994L59.0584 44.4558L59.0298 44.5149C58.5807 45.4407 58.5698 46.4245 58.8733 47.3826L57.8837 47.6671L59.2488 48.2405C59.5179 48.7071 59.8771 49.1158 60.3294 49.4467C61.0252 49.9557 61.8545 50.2177 62.7309 50.307Z" fill="#5C59ED" stroke="white" stroke-width="3"/>
</svg>
