<svg width="125" height="99" viewBox="0 0 125 99" fill="none" xmlns="http://www.w3.org/2000/svg">
<g filter="url(#filter0_ddddd_13838_46245)">
<path d="M99.6872 75.9146L99.6878 75.9142C99.9682 75.7308 100.279 75.4725 100.505 75.1024C100.753 74.6958 100.845 74.2394 100.788 73.7881C100.736 73.3808 100.573 73.0535 100.44 72.8332C100.304 72.6089 100.144 72.4055 100.012 72.2449C99.9198 72.1322 99.8304 72.026 99.7447 71.9241C99.3157 71.414 98.9787 71.0135 98.7915 70.4637C98.8495 70.3999 98.9529 70.2992 99.1399 70.1347C99.1711 70.1073 99.2076 70.0762 99.2484 70.0415C99.7341 69.6281 100.833 68.6928 100.833 67.1845C100.833 65.6296 99.8011 64.8065 99.3048 64.4108C99.2834 64.3937 99.263 64.3774 99.2438 64.3619C98.7436 63.9598 98.7619 63.9135 98.7722 63.8874C98.7735 63.8841 98.7747 63.8812 98.7747 63.8778C98.7747 63.8745 98.7735 63.8716 98.7722 63.8683C98.7619 63.8421 98.7436 63.7959 99.2437 63.3938C99.263 63.3783 99.2834 63.362 99.3048 63.345C99.801 62.9494 100.833 62.1263 100.833 60.5716C100.833 59.0168 99.8009 58.1939 99.3048 57.7984C99.2834 57.7813 99.2629 57.765 99.2436 57.7495C98.7437 57.3477 98.7619 57.3013 98.7722 57.275C98.7735 57.2717 98.7747 57.2687 98.7747 57.2654C98.7747 57.262 98.7735 57.259 98.7722 57.2557C98.7619 57.2292 98.7438 57.1828 99.2438 56.7809C99.2631 56.7654 99.2835 56.7491 99.305 56.732C99.8011 56.3364 100.833 55.5133 100.833 53.9587C100.833 52.4039 99.8009 51.581 99.3048 51.1854C99.2834 51.1684 99.2629 51.1521 99.2436 51.1365C98.7437 50.7348 98.7619 50.6884 98.7722 50.6621C98.7735 50.6588 98.7747 50.6558 98.7747 50.6525C98.7747 50.6491 98.7735 50.6461 98.7722 50.6428C98.7619 50.6163 98.7438 50.5699 99.2438 50.168C99.2631 50.1525 99.2835 50.1362 99.305 50.1191C99.8011 49.7235 100.833 48.9004 100.833 47.3458C100.833 45.791 99.801 44.968 99.3048 44.5724C99.2834 44.5553 99.263 44.539 99.2437 44.5235C98.7436 44.1215 98.7619 44.0752 98.7722 44.0491C98.7735 44.0458 98.7747 44.0428 98.7747 44.0395C98.7747 44.0362 98.7735 44.0333 98.7722 44.03C98.7619 44.0038 98.7436 43.9576 99.2437 43.5555C99.263 43.54 99.2834 43.5237 99.3048 43.5067C99.801 43.1111 100.833 42.288 100.833 40.7333C100.833 39.1785 99.801 38.3555 99.3048 37.9599C99.2834 37.9428 99.263 37.9266 99.2437 37.9111C98.7436 37.509 98.7619 37.4628 98.7722 37.4366C98.7735 37.4334 98.7747 37.4304 98.7747 37.4271C98.7747 37.4238 98.7735 37.4208 98.7722 37.4175C98.7619 37.3914 98.7436 37.3451 99.2437 36.9431C99.263 36.9276 99.2834 36.9113 99.3048 36.8942C99.801 36.4986 100.833 35.6756 100.833 34.1208C100.833 32.5661 99.801 31.743 99.3048 31.3475C99.2834 31.3304 99.263 31.3141 99.2437 31.2986C98.7436 30.8966 98.7619 30.8503 98.7722 30.8242C98.7735 30.8209 98.7747 30.8179 98.7747 30.8146C98.7747 30.8113 98.7735 30.8084 98.7722 30.8051C98.7618 30.7792 98.7433 30.7332 99.2435 30.3313C99.2627 30.3159 99.283 30.2997 99.3043 30.2827C99.8008 29.8869 100.833 29.064 100.833 27.5084C100.833 26.7544 100.826 25.8435 100.244 25.0888C99.9754 24.7405 99.6484 24.5074 99.4048 24.3453C99.2831 24.2643 99.1492 24.1803 99.0217 24.1003L99.0042 24.0893C98.866 24.0026 98.7217 23.9119 98.5612 23.8071L98.561 23.807C98.0796 23.4927 97.7271 23.229 97.408 22.9902L97.3983 22.983L97.3691 22.9611C97.0721 22.7388 96.7373 22.4882 96.3691 22.2855C95.495 21.8041 94.5966 21.6735 93.2409 21.6735C92.3866 21.6735 91.6864 21.8512 91.0804 22.1467C90.528 22.4161 90.0967 22.7669 89.7966 23.011L89.7634 23.038C89.4316 23.3077 89.2414 23.4548 89.0235 23.561C88.8384 23.6513 88.5893 23.7307 88.1778 23.7307C87.7663 23.7307 87.5171 23.6513 87.332 23.561C87.114 23.4547 86.9239 23.3076 86.592 23.038L86.5587 23.0109C86.2587 22.7669 85.8274 22.416 85.2751 22.1467C84.6691 21.8512 83.969 21.6735 83.1148 21.6735C82.2606 21.6735 81.5604 21.8512 80.9544 22.1467C80.402 22.4161 79.9708 22.7669 79.6707 23.011L79.6375 23.038C79.3057 23.3077 79.1155 23.4548 78.8976 23.561C78.7125 23.6513 78.4635 23.7307 78.0522 23.7307C77.6408 23.7307 77.3918 23.6513 77.2068 23.561C76.9889 23.4548 76.7989 23.3077 76.467 23.0381L76.4338 23.0111C76.1338 22.767 75.7025 22.4161 75.15 22.1467C74.544 21.8512 73.8438 21.6735 72.9895 21.6735C72.1353 21.6735 71.4351 21.8512 70.8291 22.1467C70.2766 22.4161 69.8454 22.767 69.5454 23.0111L69.5122 23.0381C69.1804 23.3078 68.9904 23.4548 68.7725 23.561C68.5875 23.6513 68.3384 23.7307 67.9269 23.7307C67.5154 23.7307 67.2663 23.6513 67.0811 23.561C66.8631 23.4547 66.673 23.3076 66.3411 23.038L66.3078 23.0109C66.0078 22.7668 65.5765 22.416 65.0242 22.1467C64.4182 21.8512 63.7181 21.6735 62.8638 21.6735C62.0096 21.6735 61.3095 21.8512 60.7035 22.1467C60.1511 22.4161 59.7199 22.7669 59.4198 23.011L59.3866 23.038C59.0548 23.3077 58.8646 23.4548 58.6467 23.561C58.4616 23.6513 58.2126 23.7307 57.8012 23.7307C57.3899 23.7307 57.1409 23.6513 56.9558 23.561C56.7379 23.4548 56.5477 23.3077 56.2159 23.038C56.205 23.0292 56.1939 23.0202 56.1827 23.011C55.8826 22.7669 55.4514 22.4161 54.899 22.1467C54.293 21.8512 53.5928 21.6735 52.7386 21.6735C51.8844 21.6735 51.1843 21.8512 50.5783 22.1467C50.026 22.4161 49.5948 22.7669 49.2948 23.011C49.2835 23.0202 49.2724 23.0292 49.2615 23.0381C48.9297 23.3077 48.7396 23.4548 48.5217 23.561C48.3366 23.6513 48.0875 23.7307 47.676 23.7307C47.2645 23.7307 47.0155 23.6513 46.8304 23.561C46.6126 23.4548 46.4225 23.3077 46.0908 23.0381C46.0799 23.0293 46.0688 23.0202 46.0576 23.0111C45.7576 22.767 45.3263 22.4161 44.7739 22.1467C44.1679 21.8512 43.4677 21.6735 42.6134 21.6735C41.7591 21.6735 41.0589 21.8512 40.4529 22.1467C39.9004 22.416 39.4691 22.7669 39.169 23.011C39.1577 23.0202 39.1467 23.0291 39.1358 23.038C38.8039 23.3076 38.6138 23.4548 38.3958 23.561C38.2107 23.6513 37.9617 23.7307 37.5504 23.7307C37.139 23.7307 36.89 23.6513 36.7049 23.561C36.487 23.4548 36.2968 23.3077 35.965 23.038C35.9541 23.0292 35.943 23.0202 35.9318 23.011C35.6317 22.7669 35.2005 22.4161 34.648 22.1467C34.0421 21.8512 33.3419 21.6735 32.4877 21.6735C31.6335 21.6735 30.9334 21.8512 30.3274 22.1467C29.775 22.4161 29.3437 22.7669 29.0437 23.011C29.0324 23.0202 29.0213 23.0292 29.0104 23.038C28.6786 23.3077 28.4885 23.4548 28.2706 23.561C28.0855 23.6513 27.8365 23.7307 27.4251 23.7307C26.8409 23.7307 26.4415 23.4171 25.5884 22.7474C25.5224 22.6955 25.4537 22.6415 25.3819 22.5854C24.9722 22.2649 24.3561 21.8002 23.5963 21.6014C22.7165 21.3712 21.8262 21.5321 20.9792 22.0854C20.6189 22.3206 20.2624 22.6711 20.0693 23.176C19.8747 23.6849 19.9152 24.1695 20.0186 24.5421C20.1967 25.1838 20.6432 25.75 20.8996 26.0744C20.9876 26.1857 21.0695 26.2874 21.1461 26.3825C21.3625 26.6513 21.5368 26.8677 21.6892 27.103C21.8773 27.3936 21.8908 27.5115 21.8917 27.5114C21.8918 27.5114 21.8918 27.5105 21.8918 27.5088C21.8918 27.5122 21.8929 27.5152 21.8942 27.5185C21.9046 27.5448 21.9227 27.5911 21.4227 27.993C21.4035 28.0085 21.3831 28.0248 21.3616 28.0419C20.8654 28.4375 19.8333 29.2605 19.8333 30.8155C19.8333 32.3704 20.8654 33.1935 21.3616 33.5892C21.383 33.6063 21.4034 33.6226 21.4227 33.6381C21.9229 34.0402 21.9046 34.0865 21.8942 34.1126C21.8929 34.1159 21.8918 34.1188 21.8918 34.1222C21.8918 34.1255 21.8929 34.1284 21.8942 34.1317C21.9046 34.1579 21.9229 34.2041 21.4227 34.6062C21.4034 34.6217 21.383 34.638 21.3616 34.655C20.8655 35.0506 19.8333 35.8737 19.8333 37.4284C19.8333 38.9832 20.8655 39.8061 21.3616 40.2016C21.3831 40.2187 21.4035 40.235 21.4228 40.2505C21.9227 40.6523 21.9046 40.6987 21.8942 40.725C21.8929 40.7283 21.8918 40.7313 21.8918 40.7346C21.8918 40.738 21.8929 40.741 21.8942 40.7443C21.9045 40.7708 21.9226 40.8172 21.4227 41.2191C21.4034 41.2346 21.3829 41.2509 21.3615 41.268C20.8654 41.6636 19.8333 42.4867 19.8333 44.0413C19.8333 45.5961 20.8655 46.419 21.3616 46.8145C21.3831 46.8316 21.4035 46.8479 21.4228 46.8635C21.9227 47.2652 21.9046 47.3116 21.8942 47.3379C21.8929 47.3412 21.8918 47.3442 21.8918 47.3475C21.8918 47.3509 21.8929 47.3539 21.8942 47.3572C21.9045 47.3837 21.9226 47.4301 21.4227 47.832C21.4033 47.8475 21.3829 47.8638 21.3615 47.8809C20.8654 48.2765 19.8333 49.0996 19.8333 50.6542C19.8333 52.209 20.8655 53.032 21.3616 53.4276C21.383 53.4447 21.4035 53.461 21.4228 53.4765C21.9229 53.8785 21.9046 53.9248 21.8942 53.9509C21.8929 53.9542 21.8918 53.9571 21.8918 53.9605C21.8918 53.9638 21.8929 53.9667 21.8942 53.97C21.9046 53.9962 21.9229 54.0424 21.4227 54.4445C21.4034 54.46 21.383 54.4763 21.3616 54.4933C20.8655 54.8889 19.8333 55.712 19.8333 57.2667C19.8333 58.8215 20.8655 59.6445 21.3616 60.0401C21.383 60.0571 21.4035 60.0734 21.4228 60.0889C21.9229 60.491 21.9046 60.5372 21.8942 60.5634C21.8929 60.5666 21.8918 60.5696 21.8918 60.5729C21.8918 60.5762 21.8929 60.5792 21.8942 60.5825C21.9046 60.6086 21.9229 60.6549 21.4227 61.0569C21.4034 61.0724 21.383 61.0887 21.3616 61.1058C20.8655 61.5014 19.8333 62.3244 19.8333 63.8792C19.8333 65.4339 20.8655 66.2569 21.3616 66.6525C21.383 66.6696 21.4034 66.6859 21.4227 66.7014C21.9229 67.1034 21.9046 67.1497 21.8942 67.1758C21.8929 67.1791 21.8918 67.1821 21.8918 67.1854C21.8918 67.1887 21.893 67.1916 21.8943 67.1949C21.9047 67.2208 21.9232 67.2668 21.423 67.6687C21.4038 67.6841 21.3835 67.7003 21.3621 67.7173C20.8657 68.1131 19.8333 68.936 19.8333 70.4916C19.8333 71.2456 19.8404 72.1565 20.4224 72.9112C20.6911 73.2595 21.018 73.4926 21.2616 73.6547C21.3834 73.7357 21.5173 73.8197 21.6449 73.8997L21.6623 73.9107C21.8004 73.9974 21.9448 74.0881 22.1053 74.1929L22.1055 74.193C22.5869 74.5073 22.9394 74.7711 23.2585 75.0098L23.2681 75.017L23.2974 75.0389C23.5944 75.2612 23.9292 75.5118 24.2974 75.7145C25.1715 76.1959 26.0699 76.3265 27.4256 76.3265C28.2799 76.3265 28.9801 76.1488 29.5861 75.8533C30.1385 75.5839 30.5698 75.2331 30.8698 74.989L30.9031 74.962C31.2349 74.6923 31.425 74.5452 31.6429 74.439C31.828 74.3487 32.0771 74.2693 32.4886 74.2693C32.9001 74.2693 33.1493 74.3487 33.3344 74.439C33.5524 74.5453 33.7426 74.6924 34.0744 74.962L34.1077 74.9891C34.4077 75.2332 34.839 75.584 35.3914 75.8533C35.9973 76.1488 36.6975 76.3265 37.5517 76.3265C38.4059 76.3265 39.106 76.1488 39.712 75.8533C40.2644 75.5839 40.6957 75.2331 40.9957 74.989L41.029 74.962C41.3608 74.6923 41.5509 74.5452 41.7688 74.439C41.9539 74.3487 42.203 74.2693 42.6143 74.2693C43.0256 74.2693 43.2746 74.3487 43.4597 74.439C43.6775 74.5452 43.8676 74.6923 44.1994 74.9619L44.2326 74.9889C44.5327 75.233 44.964 75.5839 45.5164 75.8533C46.1224 76.1488 46.8227 76.3265 47.6769 76.3265C48.5312 76.3265 49.2314 76.1488 49.8374 75.8533C50.3898 75.5839 50.8211 75.233 51.1211 74.9889L51.1543 74.9619C51.4861 74.6922 51.6761 74.5452 51.8939 74.439C52.079 74.3487 52.328 74.2693 52.7395 74.2693C53.151 74.2693 53.4002 74.3487 53.5854 74.439C53.8033 74.5453 53.9935 74.6924 54.3253 74.962L54.3586 74.9891C54.6587 75.2332 55.0899 75.584 55.6423 75.8533C56.2482 76.1488 56.9484 76.3265 57.8026 76.3265C58.6568 76.3265 59.357 76.1488 59.9629 75.8533C60.5153 75.5839 60.9466 75.2331 61.2466 74.989L61.2799 74.962C61.6117 74.6923 61.8018 74.5452 62.0197 74.439C62.2048 74.3487 62.4539 74.2693 62.8652 74.2693C63.2765 74.2693 63.5256 74.3487 63.7107 74.439C63.9286 74.5452 64.1187 74.6923 64.4505 74.962L64.4838 74.989C64.7838 75.2331 65.2151 75.5839 65.7675 75.8533C66.3735 76.1488 67.0736 76.3265 67.9278 76.3265C68.782 76.3265 69.4822 76.1488 70.0881 75.8533C70.6405 75.5839 71.0717 75.2331 71.3717 74.989L71.405 74.9619C71.7367 74.6923 71.9268 74.5452 72.1447 74.439C72.3298 74.3487 72.5789 74.2693 72.9904 74.2693C73.4019 74.2693 73.651 74.3487 73.836 74.439C74.0538 74.5452 74.2439 74.6922 74.5756 74.9619L74.6089 74.9889C74.9089 75.233 75.3401 75.5839 75.8926 75.8533C76.4986 76.1488 77.1987 76.3265 78.053 76.3265C78.9073 76.3265 79.6075 76.1488 80.2135 75.8533C80.766 75.584 81.1974 75.2331 81.4975 74.989L81.5307 74.962C81.8625 74.6924 82.0527 74.5452 82.2706 74.439C82.4557 74.3487 82.7048 74.2693 83.1161 74.2693C83.5274 74.2693 83.7765 74.3487 83.9616 74.439C84.1795 74.5452 84.3696 74.6923 84.7014 74.962L84.7347 74.989C85.0347 75.2331 85.466 75.5839 86.0184 75.8533C86.6244 76.1488 87.3245 76.3265 88.1787 76.3265C89.0329 76.3265 89.7331 76.1488 90.339 75.8533C90.8914 75.5839 91.3227 75.2331 91.6227 74.989L91.656 74.962C91.9878 74.6923 92.1779 74.5452 92.3958 74.439C92.5809 74.3487 92.83 74.2693 93.2413 74.2693C93.8255 74.2693 94.225 74.5829 95.078 75.2526C95.144 75.3045 95.2128 75.3585 95.2845 75.4146C95.6943 75.7351 96.3103 76.1998 97.0702 76.3986C97.95 76.6288 98.8402 76.4679 99.6872 75.9146Z" fill="#3F9672" stroke="white" stroke-width="3"/>
<path d="M41.5986 62.0619C41.6188 62.1022 41.6389 62.1223 41.659 62.1625C41.7597 62.2837 41.7799 62.4246 41.6993 62.5252C41.6389 62.6259 41.4979 62.6661 41.3565 62.6057C40.0672 62.1827 38.8782 62.1625 37.7496 62.6057C37.6489 62.6661 37.4878 62.6259 37.367 62.5252C37.2462 62.4246 37.1858 62.2837 37.2261 62.1625C37.3389 61.7843 37.3798 61.3882 37.3469 60.9949L34.4453 49.7788C34.259 49.3576 34.0149 48.9644 33.7199 48.6107C33.6192 48.4899 33.599 48.329 33.6796 48.2283C33.74 48.1277 33.881 48.1076 34.0219 48.168V48.1478C35.372 48.5906 36.5611 48.5906 37.6087 48.1478V48.168C37.6745 48.1385 37.7475 48.1285 37.8189 48.1392C37.8903 48.1499 37.9571 48.1808 38.0114 48.2283C38.1322 48.329 38.1927 48.4899 38.1524 48.6107C38.0385 48.9889 37.9975 49.3853 38.0316 49.7788L40.3076 58.5786L42.5845 49.7788C42.6185 49.3853 42.5775 48.9889 42.4636 48.6107C42.4234 48.4899 42.4838 48.329 42.6046 48.2283C42.6589 48.1808 42.7257 48.1498 42.7971 48.1391C42.8685 48.1284 42.9415 48.1384 43.0074 48.168C43.3094 48.329 44.6184 48.2686 44.8005 48.168C44.9415 48.1076 45.0824 48.1277 45.1428 48.2283C45.2238 48.329 45.2037 48.4899 45.1026 48.6107C44.8077 48.9646 44.5636 49.3577 44.3772 49.7788L41.476 60.9949C41.4576 61.3772 41.4169 61.8003 41.5986 62.0619Z" fill="#F8DCD8"/>
<path d="M49.5975 61.0966C49.6584 61.4991 49.8213 61.9016 50.0209 62.2647C50.0481 62.3247 50.0567 62.3914 50.0456 62.4564C50.0346 62.5213 50.0043 62.5814 49.9588 62.629C49.9133 62.6766 49.8546 62.7095 49.7902 62.7235C49.7258 62.7375 49.6587 62.7319 49.5975 62.7075C48.3687 62.2647 47.1595 62.2849 45.9911 62.7075C45.8698 62.7678 45.7288 62.7276 45.6282 62.627C45.5788 62.5817 45.5475 62.52 45.5401 62.4534C45.5327 62.3868 45.5497 62.3198 45.5879 62.2647C45.7691 61.9021 45.9307 61.4996 45.9906 61.0966V54.4095C45.9302 54.007 45.7669 53.6045 45.5879 53.2615C45.5496 53.2028 45.5327 53.1328 45.54 53.0631C45.5473 52.9935 45.5785 52.9285 45.6282 52.8791C45.675 52.8331 45.7339 52.8011 45.7981 52.7869C45.8622 52.7726 45.9291 52.7767 45.9911 52.7986C47.1595 53.2414 48.3687 53.2414 49.5975 52.7986C49.7188 52.7584 49.8799 52.7785 49.9604 52.8791C50.0084 52.929 50.0399 52.9924 50.0507 53.0608C50.0615 53.1292 50.0511 53.1992 50.0209 53.2615C49.8093 53.6144 49.6657 54.0038 49.5975 54.4095V61.0966ZM47.8044 48.2294C48.8336 48.2294 49.6785 49.0751 49.6785 50.1221C49.6785 51.169 48.8318 52.0151 47.8044 52.0151C47.5532 52.019 47.3037 51.9728 47.0706 51.8795C46.8374 51.7861 46.6251 51.6473 46.4461 51.4711C46.2671 51.295 46.125 51.085 46.028 50.8534C45.9309 50.6219 45.881 50.3733 45.881 50.1223C45.881 49.8712 45.9309 49.6227 46.028 49.3911C46.125 49.1596 46.2671 48.9496 46.4461 48.7734C46.6251 48.5973 46.8374 48.4585 47.0706 48.3651C47.3037 48.2717 47.5532 48.2256 47.8044 48.2294Z" fill="#F8DCD8"/>
<path d="M54.8163 62.4445C53.7486 62.1825 52.6603 62.2835 51.6731 62.6458C51.6117 62.6749 51.5428 62.6839 51.476 62.6715C51.4093 62.6592 51.3481 62.6261 51.3013 62.577C51.2545 62.5279 51.2243 62.4653 51.2151 62.3981C51.2059 62.3308 51.2182 62.2625 51.2502 62.2026C51.4415 61.8335 51.5837 61.4409 51.6731 61.0349V49.8189C51.5903 49.4109 51.4478 49.0172 51.2502 48.6508C51.2213 48.5894 51.2098 48.5214 51.2169 48.454C51.224 48.3866 51.2495 48.3224 51.2905 48.2684C51.3912 48.1678 51.5321 48.1476 51.6731 48.1879C52.842 48.6306 54.0305 48.6306 55.2598 48.1879C55.4008 48.1476 55.5417 48.1678 55.6424 48.2684C55.6834 48.3224 55.7089 48.3866 55.716 48.454C55.7231 48.5214 55.7116 48.5894 55.6827 48.6508C55.4851 49.0172 55.3426 49.4109 55.2598 49.8189V51.1882C55.8392 51.0015 56.4442 50.9063 57.053 50.9061C60.0351 50.9061 62.4534 53.5446 62.4534 56.8061C62.4534 60.0676 60.0351 62.7071 57.053 62.7071C56.388 62.7071 55.9047 62.6869 55.5216 62.6266C55.2598 62.5854 55.0584 62.4834 54.8163 62.4445ZM55.28 61.0752C55.5613 61.1575 55.8532 61.1982 56.1463 61.1959C58.0608 61.1959 58.8667 59.3838 58.8667 56.6854C58.8667 54.007 58.3427 52.2133 57.053 52.2133C55.7839 52.2133 55.2598 53.7637 55.2598 55.2941V61.0331C55.2598 61.0551 55.2598 61.0752 55.28 61.0752Z" fill="#F8DCD8"/>
<path d="M72.6689 61.397C72.0241 62.1018 71.0579 62.7865 69.0822 62.7865C66.1 62.7865 63.6821 60.0079 63.6821 56.5845C63.6821 53.141 66.0986 50.362 69.0822 50.362C71.7623 50.362 74.019 51.6106 74.019 54.289C74.019 57.813 70.4927 58.8197 69.1023 57.2692C68.6391 56.7858 70.4323 57.39 70.4323 54.2488C70.4323 52.6388 69.8277 51.7314 68.9412 51.7314C67.8533 51.7314 67.289 53.6244 67.289 56.4638C67.289 59.2812 68.0748 61.2159 69.9888 61.2159C71.1577 61.2159 71.9636 60.7932 72.4474 59.5849C72.689 58.9807 73.6158 60.1287 72.6689 61.397Z" fill="#F8DCD8"/>
<path d="M78.2109 60.4707C78.594 60.8535 79.2187 61.1152 80.1052 61.1554C81.556 61.1554 81.999 60.3902 81.9789 59.7659C81.9789 58.88 79.9844 57.9136 79.0773 57.4503C75.8736 55.7992 75.8132 55.1748 75.8132 53.5439C75.8132 51.8726 77.827 50.3418 80.6695 50.3239C83.5103 50.3239 84.9007 51.3525 84.9007 52.4786C84.9007 53.5461 83.853 53.8077 82.2009 53.6668C82.664 52.9419 83.0064 51.6933 80.7501 51.7537C78.6745 51.8141 78.1908 54.3515 80.8507 55.318C83.329 56.224 86.1313 57.0093 85.8682 59.5267C85.7469 60.7341 84.5986 62.527 80.7299 62.6075C80.5062 62.6075 80.2864 62.6075 80.0649 62.5874V62.6075C76.3372 62.527 75.2489 60.4528 75.2288 59.5065V59.4663C75.2288 59.0257 75.4039 58.6031 75.7157 58.2915C76.0275 57.9799 76.4503 57.8049 76.8912 57.8049C77.3321 57.8049 77.755 57.9799 78.0668 58.2915C78.3786 58.6031 78.5537 59.0257 78.5537 59.4663C78.5477 59.8287 78.4277 60.1801 78.2109 60.4707Z" fill="#F8DCD8"/>
<path d="M42.2791 45.593C41.4839 46.2991 40.3794 46.8514 39.0759 46.8514C33.3764 46.8733 31.8965 42.8332 31.9404 39.0802C31.9851 35.2611 32.9791 31.0443 39.0759 30.9781C40.3351 30.9781 41.4176 31.4857 42.2129 32.1704C42.1698 32.0069 42.1028 31.8506 42.0142 31.7066C42.0015 31.6704 41.9969 31.6319 42.0007 31.5937C42.0045 31.5556 42.0166 31.5187 42.0361 31.4857C42.1023 31.441 42.1909 31.4195 42.2571 31.4638V31.4419C42.898 31.6847 43.1848 31.6847 43.8682 31.4419V31.4638C43.903 31.4451 43.9425 31.4372 43.9818 31.4411C44.0211 31.445 44.0584 31.4605 44.0888 31.4857C44.1335 31.5519 44.155 31.6404 44.1112 31.7066C43.9944 31.8967 43.9122 32.106 43.8682 32.3247C43.8015 32.8327 43.6252 35.1948 43.7576 35.261C43.1168 35.1063 42.4541 35.0844 41.7913 35.261C41.7466 33.5169 40.4658 32.7884 39.0964 32.7884C36.8209 32.7884 35.8708 35.283 35.8708 39.0802C35.8932 42.9213 36.3349 44.8202 38.7429 44.8421C40.6649 44.8645 41.1066 42.2152 40.7755 40.6696C40.6807 40.2375 40.5244 39.8213 40.3114 39.4335C40.2695 39.3731 40.2509 39.2994 40.2592 39.2263C40.2674 39.1532 40.3018 39.0856 40.3562 39.036C40.4662 38.9255 40.6211 38.9018 40.7759 38.9465C42.0348 39.4098 42.6313 39.4098 43.9787 38.9465C44.0467 38.9226 44.1201 38.9183 44.1905 38.9341C44.2608 38.9499 44.3253 38.9852 44.3765 39.036C44.4289 39.0863 44.4636 39.1522 44.4755 39.2238C44.4875 39.2954 44.476 39.369 44.4428 39.4335C44.2217 39.8087 44.0454 40.2282 43.9787 40.6696C43.8892 41.9943 43.78 43.297 43.9787 44.8202C43.4278 44.8188 43.4059 44.754 42.2791 45.593Z" fill="#F8DCD8"/>
<path d="M51.7562 33.2297C55.0257 33.2297 57.6767 36.2985 57.6767 40.0515C57.6767 43.8264 55.0257 46.8938 51.7562 46.8938C48.5092 46.8938 45.8582 43.825 45.8582 40.0515C45.8564 36.2985 48.5092 33.2297 51.7562 33.2297ZM51.7562 34.7529C50.3645 34.7529 49.7904 36.8061 49.7904 39.9191C49.7904 43.054 50.3645 45.1515 51.7562 45.1515C53.1704 45.1515 53.7445 42.8779 53.7445 39.7648C53.7445 36.6518 53.1704 34.7529 51.7562 34.7529Z" fill="#F8DCD8"/>
<path d="M64.9449 33.2297C68.2144 33.2297 70.8654 36.2985 70.8654 40.0515C70.8654 43.8264 68.2144 46.8938 64.9449 46.8938C61.6974 46.8938 59.0464 43.825 59.0464 40.0515C59.0464 36.2985 61.6983 33.2297 64.9449 33.2297ZM64.9449 34.7529C63.5532 34.7529 62.979 36.8061 62.979 39.9191C62.979 43.054 63.5532 45.1515 64.9449 45.1515C66.3586 45.1515 66.9332 42.8779 66.9332 39.7648C66.9332 36.6518 66.3586 34.7529 64.9449 34.7529Z" fill="#F8DCD8"/>
<path d="M79.79 46.8069C79.3483 46.8731 78.84 46.8963 78.0895 46.8963C74.842 46.8963 72.1909 44.0042 72.1909 40.4279C72.1909 36.8515 74.842 33.9594 78.0895 33.9594C78.7643 33.9581 79.4352 34.0623 80.0777 34.2684V32.7671C79.9867 32.3199 79.8303 31.8885 79.6137 31.4868C79.5823 31.4194 79.5699 31.3447 79.5778 31.2708C79.5857 31.1969 79.6135 31.1265 79.6584 31.0673C79.769 30.9573 79.9233 30.9331 80.0782 30.9778C81.4256 31.4635 82.7292 31.4635 84.0104 30.9778C84.1648 30.9331 84.3196 30.9559 84.4302 31.0673C84.4751 31.1265 84.503 31.1969 84.5109 31.2708C84.5188 31.3447 84.5063 31.4194 84.4749 31.4868C84.2582 31.8885 84.102 32.3199 84.0113 32.7671V45.0655C84.1008 45.5068 84.2762 45.9487 84.4749 46.3458C84.51 46.4114 84.5235 46.4864 84.5135 46.5601C84.5034 46.6338 84.4703 46.7025 84.419 46.7563C84.3676 46.8101 84.3005 46.8464 84.2273 46.8599C84.1541 46.8734 84.0785 46.8634 84.0113 46.8315C82.9288 46.4344 81.7358 46.3239 80.5655 46.6106C80.2979 46.6521 80.0773 46.7626 79.79 46.8069ZM80.0773 45.0628V38.7709C80.0773 37.093 79.5027 35.3932 78.089 35.3932C76.6973 35.3932 76.1227 37.3578 76.1227 40.2942C76.1227 43.2525 76.9846 45.2394 79.1053 45.2394C79.4267 45.2412 79.7466 45.196 80.0549 45.1053C80.0667 45.0938 80.0745 45.0789 80.0773 45.0628Z" fill="#F8DCD8"/>
<path d="M29.0172 63.9097L29.6907 65.2733L31.1965 65.492L30.1069 66.5536L30.3642 68.0527L29.0172 67.3448L27.6698 68.0527L27.9271 66.5536L26.8374 65.492L28.3437 65.2733L29.0172 63.9097Z" fill="#FFADE3"/>
<path d="M92.9203 27.3273L93.5943 28.6908L95.1001 28.9095L94.0104 29.9712L94.2677 31.4703L92.9203 30.7623L91.5733 31.4703L91.8306 29.9712L90.741 28.9095L92.2468 28.6908L92.9203 27.3273Z" fill="#FFADE3"/>
</g>
<defs>
<filter id="filter0_ddddd_13838_46245" x="0.333008" y="0.156519" width="124" height="98.0008" filterUnits="userSpaceOnUse" color-interpolation-filters="sRGB">
<feFlood flood-opacity="0" result="BackgroundImageFix"/>
<feColorMatrix in="SourceAlpha" type="matrix" values="0 0 0 0 0 0 0 0 0 0 0 0 0 0 0 0 0 0 127 0" result="hardAlpha"/>
<feOffset dx="2" dy="0.156915"/>
<feGaussianBlur stdDeviation="10"/>
<feColorMatrix type="matrix" values="0 0 0 0 0 0 0 0 0 0 0 0 0 0 0 0 0 0 0.1 0"/>
<feBlend mode="normal" in2="BackgroundImageFix" result="effect1_dropShadow_13838_46245"/>
<feColorMatrix in="SourceAlpha" type="matrix" values="0 0 0 0 0 0 0 0 0 0 0 0 0 0 0 0 0 0 127 0" result="hardAlpha"/>
<feOffset dx="0.509975" dy="0.66689"/>
<feGaussianBlur stdDeviation="0.411903"/>
<feColorMatrix type="matrix" values="0 0 0 0 0 0 0 0 0 0 0 0 0 0 0 0 0 0 0.09 0"/>
<feBlend mode="normal" in2="effect1_dropShadow_13838_46245" result="effect2_dropShadow_13838_46245"/>
<feColorMatrix in="SourceAlpha" type="matrix" values="0 0 0 0 0 0 0 0 0 0 0 0 0 0 0 0 0 0 127 0" result="hardAlpha"/>
<feOffset dx="1.09841" dy="1.4907"/>
<feGaussianBlur stdDeviation="0.549204"/>
<feColorMatrix type="matrix" values="0 0 0 0 0 0 0 0 0 0 0 0 0 0 0 0 0 0 0.05 0"/>
<feBlend mode="normal" in2="effect2_dropShadow_13838_46245" result="effect3_dropShadow_13838_46245"/>
<feColorMatrix in="SourceAlpha" type="matrix" values="0 0 0 0 0 0 0 0 0 0 0 0 0 0 0 0 0 0 127 0" result="hardAlpha"/>
<feOffset dx="1.96144" dy="2.62833"/>
<feGaussianBlur stdDeviation="2.5"/>
<feColorMatrix type="matrix" values="0 0 0 0 0 0 0 0 0 0 0 0 0 0 0 0 0 0 0.05 0"/>
<feBlend mode="normal" in2="effect3_dropShadow_13838_46245" result="effect4_dropShadow_13838_46245"/>
<feColorMatrix in="SourceAlpha" type="matrix" values="0 0 0 0 0 0 0 0 0 0 0 0 0 0 0 0 0 0 127 0" result="hardAlpha"/>
<feOffset dx="3.05985" dy="4.11903"/>
<feGaussianBlur stdDeviation="2.5"/>
<feColorMatrix type="matrix" values="0 0 0 0 0 0 0 0 0 0 0 0 0 0 0 0 0 0 0.03 0"/>
<feBlend mode="normal" in2="effect4_dropShadow_13838_46245" result="effect5_dropShadow_13838_46245"/>
<feBlend mode="normal" in="SourceGraphic" in2="effect5_dropShadow_13838_46245" result="shape"/>
</filter>
</defs>
</svg>
