<svg width="91" height="91" viewBox="0 0 91 91" fill="none" xmlns="http://www.w3.org/2000/svg">
    <path
        d="M69.1867 69.1881C82.2693 56.1055 82.2693 34.8945 69.1867 21.8119C56.1042 8.72936 34.8931 8.72936 21.8106 21.8119C8.72801 34.8945 8.72801 56.1055 21.8106 69.1881C34.8931 82.2706 56.1042 82.2706 69.1867 69.1881Z"
        fill="#DD7907" stroke="white" stroke-width="4" />
    <path
        d="M45.4998 75.5289C62.0843 75.5289 75.5287 62.0845 75.5287 45.5C75.5287 28.9155 62.0843 15.4711 45.4998 15.4711C28.9153 15.4711 15.4709 28.9155 15.4709 45.5C15.4709 62.0845 28.9153 75.5289 45.4998 75.5289Z"
        fill="#FFDD68" />
    <path
        d="M23.4151 47.5861C23.7212 51.8993 24.3766 56.1806 25.3746 60.3879C25.4343 60.4275 25.5013 60.4545 25.5718 60.4673C25.7601 60.4909 25.7748 60.1908 25.6306 59.5464C24.489 54.4828 24.0889 49.4485 23.9947 44.2731C24.274 43.682 24.6751 43.1566 25.1716 42.7313C25.5915 42.3218 26.0927 42.005 26.6428 41.8015C27.6755 41.475 28.4317 41.8663 28.9407 42.9196C29.4497 43.9729 29.7233 45.4411 29.7939 47.233C29.8322 48.2334 29.7498 50.5136 29.7557 53.8384C29.7815 58.0016 30.0655 62.1591 30.606 66.2872C30.8532 67.9496 30.8178 68.9764 30.4854 69.3589C30.1911 69.6884 29.6762 69.5766 28.9201 69.0647C28.3714 68.6689 27.8576 68.2269 27.3842 67.7436C26.834 67.2022 26.2956 66.6314 25.7689 66.04C23.9675 63.6821 22.2976 61.2264 20.767 58.6843C19.0635 55.8568 17.5305 52.7674 16.842 49.3956C17.0091 48.5095 17.3515 47.6658 17.8492 46.914C18.3469 46.1621 18.9898 45.5173 19.7402 45.0175C21.6203 43.8553 22.7442 44.7968 23.4151 47.5861Z"
        fill="#DD7907" />
    <path
        d="M36.42 46.365C36.52 54.6858 36.8966 62.983 37.8646 71.2537C37.7123 71.7188 37.4256 72.1283 37.0408 72.4306C36.6877 72.6925 36.2317 72.7249 35.6668 72.5248C35.1019 72.3247 34.5575 71.7892 34.0103 70.9713C33.3425 69.9435 32.879 68.7967 32.6451 67.5935C30.9856 59.6053 30.3118 51.5346 30.1265 43.3933C30.4105 42.7007 30.8295 42.0716 31.3593 41.5426C31.5936 41.2873 31.8809 41.0862 32.2011 40.9535C32.5213 40.8209 32.8666 40.7599 33.2129 40.7747C34.0426 40.7747 34.8047 41.2837 35.4196 42.2135C36.1052 43.2609 36.4141 44.6879 36.42 46.365Z"
        fill="#DD7907" />
    <path
        d="M37.2439 45.3882C37.2639 44.9355 37.414 44.4983 37.6764 44.1289C38.2649 43.2168 39.327 42.6578 40.6746 42.6842C41.4735 42.7255 42.2494 42.9663 42.9313 43.3845C44.835 44.4555 46.2443 46.3827 47.1917 48.6806C48.0498 50.7838 48.4963 53.0322 48.5069 55.3037C48.5188 56.1281 48.4598 56.952 48.3304 57.7663C48.2672 58.356 48.0796 58.9256 47.7802 59.4375C47.5629 59.0517 47.2307 58.7432 46.8298 58.5549C46.7737 58.5286 46.7102 58.523 46.6504 58.5392C46.5906 58.5553 46.5384 58.5922 46.5032 58.6431C46.4046 58.8574 46.365 59.094 46.3885 59.3287C47.333 59.7318 48.0244 60.6998 48.5216 62.1827C48.9882 63.6703 49.1981 65.2264 49.1425 66.7844C49.0924 69.456 48.5128 71.2508 47.4771 72.4277C46.5091 73.5281 45.0733 74.143 43.1991 73.9842C42.2086 73.9376 41.2356 73.7061 40.3303 73.3016C39.6576 72.9183 39.1473 72.3033 38.8945 71.5715C38.4668 70.3764 38.2141 69.1258 38.1442 67.8583C37.5617 60.3703 37.2792 52.9028 37.2439 45.3882ZM42.8342 56.8631C42.8578 56.919 42.9343 56.969 43.0549 57.0131C43.1755 57.0573 43.2726 56.9719 43.3491 56.7601C43.4255 56.3906 43.4551 56.013 43.4374 55.6361V55.4861C43.4461 55.0645 43.4166 54.643 43.3491 54.2268C43.2932 53.9561 43.202 53.7943 43.0755 53.7443C42.949 53.6942 42.8636 53.6913 42.8195 53.7443C42.8195 53.8296 42.8195 53.9679 42.8195 54.1591C42.8342 55.2507 42.8342 55.7803 42.8519 56.8631H42.8342ZM42.9578 65.5134C42.9813 65.5634 43.0549 65.6016 43.1726 65.6281C43.2903 65.6546 43.3785 65.5781 43.4374 65.4015C43.5111 65.0765 43.5368 64.7425 43.5139 64.41C43.5139 64.2423 43.5139 64.157 43.5139 63.9893C43.518 63.585 43.4855 63.1813 43.4168 62.7829C43.3609 62.5269 43.2697 62.3828 43.1461 62.3475C43.0225 62.3122 42.9372 62.321 42.896 62.371C42.896 62.4475 42.896 62.577 42.896 62.7594C42.9401 63.8745 42.9519 64.4247 42.9755 65.5134H42.9578Z"
        fill="#DD7907" />
    <path
        d="M53.7884 50.0723C55.9215 50.9207 58.1924 51.3695 60.4879 51.3963C60.7291 51.9913 60.9 52.6124 60.9969 53.247C61.0917 53.8305 61.1321 54.4215 61.1176 55.0124C61.0764 56.1657 60.8704 57.0278 60.5438 57.6192C60.4269 57.8784 60.241 58.1005 60.0065 58.2614C59.772 58.4222 59.4978 58.5156 59.2139 58.5313C57.7425 58.5889 56.2693 58.4833 54.8211 58.2165C54.5651 58.1753 54.4386 58.3313 54.4357 58.6902C54.4357 58.7491 54.4357 58.7785 54.4357 58.8403C54.4315 58.8912 54.4385 58.9424 54.4563 58.9903C56.1582 59.3058 57.8939 59.3997 59.62 59.2698C59.7487 59.6784 59.8258 60.1014 59.8495 60.5291C59.8811 61.0132 59.8634 61.4992 59.7965 61.9797C59.675 63.0167 59.3575 64.0212 58.8608 64.9396C57.9782 65.0838 57.5574 65.1397 56.71 65.2103C56.0335 65.2357 55.3617 65.3344 54.7064 65.5045C54.468 65.5765 54.2447 65.6912 54.0473 65.8429C53.9547 65.9525 53.9027 66.0907 53.9002 66.2342C53.8905 66.2991 53.8943 66.3653 53.9116 66.4286C53.9288 66.4919 53.959 66.551 54.0002 66.602C54.3279 66.4029 54.6841 66.255 55.0565 66.1636C55.5718 66.0521 56.0936 65.9735 56.6188 65.9282C57.5396 65.8455 58.4538 65.701 59.3551 65.4957C59.5493 66.2607 59.467 67.1934 59.1256 68.2938C58.9348 68.9057 58.6968 69.5018 58.4136 70.0768C58.1703 70.5818 57.8828 71.0642 57.5545 71.5185C55.6771 72.3806 53.6962 72.9967 51.6611 73.3516C51.3531 73.4273 51.0286 73.3968 50.7401 73.2648C50.4517 73.1329 50.2164 72.9074 50.0723 72.6248C49.6545 71.954 49.4514 70.8595 49.4838 69.3442C49.6456 62.8947 49.6309 56.46 49.4838 50.0105C49.4632 49.3073 49.778 48.9748 50.4577 49.019C51.1374 49.0631 52.1966 49.478 53.7884 50.0723Z"
        fill="#DD7907" />
    <path
        d="M64.7217 64.4129C64.9311 64.2652 65.0943 64.0612 65.1925 63.8245C65.2993 63.5819 65.3658 63.3235 65.3896 63.0595C65.4174 62.8199 65.3776 62.5774 65.2749 62.3592C65.0042 61.8443 64.3598 61.7384 63.4154 62.0385C62.9099 62.2071 62.4378 62.463 62.0207 62.7947C61.6706 62.5623 61.4323 62.0827 61.3028 61.3442C61.1648 60.5006 61.147 59.6418 61.2499 58.7932C61.5176 56.2923 62.2296 54.2121 63.6037 52.6144C64.7574 51.3001 66.2682 50.3494 67.9524 49.8781C69.2381 49.4838 70.3062 49.2573 71.1742 49.2896C72.0421 49.322 72.6983 49.4691 73.1631 49.8075C73.2362 50.4893 73.2015 51.1784 73.0602 51.8494C72.9156 52.5719 72.6977 53.2778 72.4099 53.9561C72.1605 54.5592 71.8479 55.1342 71.4772 55.6714C71.3389 55.5508 71.0212 55.5214 70.5121 55.5596C69.996 55.5967 69.4903 55.7232 69.0175 55.9333C68.6643 56.0713 68.3309 56.2553 68.0259 56.4806C67.9117 56.5734 67.8203 56.6911 67.7586 56.8247C67.6969 56.9584 67.6665 57.1043 67.6699 57.2514C67.9547 57.0494 68.2605 56.8787 68.582 56.7424C69.8501 56.1834 70.7799 56.0922 71.2301 56.5394C71.7567 57.069 71.4949 58.3783 70.3209 60.3379C69.2823 62.065 67.8612 63.695 66.3724 65.2603C64.7688 66.9433 63.4301 68.2202 62.1826 69.1118C61.6687 69.5059 61.0984 69.8204 60.4908 70.0445C60.0494 70.1798 59.4168 70.1004 59.3138 69.9062C59.1285 69.556 59.4286 68.2467 59.7346 67.2052C60.0222 66.1728 60.4958 65.2016 61.1322 64.3394C61.7765 63.4891 62.4503 62.9624 63.1388 62.7388C63.8273 62.5152 64.3304 62.524 64.6099 62.78C64.8895 63.036 64.9395 63.592 64.7217 64.4129Z"
        fill="#DD7907" />
    <path
        d="M26.6017 27.4845C28.3293 26.6012 30.1488 25.9105 32.0273 25.4249C32.2209 26.3785 32.2418 27.3591 32.0891 28.3201C31.9926 29.3942 31.7542 30.4509 31.38 31.4624L31.0004 31.533C30.8898 33.1981 30.8741 34.8681 30.9533 36.5349C29.8058 38.6445 28.2641 39.8332 25.7985 40.6776C24.4115 41.1835 22.9398 41.4163 21.4645 41.3632C20.0198 41.2661 18.8694 40.7747 18.3104 39.7067C17.6954 38.5298 17.822 36.6702 18.8253 34.3252C20.164 31.1976 22.306 28.4407 24.6127 25.9309C26.5752 23.8154 28.1229 22.3325 29.6234 21.3557C30.3619 20.8673 30.9798 20.6025 31.5271 20.5907C31.7638 20.5674 32.0023 20.61 32.2162 20.7139C32.4302 20.8177 32.6112 20.9788 32.7393 21.1792C32.5745 21.6793 32.3421 22.3237 32.0537 23.1269C31.7654 23.9302 31.5182 24.5922 31.2917 25.0541C29.6407 25.5524 28.0424 26.2107 26.5193 27.0196C26.1387 27.5355 25.7974 28.0794 25.4984 28.6466C25.1081 29.3494 24.8114 30.1002 24.6157 30.8798C24.345 31.9891 24.4038 32.7982 24.7128 33.2778C25.0217 33.7574 25.4366 33.8398 25.9897 33.6309C26.0922 33.6007 26.1829 33.5395 26.2493 33.4557C26.3156 33.372 26.3545 33.2697 26.3604 33.163C26.3604 33.0189 26.381 32.9483 26.3957 32.8041L26.2781 32.8482C26.097 32.9416 25.8868 32.9613 25.6915 32.9032C25.4963 32.845 25.3311 32.7136 25.2306 32.5363C24.9982 32.148 24.9746 31.4801 25.1924 30.5474C25.4502 29.4416 25.9296 28.3996 26.6017 27.4845Z"
        fill="#DD7907" />
    <path
        d="M39.6741 40.6276C38.2895 40.0819 37.0132 39.2938 35.9051 38.3003C34.5959 37.1636 33.5566 35.7494 32.8628 34.1605C32.1066 32.4598 32.1949 30.3708 32.4185 28.0611C32.6715 25.4984 33.9161 22.206 35.5932 20.2229C36.979 18.5782 38.3384 17.4336 39.9272 17.1218C41.6572 16.7834 43.046 17.5307 44.0934 19.6874C45.4969 22.5738 45.8 26.0251 45.8264 29.1969C45.8529 32.5099 45.7382 36.4113 44.1052 39.3242C43.1284 41.0689 41.6925 41.3632 39.6741 40.6276ZM39.7801 27.0931C39.811 26.3017 39.8012 25.5092 39.7506 24.7187C39.7065 24.295 39.6065 24.0861 39.4564 24.0832C39.4009 24.0851 39.3466 24.1006 39.2984 24.1283C39.2502 24.156 39.2095 24.1951 39.1798 24.2421C39.1798 24.4421 39.1798 24.7069 39.2063 25.0424C39.2328 25.3778 39.2063 26.0928 39.1798 27.2285C39.1798 27.6786 39.1798 27.9081 39.1592 28.3671C39.1592 29.1674 39.1357 29.7618 39.1151 30.1325C39.0945 30.5032 39.0769 30.821 39.0651 31.0858C39.0651 31.2329 39.0651 31.38 39.0445 31.5242C39.0745 31.5817 39.1162 31.6323 39.1669 31.6728C39.2175 31.7133 39.276 31.7429 39.3387 31.7596C39.5094 31.789 39.633 31.5801 39.68 31.1299C39.754 30.3014 39.7864 29.4696 39.7771 28.6378C39.7654 28.0111 39.7712 27.7022 39.7801 27.0902V27.0931Z"
        fill="#DD7907" />
    <path
        d="M52.4026 47.7302C51.2257 47.1683 50.2547 45.9649 49.3632 44.2584C48.4717 42.5518 47.7567 40.3569 47.1712 37.8324C46.5664 35.0394 46.2606 32.1899 46.2591 29.3322C46.2356 26.1251 46.4651 22.5267 47.9921 19.6403C48.9719 17.7838 50.2606 16.9364 51.8347 17.2865C53.5442 17.669 54.9977 19.299 56.4129 22.1942C58.1547 25.7603 58.9462 29.4999 59.4052 33.3749C59.873 37.2999 59.4523 41.9075 57.4927 45.3646C56.1422 47.742 54.2886 48.6365 52.4026 47.7302ZM53.0646 30.5915C53.0532 29.5601 52.9893 28.53 52.8734 27.505C52.791 26.9401 52.6733 26.6371 52.5173 26.59C52.4232 26.5635 52.3379 26.6076 52.2672 26.7283C52.2908 26.9931 52.3231 27.3462 52.3643 27.7934C52.4055 28.2406 52.4555 29.1763 52.4879 30.6474C52.4879 31.2358 52.5056 31.5301 52.5144 32.1185C52.532 33.1542 52.5144 33.9133 52.5144 34.387C52.5144 34.8607 52.4791 35.2697 52.4673 35.6051C52.4673 35.7905 52.4526 35.9758 52.4467 36.1612C52.4906 36.3043 52.5874 36.4253 52.7174 36.4996C52.8792 36.5614 52.991 36.3054 53.0528 35.7375C53.1284 34.684 53.149 33.6273 53.1146 32.5716C53.094 31.7743 53.0852 31.3771 53.0646 30.5915Z"
        fill="#DD7907" />
    <path
        d="M63.5478 48.9336C63.0523 49.0022 62.548 48.9064 62.1122 48.6608C61.6764 48.4153 61.3332 48.0336 61.1351 47.5743C60.6673 46.5857 60.4554 45.0851 60.4525 43.1609C60.3416 36.359 59.6645 29.5781 58.4282 22.8886C58.2164 21.8647 58.4694 21.1733 59.0814 20.8879C59.6934 20.6025 60.3936 20.7731 61.2881 21.3469C62.8593 22.3649 64.5246 24.1479 66.4341 26.1928C68.7262 28.6202 70.8122 31.3594 72.1833 34.3488C73.2573 36.7026 73.5662 40.3392 72.6129 42.796C71.6596 45.2528 69.8472 47.5596 66.9667 48.3128C65.8483 48.6235 64.7039 48.8313 63.5478 48.9336ZM66.5548 33.2484C66.328 32.3333 66.039 31.4348 65.6897 30.5591C65.4838 30.0707 65.3014 29.8118 65.1484 29.7824C65.0542 29.7647 64.9895 29.8118 64.9512 29.9265C65.0365 30.1619 65.1484 30.4767 65.2896 30.8739C65.4308 31.2712 65.6868 32.1097 66.0075 33.4308C66.134 33.9575 66.1958 34.2223 66.3017 34.7578C66.5047 35.6875 66.6224 36.376 66.6783 36.8173C66.7342 37.2587 66.7784 37.6265 66.8137 37.9384C66.8343 38.109 66.8549 38.2797 66.8725 38.4503C66.909 38.5072 66.959 38.5542 67.018 38.587C67.0771 38.6199 67.1433 38.6376 67.2109 38.6386C67.3904 38.621 67.4698 38.3444 67.4463 37.8207C67.363 36.8681 67.2046 35.9237 66.9726 34.9961C66.8225 34.3017 66.7372 33.9398 66.5548 33.2484Z"
        fill="#DD7907" />
</svg>