<svg width="90" height="109" viewBox="0 0 90 109" fill="none" xmlns="http://www.w3.org/2000/svg">
<g filter="url(#filter0_ddddd_13838_46151)">
<path d="M38.4679 48.3172C38.0307 47.1422 37.574 45.8653 37.1012 44.5435C36.5984 43.1377 36.0775 41.6811 35.5425 40.2425C34.0384 36.1974 32.4226 32.2889 30.7522 29.8505L30.7456 29.8408L30.7457 29.8408L30.7212 29.8032C29.7493 28.4025 27.5334 29.2032 27.6846 30.9023L27.6847 30.9029C28.0445 34.9994 29.1605 39.0188 30.5299 43.0321C31.1774 44.93 31.8795 46.8206 32.5836 48.7167C32.6238 48.8251 32.6641 48.9335 32.7043 49.0419C33.4477 51.0444 34.1898 53.053 34.8623 55.0684M38.4679 48.3172L34.8625 55.0689C34.8624 55.0687 34.8624 55.0685 34.8623 55.0684M38.4679 48.3172C38.9322 49.5733 39.3263 50.5777 39.602 51.209L40.5429 50.8048C40.1983 49.989 39.838 49.0614 39.4626 48.0548C38.4535 45.3317 37.0875 41.347 35.8884 37.4193C35.0266 34.5963 34.2552 31.8161 33.7661 29.566C33.5213 28.44 33.3497 27.4577 33.2714 26.6745C33.1903 25.8632 33.22 25.352 33.3089 25.1097L33.3089 25.1097L33.3107 25.1048C33.3736 24.9275 33.4781 24.7679 33.6153 24.6392C33.7525 24.5106 33.9184 24.4166 34.0993 24.3651L33.9592 23.8726L34.0993 24.3651C34.2802 24.3136 34.4709 24.3061 34.6553 24.3433C34.8389 24.3802 35.0112 24.4604 35.1577 24.5772C35.9052 25.188 36.5242 26.0825 37.0835 26.9972L37.0835 26.9972C38.5959 29.4703 40.0698 33.3174 41.4547 37.3077C41.5337 37.641 41.615 37.9744 41.6983 38.3069C42.7074 42.3357 44.0347 46.3077 45.4585 48.8065L46.3786 48.3624C45.6183 46.4669 44.7833 43.9724 43.883 41.2828C43.4491 39.9865 43 38.6449 42.5368 37.3033C42.5044 37.2092 42.4718 37.1152 42.4392 37.0211C41.5746 33.3635 40.9852 29.7336 40.8429 27.1787C40.7721 25.9061 42.487 25.4528 43.0609 26.5568L43.0725 26.5792L43.0863 26.6004L43.0863 26.6004L43.0864 26.6005L43.0864 26.6006L43.0864 26.6006L43.0865 26.6007L43.0865 26.6008L43.0866 26.6008L43.0866 26.6009L43.0867 26.601L43.0867 26.6011L43.0868 26.6011L43.0868 26.6012L43.0869 26.6013L43.0869 26.6013L43.0869 26.6014L43.087 26.6015L43.087 26.6015L43.0871 26.6016L43.0871 26.6017L43.0872 26.6017L43.0872 26.6018L43.0873 26.6019L43.0873 26.602L43.0873 26.602L43.0874 26.6021L43.0874 26.6022L43.0875 26.6022L43.0875 26.6023L43.0876 26.6024L43.0876 26.6024L43.0877 26.6025L43.0877 26.6026L43.0878 26.6027L43.0878 26.6027L43.0878 26.6028L43.0879 26.6029L43.0879 26.6029L43.088 26.603L43.088 26.6031L43.0881 26.6031L43.0881 26.6032L43.0882 26.6033L43.0882 26.6033L43.0883 26.6034L43.0883 26.6035L43.0883 26.6036L43.0884 26.6036L43.0884 26.6037L43.0885 26.6038L43.0885 26.6038L43.0886 26.6039L43.0886 26.604L43.0887 26.604L43.0887 26.6041L43.0888 26.6042L43.0888 26.6043L43.0888 26.6043L43.0889 26.6044L43.0889 26.6045L43.089 26.6045L43.089 26.6046L43.0891 26.6047L43.0891 26.6047L43.0892 26.6048L43.0892 26.6049L43.0893 26.605L43.0893 26.605L43.0894 26.6051L43.0894 26.6052L43.0894 26.6052L43.0895 26.6053L43.0895 26.6054L43.0896 26.6054L43.0896 26.6055L43.0897 26.6056L43.0897 26.6057L43.0898 26.6057L43.0898 26.6058L43.0899 26.6059L43.0899 26.6059L43.0899 26.606L43.09 26.6061L43.09 26.6062L43.0901 26.6062L43.0901 26.6063L43.0902 26.6064L43.0902 26.6064L43.0903 26.6065L43.0903 26.6066L43.0904 26.6066L43.0904 26.6067L43.0905 26.6068L43.0905 26.6069L43.0905 26.6069L43.0906 26.607L43.0906 26.6071L43.0907 26.6071L43.0907 26.6072L43.0908 26.6073L43.0908 26.6073L43.0909 26.6074L43.0909 26.6075L43.091 26.6076L43.091 26.6076L43.0911 26.6077L43.0911 26.6078L43.0911 26.6078L43.0912 26.6079L43.0912 26.608L43.0913 26.6081L43.0913 26.6081L43.0914 26.6082L43.0914 26.6083L43.0915 26.6083L43.0915 26.6084L43.0916 26.6085L43.0916 26.6086L43.0917 26.6086L43.0917 26.6087L43.0917 26.6088L43.0918 26.6088L43.0918 26.6089L43.0919 26.609L43.0919 26.6091L43.092 26.6091L43.092 26.6092L43.0921 26.6093L43.0921 26.6093L43.0922 26.6094L43.0922 26.6095L43.0923 26.6095L43.0923 26.6096L43.0923 26.6097L43.0924 26.6098L43.0924 26.6098L43.0925 26.6099L43.0925 26.61L43.0926 26.61L43.0926 26.6101L43.0927 26.6102L43.0927 26.6103L43.0928 26.6103L43.0928 26.6104L43.0929 26.6105L43.0929 26.6105L43.093 26.6106L43.093 26.6107L43.093 26.6108L43.0931 26.6108L43.0931 26.6109L43.0932 26.611L43.0932 26.611L43.0933 26.6111L43.0933 26.6112L43.0934 26.6113L43.0934 26.6113L43.0935 26.6114L43.0935 26.6115L43.0936 26.6115L43.0936 26.6116L43.0937 26.6117L43.0937 26.6118L43.0937 26.6118L43.0938 26.6119L43.0938 26.612L43.0939 26.6121L43.0939 26.6121L43.094 26.6122L43.094 26.6123L43.0941 26.6123L43.0941 26.6124L43.0942 26.6125L43.0942 26.6126L43.0943 26.6126L43.0943 26.6127L43.0944 26.6128L43.0944 26.6128L43.0944 26.6129L43.0945 26.613L43.0945 26.6131L43.0946 26.6131L43.0946 26.6132L43.0947 26.6133L43.0947 26.6133L43.0948 26.6134L43.0948 26.6135L43.0949 26.6136L43.0949 26.6136L43.095 26.6137L43.095 26.6138L43.0951 26.6138L43.0951 26.6139L43.0952 26.614L43.0952 26.6141L43.0952 26.6141L43.0953 26.6142L43.0953 26.6143L43.0954 26.6144L43.0954 26.6144L43.0955 26.6145L43.0955 26.6146L43.0956 26.6146C44.3651 29.1067 45.8079 33.0405 47.1883 37.0453C47.6918 38.506 48.187 39.9761 48.6611 41.384C49.3305 43.3711 49.9579 45.234 50.5078 46.7707C50.6358 47.1475 50.7601 47.4888 50.8783 47.7866L51.834 47.419C51.7182 47.108 51.5982 46.7782 51.4741 46.4318C50.7742 44.3685 49.9439 41.1552 49.4106 38.215C49.097 36.4862 48.891 34.8775 48.8701 33.6679C48.8597 33.0596 48.8968 32.5818 48.977 32.2495C49.0569 31.9186 49.1469 31.8594 49.1461 31.8581C49.1461 31.858 49.146 31.8581 49.1458 31.8581C49.5041 31.7143 49.9146 31.7442 50.4136 32.0001C50.9244 32.2621 51.4888 32.7441 52.0909 33.4308C53.2926 34.8016 54.5459 36.8732 55.7364 39.2191C58.1133 43.903 60.1757 49.551 61.0288 52.5094C62.9984 59.3421 64.6132 66.2382 63.9095 73.1409L63.9095 73.141C63.3348 78.7904 59.1356 82.4889 53.8024 83.9487C48.4615 85.4105 42.0818 84.5888 37.3492 81.2665L37.3491 81.2665C36.124 80.4069 34.1613 78.6563 32.2985 76.5014C30.4327 74.3431 28.7079 71.8256 27.9099 69.4376C27.5911 68.4836 27.0469 67.1095 26.4144 65.5122C26.2136 65.0051 26.0038 64.4755 25.7895 63.9297C24.8953 61.6519 23.9129 59.0693 23.1321 56.5804C22.3488 54.0833 21.7806 51.7175 21.695 49.8643C21.607 47.9582 22.0344 46.8673 22.9049 46.4867C23.2934 46.3173 23.6511 46.3131 24.0031 46.4313C24.3695 46.5543 24.7547 46.8193 25.1545 47.2298C25.9589 48.0559 26.7194 49.3623 27.4238 50.8361C28.039 52.1233 28.5928 53.497 29.088 54.725C29.1564 54.8949 29.2238 55.0619 29.29 55.2256C29.5609 55.8949 29.8145 56.5107 30.0476 57.0184C30.2754 57.5145 30.503 57.9515 30.7287 58.2346C32.4497 60.3943 35.8606 58.6297 35.141 55.9855M38.4679 48.3172L35.141 55.9855M34.8623 55.0684C34.9615 55.3643 35.0565 55.6712 35.141 55.9855M34.8623 55.0684C34.8623 55.0683 34.8623 55.0683 34.8623 55.0682L35.141 55.9855" fill="#3F9672" stroke="#26103D" stroke-width="1.02403"/>
<path d="M62.9621 51.9516L62.9621 51.9518C64.938 58.8063 66.6572 66.0262 65.9112 73.3443L62.9621 51.9516ZM62.9621 51.9516C62.0775 48.884 59.9705 43.1164 57.5306 38.3083C56.3165 35.9159 54.9729 33.6659 53.6038 32.1041C52.9225 31.3271 52.1626 30.6357 51.3318 30.2095C50.4707 29.7679 49.4354 29.5699 48.3873 29.9942L48.387 29.9944M62.9621 51.9516L48.387 29.9944M48.387 29.9944C47.763 30.2472 47.4173 30.737 47.2215 31.1773C46.4243 29.0701 45.6274 27.1476 44.8751 25.6751L44.8391 25.6046M48.387 29.9944L44.8391 25.6046M44.8391 25.6046L44.807 25.5553M44.8391 25.6046L44.807 25.5553M44.807 25.5553C43.3632 22.92 39.6689 23.6799 38.9505 26.1976C38.9004 26.1129 38.8502 26.0294 38.7999 25.9472M44.807 25.5553L38.7999 25.9472M38.7999 25.9472C38.8 25.9472 38.8 25.9473 38.8 25.9473L37.5203 26.7298L38.7999 25.9472ZM38.7999 25.9472C38.2266 25.0095 37.4594 23.8584 36.4278 23.0164L36.4221 23.0118L36.4163 23.0071C36.019 22.6893 35.5514 22.471 35.0525 22.3705C34.5537 22.2701 34.038 22.2903 33.5486 22.4296C33.0591 22.5689 32.6101 22.8233 32.2389 23.1714C31.8695 23.5178 31.5878 23.9472 31.4172 24.424C31.1566 25.1415 31.1888 26.0682 31.2693 26.8743C31.2941 27.1219 31.3266 27.383 31.366 27.6559C28.9986 26.0825 25.3921 27.8244 25.6804 31.0787C26.061 35.4119 27.236 39.6086 28.6256 43.6815C29.2822 45.6058 29.993 47.5198 30.6948 49.4098C30.7359 49.5206 30.777 49.6313 30.8181 49.7419C31.5625 51.7469 32.2934 53.7261 32.9539 55.7055L32.9546 55.7073C33.0439 55.9738 33.1264 56.2411 33.1982 56.5083L33.1995 56.5132C33.249 56.6947 33.2198 56.8051 33.1846 56.8773C33.1418 56.9653 33.0575 57.0567 32.9347 57.1195C32.8119 57.1822 32.6906 57.1959 32.598 57.1795C32.5229 57.1663 32.4189 57.1269 32.3021 56.9804L32.3019 56.98C32.2443 56.9078 32.1032 56.6731 31.8761 56.1785C31.6646 55.7179 31.4267 55.1416 31.1551 54.4704C31.0903 54.3103 31.0237 54.1453 30.9556 53.9762C30.4627 52.7534 29.8837 51.3168 29.2391 49.9681C28.5173 48.4579 27.6418 46.8998 26.596 45.8259C26.0659 45.2815 25.4183 44.7836 24.6434 44.5235C23.8262 44.2492 22.9534 44.2702 22.1006 44.6422L22.0997 44.6426C19.9427 45.585 19.5943 47.991 19.6851 49.9568C19.7831 52.0784 20.4169 54.6466 21.2123 57.1823C22.0153 59.7419 23.0194 62.379 23.9167 64.6646C24.1419 65.2384 24.3588 65.7862 24.5637 66.3036C25.1885 67.8815 25.7019 69.1779 26.0016 70.075C26.9208 72.8257 28.8401 75.577 30.7764 77.8169C32.7217 80.0672 34.8044 81.9385 36.1935 82.9132C41.4646 86.6133 48.4737 87.4929 54.3335 85.889C60.2159 84.279 65.2284 80.0544 65.9111 73.3447L38.7999 25.9472Z" fill="#3F9672" stroke="white" stroke-width="3"/>
<path d="M51.4669 70.7599C51.8265 71.4544 52.1187 72.1843 52.2974 72.9584L52.2975 72.9588C52.3906 73.364 52.4293 73.848 52.3378 74.2923C52.2455 74.7399 52.0065 75.1987 51.5048 75.4313C50.9668 75.6808 50.4349 75.5336 50.0221 75.2794C49.6124 75.0271 49.2639 74.6404 49.0173 74.2765L49.0169 74.2758C48.1312 72.9631 47.5377 71.4841 47.2667 69.9383C46.4208 71.7288 45.0633 73.2784 43.3814 74.3269C43.2155 74.4306 43.008 74.5479 42.7806 74.6198C42.5501 74.6926 42.2728 74.7269 41.9867 74.6302L51.4669 70.7599ZM51.4669 70.7599C52.1957 71.2495 52.9828 71.6552 53.8141 71.9659L53.8153 71.9663C54.2902 72.1422 54.863 72.316 55.4605 72.2468C56.0594 72.1774 56.7297 71.8078 56.9512 71.1335C57.0943 70.6987 57.0118 70.2741 56.849 69.9182C56.6872 69.5647 56.4349 69.2511 56.1842 69.0031C55.323 68.151 54.2749 67.5786 53.163 67.1617C54.7258 66.8412 56.17 66.0419 57.1153 64.7242C57.3831 64.3528 57.7142 63.759 57.534 63.1316L57.534 63.1315C57.3738 62.5741 56.918 62.2886 56.4698 62.1619C56.025 62.0362 55.5235 62.0431 55.1077 62.1084L55.1071 62.1085C53.8087 62.3146 52.5633 62.7458 51.4245 63.3767C52.0188 62.2883 52.4208 61.0984 52.6056 59.859L52.6057 59.858C52.6837 59.3263 52.7324 58.6837 52.4934 58.0865C52.2542 57.4889 51.6366 56.9102 50.8718 56.9713L50.8717 56.9713C50.2244 57.0231 49.7609 57.5069 49.4752 57.8889L49.4751 57.8889C48.6796 58.9531 48.3293 60.2172 48.1819 61.5066C47.7369 60.2457 47.1416 59.0393 46.4064 57.914L46.4062 57.9138C46.2506 57.676 46.0378 57.4008 45.7732 57.1987C45.5054 56.9944 45.1409 56.8345 44.7198 56.9318C44.2671 57.0363 44.0044 57.3768 43.8681 57.7141C43.7333 58.0481 43.6976 58.4288 43.7158 58.7513C43.806 60.3515 44.5252 61.7706 45.4446 63.0444C44.3078 62.3838 43.0786 61.8794 41.7398 61.7907C41.4966 61.7746 41.198 61.795 40.9319 61.8961C40.6624 61.9985 40.3636 62.2132 40.286 62.6088L40.2858 62.6098C40.2007 63.0494 40.4657 63.4172 40.6115 63.6025L40.6116 63.6026C41.3367 64.5239 42.3112 65.1333 43.385 65.5147C42.028 65.7491 40.7211 66.1981 39.6134 67.0626C39.4468 67.1915 39.2583 67.363 39.1184 67.573C38.9765 67.7859 38.8663 68.0675 38.9197 68.3912M51.4669 70.7599L38.9196 68.3908C38.9197 68.3909 38.9197 68.391 38.9197 68.3912M38.9197 68.3912C38.9831 68.7766 39.2414 69.0265 39.5 69.1763C39.7556 69.3244 40.0517 69.4013 40.3011 69.4387L40.3014 69.4388C41.4392 69.6089 42.5672 69.4916 43.6597 69.2124C43.6029 69.2579 43.5463 69.3037 43.49 69.3498C42.4111 70.232 41.2095 71.4544 41.1243 73.0391L41.1243 73.0391C41.109 73.3229 41.1481 73.6447 41.2706 73.9312C41.3941 74.2202 41.619 74.5059 41.9865 74.6301L38.9197 68.3912Z" fill="#F8DCD8" stroke="#26103D" stroke-width="0.838878"/>
<path d="M49.6854 65.2178C50.6784 66.1467 50.7302 67.7051 49.8008 68.6986C48.8714 69.692 47.313 69.7441 46.3201 68.8151C45.3271 67.8862 45.2753 66.3278 46.2047 65.3343C47.1341 64.3409 48.6924 64.2888 49.6854 65.2178Z" fill="#3F9672" stroke="#26103D" stroke-width="0.411818"/>
</g>
<defs>
<filter id="filter0_ddddd_13838_46151" x="0.172607" y="0.964594" width="89.4163" height="107.347" filterUnits="userSpaceOnUse" color-interpolation-filters="sRGB">
<feFlood flood-opacity="0" result="BackgroundImageFix"/>
<feColorMatrix in="SourceAlpha" type="matrix" values="0 0 0 0 0 0 0 0 0 0 0 0 0 0 0 0 0 0 127 0" result="hardAlpha"/>
<feOffset dx="2" dy="0.156915"/>
<feGaussianBlur stdDeviation="10"/>
<feColorMatrix type="matrix" values="0 0 0 0 0 0 0 0 0 0 0 0 0 0 0 0 0 0 0.1 0"/>
<feBlend mode="normal" in2="BackgroundImageFix" result="effect1_dropShadow_13838_46151"/>
<feColorMatrix in="SourceAlpha" type="matrix" values="0 0 0 0 0 0 0 0 0 0 0 0 0 0 0 0 0 0 127 0" result="hardAlpha"/>
<feOffset dx="0.509975" dy="0.66689"/>
<feGaussianBlur stdDeviation="0.411903"/>
<feColorMatrix type="matrix" values="0 0 0 0 0 0 0 0 0 0 0 0 0 0 0 0 0 0 0.09 0"/>
<feBlend mode="normal" in2="effect1_dropShadow_13838_46151" result="effect2_dropShadow_13838_46151"/>
<feColorMatrix in="SourceAlpha" type="matrix" values="0 0 0 0 0 0 0 0 0 0 0 0 0 0 0 0 0 0 127 0" result="hardAlpha"/>
<feOffset dx="1.09841" dy="1.4907"/>
<feGaussianBlur stdDeviation="0.549204"/>
<feColorMatrix type="matrix" values="0 0 0 0 0 0 0 0 0 0 0 0 0 0 0 0 0 0 0.05 0"/>
<feBlend mode="normal" in2="effect2_dropShadow_13838_46151" result="effect3_dropShadow_13838_46151"/>
<feColorMatrix in="SourceAlpha" type="matrix" values="0 0 0 0 0 0 0 0 0 0 0 0 0 0 0 0 0 0 127 0" result="hardAlpha"/>
<feOffset dx="1.96144" dy="2.62833"/>
<feGaussianBlur stdDeviation="2.5"/>
<feColorMatrix type="matrix" values="0 0 0 0 0 0 0 0 0 0 0 0 0 0 0 0 0 0 0.05 0"/>
<feBlend mode="normal" in2="effect3_dropShadow_13838_46151" result="effect4_dropShadow_13838_46151"/>
<feColorMatrix in="SourceAlpha" type="matrix" values="0 0 0 0 0 0 0 0 0 0 0 0 0 0 0 0 0 0 127 0" result="hardAlpha"/>
<feOffset dx="3.05985" dy="4.11903"/>
<feGaussianBlur stdDeviation="2.5"/>
<feColorMatrix type="matrix" values="0 0 0 0 0 0 0 0 0 0 0 0 0 0 0 0 0 0 0.03 0"/>
<feBlend mode="normal" in2="effect4_dropShadow_13838_46151" result="effect5_dropShadow_13838_46151"/>
<feBlend mode="normal" in="SourceGraphic" in2="effect5_dropShadow_13838_46151" result="shape"/>
</filter>
</defs>
</svg>
