<svg width="105" height="105" viewBox="0 0 105 105" fill="none" xmlns="http://www.w3.org/2000/svg">
    <g filter="url(#filter0_ddddd_13838_46189)">
        <path
            d="M78.3274 44.8373C78.3077 43.5418 77.6465 43.0903 76.4621 43.583C73.0135 45.0327 69.3627 45.9441 65.6374 46.2852C64.8059 46.3622 64.1161 45.8766 64.0426 45.1635C63.962 44.3822 64.4261 43.8124 65.3148 43.7156C67.7705 43.4681 70.1948 42.9722 72.5504 42.2355C76.0338 41.1246 77.7737 37.7774 76.6717 34.3011C76.1293 32.5725 75.4708 30.8825 74.7006 29.2427C74.5663 28.9595 74.4247 28.6872 74.1273 28.542C71.8552 27.44 69.5275 26.4545 67.0404 25.9886C64.0408 25.426 61.2867 27.1032 60.2402 29.9845C59.2661 32.6637 58.6427 35.4578 58.3857 38.297C58.3158 39.0496 57.9287 39.5513 57.3105 39.7018C56.8178 39.8219 56.2229 39.537 55.9272 39.0478C55.7741 38.7563 55.7224 38.4222 55.7803 38.0981C56.1455 34.1368 57.1595 30.2625 58.7817 26.6301C58.9214 26.3165 59.0648 26.0137 58.9895 25.641C58.9071 25.2181 58.5756 25.0264 58.2925 24.7791C58.0488 24.5659 56.1799 24.7433 55.8197 24.7576C53.3702 24.8615 51.0856 26.0406 50.0194 28.3127C47.5964 33.404 46.5216 39.0323 46.898 44.6581C46.9248 45.0756 46.9625 45.4914 46.9911 45.9125C47.0592 46.932 46.3927 47.7903 45.4537 47.8943C44.4753 48.0036 43.6439 47.3119 43.5328 46.2511C42.9091 40.3759 43.7214 34.4371 45.8999 28.9452C46.1275 28.3629 46.4159 27.7841 45.8605 27.234C45.3319 26.709 44.762 26.9616 44.1904 27.1695C42.2644 27.8646 40.3988 28.7168 38.6123 29.7175C37.8361 30.1391 37.1629 30.7272 36.6408 31.4398C36.1188 32.1524 35.761 32.9716 35.593 33.8388C34.1577 40.2449 34.6879 46.9351 37.1143 53.0351C37.806 54.8037 36.4693 56.2766 35.0394 56.1817C34.6086 56.1706 34.1914 56.0285 33.8434 55.7743C33.4954 55.5202 33.2331 55.1659 33.0916 54.7589C31.0603 49.6451 30.1859 44.1452 30.531 38.6536C30.565 38.116 30.3518 37.6931 29.8375 37.4763C29.3645 37.2756 28.904 37.4333 28.5008 37.9225C26.0872 40.8576 24.3132 44.0704 23.3384 47.6309C22.994 48.8792 22.7542 50.154 22.6217 51.4422C22.5482 52.1589 22.5195 52.7861 22.5088 53.2448C22.5249 56.0634 22.9191 59.6454 24.367 63.2201C24.7989 64.3186 25.3154 65.382 25.9116 66.4007C26.9244 68.1846 28.1297 69.852 29.5061 71.3732C29.7677 71.6634 29.8125 71.8301 29.5276 72.1562C27.8772 74.0453 26.608 76.2358 25.7897 78.6069C25.5173 79.381 25.7539 79.9831 26.4169 80.2071C27.044 80.4203 27.5762 80.1032 27.8504 79.3255C28.5733 77.2475 29.6761 75.3221 31.1026 73.6471C31.1958 73.5378 31.2943 73.4356 31.4019 73.3173C33.519 75.2953 35.9341 76.9279 38.5586 78.1554C46.4052 81.7391 54.0923 81.4704 61.6003 77.1448C62.093 76.8599 62.4622 76.5105 62.3636 75.8905C62.2651 75.2705 61.7992 75.034 61.2114 74.9193C55.4528 73.8069 50.0379 71.3512 45.4071 67.7518C44.3141 66.9078 44.0578 65.6015 44.7925 64.5999C45.5272 63.5982 46.8711 63.3886 47.9247 64.1931C49.9925 65.792 52.2354 67.1506 54.6102 68.2428C58.01 69.8102 61.6588 70.7679 65.3901 71.0721C67.4973 71.2406 69.2964 70.4665 70.6026 68.7839C72.3218 66.5393 73.7617 64.0939 74.8906 61.5017C75.3135 60.5467 74.663 59.7565 73.5843 59.9213C71.4825 60.2447 69.3563 60.3827 67.2303 60.3334C63.8149 60.254 60.4267 59.7035 57.1618 58.6975C56.7106 58.5715 56.3266 58.2739 56.0921 57.8683C55.8577 57.4627 55.7914 56.9814 55.9075 56.5275C56.1691 55.5832 57.1421 55.051 58.1545 55.3556C59.9934 55.9181 61.876 56.3263 63.7828 56.5759C66.9024 56.9719 70.0239 57.0006 73.1166 56.4164C75.6253 55.9416 77.5426 53.8254 77.8974 51.306C78.2082 49.1642 78.352 47.0014 78.3274 44.8373Z"
            fill="white" stroke="white" stroke-width="8.06343" stroke-miterlimit="10" />
        <path
            d="M76.5389 51.7232C76.2128 54.0527 74.4227 55.9592 72.1864 56.3821C69.4753 56.8964 66.5797 56.9447 63.3346 56.5326C61.5236 56.297 59.7356 55.9098 57.9894 55.3751C57.7291 55.292 57.4546 55.2621 57.1825 55.2874C56.9103 55.3126 56.6461 55.3924 56.4054 55.522C56.1818 55.6449 55.9852 55.8115 55.8273 56.0119C55.6694 56.2123 55.5534 56.4424 55.4862 56.6885C55.3538 57.1943 55.4258 57.7318 55.6867 58.1848C55.9476 58.6379 56.3764 58.97 56.8803 59.1093C60.0321 60.0767 63.3016 60.6079 66.5976 60.688C68.6498 60.7333 70.702 60.6002 72.7312 60.2902C73.1361 60.2274 73.4712 60.3278 73.654 60.5643C73.7357 60.6901 73.7817 60.8358 73.7871 60.9857C73.7924 61.1356 73.7569 61.2841 73.6844 61.4155C72.6151 63.8837 71.2479 66.2119 69.6133 68.3482C69.0706 69.0781 68.3472 69.6541 67.5143 70.0196C66.6814 70.385 65.7676 70.5272 64.863 70.4322C61.3225 70.1396 57.8604 69.23 54.6332 67.7443C52.3773 66.7075 50.2472 65.4162 48.2846 63.8954C48.0281 63.692 47.7334 63.5421 47.4179 63.4543C47.1025 63.3666 46.7727 63.343 46.448 63.3847C46.1371 63.4317 45.8388 63.5408 45.571 63.7055C45.3032 63.8702 45.0712 64.0871 44.889 64.3434C44.1006 65.4185 44.3712 66.852 45.5341 67.7479C50.0063 71.2153 55.231 73.5828 60.7865 74.6592C61.3653 74.7721 61.6054 74.962 61.6681 75.358C61.7309 75.754 61.5606 75.987 61.0714 76.2683C54.0634 80.3072 46.7257 80.6279 39.2608 77.2234C36.8865 76.1482 34.6664 74.6413 32.4785 72.6415L32.2725 72.4624L31.9876 72.7741C31.9195 72.8494 31.855 72.9175 31.7923 72.991C30.4055 74.6223 29.332 76.4957 28.626 78.5171C28.4809 78.9328 28.1852 79.3861 27.6064 79.1908C27.5118 79.1647 27.4235 79.1194 27.347 79.0578C27.2706 78.9961 27.2076 78.9194 27.1621 78.8325C27.1112 78.7021 27.0866 78.5629 27.0897 78.423C27.0928 78.2831 27.1234 78.1452 27.18 78.0172C27.9532 75.7791 29.1498 73.7107 30.7046 71.9248C31.1095 71.4661 30.9877 71.1453 30.6831 70.8049C28.6242 68.53 26.9757 65.9151 25.811 63.0765C25.5619 62.4637 25.6157 62.2218 26.121 61.8455C26.8055 61.7631 26.9703 61.8706 27.2373 62.5157C29.1793 67.2544 32.5188 71.289 36.8113 74.0822C42.4055 77.7717 48.3509 78.8862 54.4809 77.4007C55.6675 77.1113 56.8219 76.7031 57.9267 76.1823L58.2206 76.0425L58.0414 75.7719C57.9931 75.7 57.9304 75.6389 57.8573 75.5923C57.7842 75.5457 57.7023 75.5148 57.6167 75.5014H57.5773C55.586 74.9408 53.6428 74.2218 51.7663 73.3511C49.1807 72.1426 46.7407 70.6446 44.493 68.8858C43.1635 67.8447 42.66 66.5098 43.0004 64.9168C43.1271 64.286 43.4112 63.6975 43.8263 63.206C44.2414 62.7145 44.774 62.3359 45.3746 62.1053C45.9844 61.8715 46.643 61.7937 47.2904 61.8792C47.9379 61.9646 48.5538 62.2105 49.082 62.5945C49.2982 62.7486 49.5139 62.9039 49.7289 63.0604C50.4636 63.598 51.2215 64.1355 52.0135 64.6247C55.8123 66.9452 60.0784 68.3944 64.5047 68.8679C66.3378 69.0703 67.73 68.445 68.7532 66.9577C69.5972 65.7357 70.2422 64.7233 70.7816 63.7718C70.9429 63.4869 71.0916 63.2002 71.2493 62.8955C71.3227 62.7522 71.398 62.6088 71.4768 62.4601L71.7098 62.0193L69.6688 62.1519C65.1631 62.4383 60.6431 61.8916 56.3355 60.5392C54.6243 60.0017 53.5635 58.1829 53.9685 56.4717C54.0709 56.0006 54.2694 55.5557 54.5515 55.1648C54.8336 54.7738 55.1932 54.4453 55.608 54.1996C56.043 53.9582 56.523 53.8092 57.0181 53.7617C57.5133 53.7142 58.0129 53.7693 58.4858 53.9236C62.5277 55.1513 66.7794 55.5319 70.9751 55.0418C73.0806 54.7981 74.4657 53.7462 74.876 52.0798C75.2649 50.5012 75.333 48.8741 75.3975 47.2991L75.4243 46.6576L75.229 46.5895C75.13 46.5569 75.0254 46.5448 74.9215 46.554C74.8177 46.5633 74.7168 46.5936 74.6252 46.6433C74.6019 46.6433 74.5786 46.6648 74.5553 46.6719C71.5213 47.7739 68.3586 48.4821 65.1444 48.7792C63.5317 48.9297 61.91 47.679 61.7398 46.1577C61.6904 45.7405 61.7244 45.3178 61.8398 44.9139C61.9551 44.51 62.1496 44.1331 62.4118 43.8049C62.6633 43.4973 62.9734 43.2426 63.324 43.0556C63.6746 42.8686 64.0589 42.753 64.4545 42.7155C66.7578 42.4944 69.0315 42.0325 71.2385 41.3375C73.3888 40.6423 74.5535 38.6873 74.0589 36.5819C73.6504 34.8492 72.9247 33.1773 72.2796 31.7438C72.1626 31.5115 71.9584 31.335 71.7116 31.2529C70.0399 30.4882 68.3078 29.863 66.5331 29.3839C65.5422 29.1049 64.4823 29.2134 63.5685 29.6872C62.6547 30.1611 61.9554 30.965 61.6126 31.9356C61.3313 32.6917 61.075 33.5357 60.783 34.5947C60.3744 36.1196 60.154 37.6964 59.9444 39.2195C59.9085 39.4668 59.8745 39.7159 59.8386 39.9632C59.7637 40.39 59.5985 40.7959 59.3541 41.1538C59.1097 41.5117 58.7918 41.8134 58.4216 42.0386C58.0513 42.2638 57.6373 42.4075 57.2071 42.4599C56.7769 42.5124 56.3405 42.4724 55.927 42.3428C54.3824 41.8052 53.6388 40.5133 53.8323 38.7142C54.174 35.3995 54.9574 32.1452 56.1617 29.0381C56.1707 29.0166 56.1814 28.9951 56.194 28.9718C56.2532 28.885 56.2884 28.7841 56.2959 28.6793C56.3035 28.5745 56.2831 28.4695 56.237 28.3751L56.1617 28.2318H56.0004C53.8072 28.1583 52.3271 29.0901 51.4724 31.0719C49.4813 35.6052 48.6157 40.5528 48.9494 45.4929C48.9602 45.6237 48.9709 45.7563 48.9817 45.8853C49.0434 46.3905 49.0434 46.9014 48.9817 47.4066C48.8429 48.221 48.4212 48.9602 47.7909 49.4942C47.1605 50.0281 46.362 50.3225 45.5359 50.3256H45.5234C43.8121 50.3256 42.3195 49.0139 42.1278 47.3564C42.0167 46.4121 41.9486 45.4212 41.9163 44.4142C41.7894 40.1613 42.3955 35.9183 43.7082 31.8711C43.7147 31.8515 43.7225 31.8323 43.7315 31.8137C43.7903 31.7113 43.8156 31.593 43.8041 31.4755C43.7925 31.358 43.7446 31.2469 43.667 31.1579L43.5326 30.9984L43.3427 31.0826C42.1314 31.6202 40.8788 32.1667 39.7302 32.9104C38.9132 33.4371 38.3383 34.2665 38.1319 35.2165C37.3785 38.4573 37.1804 41.8024 37.546 45.1094C37.8424 47.7615 38.4871 50.363 39.4633 52.8467C39.7276 53.4603 39.8246 54.133 39.7446 54.7963C39.4633 56.7046 38.0907 58.0593 36.2451 58.2528C34.4675 58.432 32.871 57.4088 32.1775 55.6295C30.7738 52.0603 29.9277 48.2963 29.6689 44.4697C29.6474 44.1221 29.6223 43.7745 29.5936 43.3946L29.4915 41.9701L29.0381 42.6868C26.9363 45.9982 25.8128 49.426 25.5995 53.1657C25.5619 53.8287 25.4204 54.0061 24.7968 54.1261C24.4384 54.1978 24.08 53.6764 23.9833 53.3986C23.7754 52.8001 23.9421 52.1443 24.0854 51.5476C24.4438 50.0568 24.7269 48.5373 25.2143 47.0841C26.0523 44.6494 27.2684 42.3619 28.8177 40.3054C29.1116 39.9088 29.4156 39.52 29.7298 39.1389C30.1885 38.5816 30.563 38.7393 30.6867 38.7913C31.045 38.9436 31.2063 39.216 31.1794 39.6442C30.8465 44.9441 31.691 50.252 33.6522 55.1869C33.7993 55.5862 34.0518 55.9383 34.3829 56.2057C34.714 56.473 35.1113 56.6458 35.5326 56.7055C35.954 56.7652 36.3836 56.7097 36.776 56.5448C37.1683 56.38 37.5087 56.112 37.761 55.7693C38.0097 55.4195 38.1645 55.0118 38.2106 54.5852C38.2567 54.1585 38.1926 53.7271 38.0244 53.3323C35.7294 47.5401 35.2262 41.1922 36.5801 35.1108C36.7337 34.3194 37.0602 33.5718 37.5363 32.9213C38.0124 32.2708 38.6264 31.7335 39.3342 31.3478C41.0326 30.3971 42.8059 29.5869 44.6364 28.9252L44.7296 28.8912C45.2797 28.6887 45.6076 28.5919 45.9445 28.9234C46.2813 29.2549 46.1828 29.5972 45.9642 30.1491L45.9176 30.2638C43.8209 35.5662 43.0371 41.2969 43.6329 46.9676C43.656 47.242 43.7337 47.5091 43.8614 47.7531C43.9891 47.9971 44.1642 48.2132 44.3766 48.3885C44.5723 48.5454 44.7974 48.6617 45.0386 48.7306C45.2798 48.7995 45.5323 48.8197 45.7814 48.7899C46.8368 48.6717 47.5733 47.7273 47.4998 46.5949C47.4873 46.4067 47.4729 46.2168 47.4586 46.0287C47.4443 45.8405 47.4245 45.6076 47.412 45.3979C47.0553 40.0596 48.0688 34.7187 50.356 29.8821C50.9739 28.6095 52.0498 27.6175 53.3682 27.1047C54.2408 26.7463 55.1816 26.6585 56.1151 26.6442C57.0917 26.6298 58.966 26.4148 58.2528 28.0096L58.2403 28.04C56.6759 31.5445 55.6965 35.2818 55.341 39.1031C55.2816 39.4714 55.3445 39.8491 55.5202 40.1782C55.8643 40.748 56.5667 41.0741 57.1508 40.9326C57.8676 40.7534 58.3227 40.18 58.4051 39.3414C58.6499 36.6454 59.2419 33.9924 60.1665 31.4482C61.1288 28.798 63.6768 27.2982 66.3646 27.8017C68.8374 28.264 71.1471 29.2854 73.0806 30.2243C73.2759 30.3175 73.3762 30.5075 73.4999 30.7619C74.2347 32.3197 74.8621 33.926 75.3777 35.5695C76.3902 38.7519 74.8079 41.8016 71.6148 42.8194C69.377 43.5191 67.074 43.9898 64.7412 44.2242C63.7539 44.3318 63.1787 44.9947 63.2754 45.9176C63.3615 46.7615 64.1481 47.3295 65.1067 47.24C68.7034 46.9096 72.2283 46.0304 75.5587 44.6328C75.8795 44.4966 76.3221 44.3748 76.5998 44.5575C76.8775 44.7403 76.9582 45.2151 76.9582 45.5753C76.9793 47.6324 76.8391 49.688 76.5389 51.7232Z"
            fill="#030302" />
        <path
            d="M26.0369 61.6083C25.8738 60.7661 25.4993 59.9741 25.4277 59.1104C26.0584 58.7521 26.2949 58.3632 26.1874 57.8561C26.0799 57.349 25.6678 57.057 24.9761 57.0229C24.9283 56.1628 24.8805 55.3021 24.8328 54.4408C25.6104 54.2957 25.8523 54.0162 25.8971 53.2152C26.1014 49.4953 27.2375 46.0907 29.2856 42.8653C29.3304 43.4799 29.3698 43.9978 29.4038 44.5139C29.6603 48.3698 30.5126 52.1628 31.9304 55.7579C32.6668 57.6483 34.387 58.7557 36.2864 58.5568C38.2575 58.3525 39.734 56.8975 40.0332 54.8655C40.1198 54.1533 40.0172 53.4308 39.7358 52.7708C38.7661 50.311 38.1273 47.7332 37.8364 45.1052C37.4714 41.83 37.6672 38.5166 38.4152 35.3072C38.5091 34.871 38.6881 34.4577 38.9421 34.0908C39.1961 33.724 39.52 33.4109 39.8952 33.1695C41.0187 32.4528 42.2444 31.9027 43.4664 31.3651C43.617 31.5443 43.4987 31.6769 43.4539 31.8131C42.1336 35.8918 41.5274 40.1679 41.662 44.4529C41.6925 45.442 41.7606 46.4347 41.8753 47.4185C42.0831 49.2211 43.7155 50.6259 45.5468 50.6331C46.442 50.6345 47.3087 50.3184 47.9928 49.741C48.6769 49.1635 49.134 48.3622 49.2829 47.4794C49.3904 46.8146 49.2936 46.1606 49.2488 45.5083C48.903 40.5377 49.7738 35.791 51.7467 31.22C52.5745 29.3027 53.9847 28.4802 56.0113 28.5465C56.0991 28.7149 55.9719 28.8475 55.9217 28.9765C54.7064 32.1065 53.9174 35.3858 53.5762 38.7261C53.3701 40.6488 54.1944 42.0644 55.8554 42.6467C57.6867 43.2882 59.8603 41.9999 60.138 40.0431C60.3907 38.2513 60.6039 36.4594 61.0734 34.7087C61.3135 33.8128 61.5733 32.9366 61.8958 32.0747C62.2131 31.1703 62.8635 30.4211 63.7143 29.9799C64.5651 29.5387 65.5521 29.4388 66.4741 29.7005C68.2347 30.1757 69.9525 30.7972 71.6096 31.5586C71.7939 31.6171 71.9478 31.7458 72.0378 31.917C72.7403 33.4688 73.4086 35.0402 73.7993 36.6995C74.2633 38.6706 73.1452 40.4857 71.1652 41.1236C68.9758 41.8113 66.7209 42.2695 64.4367 42.4908C62.5499 42.6897 61.2848 44.3167 61.4909 46.2358C61.6701 47.9292 63.4172 49.2713 65.1911 49.1028C68.4301 48.8049 71.6175 48.0931 74.6755 46.9848C74.8188 46.9329 74.955 46.8307 75.1629 46.9042C75.0876 48.6262 75.0482 50.3697 74.6253 52.0612C74.2347 53.6488 72.8746 54.5931 70.9627 54.8153C66.8043 55.3054 62.5895 54.9277 58.5845 53.7062C56.3428 53.0288 54.241 54.2437 53.716 56.4567C53.5141 57.3769 53.6648 58.3394 54.1382 59.1539C54.6117 59.9684 55.3734 60.5757 56.273 60.8557C60.6145 62.219 65.1712 62.7658 69.712 62.4684L71.2548 62.3699C71.0075 62.8357 70.7979 63.2658 70.5631 63.6726C69.9449 64.762 69.2604 65.8067 68.5491 66.8388C67.5743 68.249 66.2752 68.8099 64.5604 68.6307C60.1739 68.1647 55.9461 66.7281 52.1839 64.4251C51.1715 63.8087 50.2308 63.0938 49.2685 62.4057C48.7088 61.9922 48.0539 61.7263 47.3643 61.6325C46.6747 61.5388 45.9726 61.6202 45.3227 61.8692C44.6729 62.1183 44.0962 62.527 43.6459 63.0576C43.1956 63.5882 42.8862 64.2237 42.7461 64.9054C42.3788 66.6238 42.9486 68.0644 44.3391 69.1503C46.6005 70.9164 49.0557 72.4193 51.6571 73.63C53.5467 74.5072 55.5037 75.2311 57.5093 75.7946C57.5705 75.7982 57.63 75.8151 57.6839 75.8442C57.7378 75.8733 57.7846 75.9139 57.8211 75.963C56.7345 76.4777 55.5978 76.8794 54.4291 77.1618C48.1217 78.692 42.3196 77.4037 36.9799 73.8826C32.731 71.1231 29.4268 67.1312 27.5098 62.4415C27.1837 61.6549 26.8934 61.5008 26.0369 61.6083Z"
            fill="#008D36" stroke="#008D36" stroke-width="0.716749" stroke-miterlimit="10" />
        <path
            d="M24.9618 56.976C25.6534 57.01 26.0638 57.2913 26.1731 57.8092C26.2824 58.327 26.0458 58.7177 25.4133 59.0724C24.3902 59.0384 23.8347 58.3414 24.2163 57.5709C24.3783 57.2834 24.6455 57.0701 24.9618 56.976Z"
            fill="#060605" />
    </g>
    <defs>
        <filter id="filter0_ddddd_13838_46189" x="0.476807" y="0.799982" width="103.885"
            height="104.024" filterUnits="userSpaceOnUse" color-interpolation-filters="sRGB">
            <feFlood flood-opacity="0" result="BackgroundImageFix" />
            <feColorMatrix in="SourceAlpha" type="matrix"
                values="0 0 0 0 0 0 0 0 0 0 0 0 0 0 0 0 0 0 127 0" result="hardAlpha" />
            <feOffset dx="2" dy="0.156915" />
            <feGaussianBlur stdDeviation="10" />
            <feColorMatrix type="matrix" values="0 0 0 0 0 0 0 0 0 0 0 0 0 0 0 0 0 0 0.1 0" />
            <feBlend mode="normal" in2="BackgroundImageFix" result="effect1_dropShadow_13838_46189" />
            <feColorMatrix in="SourceAlpha" type="matrix"
                values="0 0 0 0 0 0 0 0 0 0 0 0 0 0 0 0 0 0 127 0" result="hardAlpha" />
            <feOffset dx="0.509975" dy="0.66689" />
            <feGaussianBlur stdDeviation="0.411903" />
            <feColorMatrix type="matrix" values="0 0 0 0 0 0 0 0 0 0 0 0 0 0 0 0 0 0 0.09 0" />
            <feBlend mode="normal" in2="effect1_dropShadow_13838_46189"
                result="effect2_dropShadow_13838_46189" />
            <feColorMatrix in="SourceAlpha" type="matrix"
                values="0 0 0 0 0 0 0 0 0 0 0 0 0 0 0 0 0 0 127 0" result="hardAlpha" />
            <feOffset dx="1.09841" dy="1.4907" />
            <feGaussianBlur stdDeviation="0.549204" />
            <feColorMatrix type="matrix" values="0 0 0 0 0 0 0 0 0 0 0 0 0 0 0 0 0 0 0.05 0" />
            <feBlend mode="normal" in2="effect2_dropShadow_13838_46189"
                result="effect3_dropShadow_13838_46189" />
            <feColorMatrix in="SourceAlpha" type="matrix"
                values="0 0 0 0 0 0 0 0 0 0 0 0 0 0 0 0 0 0 127 0" result="hardAlpha" />
            <feOffset dx="1.96144" dy="2.62833" />
            <feGaussianBlur stdDeviation="2.5" />
            <feColorMatrix type="matrix" values="0 0 0 0 0 0 0 0 0 0 0 0 0 0 0 0 0 0 0.05 0" />
            <feBlend mode="normal" in2="effect3_dropShadow_13838_46189"
                result="effect4_dropShadow_13838_46189" />
            <feColorMatrix in="SourceAlpha" type="matrix"
                values="0 0 0 0 0 0 0 0 0 0 0 0 0 0 0 0 0 0 127 0" result="hardAlpha" />
            <feOffset dx="3.05985" dy="4.11903" />
            <feGaussianBlur stdDeviation="2.5" />
            <feColorMatrix type="matrix" values="0 0 0 0 0 0 0 0 0 0 0 0 0 0 0 0 0 0 0.03 0" />
            <feBlend mode="normal" in2="effect4_dropShadow_13838_46189"
                result="effect5_dropShadow_13838_46189" />
            <feBlend mode="normal" in="SourceGraphic" in2="effect5_dropShadow_13838_46189"
                result="shape" />
        </filter>
    </defs>
</svg>