<svg width="84" height="121" viewBox="0 0 84 121" fill="none" xmlns="http://www.w3.org/2000/svg">
    <g filter="url(#filter0_ddddd_13838_46279)">
        <path
            d="M54.8713 34.9598C53.7693 32.2094 51.9144 29.8252 49.5195 28.0806C48.0601 27.0412 46.4502 26.2314 44.7456 25.6794C42.1462 24.8812 39.5938 24.9871 37.6563 25.298L35.072 25.8961C35.9192 25.6394 36.7825 25.4396 37.6563 25.298C35.6232 25.4794 34.247 26.1247 34.252 26.1532C29.9386 27.6655 27.6769 30.8901 27.0064 31.8966C25.3597 34.3768 24.3078 37.0334 24.2473 40.0243C24.1969 42.4541 24.1364 44.1126 24.0911 46.5255C24.0323 49.6022 24.0507 52.1025 24.0255 53.7207L23.9466 59.8774L23.9264 60.5646V60.5798C23.8771 64.3146 23.8312 68.0494 23.7886 71.7842C23.7796 72.3542 23.8847 72.9204 24.0975 73.4493C24.3104 73.9782 24.6268 74.4593 25.0281 74.8642C25.4295 75.2692 25.9077 75.5898 26.4347 75.8074C26.9617 76.025 27.5268 76.1351 28.097 76.1312C30.5939 76.1093 33.0943 76.2152 35.5912 76.2656H36.0953C36.2076 76.554 36.2608 76.862 36.2516 77.1713C36.1793 81.809 36.0651 86.4501 36.0836 91.0878C36.0953 93.289 37.3455 94.5257 39.167 94.8803C41.4539 95.3239 43.7341 93.3949 43.7156 90.8072C43.682 86.2299 43.8231 81.6511 43.8836 77.0722C43.8836 76.8252 43.8416 76.5832 44.0113 76.4H44.0281C46.5285 76.4622 47.5484 76.6857 48.397 76.6185C49.3569 76.6926 50.3223 76.6503 51.272 76.4925C52.3827 76.3043 53.359 76.1278 54.2042 75.3666C55.0914 74.5668 55.6241 73.3906 55.6644 72.006C55.7451 69.2015 55.7619 66.3937 55.7535 63.5892C55.7535 63.3943 55.7535 63.2011 55.7669 63.0062C55.7753 62.8381 55.7854 62.6264 55.7955 62.3828C55.8173 61.9879 55.8358 61.5947 55.8291 61.2065C55.8442 60.2571 55.8291 59.5564 55.8291 59.4052C55.7787 57.2477 55.8761 50.4743 56.0106 43.9697C56.0626 40.8897 56.0526 37.8534 54.8713 34.9598Z"
            fill="white" />
        <path
            d="M37.6563 25.298C39.5938 24.9871 42.1462 24.8812 44.7456 25.6794C46.4502 26.2314 48.0601 27.0412 49.5195 28.0806C51.9144 29.8252 53.7693 32.2094 54.8713 34.9598C56.0526 37.8534 56.0626 40.8897 56.0106 43.9697C55.8761 50.4743 55.7787 57.2477 55.8291 59.4052C55.8291 59.5564 55.8442 60.2571 55.8291 61.2065C55.8358 61.5947 55.8173 61.9879 55.7955 62.3828C55.7854 62.6264 55.7753 62.8381 55.7669 63.0062C55.7535 63.2011 55.7535 63.3943 55.7535 63.5892C55.7619 66.3937 55.7451 69.2015 55.6644 72.006C55.6241 73.3906 55.0914 74.5668 54.2042 75.3666C53.359 76.1278 52.3827 76.3043 51.272 76.4925C50.3223 76.6503 49.3569 76.6926 48.397 76.6185C47.5484 76.6857 46.5285 76.4622 44.0281 76.4H44.0113C43.8416 76.5832 43.8836 76.8252 43.8836 77.0722C43.8231 81.6511 43.682 86.2299 43.7156 90.8072C43.7341 93.3949 41.4539 95.3239 39.167 94.8803C37.3455 94.5257 36.0953 93.289 36.0836 91.0878C36.0651 86.4501 36.1793 81.809 36.2516 77.1713C36.2608 76.862 36.2076 76.554 36.0953 76.2656H35.5912C33.0943 76.2152 30.5939 76.1093 28.097 76.1312C27.5268 76.1351 26.9617 76.025 26.4347 75.8074C25.9077 75.5898 25.4295 75.2692 25.0281 74.8642C24.6268 74.4593 24.3104 73.9782 24.0975 73.4493C23.8847 72.9204 23.7796 72.3542 23.7886 71.7842C23.8312 68.0494 23.8771 64.3146 23.9264 60.5798V60.5646L23.9466 59.8774L24.0255 53.7207C24.0507 52.1025 24.0323 49.6022 24.0911 46.5255C24.1364 44.1126 24.1969 42.4541 24.2473 40.0243C24.3078 37.0334 25.3597 34.3768 27.0064 31.8966C27.6769 30.8901 29.9386 27.6655 34.252 26.1532C34.247 26.1247 35.6232 25.4794 37.6563 25.298ZM37.6563 25.298L35.072 25.8961C35.9192 25.6394 36.7825 25.4396 37.6563 25.298Z"
            stroke="white" stroke-width="10.0121" stroke-miterlimit="10" />
        <path
            d="M54.8713 34.8944C53.7693 32.144 51.9144 29.7597 49.5194 28.0152C48.0605 26.9751 46.4504 26.1652 44.7456 25.614C39.4072 23.974 34.2637 26.145 34.252 26.0878C34.2402 26.0307 37.3018 24.6327 41.0338 25.4275C43.5089 25.9568 45.2665 27.2405 46.2428 27.9479C47.6233 28.9658 48.8385 30.1906 49.8454 31.5791C51.7506 34.1518 52.7918 37.2619 52.8196 40.463C52.8347 41.3939 52.8364 42.3248 52.8314 43.2557C52.8146 45.8703 52.7742 48.4838 52.7104 51.0961C52.5944 55.6481 52.8347 62.3543 52.4667 70.8803C52.413 72.1237 52.2718 74.2023 50.8368 75.397C49.2405 76.7228 46.9502 76.338 46.1521 76.1666C47.8235 76.6049 49.5685 76.6868 51.2737 76.4069C52.3844 76.2204 53.3607 76.0439 54.2059 75.2827C55.0931 74.4829 55.6257 73.3067 55.6661 71.9221C55.7467 69.1193 55.7635 66.3115 55.7551 63.5053C55.7551 63.3121 55.7551 63.1172 55.7686 62.9239C55.782 62.7307 55.7871 62.5442 55.7971 62.2989C55.819 61.9057 55.8375 61.5108 55.8307 61.1226C55.8459 60.1732 55.8307 59.4726 55.8307 59.3196C55.7803 57.1638 55.8778 50.3904 56.0122 43.8858C56.0626 40.8159 56.0525 37.7879 54.8713 34.8944Z"
            fill="#50A76E" stroke="black" stroke-width="1.77993" stroke-miterlimit="10" />
        <path
            d="M36.0667 76.2695C38.7372 76.2146 41.4073 76.251 44.0768 76.3787C43.818 76.5787 43.8785 76.8509 43.8751 77.1298C43.818 81.707 43.6768 86.2859 43.7071 90.8631C43.7256 93.4525 41.4454 95.3815 39.1584 94.9363C37.337 94.5817 36.0868 93.345 36.0751 91.1454C36.0515 86.506 36.1658 81.8667 36.2431 77.2273C36.2531 76.8991 36.193 76.5726 36.0667 76.2695Z"
            fill="#FEF49C" stroke="black" stroke-width="1.77993" stroke-miterlimit="10" />
        <path
            d="M23.9466 59.8102L23.9264 60.4974V60.5109C23.8771 64.2468 23.8312 67.9822 23.7886 71.717C23.7796 72.287 23.8847 72.8531 24.0975 73.3821C24.3104 73.911 24.6268 74.3921 25.0281 74.797C25.4295 75.2019 25.9077 75.5226 26.4347 75.7402C26.9617 75.9578 27.5268 76.0678 28.097 76.064C30.5939 76.0404 33.0943 76.148 35.5912 76.1984C38.2629 76.1424 40.9335 76.1788 43.603 76.3076C43.7425 76.3076 43.8853 76.3076 44.0248 76.316C47.3266 76.3967 48.0492 76.763 49.1968 76.3647C49.7626 76.1639 50.2784 75.8436 50.7091 75.4254C52.1139 74.1047 52.3357 72.1522 52.339 70.9104C52.3508 67.2507 52.4399 63.5909 52.4987 59.9311L52.5088 59.4136C52.4987 55.932 52.5407 53.1124 52.5844 51.1262C52.6398 48.5117 52.6886 45.8987 52.7037 43.2842C52.7037 42.3533 52.7037 41.4224 52.6936 40.4915C52.665 37.2904 51.6239 34.1806 49.7194 31.6076C48.71 30.2217 47.4952 28.9978 46.1168 27.9781C44.9204 27.0942 43.3728 25.9768 41.0758 25.5147C40.3503 25.3683 39.6113 25.2991 38.8712 25.308C37.3013 25.3063 35.7425 25.5699 34.2604 26.0877C29.947 27.6 27.6853 30.8229 27.0148 31.831C25.3681 34.3095 24.3162 36.9678 24.2557 39.9588C24.2053 42.3885 24.1448 44.047 24.0995 46.4583C24.0407 49.5366 24.0591 52.037 24.0339 53.6551"
            fill="#FED33D" />
        <path
            d="M23.9466 59.8102L23.9264 60.4974V60.5109C23.8771 64.2468 23.8312 67.9822 23.7886 71.717C23.7796 72.287 23.8847 72.8531 24.0975 73.3821C24.3104 73.911 24.6268 74.3921 25.0281 74.797C25.4295 75.2019 25.9077 75.5226 26.4347 75.7402C26.9617 75.9578 27.5268 76.0678 28.097 76.064C30.5939 76.0404 33.0943 76.148 35.5912 76.1984C38.2629 76.1424 40.9335 76.1788 43.603 76.3076C43.7425 76.3076 43.8853 76.3076 44.0248 76.316C47.3266 76.3967 48.0492 76.763 49.1968 76.3647C49.7626 76.1639 50.2784 75.8436 50.7091 75.4254C52.1139 74.1047 52.3357 72.1522 52.339 70.9104C52.3508 67.2507 52.4399 63.5909 52.4987 59.9311L52.5088 59.4136C52.4987 55.932 52.5407 53.1124 52.5844 51.1262C52.6398 48.5117 52.6886 45.8987 52.7037 43.2842C52.7037 42.3533 52.7037 41.4224 52.6936 40.4915C52.665 37.2904 51.6239 34.1806 49.7194 31.6076C48.71 30.2217 47.4952 28.9978 46.1168 27.9781C44.9204 27.0942 43.3728 25.9768 41.0758 25.5147C40.3503 25.3683 39.6113 25.2991 38.8712 25.308C37.3013 25.3063 35.7425 25.5699 34.2604 26.0877C29.947 27.6 27.6853 30.8229 27.0148 31.831C25.3681 34.3095 24.3162 36.9678 24.2557 39.9588C24.2053 42.3885 24.1448 44.047 24.0995 46.4583C24.0407 49.5366 24.0591 52.037 24.0339 53.6551"
            stroke="black" stroke-width="1.77993" stroke-miterlimit="10" stroke-linecap="round" />
        <path
            d="M46.3654 35.382C45.5538 34.9536 44.6347 34.9099 43.7928 35.4526C44.1751 35.8008 44.4881 36.2181 44.7153 36.6826C45.0096 37.3201 45.144 38.0197 45.1068 38.7208C45.1068 38.7628 45.0312 44.8725 44.885 57.0935C44.885 57.3439 44.885 57.6648 44.885 58.0396C44.8934 58.505 44.9002 59.0293 44.9018 59.609V59.6426C44.9136 60.7751 44.9018 61.7178 44.8901 62.4218C44.8666 63.7661 44.8346 63.9425 44.8212 64.5323V64.5626C44.8212 64.7037 44.8212 64.855 44.8212 65.0213V65.1625C44.8212 65.2969 44.8212 65.4246 44.8212 65.5489V65.6027C44.8128 66.127 44.7943 66.5807 44.7674 67.1352C44.7372 67.9266 44.7288 68.1551 44.6347 68.4979V68.5063C44.5476 68.894 44.3792 69.2589 44.1407 69.5767C44.1238 69.5985 44.1037 69.6187 44.0869 69.6405C44.0701 69.6624 44.0583 69.6792 44.0415 69.6977C44.0247 69.7161 44.0079 69.7363 43.9894 69.7548C43.9709 69.7733 43.9743 69.7733 43.9676 69.7817C43.9205 69.8304 43.8718 69.8791 43.8214 69.9262C43.771 69.9732 43.734 70.0018 43.6886 70.0388L43.6769 70.0505C43.5703 70.136 43.4581 70.214 43.3408 70.2841C43.6985 70.5426 44.1159 70.7063 44.554 70.7596C45.7958 70.8974 46.7233 70.0203 46.9367 69.8035C47.8172 68.9012 47.8021 67.6947 47.7937 65.4817C47.7937 64.287 47.7937 62.2454 47.7937 59.4107C47.8374 56.3088 47.8811 53.2064 47.9248 50.1034C47.9836 46.1815 48.0541 42.2579 48.1079 38.3411C48.1096 37.0254 47.5047 35.9853 46.3654 35.382Z"
            fill="#98B718" />
        <path
            d="M43.6684 70.0449C43.7137 70.008 43.7591 69.971 43.8011 69.9324C43.8431 69.8937 43.9003 69.8366 43.9473 69.7878C43.9473 69.7794 43.9624 69.771 43.9692 69.761C44.0044 69.724 44.0347 69.6853 44.0666 69.6467C44.0985 69.608 44.1036 69.6047 44.1204 69.5828C44.3589 69.265 44.5273 68.9002 44.6144 68.5125C44.6784 68.2145 44.7155 67.9114 44.7253 67.6068C44.7337 67.4387 44.7404 67.2842 44.7488 67.1346C44.7757 66.5801 44.7942 66.1264 44.8026 65.6021C44.8026 65.5837 44.8026 65.5669 44.8026 65.5484C44.8026 65.424 44.8026 65.2963 44.8026 65.1619V65.0208C44.8026 64.8242 44.8026 64.6662 44.8026 64.5318C44.816 63.942 44.848 63.7672 44.8715 62.4213C44.8849 61.7172 44.895 60.7746 44.8832 59.642C44.8832 59.474 44.8832 59.306 44.8832 59.1379H44.8748C44.8748 58.7296 44.8748 58.3599 44.8748 58.034C44.8748 57.6592 44.8748 57.3383 44.8748 57.0879C45.021 44.8669 45.095 38.7573 45.0966 38.7152C45.135 38.0189 45.0041 37.3236 44.7152 36.6888C44.488 36.2243 44.175 35.807 43.7927 35.4588C42.4871 35.9998 42.1494 37.1105 42.1225 38.3758C42.0771 40.6039 42.0553 42.8337 42.0301 45.0618C41.9763 49.8138 41.9242 54.5658 41.8738 59.3177C41.8603 60.5645 41.8133 61.5811 41.7763 62.2684C41.7763 62.2684 41.6352 64.8107 41.8066 68.0117C41.8066 68.1798 41.8704 68.9376 42.2821 69.4971C42.5503 69.8506 42.9075 70.1266 43.3172 70.297C43.4344 70.2268 43.5466 70.1488 43.6532 70.0634L43.6684 70.0449Z"
            fill="#3F9672" />
        <path
            d="M44.6145 68.5118V68.5034C44.7086 68.1673 44.717 67.9321 44.7472 67.1407C44.7388 67.2902 44.7321 67.4448 44.7237 67.6128C44.7141 67.9151 44.6775 68.216 44.6145 68.5118Z"
            stroke="black" stroke-width="1.11246" stroke-miterlimit="10" />
        <path
            d="M44.0217 69.7038C44.0386 69.6852 44.0521 69.6666 44.0674 69.6463C44.0352 69.6852 44.0048 69.7241 43.9692 69.7613C43.9879 69.7427 44.0048 69.7241 44.0217 69.7038Z"
            stroke="black" stroke-width="1.11246" stroke-miterlimit="10" />
        <path
            d="M44.8147 64.5617V64.5315C44.8147 64.6659 44.8147 64.8238 44.8147 65.0204C44.8046 64.8541 44.8046 64.7029 44.8147 64.5617Z"
            stroke="black" stroke-width="1.11246" stroke-miterlimit="10" />
        <path d="M44.8044 65.5707V65.5483C44.8044 65.5672 44.8044 65.5844 44.8044 65.6033V65.5707Z"
            stroke="black" stroke-width="1.11246" stroke-miterlimit="10" />
        <path d="M43.3174 70.2963C43.4349 70.226 43.5474 70.1478 43.6542 70.0622" stroke="black"
            stroke-width="1.11246" stroke-miterlimit="10" />
        <path
            d="M44.8884 59.1423C44.8884 59.3103 44.8884 59.4783 44.8884 59.6464V59.6128C44.8884 59.0331 44.88 58.5088 44.8716 58.0433C44.8716 58.3693 44.8716 58.739 44.8716 59.1473L44.8884 59.1423Z"
            stroke="black" stroke-width="1.11246" stroke-miterlimit="10" />
        <path
            d="M46.3654 35.382C45.5538 34.9536 44.6347 34.9099 43.7928 35.4526C44.1751 35.8008 44.4881 36.2181 44.7153 36.6826C45.0096 37.3201 45.144 38.0197 45.1068 38.7208C45.1068 38.7628 45.0312 44.8725 44.885 57.0935C44.885 57.3439 44.885 57.6648 44.885 58.0396C44.8934 58.505 44.9002 59.0293 44.9018 59.609V59.6426C44.9136 60.7751 44.9018 61.7178 44.8901 62.4218C44.8666 63.7661 44.8346 63.9425 44.8212 64.5323V64.5626C44.8212 64.7037 44.8212 64.855 44.8212 65.0213V65.1625C44.8212 65.2969 44.8212 65.4246 44.8212 65.5489V65.6027C44.8128 66.127 44.7943 66.5807 44.7674 67.1352C44.7372 67.9266 44.7288 68.1551 44.6347 68.4979V68.5063C44.5476 68.894 44.3792 69.2589 44.1407 69.5767C44.1238 69.5985 44.1037 69.6187 44.0869 69.6405C44.0701 69.6624 44.0583 69.6792 44.0415 69.6977C44.0247 69.7161 44.0079 69.7363 43.9894 69.7548C43.9709 69.7733 43.9743 69.7733 43.9676 69.7817C43.9205 69.8304 43.8718 69.8791 43.8214 69.9262C43.771 69.9732 43.734 70.0018 43.6886 70.0388L43.6769 70.0505C43.5703 70.136 43.4581 70.214 43.3408 70.2841C43.6985 70.5426 44.1159 70.7063 44.554 70.7596C45.7958 70.8974 46.7233 70.0203 46.9367 69.8035C47.8172 68.9012 47.8021 67.6947 47.7937 65.4817C47.7937 64.287 47.7937 62.2454 47.7937 59.4107C47.8374 56.3088 47.8811 53.2064 47.9248 50.1034C47.9836 46.1815 48.0541 42.2579 48.1079 38.3411C48.1096 37.0254 47.5047 35.9853 46.3654 35.382Z"
            stroke="black" stroke-width="1.11246" stroke-miterlimit="10" />
        <path
            d="M43.6684 70.0449C43.7137 70.008 43.7591 69.971 43.8011 69.9323C43.8431 69.8937 43.9003 69.8366 43.9473 69.7878C43.9473 69.7794 43.9624 69.771 43.9692 69.761C44.0044 69.724 44.0347 69.6853 44.0666 69.6467C44.0985 69.608 44.1036 69.6047 44.1204 69.5828C44.3589 69.265 44.5273 68.9002 44.6144 68.5125C44.6784 68.2145 44.7155 67.9114 44.7253 67.6068C44.7337 67.4387 44.7404 67.2842 44.7488 67.1346C44.7757 66.5801 44.7942 66.1264 44.8026 65.6021C44.8026 65.5837 44.8026 65.5669 44.8026 65.5484C44.8026 65.424 44.8026 65.2963 44.8026 65.1619V65.0208C44.8026 64.8242 44.8026 64.6662 44.8026 64.5318C44.816 63.942 44.848 63.7672 44.8715 62.4213C44.8849 61.7172 44.895 60.7746 44.8832 59.642C44.8832 59.474 44.8832 59.306 44.8832 59.1379H44.8748C44.8748 58.7296 44.8748 58.3599 44.8748 58.034C44.8748 57.6592 44.8748 57.3383 44.8748 57.0879C45.021 44.8669 45.095 38.7573 45.0966 38.7152C45.135 38.0189 45.0041 37.3236 44.7152 36.6888C44.488 36.2243 44.175 35.807 43.7927 35.4588C42.4871 35.9998 42.1494 37.1105 42.1225 38.3758C42.0771 40.6039 42.0553 42.8337 42.0301 45.0618C41.9763 49.8138 41.9242 54.5658 41.8738 59.3177C41.8603 60.5645 41.8133 61.5811 41.7763 62.2684C41.7763 62.2684 41.6352 64.8107 41.8066 68.0117C41.8066 68.1798 41.8704 68.9376 42.2821 69.4971C42.5503 69.8506 42.9075 70.1266 43.3172 70.297C43.4344 70.2268 43.5466 70.1488 43.6532 70.0634L43.6684 70.0449Z"
            stroke="black" stroke-width="1.11246" stroke-miterlimit="10" />
        <path
            d="M31.439 35.5468C32.2792 35.0024 33.2 35.0427 34.0116 35.4762C35.1509 36.0795 35.7558 37.1112 35.7373 38.437C35.6835 42.3589 35.613 46.2807 35.5541 50.1993C35.5071 53.3011 35.4634 56.4036 35.4231 59.5066C35.408 62.3396 35.4113 64.3795 35.4231 65.5776C35.4315 67.7889 35.4483 68.9971 34.5661 69.8977C34.3544 70.1145 33.4252 70.9933 32.1834 70.8538C31.7455 70.8009 31.3281 70.6379 30.9702 70.38C31.2366 70.226 31.4747 70.0277 31.6743 69.7936C31.9631 69.4447 32.1668 69.0333 32.2691 68.5921C32.3632 68.2561 32.3733 68.0225 32.4019 67.2311C32.4388 66.2128 32.4556 65.7036 32.4573 65.6599C32.4573 65.255 32.4573 64.934 32.4674 64.6518C32.4808 63.8116 32.4976 63.2235 32.506 62.916C32.5195 62.4606 32.5514 61.1684 32.548 59.6981C32.548 59.0529 32.538 58.4732 32.5279 57.9708C32.5044 57.0399 32.501 56.2904 32.5027 55.7864C32.5027 55.1361 32.5144 54.7462 32.5296 53.4625C32.5296 53.3801 32.5514 51.7132 32.5531 51.6309C32.5531 51.6309 32.5699 46.474 32.7598 38.8151C32.7547 38.7747 32.7564 38.721 31.439 35.5468Z"
            fill="#98B718" stroke="black" stroke-width="1.11246" stroke-miterlimit="10" />
        <path
            d="M32.402 36.8008C32.1748 36.3368 31.8624 35.9195 31.4812 35.5708C30.1755 36.1119 29.8361 37.2226 29.8109 38.4878C29.7655 40.716 29.7437 42.9458 29.7185 45.1739C29.6625 49.9258 29.6104 54.6778 29.5622 59.4298C29.5471 60.6766 29.5017 61.6932 29.4631 62.3804C29.4631 62.3804 29.3236 64.9227 29.4933 68.1238C29.5017 68.2918 29.5589 69.0496 29.9689 69.6092C30.238 69.9625 30.5956 70.2384 31.0056 70.409C31.3158 70.227 31.588 69.9868 31.8071 69.7016C32.3364 69.0059 32.3869 68.2313 32.4121 67.7255C32.4608 66.7661 32.491 66.1679 32.4944 65.2806C32.4944 64.0675 32.5398 64.2641 32.5717 62.54C32.5868 61.7352 32.5969 60.6161 32.5717 59.26C32.5717 58.3846 32.5717 57.6805 32.5717 57.21C32.7196 44.989 32.7935 38.8794 32.7952 38.8374C32.8312 38.1367 32.6962 37.4377 32.402 36.8008Z"
            fill="#3F9672" stroke="black" stroke-width="1.11246" stroke-miterlimit="10" />
        <path
            d="M39.4427 91.3135C40.5634 90.3641 39.8762 82.1154 39.1637 80.3913C39.0343 80.0805 38.6445 80.2233 38.5504 80.4703C37.9068 82.1641 37.5674 90.433 38.8142 91.3924C39.0125 91.5454 39.2729 91.4563 39.4427 91.3135Z"
            fill="#F6B279" />
    </g>
    <defs>
        <filter id="filter0_ddddd_13838_46279" x="0.781982" y="0.217065" width="82.2522"
            height="119.897" filterUnits="userSpaceOnUse" color-interpolation-filters="sRGB">
            <feFlood flood-opacity="0" result="BackgroundImageFix" />
            <feColorMatrix in="SourceAlpha" type="matrix"
                values="0 0 0 0 0 0 0 0 0 0 0 0 0 0 0 0 0 0 127 0" result="hardAlpha" />
            <feOffset dx="2" dy="0.156915" />
            <feGaussianBlur stdDeviation="10" />
            <feColorMatrix type="matrix" values="0 0 0 0 0 0 0 0 0 0 0 0 0 0 0 0 0 0 0.1 0" />
            <feBlend mode="normal" in2="BackgroundImageFix" result="effect1_dropShadow_13838_46279" />
            <feColorMatrix in="SourceAlpha" type="matrix"
                values="0 0 0 0 0 0 0 0 0 0 0 0 0 0 0 0 0 0 127 0" result="hardAlpha" />
            <feOffset dx="0.509975" dy="0.66689" />
            <feGaussianBlur stdDeviation="0.411903" />
            <feColorMatrix type="matrix" values="0 0 0 0 0 0 0 0 0 0 0 0 0 0 0 0 0 0 0.09 0" />
            <feBlend mode="normal" in2="effect1_dropShadow_13838_46279"
                result="effect2_dropShadow_13838_46279" />
            <feColorMatrix in="SourceAlpha" type="matrix"
                values="0 0 0 0 0 0 0 0 0 0 0 0 0 0 0 0 0 0 127 0" result="hardAlpha" />
            <feOffset dx="1.09841" dy="1.4907" />
            <feGaussianBlur stdDeviation="0.549204" />
            <feColorMatrix type="matrix" values="0 0 0 0 0 0 0 0 0 0 0 0 0 0 0 0 0 0 0.05 0" />
            <feBlend mode="normal" in2="effect2_dropShadow_13838_46279"
                result="effect3_dropShadow_13838_46279" />
            <feColorMatrix in="SourceAlpha" type="matrix"
                values="0 0 0 0 0 0 0 0 0 0 0 0 0 0 0 0 0 0 127 0" result="hardAlpha" />
            <feOffset dx="1.96144" dy="2.62833" />
            <feGaussianBlur stdDeviation="2.5" />
            <feColorMatrix type="matrix" values="0 0 0 0 0 0 0 0 0 0 0 0 0 0 0 0 0 0 0.05 0" />
            <feBlend mode="normal" in2="effect3_dropShadow_13838_46279"
                result="effect4_dropShadow_13838_46279" />
            <feColorMatrix in="SourceAlpha" type="matrix"
                values="0 0 0 0 0 0 0 0 0 0 0 0 0 0 0 0 0 0 127 0" result="hardAlpha" />
            <feOffset dx="3.05985" dy="4.11903" />
            <feGaussianBlur stdDeviation="2.5" />
            <feColorMatrix type="matrix" values="0 0 0 0 0 0 0 0 0 0 0 0 0 0 0 0 0 0 0.03 0" />
            <feBlend mode="normal" in2="effect4_dropShadow_13838_46279"
                result="effect5_dropShadow_13838_46279" />
            <feBlend mode="normal" in="SourceGraphic" in2="effect5_dropShadow_13838_46279"
                result="shape" />
        </filter>
    </defs>
</svg>