<svg width="130" height="111" viewBox="0 0 130 111" fill="none" xmlns="http://www.w3.org/2000/svg">
<g filter="url(#filter0_ddddd_13401_4005)">
<path d="M103.122 56.3262L104.998 55.1595L103.121 53.9937L99.8795 51.9798L102.372 49.0908L103.806 47.4296L101.685 46.8666L98.0172 45.8928L99.5986 42.4466L100.494 40.4958L98.3474 40.5007L94.5856 40.5093L95.297 36.8194L95.6943 34.7584L93.6468 35.2198L90.0073 36.0399L89.9733 32.312L89.9545 30.2486L88.0584 31.0627L84.65 32.5262L83.9871 28.8803L83.6225 26.8749L81.9009 27.9661L78.7825 29.9427L77.5841 26.4527L76.9269 24.5387L75.3911 25.8566L72.5985 28.2529L70.9336 24.9692L70.023 23.1732L68.6835 24.6767L66.2386 27.421L64.1639 24.3853L63.0302 22.7265L61.8965 24.3853L59.8218 27.421L57.3769 24.6767L56.0367 23.1724L55.1265 24.9698L53.464 28.2529L50.6689 25.8562L49.1332 24.5394L48.4763 26.4527L47.2779 29.9427L44.1595 27.9661L42.4368 26.8742L42.0731 28.881L41.4126 32.5258L38.0051 31.0627L36.109 30.2486L36.0902 32.312L36.0562 36.0399L32.4167 35.2198L30.3704 34.7587L30.7664 36.8186L31.4756 40.5083L27.7138 40.4976L25.5667 40.4915L26.4617 42.4432L28.0436 45.8927L24.3755 46.8666L22.2538 47.4299L23.6886 49.0913L26.1834 51.9802L22.9422 53.9937L21.0656 55.1595L22.9416 56.3262L26.1834 58.3423L23.6889 61.2286L22.2538 62.8892L24.3748 63.4536L28.0436 64.4298L26.4618 67.8768L25.5661 69.8288L27.7138 69.8227L31.4756 69.812L30.7664 73.5017L30.3704 75.5619L32.4169 75.1005L36.0541 74.2804L36.0902 78.0091L36.1102 80.0712L38.0051 79.2576L41.4124 77.7946L42.0731 81.4422L42.4368 83.4504L44.16 82.3569L47.2779 80.3786L48.4762 83.8705L49.1329 85.7842L50.6689 84.4672L53.464 82.0705L55.1265 85.3536L56.0363 87.1502L57.3765 85.6472L59.8243 82.902L61.8964 85.9348L63.0296 87.5935L64.1637 85.9353L66.2382 82.902L68.6835 85.6467L70.023 87.1502L70.9336 85.3542L72.5988 82.0699L75.3946 84.4672L76.9315 85.785L77.5876 83.8698L78.7833 80.3791L81.9004 82.3569L83.6225 83.4497L83.9872 81.443L84.6502 77.7942L88.0584 79.2576L89.9545 80.0717L89.9733 78.0083L90.0073 74.2813L93.646 75.1034L95.6943 75.5662L95.297 73.5042L94.5856 69.812L98.3466 69.8227L100.494 69.8288L99.5986 67.8768L98.0168 64.4298L101.686 63.4536L103.806 62.8895L102.372 61.2291L99.8795 58.3427L103.122 56.3262Z" fill="#5C59ED" stroke="white" stroke-width="2.74639"/>
<path d="M102.397 55.1602L97.7906 58.0247L101.333 62.1265L96.0892 63.5217L98.3505 68.4495L92.9216 68.434L93.9486 73.764L88.6497 72.5668L88.6002 77.9958L83.6074 75.852L82.6361 81.1975L78.0486 78.2866L76.2885 83.4247L72.165 79.889L69.7088 84.7333L66.0958 80.6778L63.0302 85.1602L59.9678 80.6778L56.3516 84.7333L53.8985 79.889L49.775 83.4247L48.0118 78.2866L43.4243 81.1975L42.4561 75.852L37.4634 77.9958L37.4108 72.5668L32.1149 73.7609L33.1388 68.434L27.7099 68.4495L29.9712 63.5217L24.7279 62.1265L28.2729 58.0247L23.6668 55.1602L28.2729 52.2987L24.7279 48.1938L29.9712 46.8017L27.7099 41.8708L33.1388 41.8863L32.1149 36.5594L37.4139 37.7535L37.4634 32.3245L42.4561 34.4683L43.4243 29.1259L48.0118 32.0337L49.775 26.8987L53.8985 30.4344L56.3516 25.5901L59.9647 29.6456L63.0302 25.1602L66.0958 29.6456L69.7088 25.5901L72.165 30.4344L76.2854 26.8987L78.0486 32.0337L82.6361 29.1259L83.6074 34.4683L88.6002 32.3245L88.6497 37.7535L93.9486 36.5594L92.9216 41.8863L98.3505 41.8739L96.0892 46.8017L101.333 48.1938L97.7906 52.2987L102.397 55.1602Z" fill="#5C59ED"/>
<path d="M43.7243 55.565L38.0108 54.6957L35.2268 55.6485L34.7999 54.4111L37.5839 53.4584L41.5527 49.2451L42.0415 50.6712L39.1152 53.6316L43.2417 54.1637L43.7243 55.565Z" fill="#FED33D"/>
<path d="M48.6151 59.9432C48.8821 60.5853 48.9657 61.2888 48.8564 61.9756C48.7382 62.7085 48.4335 63.3988 47.9717 63.9801C47.5293 64.5756 46.9413 65.0475 46.2641 65.3505C45.63 65.6378 44.9289 65.7448 44.238 65.6598C43.5334 65.5681 42.8666 65.2881 42.3077 64.8494C41.7349 64.4229 41.289 63.8487 41.0177 63.1882C40.7522 62.5436 40.6688 61.8384 40.7765 61.1496C40.8906 60.4157 41.1933 59.7239 41.655 59.142C42.0974 58.546 42.6868 58.075 43.3656 57.7747C44.0024 57.4929 44.7043 57.3913 45.3949 57.4808C46.1017 57.5781 46.7694 57.8633 47.3282 58.3068C47.8955 58.7277 48.3398 59.2927 48.6151 59.9432ZM45.2835 58.7058C44.8159 58.6476 44.3414 58.7283 43.9193 58.9378C43.4418 59.176 43.0281 59.5249 42.7129 59.9556C42.3799 60.371 42.1509 60.8599 42.0448 61.3816C41.95 61.8429 41.9941 62.322 42.1716 62.7582C42.3587 63.2052 42.6634 63.5932 43.0532 63.8811C43.4272 64.1784 43.8754 64.3677 44.3493 64.4287C44.8152 64.484 45.2871 64.4023 45.7073 64.1936C46.1849 63.9554 46.5986 63.6065 46.9137 63.1758C47.2467 62.7604 47.4758 62.2715 47.5819 61.7498C47.6761 61.2897 47.6331 60.8121 47.4582 60.3763C47.2764 59.9339 46.9768 59.5498 46.592 59.2657C46.2172 58.9621 45.7672 58.7654 45.2897 58.6966L45.2835 58.7058Z" fill="#FED33D"/>
<path d="M53.1841 61.6248L51.8539 66.2154C51.6494 66.7524 51.6494 67.3458 51.8539 67.8828C51.9681 68.1016 52.1285 68.293 52.324 68.4436C52.5195 68.5942 52.7454 68.7005 52.9861 68.7551C53.217 68.8364 53.4628 68.8663 53.7065 68.8428C53.9501 68.8193 54.1856 68.7429 54.3967 68.619C54.8581 68.2764 55.1783 67.7769 55.2969 67.2146L56.624 62.624L57.8613 62.9859L56.5312 67.5765C56.2218 68.6376 55.7207 69.3583 55.0123 69.7419C54.6452 69.934 54.2429 70.0498 53.8298 70.0822C53.4167 70.1146 53.0014 70.0631 52.6088 69.9306C52.2091 69.8334 51.8334 69.6557 51.5047 69.4084C51.176 69.1611 50.9011 68.8493 50.697 68.4922C50.3134 67.79 50.2763 66.9114 50.5826 65.8504L51.9127 61.2598L53.1841 61.6248Z" fill="#FED33D"/>
<path d="M64.0571 71.3419L62.1083 68.0907H61.1803L61.1246 71.3048L59.8223 71.2831L59.9676 63.2402L62.8074 63.2897C63.7251 63.3062 64.418 63.5434 64.8861 64.0012C65.1203 64.2344 65.3023 64.5146 65.4202 64.8234C65.538 65.1321 65.5891 65.4624 65.5698 65.7923C65.584 66.3599 65.3841 66.912 65.0099 67.339C64.5987 67.7631 64.0509 68.0282 63.4632 68.0876L65.5141 71.3976L64.0571 71.3419ZM61.1988 67.1379L62.6372 67.1627C63.6859 67.1813 64.2211 66.7265 64.2365 65.7985C64.2502 65.6095 64.2248 65.4197 64.162 65.2409C64.0992 65.0621 64.0003 64.8981 63.8715 64.7591C63.5424 64.4799 63.1173 64.3401 62.6867 64.3693L61.2514 64.3446L61.1988 67.1379Z" fill="#FED33D"/>
<path d="M73.8848 68.7902C73.7648 69.1774 73.5348 69.5213 73.2229 69.7801C72.8402 70.0919 72.3865 70.3044 71.902 70.3988C71.411 70.5214 70.8994 70.5372 70.4017 70.4452C69.9612 70.3655 69.5494 70.1714 69.2076 69.8822C68.8747 69.5967 68.6301 69.2222 68.5024 68.8026L69.8604 68.4933C69.9721 68.8215 70.1998 69.0976 70.5007 69.2697C70.84 69.4589 71.2405 69.5056 71.6143 69.3997C71.7792 69.3735 71.9371 69.3143 72.0785 69.2255C72.2199 69.1367 72.3419 69.0202 72.4371 68.8831C72.5184 68.7548 72.5722 68.611 72.5951 68.4608C72.618 68.3107 72.6095 68.1574 72.5701 68.0107C72.5225 67.7562 72.3826 67.5282 72.1773 67.3704C71.9768 67.219 71.7455 67.1134 71.4998 67.061C71.2462 67.0115 70.9059 66.9651 70.4729 66.9218C70.0344 66.8924 69.5989 66.8283 69.1705 66.73C68.8253 66.6419 68.5068 66.4709 68.2425 66.232C67.9337 65.9394 67.7267 65.5557 67.6517 65.1369C67.5527 64.7462 67.572 64.3349 67.7073 63.9552C67.8503 63.5771 68.1009 63.2491 68.4281 63.0117C68.8076 62.7334 69.2421 62.5393 69.7026 62.4426C70.3778 62.2495 71.0993 62.2998 71.7411 62.5848C72.0129 62.7169 72.2553 62.9025 72.4535 63.1306C72.6518 63.3586 72.802 63.6244 72.895 63.9119L71.5277 64.2213C71.409 63.9398 71.2001 63.7058 70.9338 63.5562C70.6269 63.3929 70.2682 63.3562 69.9346 63.4541C69.6221 63.5092 69.3399 63.6751 69.1396 63.9212C69.0527 64.044 68.9948 64.1849 68.9701 64.3333C68.9455 64.4817 68.9548 64.6338 68.9973 64.7781C69.0413 65.0235 69.1746 65.2439 69.3716 65.3968C69.5657 65.5397 69.7901 65.6361 70.0274 65.6783C70.2749 65.7278 70.612 65.7711 71.0358 65.8144C71.4826 65.8448 71.9263 65.91 72.3629 66.0093C72.7193 66.099 73.0484 66.2741 73.3219 66.5197C73.6418 66.8203 73.8584 67.2144 73.9405 67.6457C74.0231 68.0254 74.0039 68.4203 73.8848 68.7902Z" fill="#FED33D"/>
<path d="M75.9853 61.4983L77.1392 63.6483L79.7531 62.25L80.2264 63.1348L77.6125 64.533L78.7911 66.7355L81.7081 65.1888L82.2092 66.1168L78.1476 68.2822L74.3459 61.1673L78.4075 59.002L78.9024 59.93L75.9853 61.4983Z" fill="#FED33D"/>
<path d="M85.7265 61.8791L87.6505 59.8684L88.3837 60.5706L85.5595 63.5186L79.7439 57.9505L80.6441 57.0225L85.7265 61.8791Z" fill="#FED33D"/>
<path d="M84.5199 49.5674L85.5283 49.8767L84.5385 53.1898L86.9328 53.9013L87.7494 51.1698L88.7115 51.4575L87.8948 54.189L91.2511 55.1912L90.8799 56.4286L83.1465 54.1271L84.5199 49.5674Z" fill="#FED33D"/>
<path d="M52.4046 51.5936C52.7305 51.2407 52.9587 50.8089 53.0665 50.3407C53.4106 50.362 53.7403 50.4859 54.0131 50.6965C53.8145 51.3606 53.687 52.044 53.6326 52.7351C52.8077 52.7186 51.8581 52.7103 50.7836 52.7103C49.5958 52.7103 48.4244 52.7227 47.2695 52.7474C47.2619 52.4916 47.2868 52.2359 47.3438 51.9864C47.5255 51.9821 47.7039 51.9377 47.8665 51.8565C47.9299 51.8147 47.9842 51.7605 48.0262 51.6973C48.0681 51.6341 48.097 51.563 48.1109 51.4884C48.1635 51.2237 48.1864 50.9539 48.179 50.6841V46.3533C48.1861 46.1061 48.1633 45.8588 48.1109 45.6171C48.0795 45.4734 47.9943 45.3472 47.8727 45.2644C47.7075 45.1831 47.5276 45.1358 47.3438 45.1252C47.2889 44.8754 47.264 44.62 47.2695 44.3643C47.9068 44.3849 48.5255 44.3962 49.1256 44.3983C49.868 44.3983 50.4867 44.3869 50.9816 44.3643C50.9942 44.6209 50.965 44.878 50.895 45.1252C50.7168 45.1358 50.5424 45.181 50.3815 45.2583C50.3199 45.2981 50.2669 45.3498 50.2254 45.4104C50.184 45.4709 50.1551 45.5391 50.1402 45.6109C50.0875 45.8631 50.0647 46.1206 50.0721 46.3781V50.6408C50.0636 50.9116 50.0928 51.1823 50.1588 51.4451C50.1809 51.5274 50.2198 51.6042 50.2731 51.6707C50.3263 51.7373 50.3927 51.7921 50.4681 51.8318C50.6635 51.9144 50.8748 51.9524 51.0868 51.9431H51.2352C51.6546 51.9735 52.0706 51.8491 52.4046 51.5936Z" fill="white"/>
<path d="M56.6611 52.2892C56.0409 51.9324 55.537 51.4038 55.2102 50.7673C54.8619 50.0763 54.6878 49.3106 54.703 48.5369C54.6857 47.7621 54.869 46.9959 55.235 46.3128C55.5772 45.6874 56.0914 45.1732 56.7167 44.831C57.3732 44.4781 58.1091 44.2992 58.8543 44.3113C59.6078 44.2973 60.3526 44.474 61.0196 44.8248C61.6388 45.1609 62.1495 45.6663 62.4921 46.2818C62.8537 46.9454 63.036 47.6917 63.021 48.4472C63.0352 49.2325 62.8557 50.0092 62.4983 50.7085C62.1625 51.3522 61.6522 51.8882 61.0258 52.2552C60.3644 52.6399 59.61 52.8357 58.845 52.8213C58.0826 52.8419 57.3285 52.6582 56.6611 52.2892ZM60.5309 51.1292C60.9184 50.3916 61.1031 49.5642 61.066 48.7318C61.071 48.1049 60.9663 47.482 60.7567 46.8912C60.5895 46.3853 60.2956 45.9305 59.9029 45.5703C59.5646 45.2612 59.1238 45.0882 58.6656 45.0847C58.3711 45.0829 58.0816 45.1599 57.827 45.3079C57.5724 45.4559 57.3621 45.6693 57.2179 45.9261C56.8209 46.6268 56.633 47.4265 56.6765 48.2307C56.6704 48.8747 56.7612 49.516 56.9457 50.1331C57.0914 50.6569 57.3682 51.135 57.7499 51.5221C57.923 51.6905 58.1278 51.8228 58.3524 51.9115C58.577 52.0002 58.817 52.0434 59.0584 52.0387C59.3657 52.0374 59.6666 51.95 59.9268 51.7866C60.187 51.6231 60.3963 51.39 60.5309 51.1137V51.1292Z" fill="white"/>
<path d="M71.5834 44.3701C71.5845 44.6271 71.5512 44.883 71.4844 45.1311C71.265 45.1817 71.0715 45.3103 70.94 45.493C70.7375 45.7971 70.5743 46.1255 70.4543 46.4706C69.7737 48.2297 68.9261 50.3136 67.9115 52.7224C67.6386 52.7907 67.3574 52.8199 67.0763 52.809C66.1586 50.3528 65.3182 48.2761 64.5552 46.5788C64.3696 46.155 64.2242 45.8519 64.1252 45.6694C64.054 45.5254 63.9588 45.3947 63.8437 45.2827C63.7451 45.2019 63.6264 45.1495 63.5003 45.1311C63.4301 44.884 63.405 44.6262 63.4261 44.3701C63.7942 44.3918 64.385 44.4041 65.1955 44.4041C66.006 44.4041 66.5875 44.4041 67.0144 44.3701C67.0149 44.6256 66.99 44.8805 66.9402 45.1311C66.7694 45.1404 66.6023 45.1835 66.4483 45.2579C66.3977 45.291 66.357 45.3373 66.3309 45.3919C66.3047 45.4464 66.294 45.5071 66.2999 45.5673C66.3354 45.863 66.4233 46.1501 66.5597 46.4149C67.1784 47.9121 67.6702 49.2484 68.0445 50.4178C68.6508 49.0195 69.1881 47.6564 69.6562 46.3283C69.7248 46.1425 69.7655 45.9475 69.7768 45.7498C69.7768 45.3971 69.5819 45.193 69.1891 45.1311C69.1251 44.8828 69.1 44.6261 69.1148 44.3701C69.4242 44.3918 69.8294 44.4041 70.3522 44.4041C70.875 44.4041 71.274 44.3918 71.5834 44.3701Z" fill="white"/>
<path d="M79.2087 50.6965C79.0126 51.3612 78.8851 52.0443 78.8282 52.7351C78.0085 52.7196 77.0278 52.7103 75.8802 52.7103C74.7326 52.7103 73.5199 52.7103 72.3661 52.7474C72.3584 52.4916 72.3834 52.2359 72.4404 51.9864C72.622 51.9821 72.8005 51.9377 72.9631 51.8565C73.0269 51.8152 73.0816 51.7612 73.1236 51.6979C73.1657 51.6346 73.1942 51.5633 73.2075 51.4884C73.2617 51.2239 73.2845 50.954 73.2756 50.6841V46.3533C73.2851 46.1039 73.2622 45.8544 73.2075 45.6109C73.1764 45.4687 73.0909 45.3444 72.9693 45.2644C72.8044 45.1822 72.6244 45.1348 72.4404 45.1252C72.3807 44.8762 72.3557 44.6201 72.3661 44.3643C73.0064 44.3859 73.9128 44.3983 75.1316 44.3983C76.802 44.3983 77.928 44.3869 78.5096 44.3643C78.5261 44.7066 78.557 45.0747 78.6024 45.4686C78.6348 45.7957 78.6896 46.1203 78.7663 46.4399C78.4748 46.5702 78.1575 46.6326 77.8383 46.6225C77.7925 46.2105 77.6171 45.8238 77.3372 45.5181C77.0742 45.2552 76.6257 45.1252 75.9977 45.1252H75.1502V48.1723H75.5059C75.8195 48.2018 76.1346 48.1349 76.4092 47.9805C76.5009 47.8839 76.5707 47.7687 76.6139 47.6427C76.6572 47.5168 76.6728 47.383 76.6597 47.2504C76.9419 47.1621 77.2365 47.1203 77.5321 47.1267C77.498 47.668 77.4826 48.1351 77.4826 48.528C77.4826 48.9765 77.4826 49.456 77.5321 49.9633C77.2463 49.9751 76.9604 49.9428 76.6845 49.8675C76.685 49.7279 76.658 49.5897 76.6049 49.4607C76.5518 49.3317 76.4737 49.2145 76.3751 49.1158C76.1078 48.96 75.7984 48.8919 75.4904 48.9209H75.1347V50.6408C75.1253 50.9118 75.1555 51.1828 75.2244 51.4451C75.2466 51.5274 75.2855 51.6042 75.3387 51.6707C75.3919 51.7373 75.4583 51.7921 75.5337 51.8318C75.7289 51.9152 75.9404 51.9532 76.1524 51.9431H76.3009C76.6368 51.9562 76.9718 51.8994 77.2846 51.7761C77.5232 51.6704 77.7239 51.4945 77.86 51.2719C78.0295 50.9803 78.1615 50.6685 78.2528 50.3438C78.6007 50.3573 78.9354 50.4808 79.2087 50.6965Z" fill="white"/>
</g>
<defs>
<filter id="filter0_ddddd_13401_4005" x="0.464355" y="0.449884" width="129.135" height="109.734" filterUnits="userSpaceOnUse" color-interpolation-filters="sRGB">
<feFlood flood-opacity="0" result="BackgroundImageFix"/>
<feColorMatrix in="SourceAlpha" type="matrix" values="0 0 0 0 0 0 0 0 0 0 0 0 0 0 0 0 0 0 127 0" result="hardAlpha"/>
<feOffset dx="2" dy="0.156915"/>
<feGaussianBlur stdDeviation="10"/>
<feColorMatrix type="matrix" values="0 0 0 0 0 0 0 0 0 0 0 0 0 0 0 0 0 0 0.1 0"/>
<feBlend mode="normal" in2="BackgroundImageFix" result="effect1_dropShadow_13401_4005"/>
<feColorMatrix in="SourceAlpha" type="matrix" values="0 0 0 0 0 0 0 0 0 0 0 0 0 0 0 0 0 0 127 0" result="hardAlpha"/>
<feOffset dx="0.509975" dy="0.66689"/>
<feGaussianBlur stdDeviation="0.411903"/>
<feColorMatrix type="matrix" values="0 0 0 0 0 0 0 0 0 0 0 0 0 0 0 0 0 0 0.09 0"/>
<feBlend mode="normal" in2="effect1_dropShadow_13401_4005" result="effect2_dropShadow_13401_4005"/>
<feColorMatrix in="SourceAlpha" type="matrix" values="0 0 0 0 0 0 0 0 0 0 0 0 0 0 0 0 0 0 127 0" result="hardAlpha"/>
<feOffset dx="1.09841" dy="1.4907"/>
<feGaussianBlur stdDeviation="0.549204"/>
<feColorMatrix type="matrix" values="0 0 0 0 0 0 0 0 0 0 0 0 0 0 0 0 0 0 0.05 0"/>
<feBlend mode="normal" in2="effect2_dropShadow_13401_4005" result="effect3_dropShadow_13401_4005"/>
<feColorMatrix in="SourceAlpha" type="matrix" values="0 0 0 0 0 0 0 0 0 0 0 0 0 0 0 0 0 0 127 0" result="hardAlpha"/>
<feOffset dx="1.96144" dy="2.62833"/>
<feGaussianBlur stdDeviation="2.5"/>
<feColorMatrix type="matrix" values="0 0 0 0 0 0 0 0 0 0 0 0 0 0 0 0 0 0 0.05 0"/>
<feBlend mode="normal" in2="effect3_dropShadow_13401_4005" result="effect4_dropShadow_13401_4005"/>
<feColorMatrix in="SourceAlpha" type="matrix" values="0 0 0 0 0 0 0 0 0 0 0 0 0 0 0 0 0 0 127 0" result="hardAlpha"/>
<feOffset dx="3.05985" dy="4.11903"/>
<feGaussianBlur stdDeviation="2.5"/>
<feColorMatrix type="matrix" values="0 0 0 0 0 0 0 0 0 0 0 0 0 0 0 0 0 0 0.03 0"/>
<feBlend mode="normal" in2="effect4_dropShadow_13401_4005" result="effect5_dropShadow_13401_4005"/>
<feBlend mode="normal" in="SourceGraphic" in2="effect5_dropShadow_13401_4005" result="shape"/>
</filter>
</defs>
</svg>
