<svg width="82" height="32" viewBox="0 0 82 32" fill="none" xmlns="http://www.w3.org/2000/svg">
    <path d="M73.0139 4.38815H18.0229V25.5299H73.0139V4.38815Z" fill="#098AF5" />
    <path d="M4.08105 4.24232H8.80126V10.2398H10.2031V13.7924H4.08105V4.24232Z" fill="#098AF5" />
    <path
        d="M15.7891 4.10271H16.9291C18.5723 4.10271 19.7708 4.49468 20.5247 5.27863C21.2785 6.06258 21.6534 7.29228 21.6493 8.96774C21.6493 10.6432 21.2724 11.8843 20.5185 12.691C19.7647 13.4977 18.5723 13.9103 16.9414 13.929H15.7891C14.1458 13.929 12.9473 13.5215 12.1935 12.7065C11.4396 11.8915 11.0596 10.6504 11.0535 8.98325C11.0535 7.3078 11.4314 6.07809 12.1873 5.29414C12.9432 4.51019 14.1438 4.11305 15.7891 4.10271ZM15.9678 8.65126V10.2523C15.9629 10.3591 15.9993 10.4636 16.0694 10.5439C16.1049 10.5806 16.1476 10.6093 16.1949 10.628C16.2422 10.6467 16.2929 10.6551 16.3437 10.6525C16.3967 10.6545 16.4495 10.6459 16.4992 10.6272C16.5489 10.6086 16.5945 10.5803 16.6333 10.5439C16.6721 10.5063 16.7026 10.4609 16.7228 10.4107C16.743 10.3604 16.7524 10.3064 16.7504 10.2523V8.65126C16.7514 8.59905 16.7415 8.54721 16.7213 8.4991C16.7012 8.45099 16.6712 8.4077 16.6333 8.37202C16.5542 8.29971 16.4505 8.26082 16.3437 8.26343C16.293 8.26163 16.2425 8.27034 16.1954 8.28903C16.1482 8.30771 16.1053 8.33596 16.0694 8.37202C16.0054 8.45021 15.9734 8.55011 15.9801 8.65126H15.9678Z"
        fill="#098AF5" />
    <path
        d="M26.9579 9.83959H27.2475L27.5556 4.25474H31.8383L30.1437 13.7924H23.7074L21.9512 4.24232H26.6036L26.9579 9.83959Z"
        fill="#098AF5" />
    <path
        d="M32.7351 4.24232H40.4378V8.27583H37.4738V8.82811H40.4378V9.68756H37.4738V10.2398H40.5549V13.7924H32.7351V4.24232Z"
        fill="#098AF5" />
    <path
        d="M53.446 13.7924H48.3006V11.5492L47.7645 11.3165C47.5963 11.2297 47.4337 11.1323 47.2777 11.0248C47.0832 10.9072 46.9136 10.7523 46.7786 10.5687C46.4592 10.1157 46.2599 9.58818 46.1993 9.03599L45.6108 4.25473H50.4697L50.8117 8.98014H51.1198L51.4094 4.25473H56.1512L55.535 9.02358C55.474 9.57517 55.2759 10.1024 54.9588 10.5563C54.8218 10.7391 54.6513 10.894 54.4566 11.0124C54.301 11.1205 54.1384 11.218 53.9698 11.3041L53.4337 11.5368L53.446 13.7924Z"
        fill="#098AF5" />
    <path
        d="M61.3521 4.10271H62.4921C64.1353 4.10271 65.3338 4.49468 66.0877 5.27863C66.8415 6.06258 67.2164 7.29228 67.2123 8.96774C67.2123 10.6432 66.8353 11.8843 66.0815 12.691C65.3277 13.4977 64.1312 13.9052 62.4921 13.9134H61.3521C59.7088 13.9134 58.5103 13.506 57.7565 12.691C57.0026 11.876 56.6226 10.6349 56.6165 8.96774C56.6165 7.29228 56.9944 6.06258 57.7503 5.27863C58.5062 4.49468 59.7068 4.10271 61.3521 4.10271ZM61.5308 8.65126V10.2523C61.5259 10.3591 61.5623 10.4636 61.6324 10.5439C61.6679 10.5806 61.7106 10.6093 61.7579 10.628C61.8052 10.6467 61.8559 10.6551 61.9067 10.6525C61.9597 10.6548 62.0126 10.6464 62.0624 10.6277C62.1121 10.6091 62.1576 10.5806 62.1963 10.5439C62.2351 10.5063 62.2656 10.4609 62.2858 10.4107C62.3059 10.3604 62.3153 10.3064 62.3134 10.2523V8.65126C62.3144 8.59905 62.3045 8.54721 62.2843 8.4991C62.2641 8.45099 62.2341 8.4077 62.1963 8.37202C62.1175 8.29915 62.0136 8.26017 61.9067 8.26343C61.856 8.26163 61.8055 8.27034 61.7583 8.28903C61.7112 8.30771 61.6683 8.33596 61.6324 8.37202C61.5639 8.44833 61.5275 8.54843 61.5308 8.65126Z"
        fill="#098AF5" />
    <path
        d="M73.4052 4.24232H77.922V9.54794C77.922 11.0414 77.5441 12.1449 76.7882 12.8585C76.0323 13.5721 74.8317 13.929 73.1864 13.929H72.829C71.1858 13.929 69.9893 13.5701 69.2395 12.8523C68.4898 12.1346 68.1119 11.0331 68.1057 9.54794V4.24232H72.6072V10.0599C72.6047 10.1119 72.613 10.1639 72.6316 10.2125C72.6502 10.2611 72.6786 10.3053 72.715 10.3422C72.7922 10.4133 72.8939 10.4512 72.9985 10.4477C73.0512 10.4492 73.1037 10.4401 73.1529 10.4209C73.2021 10.4017 73.247 10.3729 73.285 10.336C73.3226 10.3008 73.3525 10.2581 73.3727 10.2105C73.3928 10.1629 73.4029 10.1116 73.4021 10.0599L73.4052 4.24232Z"
        fill="#098AF5" />
    <path d="M10.4097 22.2318V18.1983H18.8703V22.2318H17.188V27.7608H12.055V22.2318H10.4097Z"
        fill="#098AF5" />
    <path d="M19.9456 27.7608V18.2107H24.6688V27.7608H19.9456Z" fill="#098AF5" />
    <path d="M25.7502 18.2107H30.4735V24.2082H31.8723V27.7608H25.7502V18.2107Z" fill="#098AF5" />
    <path d="M32.9446 18.2107H37.6648V24.2082H39.0636V27.7608H32.9446V18.2107Z" fill="#098AF5" />
    <path
        d="M44.4431 22.6599V18.2107H52.1458V22.2876L50.1154 27.7608H44.4863L46.5167 22.6599H44.4431Z"
        fill="#098AF5" />
    <path
        d="M53.0208 22.9361C53.0208 21.2689 53.3895 20.0464 54.1269 19.2687C54.8643 18.4909 56.0217 18.101 57.5992 18.099C59.1767 18.099 60.3455 18.4858 61.1055 19.2594C61.8655 20.033 62.2455 21.2544 62.2455 22.9237C62.2455 24.5909 61.8696 25.8319 61.1178 26.6469C60.366 27.4619 59.1993 27.8756 57.6177 27.888C56.0382 27.888 54.8766 27.4805 54.133 26.6655C53.3895 25.8505 53.0187 24.6074 53.0208 22.9361ZM57.1525 23.3115H58.0583C58.1605 23.3115 58.2584 23.2706 58.3306 23.1979C58.4029 23.1252 58.4434 23.0265 58.4434 22.9237C58.4434 22.8208 58.4029 22.7222 58.3306 22.6494C58.2584 22.5767 58.1605 22.5358 58.0583 22.5358H57.1525C57.0503 22.5358 56.9524 22.5767 56.8801 22.6494C56.8079 22.7222 56.7673 22.8208 56.7673 22.9237C56.7673 23.0265 56.8079 23.1252 56.8801 23.1979C56.9524 23.2706 57.0503 23.3115 57.1525 23.3115Z"
        fill="#098AF5" />
    <path d="M63.4103 22.0239L63.2039 17.5188H66.1155L65.9214 22.0239H63.4103Z" fill="#098AF5" />
    <path
        d="M71.7537 18.0648C72.4588 18.0621 73.1631 18.1108 73.8612 18.2107C74.3387 18.2719 74.8099 18.3757 75.2692 18.5209L75.679 18.673V22.6196C74.7115 22.2339 73.6746 22.0563 72.6349 22.0983V22.4583C73.8242 22.5513 74.6776 22.7903 75.2014 23.175C75.4647 23.3807 75.6735 23.6485 75.8094 23.9548C75.9454 24.2611 76.0043 24.5964 75.9809 24.9311C75.9947 25.3613 75.8971 25.7878 75.6978 26.1685C75.4985 26.5493 75.2043 26.8713 74.844 27.103C74.082 27.6181 72.9101 27.8756 71.3285 27.8756C70.5257 27.8826 69.7234 27.8298 68.9284 27.7173C68.4516 27.6635 67.9817 27.5595 67.5265 27.4071L67.1568 27.2426V23.8203C67.2399 23.8576 67.3632 23.9103 67.5265 23.9724C67.8883 24.0843 68.2581 24.1683 68.6326 24.2237C69.2434 24.3274 69.8618 24.3782 70.4812 24.3757V24.0437C69.3659 23.961 68.5248 23.7211 67.9578 23.3239C67.3878 22.9268 67.1044 22.238 67.1044 21.2513C67.0901 20.7956 67.1895 20.3435 67.3935 19.9364C67.5975 19.5294 67.8996 19.1803 68.2721 18.9212C69.0455 18.3565 70.2101 18.0648 71.7537 18.0648Z"
        fill="#098AF5" />
    <path
        d="M0.5 16.8951V17.3951H1H13.2842H13.7842V16.8951V7.13714V6.63714H13.2842H12.3823V1.13962V0.639618H11.8823H1H0.5V1.13962V16.8951Z"
        fill="#098AF5" stroke="white" />
    <path
        d="M9.56878 15.1691L9.57038 15.1708C11.0587 16.7572 13.1709 17.5316 15.7891 17.5316H16.9291C19.5623 17.5316 21.6729 16.7542 23.1496 15.1626L23.1509 15.1613C24.558 13.6335 25.2426 11.5575 25.2426 8.96773C25.2426 6.381 24.5778 4.30503 23.1133 2.77635C21.6442 1.24288 19.5411 0.5 16.9291 0.5H15.7891C13.2007 0.5 11.0526 1.26817 9.60585 2.76903C8.16271 4.26614 7.46313 6.39801 7.46313 8.96773C7.46313 11.5383 8.15374 13.6467 9.56878 15.1691Z"
        fill="#098AF5" stroke="white" />
    <path
        d="M20.6524 16.9856L20.7278 17.3951H21.1442H32.7197H33.1385L33.212 16.9829L36.0219 1.22741L36.1267 0.639618H35.5297H18.2449H17.6445L17.7531 1.23011L20.6524 16.9856Z"
        fill="#098AF5" stroke="white" />
    <path
        d="M29.1416 16.8951V17.3951H29.6416H43.6143H44.1143V16.8951V7.13714V6.63714H43.991V1.13962V0.639618H43.491H29.6416H29.1416V1.13962V16.8951Z"
        fill="#098AF5" stroke="white" />
    <path
        d="M44.7195 16.8951V17.3951H45.2195H56.5425H57.0425V16.8951V13.5814C57.3609 13.3115 57.6458 13.0034 57.8907 12.6639L57.8908 12.664L57.8935 12.66C58.554 11.7258 58.9728 10.6409 59.1123 9.50332L59.1124 9.50267L60.1199 1.19985L60.1879 0.639618H59.6235H42.123H41.5575L41.6268 1.20094L42.6527 9.5026C42.6527 9.50279 42.6527 9.50298 42.6527 9.50317C42.7909 10.6422 43.2098 11.7286 43.8717 12.6634L43.8717 12.6634L43.8742 12.6669C44.1183 13.0053 44.4022 13.3124 44.7195 13.5814V16.8951Z"
        fill="#098AF5" stroke="white" />
    <path
        d="M55.1321 15.1696L55.1333 15.1708C56.6216 16.7572 58.7338 17.5316 61.352 17.5316H62.4796C65.1125 17.5316 67.2266 16.7544 68.7006 15.1622L68.7014 15.1613C70.1085 13.6335 70.7932 11.5575 70.7932 8.96773C70.7932 6.381 70.1284 4.30503 68.6639 2.77635C67.195 1.24312 65.0921 0.5 62.4919 0.5H61.352C58.7509 0.5 56.6181 1.26843 55.1745 2.76945C53.736 4.26517 53.0229 6.39573 53.0229 8.96773C53.0229 11.5384 53.7136 13.647 55.1321 15.1696Z"
        fill="#098AF5" stroke="white" />
    <path
        d="M66.7748 15.4667L66.7751 15.4671C68.2362 16.8574 70.2914 17.5301 72.8172 17.5316L73.166 17.5438L73.1747 17.5441H73.1833C75.7178 17.5441 77.7759 16.8784 79.239 15.4963L79.239 15.4963L79.2411 15.4942C80.7571 14.0451 81.5 12.0281 81.5 9.54793V1.13962V0.639618H81H65.0247H64.5247V1.13962V9.54793C64.5247 12.0155 65.2644 14.0267 66.7748 15.4667Z"
        fill="#098AF5" stroke="white" />
    <path
        d="M8.4739 30.8635V31.3635H8.9739H20.2691H20.7691V30.8635V25.8345H21.9421H22.4421V25.3345V15.108V14.608H21.9421H7.32861H6.82861V15.108V25.3345V25.8345H7.32861H8.4739V30.8635Z"
        fill="#098AF5" stroke="white" />
    <path
        d="M28.2468 15.108V14.608H27.7468H16.8645H16.3645V15.108V30.8635V31.3635H16.8645H27.7468H28.2468V30.8635V15.108Z"
        fill="#098AF5" stroke="white" />
    <path
        d="M22.1692 30.8635V31.3635H22.6692H34.9534H35.4534V30.8635V21.1055V20.6055H34.9534H34.0546V15.108V14.608H33.5546H22.6692H22.1692V15.108V30.8635Z"
        fill="#098AF5" stroke="white" />
    <path
        d="M29.3635 30.8635V31.3635H29.8635H42.1447H42.6447V30.8635V21.1055V20.6055H42.1447H41.2459V15.108V14.608H40.7459H29.8635H29.3635V15.108V30.8635Z"
        fill="#098AF5" stroke="white" />
    <path
        d="M39.4649 30.6786L39.1923 31.3635H39.9294H52.2352H52.5829L52.704 31.0375L55.6803 23.0233L55.7116 22.9391V22.8492V15.108V14.608H55.2116H41.3621H40.8621V15.108V25.7626V26.2626H41.2227L39.4649 30.6786Z"
        fill="#098AF5" stroke="white" />
    <path
        d="M63.7535 29.1015L63.7541 29.1007C65.1483 27.5793 65.8266 25.5255 65.8266 22.9299C65.8266 20.3331 65.1257 18.2406 63.6533 16.7376C62.1816 15.2354 60.148 14.5025 57.5992 14.5025C55.0469 14.5025 52.9397 15.3028 51.5329 16.7905C50.1295 18.2746 49.4397 20.3889 49.4397 22.9361C49.4397 25.4827 50.1105 27.5737 51.4921 29.0928C52.9522 30.7015 55.0484 31.4876 57.6177 31.4876C60.1972 31.4876 62.2821 30.7011 63.7535 29.1015Z"
        fill="#098AF5" stroke="white" />
    <path d="M60.4677 25.1266L59.9778 14.4161H69.3319L68.8728 25.1266H60.4677Z" fill="#098AF5" />
    <path
        d="M78.7908 27.9961C78.3205 28.8393 77.6558 29.56 76.8496 30.0956C75.4407 31.0648 73.6202 31.4998 71.3302 31.5C70.3509 31.5064 69.3723 31.4408 68.4025 31.3036C67.6296 31.2139 66.8705 31.0293 66.1421 30.7541L66.1283 30.7489L66.1148 30.7429L63.8656 29.7376L63.5696 29.6053V29.2811V22.1745C63.5332 21.8632 63.5147 21.5501 63.5142 21.2367L63.5142 21.2364C63.5138 20.9422 63.5323 20.6482 63.5696 20.3563V19.0422V18.2808L64.1082 18.5141C64.5668 17.5126 65.2788 16.6456 66.1771 16.0026C67.6159 14.9545 69.4611 14.4684 71.7593 14.4684C71.7595 14.4684 71.7598 14.4684 71.76 14.4684V14.9684C72.6146 14.9661 73.4682 15.0262 74.3142 15.1483L78.7908 27.9961ZM78.7908 27.9961L79.2632 28.2157V27.4319V26.9099C79.4692 26.2687 79.5733 25.5986 79.5714 24.9245M78.7908 27.9961L74.3797 14.6526C75.0831 14.7374 75.7769 14.8895 76.4516 15.1068L76.4619 15.11L76.4719 15.1138L78.9368 16.026L79.2632 16.1468V16.4949V22.982C79.468 23.6087 79.5721 24.2645 79.5714 24.9245M79.5714 24.9245C79.5714 24.9241 79.5714 24.9238 79.5714 24.9234L79.0714 24.9249L79.5714 24.9255C79.5714 24.9252 79.5714 24.9248 79.5714 24.9245Z"
        fill="#098AF5" stroke="white" />
    <path d="M2.84863 15.0335V3.00124H10.0337V8.99875H11.4356V15.0335H2.84863Z" fill="#AAD8FF" />
    <path
        d="M15.7891 15.17C13.8049 15.17 12.2921 14.6271 11.2938 13.5535C10.2955 12.48 9.82104 10.9628 9.82104 8.96773C9.82104 6.97269 10.3325 5.43376 11.3154 4.41297C12.2982 3.39218 13.8172 2.86162 15.7891 2.86162H16.9291C18.9133 2.86162 20.423 3.38287 21.412 4.41297C22.4011 5.44306 22.8817 6.96339 22.8817 8.96463C22.8817 10.9659 22.3887 12.5017 21.4182 13.5504C20.4477 14.5991 18.9133 15.1669 16.9291 15.1669L15.7891 15.17Z"
        fill="#AAD8FF" />
    <path d="M22.6814 15.0335L20.4692 3.00124H33.3173L31.176 15.0335H22.6814Z" fill="#AAD8FF" />
    <path d="M31.4902 15.0335V3.00124H41.6424V8.99875H41.7656V15.0335H31.4902Z" fill="#AAD8FF" />
    <path
        d="M47.0682 15.0335V12.3373C46.9418 12.269 46.7909 12.1759 46.6029 12.0518C46.2785 11.8484 45.9961 11.584 45.771 11.273C45.3389 10.6564 45.0667 9.94071 44.9792 9.19112L44.2151 3.00124H57.5315L56.7674 9.17561C56.6801 9.93829 56.4024 10.6663 55.9601 11.2916C55.737 11.5948 55.4589 11.8527 55.1406 12.0518C54.9526 12.1759 54.8047 12.269 54.6753 12.3373V15.0335H47.0682Z"
        fill="#AAD8FF" />
    <path
        d="M61.3521 15.17C59.3679 15.17 57.8551 14.6271 56.8568 13.5535C55.8585 12.48 55.384 10.9628 55.384 8.96773C55.384 6.97269 55.8832 5.43376 56.866 4.41297C57.8489 3.39218 59.3679 2.86162 61.3521 2.86162H62.4921C64.4763 2.86162 65.986 3.38287 66.975 4.41297C67.964 5.44306 68.4447 6.96339 68.4447 8.96463C68.4447 10.9659 67.9517 12.5017 66.9812 13.5504C66.0106 14.5991 64.4763 15.1669 62.4921 15.1669L61.3521 15.17Z"
        fill="#AAD8FF" />
    <path
        d="M72.8259 15.17C70.8694 15.17 69.3782 14.6922 68.3892 13.7521C67.4002 12.812 66.8733 11.3785 66.8733 9.54793V3.00124H79.1514V9.54793C79.1514 11.3909 78.6368 12.8089 77.6293 13.7614C76.6218 14.7139 75.146 15.17 73.1833 15.17H72.8259Z"
        fill="#AAD8FF" />
    <path d="M10.8225 29.0019V23.4728H9.17725V16.9696H20.0935V23.4728H18.4205V29.0019H10.8225Z"
        fill="#AAD8FF" />
    <path d="M25.8982 16.9696H18.7131V29.0019H25.8982V16.9696Z" fill="#AAD8FF" />
    <path d="M24.5178 29.0019V16.9696H31.706V22.9671H33.1048V29.0019H24.5178Z" fill="#AAD8FF" />
    <path d="M31.7122 29.0019V16.9696H38.8972V22.9671H40.296V29.0019H31.7122Z" fill="#AAD8FF" />
    <path
        d="M42.6624 29.0019L44.6928 23.901H43.2108V16.9696H53.3629V22.511L50.9535 29.0019H42.6624Z"
        fill="#AAD8FF" />
    <path
        d="M57.6177 29.126C55.6828 29.126 54.2039 28.5799 53.2241 27.5002C52.2443 26.4204 51.7883 24.9156 51.7883 22.9361C51.7883 20.9566 52.2751 19.4238 53.2334 18.4123C54.1916 17.4009 55.6766 16.861 57.5992 16.861C59.5218 16.861 60.9884 17.376 61.9805 18.3906C62.9726 19.4052 63.4779 20.9286 63.4779 22.9268C63.4779 24.9249 62.988 26.4421 62.0267 27.497C61.0654 28.552 59.5403 29.126 57.6177 29.126Z"
        fill="#AAD8FF" />
    <path d="M62.2331 23.265L61.9158 16.2777H67.4001L67.1012 23.265H62.2331Z" fill="#AAD8FF" />
    <path
        d="M71.3284 29.1384C70.4637 29.1457 69.5997 29.0887 68.7434 28.9677C68.1641 28.9025 67.5943 28.7692 67.0457 28.5706L65.9242 28.0711V22.0363C65.8874 21.7763 65.8689 21.514 65.8687 21.2513C65.8555 20.599 66.0021 19.9534 66.2955 19.3717C66.5889 18.7899 67.0201 18.2899 67.551 17.9159C68.5554 17.1868 69.9327 16.83 71.7598 16.83C72.5246 16.8284 73.2885 16.8812 74.0459 16.9882C74.6021 17.0554 75.1509 17.1749 75.685 17.345L76.9175 17.8011V23.4108C77.2621 24.2408 77.3134 25.1648 77.0627 26.0283C76.812 26.8918 76.2746 27.6425 75.5402 28.1548C74.5543 28.8188 73.1801 29.1384 71.3284 29.1384Z"
        fill="#AAD8FF" />
    <path d="M4.08105 4.24232H8.80126V10.2398H10.2031V13.7924H4.08105V4.24232Z" fill="#098AF5" />
    <path
        d="M15.7891 4.10271H16.9291C18.5723 4.10271 19.7708 4.49468 20.5247 5.27863C21.2785 6.06258 21.6534 7.29228 21.6493 8.96774C21.6493 10.6432 21.2724 11.8843 20.5185 12.691C19.7647 13.4977 18.5723 13.9103 16.9414 13.929H15.7891C14.1458 13.929 12.9473 13.5215 12.1935 12.7065C11.4396 11.8915 11.0596 10.6504 11.0535 8.98325C11.0535 7.3078 11.4314 6.07809 12.1873 5.29414C12.9432 4.51019 14.1438 4.11305 15.7891 4.10271ZM15.9678 8.65126V10.2523C15.9629 10.3591 15.9993 10.4636 16.0694 10.5439C16.1049 10.5806 16.1476 10.6093 16.1949 10.628C16.2422 10.6467 16.2929 10.6551 16.3437 10.6525C16.3967 10.6545 16.4495 10.6459 16.4992 10.6272C16.5489 10.6086 16.5945 10.5803 16.6333 10.5439C16.6721 10.5063 16.7026 10.4609 16.7228 10.4107C16.743 10.3604 16.7524 10.3064 16.7504 10.2523V8.65126C16.7514 8.59905 16.7415 8.54721 16.7213 8.4991C16.7012 8.45099 16.6712 8.4077 16.6333 8.37202C16.5542 8.29971 16.4505 8.26082 16.3437 8.26343C16.293 8.26163 16.2425 8.27034 16.1954 8.28903C16.1482 8.30771 16.1053 8.33596 16.0694 8.37202C16.0054 8.45021 15.9734 8.55011 15.9801 8.65126H15.9678Z"
        fill="#098AF5" />
    <path
        d="M26.9579 9.83959H27.2475L27.5556 4.25474H31.8383L30.1437 13.7924H23.7074L21.9512 4.24232H26.6036L26.9579 9.83959Z"
        fill="#098AF5" />
    <path
        d="M32.7351 4.24232H40.4378V8.27583H37.4738V8.82811H40.4378V9.68756H37.4738V10.2398H40.5549V13.7924H32.7351V4.24232Z"
        fill="#098AF5" />
    <path
        d="M53.446 13.7924H48.3006V11.5492L47.7645 11.3165C47.5963 11.2297 47.4337 11.1323 47.2777 11.0248C47.0832 10.9072 46.9136 10.7523 46.7786 10.5687C46.4592 10.1157 46.2599 9.58818 46.1993 9.03599L45.6108 4.25473H50.4697L50.8117 8.98014H51.1198L51.4094 4.25473H56.1512L55.535 9.02358C55.474 9.57517 55.2759 10.1024 54.9588 10.5563C54.8218 10.7391 54.6513 10.894 54.4566 11.0124C54.301 11.1205 54.1384 11.218 53.9698 11.3041L53.4337 11.5368L53.446 13.7924Z"
        fill="#098AF5" />
    <path
        d="M61.3521 4.10271H62.4921C64.1353 4.10271 65.3338 4.49468 66.0877 5.27863C66.8415 6.06258 67.2164 7.29228 67.2123 8.96774C67.2123 10.6432 66.8353 11.8843 66.0815 12.691C65.3277 13.4977 64.1312 13.9052 62.4921 13.9134H61.3521C59.7088 13.9134 58.5103 13.506 57.7565 12.691C57.0026 11.876 56.6226 10.6349 56.6165 8.96774C56.6165 7.29228 56.9944 6.06258 57.7503 5.27863C58.5062 4.49468 59.7068 4.10271 61.3521 4.10271ZM61.5308 8.65126V10.2523C61.5259 10.3591 61.5623 10.4636 61.6324 10.5439C61.6679 10.5806 61.7106 10.6093 61.7579 10.628C61.8052 10.6467 61.8559 10.6551 61.9067 10.6525C61.9597 10.6548 62.0126 10.6464 62.0624 10.6277C62.1121 10.6091 62.1576 10.5806 62.1963 10.5439C62.2351 10.5063 62.2656 10.4609 62.2858 10.4107C62.3059 10.3604 62.3153 10.3064 62.3134 10.2523V8.65126C62.3144 8.59905 62.3045 8.54721 62.2843 8.4991C62.2641 8.45099 62.2341 8.4077 62.1963 8.37202C62.1175 8.29915 62.0136 8.26017 61.9067 8.26343C61.856 8.26163 61.8055 8.27034 61.7583 8.28903C61.7112 8.30771 61.6683 8.33596 61.6324 8.37202C61.5639 8.44833 61.5275 8.54843 61.5308 8.65126Z"
        fill="#098AF5" />
    <path
        d="M73.4052 4.24232H77.922V9.54794C77.922 11.0414 77.5441 12.1449 76.7882 12.8585C76.0323 13.5721 74.8317 13.929 73.1864 13.929H72.829C71.1858 13.929 69.9893 13.5701 69.2395 12.8523C68.4898 12.1346 68.1119 11.0331 68.1057 9.54794V4.24232H72.6072V10.0599C72.6047 10.1119 72.613 10.1639 72.6316 10.2125C72.6502 10.2611 72.6786 10.3053 72.715 10.3422C72.7922 10.4133 72.8939 10.4512 72.9985 10.4477C73.0512 10.4492 73.1037 10.4401 73.1529 10.4209C73.2021 10.4017 73.247 10.3729 73.285 10.336C73.3226 10.3008 73.3525 10.2581 73.3727 10.2105C73.3928 10.1629 73.4029 10.1116 73.4021 10.0599L73.4052 4.24232Z"
        fill="#098AF5" />
    <path d="M10.4097 22.2318V18.1983H18.8703V22.2318H17.188V27.7608H12.055V22.2318H10.4097Z"
        fill="#098AF5" />
    <path d="M19.9456 27.7608V18.2107H24.6688V27.7608H19.9456Z" fill="#098AF5" />
    <path d="M25.7502 18.2107H30.4735V24.2082H31.8723V27.7608H25.7502V18.2107Z" fill="#098AF5" />
    <path d="M32.9446 18.2107H37.6648V24.2082H39.0636V27.7608H32.9446V18.2107Z" fill="#098AF5" />
    <path
        d="M44.4431 22.6599V18.2107H52.1458V22.2876L50.1154 27.7608H44.4863L46.5167 22.6599H44.4431Z"
        fill="#098AF5" />
    <path
        d="M53.0208 22.9361C53.0208 21.2689 53.3895 20.0464 54.1269 19.2687C54.8643 18.4909 56.0217 18.101 57.5992 18.099C59.1767 18.099 60.3455 18.4858 61.1055 19.2594C61.8655 20.033 62.2455 21.2544 62.2455 22.9237C62.2455 24.5909 61.8696 25.8319 61.1178 26.6469C60.366 27.4619 59.1993 27.8756 57.6177 27.888C56.0382 27.888 54.8766 27.4805 54.133 26.6655C53.3895 25.8505 53.0187 24.6074 53.0208 22.9361ZM57.1525 23.3115H58.0583C58.1605 23.3115 58.2584 23.2706 58.3306 23.1979C58.4029 23.1252 58.4434 23.0265 58.4434 22.9237C58.4434 22.8208 58.4029 22.7222 58.3306 22.6494C58.2584 22.5767 58.1605 22.5358 58.0583 22.5358H57.1525C57.0503 22.5358 56.9524 22.5767 56.8801 22.6494C56.8079 22.7222 56.7673 22.8208 56.7673 22.9237C56.7673 23.0265 56.8079 23.1252 56.8801 23.1979C56.9524 23.2706 57.0503 23.3115 57.1525 23.3115Z"
        fill="#098AF5" />
    <path d="M63.4103 22.0239L63.2039 17.5188H66.1155L65.9214 22.0239H63.4103Z" fill="#098AF5" />
    <path
        d="M71.7537 18.0648C72.4588 18.0621 73.1631 18.1108 73.8612 18.2107C74.3387 18.2719 74.8099 18.3757 75.2692 18.5209L75.679 18.673V22.6196C74.7115 22.2339 73.6746 22.0563 72.6349 22.0983V22.4583C73.8242 22.5513 74.6776 22.7903 75.2014 23.175C75.4647 23.3807 75.6735 23.6485 75.8094 23.9548C75.9454 24.2611 76.0043 24.5964 75.9809 24.9311C75.9947 25.3613 75.8971 25.7878 75.6978 26.1685C75.4985 26.5493 75.2043 26.8713 74.844 27.103C74.082 27.6181 72.9101 27.8756 71.3285 27.8756C70.5257 27.8826 69.7234 27.8298 68.9284 27.7173C68.4516 27.6635 67.9817 27.5595 67.5265 27.4071L67.1568 27.2426V23.8203C67.2399 23.8576 67.3632 23.9103 67.5265 23.9724C67.8883 24.0843 68.2581 24.1683 68.6326 24.2237C69.2434 24.3274 69.8618 24.3782 70.4812 24.3757V24.0437C69.3659 23.961 68.5248 23.7211 67.9578 23.3239C67.3878 22.9268 67.1044 22.238 67.1044 21.2513C67.0901 20.7956 67.1895 20.3435 67.3935 19.9364C67.5975 19.5294 67.8996 19.1803 68.2721 18.9212C69.0455 18.3565 70.2101 18.0648 71.7537 18.0648Z"
        fill="#098AF5" />
</svg>