<svg width="117" height="96" viewBox="0 0 117 96" fill="none" xmlns="http://www.w3.org/2000/svg">
<g filter="url(#filter0_ddddd_13838_46090)">
<path d="M92.4022 52.4643C92.3118 52.374 92.2148 52.2905 92.1178 52.2069C92.0207 52.1233 91.927 52.0331 91.83 51.9496C91.7329 51.866 91.6426 51.7758 91.5455 51.6889L91.2577 51.4315C91.1674 51.3413 91.0703 51.2577 90.9733 51.1742C90.8762 51.0906 90.7825 51.0004 90.6855 50.9168C90.5884 50.8332 90.4981 50.743 90.401 50.6561C90.304 50.5692 90.2103 50.4823 90.1133 50.3987C90.0162 50.3152 89.9259 50.2249 89.8288 50.1414C89.7318 50.0578 89.6381 49.9676 89.541 49.8807C89.444 49.7938 89.3536 49.7102 89.2566 49.6233C89.1595 49.5364 89.0658 49.4495 88.9688 49.366C88.8717 49.2824 88.7814 49.1922 88.6843 49.1086C88.5873 49.0251 88.4936 48.9348 88.3966 48.8479C88.2995 48.761 88.2092 48.6741 88.1121 48.5906C88.0151 48.507 87.9214 48.4168 87.8243 48.3332C87.7273 48.2497 87.6369 48.1594 87.5399 48.0725C87.4428 47.9856 87.3491 47.9021 87.2521 47.8152C87.155 47.7283 87.0647 47.6414 86.9676 47.5578C86.8706 47.4743 86.7769 47.384 86.6799 47.2971C86.2544 46.8765 85.7737 46.5156 85.2509 46.2243C84.2304 45.6738 83.0802 45.4082 81.9213 45.4555L81.8343 45.3787C81.7372 45.2951 81.6536 45.1982 81.5465 45.1213C81.4394 45.0444 81.3658 44.9408 81.262 44.8606C81.1583 44.7804 81.0813 44.6801 80.9742 44.6033C80.8672 44.5264 80.817 44.4428 80.7266 44.376C82.5134 44.8955 84.3785 45.0935 86.2348 44.9609C88.0318 44.8272 89.444 44.3827 90.5516 43.6039C92.0575 42.5411 92.8941 40.8031 92.6699 39.1821C92.486 38.0363 91.8766 37.0017 90.9632 36.2844C90.8729 36.1975 90.7792 36.1106 90.6788 36.027C90.5784 35.9435 90.4914 35.8499 90.391 35.7696C90.2906 35.6894 90.207 35.5925 90.1066 35.509C90.0062 35.4254 89.9225 35.3352 89.8221 35.2516C89.7217 35.168 89.6347 35.0778 89.5343 34.9942C89.4339 34.9107 89.3469 34.8171 89.2465 34.7369C89.1461 34.6567 89.0625 34.5598 88.9621 34.4762C88.8617 34.3926 88.778 34.3024 88.6777 34.2188C88.5773 34.1353 88.4902 34.0417 88.3899 33.9615C88.2895 33.8813 88.2058 33.7843 88.1021 33.7008C87.9983 33.6172 87.918 33.527 87.8176 33.4434C87.7172 33.3599 87.6336 33.2663 87.5332 33.1861C87.4328 33.1059 87.3458 33.0089 87.2454 32.9287C87.145 32.8485 87.0613 32.7516 86.961 32.668C86.8606 32.5845 86.7735 32.4942 86.6732 32.4107C86.5728 32.3271 86.4891 32.2335 86.3887 32.1533C86.2883 32.0731 86.2013 31.9762 86.1009 31.8926C86.0005 31.8091 85.9169 31.7188 85.8165 31.6353C85.7161 31.5517 85.6291 31.4581 85.5287 31.3779C85.4283 31.2977 85.3446 31.2008 85.2442 31.1172C84.8772 30.7698 84.4653 30.4731 84.0195 30.2349C82.8009 29.6385 81.4576 29.3406 80.1008 29.3659C77.6609 29.3382 75.2432 29.8316 73.0098 30.8131L72.8626 30.6894C71.301 29.3067 69.5733 28.1233 67.7192 27.1667C65.7297 26.1518 63.5035 25.6901 61.274 25.8298C60.3394 25.9131 59.4231 26.1385 58.5567 26.4982C58.4764 26.4213 58.3927 26.3511 58.3091 26.281C58.2254 26.2108 58.1217 26.1072 58.0246 26.0236C57.9276 25.9401 57.8339 25.8465 57.7368 25.7629C57.6398 25.6794 57.5494 25.5891 57.4524 25.5056C57.3554 25.422 57.2617 25.3318 57.1646 25.2482C57.0676 25.1647 56.9772 25.0744 56.8802 24.9875C56.7831 24.9006 56.6894 24.8137 56.5924 24.7301C56.4953 24.6466 56.405 24.5564 56.3079 24.4728C56.2109 24.3892 56.1172 24.299 56.0201 24.2154C55.9231 24.1319 55.8327 24.0383 55.7357 23.9548C55.6387 23.8712 55.5449 23.7809 55.4479 23.6974C55.3509 23.6138 55.2605 23.5236 55.1635 23.44C55.0664 23.3565 54.9727 23.2662 54.8757 23.1793C54.7786 23.0924 54.6883 23.0055 54.5912 22.922C54.4942 22.8384 54.4005 22.7482 54.3034 22.6646C54.2064 22.5811 54.116 22.4908 54.019 22.4039C53.9219 22.317 53.8283 22.2301 53.7312 22.1466C53.6342 22.063 53.5438 21.9728 53.4468 21.8892C53.3497 21.8057 53.256 21.7154 53.159 21.6319C53.0619 21.5483 52.9716 21.4547 52.8745 21.3712C52.2842 20.7586 51.5324 20.3253 50.7061 20.1212C48.6982 19.6365 46.503 20.6158 44.5621 22.8752C40.4928 27.6112 38.8732 33.6674 37.625 39.513C34.6929 41.3727 31.5292 42.8403 28.2149 43.878C27.9568 43.9578 27.7344 44.1249 27.5861 44.3505C27.4377 44.5761 27.3725 44.8463 27.4017 45.1146C27.4217 45.2879 27.4809 45.4544 27.5748 45.6015C27.6687 45.7486 27.7949 45.8724 27.9438 45.9636C28.024 46.0654 28.1214 46.1525 28.2316 46.2209C28.3106 46.3227 28.4069 46.4098 28.5161 46.4783C28.5962 46.5812 28.6936 46.6693 28.8039 46.739C28.8837 46.8399 28.9799 46.9269 29.0883 46.9963C29.1685 47.0982 29.2659 47.1853 29.3761 47.2537C29.455 47.3565 29.5512 47.4447 29.6606 47.5144C29.7416 47.6154 29.8389 47.7023 29.9483 47.7717C30.0273 47.8735 30.1236 47.9606 30.2328 48.0291C30.313 48.1309 30.4104 48.218 30.5206 48.2864C30.5994 48.3892 30.6957 48.4775 30.805 48.5471C30.8861 48.6481 30.9834 48.7351 31.0928 48.8045C31.1718 48.9063 31.268 48.9934 31.3773 49.0618C31.4574 49.1647 31.5547 49.2529 31.6651 49.3225C31.7449 49.4235 31.841 49.5105 31.9495 49.5799C32.0297 49.6818 32.1271 49.7689 32.2373 49.8372C32.3171 49.9392 32.4132 50.0273 32.5217 50.0979C32.6024 50.1981 32.6984 50.285 32.8062 50.3553C32.8872 50.4564 32.9844 50.5434 33.094 50.6127C33.1729 50.7145 33.2692 50.8016 33.3784 50.87C33.4593 50.9721 33.5566 51.0602 33.6662 51.1307C33.7617 51.2561 33.8819 51.3606 34.0195 51.4376C34.1571 51.5146 34.3091 51.5626 34.466 51.5786C34.553 51.5786 34.6467 51.5786 34.7337 51.5786C34.6634 51.7925 34.5998 52.0097 34.5262 52.2236C30.2001 53.0624 26.0969 54.7938 22.4792 57.3072C19.0357 59.7504 17.4295 62.8119 18.1824 65.4958C18.4664 66.4733 19.0362 67.3438 19.8188 67.9958C19.9091 68.086 20.0062 68.1696 20.1066 68.2531C20.207 68.3367 20.294 68.4269 20.391 68.5138C20.4881 68.6007 20.5784 68.6876 20.6788 68.7712C20.7792 68.8547 20.8662 68.945 20.9633 69.0285C21.0603 69.1121 21.1507 69.2023 21.251 69.2892C21.3514 69.3761 21.4384 69.463 21.5355 69.5466C21.6325 69.6301 21.7229 69.7204 21.8199 69.8039C21.917 69.8875 22.0107 69.9777 22.1077 70.0613C22.2048 70.1449 22.2951 70.2384 22.3922 70.322C22.4892 70.4055 22.5829 70.4958 22.68 70.5793C22.777 70.6629 22.8674 70.7531 22.9644 70.8367C23.0615 70.9202 23.1552 71.0105 23.2522 71.0974C23.3492 71.1843 23.4396 71.2712 23.54 71.3548C23.6404 71.4383 23.7274 71.5285 23.8244 71.6121C23.9215 71.6956 24.0118 71.7859 24.1089 71.8728L24.3967 72.1302C24.487 72.2204 24.5841 72.3039 24.6811 72.3875C24.7782 72.4711 24.8719 72.5613 24.9689 72.6449C25.0659 72.7284 25.1563 72.822 25.2533 72.9055C25.3504 72.9891 25.4441 73.0793 25.5411 73.1629C26.96 74.5499 29.1184 75.2217 30.9958 75.2485H31.1497C37.1732 75.2485 41.8314 70.5693 43.9932 66.5285C44.7057 65.18 45.2991 63.772 45.7668 62.3206C46.8975 62.2633 48.0307 62.2745 49.16 62.354C54.1261 62.6883 58.9851 64.1889 63.6867 65.6294L64.4999 65.8768C69.7839 67.4944 74.9675 68.9483 80.2715 68.9884C83.7384 69.0085 86.6798 68.3968 89.0692 67.1468C92.0542 65.5927 94.2026 62.9456 94.8183 60.0679C95.1147 58.7001 95.0476 57.2787 94.6237 55.9448C94.1999 54.611 93.434 53.411 92.4022 52.4643Z" fill="#19154A"/>
<mask id="path-2-inside-1_13838_46090" fill="white">
<path d="M92.4022 52.4643C92.3118 52.374 92.2148 52.2905 92.1178 52.2069C92.0207 52.1233 91.927 52.0331 91.83 51.9496C91.7329 51.866 91.6426 51.7758 91.5455 51.6889L91.2577 51.4315C91.1674 51.3413 91.0703 51.2577 90.9733 51.1742C90.8762 51.0906 90.7825 51.0004 90.6855 50.9168C90.5884 50.8332 90.4981 50.743 90.401 50.6561C90.304 50.5692 90.2103 50.4823 90.1133 50.3987C90.0162 50.3152 89.9259 50.2249 89.8288 50.1414C89.7318 50.0578 89.6381 49.9676 89.541 49.8807C89.444 49.7938 89.3536 49.7102 89.2566 49.6233C89.1595 49.5364 89.0658 49.4495 88.9688 49.366C88.8717 49.2824 88.7814 49.1922 88.6843 49.1086C88.5873 49.0251 88.4936 48.9348 88.3966 48.8479C88.2995 48.761 88.2092 48.6741 88.1121 48.5906C88.0151 48.507 87.9214 48.4168 87.8243 48.3332C87.7273 48.2497 87.6369 48.1594 87.5399 48.0725C87.4428 47.9856 87.3491 47.9021 87.2521 47.8152C87.155 47.7283 87.0647 47.6414 86.9676 47.5578C86.8706 47.4743 86.7769 47.384 86.6799 47.2971C86.2544 46.8765 85.7737 46.5156 85.2509 46.2243C84.2304 45.6738 83.0802 45.4082 81.9213 45.4555L81.8343 45.3787C81.7372 45.2951 81.6536 45.1982 81.5465 45.1213C81.4394 45.0444 81.3658 44.9408 81.262 44.8606C81.1583 44.7804 81.0813 44.6801 80.9742 44.6033C80.8672 44.5264 80.817 44.4428 80.7266 44.376C82.5134 44.8955 84.3785 45.0935 86.2348 44.9609C88.0318 44.8272 89.444 44.3827 90.5516 43.6039C92.0575 42.5411 92.8941 40.8031 92.6699 39.1821C92.486 38.0363 91.8766 37.0017 90.9632 36.2844C90.8729 36.1975 90.7792 36.1106 90.6788 36.027C90.5784 35.9435 90.4914 35.8499 90.391 35.7696C90.2906 35.6894 90.207 35.5925 90.1066 35.509C90.0062 35.4254 89.9225 35.3352 89.8221 35.2516C89.7217 35.168 89.6347 35.0778 89.5343 34.9942C89.4339 34.9107 89.3469 34.8171 89.2465 34.7369C89.1461 34.6567 89.0625 34.5598 88.9621 34.4762C88.8617 34.3926 88.778 34.3024 88.6777 34.2188C88.5773 34.1353 88.4902 34.0417 88.3899 33.9615C88.2895 33.8813 88.2058 33.7843 88.1021 33.7008C87.9983 33.6172 87.918 33.527 87.8176 33.4434C87.7172 33.3599 87.6336 33.2663 87.5332 33.1861C87.4328 33.1059 87.3458 33.0089 87.2454 32.9287C87.145 32.8485 87.0613 32.7516 86.961 32.668C86.8606 32.5845 86.7735 32.4942 86.6732 32.4107C86.5728 32.3271 86.4891 32.2335 86.3887 32.1533C86.2883 32.0731 86.2013 31.9762 86.1009 31.8926C86.0005 31.8091 85.9169 31.7188 85.8165 31.6353C85.7161 31.5517 85.6291 31.4581 85.5287 31.3779C85.4283 31.2977 85.3446 31.2008 85.2442 31.1172C84.8772 30.7698 84.4653 30.4731 84.0195 30.2349C82.8009 29.6385 81.4576 29.3406 80.1008 29.3659C77.6609 29.3382 75.2432 29.8316 73.0098 30.8131L72.8626 30.6894C71.301 29.3067 69.5733 28.1233 67.7192 27.1667C65.7297 26.1518 63.5035 25.6901 61.274 25.8298C60.3394 25.9131 59.4231 26.1385 58.5567 26.4982C58.4764 26.4213 58.3927 26.3511 58.3091 26.281C58.2254 26.2108 58.1217 26.1072 58.0246 26.0236C57.9276 25.9401 57.8339 25.8465 57.7368 25.7629C57.6398 25.6794 57.5494 25.5891 57.4524 25.5056C57.3554 25.422 57.2617 25.3318 57.1646 25.2482C57.0676 25.1647 56.9772 25.0744 56.8802 24.9875C56.7831 24.9006 56.6894 24.8137 56.5924 24.7301C56.4953 24.6466 56.405 24.5564 56.3079 24.4728C56.2109 24.3892 56.1172 24.299 56.0201 24.2154C55.9231 24.1319 55.8327 24.0383 55.7357 23.9548C55.6387 23.8712 55.5449 23.7809 55.4479 23.6974C55.3509 23.6138 55.2605 23.5236 55.1635 23.44C55.0664 23.3565 54.9727 23.2662 54.8757 23.1793C54.7786 23.0924 54.6883 23.0055 54.5912 22.922C54.4942 22.8384 54.4005 22.7482 54.3034 22.6646C54.2064 22.5811 54.116 22.4908 54.019 22.4039C53.9219 22.317 53.8283 22.2301 53.7312 22.1466C53.6342 22.063 53.5438 21.9728 53.4468 21.8892C53.3497 21.8057 53.256 21.7154 53.159 21.6319C53.0619 21.5483 52.9716 21.4547 52.8745 21.3712C52.2842 20.7586 51.5324 20.3253 50.7061 20.1212C48.6982 19.6365 46.503 20.6158 44.5621 22.8752C40.4928 27.6112 38.8732 33.6674 37.625 39.513C34.6929 41.3727 31.5292 42.8403 28.2149 43.878C27.9568 43.9578 27.7344 44.1249 27.5861 44.3505C27.4377 44.5761 27.3725 44.8463 27.4017 45.1146C27.4217 45.2879 27.4809 45.4544 27.5748 45.6015C27.6687 45.7486 27.7949 45.8724 27.9438 45.9636C28.024 46.0654 28.1214 46.1525 28.2316 46.2209C28.3106 46.3227 28.4069 46.4098 28.5161 46.4783C28.5962 46.5812 28.6936 46.6693 28.8039 46.739C28.8837 46.8399 28.9799 46.9269 29.0883 46.9963C29.1685 47.0982 29.2659 47.1853 29.3761 47.2537C29.455 47.3565 29.5512 47.4447 29.6606 47.5144C29.7416 47.6154 29.8389 47.7023 29.9483 47.7717C30.0273 47.8735 30.1236 47.9606 30.2328 48.0291C30.313 48.1309 30.4104 48.218 30.5206 48.2864C30.5994 48.3892 30.6957 48.4775 30.805 48.5471C30.8861 48.6481 30.9834 48.7351 31.0928 48.8045C31.1718 48.9063 31.268 48.9934 31.3773 49.0618C31.4574 49.1647 31.5547 49.2529 31.6651 49.3225C31.7449 49.4235 31.841 49.5105 31.9495 49.5799C32.0297 49.6818 32.1271 49.7689 32.2373 49.8372C32.3171 49.9392 32.4132 50.0273 32.5217 50.0979C32.6024 50.1981 32.6984 50.285 32.8062 50.3553C32.8872 50.4564 32.9844 50.5434 33.094 50.6127C33.1729 50.7145 33.2692 50.8016 33.3784 50.87C33.4593 50.9721 33.5566 51.0602 33.6662 51.1307C33.7617 51.2561 33.8819 51.3606 34.0195 51.4376C34.1571 51.5146 34.3091 51.5626 34.466 51.5786C34.553 51.5786 34.6467 51.5786 34.7337 51.5786C34.6634 51.7925 34.5998 52.0097 34.5262 52.2236C30.2001 53.0624 26.0969 54.7938 22.4792 57.3072C19.0357 59.7504 17.4295 62.8119 18.1824 65.4958C18.4664 66.4733 19.0362 67.3438 19.8188 67.9958C19.9091 68.086 20.0062 68.1696 20.1066 68.2531C20.207 68.3367 20.294 68.4269 20.391 68.5138C20.4881 68.6007 20.5784 68.6876 20.6788 68.7712C20.7792 68.8547 20.8662 68.945 20.9633 69.0285C21.0603 69.1121 21.1507 69.2023 21.251 69.2892C21.3514 69.3761 21.4384 69.463 21.5355 69.5466C21.6325 69.6301 21.7229 69.7204 21.8199 69.8039C21.917 69.8875 22.0107 69.9777 22.1077 70.0613C22.2048 70.1449 22.2951 70.2384 22.3922 70.322C22.4892 70.4055 22.5829 70.4958 22.68 70.5793C22.777 70.6629 22.8674 70.7531 22.9644 70.8367C23.0615 70.9202 23.1552 71.0105 23.2522 71.0974C23.3492 71.1843 23.4396 71.2712 23.54 71.3548C23.6404 71.4383 23.7274 71.5285 23.8244 71.6121C23.9215 71.6956 24.0118 71.7859 24.1089 71.8728L24.3967 72.1302C24.487 72.2204 24.5841 72.3039 24.6811 72.3875C24.7782 72.4711 24.8719 72.5613 24.9689 72.6449C25.0659 72.7284 25.1563 72.822 25.2533 72.9055C25.3504 72.9891 25.4441 73.0793 25.5411 73.1629C26.96 74.5499 29.1184 75.2217 30.9958 75.2485H31.1497C37.1732 75.2485 41.8314 70.5693 43.9932 66.5285C44.7057 65.18 45.2991 63.772 45.7668 62.3206C46.8975 62.2633 48.0307 62.2745 49.16 62.354C54.1261 62.6883 58.9851 64.1889 63.6867 65.6294L64.4999 65.8768C69.7839 67.4944 74.9675 68.9483 80.2715 68.9884C83.7384 69.0085 86.6798 68.3968 89.0692 67.1468C92.0542 65.5927 94.2026 62.9456 94.8183 60.0679C95.1147 58.7001 95.0476 57.2787 94.6237 55.9448C94.1999 54.611 93.434 53.411 92.4022 52.4643Z"/>
</mask>
<path d="M92.4022 52.4643C92.3118 52.374 92.2148 52.2905 92.1178 52.2069C92.0207 52.1233 91.927 52.0331 91.83 51.9496C91.7329 51.866 91.6426 51.7758 91.5455 51.6889L91.2577 51.4315C91.1674 51.3413 91.0703 51.2577 90.9733 51.1742C90.8762 51.0906 90.7825 51.0004 90.6855 50.9168C90.5884 50.8332 90.4981 50.743 90.401 50.6561C90.304 50.5692 90.2103 50.4823 90.1133 50.3987C90.0162 50.3152 89.9259 50.2249 89.8288 50.1414C89.7318 50.0578 89.6381 49.9676 89.541 49.8807C89.444 49.7938 89.3536 49.7102 89.2566 49.6233C89.1595 49.5364 89.0658 49.4495 88.9688 49.366C88.8717 49.2824 88.7814 49.1922 88.6843 49.1086C88.5873 49.0251 88.4936 48.9348 88.3966 48.8479C88.2995 48.761 88.2092 48.6741 88.1121 48.5906C88.0151 48.507 87.9214 48.4168 87.8243 48.3332C87.7273 48.2497 87.6369 48.1594 87.5399 48.0725C87.4428 47.9856 87.3491 47.9021 87.2521 47.8152C87.155 47.7283 87.0647 47.6414 86.9676 47.5578C86.8706 47.4743 86.7769 47.384 86.6799 47.2971C86.2544 46.8765 85.7737 46.5156 85.2509 46.2243C84.2304 45.6738 83.0802 45.4082 81.9213 45.4555L81.8343 45.3787C81.7372 45.2951 81.6536 45.1982 81.5465 45.1213C81.4394 45.0444 81.3658 44.9408 81.262 44.8606C81.1583 44.7804 81.0813 44.6801 80.9742 44.6033C80.8672 44.5264 80.817 44.4428 80.7266 44.376C82.5134 44.8955 84.3785 45.0935 86.2348 44.9609C88.0318 44.8272 89.444 44.3827 90.5516 43.6039C92.0575 42.5411 92.8941 40.8031 92.6699 39.1821C92.486 38.0363 91.8766 37.0017 90.9632 36.2844C90.8729 36.1975 90.7792 36.1106 90.6788 36.027C90.5784 35.9435 90.4914 35.8499 90.391 35.7696C90.2906 35.6894 90.207 35.5925 90.1066 35.509C90.0062 35.4254 89.9225 35.3352 89.8221 35.2516C89.7217 35.168 89.6347 35.0778 89.5343 34.9942C89.4339 34.9107 89.3469 34.8171 89.2465 34.7369C89.1461 34.6567 89.0625 34.5598 88.9621 34.4762C88.8617 34.3926 88.778 34.3024 88.6777 34.2188C88.5773 34.1353 88.4902 34.0417 88.3899 33.9615C88.2895 33.8813 88.2058 33.7843 88.1021 33.7008C87.9983 33.6172 87.918 33.527 87.8176 33.4434C87.7172 33.3599 87.6336 33.2663 87.5332 33.1861C87.4328 33.1059 87.3458 33.0089 87.2454 32.9287C87.145 32.8485 87.0613 32.7516 86.961 32.668C86.8606 32.5845 86.7735 32.4942 86.6732 32.4107C86.5728 32.3271 86.4891 32.2335 86.3887 32.1533C86.2883 32.0731 86.2013 31.9762 86.1009 31.8926C86.0005 31.8091 85.9169 31.7188 85.8165 31.6353C85.7161 31.5517 85.6291 31.4581 85.5287 31.3779C85.4283 31.2977 85.3446 31.2008 85.2442 31.1172C84.8772 30.7698 84.4653 30.4731 84.0195 30.2349C82.8009 29.6385 81.4576 29.3406 80.1008 29.3659C77.6609 29.3382 75.2432 29.8316 73.0098 30.8131L72.8626 30.6894C71.301 29.3067 69.5733 28.1233 67.7192 27.1667C65.7297 26.1518 63.5035 25.6901 61.274 25.8298C60.3394 25.9131 59.4231 26.1385 58.5567 26.4982C58.4764 26.4213 58.3927 26.3511 58.3091 26.281C58.2254 26.2108 58.1217 26.1072 58.0246 26.0236C57.9276 25.9401 57.8339 25.8465 57.7368 25.7629C57.6398 25.6794 57.5494 25.5891 57.4524 25.5056C57.3554 25.422 57.2617 25.3318 57.1646 25.2482C57.0676 25.1647 56.9772 25.0744 56.8802 24.9875C56.7831 24.9006 56.6894 24.8137 56.5924 24.7301C56.4953 24.6466 56.405 24.5564 56.3079 24.4728C56.2109 24.3892 56.1172 24.299 56.0201 24.2154C55.9231 24.1319 55.8327 24.0383 55.7357 23.9548C55.6387 23.8712 55.5449 23.7809 55.4479 23.6974C55.3509 23.6138 55.2605 23.5236 55.1635 23.44C55.0664 23.3565 54.9727 23.2662 54.8757 23.1793C54.7786 23.0924 54.6883 23.0055 54.5912 22.922C54.4942 22.8384 54.4005 22.7482 54.3034 22.6646C54.2064 22.5811 54.116 22.4908 54.019 22.4039C53.9219 22.317 53.8283 22.2301 53.7312 22.1466C53.6342 22.063 53.5438 21.9728 53.4468 21.8892C53.3497 21.8057 53.256 21.7154 53.159 21.6319C53.0619 21.5483 52.9716 21.4547 52.8745 21.3712C52.2842 20.7586 51.5324 20.3253 50.7061 20.1212C48.6982 19.6365 46.503 20.6158 44.5621 22.8752C40.4928 27.6112 38.8732 33.6674 37.625 39.513C34.6929 41.3727 31.5292 42.8403 28.2149 43.878C27.9568 43.9578 27.7344 44.1249 27.5861 44.3505C27.4377 44.5761 27.3725 44.8463 27.4017 45.1146C27.4217 45.2879 27.4809 45.4544 27.5748 45.6015C27.6687 45.7486 27.7949 45.8724 27.9438 45.9636C28.024 46.0654 28.1214 46.1525 28.2316 46.2209C28.3106 46.3227 28.4069 46.4098 28.5161 46.4783C28.5962 46.5812 28.6936 46.6693 28.8039 46.739C28.8837 46.8399 28.9799 46.9269 29.0883 46.9963C29.1685 47.0982 29.2659 47.1853 29.3761 47.2537C29.455 47.3565 29.5512 47.4447 29.6606 47.5144C29.7416 47.6154 29.8389 47.7023 29.9483 47.7717C30.0273 47.8735 30.1236 47.9606 30.2328 48.0291C30.313 48.1309 30.4104 48.218 30.5206 48.2864C30.5994 48.3892 30.6957 48.4775 30.805 48.5471C30.8861 48.6481 30.9834 48.7351 31.0928 48.8045C31.1718 48.9063 31.268 48.9934 31.3773 49.0618C31.4574 49.1647 31.5547 49.2529 31.6651 49.3225C31.7449 49.4235 31.841 49.5105 31.9495 49.5799C32.0297 49.6818 32.1271 49.7689 32.2373 49.8372C32.3171 49.9392 32.4132 50.0273 32.5217 50.0979C32.6024 50.1981 32.6984 50.285 32.8062 50.3553C32.8872 50.4564 32.9844 50.5434 33.094 50.6127C33.1729 50.7145 33.2692 50.8016 33.3784 50.87C33.4593 50.9721 33.5566 51.0602 33.6662 51.1307C33.7617 51.2561 33.8819 51.3606 34.0195 51.4376C34.1571 51.5146 34.3091 51.5626 34.466 51.5786C34.553 51.5786 34.6467 51.5786 34.7337 51.5786C34.6634 51.7925 34.5998 52.0097 34.5262 52.2236C30.2001 53.0624 26.0969 54.7938 22.4792 57.3072C19.0357 59.7504 17.4295 62.8119 18.1824 65.4958C18.4664 66.4733 19.0362 67.3438 19.8188 67.9958C19.9091 68.086 20.0062 68.1696 20.1066 68.2531C20.207 68.3367 20.294 68.4269 20.391 68.5138C20.4881 68.6007 20.5784 68.6876 20.6788 68.7712C20.7792 68.8547 20.8662 68.945 20.9633 69.0285C21.0603 69.1121 21.1507 69.2023 21.251 69.2892C21.3514 69.3761 21.4384 69.463 21.5355 69.5466C21.6325 69.6301 21.7229 69.7204 21.8199 69.8039C21.917 69.8875 22.0107 69.9777 22.1077 70.0613C22.2048 70.1449 22.2951 70.2384 22.3922 70.322C22.4892 70.4055 22.5829 70.4958 22.68 70.5793C22.777 70.6629 22.8674 70.7531 22.9644 70.8367C23.0615 70.9202 23.1552 71.0105 23.2522 71.0974C23.3492 71.1843 23.4396 71.2712 23.54 71.3548C23.6404 71.4383 23.7274 71.5285 23.8244 71.6121C23.9215 71.6956 24.0118 71.7859 24.1089 71.8728L24.3967 72.1302C24.487 72.2204 24.5841 72.3039 24.6811 72.3875C24.7782 72.4711 24.8719 72.5613 24.9689 72.6449C25.0659 72.7284 25.1563 72.822 25.2533 72.9055C25.3504 72.9891 25.4441 73.0793 25.5411 73.1629C26.96 74.5499 29.1184 75.2217 30.9958 75.2485H31.1497C37.1732 75.2485 41.8314 70.5693 43.9932 66.5285C44.7057 65.18 45.2991 63.772 45.7668 62.3206C46.8975 62.2633 48.0307 62.2745 49.16 62.354C54.1261 62.6883 58.9851 64.1889 63.6867 65.6294L64.4999 65.8768C69.7839 67.4944 74.9675 68.9483 80.2715 68.9884C83.7384 69.0085 86.6798 68.3968 89.0692 67.1468C92.0542 65.5927 94.2026 62.9456 94.8183 60.0679C95.1147 58.7001 95.0476 57.2787 94.6237 55.9448C94.1999 54.611 93.434 53.411 92.4022 52.4643Z" fill="#19154A" stroke="white" stroke-width="6.9911" mask="url(#path-2-inside-1_13838_46090)"/>
<path d="M84.6839 47.242C82.2443 45.8884 78.6603 46.7774 77.4824 49.3008C78.5064 49.4746 79.2962 50.7581 78.9347 51.7173C78.5733 52.6765 77.6531 53.3216 76.7328 53.8062C73.1689 55.6745 68.9457 56.0054 64.9033 55.6311C60.8608 55.2567 56.8719 54.214 52.8228 53.5054C48.4994 52.6944 44.0921 52.4216 39.7015 52.6932C40.1667 50.6879 40.5415 48.6257 40.9732 46.6137C41.2911 45.1397 41.6425 43.6758 42.0373 42.2219C42.8478 41.7866 43.6301 41.301 44.3798 40.768C48.7867 37.6507 51.8693 33.0021 53.0236 27.7332C53.2846 26.4732 53.4218 25.1563 53.057 23.923C52.6923 22.6897 51.7385 21.55 50.4401 21.2492C48.536 20.7947 46.7056 22.175 45.454 23.6289C41.4785 28.2345 39.9659 34.1403 38.6709 40.1999C35.5373 42.247 32.1367 43.8541 28.5647 44.9759C31.7082 45.2573 34.8764 44.9166 37.8878 43.9733C37.2185 47.1317 36.499 50.2734 35.4048 53.2447C31.01 54.0175 26.8336 55.7275 23.1603 58.2581C20.8178 59.9292 18.5724 62.5395 19.3153 65.1799C19.9444 67.4259 22.568 68.6225 25.0042 68.6525C30.1007 68.7194 34.6184 64.9192 36.9542 60.5509C37.7554 59.0278 38.4033 57.429 38.8884 55.7781C40.3365 55.671 41.7906 55.671 43.2387 55.7781C48.6264 56.1525 53.7631 57.7835 58.8396 59.351C63.9161 60.9185 69.0227 62.3591 74.2765 62.4125C77.121 62.4326 80.019 62.0115 82.5254 60.7013C85.0319 59.3911 87.0899 57.1284 87.6722 54.4112C88.2545 51.6939 87.1167 48.5956 84.6839 47.242ZM45.3469 32.2586C46.0162 30.5875 47.0737 28.0106 48.4925 26.5367C48.5752 26.4504 48.6817 26.3907 48.7985 26.3651C48.9152 26.3395 49.037 26.3492 49.1482 26.3929C49.2595 26.4366 49.3552 26.5124 49.4231 26.6106C49.4911 26.7089 49.5283 26.8251 49.5299 26.9444C49.4463 29.4745 47.5388 32.5995 45.8489 34.3275C45.2164 34.9692 44.5639 35.5975 43.8912 36.2025C44.3464 34.8767 44.8316 33.5621 45.3469 32.2586ZM30.9306 61.2561C30.3082 62.0014 29.5921 62.7434 28.625 62.9807C27.6579 63.218 26.4766 62.72 26.3829 61.7842C26.2992 60.9988 26.9719 60.3169 27.6277 59.8156C29.5075 58.3945 31.6367 57.3368 33.9056 56.6973C33.0884 58.3236 32.0905 59.8528 30.9306 61.2561Z" fill="#FFADE3"/>
<path d="M48.4309 40.1534C46.992 41.106 45.9613 42.5264 45.108 43.997C44.4052 45.2036 43.7694 46.5873 44.1041 47.9275C44.2569 48.474 44.5343 48.9777 44.9146 49.3993C45.2948 49.8208 45.7676 50.1488 46.2959 50.3574C47.381 50.7804 48.5697 50.8621 49.7026 50.5913C50.6758 50.3808 51.5966 49.9762 52.4096 49.4019C53.2227 48.8276 53.9113 48.0954 54.4344 47.2491C54.9349 46.4196 55.2534 45.4934 55.3688 44.5317C55.4841 43.5701 55.3938 42.595 55.1037 41.6708C54.1399 38.743 50.8002 38.5826 48.4309 40.1534ZM52.0551 42.0385C51.8041 44.1073 49.378 49.2544 48.18 48.8634C47.156 48.5291 48.4544 44.8293 49.0366 43.5759C49.4248 42.7437 49.9937 41.6875 50.7768 41.1327C51.5598 40.5779 52.1588 41.1695 52.0551 42.0385Z" fill="#FFADE3"/>
<path d="M61.8531 37.147C62.1277 37.0255 62.3697 36.841 62.5594 36.6084C62.7491 36.3758 62.8811 36.1018 62.9447 35.8086C63.0083 35.5155 63.0017 35.2114 62.9254 34.9213C62.8491 34.6312 62.7053 34.3631 62.5057 34.139C62.0706 34.5701 61.2039 34.2092 61.0801 33.6176C60.9563 33.026 61.4147 32.4345 62.0004 32.2105C62.5965 32.025 63.2341 32.0181 63.8342 32.1905C65.6881 32.6016 67.3011 33.5708 68.8939 34.6036C68.5058 34.9088 68.1298 35.2252 67.7662 35.5528C64.393 38.6344 61.7159 42.5415 59.8218 46.7059C60.3665 44.5961 60.561 42.4113 60.3974 40.2386C60.387 40.094 60.3476 39.9529 60.2817 39.8237C60.2157 39.6945 60.1245 39.5798 60.0135 39.4863C59.9025 39.3929 59.7738 39.3226 59.6352 39.2796C59.4965 39.2366 59.3506 39.2217 59.2061 39.2359C58.0999 39.348 57.0329 39.7066 56.0839 40.2854C57.3355 41.873 57.2317 44.0822 56.9941 46.0809C56.8168 47.5415 56.6126 49.0889 56.8937 50.4927C56.9305 50.6751 57.0134 50.8451 57.1346 50.9864C57.2558 51.1277 57.4112 51.2357 57.586 51.3C57.7608 51.3644 57.9492 51.3829 58.1332 51.3539C58.3172 51.3249 58.4907 51.2494 58.6372 51.1344C60.8391 49.3998 62.5726 47.2708 64.1454 44.9512C65.9893 42.234 67.706 39.4198 70.0217 37.1136C70.3831 36.7527 70.7612 36.405 71.1528 36.0775C71.6882 36.4117 72.2269 36.7058 72.7858 36.9766C75.0756 38.0763 77.6138 38.558 80.1479 38.3737C81.4664 38.2767 82.8083 37.9826 83.8758 37.2272C84.9433 36.4719 85.6828 35.1985 85.5088 33.9184C85.3549 32.7854 84.5049 31.8128 83.4809 31.2713C82.4226 30.7659 81.2605 30.5152 80.0876 30.5394C77.5687 30.5217 75.0794 31.0832 72.8126 32.1804L72.1065 31.5788C70.6202 30.2556 68.9744 29.1227 67.2074 28.2065C65.4111 27.2815 63.3986 26.8566 61.3813 26.9765C59.3734 27.147 57.3656 28.0795 56.1977 29.6737C55.0298 31.268 54.7822 33.5541 55.843 35.2319C56.9038 36.9097 60.0226 38.006 61.8531 37.147ZM78.6186 32.9458C79.025 32.9112 79.4337 32.9754 79.8099 33.133C79.9947 33.2124 80.152 33.3445 80.2621 33.5127C80.3722 33.681 80.4303 33.8779 80.429 34.0788C80.3721 34.6704 79.666 34.9712 79.0603 35.028C77.7194 35.0986 76.39 34.7479 75.2588 34.0254C75.1283 33.9485 75.0011 33.8649 74.874 33.7847C76.0594 33.2759 77.3291 32.9914 78.6186 32.9458Z" fill="#FFADE3"/>
<path d="M70.4443 47.9651C71.6029 48.2603 72.8242 48.195 73.9447 47.778C74.5216 47.5489 75.0439 47.2015 75.478 46.7582C75.912 46.3149 76.2481 45.7856 76.4645 45.2044C76.8928 43.9979 76.7121 42.5306 75.8956 41.5848C75.2192 40.8862 74.3037 40.4685 73.3323 40.415C72.3997 40.3327 71.4601 40.4401 70.5703 40.7308C69.6805 41.0214 68.859 41.4893 68.1554 42.1062C66.6579 43.4455 65.6933 45.2785 65.4381 47.27C65.2708 48.54 65.4013 49.9003 66.0338 50.9732C66.4755 51.6976 67.1305 52.2681 67.9092 52.6067C68.6878 52.9453 69.5522 53.0355 70.3841 52.8649C72.0071 52.5307 73.3959 51.3041 74.2793 49.7633C73.5598 49.9638 72.3518 50.2446 71.6022 50.1577C71.2167 50.1311 70.8424 50.0167 70.5079 49.8234C70.3361 49.7126 70.191 49.5653 70.0828 49.392C69.9746 49.2187 69.9061 49.0236 69.8821 48.8208C69.8536 48.634 69.8952 48.4433 69.999 48.2853C70.1028 48.1273 70.2614 48.0133 70.4443 47.9651ZM70.779 45.532C71.2287 44.6805 71.7915 43.8935 72.4522 43.1924C72.6571 42.9515 72.9044 42.7499 73.1817 42.5975C74.6943 41.8488 73.9346 43.7639 73.5665 44.3354C73.0313 45.173 72.2406 45.8163 71.311 46.1703C71.1236 46.2405 70.8861 46.2873 70.7455 46.1503C70.605 46.0133 70.692 45.7292 70.7923 45.5487L70.779 45.532Z" fill="#FFADE3"/>
</g>
<defs>
<filter id="filter0_ddddd_13838_46090" x="0" y="0.156915" width="117" height="95.2485" filterUnits="userSpaceOnUse" color-interpolation-filters="sRGB">
<feFlood flood-opacity="0" result="BackgroundImageFix"/>
<feColorMatrix in="SourceAlpha" type="matrix" values="0 0 0 0 0 0 0 0 0 0 0 0 0 0 0 0 0 0 127 0" result="hardAlpha"/>
<feOffset dx="2" dy="0.156915"/>
<feGaussianBlur stdDeviation="10"/>
<feColorMatrix type="matrix" values="0 0 0 0 0 0 0 0 0 0 0 0 0 0 0 0 0 0 0.1 0"/>
<feBlend mode="normal" in2="BackgroundImageFix" result="effect1_dropShadow_13838_46090"/>
<feColorMatrix in="SourceAlpha" type="matrix" values="0 0 0 0 0 0 0 0 0 0 0 0 0 0 0 0 0 0 127 0" result="hardAlpha"/>
<feOffset dx="0.509975" dy="0.66689"/>
<feGaussianBlur stdDeviation="0.411903"/>
<feColorMatrix type="matrix" values="0 0 0 0 0 0 0 0 0 0 0 0 0 0 0 0 0 0 0.09 0"/>
<feBlend mode="normal" in2="effect1_dropShadow_13838_46090" result="effect2_dropShadow_13838_46090"/>
<feColorMatrix in="SourceAlpha" type="matrix" values="0 0 0 0 0 0 0 0 0 0 0 0 0 0 0 0 0 0 127 0" result="hardAlpha"/>
<feOffset dx="1.09841" dy="1.4907"/>
<feGaussianBlur stdDeviation="0.549204"/>
<feColorMatrix type="matrix" values="0 0 0 0 0 0 0 0 0 0 0 0 0 0 0 0 0 0 0.05 0"/>
<feBlend mode="normal" in2="effect2_dropShadow_13838_46090" result="effect3_dropShadow_13838_46090"/>
<feColorMatrix in="SourceAlpha" type="matrix" values="0 0 0 0 0 0 0 0 0 0 0 0 0 0 0 0 0 0 127 0" result="hardAlpha"/>
<feOffset dx="1.96144" dy="2.62833"/>
<feGaussianBlur stdDeviation="2.5"/>
<feColorMatrix type="matrix" values="0 0 0 0 0 0 0 0 0 0 0 0 0 0 0 0 0 0 0.05 0"/>
<feBlend mode="normal" in2="effect3_dropShadow_13838_46090" result="effect4_dropShadow_13838_46090"/>
<feColorMatrix in="SourceAlpha" type="matrix" values="0 0 0 0 0 0 0 0 0 0 0 0 0 0 0 0 0 0 127 0" result="hardAlpha"/>
<feOffset dx="3.05985" dy="4.11903"/>
<feGaussianBlur stdDeviation="2.5"/>
<feColorMatrix type="matrix" values="0 0 0 0 0 0 0 0 0 0 0 0 0 0 0 0 0 0 0.03 0"/>
<feBlend mode="normal" in2="effect4_dropShadow_13838_46090" result="effect5_dropShadow_13838_46090"/>
<feBlend mode="normal" in="SourceGraphic" in2="effect5_dropShadow_13838_46090" result="shape"/>
</filter>
</defs>
</svg>
