<svg width="62" height="64" viewBox="0 0 62 64" fill="none" xmlns="http://www.w3.org/2000/svg">
    <g filter="url(#filter0_dddd_13426_5703)">
        <path
            d="M9.54803 47.3099C3.44893 40.3785 1.02787 31.7528 3.3925 24.2244L3.39306 24.2226C5.63186 17.1261 11.2774 11.2251 17.0872 7.38953C18.9812 6.13049 20.9877 5.05039 23.0809 4.16317L23.0864 4.16085L23.0864 4.16086C33.6435 -0.264483 44.9815 4.71098 51.4508 12.2749L51.5472 12.3876L51.6197 12.517C55.4312 19.3246 55.4472 28.4188 51.7384 36.0194L51.7377 36.0209C48.2515 43.1455 41.8107 48.8526 33.6841 52.1553L33.6815 52.1564C29.355 53.9055 25.2385 54.6798 21.4745 54.3424L9.54803 47.3099ZM9.54803 47.3099C9.54907 47.3112 9.5501 47.3124 9.55113 47.3137L10.4436 48.7202L10.6854 48.5041C10.8375 48.6679 10.9941 48.8323 11.155 48.9962L11.1626 49.0039L11.1702 49.0115C11.6377 49.4743 12.1507 49.9595 12.7086 50.4267C12.8433 50.5412 12.9955 50.6706 13.159 50.8018L13.1621 50.8043C15.3394 52.5415 18.1362 54.0434 21.4743 54.3424L9.54803 47.3099ZM11.619 27.7695C11.5228 27.8439 11.4276 27.9269 11.3366 28.0196L10.5776 28.0642C10.5292 28.067 10.4804 28.0704 10.4313 28.0742C10.8264 27.9363 11.2248 27.8351 11.619 27.7695ZM11.7535 32.7868C11.6308 32.4062 11.5582 32.0445 11.5489 31.6881L11.5484 31.6715L11.5476 31.6549C11.5385 31.4673 11.5672 31.2801 11.6317 31.1046C11.6404 31.0923 11.6508 31.0779 11.6697 31.052L11.6784 31.0401C11.7031 31.0061 11.7443 30.9496 11.7865 30.886C11.8735 30.755 11.9972 30.548 12.0802 30.2738L11.7535 32.7868ZM14.6533 28.0396C14.6543 28.0403 14.6548 28.0406 14.6548 28.0407L14.6533 28.0396ZM37.6955 38.5399C37.7659 38.3937 37.8257 38.2304 37.8624 38.0525L37.8664 38.0332L37.8699 38.0139C37.9291 37.6839 37.9191 37.3453 37.8407 37.0194C37.7969 36.8183 37.7293 36.6405 37.6793 36.5187C37.6496 36.4466 37.6177 36.3742 37.586 36.3047C37.6633 36.3369 37.7326 36.3669 37.7907 36.3925C38.0595 36.5162 38.4275 36.8174 38.6727 37.2101C38.9148 37.5976 38.9253 37.8789 38.8688 38.0515L38.8114 38.2266L38.7982 38.4104C38.769 38.8145 38.6723 39.2069 38.5154 39.5725C38.488 39.5095 38.4581 39.4451 38.4254 39.3798C38.2806 39.0798 38.067 38.817 37.8006 38.6137L37.7816 38.5992L37.7622 38.5853C37.7402 38.5696 37.718 38.5545 37.6955 38.5399ZM37.6606 40.7862C37.6605 40.7862 37.6619 40.785 37.6649 40.7826C37.6622 40.785 37.6608 40.7861 37.6606 40.7862ZM36.4159 35.9647C36.4156 35.9644 36.4204 35.964 36.4309 35.964C36.4214 35.9649 36.4161 35.9649 36.4159 35.9647ZM22.1808 21.1096C22.4649 19.9384 23.0214 18.8572 23.7983 17.9516C23.613 18.2716 23.4549 18.6235 23.3205 19.0148C23.1947 19.3788 23.0778 19.8545 22.9715 20.2869C22.954 20.3579 22.9369 20.4277 22.92 20.4956C22.7887 21.0247 22.6526 21.544 22.4851 22.0137C22.3131 22.4958 22.1414 22.8266 21.9848 23.023C21.9767 23.0331 21.9689 23.0426 21.9615 23.0514C21.9515 22.9556 21.946 22.8394 21.948 22.7023C21.9559 22.1519 22.0771 21.533 22.18 21.1128L22.1808 21.1096ZM22.0229 23.3374C22.0229 23.3375 22.0224 23.3366 22.0216 23.3348C22.0225 23.3365 22.0229 23.3374 22.0229 23.3374ZM29.5192 11.2407C29.3829 11.5654 29.2537 11.8727 29.1273 12.1634C29.1439 12.1026 29.1598 12.0439 29.1748 11.9882L29.175 11.9874C29.1849 11.9506 29.1947 11.9143 29.2043 11.8784C29.3061 11.5 29.3951 11.1692 29.5048 10.8625C29.5663 10.6906 29.6216 10.5627 29.6686 10.4681C29.6682 10.5344 29.6643 10.6067 29.6558 10.684C29.6311 10.9098 29.5755 11.1082 29.5216 11.2351L29.5192 11.2407ZM29.8387 10.2135C29.8388 10.2139 29.8357 10.2166 29.8293 10.2203C29.8354 10.2149 29.8386 10.213 29.8387 10.2135ZM29.6173 10.0933C29.6161 10.0913 29.6155 10.0901 29.6156 10.0901C29.6156 10.09 29.6162 10.0911 29.6173 10.0933ZM40.1232 15.6837L40.1215 15.6877C39.9982 15.9816 39.8806 16.2613 39.7655 16.5273C39.7882 16.4475 39.8088 16.3735 39.8283 16.3036C39.889 16.0858 39.9385 15.9084 40.002 15.7211L40.002 15.7211L40.0052 15.7113C40.0611 15.5425 40.1674 15.3165 40.3107 15.1009C40.3208 15.0857 40.3309 15.071 40.3408 15.0566C40.304 15.2217 40.2326 15.4252 40.1232 15.6837ZM32.7708 25.5618C33.0599 24.3809 33.6238 23.2914 34.4099 22.3795C34.2192 22.7058 34.0579 23.0653 33.9227 23.4656C33.7975 23.8288 33.681 24.3021 33.5751 24.7327C33.5576 24.8039 33.5403 24.8739 33.5234 24.9421C33.392 25.4711 33.2558 25.9904 33.0882 26.4601C32.916 26.9422 32.7442 27.2731 32.5876 27.4695C32.5776 27.482 32.5681 27.4934 32.5591 27.5039C32.548 27.406 32.5417 27.2863 32.5433 27.144C32.5496 26.5956 32.6687 25.9787 32.7708 25.5619L32.7708 25.5618ZM32.6204 27.7787C32.6204 27.7787 32.6199 27.7779 32.6191 27.776C32.62 27.7777 32.6204 27.7786 32.6204 27.7787ZM40.2461 14.6145C40.2461 14.6144 40.2477 14.6156 40.2509 14.6186C40.2477 14.6161 40.2461 14.6146 40.2461 14.6145Z"
            fill="#5C59ED" stroke="white" stroke-width="3" />
        <path
            d="M17.9155 8.64008C19.7328 7.43188 21.6579 6.39549 23.6663 5.54424C33.4408 1.44695 44.1216 6.01332 50.3109 13.2498C53.8563 19.5822 53.9077 28.1532 50.3904 35.3616C47.087 42.1126 40.9504 47.5831 33.1193 50.7657C28.9483 52.452 25.0742 53.1591 21.6083 52.8484C18.6487 52.5833 16.123 51.2477 14.0977 49.6317C13.9515 49.5145 13.8135 49.3972 13.6755 49.2799C13.1598 48.8484 12.678 48.3934 12.2255 47.9454C11.7074 47.4178 11.2351 46.883 10.8164 46.3753L10.7626 46.4233C10.7463 46.3975 10.7206 46.3776 10.703 46.3518C4.84114 39.7086 2.6486 31.5985 4.82357 24.6739C6.92487 18.0132 12.2804 12.3598 17.9155 8.64008ZM10.6656 29.5616C10.717 29.9931 10.4071 30.1362 10.2575 30.4997C10.1 30.889 10.0291 31.3079 10.0494 31.7275C10.0728 32.6187 10.3593 33.4466 10.703 34.2124C12.7213 38.835 16.7661 42.353 21.8457 43.4119C24.8708 44.037 28.2326 43.8165 31.4155 42.672C33.0251 42.0997 34.5447 41.2992 35.928 40.295C36.4109 39.9514 36.6589 39.6406 36.8904 39.806C36.9712 39.8677 37.0358 39.9482 37.0786 40.0405C37.4201 40.7101 37.3476 41.4196 37.9556 41.9742C38.0143 42.0408 38.0918 42.0878 38.1778 42.1091C38.3626 42.1466 38.5614 42.0024 38.7181 41.8511C39.6404 40.9768 40.2027 39.7878 40.2943 38.5184C40.7702 37.0655 39.5167 35.5281 38.4046 35.0239C37.9369 34.8175 36.4168 34.169 35.88 34.6205C35.12 35.2689 36.2602 36.7465 36.3783 37.3539C36.4118 37.483 36.417 37.6178 36.3934 37.7491C36.3525 37.9473 36.1982 38.122 36.0426 38.2827C34.1717 40.268 31.6903 40.9224 29.3353 41.7292C27.1407 42.4705 24.7732 42.5244 22.5473 41.8839C17.8617 40.553 14.3198 36.886 12.5997 32.4581C12.3483 31.8154 11.8466 30.0271 12.2489 29.2825C12.4406 28.9237 12.8604 28.7442 13.2346 28.607C14.1221 28.267 15.0074 27.9398 15.8961 27.6361C16.0294 27.0943 15.5184 26.7448 15.039 26.5713C13.2089 25.9052 10.9463 26.0952 8.95839 27.0662C8.12115 27.4836 7.30262 28.0606 6.83371 28.8721C6.66182 29.1699 6.54365 29.5299 6.68046 29.7938C6.87341 30.1456 7.40664 30.0998 7.8393 30.0283C8.77594 29.8653 9.74765 29.6155 10.6656 29.5616ZM22.0082 24.6505C23.8791 24.4605 24.2662 20.8686 24.7387 19.5036C25.2169 18.1093 25.9875 17.5887 27.234 16.9003C29.2909 15.7886 30.0498 13.8514 30.9022 11.8215C31.37 10.7204 31.3863 8.53805 29.5738 8.75382C28.0326 8.93676 27.8923 11.5542 27.3907 12.6318C26.6365 14.2571 24.8181 14.9772 23.5506 16.0724C22.1507 17.3053 21.1634 18.9406 20.723 20.756C20.4974 21.6778 20.1162 23.7417 21.0213 24.4312C21.3085 24.6311 21.6625 24.7098 22.007 24.6505H22.0082ZM32.6106 29.0972C34.4815 28.9072 34.8698 25.3154 35.3422 23.9504C35.8099 22.562 36.5899 22.0354 37.8422 21.3564C39.8851 20.2412 40.6487 18.3075 41.5046 16.2683C41.8063 15.5553 42.0893 14.6828 41.6216 13.9499C40.4522 12.1346 38.9835 14.025 38.5813 15.2398C38.3731 15.8543 38.2562 16.4958 37.9861 17.0903C37.2412 18.7098 35.4216 19.4192 34.1412 20.5215C32.7444 21.757 31.7579 23.3913 31.3138 25.2051C31.0881 26.1269 30.7163 28.1849 31.6202 28.8744C31.9079 29.0762 32.2633 29.1562 32.6094 29.0972H32.6106Z"
            fill="#5C59ED" />
        <path
            d="M6.68989 29.7987C6.88283 30.1505 7.41607 30.1048 7.84872 30.0333C8.77601 29.8632 9.74771 29.6134 10.6656 29.5642C10.7171 29.9957 10.4072 30.1388 10.2575 30.5023C10.1001 30.8916 10.0291 31.3105 10.0495 31.7301C10.0728 32.6213 10.3593 33.4492 10.7031 34.215C12.7214 38.8376 16.7661 42.3556 21.8457 43.4145C24.8708 44.0396 28.2327 43.8191 31.4156 42.6746C33.0252 42.1023 34.5447 41.3018 35.9281 40.2976C36.411 39.954 36.6589 39.6432 36.8905 39.8086C36.9713 39.8703 37.0358 39.9508 37.0787 40.0431C37.4201 40.7127 37.3476 41.4222 37.9557 41.9768C38.0144 42.0434 38.0919 42.0904 38.1779 42.1117C38.3626 42.1492 38.5614 42.005 38.7181 41.8537C39.6404 40.9794 40.2027 39.7904 40.2943 38.521C40.7703 37.0681 39.5167 35.5307 38.4047 35.0265C37.9369 34.8201 36.4168 34.1716 35.8801 34.6231C35.12 35.2716 36.2602 36.7491 36.3783 37.3565C36.4119 37.4856 36.417 37.6205 36.3935 37.7517C36.3526 37.9499 36.1982 38.1246 36.0427 38.2853C34.1718 40.2706 31.6904 40.925 29.3353 41.7318C27.1408 42.4731 24.7732 42.527 22.5473 41.8865C17.8618 40.5556 14.3198 36.8886 12.5997 32.4607C12.3483 31.818 11.8467 30.0297 12.2489 29.2851C12.4407 28.9263 12.8605 28.7468 13.2346 28.6096C14.1222 28.2696 15.0075 27.9424 15.8962 27.6387C16.0295 27.0969 15.5184 26.7475 15.039 26.5739C13.209 25.9078 10.9463 26.0978 8.95845 27.0688C8.12121 27.4862 7.30268 28.0632 6.83377 28.8747C6.67123 29.1749 6.55308 29.5349 6.68989 29.7987Z"
            fill="#FFADE3" />
        <path
            d="M20.7225 20.7593C20.4969 21.681 20.1156 23.7449 21.0207 24.4344C21.3082 24.6346 21.6627 24.7134 22.0077 24.6537C23.8786 24.4638 24.2656 20.8719 24.738 19.5069C25.2163 18.1126 25.9869 17.5919 27.2334 16.9036C29.2903 15.7919 30.0492 13.8547 30.9016 11.8248C31.3694 10.7236 31.3858 8.54131 29.5733 8.75708C28.0321 8.94002 27.8918 11.5574 27.3902 12.6351C26.6359 14.2604 24.8175 14.9804 23.55 16.0757C22.1501 17.3085 21.1629 18.9439 20.7225 20.7593Z"
            fill="#FFADE3" />
        <path
            d="M31.3163 25.2047C31.0907 26.1264 30.7187 28.1844 31.6226 28.874C31.9102 29.0739 32.2647 29.1527 32.6096 29.0932C34.4805 28.9033 34.8688 25.3114 35.3412 23.9464C35.8089 22.558 36.5889 22.0315 37.8412 21.3525C39.8841 20.2373 40.6476 18.3035 41.5035 16.2643C41.8052 15.5513 42.0882 14.6788 41.6205 13.9459C40.4511 12.1306 38.9824 14.021 38.5802 15.2359C38.372 15.8503 38.2551 16.4918 37.985 17.0863C37.2401 18.7058 35.4207 19.4152 34.1402 20.5175C32.7441 21.7544 31.7588 23.39 31.3163 25.2047Z"
            fill="#FFADE3" />
    </g>
    <defs>
        <filter id="filter0_dddd_13426_5703" x="0.358214" y="0.423013" width="61.6072"
            height="62.6704" filterUnits="userSpaceOnUse" color-interpolation-filters="sRGB">
            <feFlood flood-opacity="0" result="BackgroundImageFix" />
            <feColorMatrix in="SourceAlpha" type="matrix"
                values="0 0 0 0 0 0 0 0 0 0 0 0 0 0 0 0 0 0 127 0" result="hardAlpha" />
            <feOffset dx="0.213074" dy="0.284099" />
            <feGaussianBlur stdDeviation="0.426148" />
            <feColorMatrix type="matrix" values="0 0 0 0 0 0 0 0 0 0 0 0 0 0 0 0 0 0 0.1 0" />
            <feBlend mode="normal" in2="BackgroundImageFix" result="effect1_dropShadow_13426_5703" />
            <feColorMatrix in="SourceAlpha" type="matrix"
                values="0 0 0 0 0 0 0 0 0 0 0 0 0 0 0 0 0 0 127 0" result="hardAlpha" />
            <feOffset dx="0.923321" dy="1.20742" />
            <feGaussianBlur stdDeviation="0.745759" />
            <feColorMatrix type="matrix" values="0 0 0 0 0 0 0 0 0 0 0 0 0 0 0 0 0 0 0.09 0" />
            <feBlend mode="normal" in2="effect1_dropShadow_13426_5703"
                result="effect2_dropShadow_13426_5703" />
            <feColorMatrix in="SourceAlpha" type="matrix"
                values="0 0 0 0 0 0 0 0 0 0 0 0 0 0 0 0 0 0 127 0" result="hardAlpha" />
            <feOffset dx="1.98869" dy="2.69894" />
            <feGaussianBlur stdDeviation="0.994346" />
            <feColorMatrix type="matrix" values="0 0 0 0 0 0 0 0 0 0 0 0 0 0 0 0 0 0 0.05 0" />
            <feBlend mode="normal" in2="effect2_dropShadow_13426_5703"
                result="effect3_dropShadow_13426_5703" />
            <feColorMatrix in="SourceAlpha" type="matrix"
                values="0 0 0 0 0 0 0 0 0 0 0 0 0 0 0 0 0 0 127 0" result="hardAlpha" />
            <feOffset dx="3.55123" dy="4.75865" />
            <feGaussianBlur stdDeviation="1.20742" />
            <feColorMatrix type="matrix" values="0 0 0 0 0 0 0 0 0 0 0 0 0 0 0 0 0 0 0.01 0" />
            <feBlend mode="normal" in2="effect3_dropShadow_13426_5703"
                result="effect4_dropShadow_13426_5703" />
            <feBlend mode="normal" in="SourceGraphic" in2="effect4_dropShadow_13426_5703"
                result="shape" />
        </filter>
    </defs>
</svg>