<svg width="103" height="115" viewBox="0 0 103 115" fill="none" xmlns="http://www.w3.org/2000/svg">
<g filter="url(#filter0_ddddd_13838_46321)">
<path d="M75.0592 28.5844C75.0592 27.3162 74.5797 26.773 73.3192 26.626C69.1124 26.1311 64.9056 25.6368 60.6988 25.1432C58.1856 24.8513 56.2039 26.3438 55.7941 28.8164C55.4674 30.8 55.1252 32.7816 54.8275 34.7709C54.7617 35.2233 54.5974 35.3006 54.1933 35.2968C51.7265 35.2794 49.2577 35.2639 46.7908 35.3064C46.1973 35.3064 46.033 35.1286 45.9305 34.5757C44.8324 28.6772 39.0132 24.6928 33.1264 25.7831C27.9742 26.7362 24.0903 31.1731 23.924 36.2905C23.75 41.7153 27.2106 46.3435 32.4517 47.6524C32.9466 47.7741 33.0317 47.981 33.0317 48.4547C33.0143 53.7112 33.0201 58.9698 33.0201 64.2263C33.0201 69.2928 33.0201 74.3593 33.0201 79.4258C33.0201 84.9472 37.2598 89.2043 42.758 89.2197C45.5419 89.2197 48.3265 89.2197 51.1117 89.2197C52.0551 89.2197 52.9966 89.2197 53.9401 89.2197C54.8545 89.2197 55.7651 89.2197 56.6621 89.0264C61.2653 88.0443 64.3952 84.17 64.3952 79.4316C64.403 69.1079 64.403 58.7842 64.3952 48.4605C64.3952 45.1101 64.3952 41.7617 64.3952 38.4074C64.3952 36.594 63.0845 35.2987 61.2749 35.2794C60.8109 35.2794 60.3469 35.2794 59.883 35.2794C59.678 35.2794 59.5756 35.2388 59.6143 34.9952C59.8675 33.408 60.1034 31.8149 60.3624 30.2277C60.4243 29.8585 60.6273 29.6342 61.07 29.6961C62.2184 29.8565 63.3687 29.9899 64.519 30.1291C67.4479 30.4848 70.3749 30.8502 73.3057 31.1905C74.3439 31.3104 74.9896 30.7091 75.0263 29.6439C75.0689 29.3056 75.0592 28.944 75.0592 28.5844Z" fill="white" stroke="white" stroke-width="10.0121" stroke-miterlimit="10"/>
<path d="M75.0592 28.5842C75.0592 27.318 74.5797 26.7747 73.3192 26.6278C69.1124 26.1316 64.9056 25.6373 60.6988 25.145C58.1856 24.853 56.2039 26.3436 55.7941 28.8182C55.4674 30.8017 55.1252 32.7833 54.8275 34.7727C54.7617 35.2251 54.5974 35.3024 54.1933 35.3004C51.7265 35.2831 49.2577 35.2657 46.7908 35.3004C46.1973 35.312 46.033 35.1245 45.9305 34.5716C44.8324 28.6713 39.0132 24.6887 33.1264 25.7771C27.9742 26.7302 24.0903 31.1671 23.924 36.2864C23.75 41.6996 27.2106 46.3395 32.4517 47.6464C32.9466 47.7701 33.0317 47.975 33.0317 48.4487C33.0143 53.7072 33.0201 58.9638 33.0201 64.2203C33.0201 69.2868 33.0201 74.3533 33.0201 79.4198C33.0201 84.9431 37.2598 89.2002 42.758 89.2138C46.7231 89.2138 50.6844 89.2138 54.6515 89.2138C55.3267 89.2204 56.0006 89.1556 56.6621 89.0204C61.2653 88.0364 64.3952 84.1621 64.3952 79.4236C64.403 69.0999 64.403 58.7762 64.3952 48.4525C64.3952 45.1041 64.3952 41.7537 64.3952 38.3995C64.3952 36.5842 63.0845 35.2889 61.2749 35.2715C60.8109 35.2715 60.3469 35.2715 59.883 35.2715C59.678 35.2715 59.5756 35.2309 59.6143 34.9892C59.8675 33.4 60.1034 31.809 60.3624 30.2217C60.4243 29.8505 60.6273 29.6282 61.07 29.6901C62.2184 29.8505 63.3687 29.982 64.519 30.1212C67.4479 30.4789 70.3768 30.8423 73.3057 31.1826C74.3439 31.3044 74.9896 30.7012 75.0263 29.636C75.0689 29.3054 75.0592 28.9458 75.0592 28.5842ZM33.0375 46.6121C32.9215 46.8576 32.7475 46.6952 32.6083 46.6604C30.1837 46.0556 28.0738 44.5643 26.6944 42.4806C25.5344 40.7755 24.9544 38.8731 24.9544 37.4754C24.9641 31.5286 28.966 27.1594 34.2342 26.6703C39.2781 26.2025 44.0069 29.7635 44.9581 34.7437C44.9909 34.9177 45.2577 35.2425 44.8498 35.2753C44.5308 35.2985 44.0765 35.5208 43.9508 34.908C43.6782 33.5334 43.0818 32.2437 42.2109 31.1458C41.1134 29.7428 39.627 28.6939 37.9373 28.1301C36.2476 27.5663 34.4292 27.5124 32.7091 27.9753C30.989 28.4382 29.4432 29.3972 28.2646 30.7329C27.086 32.0686 26.3267 33.7217 26.0815 35.486C25.4552 40.1008 28.1579 44.3134 32.5696 45.599C32.6698 45.6306 32.7623 45.6827 32.8412 45.7521C32.9201 45.8216 32.9836 45.9067 33.0276 46.0021C33.0717 46.0974 33.0953 46.201 33.097 46.306C33.0987 46.4111 33.0784 46.5153 33.0375 46.6121ZM35.5759 31.981C35.5759 31.0279 35.5855 30.0748 35.5759 29.1236C35.5759 28.7853 35.659 28.7041 36.0109 28.7486C37.5681 28.9421 39.038 29.5751 40.2486 30.5736C40.5695 30.8327 40.612 30.997 40.2834 31.2966C38.9301 32.5339 37.5884 33.7944 36.2467 35.0472C36.0901 35.1941 35.9335 35.3778 35.7035 35.2811C35.4734 35.1845 35.5855 34.9486 35.5836 34.7765C35.5701 33.8447 35.5759 32.9129 35.5759 31.981ZM41.136 31.894C41.3022 31.7374 41.4028 31.7568 41.5342 31.9307C42.1945 32.8137 42.6657 33.8232 42.9184 34.8964C42.9745 35.1342 42.9533 35.2985 42.6323 35.2966C40.9581 35.2966 39.2839 35.2966 37.4647 35.2966C38.7619 34.0941 39.9528 32.9979 41.136 31.894ZM34.5628 29.0753C34.5628 29.7068 34.5564 30.339 34.5435 30.9719V35.5189L31.6204 32.2613C31.1448 31.7568 30.6769 31.2483 30.1917 30.7534C30.0158 30.5717 30.0254 30.4615 30.2265 30.3107C31.4102 29.4293 32.8091 28.8824 34.2767 28.7273C34.5783 28.6906 34.5648 28.88 34.5628 29.0753ZM33.0452 44.4101C33.0452 44.6169 32.964 44.6575 32.7765 44.6034C31.6421 44.2741 30.5953 43.6962 29.7122 42.9118C29.546 42.7687 29.5634 42.6372 29.7122 42.4942C30.7852 41.4985 31.8543 40.499 33.0413 39.4009C33.0452 41.1796 33.0433 42.7958 33.0452 44.4101ZM33.0974 37.8118C33.0424 37.9702 32.9487 38.1124 32.8248 38.2255C31.5837 39.3661 30.3348 40.499 29.1129 41.6609C28.8152 41.9432 28.6915 41.8446 28.5001 41.572C27.6976 40.4242 27.1909 39.0961 27.025 37.7054C26.9786 37.3459 27.1332 37.3188 27.4116 37.3188C28.3145 37.3188 29.2193 37.3188 30.1182 37.3188C31.0017 37.3188 31.8852 37.3362 32.7687 37.3188C33.1883 37.3111 33.2153 37.4677 33.0974 37.8118ZM27.3652 36.3077C27.1081 36.3077 27.0057 36.2652 27.0385 35.952C27.2087 34.3224 27.8678 32.7825 28.9293 31.5344C29.0665 31.3701 29.1961 31.1845 29.4261 31.4339C30.8819 33.0153 32.3396 34.5929 33.9191 36.3058C31.6069 36.3077 29.486 36.3077 27.3652 36.3077ZM61.0971 36.3077C62.6437 36.3077 63.417 37.1003 63.417 38.6663C63.417 45.5101 63.417 52.3545 63.417 59.1996C63.417 65.9596 63.417 72.7197 63.417 79.4797C63.4124 81.4565 62.7397 83.3736 61.5082 84.9199C60.2767 86.4662 58.5587 87.5508 56.6331 87.9977C55.9987 88.1397 55.35 88.2085 54.6999 88.2027C50.7366 88.2027 46.7734 88.2027 42.8102 88.2027C37.8629 88.1911 34.0776 84.3902 34.0756 79.4275C34.0756 65.8237 34.0756 52.2192 34.0756 38.6141C34.0756 37.1158 34.8838 36.3116 36.384 36.3116L61.0971 36.3077ZM74.05 29.6302C74.05 30.0613 73.8142 30.2372 73.3946 30.1869L64.6292 29.1101C63.4692 28.967 62.2938 28.8085 61.1222 28.6887C60.1807 28.5939 59.5292 29.1797 59.3707 30.1966C59.1329 31.7432 58.8777 33.2898 58.6553 34.8365C58.607 35.169 58.5142 35.3159 58.1546 35.3004C57.5224 35.2734 56.8902 35.2811 56.2581 35.3004C55.9352 35.3004 55.7883 35.2193 55.8463 34.8674C56.1923 32.7621 56.4901 30.6471 56.8864 28.5533C57.1996 26.9023 58.9047 25.9279 60.7529 26.1599C63.5891 26.5214 66.4329 26.8288 69.2729 27.1633C70.5617 27.3154 71.8551 27.4758 73.153 27.6447C73.992 27.7529 74.0558 27.838 74.0578 28.6848C74.0578 28.7911 74.0578 28.8955 74.0578 29.0018C74.0442 29.2145 74.0481 29.4252 74.0423 29.6379L74.05 29.6302Z" fill="#1D1D1B" stroke="#1D1D1B" stroke-width="1.77993" stroke-miterlimit="10"/>
<path d="M63.4169 59.2066C63.4169 52.3628 63.4169 45.5184 63.4169 38.6733C63.4169 37.1073 62.6436 36.3147 61.0969 36.3147H36.3684C34.8682 36.3147 34.0601 37.1189 34.0601 38.6172C34.0601 52.2223 34.0601 65.8268 34.0601 79.4306C34.0601 84.3934 37.8474 88.1942 42.7946 88.2058C46.7578 88.2058 50.7211 88.2058 54.6843 88.2058C55.3344 88.2116 55.9831 88.1428 56.6175 88.0008C58.5561 87.579 60.2896 86.5011 61.5256 84.9493C62.7615 83.3974 63.4241 81.4666 63.4014 79.4828C63.4195 72.7254 63.4246 65.9666 63.4169 59.2066ZM62.398 77.5727C62.398 80.2155 61.4546 82.4601 59.357 84.115L59.2545 84.1981C58.1974 85.0168 56.9254 85.511 55.5929 85.621C55.3841 85.6384 55.1714 85.648 54.9588 85.65C50.8254 85.6635 46.694 85.6732 42.5607 85.65C38.8352 85.6287 35.6975 82.8003 35.193 79.0768C35.1092 78.4468 35.0679 77.812 35.0692 77.1764C35.0692 64.3975 35.0692 51.6179 35.0692 38.8376C35.0692 37.61 35.3438 37.3277 36.5366 37.3277H60.9539C62.1138 37.3277 62.4019 37.6216 62.4019 38.7931C62.4019 45.3005 62.4019 51.8092 62.4019 58.3192C62.4038 64.7377 62.4212 71.1581 62.398 77.5805V77.5727Z" fill="#F5F5F5"/>
<path d="M74.0443 29.0018C74.0443 29.2145 74.0443 29.4252 74.0443 29.6379C74.0443 30.069 73.8084 30.2449 73.3889 30.1947L64.6234 29.1178C63.4634 28.9748 62.288 28.8162 61.1164 28.6964C60.1749 28.6016 59.5234 29.1874 59.3649 30.2043C59.1271 31.7509 58.8719 33.2976 58.6496 34.8442C58.6012 35.1767 58.5084 35.3237 58.1488 35.3082C57.5167 35.2811 56.8845 35.2889 56.2523 35.3082C55.9295 35.3082 55.7825 35.227 55.8386 34.8751C56.1866 32.7698 56.4843 30.6548 56.8806 28.561C57.1938 26.91 58.899 25.9357 60.7472 26.1676C63.5833 26.5292 66.4271 26.8366 69.2671 27.171C70.556 27.3231 71.8494 27.4836 73.1472 27.6524C73.9863 27.7607 74.0501 27.8457 74.052 28.6925C74.0462 28.7911 74.0443 28.8955 74.0443 29.0018Z" fill="#A4AE45"/>
<path d="M24.9468 37.468C24.9564 31.5212 28.9583 27.152 34.2265 26.6629C39.2704 26.195 43.9992 29.7561 44.9504 34.7363C44.9833 34.9102 45.2501 35.235 44.8421 35.2679C44.5231 35.2911 44.0688 35.5134 43.9432 34.9006C43.6706 33.526 43.0741 32.2363 42.2032 31.1384C41.1057 29.7354 39.6194 28.6865 37.9297 28.1227C36.2399 27.5588 34.4216 27.505 32.7014 27.9679C30.9813 28.4307 29.4355 29.3898 28.2569 30.7255C27.0783 32.0611 26.3191 33.7143 26.0739 35.4786C25.4475 40.0934 28.1502 44.306 32.562 45.5916C32.6632 45.6219 32.757 45.6732 32.8371 45.742C32.9173 45.8109 32.982 45.8959 33.0272 45.9914C33.0725 46.0869 33.0971 46.1909 33.0995 46.2965C33.102 46.4022 33.0822 46.5071 33.0414 46.6046C32.9254 46.8502 32.7514 46.6878 32.6122 46.653C30.1877 46.0481 28.0777 44.5569 26.6983 42.4732C25.5326 40.7758 24.9584 38.8735 24.9468 37.468Z" fill="#F8B673"/>
<path d="M33.9153 36.3078C31.5954 36.3078 29.4823 36.3078 27.3615 36.3078C27.1043 36.3078 27.0019 36.2653 27.0348 35.9521C27.2049 34.3225 27.864 32.7826 28.9255 31.5345C29.0628 31.3702 29.1923 31.1846 29.4224 31.434C30.882 33.0212 32.3397 34.5988 33.9153 36.3078Z" fill="#F79346"/>
<path d="M35.6241 32.3251C35.6241 31.372 35.6357 30.4189 35.6241 29.4658C35.6241 29.1275 35.7053 29.0463 36.0591 29.0927C37.6154 29.2863 39.0845 29.9186 40.2949 30.9158C40.6178 31.1748 40.6603 31.3411 40.3316 31.6407C38.9783 32.878 37.6367 34.1366 36.293 35.3913C36.1384 35.5363 35.9818 35.72 35.7517 35.6252C35.5216 35.5305 35.6338 35.2908 35.6318 35.1206C35.6202 34.1888 35.6318 33.257 35.6318 32.3251H35.6241Z" fill="#F79346"/>
<path d="M32.0922 33.3922C31.3711 32.6653 30.6558 31.9326 29.9231 31.2172C29.6621 30.964 29.666 30.8306 29.956 30.616C31.2396 29.6272 32.7862 29.0388 34.4025 28.9244C34.8317 28.8896 34.9825 28.9824 34.9825 29.4502C34.9361 31.3835 34.9225 33.3168 34.9013 35.2501C34.9013 35.4743 34.9245 35.7276 34.6847 35.83C34.445 35.9325 34.3484 35.6618 34.2169 35.5323C33.5016 34.8305 32.8017 34.1172 32.0903 33.4057L32.0922 33.3922Z" fill="#F79346"/>
<path d="M30.1144 37.33C30.9979 37.33 31.8814 37.3474 32.7649 37.33C33.1883 37.3184 33.2154 37.4827 33.0974 37.8191C33.0424 37.9776 32.9487 38.1198 32.8248 38.2328C31.5837 39.3735 30.3348 40.5064 29.1129 41.6683C28.8152 41.9505 28.6915 41.8519 28.5001 41.5794C27.6976 40.4316 27.1909 39.1034 27.025 37.7128C26.9786 37.3532 27.1333 37.3261 27.4117 37.3261C28.3145 37.3261 29.2193 37.3261 30.1182 37.3261L30.1144 37.33Z" fill="#F69246"/>
<path d="M37.4646 35.292C38.7618 34.0933 39.9527 32.9972 41.1378 31.8933C41.3041 31.7367 41.4046 31.756 41.5361 31.93C42.1964 32.8129 42.6676 33.8225 42.9203 34.8957C42.9764 35.1334 42.9551 35.2978 42.6342 35.2958C40.958 35.2881 39.2838 35.292 37.4646 35.292Z" fill="#F69246"/>
<path d="M33.0452 39.4009C33.0452 41.1853 33.0452 42.8015 33.0452 44.4158C33.0452 44.6227 32.964 44.6633 32.7765 44.6091C31.6421 44.2799 30.5953 43.702 29.7123 42.9175C29.546 42.7744 29.5634 42.643 29.7123 42.4999C30.7891 41.5004 31.8582 40.5009 33.0452 39.4009Z" fill="#F69045"/>
<path d="M62.404 58.316C62.404 51.8086 62.404 45.2999 62.404 38.7899C62.404 37.6183 62.114 37.3245 60.956 37.3245H36.5387C35.3458 37.3245 35.0713 37.6067 35.0713 38.8344C35.0713 51.6159 35.0713 64.3955 35.0713 77.1732C35.07 77.8087 35.1113 78.4436 35.1951 79.0736C35.6996 82.8029 38.8373 85.6313 42.5628 85.6467C46.6961 85.6699 50.8275 85.6603 54.9609 85.6467C55.1735 85.6467 55.3862 85.6351 55.595 85.6177C55.6803 85.5435 55.7434 85.4472 55.7775 85.3395C55.8116 85.2317 55.8154 85.1166 55.7883 85.0068C55.7607 84.9117 55.7114 84.8244 55.6443 84.7516C55.5773 84.6788 55.4942 84.6225 55.4017 84.5873C55.1346 84.6175 54.8662 84.633 54.5974 84.6337C50.7483 84.6492 46.8972 84.5834 43.048 84.6337C39.1989 84.6839 36.2448 81.9522 36.1288 78.0799C36.0457 75.3056 36.1288 72.5294 36.1288 69.7533V50.9695C38.1336 51.9226 40.208 52.1894 42.3308 52.0522C42.6014 52.0328 42.8702 52.0096 43.1369 51.9806C43.2023 51.9719 43.2651 51.9493 43.3211 51.9144C43.377 51.8795 43.4249 51.833 43.4615 51.7781C43.4981 51.7232 43.5225 51.6612 43.5333 51.5961C43.544 51.531 43.5407 51.4644 43.5236 51.4007C43.5236 51.3697 43.5062 51.3388 43.4985 51.3098C43.4685 51.2038 43.402 51.1119 43.3107 51.0503C43.2194 50.9887 43.1092 50.9615 42.9997 50.9734C41.165 51.1667 39.3265 51.0797 37.5053 50.4495C37.4241 50.4224 37.3449 50.3954 37.2675 50.3625C36.0592 49.8792 35.8582 49.4886 36.0921 48.2011C36.1424 47.9285 36.3086 47.9382 36.4923 47.9072C41.5323 47.074 44.9581 43.8261 46.0098 38.8517C46.1007 38.4245 46.2631 38.3317 46.6652 38.3414C48.0745 38.3781 49.4858 38.3414 50.8933 38.3549C51.8773 38.3665 52.8613 38.3452 53.8434 38.3433C54.1992 38.3433 54.2649 38.4632 54.2088 38.8112C53.7255 41.7755 53.2525 44.7431 52.7898 47.7139C52.7873 47.798 52.7575 47.879 52.7048 47.9446C52.6521 48.0102 52.5795 48.0568 52.4979 48.0773C51.2451 48.4021 50.0639 48.9241 48.873 49.4306C48.7781 49.4703 48.7011 49.5433 48.6565 49.636C48.612 49.7287 48.603 49.8345 48.6313 49.9333C48.6487 49.9971 48.6661 50.0609 48.6855 50.1266C48.7016 50.1836 48.7297 50.2365 48.7678 50.2817C48.806 50.327 48.8533 50.3637 48.9067 50.3893C48.9601 50.4149 49.0183 50.4288 49.0775 50.4302C49.1366 50.4316 49.1954 50.4204 49.25 50.3973C49.4549 50.3122 49.6579 50.2233 49.8628 50.1324C52.0262 49.1561 54.2726 48.4543 56.6873 48.5433C58.2343 48.5949 59.7318 49.1013 60.9927 49.999C61.122 50.0671 61.2299 50.1695 61.3047 50.2951C61.3794 50.4206 61.4179 50.5644 61.4161 50.7105C61.3948 54.057 61.3929 57.4015 61.3871 60.748V69.7784C61.3871 72.5546 61.4644 75.3307 61.3871 78.105C61.3194 80.3089 60.3431 82.1398 58.8023 83.3017C58.7373 83.3972 58.704 83.5108 58.7071 83.6264C58.7103 83.7419 58.7496 83.8535 58.8197 83.9454C58.8845 84.0289 58.9723 84.0916 59.0722 84.126C59.1721 84.1603 59.2799 84.1648 59.3823 84.1388C61.4799 82.4839 62.4137 80.2393 62.4233 77.5965C62.4214 71.1587 62.404 64.7383 62.404 58.316ZM42.6034 38.3472C42.874 38.3472 42.99 38.4206 42.9301 38.7126C42.632 40.0131 42.0148 41.2191 41.1341 42.2215C40.9407 42.4457 40.8325 42.3375 40.6914 42.1847C39.5527 40.9436 38.412 39.7063 37.1631 38.3491C39.0829 38.3491 40.8441 38.353 42.6034 38.3472ZM36.0844 38.67C37.4512 40.1644 38.6981 41.5313 39.9509 42.8923C40.1191 43.074 40.123 43.1881 39.92 43.3408C38.9038 44.0958 37.7267 44.6053 36.4807 44.8294C36.1849 44.8874 36.0728 44.785 36.0747 44.4698C36.0902 42.5946 36.0844 40.7193 36.0844 38.67ZM44.9774 38.7609C44.5859 40.7749 43.5947 42.6235 42.134 44.0642C40.6732 45.5049 38.8111 46.4705 36.7919 46.8343C36.4691 46.8942 35.9606 47.1126 36.0863 46.3935C36.0109 46.0184 36.1617 45.8966 36.5425 45.8348C38.3281 45.546 39.986 44.7284 41.3021 43.4878C42.6182 42.2471 43.5321 40.6403 43.9257 38.875C43.9399 38.7686 43.9789 38.6671 44.0396 38.5786C44.1003 38.4902 44.181 38.4173 44.2752 38.3659C44.3693 38.3145 44.4743 38.286 44.5815 38.2827C44.6888 38.2795 44.7953 38.3016 44.8924 38.3472C45.1746 38.4477 45.0103 38.6275 44.9832 38.7609H44.9774ZM56.1325 47.5206C55.4792 47.5018 54.8262 47.5667 54.1895 47.7139C53.8396 47.7738 53.7835 47.6675 53.8338 47.3582C54.2965 44.5046 54.754 41.6511 55.2064 38.7976C55.226 38.6679 55.2933 38.5501 55.3953 38.4674C55.4972 38.3848 55.6264 38.3433 55.7574 38.351C56.0725 38.3762 56.3896 38.351 56.7066 38.351C58.1643 38.351 58.1372 38.351 57.9014 39.8203C57.5147 42.1751 57.1745 44.5356 56.842 46.8981C56.7762 47.3659 56.6254 47.5631 56.1325 47.5206ZM61.3871 40.0987C61.3968 42.8324 61.3871 45.566 61.3871 48.3016V49.0305C60.3835 48.3635 59.257 47.9034 58.0735 47.6772C57.8163 47.6308 57.7429 47.5515 57.7893 47.2634C58.2352 44.4189 58.6676 41.5732 59.0865 38.7261C59.129 38.4342 59.2141 38.3162 59.5118 38.3394C60.115 38.3839 60.8787 38.0978 61.2827 38.4496C61.6365 38.759 61.3852 39.5342 61.3871 40.1006V40.0987Z" fill="#1D1D1B" stroke="#1D1D1B" stroke-width="0.667475" stroke-miterlimit="10" stroke-linecap="round"/>
<path d="M61.3677 78.0917C61.4547 75.3175 61.3793 72.5413 61.3677 69.7651C60.6427 69.7651 59.9196 69.7651 59.1966 69.7651C58.9356 69.7651 58.6939 69.7535 58.5818 69.4635C57.4083 70.6815 56.4417 70.7298 55.2121 69.6298C54.9434 69.7903 54.6476 69.7651 54.3537 69.7651H42.6767C42.5743 70.811 42.0097 71.4161 41.1417 71.4161C40.2737 71.4161 39.7072 70.8091 39.5951 69.7651H36.092C36.092 72.5413 36.0147 75.3175 36.092 78.0917C36.208 81.9274 39.0828 84.6417 42.899 84.6456C46.7798 84.6456 50.6586 84.6456 54.5355 84.6456C54.8125 84.6449 55.0894 84.6294 55.3648 84.5992C56.594 84.4778 57.7669 84.024 58.7577 83.2865C60.3179 82.1265 61.2942 80.2957 61.3677 78.0917ZM42.6593 82.1033C42.2576 82.1033 41.8649 81.9844 41.5306 81.7616C41.1963 81.5389 40.9354 81.2222 40.7807 80.8514C40.626 80.4807 40.5844 80.0725 40.6613 79.6782C40.7381 79.2839 40.9299 78.9211 41.2125 78.6356C41.4951 78.35 41.8558 78.1545 42.2493 78.0736C42.6428 77.9926 43.0514 78.0299 43.4237 78.1807C43.7961 78.3316 44.1155 78.5892 44.3417 78.9212C44.5679 79.2531 44.6909 79.6446 44.6951 80.0463C44.6974 80.3158 44.6462 80.583 44.5446 80.8326C44.4431 81.0822 44.293 81.3092 44.1032 81.5004C43.9134 81.6917 43.6875 81.8435 43.4387 81.947C43.1899 82.0504 42.923 82.1036 42.6535 82.1033H42.6593ZM49.275 76.4968C48.9711 76.5037 48.6721 76.4197 48.4163 76.2554C48.1605 76.0912 47.9596 75.8543 47.8394 75.5752C47.7191 75.296 47.685 74.9872 47.7415 74.6885C47.7979 74.3899 47.9424 74.1149 48.1562 73.8988C48.37 73.6828 48.6435 73.5355 48.9416 73.476C49.2397 73.4165 49.5488 73.4474 49.8292 73.5647C50.1096 73.6821 50.3485 73.8805 50.5154 74.1346C50.6822 74.3887 50.7693 74.6868 50.7656 74.9908C50.7602 75.3876 50.6014 75.7669 50.3224 76.0491C50.0434 76.3313 49.6659 76.4946 49.2692 76.5045L49.275 76.4968ZM55.8153 80.5683C55.514 80.5671 55.2198 80.4768 54.9698 80.3087C54.7198 80.1405 54.5252 79.9021 54.4105 79.6235C54.2959 79.3449 54.2663 79.0386 54.3255 78.7432C54.3847 78.4478 54.53 78.1765 54.7432 77.9637C54.9564 77.7508 55.2278 77.6058 55.5233 77.5469C55.8187 77.4881 56.125 77.5181 56.4035 77.6331C56.6819 77.7482 56.9201 77.9431 57.0879 78.1933C57.2557 78.4435 57.3457 78.7378 57.3464 79.0391C57.3449 79.4466 57.1826 79.837 56.8948 80.1255C56.607 80.4141 56.217 80.5773 55.8095 80.5799L55.8153 80.5683Z" fill="#F37E3E"/>
<path d="M36.1055 60.7344V50.9694C38.1103 51.9225 40.1847 52.1893 42.3074 52.052C44.9167 51.8672 47.471 51.2123 49.8472 50.1188C52.0106 49.1425 54.257 48.4407 56.6717 48.5296C58.2187 48.5812 59.7162 49.0876 60.9771 49.9854C61.1064 50.0534 61.2143 50.1559 61.289 50.2814C61.3638 50.407 61.4023 50.5507 61.4005 50.6968C61.3792 54.0433 61.3773 57.3879 61.3715 60.7344C58.4973 60.7344 55.6219 60.7344 52.7452 60.7344C52.5055 60.7344 52.2387 60.6396 52.0279 60.8542C51.0903 59.9843 50.433 59.9843 49.4973 60.8542C49.304 60.6609 49.0642 60.7344 48.8438 60.7344C47.0227 60.7344 45.2015 60.7344 43.3804 60.7344C42.9937 60.7344 42.6187 60.7344 42.4022 60.3284C42.4988 60.2182 42.5955 60.1099 42.6922 59.9959C42.9918 59.6386 43.1589 59.1889 43.1653 58.7226C43.1716 58.2564 43.0168 57.8023 42.727 57.437C42.4372 57.0717 42.0302 56.8177 41.5747 56.7179C41.1192 56.618 40.6433 56.6785 40.2272 56.8891C38.9783 57.5271 38.7792 58.9326 39.7555 60.2143C39.7555 60.7092 39.4114 60.7286 39.0653 60.7305C38.0774 60.7383 37.0914 60.7344 36.1055 60.7344ZM55.8075 52.0849C55.4057 52.0861 55.0132 52.2061 54.6795 52.4299C54.3458 52.6537 54.0858 52.9712 53.9322 53.3425C53.7786 53.7138 53.7383 54.1222 53.8165 54.5164C53.8946 54.9105 54.0876 55.2727 54.3711 55.5574C54.6547 55.8421 55.0162 56.0364 55.41 56.116C55.8039 56.1956 56.2125 56.1569 56.5844 56.0047C56.9562 55.8526 57.2748 55.5937 57.4998 55.2609C57.7249 54.928 57.8464 54.536 57.8491 54.1342C57.8503 53.8654 57.7984 53.5989 57.6964 53.3502C57.5943 53.1015 57.4441 52.8755 57.2544 52.685C57.0647 52.4946 56.8392 52.3435 56.5909 52.2405C56.3426 52.1375 56.0763 52.0846 55.8075 52.0849ZM45.7081 54.66C45.7142 54.9591 45.8087 55.2498 45.9797 55.4953C46.1507 55.7408 46.3905 55.9302 46.6689 56.0396C46.9474 56.1491 47.252 56.1737 47.5444 56.1103C47.8368 56.047 48.1039 55.8985 48.3121 55.6836C48.5202 55.4687 48.6602 55.197 48.7142 54.9028C48.7682 54.6085 48.734 54.3049 48.6157 54.03C48.4975 53.7552 48.3006 53.5215 48.0498 53.3584C47.799 53.1953 47.5055 53.11 47.2064 53.1134C46.8046 53.126 46.4235 53.2944 46.1438 53.5831C45.8642 53.8718 45.7079 54.2581 45.7081 54.66Z" fill="#F68C44"/>
<path d="M42.4022 60.3298C42.6187 60.7338 42.9976 60.7358 43.3804 60.7358C45.2016 60.7358 47.0227 60.7358 48.8439 60.7358C49.0642 60.7358 49.3098 60.6526 49.4973 60.8556C49.4393 60.9929 49.3755 61.1263 49.3291 61.2655C49.2007 61.6392 49.2235 62.0484 49.3927 62.4056C49.5619 62.7628 49.8641 63.0396 50.2347 63.1769C50.6053 63.3142 51.0149 63.3012 51.376 63.1405C51.7371 62.9799 52.021 62.6844 52.1672 62.3172C52.3876 61.801 52.2561 61.3254 52.028 60.8556C52.2387 60.641 52.5055 60.7377 52.7452 60.7358C55.6194 60.7358 58.4948 60.7358 61.3715 60.7358V69.7661C60.6465 69.7661 59.9235 69.7661 59.2004 69.7661C58.9394 69.7661 58.6978 69.7545 58.5856 69.4645C58.7558 68.9677 58.9723 68.4843 58.8138 67.9353C58.5837 67.0808 57.9457 66.4525 57.1279 66.3481C56.7103 66.275 56.2802 66.3384 55.9013 66.5289C55.5225 66.7194 55.215 67.0268 55.0245 67.4056C54.8226 67.7509 54.7327 68.1504 54.7673 68.5489C54.802 68.9475 54.9594 69.3255 55.2179 69.6308C54.9491 69.7912 54.6534 69.7661 54.3595 69.7661H42.6825L42.5491 69.4123C42.4355 69.072 42.2061 68.7823 41.9009 68.5936C41.5957 68.405 41.234 68.3294 40.8788 68.38C40.5331 68.4126 40.2119 68.5725 39.9775 68.8286C39.7431 69.0848 39.6123 69.4189 39.6105 69.7661H36.1074V60.7338C37.0934 60.7338 38.0794 60.7338 39.0673 60.7338C39.4133 60.7338 39.7652 60.7126 39.7575 60.2177C40.612 60.8692 41.4935 60.9117 42.4022 60.3298Z" fill="#F58541"/>
<path d="M61.3929 49.0328C60.3893 48.3659 59.2627 47.9058 58.0792 47.6795C57.8221 47.6331 57.7486 47.5539 57.795 47.2658C58.241 44.4213 58.6734 41.5755 59.0922 38.7285C59.1348 38.4365 59.2199 38.3186 59.5176 38.3418C60.1208 38.3863 60.8844 38.1002 61.2884 38.452C61.6364 38.7555 61.3851 39.5308 61.387 40.0972C61.3967 42.8309 61.387 45.5645 61.387 48.3001L61.3929 49.0328Z" fill="#F3E9DC"/>
<path d="M56.7066 38.3495C58.1643 38.3495 58.1372 38.3495 57.9014 39.8188C57.5147 42.1735 57.1745 44.5341 56.8419 46.8965C56.7762 47.3663 56.6254 47.5635 56.1324 47.5229C55.4792 47.5041 54.8262 47.5691 54.1895 47.7162C53.8396 47.7762 53.7835 47.6698 53.8338 47.3605C54.2965 44.5057 54.7547 41.6503 55.2083 38.7942C55.2605 38.4578 55.421 38.3263 55.7593 38.3534C56.0976 38.3805 56.3915 38.3495 56.7066 38.3495Z" fill="#A4AE45"/>
<path d="M36.0844 38.6694C37.4512 40.1638 38.6982 41.5307 39.9509 42.8917C40.1191 43.0734 40.123 43.1875 39.92 43.3402C38.9039 44.0952 37.7267 44.6047 36.4807 44.8288C36.1849 44.8868 36.0728 44.7844 36.0747 44.4692C36.0902 42.594 36.0844 40.7187 36.0844 38.6694Z" fill="#F69045"/>
<path d="M37.1631 38.3495C39.0828 38.3495 40.8363 38.3495 42.6033 38.3495C42.874 38.3495 42.99 38.423 42.93 38.7149C42.6319 40.0155 42.0147 41.2214 41.134 42.2238C40.9407 42.4481 40.8324 42.3398 40.6913 42.1871C39.5526 40.9478 38.412 39.7067 37.1631 38.3495Z" fill="#F69045"/>
<path d="M36.0921 46.3935C36.0167 46.0185 36.1675 45.8967 36.5483 45.8348C38.3338 45.546 39.9917 44.7285 41.3079 43.4878C42.624 42.2472 43.5379 40.6404 43.9315 38.875C43.9457 38.7687 43.9846 38.6671 44.0454 38.5787C44.1061 38.4902 44.1868 38.4174 44.281 38.3659C44.3751 38.3145 44.4801 38.286 44.5873 38.2828C44.6946 38.2795 44.8011 38.3016 44.8982 38.3472C45.1785 38.4419 45.0141 38.6179 44.9871 38.7551C44.5955 40.7691 43.6044 42.6177 42.1436 44.0585C40.6829 45.4992 38.8208 46.4648 36.8016 46.8285C36.4749 46.8942 35.9664 47.1127 36.0921 46.3935Z" fill="#F8B673"/>
<path d="M55.2161 69.6318C54.9576 69.3265 54.8002 68.9485 54.7656 68.55C54.7309 68.1514 54.8208 67.7519 55.0228 67.4066C55.2133 67.0278 55.5207 66.7204 55.8995 66.5299C56.2784 66.3395 56.7085 66.2761 57.1262 66.3491C57.944 66.4535 58.5819 67.0818 58.812 67.9363C58.8768 68.1998 58.8768 68.4751 58.812 68.7386C58.7636 69.0828 58.6158 69.4053 58.3867 69.6666C58.1841 69.892 57.938 70.0742 57.6633 70.2021C57.3885 70.33 57.0908 70.401 56.7879 70.4109C56.4874 70.3914 56.1937 70.3125 55.9239 70.1788C55.6542 70.045 55.4136 69.8591 55.2161 69.6318ZM56.8671 67.3525C56.6655 67.3452 56.4664 67.3981 56.295 67.5045C56.1237 67.611 55.9879 67.766 55.9051 67.9499C55.8222 68.1338 55.796 68.3382 55.8299 68.537C55.8637 68.7359 55.956 68.9201 56.095 69.0663C56.234 69.2124 56.4134 69.3139 56.6103 69.3576C56.8072 69.4013 57.0127 69.3854 57.2005 69.3119C57.3883 69.2384 57.55 69.1105 57.6648 68.9447C57.7797 68.7789 57.8425 68.5827 57.8453 68.381C57.8486 68.1159 57.7481 67.8599 57.5654 67.6678C57.3826 67.4757 57.1321 67.3625 56.8671 67.3525Z" fill="#1D1D1B"/>
<path d="M44.6893 80.0457C44.692 80.4473 44.5752 80.8408 44.3538 81.176C44.1323 81.5111 43.8163 81.7729 43.4457 81.928C43.0752 82.0832 42.6669 82.1247 42.2728 82.0473C41.8786 81.9698 41.5163 81.777 41.232 81.4932C40.9477 81.2094 40.7541 80.8475 40.676 80.4535C40.5978 80.0595 40.6385 79.6511 40.7929 79.2803C40.9473 78.9094 41.2085 78.5929 41.5432 78.3708C41.878 78.1487 42.2712 78.0312 42.6729 78.0331C43.2053 78.0386 43.7144 78.2523 44.0913 78.6285C44.4681 79.0046 44.6828 79.5133 44.6893 80.0457ZM42.6845 79.0539C42.4829 79.0485 42.2842 79.1033 42.1138 79.2114C41.9435 79.3194 41.8092 79.4757 41.7281 79.6604C41.647 79.8451 41.6228 80.0498 41.6585 80.2483C41.6943 80.4468 41.7883 80.6302 41.9288 80.775C42.0692 80.9199 42.2496 81.0195 42.4469 81.0614C42.6442 81.1032 42.8495 81.0853 43.0366 81.01C43.2238 80.9346 43.3842 80.8052 43.4974 80.6383C43.6106 80.4713 43.6716 80.2744 43.6724 80.0727C43.6735 79.8075 43.5707 79.5524 43.3861 79.3619C43.2015 79.1715 42.9496 79.061 42.6845 79.0539Z" fill="#1D1D1B"/>
<path d="M39.5971 69.763C39.5929 69.469 39.6816 69.1812 39.8507 68.9406C40.0198 68.7 40.2605 68.519 40.5386 68.4233C40.6464 68.3859 40.7578 68.36 40.8711 68.3459C41.1373 68.312 41.4078 68.3464 41.657 68.4458C41.9063 68.5453 42.1262 68.7065 42.2959 68.9143C42.4875 69.1282 42.6206 69.3879 42.6826 69.6683C42.7255 69.9691 42.6811 70.2759 42.5546 70.5521C42.4281 70.8284 42.2249 71.0625 41.9692 71.2265C41.7218 71.3721 41.4403 71.4495 41.1533 71.4508C40.9424 71.4555 40.733 71.4142 40.5397 71.3297C40.3464 71.2452 40.1738 71.1196 40.034 70.9617C39.7477 70.6284 39.5924 70.2024 39.5971 69.763ZM41.2036 70.4146C41.4491 70.343 41.6599 70.2 41.6502 69.8945C41.6502 69.7607 41.5971 69.6323 41.5024 69.5377C41.4078 69.4431 41.2794 69.3899 41.1456 69.3899C41.0118 69.3899 40.8834 69.4431 40.7888 69.5377C40.6942 69.6323 40.641 69.7607 40.641 69.8945C40.643 70.2232 40.8576 70.3817 41.2036 70.4146Z" fill="#1D1D1B"/>
<path d="M49.2481 73.4552C49.5496 73.454 49.8447 73.5423 50.0961 73.7087C50.3475 73.8752 50.5439 74.1125 50.6605 74.3905C50.7771 74.6686 50.8087 74.975 50.7513 75.271C50.6939 75.567 50.55 75.8393 50.3379 76.0536C50.1258 76.2679 49.8549 76.4145 49.5595 76.4749C49.2641 76.5353 48.9574 76.5068 48.6782 76.393C48.3989 76.2792 48.1597 76.0853 47.9907 75.8356C47.8217 75.5859 47.7304 75.2917 47.7285 74.9902C47.7275 74.5854 47.8868 74.1967 48.1715 73.9091C48.4563 73.6214 48.8434 73.4582 49.2481 73.4552ZM48.7338 75.0308C48.8015 75.2666 48.9272 75.4754 49.2307 75.4774C49.2995 75.4838 49.3688 75.4748 49.4337 75.4511C49.4986 75.4274 49.5575 75.3896 49.606 75.3404C49.6544 75.2912 49.6914 75.2318 49.7141 75.1665C49.7368 75.1013 49.7447 75.0318 49.7372 74.9631C49.7399 74.8996 49.7295 74.8362 49.7064 74.7769C49.6834 74.7176 49.6484 74.6638 49.6035 74.6187C49.5586 74.5737 49.5049 74.5384 49.4457 74.5152C49.3866 74.4919 49.3232 74.4812 49.2597 74.4836C48.9368 74.4798 48.7764 74.6867 48.7338 75.0308Z" fill="#1D1D1B"/>
<path d="M55.8077 77.5267C56.1095 77.5218 56.406 77.6065 56.6596 77.7701C56.9133 77.9337 57.1126 78.1689 57.2325 78.4459C57.3524 78.7229 57.3875 79.0293 57.3332 79.3262C57.2789 79.6231 57.1377 79.8972 56.9276 80.1139C56.7174 80.3305 56.4477 80.48 56.1526 80.5433C55.8575 80.6066 55.5502 80.5809 55.2697 80.4695C54.9891 80.3581 54.748 80.166 54.5767 79.9174C54.4054 79.6689 54.3117 79.3751 54.3075 79.0733C54.3028 78.6697 54.4579 78.2806 54.7389 77.9909C55.02 77.7012 55.4041 77.5343 55.8077 77.5267ZM55.769 78.5417C55.5158 78.6151 55.2973 78.7698 55.3302 79.0984C55.3364 79.1632 55.3553 79.2261 55.3858 79.2835C55.4164 79.3409 55.4579 79.3918 55.5081 79.4332C55.5582 79.4746 55.6161 79.5057 55.6783 79.5247C55.7405 79.5437 55.8058 79.5503 55.8705 79.5441C55.9353 79.5379 55.9982 79.519 56.0556 79.4884C56.113 79.4579 56.1639 79.4164 56.2053 79.3662C56.2466 79.316 56.2777 79.2582 56.2968 79.196C56.3158 79.1338 56.3224 79.0685 56.3162 79.0037C56.291 78.7195 56.0977 78.5649 55.7613 78.5417H55.769Z" fill="#1D1D1B"/>
<path d="M42.4024 60.3307C42.0151 60.609 41.5471 60.7523 41.0704 60.7386C40.5843 60.725 40.1187 60.5401 39.7557 60.2166C39.4451 59.9141 39.2343 59.5238 39.1517 59.0981C39.0691 58.6724 39.1187 58.2316 39.2937 57.8348C39.4919 57.4256 39.8203 57.0938 40.2275 56.8914C40.6435 56.6808 41.1195 56.6203 41.5749 56.7202C42.0304 56.82 42.4374 57.074 42.7272 57.4393C43.017 57.8046 43.1719 58.2587 43.1655 58.7249C43.1592 59.1912 42.992 59.6409 42.6924 59.9982C42.5996 60.1122 42.4991 60.2205 42.4024 60.3307ZM41.138 57.684C40.9365 57.6845 40.7396 57.7449 40.5725 57.8576C40.4054 57.9703 40.2757 58.1303 40.1998 58.317C40.124 58.5037 40.1054 58.7088 40.1466 58.9061C40.1877 59.1035 40.2867 59.284 40.4308 59.4249C40.575 59.5658 40.7578 59.6605 40.956 59.6971C41.1542 59.7337 41.3588 59.7104 41.5438 59.6303C41.7287 59.5501 41.8856 59.4167 41.9944 59.2471C42.1033 59.0774 42.1592 58.8792 42.1549 58.6777C42.1499 58.4118 42.0404 58.1584 41.8501 57.9725C41.6598 57.7866 41.404 57.683 41.138 57.684Z" fill="#1D1D1B"/>
<path d="M55.8076 52.0853C56.212 52.0799 56.6088 52.1951 56.9474 52.4162C57.2861 52.6373 57.5512 52.9542 57.709 53.3266C57.8668 53.699 57.9101 54.11 57.8334 54.507C57.7566 54.9041 57.5633 55.2694 57.2782 55.5562C56.993 55.843 56.6289 56.0383 56.2323 56.1173C55.8356 56.1964 55.4245 56.1554 55.0512 55.9998C54.6779 55.8442 54.3594 55.5809 54.1364 55.2435C53.9133 54.9061 53.7958 54.51 53.7989 54.1055C53.8039 53.5733 54.0167 53.064 54.392 52.6866C54.7673 52.3091 55.2753 52.0933 55.8076 52.0853ZM56.8322 54.1017C56.827 53.9015 56.7624 53.7073 56.6466 53.5439C56.5307 53.3806 56.3689 53.2553 56.1816 53.1842C55.9944 53.1131 55.7902 53.0994 55.5951 53.1447C55.4 53.19 55.2228 53.2923 55.0861 53.4386C54.9493 53.585 54.8592 53.7687 54.8272 53.9664C54.7952 54.1641 54.8227 54.3668 54.9063 54.5489C54.9899 54.7309 55.1257 54.8839 55.2966 54.9884C55.4674 55.093 55.6655 55.1444 55.8656 55.136C56.1312 55.1239 56.3815 55.0079 56.5623 54.8129C56.7431 54.618 56.8401 54.3597 56.8322 54.0939V54.1017Z" fill="#1D1D1B"/>
<path d="M52.0088 60.8196C52.1528 61.0353 52.2423 61.2828 52.2696 61.5407C52.2968 61.7987 52.2611 62.0594 52.1654 62.3005C52.0176 62.6778 51.7276 62.9821 51.3577 63.1478C50.9879 63.3135 50.5678 63.3274 50.1878 63.1866C49.8078 63.0457 49.4983 62.7613 49.3258 62.3946C49.1533 62.0279 49.1317 61.6081 49.2655 61.2256C49.3624 60.969 49.5198 60.7397 49.7245 60.5573C49.9292 60.3748 50.175 60.2446 50.4409 60.1777C50.9242 60.0559 51.4849 60.286 51.8367 60.6204C51.9007 60.6808 51.9583 60.7475 52.0088 60.8196ZM50.7019 62.2367C50.833 62.2452 50.9622 62.2016 51.0614 62.1155C51.1605 62.0293 51.2217 61.9075 51.2316 61.7765C51.24 61.7077 51.2341 61.6378 51.2143 61.5713C51.1945 61.5049 51.1612 61.4432 51.1164 61.3901C51.0717 61.3371 51.0165 61.2939 50.9543 61.2631C50.8921 61.2324 50.8243 61.2148 50.755 61.2115C50.6857 61.2082 50.6165 61.2192 50.5516 61.2438C50.4868 61.2684 50.4277 61.3062 50.3781 61.3547C50.3284 61.4031 50.2894 61.4613 50.2633 61.5256C50.2372 61.5899 50.2246 61.6589 50.2263 61.7282C50.2244 62.0201 50.4235 62.1825 50.7019 62.2367Z" fill="#1D1D1B"/>
<path d="M45.7082 54.6602C45.7037 54.3615 45.7877 54.0681 45.9495 53.817C46.1112 53.5658 46.3436 53.368 46.6174 53.2485C46.8913 53.129 47.1943 53.0931 47.4884 53.1453C47.7826 53.1975 48.0548 53.3354 48.2708 53.5418C48.4868 53.7482 48.637 54.0138 48.7025 54.3053C48.768 54.5968 48.7459 54.9011 48.639 55.1801C48.5321 55.459 48.3452 55.7002 48.1016 55.8732C47.8581 56.0463 47.5689 56.1435 47.2703 56.1527C46.8656 56.1605 46.4743 56.0079 46.1817 55.7283C45.889 55.4487 45.7188 55.0648 45.7082 54.6602ZM47.191 54.1227C46.8952 54.1885 46.6961 54.3625 46.7309 54.6853C46.7346 54.7526 46.752 54.8183 46.782 54.8786C46.8121 54.9389 46.8541 54.9924 46.9055 55.0359C46.9569 55.0793 47.0167 55.1119 47.0811 55.1314C47.1456 55.151 47.2133 55.1573 47.2802 55.1497C47.3471 55.1422 47.4118 55.1211 47.4703 55.0878C47.5288 55.0544 47.5799 55.0094 47.6204 54.9557C47.6609 54.9019 47.69 54.8404 47.7059 54.7749C47.7218 54.7095 47.7242 54.6415 47.713 54.5751C47.7031 54.4455 47.6422 54.325 47.5436 54.2402C47.445 54.1554 47.3168 54.1131 47.1871 54.1227H47.191Z" fill="#1D1D1B"/>
<path d="M56.8672 67.3518C57.0688 67.357 57.2643 67.4222 57.4287 67.539C57.5931 67.6558 57.719 67.8189 57.7903 68.0075C57.8616 68.1961 57.8751 68.4017 57.8291 68.5981C57.7831 68.7944 57.6796 68.9726 57.5318 69.1099C57.3841 69.2472 57.1989 69.3374 56.9997 69.3689C56.8005 69.4005 56.5964 69.372 56.4135 69.287C56.2306 69.2021 56.0771 69.0646 55.9727 68.8921C55.8682 68.7196 55.8175 68.5199 55.8271 68.3185C55.8396 68.0533 55.9555 67.8037 56.15 67.623C56.3444 67.4423 56.6018 67.3449 56.8672 67.3518Z" fill="#F39550"/>
<path d="M42.6845 79.0541C42.8861 79.0573 43.0823 79.1205 43.2479 79.2357C43.4134 79.3509 43.5409 79.5128 43.6141 79.7007C43.6873 79.8887 43.7028 80.0941 43.6587 80.291C43.6145 80.4878 43.5128 80.667 43.3664 80.8057C43.22 80.9444 43.0355 81.0364 42.8366 81.0698C42.6377 81.1033 42.4334 81.0767 42.2496 80.9935C42.0659 80.9103 41.9111 80.7743 41.805 80.6027C41.699 80.4312 41.6464 80.2319 41.6541 80.0304C41.6636 79.7651 41.777 79.5141 41.9697 79.3316C42.1624 79.149 42.4191 79.0493 42.6845 79.0541Z" fill="#F39550"/>
<path d="M41.2017 70.4028C40.8634 70.3719 40.6546 70.2095 40.6507 69.8905C40.6464 69.8269 40.6553 69.7632 40.6769 69.7032C40.6984 69.6433 40.7322 69.5885 40.7759 69.5422C40.8197 69.4959 40.8725 69.4591 40.9312 69.4342C40.9898 69.4093 41.0529 69.3968 41.1166 69.3975C41.185 69.389 41.2545 69.3958 41.3199 69.4174C41.3854 69.439 41.4453 69.4749 41.4952 69.5224C41.5451 69.5699 41.5839 69.6279 41.6087 69.6923C41.6335 69.7566 41.6437 69.8256 41.6386 69.8943C41.6483 70.194 41.4433 70.3332 41.2017 70.4028Z" fill="#F39550"/>
<path d="M48.7339 75.0311C48.7764 74.6869 48.9272 74.4801 49.2597 74.4839C49.3233 74.4815 49.3866 74.4922 49.4458 74.5155C49.505 74.5387 49.5587 74.574 49.6036 74.619C49.6484 74.6641 49.6835 74.7179 49.7065 74.7772C49.7295 74.8365 49.74 74.8999 49.7372 74.9634C49.7447 75.0321 49.7368 75.1015 49.7141 75.1668C49.6914 75.2321 49.6545 75.2915 49.606 75.3407C49.5575 75.3899 49.4987 75.4277 49.4338 75.4514C49.3689 75.4751 49.2995 75.4841 49.2307 75.4776C48.9349 75.4757 48.8016 75.2669 48.7339 75.0311Z" fill="#F39550"/>
<path d="M55.7611 78.5414C56.0898 78.5646 56.2831 78.7192 56.3083 79.0034C56.3145 79.0682 56.3079 79.1335 56.2889 79.1957C56.2698 79.2579 56.2387 79.3157 56.1974 79.3659C56.156 79.4161 56.1051 79.4576 56.0477 79.4881C55.9903 79.5187 55.9274 79.5376 55.8626 79.5438C55.7979 79.55 55.7326 79.5434 55.6704 79.5244C55.6082 79.5054 55.5504 79.4743 55.5002 79.4329C55.45 79.3915 55.4085 79.3407 55.3779 79.2832C55.3474 79.2258 55.3285 79.1629 55.3223 79.0982C55.2972 78.7695 55.5156 78.6148 55.7611 78.5414Z" fill="#F39550"/>
<path d="M41.1379 57.684C41.3397 57.6813 41.5376 57.7388 41.7065 57.8491C41.8754 57.9594 42.0075 58.1175 42.0862 58.3033C42.1648 58.4891 42.1863 58.6941 42.1478 58.8921C42.1094 59.0901 42.0129 59.2722 41.8705 59.4151C41.7281 59.5581 41.5464 59.6553 41.3485 59.6945C41.1507 59.7337 40.9456 59.713 40.7595 59.6351C40.5734 59.5572 40.4148 59.4256 40.3038 59.2572C40.1929 59.0887 40.1346 58.891 40.1365 58.6893C40.14 58.4244 40.2465 58.1713 40.4334 57.9836C40.6204 57.7959 40.8731 57.6885 41.1379 57.684Z" fill="#F39550"/>
<path d="M56.8322 54.0931C56.8349 54.2931 56.7781 54.4895 56.6689 54.6572C56.5597 54.8248 56.4032 54.9563 56.2192 55.0348C56.0351 55.1133 55.8319 55.1354 55.6353 55.0981C55.4387 55.0609 55.2576 54.966 55.1151 54.8257C54.9725 54.6853 54.8749 54.5057 54.8346 54.3097C54.7943 54.1137 54.8132 53.9101 54.8889 53.7249C54.9646 53.5397 55.0936 53.3811 55.2596 53.2694C55.4256 53.1577 55.621 53.0978 55.8211 53.0974C56.086 53.0994 56.3397 53.2044 56.5285 53.3903C56.7173 53.5761 56.8262 53.8282 56.8322 54.0931Z" fill="#F39550"/>
<path d="M50.7348 62.2583C50.4603 62.2061 50.265 62.0515 50.2689 61.7595C50.2695 61.6932 50.2836 61.6276 50.3102 61.5669C50.3368 61.5061 50.3754 61.4513 50.4237 61.4058C50.472 61.3602 50.529 61.325 50.5912 61.302C50.6535 61.279 50.7197 61.2689 50.786 61.2721C50.8523 61.2754 50.9172 61.292 50.9769 61.3209C51.0366 61.3499 51.0899 61.3906 51.1335 61.4406C51.1771 61.4907 51.2101 61.549 51.2306 61.6121C51.2512 61.6752 51.2587 61.7418 51.2529 61.8079C51.2435 61.9361 51.1837 62.0555 51.0867 62.1399C50.9896 62.2242 50.8631 62.2668 50.7348 62.2583Z" fill="#F39550"/>
<path d="M47.1872 54.1235C47.3163 54.115 47.4434 54.1577 47.5412 54.2424C47.6389 54.3271 47.6993 54.447 47.7092 54.5759C47.7204 54.6423 47.718 54.7103 47.7021 54.7757C47.6862 54.8412 47.6571 54.9027 47.6166 54.9564C47.5761 55.0102 47.525 55.0552 47.4665 55.0886C47.408 55.1219 47.3434 55.143 47.2764 55.1505C47.2095 55.1581 47.1418 55.1518 47.0773 55.1322C47.0129 55.1127 46.9531 55.0801 46.9017 55.0367C46.8503 54.9932 46.8083 54.9397 46.7782 54.8794C46.7482 54.8191 46.7308 54.7534 46.7271 54.6861C46.6923 54.3633 46.8914 54.1893 47.1872 54.1235Z" fill="#F39550"/>
</g>
<defs>
<filter id="filter0_ddddd_13838_46321" x="0.911621" y="0.258142" width="101.156" height="114.125" filterUnits="userSpaceOnUse" color-interpolation-filters="sRGB">
<feFlood flood-opacity="0" result="BackgroundImageFix"/>
<feColorMatrix in="SourceAlpha" type="matrix" values="0 0 0 0 0 0 0 0 0 0 0 0 0 0 0 0 0 0 127 0" result="hardAlpha"/>
<feOffset dx="2" dy="0.156915"/>
<feGaussianBlur stdDeviation="10"/>
<feColorMatrix type="matrix" values="0 0 0 0 0 0 0 0 0 0 0 0 0 0 0 0 0 0 0.1 0"/>
<feBlend mode="normal" in2="BackgroundImageFix" result="effect1_dropShadow_13838_46321"/>
<feColorMatrix in="SourceAlpha" type="matrix" values="0 0 0 0 0 0 0 0 0 0 0 0 0 0 0 0 0 0 127 0" result="hardAlpha"/>
<feOffset dx="0.509975" dy="0.66689"/>
<feGaussianBlur stdDeviation="0.411903"/>
<feColorMatrix type="matrix" values="0 0 0 0 0 0 0 0 0 0 0 0 0 0 0 0 0 0 0.09 0"/>
<feBlend mode="normal" in2="effect1_dropShadow_13838_46321" result="effect2_dropShadow_13838_46321"/>
<feColorMatrix in="SourceAlpha" type="matrix" values="0 0 0 0 0 0 0 0 0 0 0 0 0 0 0 0 0 0 127 0" result="hardAlpha"/>
<feOffset dx="1.09841" dy="1.4907"/>
<feGaussianBlur stdDeviation="0.549204"/>
<feColorMatrix type="matrix" values="0 0 0 0 0 0 0 0 0 0 0 0 0 0 0 0 0 0 0.05 0"/>
<feBlend mode="normal" in2="effect2_dropShadow_13838_46321" result="effect3_dropShadow_13838_46321"/>
<feColorMatrix in="SourceAlpha" type="matrix" values="0 0 0 0 0 0 0 0 0 0 0 0 0 0 0 0 0 0 127 0" result="hardAlpha"/>
<feOffset dx="1.96144" dy="2.62833"/>
<feGaussianBlur stdDeviation="2.5"/>
<feColorMatrix type="matrix" values="0 0 0 0 0 0 0 0 0 0 0 0 0 0 0 0 0 0 0.05 0"/>
<feBlend mode="normal" in2="effect3_dropShadow_13838_46321" result="effect4_dropShadow_13838_46321"/>
<feColorMatrix in="SourceAlpha" type="matrix" values="0 0 0 0 0 0 0 0 0 0 0 0 0 0 0 0 0 0 127 0" result="hardAlpha"/>
<feOffset dx="3.05985" dy="4.11903"/>
<feGaussianBlur stdDeviation="2.5"/>
<feColorMatrix type="matrix" values="0 0 0 0 0 0 0 0 0 0 0 0 0 0 0 0 0 0 0.03 0"/>
<feBlend mode="normal" in2="effect4_dropShadow_13838_46321" result="effect5_dropShadow_13838_46321"/>
<feBlend mode="normal" in="SourceGraphic" in2="effect5_dropShadow_13838_46321" result="shape"/>
</filter>
</defs>
</svg>