<svg width="100" height="120" viewBox="0 0 100 120" fill="none" xmlns="http://www.w3.org/2000/svg">
<g filter="url(#filter0_ddddd_13401_4001)">
<path d="M21.7017 81.8193C20.7089 80.7499 20.6015 79.1355 21.407 77.9187C25.1632 72.2442 28.3201 66.193 30.8256 59.862C35.9369 46.4976 34.0528 34.5373 37.8893 33.8787C41.0792 33.3319 41.0419 37.8613 41.216 40.7877C41.216 40.7877 42.186 35.3077 42.3601 31.7041C42.6586 25.4909 48.8207 23.9501 48.9326 32.226C49.4985 23.9501 51.1898 23.2169 52.993 23.161C54.7962 23.1051 56.1518 25.7519 56.2077 33.102C56.2637 40.4522 54.9641 50.3373 54.9641 50.3373C54.9641 50.3373 60.6599 42.2602 68.2708 45.5532C75.8817 48.8461 75.6703 60.2286 74.0847 65.4352C73.6991 66.7089 73.1768 67.8024 71.1062 67.7092C68.7122 67.5912 67.6738 65.7707 67.7049 63.0121C67.7609 58.1659 66.9712 54.935 64.2104 54.7859C61.4496 54.6368 57.0223 58.4144 57.0223 67.4297C57.0223 76.4449 58.8877 78.9737 61.8102 79.1973C64.7327 79.421 66.8531 76.3952 67.8977 72.251C69.247 66.9264 72.6856 67.2433 73.9043 68.9146C75.2661 70.7785 73.668 76.9917 71.5042 80.7196C67.6179 87.4235 61.3625 93.8417 46.8185 89.8404C44.7428 91.9701 42.501 94.2873 40.772 96.0784C39.1582 97.7502 36.4709 97.7262 34.8898 96.0233L21.7017 81.8193Z" fill="#5C59ED"/>
<path d="M40.9992 33.9702C40.855 33.7772 40.6917 33.5962 40.5061 33.4332C39.7573 32.7752 38.79 32.5319 37.6908 32.7203L37.6905 32.7204C36.0105 33.0088 35.2204 34.5201 34.7637 35.9878C34.2856 37.524 33.9904 39.6072 33.671 41.9467C33.6511 42.0927 33.631 42.2401 33.6108 42.3888C32.9717 47.0821 32.1521 53.101 29.7303 59.4359C27.2552 65.6887 24.137 71.6653 20.4269 77.27C19.332 78.924 19.4664 81.139 20.8405 82.6189L34.0286 96.823C36.0692 99.0208 39.5362 99.0508 41.6176 96.8946C43.2135 95.2414 45.2458 93.1405 47.1804 91.1532C54.3144 92.9935 59.6212 92.3858 63.6854 90.3447C67.8506 88.2529 70.5296 84.7439 72.5206 81.3096C73.6694 79.3304 74.6506 76.73 75.1737 74.3727C75.4356 73.1926 75.5922 72.0313 75.5833 71.011C75.5748 70.0358 75.4153 68.9912 74.8539 68.2221C74.6984 68.0088 74.518 67.8107 74.317 67.6321C74.8026 67.0336 75.042 66.3289 75.2092 65.7769C75.2093 65.7765 75.2094 65.7761 75.2095 65.7757L40.9992 33.9702ZM40.9992 33.9702C41.0846 33.156 41.1517 32.3613 41.1862 31.6474C41.2698 29.9087 41.7665 28.4252 42.534 27.3273C43.2918 26.2434 44.3783 25.4597 45.6226 25.3601C46.7316 25.2714 47.7443 25.7427 48.5061 26.63C48.775 25.5231 49.1012 24.6704 49.4853 24.016C49.9421 23.2378 50.5006 22.7045 51.161 22.3815C51.802 22.068 52.4408 22.0023 52.9566 21.9863C54.6305 21.9344 55.7276 23.2106 56.3603 24.9532C57.0009 26.7176 57.3547 29.3779 57.383 33.0931C57.4114 36.828 57.0961 41.1834 56.777 44.5857C56.6973 45.4364 56.6171 46.2296 56.5416 46.941L40.9992 33.9702ZM68.6389 68.1293C67.8302 69.0128 67.1821 70.2903 66.7584 71.9623L66.7581 71.9638C66.2602 73.9389 65.5274 75.5501 64.6507 76.6153C63.7896 77.6615 62.871 78.0998 61.8999 78.0255C61.3329 77.9821 60.8816 77.8337 60.5024 77.5687C60.1208 77.3021 59.7341 76.8628 59.3858 76.1145C58.6675 74.571 58.1976 71.9015 58.1976 67.4297C58.1976 63.1097 59.2579 60.1631 60.5405 58.3498C61.8508 56.4975 63.3063 55.914 64.147 55.9595C64.5935 55.9836 64.9077 56.1229 65.1596 56.3411C65.4286 56.574 65.6906 56.9541 65.9131 57.5492C66.3687 58.7674 66.5574 60.6036 66.5297 62.9985L66.5297 62.9989C66.5128 64.5014 66.7808 65.9202 67.5249 67.0125C67.8324 67.464 68.2062 67.8375 68.6389 68.1293Z" stroke="white" stroke-width="2.35052"/>
<path d="M21.7017 81.8193C20.7089 80.7499 20.6015 79.1355 21.407 77.9187C25.1632 72.2442 28.3201 66.193 30.8256 59.862C35.9369 46.4976 34.0528 34.5373 37.8893 33.8787C41.0792 33.3319 41.0419 37.8613 41.216 40.7877C41.216 40.7877 42.186 35.3077 42.3601 31.7041C42.6586 25.4909 48.8207 23.9501 48.9326 32.226C49.4985 23.9501 51.1898 23.2169 52.993 23.161C54.7962 23.1051 56.1518 25.7519 56.2077 33.102C56.2637 40.4522 54.9641 50.3373 54.9641 50.3373C54.9641 50.3373 60.6599 42.2602 68.2708 45.5532C75.8817 48.8461 75.6703 60.2286 74.0847 65.4352C73.6991 66.7089 73.1768 67.8024 71.1062 67.7092C68.7122 67.5912 67.6738 65.7707 67.7049 63.0121C67.7609 58.1659 66.9712 54.935 64.2104 54.7859C61.4496 54.6368 57.0223 58.4144 57.0223 67.4297C57.0223 76.4449 58.8877 78.9737 61.8102 79.1973C64.7327 79.421 66.8531 76.3952 67.8977 72.251C69.247 66.9264 72.6856 67.2433 73.9043 68.9146C75.2661 70.7785 73.668 76.9917 71.5042 80.7196C67.6179 87.4235 61.3625 93.8417 46.8185 89.8404C44.7428 91.9701 42.501 94.2873 40.772 96.0784C39.1582 97.7502 36.4709 97.7262 34.8898 96.0233L21.7017 81.8193Z" fill="#5C59ED"/>
<path d="M31.2257 60.0204L31.2256 60.0203C28.7092 66.379 25.5384 72.4568 21.7657 78.1561C21.0662 79.2129 21.1637 80.6075 22.017 81.5265L35.2051 95.7306C36.6179 97.2523 39.0199 97.2741 40.4625 95.7796C42.1917 93.9883 44.4341 91.6705 46.5104 89.5402L46.6877 89.3583L46.9326 89.4257C54.1303 91.4058 59.2157 90.7929 62.9649 88.91C66.7235 87.0224 69.2063 83.8256 71.132 80.5038L71.1321 80.5036C72.1896 78.6818 73.1151 76.2387 73.6064 74.0249C73.8519 72.9185 73.9854 71.8848 73.9779 71.025C73.9703 70.1487 73.8163 69.5234 73.5569 69.1684L73.5567 69.1681C73.0467 68.4686 72.0696 68.053 71.081 68.3691C70.099 68.683 68.9707 69.7684 68.3148 72.3562L31.2257 60.0204ZM31.2257 60.0204L31.2275 60.0157M31.2257 60.0204L31.2275 60.0157M31.2275 60.0157C33.7185 53.5024 34.5596 47.3224 35.1973 42.6371C35.219 42.4776 35.2405 42.3198 35.2618 42.1638C35.5871 39.7807 35.8668 37.8461 36.2966 36.4649C36.7343 35.0586 37.2669 34.422 37.9621 34.3027C38.6491 34.185 39.1088 34.3426 39.4464 34.6392C39.8048 34.9541 40.0744 35.4689 40.2701 36.1497C40.6023 37.3048 40.6781 38.7612 40.7471 40.0878C40.7599 40.3351 40.7726 40.5778 40.7866 40.8133L41.6396 40.8627M31.2275 60.0157L41.6396 40.8627M41.216 40.7877L41.6396 40.8626L41.6397 40.8624L41.6398 40.8616L41.6404 40.8584L41.6425 40.8463L41.6508 40.7991C41.658 40.7577 41.6686 40.6967 41.6821 40.6178C41.7091 40.4601 41.7478 40.231 41.7948 39.9449C41.8888 39.3728 42.0159 38.5725 42.1485 37.6591C42.4132 35.8359 42.7017 33.5482 42.7898 31.7249L42.7898 31.7247C42.8612 30.2393 43.2819 29.0595 43.8498 28.2472C44.4214 27.4297 45.1189 27.011 45.7506 26.9605C46.36 26.9117 47.0103 27.1974 47.5395 28.0134C48.0772 28.8426 48.4751 30.2077 48.5025 32.2318L49.3618 32.2553C49.6443 28.1234 50.2057 25.9601 50.8698 24.8288C51.1936 24.2771 51.5331 23.9867 51.8664 23.8237C52.2069 23.6572 52.5793 23.6043 53.0063 23.591C53.6253 23.5718 54.3024 23.9895 54.8512 25.5011C55.3971 27.0047 55.7497 29.4449 55.7775 33.1053C55.8054 36.7585 55.4961 41.0503 55.1786 44.4358C55.02 46.1271 54.8597 47.5892 54.739 48.6283C54.6786 49.1478 54.6282 49.5615 54.5929 49.8451C54.5753 49.9869 54.5614 50.0961 54.552 50.1698L54.5412 50.2533L54.5385 50.2744L54.5378 50.2796L54.5376 50.2809L54.5376 50.2812L54.9641 50.3373L54.5376 50.2812L55.315 50.5849C55.3156 50.5854 55.3156 50.5854 55.3156 50.5854L41.216 40.7877ZM41.216 40.7877L41.6396 40.8627M41.216 40.7877L41.6396 40.8627M55.3157 50.5852L55.3159 50.5849L55.3182 50.5817L55.329 50.5668C55.3388 50.5532 55.3541 50.5323 55.3747 50.5048C55.4158 50.4497 55.478 50.3681 55.5604 50.2645C55.7252 50.0573 55.9705 49.7629 56.2888 49.4188C56.9264 48.7296 57.8515 47.847 59.0045 47.0667C61.3095 45.5066 64.4779 44.3809 68.0999 45.948C71.7175 47.5132 73.5151 51.0141 74.2029 54.8525C74.8904 58.6891 74.4474 62.7674 73.6731 65.3099L73.6729 65.3106C73.4813 65.9435 73.2794 66.4378 72.9291 66.7748C72.5996 67.0918 72.0795 67.3223 71.1263 67.2795C70.0498 67.2262 69.3226 66.8 68.8517 66.1087C68.366 65.3956 68.1201 64.3512 68.1351 63.017C68.1632 60.5836 67.9817 58.4973 67.4169 56.9869C67.1326 56.2265 66.7424 55.588 66.2106 55.1275C65.6725 54.6615 65.013 54.3984 64.2336 54.3563C62.6556 54.2711 60.7336 55.2967 59.2298 57.4227C57.7159 59.563 56.5921 62.8533 56.5921 67.4297C56.5921 71.9504 57.0571 74.9157 57.9303 76.7919C58.3709 77.7386 58.9221 78.423 59.5828 78.8847C60.2442 79.3469 60.9868 79.5658 61.7774 79.6263C63.418 79.7519 64.804 78.9554 65.8903 77.6355C66.9708 76.3227 67.7835 74.4641 68.3147 72.3567L55.3157 50.5852Z" stroke="#19154A" stroke-width="0.860411"/>
</g>
<defs>
<filter id="filter0_ddddd_13401_4001" x="0.521301" y="0.966486" width="98.803" height="118.857" filterUnits="userSpaceOnUse" color-interpolation-filters="sRGB">
<feFlood flood-opacity="0" result="BackgroundImageFix"/>
<feColorMatrix in="SourceAlpha" type="matrix" values="0 0 0 0 0 0 0 0 0 0 0 0 0 0 0 0 0 0 127 0" result="hardAlpha"/>
<feOffset dx="2" dy="0.156915"/>
<feGaussianBlur stdDeviation="10"/>
<feColorMatrix type="matrix" values="0 0 0 0 0 0 0 0 0 0 0 0 0 0 0 0 0 0 0.1 0"/>
<feBlend mode="normal" in2="BackgroundImageFix" result="effect1_dropShadow_13401_4001"/>
<feColorMatrix in="SourceAlpha" type="matrix" values="0 0 0 0 0 0 0 0 0 0 0 0 0 0 0 0 0 0 127 0" result="hardAlpha"/>
<feOffset dx="0.509975" dy="0.66689"/>
<feGaussianBlur stdDeviation="0.411903"/>
<feColorMatrix type="matrix" values="0 0 0 0 0 0 0 0 0 0 0 0 0 0 0 0 0 0 0.09 0"/>
<feBlend mode="normal" in2="effect1_dropShadow_13401_4001" result="effect2_dropShadow_13401_4001"/>
<feColorMatrix in="SourceAlpha" type="matrix" values="0 0 0 0 0 0 0 0 0 0 0 0 0 0 0 0 0 0 127 0" result="hardAlpha"/>
<feOffset dx="1.09841" dy="1.4907"/>
<feGaussianBlur stdDeviation="0.549204"/>
<feColorMatrix type="matrix" values="0 0 0 0 0 0 0 0 0 0 0 0 0 0 0 0 0 0 0.05 0"/>
<feBlend mode="normal" in2="effect2_dropShadow_13401_4001" result="effect3_dropShadow_13401_4001"/>
<feColorMatrix in="SourceAlpha" type="matrix" values="0 0 0 0 0 0 0 0 0 0 0 0 0 0 0 0 0 0 127 0" result="hardAlpha"/>
<feOffset dx="1.96144" dy="2.62833"/>
<feGaussianBlur stdDeviation="2.5"/>
<feColorMatrix type="matrix" values="0 0 0 0 0 0 0 0 0 0 0 0 0 0 0 0 0 0 0.05 0"/>
<feBlend mode="normal" in2="effect3_dropShadow_13401_4001" result="effect4_dropShadow_13401_4001"/>
<feColorMatrix in="SourceAlpha" type="matrix" values="0 0 0 0 0 0 0 0 0 0 0 0 0 0 0 0 0 0 127 0" result="hardAlpha"/>
<feOffset dx="3.05985" dy="4.11903"/>
<feGaussianBlur stdDeviation="2.5"/>
<feColorMatrix type="matrix" values="0 0 0 0 0 0 0 0 0 0 0 0 0 0 0 0 0 0 0.03 0"/>
<feBlend mode="normal" in2="effect4_dropShadow_13401_4001" result="effect5_dropShadow_13401_4001"/>
<feBlend mode="normal" in="SourceGraphic" in2="effect5_dropShadow_13401_4001" result="shape"/>
</filter>
</defs>
</svg>
