<svg width="92" height="113" viewBox="0 0 92 113" fill="none" xmlns="http://www.w3.org/2000/svg">
<g filter="url(#filter0_ddddd_13849_50584)">
<path d="M20.6826 49.4222L20.6825 49.4221C19.6961 48.9633 19.1024 48.3529 18.9306 47.5965C18.7632 46.8598 19.0323 46.133 19.4201 45.5139C20.1932 44.2797 21.6491 43.1425 22.4815 42.5273L22.4825 42.5266C25.845 40.0534 29.7486 38.0643 34.033 37.7624C32.9384 36.3976 31.4101 34.3651 30.1845 32.1766C29.4405 30.8481 28.7984 29.4452 28.4361 28.0866C28.0749 26.7321 27.9804 25.3782 28.3859 24.1766L28.8596 24.3365L28.3859 24.1766C28.6734 23.3245 29.1713 22.7261 29.8509 22.3881C30.516 22.0573 31.2958 22.0055 32.1042 22.1202C33.7096 22.3479 35.6105 23.259 37.4428 24.3819C40.5868 26.3085 43.71 28.9746 45.117 30.3686C45.5533 29.3674 46.2503 28.1153 47.0833 26.8542C48.1452 25.2468 49.4554 23.5833 50.7828 22.3675C51.4462 21.7599 52.1293 21.2496 52.8021 20.9174C53.4718 20.5868 54.1745 20.4117 54.8512 20.5446C55.5465 20.6811 56.1262 21.1249 56.5671 21.8521C57.0005 22.5671 57.3115 23.5712 57.4974 24.891M20.6826 49.4222L45.4952 30.7566C47.3662 26.2459 55.6108 15.0824 57.0023 24.9608C57.4012 27.7903 56.9096 30.7688 56.1328 33.5212C56.3097 33.4739 56.496 33.428 56.69 33.3836M20.6826 49.4222C22.8057 50.4094 25.3854 50.8903 27.9636 51.1094C30.2084 51.3002 32.4785 51.2944 34.4855 51.24M20.6826 49.4222L34.4855 51.24M57.4974 24.891L57.0035 24.9606L57.4974 24.891C57.4974 24.891 57.4974 24.891 57.4974 24.891ZM57.4974 24.891C57.8965 27.7221 57.4322 30.6734 56.69 33.3836M56.69 33.3836C57.9486 33.0954 59.5293 32.8687 60.9615 32.7025C62.7171 32.4987 64.2916 32.3812 64.8577 32.3543M56.69 33.3836C56.6394 33.5683 56.5876 33.7519 56.5346 33.9343C59.2569 33.2641 63.9475 32.8948 64.9146 32.8523M64.8577 32.3543L22.7787 42.9294C21.1024 44.1683 17.257 47.2773 20.8934 48.9688C24.8058 50.788 30.4229 50.8608 34.7639 50.7319C34.675 50.8864 34.5817 51.0564 34.4855 51.24M64.8577 32.3543C64.8698 32.3538 64.8814 32.3532 64.8926 32.3527L64.9146 32.8523M64.8577 32.3543C64.8463 32.3564 64.8348 32.3585 64.8233 32.3606L64.9146 32.8523M64.9146 32.8523C70.846 31.7518 67.8145 38.385 65.6385 40.5845C63.3601 42.8865 60.3424 44.2334 57.2888 45.1663M57.2888 45.1663C56.8528 45.3001 56.3704 45.3944 55.8869 45.4888C54.2645 45.8058 52.6302 46.1251 52.6974 47.9486M57.2888 45.1663L57.4349 45.6445C57.4351 45.6444 57.4353 45.6444 57.4355 45.6443L57.2888 45.1663ZM52.6974 47.9486C52.747 49.2727 53.902 51.0936 54.998 52.8215C55.7066 53.9386 56.3906 55.0169 56.7352 55.8968M52.6974 47.9486L53.197 47.9299C53.197 47.93 53.197 47.9301 53.197 47.9302L52.6974 47.9486ZM56.7352 55.8968C57.5596 57.9938 58.2258 60.1495 58.7284 62.3459C59.967 67.8264 60.0356 73.4358 60.104 79.0295C60.1069 79.2622 60.1097 79.495 60.1127 79.7277C60.1202 80.3453 60.2167 81.2223 60.3247 82.2041C60.5912 84.6261 60.9277 87.6853 60.1722 89.0574M56.7352 55.8968L57.2005 55.7139C57.2006 55.7141 57.2006 55.7143 57.2007 55.7145C58.0342 57.8345 58.7077 60.0139 59.2158 62.2344L59.2161 62.2357C60.4666 67.769 60.5357 73.4262 60.6038 79.0061C60.6067 79.2447 60.6096 79.4831 60.6126 79.7214V79.7215C60.6188 80.2283 60.689 80.9336 60.7794 81.7636C60.7931 81.8891 60.8072 82.0173 60.8215 82.1476C60.9007 82.8676 60.9871 83.6529 61.0489 84.433C61.1217 85.3536 61.1618 86.285 61.1137 87.1162C61.0662 87.9346 60.9307 88.7164 60.6102 89.2985M56.7352 55.8968L60.6102 89.2985M60.1722 89.0574C58.7049 91.7234 53.7771 90.9427 51.237 90.3281M60.1722 89.0574L60.6102 89.2985M60.1722 89.0574L60.6102 89.2984C60.6102 89.2985 60.6102 89.2985 60.6102 89.2985M51.237 90.3281C49.569 89.9253 46.7549 89.1861 45.8233 87.6371C45.0346 86.3252 45.353 85.325 45.7278 84.1471C45.8418 83.789 45.961 83.4144 46.0558 83.0097C46.155 82.5877 46.2557 82.1675 46.3563 81.7482C46.7866 79.9538 47.2133 78.1744 47.4927 76.3377C48.651 68.7229 48.2609 60.9007 46.6341 53.3814C46.5062 53.5706 46.3757 53.758 46.2425 53.9434M51.237 90.3281L51.1196 90.8141C50.2843 90.6124 49.1299 90.3193 48.0616 89.8739C47.0121 89.4364 45.947 88.8129 45.3948 87.8948L45.3948 87.8947C44.8084 86.9193 44.7549 86.0686 44.9098 85.2408C44.9842 84.8434 45.1063 84.4519 45.2267 84.073L45.2502 83.9989C45.3652 83.6377 45.4788 83.2806 45.569 82.8955L45.5691 82.8953C45.6694 82.4683 45.771 82.0447 45.872 81.6233C46.3019 79.8305 46.7225 78.0763 46.9984 76.2625C48.1232 68.8677 47.7758 61.2692 46.2425 53.9434M51.237 90.3281L34.4855 51.24M46.2425 53.9434C46.196 53.7212 46.1484 53.4992 46.0997 53.2775C45.3397 54.3807 44.4855 55.4165 43.5462 56.373C41.6789 58.3026 38.9575 60.9133 36.2638 61.5265C30.2277 62.8991 33.324 54.3974 35.0617 51.223C34.8723 51.229 34.6801 51.2348 34.4855 51.24M46.2425 53.9434C45.5357 54.9275 44.7541 55.8564 43.9045 56.7218C42.967 57.6905 41.8004 58.8458 40.5215 59.8384C39.2479 60.8269 37.8258 61.6837 36.3748 62.014L36.3747 62.014C34.6777 62.3999 33.4609 62.0848 32.7828 61.105C32.1561 60.1993 32.1175 58.8809 32.3055 57.58C32.6252 55.3675 33.6627 52.8099 34.4855 51.24" fill="white" stroke="white"/>
<path d="M56.2618 63.34C56.4261 63.34 56.5866 63.2913 56.7232 63.2001C56.8598 63.1088 56.9663 62.9791 57.0291 62.8273C57.092 62.6756 57.1084 62.5086 57.0764 62.3475C57.0443 62.1864 56.9652 62.0384 56.8491 61.9222C56.7329 61.8061 56.5849 61.727 56.4238 61.6949C56.2627 61.6629 56.0957 61.6793 55.944 61.7422C55.7922 61.805 55.6625 61.9115 55.5712 62.0481C55.48 62.1847 55.4313 62.3452 55.4313 62.5095C55.4338 62.729 55.5221 62.9388 55.6773 63.094C55.8325 63.2492 56.0423 63.3375 56.2618 63.34Z" fill="black"/>
<path d="M57.2655 69.4777C57.4297 69.4777 57.5903 69.4289 57.7269 69.3377C57.8634 69.2464 57.9699 69.1167 58.0328 68.965C58.0956 68.8132 58.1121 68.6462 58.08 68.4851C58.048 68.324 57.9689 68.176 57.8528 68.0598C57.7366 67.9437 57.5886 67.8646 57.4275 67.8325C57.2664 67.8005 57.0994 67.8169 56.9476 67.8798C56.7959 67.9427 56.6661 68.0491 56.5749 68.1857C56.4836 68.3223 56.4349 68.4829 56.4349 68.6471C56.4371 68.8667 56.5253 69.0767 56.6806 69.232C56.8359 69.3873 57.0459 69.4755 57.2655 69.4777Z" fill="black"/>
<path d="M56.2619 62.5096C54.5904 55.4916 51.1905 49.003 46.3716 43.6343C51.2524 57.2481 52.2089 72.4926 47.6174 86.2006C50.692 88.122 54.3854 88.7936 57.9395 88.0776C57.4689 81.6133 57.9022 75.0728 57.2654 68.6417" fill="#FCCBA4"/>
<path d="M57.062 62.288C56.3906 59.4956 55.45 56.7749 54.2534 54.164C53.085 51.6021 51.6701 49.1599 50.0288 46.8719C49.076 45.5441 48.051 44.2697 46.9585 43.0542C46.828 42.9256 46.659 42.8432 46.4773 42.8197C46.2956 42.7962 46.1111 42.8329 45.9522 42.9241C45.6588 43.1137 45.4442 43.5096 45.5715 43.8626C46.5202 46.5104 47.3165 49.2104 47.9566 51.9492C48.2805 53.3335 48.5624 54.726 48.8023 56.1268C48.9204 56.8134 49.028 57.5018 49.1249 58.1921L49.1581 58.4316C49.1581 58.4842 49.1733 58.5382 49.1802 58.5908C49.1802 58.5755 49.165 58.4703 49.1802 58.57L49.2467 59.0877C49.2909 59.4462 49.3325 59.8061 49.3713 60.1646C49.6766 62.9568 49.8051 65.7654 49.7561 68.5738C49.7293 69.9737 49.6573 71.3713 49.5401 72.7666C49.4792 73.4707 49.4068 74.173 49.3228 74.8734C49.3048 75.0326 49.284 75.1918 49.2647 75.3496L49.2273 75.6264C49.2273 75.6112 49.2439 75.506 49.2273 75.6043L49.2065 75.7621C49.1581 76.1054 49.1082 76.4542 49.0543 76.7892C48.6197 79.5673 47.9803 82.3096 47.1413 84.9935C47.0374 85.3257 46.9309 85.6551 46.8201 85.9846C46.7737 86.1613 46.7858 86.3483 46.8547 86.5175C46.9236 86.6867 47.0455 86.829 47.2022 86.9231C49.7153 88.4862 52.6337 89.2729 55.592 89.1849C56.4553 89.1565 57.3147 89.0556 58.1611 88.8831C58.3363 88.8347 58.4908 88.73 58.6009 88.5852C58.7109 88.4404 58.7704 88.2635 58.7701 88.0817C58.4061 83.0348 58.586 77.9768 58.3825 72.9189C58.3258 71.4917 58.2358 70.0674 58.096 68.6458C58.0545 68.2153 57.7444 67.7945 57.2655 67.8152C56.8502 67.8332 56.3907 68.182 56.435 68.6458C56.9305 73.6802 56.7782 78.7423 56.9084 83.792C56.9457 85.2232 57.0066 86.6532 57.1091 88.0831L57.7195 87.2816C57.5603 87.3148 57.3997 87.3453 57.2392 87.3716L56.979 87.4131H56.9416C57.0371 87.3993 56.882 87.4214 56.8654 87.4228C56.5166 87.4662 56.1674 87.4957 55.8176 87.5114C55.1417 87.5428 54.4645 87.5257 53.7911 87.4602C53.6291 87.4449 53.4672 87.4269 53.3052 87.4048C53.4658 87.4256 53.2429 87.3937 53.1917 87.3868L52.9315 87.3439C52.5868 87.283 52.2394 87.2055 51.903 87.1252C51.2472 86.9595 50.6038 86.7481 49.9775 86.4926C49.9678 86.4926 49.8529 86.4414 49.9374 86.4774L49.8294 86.4303L49.5899 86.3209C49.4197 86.242 49.2508 86.1604 49.0833 86.0746C48.728 85.89 48.3806 85.6911 48.041 85.4779L48.4217 86.4151C49.3178 83.7341 50.0118 80.9898 50.498 78.2052C50.9918 75.3748 51.2901 72.5138 51.3908 69.6424C51.4885 66.8101 51.4039 63.9744 51.1375 61.153C50.8675 58.2761 50.4247 55.418 49.8114 52.5943C49.2085 49.8184 48.4445 47.0799 47.5233 44.3928C47.4098 44.0633 47.2949 43.7352 47.1786 43.4086L45.7944 44.217C46.2623 44.7374 46.7177 45.269 47.1606 45.8116C47.3821 46.0829 47.5999 46.357 47.814 46.6338L47.8666 46.703L48.0258 46.9134C48.131 47.0518 48.2348 47.1903 48.3386 47.3287C49.1609 48.4471 49.9268 49.6039 50.6364 50.7989C51.3461 51.994 52.0031 53.2301 52.6076 54.5073C52.746 54.8132 52.8844 55.1191 53.0228 55.4292C53.0934 55.5884 53.1613 55.7489 53.2318 55.9095L53.2927 56.0479C53.254 55.9566 53.3149 56.1019 53.3232 56.1227L53.3814 56.2611C53.649 56.9071 53.9 57.5604 54.1344 58.2212C54.6583 59.6939 55.1024 61.1938 55.4646 62.7144C55.4936 62.8195 55.543 62.918 55.61 63.004C55.6771 63.0901 55.7604 63.1621 55.8553 63.216C55.9501 63.2698 56.0547 63.3045 56.1629 63.3179C56.2712 63.3314 56.381 63.3234 56.4862 63.2943C56.6961 63.2321 56.8739 63.0909 56.982 62.9004C57.0901 62.71 57.1203 62.485 57.0661 62.2728L57.062 62.288Z" fill="black"/>
<path d="M47.6476 45.1091C47.5161 42.796 47.3334 40.4567 46.6012 38.2668C45.4703 34.8852 43.0825 32.0614 40.3057 29.8867C37.529 27.7121 34.3535 26.1244 31.1934 24.5907C31.5699 26.847 31.9588 29.142 32.9776 31.1768C33.5991 32.4157 34.438 33.53 35.2865 34.6153C38.7374 39.0448 42.6229 43.4106 47.7446 45.5991L47.6476 45.1091Z" fill="#A4B332" stroke="black" stroke-width="0.968958" stroke-miterlimit="10"/>
<path d="M54.2049 23.1569C48.9033 26.8264 45.9328 33.5995 46.8228 39.9863C47.0485 41.6072 47.5011 43.188 47.951 44.7619L48.0617 44.7425C48.5199 43.6794 48.9808 42.6108 49.6024 41.6349C50.1117 40.8348 50.725 40.1039 51.2316 39.3025C51.8891 38.2601 52.357 37.1126 52.7847 35.9582C54.2963 31.8609 55.3206 27.3704 54.2049 23.1569Z" fill="#A4B332" stroke="black" stroke-width="0.968958" stroke-miterlimit="10"/>
<path d="M53.8285 24.0578C53.171 25.233 52.6173 26.465 52.0636 27.6914C51.5376 28.8541 51.0241 30.021 50.541 31.2032C49.5898 33.4881 48.8125 35.8415 48.2155 38.2433C47.8653 39.7091 47.5927 41.1922 47.3988 42.6867C47.3725 42.8929 47.6216 43.0106 47.6535 42.7601C47.9793 40.1938 48.5404 37.6629 49.3298 35.1994C50.0856 32.8365 51.049 30.547 52.0622 28.2852C52.681 26.901 53.3427 25.5361 53.8756 24.1173C53.8867 24.0855 53.8548 24.0107 53.8271 24.0606L53.8285 24.0578Z" fill="#5E700B"/>
<path d="M31.754 25.3207C32.7603 26.2896 33.6919 27.2752 34.6152 28.3258C35.7161 29.5864 36.7953 30.8626 37.8529 32.1546C39.7783 34.4995 41.8145 36.771 43.6445 39.192C44.6846 40.5622 45.6136 42.0133 46.4226 43.5315C46.5195 43.7142 46.6676 43.4388 46.6067 43.3142C45.3041 40.6163 43.4562 38.2867 41.5321 36.011C39.388 33.4751 37.3365 30.8493 35.101 28.3978C34.0725 27.2683 33.0731 26.0751 31.8038 25.2044C31.7512 25.1698 31.7221 25.293 31.754 25.3234V25.3207Z" fill="#5E700B"/>
<path d="M46.9072 44.2179C42.9663 42.3589 38.822 40.457 34.47 40.677C29.7373 40.9165 25.4905 43.6462 21.9192 46.7607C23.5041 47.4985 25.2801 47.6937 27.0201 47.8681C30.5235 48.2169 34.0616 48.5145 37.5596 48.1131C41.0575 47.7117 44.5513 46.56 47.2491 44.2996L46.9072 44.2179Z" fill="#A4B332" stroke="black" stroke-width="0.968958" stroke-miterlimit="10"/>
<path d="M32.6208 44.725C31.051 44.9299 29.4966 45.2247 27.9462 45.5472C26.2852 45.8933 24.613 46.249 22.9326 46.5024C22.9035 46.5024 22.8993 46.5757 22.9326 46.573C24.4317 46.4345 25.8976 46.2047 27.3759 45.9168C28.8543 45.6289 30.316 45.3493 31.7985 45.1458C33.3212 44.9368 34.8867 44.7305 36.4205 44.7112C38.004 44.6959 39.5889 44.7762 41.1739 44.7665C42.8502 44.7555 44.5251 44.7416 46.2 44.7665C46.2211 44.7662 46.2418 44.7615 46.2609 44.7527C45.9841 44.6143 45.7183 44.4758 45.4442 44.3305C42.6384 44.3305 39.8326 44.3914 37.0254 44.3527C35.5567 44.336 34.0728 44.534 32.6208 44.725Z" fill="#5E700B"/>
<path d="M47.3724 44.8895C44.0291 45.6644 41.0241 47.495 38.8019 50.1103C36.5797 52.7256 35.2584 55.9868 35.0334 59.4114C37.9903 58.0865 40.6173 56.1237 42.7259 53.6637C44.8346 51.2037 46.3727 48.3075 47.2299 45.1829C47.2769 45.0846 47.3226 44.9877 47.3724 44.8895Z" fill="#A4B332" stroke="black" stroke-width="0.968958" stroke-miterlimit="10"/>
<path d="M35.677 58.6052C36.4882 57.6999 37.208 56.7088 37.9457 55.744C38.6835 54.7792 39.4283 53.7853 40.1605 52.8025C41.6462 50.8148 43.1195 48.8182 44.5803 46.813C45.4026 45.6862 46.2193 44.5558 47.0304 43.4216C47.1052 43.3164 47.0221 43.0313 46.9128 43.1835C44.0087 47.2089 41.0663 51.2065 38.0856 55.1765C37.255 56.2838 36.3885 57.376 35.6272 58.5346C35.605 58.5664 35.6272 58.6522 35.6742 58.6052H35.677Z" fill="#5E700B"/>
<path d="M45.1482 45.9437C45.1649 45.9132 45.183 45.8826 45.1996 45.8506L45.0607 45.9035L45.1482 45.9437Z" fill="#A4B332" stroke="black" stroke-width="0.968958" stroke-miterlimit="10"/>
<path d="M54.0262 37.435C52.1132 38.3752 50.3727 39.6317 48.8783 41.1517C47.5766 42.454 46.4627 43.9313 45.5686 45.541C47.3972 45.1258 49.9538 44.5181 53.0074 43.7415C58.3464 42.3809 59.5133 41.8645 60.8048 41.1614C63.2216 39.8533 65.3561 37.8392 66.2877 35.2535C62.1046 35.3656 57.7927 35.6148 54.0262 37.435Z" fill="#A4B332" stroke="black" stroke-width="0.968958" stroke-miterlimit="10"/>
<path d="M64.4427 36.2971C63.5069 36.6501 62.603 37.093 61.6742 37.4598C60.6707 37.8557 59.6616 38.2336 58.6497 38.6088C56.1678 39.5265 53.6914 40.4608 51.2109 41.3869L46.7371 43.048C46.5986 43.1006 46.6997 43.4245 46.8395 43.3733C49.4889 42.3849 52.1369 41.3952 54.7835 40.4041C56.9914 39.5736 59.2131 38.7929 61.4057 37.9125C62.448 37.4972 63.5872 37.0944 64.505 36.4355C64.5506 36.4023 64.505 36.2708 64.4454 36.2971H64.4427Z" fill="#5E700B"/>
<path d="M49.9526 50.9894C49.9955 50.9174 50.037 50.844 50.0799 50.7693C50.2958 50.9492 50.5146 51.125 50.7374 51.2939C50.8578 51.3852 50.9783 51.4738 51.1001 51.561C51.053 51.4738 51.006 51.3852 50.9617 51.298L50.8039 51.1831C50.5782 51.0184 50.3568 50.8495 50.1395 50.6737C50.2142 50.5353 50.2875 50.408 50.354 50.2709L50.2959 50.1782C50.2183 50.3235 50.1436 50.4689 50.0675 50.6142L49.9291 50.5063C49.6619 50.2834 49.41 50.0232 49.122 49.8266C49.1054 49.8141 49.1013 49.8529 49.1082 49.8612C49.3539 50.1457 49.6265 50.4057 49.9221 50.6378L50.0093 50.7111C49.9706 50.7817 49.9318 50.8495 49.8903 50.9215C49.774 51.1181 49.6439 51.3077 49.5166 51.5001C49.5276 51.5527 49.5401 51.6067 49.5512 51.6607C49.7007 51.4406 49.8294 51.2081 49.9526 50.9894Z" fill="#D19C72"/>
<path d="M53.0725 84.628C53.2179 84.3747 53.3673 84.12 53.5155 83.8625C54.262 84.4864 55.0224 85.0936 55.7967 85.6842C56.2119 85.9998 56.6314 86.3089 57.0549 86.6116C56.893 86.3057 56.7269 85.9998 56.5594 85.6953C56.3766 85.5638 56.1925 85.4336 56.0057 85.2994C55.2222 84.7272 54.4535 84.1371 53.6996 83.5289C53.9598 83.0708 54.2131 82.6057 54.447 82.1323L54.2422 81.8097C53.9736 82.3122 53.7162 82.8216 53.449 83.3241C53.2967 83.1995 53.1431 83.0763 52.9908 82.949C52.062 82.1766 51.1913 81.2713 50.1905 80.5875C50.1324 80.5487 50.1144 80.6788 50.1393 80.7107C50.9325 81.7211 51.9928 82.5711 52.9659 83.403C53.0656 83.4888 53.168 83.5732 53.2691 83.6591C53.1306 83.9055 52.9991 84.1491 52.8538 84.3899C52.4468 85.0724 51.9956 85.7326 51.5526 86.3971C51.5942 86.5825 51.6357 86.768 51.6758 86.9507C52.1866 86.1936 52.6351 85.3852 53.0725 84.628Z" fill="#D19C72"/>
<path d="M50.9215 53.6941L51.1485 53.3494C51.4779 53.6613 51.8143 53.9649 52.1576 54.2602C52.3421 54.4199 52.5267 54.5753 52.7113 54.7267C52.6434 54.58 52.5728 54.4319 52.5064 54.2865L52.2614 54.0872C51.9144 53.7993 51.5744 53.503 51.2412 53.1985C51.3796 52.9923 51.5056 52.7832 51.626 52.5659L51.5402 52.4109C51.4018 52.6379 51.2634 52.8691 51.1249 53.103L50.9228 52.9161C50.5076 52.5299 50.1325 52.0856 49.6881 51.7381C49.6618 51.7188 49.6493 51.7783 49.6604 51.7949C50.0009 52.2877 50.4702 52.7126 50.8979 53.1265L51.0364 53.2539C50.9685 53.366 50.8979 53.4767 50.826 53.5847C50.6183 53.892 50.3899 54.1882 50.1657 54.4858C50.1809 54.5744 50.1948 54.6616 50.2086 54.7502C50.4702 54.4014 50.7014 54.036 50.9215 53.6941Z" fill="#D19C72"/>
<path d="M51.9735 57.4862L52.332 56.9948C52.7823 57.4792 53.2437 57.9526 53.7162 58.415C53.9695 58.6614 54.227 58.9036 54.4858 59.1445C54.4019 58.9211 54.3156 58.6992 54.227 58.4787L53.8906 58.1658C53.4117 57.7164 52.9438 57.255 52.487 56.7816C52.6974 56.4868 52.9023 56.1864 53.1002 55.8791L52.9895 55.6424C52.7694 55.9677 52.5548 56.2971 52.3348 56.6224L52.0579 56.3317C51.4959 55.731 50.9824 55.0458 50.3678 54.5032C50.3332 54.4713 50.311 54.5599 50.3249 54.5834C50.7747 55.3351 51.4184 55.9967 52.0039 56.6404L52.1866 56.8383C52.0773 56.9975 51.9666 57.1553 51.8503 57.309C51.5236 57.7478 51.1665 58.1658 50.8149 58.588C50.8287 58.7181 50.8412 58.8496 50.8536 58.9797C51.2523 58.4967 51.6136 57.9762 51.9735 57.4862Z" fill="#D19C72"/>
<path d="M52.9716 62.9595C53.1446 62.7616 53.3204 62.5608 53.4948 62.3574C54.0291 63.0403 54.5787 63.7098 55.1434 64.3659C55.4461 64.7175 55.7543 65.064 56.0681 65.4054C55.9823 65.1055 55.8941 64.8065 55.8037 64.5085C55.6653 64.3603 55.5338 64.2122 55.3995 64.0627C54.8255 63.4168 54.2663 62.7611 53.7218 62.0957C54.0305 61.7345 54.3364 61.3649 54.6243 60.9884C54.5842 60.8818 54.5454 60.7738 54.5053 60.6672C54.1814 61.0659 53.8644 61.4728 53.5363 61.8729C53.4256 61.7345 53.3149 61.596 53.2069 61.4576C52.5411 60.6119 51.9473 59.6581 51.2053 58.8816C51.1624 58.8359 51.1236 58.948 51.1389 58.9812C51.6427 60.0139 52.4096 60.9496 53.1017 61.8549C53.1723 61.949 53.2401 62.0418 53.3176 62.1317C53.1571 62.3269 52.9951 62.5193 52.8276 62.7076C52.3501 63.2433 51.8379 63.7499 51.3313 64.2621C51.3313 64.4337 51.3313 64.6054 51.3382 64.777C51.9182 64.1956 52.4539 63.5547 52.9716 62.9595Z" fill="#D19C72"/>
<path d="M53.431 69.213C53.6566 68.9985 53.8864 68.7812 54.1162 68.5611C54.6551 69.4267 55.2134 70.2775 55.7911 71.1136C56.1011 71.5621 56.4195 72.0036 56.742 72.4424C56.6784 72.0789 56.6128 71.7162 56.5455 71.3544C56.4052 71.1643 56.2668 70.9742 56.1302 70.7841C55.5387 69.9628 54.967 69.1272 54.4152 68.2773C54.8207 67.887 55.2222 67.4855 55.6056 67.0703C55.5724 66.9401 55.5405 66.8086 55.5059 66.6785C55.0796 67.1132 54.6588 67.5575 54.2324 67.9922C54.1203 67.8191 54.0082 67.6461 53.8988 67.4703C53.2261 66.3989 52.653 65.2099 51.882 64.2105C51.8377 64.1523 51.7782 64.2797 51.7921 64.3198C52.253 65.5933 53.0309 66.7837 53.73 67.9285C53.8019 68.0461 53.8753 68.1638 53.9487 68.2815C53.7355 68.4932 53.5223 68.6967 53.3036 68.9057C52.6807 69.483 52.0204 70.0242 51.3657 70.5668C51.3477 70.7689 51.3283 70.9724 51.309 71.1745C52.0481 70.5516 52.7527 69.8567 53.431 69.213Z" fill="#D19C72"/>
<path d="M53.1445 77.5463C53.4559 77.2971 53.7715 77.0452 54.0871 76.7905C54.6704 77.9458 55.2785 79.0864 55.9115 80.2123C56.2521 80.8144 56.6036 81.4096 56.9608 82.0007C56.9238 81.5328 56.8828 81.065 56.8376 80.5971C56.6825 80.341 56.5275 80.0849 56.3752 79.8275C55.7219 78.7201 55.0948 77.5975 54.4941 76.4596C55.0478 76.0042 55.6015 75.5364 56.1399 75.0477C56.1136 74.8789 56.0873 74.7086 56.0597 74.5397C55.4686 75.0463 54.8872 75.5682 54.2961 76.0776C54.1757 75.845 54.0539 75.6125 53.9349 75.3786C53.2081 73.9445 52.6185 72.372 51.7602 71.0196C51.7104 70.9407 51.6218 71.0971 51.6343 71.1497C52.0703 72.8191 52.9161 74.4138 53.6649 75.9433C53.7425 76.1011 53.8214 76.2575 53.9003 76.4153C53.6082 76.6617 53.3134 76.9067 53.013 77.1421C52.1589 77.812 51.2605 78.4308 50.3705 79.0578C50.3248 79.3139 50.2764 79.57 50.2321 79.8261C51.2412 79.1049 52.2143 78.2951 53.1445 77.5463Z" fill="#D19C72"/>
<path d="M46.5764 46.9362C46.6237 46.9222 46.6699 46.9051 46.7149 46.885L46.7951 46.8449C46.8559 46.8138 46.9142 46.7782 46.9696 46.7383C46.9848 46.7272 46.9972 46.712 47.0125 46.6995C47.0277 46.6871 47.0775 46.6442 47.108 46.6151C47.3947 46.3347 47.5941 45.9772 47.6821 45.5859C47.77 45.1946 47.7427 44.7862 47.6035 44.41C47.5297 44.2176 47.4182 44.0418 47.2756 43.893C47.133 43.7442 46.9621 43.6254 46.773 43.5435C45.8331 42.9372 44.4835 43.1698 44.0862 44.2979C43.9394 44.6956 43.9232 45.1296 44.04 45.5371C44.1567 45.9446 44.4003 46.3043 44.7354 46.5639C44.9783 46.7452 45.2559 46.8744 45.5511 46.9435C45.8462 47.0126 46.1524 47.02 46.4505 46.9653C46.492 46.9561 46.5321 46.945 46.5709 46.9321L46.5764 46.9362Z" fill="#40352C"/>
<path d="M46.4918 42.9513C46.4806 42.9996 46.4728 43.0486 46.4683 43.098C46.4683 43.1298 46.4683 43.1603 46.4683 43.1921C46.4651 43.2642 46.4674 43.3364 46.4752 43.4081C46.4752 43.4288 46.4863 43.4482 46.4891 43.469C46.4974 43.5133 46.5071 43.5589 46.5181 43.6074C46.7161 44.4628 47.4871 45.184 48.3176 45.3986C48.5279 45.4551 48.7474 45.468 48.9629 45.4366C49.1783 45.4052 49.385 45.3301 49.5704 45.2159C50.6362 44.784 51.1331 43.4814 50.2888 42.4474C49.7088 41.7345 48.7232 41.3124 47.8235 41.603C47.2476 41.7885 46.7161 42.2509 46.5306 42.8308C46.5168 42.8711 46.5057 42.9123 46.4974 42.954C46.496 42.9524 46.494 42.9514 46.4918 42.9513Z" fill="#40352C"/>
<path d="M49.8556 45.0275C49.8182 44.9984 49.7808 44.9694 49.742 44.9445C49.7171 44.9278 49.6908 44.914 49.6659 44.9002C49.6083 44.8664 49.5481 44.8372 49.4859 44.813C49.4679 44.806 49.4486 44.8047 49.4306 44.7977C49.3904 44.7853 49.3503 44.7742 49.3088 44.7645C48.9189 44.6775 48.5123 44.7017 48.1355 44.8344C47.7586 44.967 47.4266 45.2027 47.1771 45.5148C47.0524 45.674 46.961 45.8566 46.9082 46.0518C46.8555 46.247 46.8424 46.4509 46.8698 46.6512C46.8379 47.7364 47.7308 48.7179 48.8949 48.4507C49.6936 48.268 50.4009 47.6202 50.4895 46.7315C50.5206 46.4385 50.4884 46.1423 50.3951 45.8629C50.3017 45.5834 50.1493 45.3273 49.9483 45.1119C49.92 45.0829 49.8899 45.0557 49.8583 45.0303L49.8556 45.0275Z" fill="#40352C"/>
</g>
<defs>
<filter id="filter0_ddddd_13849_50584" x="0.379761" y="0.156732" width="90.9949" height="111.93" filterUnits="userSpaceOnUse" color-interpolation-filters="sRGB">
<feFlood flood-opacity="0" result="BackgroundImageFix"/>
<feColorMatrix in="SourceAlpha" type="matrix" values="0 0 0 0 0 0 0 0 0 0 0 0 0 0 0 0 0 0 127 0" result="hardAlpha"/>
<feOffset dx="2" dy="0.156915"/>
<feGaussianBlur stdDeviation="10"/>
<feColorMatrix type="matrix" values="0 0 0 0 0 0 0 0 0 0 0 0 0 0 0 0 0 0 0.1 0"/>
<feBlend mode="normal" in2="BackgroundImageFix" result="effect1_dropShadow_13849_50584"/>
<feColorMatrix in="SourceAlpha" type="matrix" values="0 0 0 0 0 0 0 0 0 0 0 0 0 0 0 0 0 0 127 0" result="hardAlpha"/>
<feOffset dx="0.509975" dy="0.66689"/>
<feGaussianBlur stdDeviation="0.411903"/>
<feColorMatrix type="matrix" values="0 0 0 0 0 0 0 0 0 0 0 0 0 0 0 0 0 0 0.09 0"/>
<feBlend mode="normal" in2="effect1_dropShadow_13849_50584" result="effect2_dropShadow_13849_50584"/>
<feColorMatrix in="SourceAlpha" type="matrix" values="0 0 0 0 0 0 0 0 0 0 0 0 0 0 0 0 0 0 127 0" result="hardAlpha"/>
<feOffset dx="1.09841" dy="1.4907"/>
<feGaussianBlur stdDeviation="0.549204"/>
<feColorMatrix type="matrix" values="0 0 0 0 0 0 0 0 0 0 0 0 0 0 0 0 0 0 0.05 0"/>
<feBlend mode="normal" in2="effect2_dropShadow_13849_50584" result="effect3_dropShadow_13849_50584"/>
<feColorMatrix in="SourceAlpha" type="matrix" values="0 0 0 0 0 0 0 0 0 0 0 0 0 0 0 0 0 0 127 0" result="hardAlpha"/>
<feOffset dx="1.96144" dy="2.62833"/>
<feGaussianBlur stdDeviation="2.5"/>
<feColorMatrix type="matrix" values="0 0 0 0 0 0 0 0 0 0 0 0 0 0 0 0 0 0 0.05 0"/>
<feBlend mode="normal" in2="effect3_dropShadow_13849_50584" result="effect4_dropShadow_13849_50584"/>
<feColorMatrix in="SourceAlpha" type="matrix" values="0 0 0 0 0 0 0 0 0 0 0 0 0 0 0 0 0 0 127 0" result="hardAlpha"/>
<feOffset dx="3.05985" dy="4.11903"/>
<feGaussianBlur stdDeviation="2.5"/>
<feColorMatrix type="matrix" values="0 0 0 0 0 0 0 0 0 0 0 0 0 0 0 0 0 0 0.03 0"/>
<feBlend mode="normal" in2="effect4_dropShadow_13849_50584" result="effect5_dropShadow_13849_50584"/>
<feBlend mode="normal" in="SourceGraphic" in2="effect5_dropShadow_13849_50584" result="shape"/>
</filter>
</defs>
</svg>
