<svg width="111" height="103" viewBox="0 0 111 103" fill="none" xmlns="http://www.w3.org/2000/svg">
    <g filter="url(#filter0_ddddd_13838_46361)">
        <path
            d="M49.017 41.3591C48.5829 40.8158 48.0938 40.3189 47.5574 39.8762C46.757 39.0314 45.9644 38.1769 45.1543 37.3398C42.3769 34.4579 39.5955 31.5793 36.8103 28.7038C36.3777 28.1527 35.8871 27.6497 35.3468 27.2036C34.9505 26.7764 34.558 26.3433 34.154 25.9238C33.3517 25.0963 32.8858 25.0963 32.097 25.9431C26.7573 31.6869 23.954 38.4862 23.8129 46.316C23.6814 53.5813 25.9028 60.1138 30.446 65.7996C35.0298 71.5337 40.9611 75.145 48.1432 76.6259C52.7664 77.5724 57.5465 77.4288 62.1046 76.2066C66.6626 74.9845 70.8733 72.7174 74.4029 69.5849C75.0815 68.9837 75.1047 68.425 74.488 67.7696C74.0607 67.3153 73.6141 66.8803 73.1772 66.4356C72.7508 65.8936 72.268 65.3985 71.7369 64.9586C70.6349 63.7503 69.5098 62.5633 68.3305 61.4304C67.7698 60.6687 67.039 60.0655 66.4165 59.3637C67.8993 59.3076 69.3822 59.2632 70.8631 59.0602C75.2993 58.4511 79.5429 56.8565 83.2824 54.3932C84.0867 53.8693 84.2007 53.3048 83.6691 52.516C83.3172 52.0018 82.9441 51.501 82.5826 50.9965C82.2403 50.4029 81.8463 49.8407 81.4052 49.3164C81.3549 49.2294 81.3105 49.1405 81.2544 49.0574L67.7988 29.6937C67.1338 28.7386 66.7084 28.669 65.7553 29.3573C60.3808 33.2393 55.007 37.1207 49.6337 41.0014C49.4404 41.1406 49.2799 41.3378 49.017 41.3591Z"
            fill="white" stroke="white" stroke-width="10.0121" stroke-miterlimit="10" />
        <path
            d="M73.2274 37.511L67.7988 29.6948C67.1337 28.7398 66.7084 28.6702 65.7553 29.3584C60.3808 33.2404 55.0069 37.1218 49.6337 41.0025C49.4404 41.1417 49.2799 41.3389 49.017 41.3602C48.2437 42.1335 47.308 42.6922 46.4631 43.3689C49.899 48.3589 55.0502 51.9109 60.9356 53.3485C66.981 54.8158 72.7422 54.0386 78.2617 51.2373C79.3578 50.6805 80.367 49.9787 81.3975 49.3156C81.3472 49.2286 81.3027 49.1397 81.2467 49.0566L76.5604 42.3114M61.4634 45.2789C61.2372 45.8106 61.2024 46.4293 60.8661 46.9512C60.2957 47.8328 59.0855 48.2639 58.2387 47.8695C57.2624 47.4172 56.6921 46.1915 57.1 45.1765C57.6038 43.8434 58.5946 42.751 59.8723 42.12C60.5935 41.7681 61.1251 42.033 61.3629 42.7986C61.6162 43.6067 61.5021 44.4302 61.4634 45.2789ZM82.4917 39.831C82.5052 40.8614 81.4361 41.857 80.4076 41.8764C79.3211 41.8938 78.3951 40.9658 78.3081 39.7304C78.263 39.2693 78.2818 38.8041 78.3641 38.3482C78.5903 37.5613 78.7353 36.7455 79.2554 36.0707C79.7754 35.396 80.3689 35.3458 80.9315 35.9548C82.4769 37.3079 83.4215 39.2195 83.5575 41.269C83.6934 43.3186 83.0096 45.3382 81.6565 46.8836C80.3034 48.429 78.3918 49.3735 76.3423 49.5095C74.2927 49.6454 72.2731 48.9617 70.7277 47.6086L82.4917 39.831Z"
            fill="#FED33D" />
        <path
            d="M76.5604 42.3114L81.2467 49.0566C81.3027 49.1397 81.3472 49.2286 81.3975 49.3156C80.367 49.9787 79.3578 50.6805 78.2617 51.2373C72.7422 54.0386 66.981 54.8158 60.9356 53.3485C55.0502 51.9109 49.899 48.3589 46.4631 43.3689C47.308 42.6922 48.2437 42.1335 49.017 41.3602C49.2799 41.3389 49.4404 41.1417 49.6337 41.0025C55.0069 37.1218 60.3808 33.2404 65.7553 29.3584C66.7084 28.6702 67.1337 28.7398 67.7988 29.6948L73.2274 37.511L61.4634 45.2789M61.4634 45.2789C61.2372 45.8106 61.2024 46.4292 60.8661 46.9512C60.2957 47.8328 59.0855 48.2639 58.2387 47.8695C57.2624 47.4172 56.6921 46.1915 57.1 45.1765C57.6038 43.8434 58.5946 42.751 59.8723 42.12C60.5935 41.7681 61.1251 42.033 61.3629 42.7986C61.6162 43.6067 61.5021 44.4302 61.4634 45.2789ZM82.4917 39.831C82.5052 40.8614 81.4361 41.857 80.4076 41.8764C79.3211 41.8938 78.3951 40.9658 78.3081 39.7304C78.263 39.2693 78.2818 38.8041 78.3641 38.3482C78.5903 37.5613 78.7353 36.7455 79.2554 36.0707C79.7754 35.396 80.3689 35.3458 80.9315 35.9548C82.4769 37.3079 83.4215 39.2195 83.5575 41.269C83.6934 43.3186 83.0096 45.3382 81.6565 46.8836C80.3034 48.429 78.3918 49.3735 76.3423 49.5095C74.2927 49.6454 72.2731 48.9617 70.7277 47.6086L82.4917 39.831Z"
            stroke="#1D1D1B" stroke-width="1.77993" stroke-miterlimit="10" stroke-linecap="round" />
        <path
            d="M73.1771 66.4458C73.614 66.8885 74.0606 67.3254 74.4879 67.7798C75.1046 68.4409 75.0814 68.9939 74.4028 69.5951C70.8733 72.7275 66.6625 74.9947 62.1045 76.2168C57.5464 77.439 52.7663 77.5825 48.1431 76.6361C40.961 75.1456 35.0297 71.5342 30.4459 65.8098C25.9027 60.124 23.6794 53.5915 23.8128 46.3262C23.9539 38.4964 26.761 31.6971 32.0988 25.9533C32.8876 25.1065 33.3535 25.1065 34.1558 25.934C34.5599 26.3535 34.9523 26.7866 35.3487 27.2138C35.1979 27.3472 35.0393 27.4709 34.9021 27.6159C29.9181 32.8358 27.2985 39.0513 27.198 46.2759C27.1032 53.1642 29.3052 59.2811 33.8291 64.4487C39.1495 70.5347 45.9218 73.7285 54.0319 73.8677C61.3976 73.9933 67.7678 71.4298 73.1771 66.4458Z"
            fill="#008D36" stroke="#1D1D1B" stroke-width="1.77993" stroke-miterlimit="10"
            stroke-linecap="round" />
        <path
            d="M73.1772 66.4462C67.764 71.4302 61.3977 73.986 54.0377 73.8662C45.918 73.727 39.1515 70.5332 33.835 64.4472C29.3111 59.2719 27.1091 53.155 27.2039 46.2744C27.3044 39.0498 29.924 32.8382 34.908 27.6144C35.0452 27.4694 35.2038 27.3457 35.3546 27.2123C35.8948 27.6584 36.3855 28.1614 36.818 28.7125C34.8538 30.4873 33.3594 32.6178 32.1028 34.928C30.5365 37.8194 29.5804 41.0015 29.2937 44.2773C28.793 49.6905 29.8737 54.7944 32.6615 59.4981C35.3397 64.0878 39.4139 67.7021 44.2902 69.814C45.9466 70.5324 47.677 71.0666 49.4501 71.407C54.7898 72.4684 59.9188 71.8343 64.866 69.611C67.4238 68.4627 69.6702 66.8484 71.7369 64.9712C72.2679 65.4104 72.7507 65.9049 73.1772 66.4462Z"
            fill="#FCE086" stroke="#1D1D1B" stroke-width="1.55744" stroke-miterlimit="10"
            stroke-linecap="round" />
        <path
            d="M83.6614 52.5149C83.3095 52.0006 82.9364 51.4999 82.5749 50.9953C78.4087 54.0325 73.7553 55.8034 68.6089 56.0914C59.6752 56.5921 52.2727 53.3616 46.3627 46.6783C45.7587 46.0276 45.2253 45.3148 44.7716 44.5517C44.2283 44.9384 43.6773 45.2999 43.1438 45.6943C42.4903 46.1795 42.3994 46.7614 42.9002 47.4149C44.3688 49.3567 46.0648 51.1156 47.9518 52.6541C50.7966 54.9664 54.0424 56.7358 57.5273 57.8739C60.408 58.7831 63.4009 59.288 66.4204 59.3741C67.9032 59.3181 69.3861 59.2736 70.867 59.0706C75.3027 58.4581 79.5449 56.8601 83.2825 54.394C84.0867 53.8682 84.2008 53.3036 83.6614 52.5149Z"
            fill="#008D36" stroke="#1D1D1B" stroke-width="1.55744" stroke-miterlimit="10"
            stroke-linecap="round" />
        <path
            d="M81.3974 49.3149C80.367 49.978 79.3578 50.6798 78.2616 51.2365C72.7421 54.0379 66.981 54.815 60.9356 53.3477C55.051 51.9116 49.9 48.3617 46.4631 43.3739C45.866 43.7214 45.3 44.1199 44.7715 44.5648C45.2252 45.3279 45.7586 46.0407 46.3626 46.6914C52.2726 53.3747 59.6751 56.6052 68.6088 56.1045C73.7552 55.8165 78.4086 54.0456 82.5748 51.0084C82.2332 50.4102 81.8392 49.8434 81.3974 49.3149Z"
            fill="#FCE086" stroke="#1D1D1B" stroke-width="1.77993" stroke-miterlimit="10"
            stroke-linecap="round" />
        <path
            d="M68.3226 61.4411C67.762 60.6794 67.0312 60.0762 66.4087 59.3744C63.3892 59.2883 60.3963 58.7834 57.5156 57.8742C54.0307 56.7361 50.7849 54.9667 47.9401 52.6544C46.0531 51.1159 44.3571 49.357 42.8884 47.4152C42.3877 46.7617 42.4786 46.1798 43.132 45.6946C43.6656 45.3079 44.2166 44.9329 44.7598 44.552C45.2884 44.1071 45.8544 43.7086 46.4515 43.3611C47.2963 42.6845 48.2301 42.118 49.0053 41.3524C48.5712 40.8091 48.0821 40.3122 47.5457 39.8696C46.7453 39.0248 45.9527 38.1703 45.1426 37.3331C42.3729 34.4564 39.5954 31.5804 36.8102 28.7049C34.846 30.4797 33.3516 32.6101 32.0949 34.9204C30.5286 37.8118 29.5725 40.9939 29.2859 44.2697C28.7852 49.6829 29.8659 54.7868 32.6537 59.4904C35.3318 64.0802 39.4061 67.6945 44.2823 69.8064C45.9409 70.528 47.6739 71.0648 49.45 71.4072C54.7897 72.4685 59.9187 71.8344 64.8659 69.6111C67.4237 68.4628 69.6701 66.8485 71.7368 64.9713C70.6426 63.7611 69.5097 62.574 68.3226 61.4411ZM34.2757 42.4544C33.9374 41.7449 33.9142 41.0083 34.4439 40.3549C35.0239 39.6337 35.8223 39.3147 36.6981 39.5525C37.9585 39.8669 39.0688 40.6133 39.8358 41.6618C40.4332 42.4853 40.2379 43.133 39.2771 43.4926C38.3052 43.8236 37.2666 43.91 36.2534 43.7439C35.368 43.655 34.6623 43.2625 34.2757 42.4544ZM39.8319 51.1232C39.3839 51.7693 38.8017 52.3111 38.125 52.7115C37.4484 53.1119 36.6932 53.3615 35.9112 53.4431C35.0819 53.5475 34.1307 52.7414 33.9103 51.8965C33.7842 51.4382 33.8166 50.9508 34.0022 50.5132C34.1878 50.0756 34.5158 49.7135 34.933 49.4857C35.9557 48.9715 37.0422 49.1145 38.119 49.2015C38.5993 49.2685 39.0602 49.4351 39.4723 49.6906C40.0426 50.0386 40.2089 50.5896 39.8319 51.1232ZM43.7217 58.8563C43.3776 59.7688 42.9348 60.6156 42.2273 61.2981C41.8907 61.6351 41.4546 61.8547 40.9834 61.9244C40.5122 61.994 40.0312 61.91 39.6115 61.6847C38.873 61.2981 38.5115 60.4687 38.6816 59.475C38.6979 59.1663 38.8139 58.8712 39.0122 58.634C40.0891 57.474 41.4037 56.751 43.016 56.7007C43.4897 56.6852 43.7893 56.9888 43.8995 57.4586C43.9817 57.933 43.9197 58.4213 43.7217 58.8602V58.8563ZM48.3461 66.9007C48.0857 66.8106 47.8458 66.6699 47.6399 66.4868C47.4341 66.3037 47.2664 66.0818 47.1466 65.8337C47.0268 65.5856 46.9572 65.3163 46.9417 65.0412C46.9263 64.7662 46.9653 64.4908 47.0566 64.2308C47.4684 62.9955 48.1295 61.9399 49.2064 61.182C49.943 60.6659 50.5307 60.8418 50.9038 61.6654C51.3717 62.6939 51.3079 63.7804 51.2402 64.8939C50.8903 66.8485 49.4558 67.2912 48.3461 66.9046V66.9007ZM58.5422 67.1694C57.5755 67.0244 57.0555 66.5082 56.8022 65.7214C56.4001 64.4628 56.5606 63.1985 56.955 61.9824C57.2991 60.9114 58.1149 60.7219 58.9636 61.4778C59.9343 62.3133 60.6011 63.4464 60.8602 64.7006C61.1579 66.2066 59.9322 67.4169 58.5422 67.1733V67.1694Z"
            fill="#FED33D" stroke="#1D1D1B" stroke-width="1.77993" stroke-miterlimit="10"
            stroke-linecap="round" />
        <path
            d="M38.1191 49.2062C38.5993 49.2732 39.0603 49.4398 39.4724 49.6953C40.0524 50.0375 40.2109 50.5885 39.8339 51.1221C39.3859 51.7682 38.8037 52.31 38.127 52.7104C37.4503 53.1108 36.6952 53.3603 35.9132 53.442C35.0838 53.5464 34.1327 52.7402 33.9123 51.8954C33.7862 51.4371 33.8185 50.9496 34.0042 50.5121C34.1898 50.0745 34.5178 49.7124 34.935 49.4846C35.9557 48.98 37.0422 49.1192 38.1191 49.2062Z"
            fill="#FED33D" stroke="#1D1D1B" stroke-width="1.55744" stroke-miterlimit="10"
            stroke-linecap="round" />
        <path
            d="M51.2382 64.8936C50.8902 66.8482 49.4557 67.2909 48.3383 66.9042C48.0782 66.8134 47.8386 66.672 47.6333 66.4883C47.4279 66.3046 47.2609 66.0821 47.1418 65.8337C47.0227 65.5853 46.9539 65.3157 46.9392 65.0406C46.9246 64.7655 46.9644 64.4902 47.0565 64.2305C47.4683 62.9952 48.1295 61.9396 49.2063 61.1817C49.9429 60.6656 50.5306 60.8415 50.9037 61.6651C51.3696 62.6936 51.3097 63.7801 51.2382 64.8936Z"
            fill="#FED33D" stroke="#1D1D1B" stroke-width="1.55744" stroke-miterlimit="10"
            stroke-linecap="round" />
        <path
            d="M58.5421 67.1721C57.5755 67.0271 57.0554 66.5109 56.8022 65.7241C56.4001 64.4655 56.5605 63.2011 56.9549 61.9851C57.299 60.9141 58.1149 60.7246 58.9636 61.4805C59.9342 62.3159 60.6011 63.4491 60.8601 64.7033C61.1579 66.2055 59.9322 67.4157 58.5421 67.1721Z"
            fill="#FED33D" stroke="#1D1D1B" stroke-width="1.55744" stroke-miterlimit="10"
            stroke-linecap="round" />
        <path
            d="M36.2534 43.743C35.368 43.6541 34.6623 43.2616 34.2757 42.4535C33.9374 41.744 33.9142 41.0074 34.4439 40.354C35.0239 39.6329 35.8223 39.3139 36.6981 39.5517C37.9585 39.866 39.0688 40.6124 39.8358 41.6609C40.4332 42.4845 40.2379 43.1321 39.2771 43.4917C38.3052 43.8228 37.2666 43.9091 36.2534 43.743Z"
            fill="#FED33D" stroke="#1D1D1B" stroke-width="1.55744" stroke-miterlimit="10"
            stroke-linecap="round" />
        <path
            d="M38.6816 59.4702C38.6979 59.1615 38.8139 58.8664 39.0122 58.6292C40.0891 57.4693 41.4037 56.7462 43.016 56.696C43.4897 56.6805 43.7893 56.984 43.8995 57.4538C43.9829 57.9302 43.9209 58.4206 43.7217 58.8612C43.3776 59.7737 42.9348 60.6205 42.2273 61.303C41.8907 61.64 41.4546 61.8596 40.9834 61.9293C40.5122 61.9989 40.0312 61.9149 39.6115 61.6896C38.873 61.2972 38.5115 60.4639 38.6816 59.4702Z"
            fill="#FED33D" stroke="#1D1D1B" stroke-width="1.55744" stroke-miterlimit="10"
            stroke-linecap="round" />
        <path
            d="M61.4633 45.2785C61.2371 45.8101 61.2023 46.4288 60.8659 46.9508C60.2956 47.8324 59.0853 48.2635 58.2386 47.8691C57.2623 47.4167 56.6919 46.191 57.0999 45.176C57.6036 43.8429 58.5944 42.7506 59.8722 42.1195C60.5933 41.7677 61.1249 42.0325 61.3627 42.7981C61.616 43.6062 61.5019 44.4298 61.4633 45.2785Z"
            fill="#FED33D" stroke="#1D1D1B" stroke-width="1.55744" stroke-miterlimit="10"
            stroke-linecap="round" />
        <path
            d="M66.6001 46.1248C66.8263 45.338 66.9713 44.5222 67.4913 43.8474C68.0114 43.1727 68.6049 43.1225 69.1675 43.7314C70.1602 44.7751 70.7181 46.1577 70.7276 47.598C70.7412 48.6284 69.6721 49.6241 68.6436 49.6434C67.5571 49.6608 66.631 48.7328 66.544 47.4975C66.4998 47.0395 66.5187 46.5777 66.6001 46.1248Z"
            fill="#FED33D" stroke="#1D1D1B" stroke-width="1.55744" stroke-miterlimit="10"
            stroke-linecap="round" />
    </g>
    <defs>
        <filter id="filter0_ddddd_13838_46361" x="0.80127" y="0.456445" width="110.201"
            height="101.95" filterUnits="userSpaceOnUse" color-interpolation-filters="sRGB">
            <feFlood flood-opacity="0" result="BackgroundImageFix" />
            <feColorMatrix in="SourceAlpha" type="matrix"
                values="0 0 0 0 0 0 0 0 0 0 0 0 0 0 0 0 0 0 127 0" result="hardAlpha" />
            <feOffset dx="2" dy="0.156915" />
            <feGaussianBlur stdDeviation="10" />
            <feColorMatrix type="matrix" values="0 0 0 0 0 0 0 0 0 0 0 0 0 0 0 0 0 0 0.1 0" />
            <feBlend mode="normal" in2="BackgroundImageFix" result="effect1_dropShadow_13838_46361" />
            <feColorMatrix in="SourceAlpha" type="matrix"
                values="0 0 0 0 0 0 0 0 0 0 0 0 0 0 0 0 0 0 127 0" result="hardAlpha" />
            <feOffset dx="0.509975" dy="0.66689" />
            <feGaussianBlur stdDeviation="0.411903" />
            <feColorMatrix type="matrix" values="0 0 0 0 0 0 0 0 0 0 0 0 0 0 0 0 0 0 0.09 0" />
            <feBlend mode="normal" in2="effect1_dropShadow_13838_46361"
                result="effect2_dropShadow_13838_46361" />
            <feColorMatrix in="SourceAlpha" type="matrix"
                values="0 0 0 0 0 0 0 0 0 0 0 0 0 0 0 0 0 0 127 0" result="hardAlpha" />
            <feOffset dx="1.09841" dy="1.4907" />
            <feGaussianBlur stdDeviation="0.549204" />
            <feColorMatrix type="matrix" values="0 0 0 0 0 0 0 0 0 0 0 0 0 0 0 0 0 0 0.05 0" />
            <feBlend mode="normal" in2="effect2_dropShadow_13838_46361"
                result="effect3_dropShadow_13838_46361" />
            <feColorMatrix in="SourceAlpha" type="matrix"
                values="0 0 0 0 0 0 0 0 0 0 0 0 0 0 0 0 0 0 127 0" result="hardAlpha" />
            <feOffset dx="1.96144" dy="2.62833" />
            <feGaussianBlur stdDeviation="2.5" />
            <feColorMatrix type="matrix" values="0 0 0 0 0 0 0 0 0 0 0 0 0 0 0 0 0 0 0.05 0" />
            <feBlend mode="normal" in2="effect3_dropShadow_13838_46361"
                result="effect4_dropShadow_13838_46361" />
            <feColorMatrix in="SourceAlpha" type="matrix"
                values="0 0 0 0 0 0 0 0 0 0 0 0 0 0 0 0 0 0 127 0" result="hardAlpha" />
            <feOffset dx="3.05985" dy="4.11903" />
            <feGaussianBlur stdDeviation="2.5" />
            <feColorMatrix type="matrix" values="0 0 0 0 0 0 0 0 0 0 0 0 0 0 0 0 0 0 0.03 0" />
            <feBlend mode="normal" in2="effect4_dropShadow_13838_46361"
                result="effect5_dropShadow_13838_46361" />
            <feBlend mode="normal" in="SourceGraphic" in2="effect5_dropShadow_13838_46361"
                result="shape" />
        </filter>
    </defs>
</svg>