<svg width="78" height="77" viewBox="0 0 78 77" fill="none" xmlns="http://www.w3.org/2000/svg">
<g filter="url(#filter0_d_13838_46260)">
<path d="M62.3742 12.71C62.4109 12.7015 62.4486 12.6927 62.4875 12.6837L62.519 12.6763C62.8747 12.5934 63.3568 12.4809 63.797 12.4432C64.0286 12.4234 64.329 12.4157 64.6435 12.4765C64.9615 12.5381 65.3973 12.6909 65.7552 13.0766C66.113 13.4622 66.2329 13.9079 66.2706 14.2297C66.3078 14.5478 66.2778 14.8468 66.2408 15.0763C66.1704 15.5121 66.0224 15.9842 65.9133 16.3325L65.9035 16.3637C65.8917 16.4015 65.8802 16.4381 65.8691 16.4737C65.9063 16.4707 65.9447 16.4677 65.9842 16.4645L66.016 16.4619C66.3801 16.4324 66.8739 16.3925 67.3154 16.4205C67.5476 16.4352 67.8461 16.4722 68.1483 16.5793C68.4543 16.6877 68.8621 16.9038 69.1585 17.338M62.3742 12.71L69.1585 17.338M62.3742 12.71C62.38 12.6729 62.3859 12.6346 62.3921 12.5952L62.3971 12.563C62.4534 12.2023 62.5296 11.7135 62.5346 11.2721C62.5372 11.0398 62.5226 10.7398 62.4387 10.4309C62.3539 10.1185 62.1694 9.69517 61.7582 9.36672C61.3469 9.03819 60.8932 8.95186 60.5698 8.93821C60.2499 8.92471 59.9541 8.97682 59.7281 9.03075C59.2984 9.13325 58.8384 9.31581 58.4988 9.45053L58.4689 9.46241C58.4314 9.47726 58.3951 9.49165 58.3599 9.50557C58.3601 9.46771 58.3603 9.42869 58.3605 9.38843L58.3606 9.35589C58.3626 8.99071 58.3652 8.49599 58.3045 8.05884C58.2726 7.82879 58.2136 7.5343 58.0847 7.24135C57.9544 6.94516 57.7089 6.55353 57.2528 6.2899C56.7969 6.02643 56.3353 6.00901 56.0139 6.04375C55.6959 6.07813 55.4113 6.17367 55.196 6.26062C54.7866 6.42588 54.3589 6.67473 54.0432 6.85846L54.0152 6.8747C53.9799 6.89524 53.9457 6.91514 53.9125 6.9344C53.9069 6.89644 53.9011 6.85728 53.8952 6.81688L53.8905 6.78436C53.8377 6.42302 53.7663 5.93381 53.6411 5.51105C53.5751 5.28853 53.4729 5.00635 53.302 4.73611C53.1292 4.46303 52.828 4.11203 52.3373 3.91938C51.8464 3.7267 51.3869 3.77908 51.0743 3.86191C50.765 3.94384 50.4982 4.08129 50.2986 4.1996C49.9205 4.42385 49.5364 4.73317 49.2527 4.96169L49.2253 4.98372C49.1938 5.00911 49.1632 5.03371 49.1335 5.05753C49.1224 5.02115 49.111 4.98362 49.0992 4.9449L49.0907 4.9168C48.9843 4.56665 48.8398 4.09117 48.6508 3.68944C48.5515 3.47858 48.4072 3.21452 48.1964 2.97274C47.983 2.72795 47.6326 2.42879 47.1209 2.31234L47.1201 2.31215C46.6055 2.19533 46.1588 2.31659 45.8626 2.44547C45.5694 2.57299 45.3264 2.74896 45.1471 2.89583C44.8077 3.1739 44.4749 3.53681 44.2288 3.80508L44.2043 3.83178C44.1772 3.86132 44.151 3.88996 44.1254 3.91771C44.1092 3.88389 44.0926 3.84902 44.0755 3.81305L44.0632 3.78737C43.9057 3.45683 43.6916 3.00761 43.444 2.638C43.3142 2.44414 43.1318 2.20452 42.8869 1.99692C42.6388 1.78663 42.2478 1.5439 41.7252 1.50515L41.7247 1.50511C41.1979 1.46623 40.7742 1.65325 40.5009 1.82477C40.2303 1.99455 40.0164 2.20471 39.8612 2.3765C39.5678 2.70127 39.2932 3.10878 39.09 3.41027L39.0689 3.44166C39.045 3.47697 39.022 3.51113 38.9996 3.54418C38.9773 3.51112 38.9542 3.47693 38.9304 3.4416L38.9091 3.41011C38.706 3.10864 38.4314 2.70124 38.1381 2.37655C37.9829 2.20479 37.7691 1.99465 37.4986 1.82486C37.2253 1.65336 36.8016 1.4662 36.2747 1.50512L36.2741 1.50516C35.7513 1.54396 35.3603 1.78696 35.1124 1.99719C34.8677 2.20476 34.6854 2.44433 34.5556 2.63812C34.3083 3.00753 34.0942 3.45655 33.9366 3.78703L33.9243 3.8129C33.9071 3.84903 33.8904 3.88406 33.8741 3.91802C33.8485 3.89019 33.8221 3.86146 33.795 3.83183L33.7704 3.805C33.5244 3.53677 33.1917 3.17392 32.8523 2.89588C32.673 2.74901 32.43 2.57302 32.1369 2.44549C31.8406 2.31659 31.3939 2.19533 30.8793 2.31215L30.8787 2.3123C30.3671 2.42868 30.0166 2.72767 29.8031 2.9725C29.5922 3.21428 29.4478 3.47835 29.3485 3.68926C29.1593 4.09122 29.0147 4.56694 28.9083 4.91719L28.8999 4.9449C28.8883 4.98308 28.877 5.0201 28.8661 5.056C28.8372 5.03279 28.8075 5.00885 28.7769 4.98416L28.751 4.96323C28.4672 4.73423 28.0821 4.42352 27.7021 4.19842C27.5018 4.07979 27.2341 3.94225 26.9238 3.86061C26.6094 3.77791 26.1507 3.72731 25.6614 3.9195L26.2039 5.30055L25.6614 3.9195C25.1724 4.11159 24.8708 4.46061 24.6967 4.73495C24.5249 5.00585 24.4222 5.2887 24.3561 5.51189C24.2305 5.93586 24.1596 6.426 24.1074 6.78717L24.1028 6.81914C24.097 6.85867 24.0915 6.89699 24.086 6.93416C24.0534 6.91518 24.0197 6.89557 23.985 6.87534L23.9569 6.85893C23.6417 6.67508 23.2141 6.4257 22.8045 6.26018C22.5888 6.17303 22.3037 6.07732 21.9849 6.04312C21.6622 6.00851 21.2011 6.02696 20.7461 6.29019C20.2911 6.55345 20.0452 6.94398 19.9144 7.24095C19.7851 7.53432 19.726 7.82918 19.694 8.05961C19.6332 8.49738 19.6362 8.99247 19.6385 9.35747L19.6387 9.38985C19.6389 9.42965 19.6391 9.46825 19.6393 9.5057C19.6044 9.49187 19.5684 9.47759 19.5312 9.46285L19.501 9.45085C19.1618 9.31605 18.7019 9.13327 18.2722 9.03065C18.046 8.97663 17.75 8.92448 17.4299 8.93804C17.106 8.95176 16.6529 9.03834 16.242 9.36604C15.8309 9.69396 15.6458 10.1168 15.5605 10.4298C15.4762 10.739 15.4614 11.0394 15.464 11.272C15.4688 11.7141 15.5453 12.2035 15.6017 12.5643L15.6066 12.5959C15.6127 12.635 15.6186 12.673 15.6243 12.7098C15.5879 12.7014 15.5504 12.6927 15.5117 12.6836L15.48 12.6763C15.1245 12.5933 14.6426 12.4809 14.2026 12.4431C13.971 12.4232 13.6707 12.4155 13.3563 12.4762C13.0383 12.5376 12.6026 12.6903 12.2445 13.0758C11.8867 13.4612 11.7666 13.9069 11.7288 14.2284C11.6914 14.5464 11.7212 14.8453 11.7581 15.0748C11.8282 15.5114 11.9761 15.9841 12.0852 16.3329L12.0946 16.3628C12.1065 16.4011 12.1181 16.4383 12.1294 16.4743C12.0921 16.4714 12.0537 16.4683 12.0141 16.4651L11.9815 16.4625C11.6174 16.4333 11.1241 16.3936 10.6836 16.4215C10.4518 16.4361 10.1536 16.473 9.85181 16.5796C9.54667 16.6873 9.13751 16.903 8.84048 17.3386C8.54401 17.7733 8.49217 18.2321 8.5028 18.5552C8.51332 18.8748 8.58732 19.1657 8.65792 19.3869C8.79216 19.8076 9.00841 20.2526 9.16804 20.5812L9.18201 20.6099C9.19973 20.6464 9.2169 20.6818 9.23352 20.7161C9.19578 20.7188 9.15687 20.7216 9.11674 20.7244L9.08364 20.7267C8.71935 20.7521 8.22623 20.7866 7.79533 20.8796C7.56846 20.9285 7.27944 21.0092 6.99713 21.1592C6.71193 21.3107 6.33915 21.5843 6.10982 22.059C5.88043 22.5338 5.89782 22.9961 5.95652 23.3138C6.01463 23.6283 6.13124 23.9049 6.23403 24.113C6.42957 24.509 6.70991 24.9172 6.91693 25.2185L6.93486 25.2446C6.95733 25.2774 6.97913 25.3091 7.00025 25.34C6.96397 25.3481 6.92657 25.3565 6.88802 25.3651L6.85965 25.3715C6.50234 25.4513 6.01723 25.5597 5.60236 25.718C5.38469 25.801 5.11058 25.925 4.85368 26.1169C4.59371 26.3112 4.26887 26.638 4.11421 27.1396L62.3742 12.71ZM69.1585 17.338C69.4548 17.7721 69.5076 18.2304 69.4972 18.5548C69.4869 18.8752 69.4128 19.1666 69.3419 19.3883C69.2074 19.8093 68.9906 20.2544 68.8308 20.5825L68.8166 20.6116C68.7992 20.6473 68.7824 20.682 68.766 20.7156C68.8033 20.7182 68.8417 20.7208 68.8813 20.7236L68.9137 20.7258C69.2778 20.7508 69.7719 20.7847 70.2039 20.878C70.4314 20.9271 70.7211 21.0082 71.0041 21.1591C71.2906 21.3118 71.6617 21.5863 71.8901 22.06C72.1184 22.5335 72.1022 22.9947 72.0434 23.314C71.9853 23.6294 71.8684 23.9065 71.7652 24.115C71.5694 24.5109 71.2886 24.9183 71.0817 25.2187L71.063 25.2458C71.0402 25.2788 71.0182 25.3108 70.9969 25.3418C71.0338 25.3501 71.0718 25.3586 71.111 25.3673L71.1425 25.3743C71.4988 25.4535 71.9824 25.561 72.3958 25.7182C72.6135 25.8009 72.8879 25.9246 73.1452 26.1165C73.4058 26.3108 73.731 26.6379 73.8857 27.1399L73.8859 27.1404C74.041 27.6446 73.9539 28.099 73.8477 28.4044C73.7426 28.7065 73.5854 28.9621 73.4523 29.1521C73.2003 29.5118 72.8631 29.8712 72.614 30.1367L72.5895 30.1628C72.5621 30.192 72.5355 30.2204 72.5097 30.248C72.5449 30.2617 72.5813 30.2759 72.6188 30.2904L72.6455 30.3008C72.9869 30.4333 73.4507 30.6133 73.8375 30.8323C74.0404 30.9472 74.2929 31.1111 74.5182 31.3395C74.7462 31.5708 75.018 31.9427 75.0957 32.4614L75.0959 32.4625C75.1737 32.9845 75.0192 33.4208 74.8683 33.7066C74.7191 33.9894 74.5253 34.2184 74.3653 34.3861C74.0627 34.7034 73.6761 35.0077 73.3903 35.2327L73.3612 35.2555C73.3306 35.2796 73.3009 35.303 73.2721 35.3257C73.3045 35.3442 73.3378 35.3633 73.3721 35.3829L73.3958 35.3964C73.7142 35.5783 74.1469 35.8256 74.4977 36.1004C74.6815 36.2444 74.9069 36.4442 75.0957 36.7038C75.287 36.9669 75.4999 37.3747 75.4999 37.8985C75.4999 38.4223 75.287 38.8301 75.0958 39.0931C74.907 39.3528 74.6817 39.5526 74.4979 39.6966C74.147 39.9716 73.7141 40.219 73.3956 40.401L73.3723 40.4143C73.3378 40.434 73.3044 40.4531 73.2719 40.4717L69.1585 17.338ZM5.48977 30.2479C5.45452 30.2616 5.41816 30.2757 5.38066 30.2903L5.35415 30.3006C5.0127 30.4331 4.5488 30.6131 4.16185 30.8323C3.95892 30.9472 3.70638 31.1111 3.48111 31.3398C3.25308 31.5712 2.98163 31.9431 2.90404 32.4615L5.48977 30.2479ZM5.48977 30.2479C5.46397 30.2203 5.43734 30.1918 5.40985 30.1625L5.3855 30.1366C5.13634 29.871 4.79913 29.5116 4.54716 29.1518C4.41416 28.9618 4.25692 28.7061 4.15187 28.404C4.04569 28.0986 3.9587 27.6441 4.1141 27.1399L5.48977 30.2479ZM3.13113 42.0912C2.98033 42.3771 2.82597 42.8135 2.90397 43.3354L2.90394 32.4622C2.82594 32.9843 2.98062 33.4207 3.13136 33.7063C3.28059 33.989 3.47438 34.218 3.63424 34.3856C3.93661 34.7026 4.32298 35.0068 4.60871 35.2318L4.63801 35.2549C4.66871 35.2791 4.69849 35.3026 4.72737 35.3254C4.69498 35.3439 4.66158 35.363 4.62714 35.3827L4.60381 35.396C4.28533 35.578 3.85241 35.8254 3.50149 36.1004C3.31773 36.2444 3.09237 36.4442 2.90359 36.7039C2.71238 36.9669 2.49951 37.3748 2.49951 37.8985C2.49951 38.4225 2.7126 38.8304 2.90388 39.0934C3.09274 39.3531 3.31818 39.5528 3.50199 39.6968C3.8529 39.9717 4.28583 40.219 4.60432 40.4009L4.62789 40.4144C4.6621 40.434 4.69527 40.4529 4.72745 40.4714C4.69856 40.4942 4.66878 40.5177 4.63807 40.5418L4.60909 40.5647C4.32327 40.7897 3.93663 41.0941 3.63404 41.4115C3.47411 41.5792 3.28032 41.8083 3.13113 42.0912Z" fill="#F8DCD8" stroke="white" stroke-width="3"/>
<path d="M69.9049 42.5549L69.9049 42.5547C69.905 42.5545 69.9051 42.5533 69.905 42.5507C69.9049 42.5481 69.9044 42.5436 69.9029 42.537C69.8998 42.5233 69.8926 42.5019 69.8768 42.472C69.8441 42.41 69.7854 42.3317 69.6949 42.2368C69.5124 42.0454 69.2534 41.8397 68.9665 41.6137L68.9429 41.5951C68.6735 41.3829 68.3812 41.1526 68.1595 40.9257C68.0446 40.8081 67.9367 40.6795 67.8585 40.5424C67.7806 40.4059 67.7198 40.2391 67.7333 40.0543C67.7333 40.054 67.7333 40.0537 67.7333 40.0534L68.0709 40.0784C68.0972 39.7092 68.7079 39.3601 69.321 39.0096C69.9526 38.6485 70.5868 38.2859 70.5868 37.8986C70.5868 37.511 69.9518 37.1482 69.3194 36.7869C68.7064 36.4367 68.0958 36.0879 68.0682 35.7192L69.9049 42.5549ZM69.9049 42.5549C69.9048 42.5555 69.9012 42.5803 69.8523 42.63C69.8026 42.6804 69.7235 42.7386 69.6093 42.8033C69.379 42.9338 69.0712 43.0552 68.731 43.1873L68.6918 43.2025C68.3755 43.3252 68.0336 43.4578 67.7591 43.6068C67.615 43.6849 67.4743 43.7754 67.3595 43.8825C67.2452 43.9892 67.1373 44.1304 67.0961 44.3113L67.0961 44.3114M69.9049 42.5549L67.0961 44.3114M10.2742 35.7437C10.2608 35.9288 10.1753 36.0845 10.0782 36.2069C9.98073 36.3298 9.85515 36.44 9.72447 36.5385C9.47588 36.7259 9.15837 36.9072 8.86449 37.0751L8.82636 37.0969C8.50969 37.2778 8.22347 37.4437 8.01505 37.6071C7.91175 37.6881 7.84213 37.7575 7.80045 37.8149C7.75933 37.8716 7.75915 37.8971 7.75915 37.8986C7.75915 37.9001 7.75936 37.9257 7.80044 37.9823C7.8421 38.0397 7.91167 38.1091 8.01491 38.1901C8.2232 38.3535 8.50927 38.5194 8.82583 38.7004L8.86427 38.7223C9.15798 38.8902 9.47526 39.0715 9.7238 39.2588C9.85451 39.3573 9.9801 39.4675 10.0776 39.5904C10.1748 39.7128 10.2604 39.8684 10.2741 40.0534C10.2878 40.2386 10.2269 40.4057 10.1489 40.5424C10.0707 40.6795 9.96277 40.8081 9.84784 40.9258C9.62616 41.1527 9.33372 41.383 9.06425 41.5952L9.04078 41.6137C8.75379 41.8397 8.49479 42.0455 8.31221 42.2369C8.22169 42.3318 8.163 42.41 8.13026 42.472C8.11448 42.5019 8.10725 42.5233 8.10415 42.537C8.10264 42.5436 8.10218 42.5481 8.10206 42.5507C8.10194 42.5532 8.10208 42.5544 8.10213 42.5547C8.10213 42.5547 8.10213 42.5547 8.10214 42.5547L10.2742 35.7437ZM10.2742 35.7437C10.2742 35.7438 10.2741 35.744 10.2741 35.7441L9.93656 35.7192L10.2742 35.7434C10.2742 35.7435 10.2742 35.7436 10.2742 35.7437ZM67.0961 44.3114C67.055 44.4924 67.0904 44.6667 67.1471 44.8134C67.204 44.9605 67.2915 45.1036 67.3876 45.2371C67.5724 45.4939 67.8265 45.7647 68.0607 46.0144L68.0825 46.0377C68.3324 46.3041 68.5576 46.5463 68.7094 46.763C68.7846 46.8704 68.8309 46.9566 68.854 47.0229C68.8651 47.0549 68.8691 47.0772 68.8701 47.0913C68.871 47.1046 68.8694 47.1096 68.8693 47.1096C68.8686 47.1117 68.86 47.1352 68.8063 47.1753C68.7497 47.2176 68.6628 47.2631 68.5401 47.3099C68.2927 47.4042 67.9702 47.478 67.6139 47.5576L67.5748 47.5663C67.2431 47.6403 66.8844 47.7203 66.5899 47.8268C66.4358 47.8825 66.2831 47.951 66.1535 48.0398C66.0243 48.1284 65.8966 48.2519 65.8288 48.4246C65.761 48.5973 65.7705 48.7747 65.8048 48.9275C65.8393 49.0808 65.9044 49.235 65.9794 49.381C66.1229 49.6604 66.3317 49.9644 66.5247 50.2453L66.546 50.2762C66.7528 50.5772 66.9388 50.851 67.056 51.0884C67.1142 51.2061 67.1469 51.2986 67.1597 51.3678C67.1658 51.4012 67.1663 51.4241 67.1652 51.4384C67.1641 51.4518 67.1617 51.4567 67.1615 51.4569C67.1614 51.4572 67.1591 51.4621 67.1492 51.4714C67.1387 51.4812 67.1204 51.495 67.0904 51.511C67.0281 51.5441 66.9353 51.576 66.8069 51.6038C66.5481 51.6597 66.2179 51.6845 65.8536 51.71L65.8176 51.7125C65.4773 51.7363 65.1087 51.7621 64.8002 51.8239C64.6393 51.8562 64.478 51.9013 64.3365 51.97C64.1955 52.0384 64.0509 52.1416 63.958 52.3022C63.8652 52.4628 63.8478 52.6396 63.8589 52.7959C63.8699 52.9528 63.9113 53.115 63.9636 53.2705C64.0637 53.5684 64.2249 53.9002 64.3739 54.2067L64.3901 54.2399C64.5496 54.5683 64.6927 54.8666 64.7731 55.1188C64.813 55.2439 64.8315 55.3402 64.8338 55.4107C64.8349 55.4447 64.832 55.4675 64.8287 55.4815C64.8256 55.4948 64.8224 55.4994 64.8222 55.4998C64.8219 55.5002 64.8188 55.5048 64.8076 55.5125C64.7958 55.5206 64.7757 55.5316 64.7436 55.5429C64.6772 55.5664 64.5808 55.5842 64.4498 55.5925C64.1856 55.6092 63.8556 55.5844 63.4916 55.5551L63.4552 55.5522C63.1153 55.5249 62.7472 55.4953 62.433 55.5104C62.2691 55.5183 62.1029 55.5388 61.9527 55.5856C61.803 55.6323 61.6445 55.7129 61.5288 55.858C61.413 56.003 61.3695 56.1753 61.3572 56.3316C61.3447 56.4884 61.3615 56.6551 61.3901 56.8166C61.4449 57.1263 61.5551 57.4785 61.657 57.8038L61.6679 57.8388C61.7769 58.1872 61.8741 58.5034 61.9162 58.7647C61.9371 58.8943 61.9411 58.9923 61.9329 59.0623C61.9289 59.096 61.9227 59.1181 61.9173 59.1315C61.9123 59.1441 61.9085 59.1482 61.9081 59.1486C61.9078 59.1489 61.904 59.1531 61.8918 59.159C61.8788 59.1654 61.8572 59.1732 61.8239 59.1797C61.7547 59.193 61.6567 59.1963 61.5259 59.185C61.2622 59.1624 60.9396 59.0889 60.584 59.006L60.5491 58.9979C60.2169 58.9204 59.857 58.8365 59.5438 58.8049C59.3805 58.7884 59.213 58.7841 59.0575 58.8082C58.9024 58.8323 58.7338 58.8886 58.5978 59.0149C58.4618 59.1411 58.3931 59.3051 58.3576 59.4579C58.3221 59.6113 58.3139 59.7786 58.3183 59.9426C58.3266 60.257 58.3836 60.6216 58.4361 60.9583L58.4418 60.9946C58.4981 61.3553 58.5475 61.6823 58.5504 61.9469C58.5518 62.0781 58.5413 62.1755 58.5228 62.2435C58.5139 62.2763 58.5044 62.2972 58.4971 62.3097C58.4902 62.3215 58.4857 62.3251 58.4853 62.3255C58.485 62.3257 58.4836 62.3268 58.4804 62.3284C58.4776 62.3298 58.4734 62.3316 58.4673 62.3335C58.4535 62.3379 58.431 62.3425 58.397 62.3439C58.3266 62.3469 58.2292 62.3356 58.1016 62.3051C57.8442 62.2436 57.5362 62.123 57.1969 61.9882L57.1634 61.9748C56.8465 61.8489 56.5033 61.7125 56.1983 61.6347C56.0392 61.5942 55.8741 61.5651 55.7167 61.5659C55.5597 61.5667 55.3846 61.5974 55.2313 61.7021C55.078 61.8067 54.9857 61.9586 54.9278 62.1046C54.8698 62.251 54.8369 62.4153 54.8168 62.5782C54.7784 62.8905 54.7806 63.2597 54.7827 63.6005L54.7829 63.6369C54.7851 64.0019 54.7854 64.3326 54.7491 64.5947C54.7311 64.7246 54.7062 64.8194 54.6778 64.8839C54.6641 64.915 54.6516 64.9343 54.6425 64.9456C54.6339 64.9563 54.6289 64.9592 54.6283 64.9595C54.6277 64.9599 54.6228 64.9627 54.6093 64.9649C54.595 64.9671 54.5721 64.9683 54.5384 64.9647C54.4684 64.9572 54.3738 64.9315 54.2522 64.8824C54.007 64.7832 53.7205 64.6181 53.4052 64.4342L53.3739 64.4159C53.0794 64.2441 52.7604 64.058 52.4705 63.9357C52.3192 63.8718 52.1603 63.8184 52.0044 63.7957C51.8489 63.7731 51.6712 63.7774 51.504 63.8581C51.3368 63.9387 51.2228 64.0751 51.1438 64.2108C51.0645 64.347 51.0074 64.5045 50.9632 64.6626C50.8786 64.9655 50.8257 65.3307 50.7769 65.6679L50.7717 65.7043C50.7194 66.0655 50.6703 66.3924 50.5952 66.646C50.558 66.7717 50.5192 66.8617 50.4815 66.9212C50.4442 66.98 50.4211 66.9887 50.421 66.9887C50.421 66.9887 50.3982 66.9981 50.3311 66.9804C50.263 66.9625 50.1734 66.923 50.0606 66.8563C49.833 66.7215 49.5747 66.5154 49.2905 66.2863L49.2623 66.2635C48.997 66.0495 48.7096 65.8177 48.4412 65.6532C48.3011 65.5674 48.152 65.4908 48.0012 65.445C47.8508 65.3993 47.6744 65.377 47.497 65.4316L47.4968 65.4317M67.0961 44.3114L47.4968 65.4317M47.4968 65.4317C47.3195 65.4864 47.1868 65.6044 47.0889 65.7265C46.9906 65.849 46.9109 65.9961 46.8437 66.1456C46.7156 66.4308 46.6089 66.7819 46.5102 67.1067L46.4983 67.1461C46.3921 67.4952 46.2941 67.8111 46.1814 68.0506C46.1255 68.1693 46.0734 68.2525 46.0269 68.3058C45.9811 68.3583 45.9567 68.3637 45.9562 68.3638L45.9561 68.3638M47.4968 65.4317L45.9561 68.3638M43.2988 66.3861C43.1154 66.4135 42.9666 66.5103 42.8517 66.6163C42.7363 66.7227 42.6355 66.8562 42.5468 66.9939C42.3779 67.2563 42.2201 67.5872 42.0741 67.8934L42.0559 67.9314C41.8987 68.2608 41.7545 68.5587 41.607 68.7789C41.5339 68.888 41.4698 68.9627 41.4157 69.0086C41.3649 69.0517 41.3395 69.0556 41.3363 69.0559C41.3363 69.0559 41.3364 69.0559 41.3364 69.0559L43.2988 66.3861ZM43.2988 66.3861C43.4824 66.3586 43.6536 66.4068 43.7957 66.4744M43.2988 66.3861L43.7957 66.4744M45.9561 68.3638C45.9561 68.3638 45.9554 68.364 45.954 68.3641M45.9561 68.3638L45.954 68.3641M45.954 68.3641C45.9514 68.3644 45.9463 68.3644 45.9379 68.3632M45.954 68.3641L45.9379 68.3632M45.9379 68.3632C45.9239 68.3611 45.902 68.3555 45.8709 68.342M45.9379 68.3632L45.8709 68.342M45.8709 68.342C45.8066 68.3141 45.7241 68.2614 45.6227 68.1784M45.8709 68.342L45.6227 68.1784M45.6227 68.1784C45.4181 68.0108 45.1935 67.768 44.9466 67.4989M45.6227 68.1784L44.9466 67.4989M44.9466 67.4989L44.9255 67.4759M44.9466 67.4989L44.9255 67.4759M44.9255 67.4759C44.694 67.2235 44.4428 66.9496 44.2003 66.7459M44.9255 67.4759L44.2003 66.7459M44.2003 66.7459C44.0744 66.6401 43.9382 66.5421 43.7957 66.4744M44.2003 66.7459L43.7957 66.4744" fill="#5C59ED" stroke="#26103D" stroke-width="0.676983"/>
<path d="M28.1808 26.5576C28.6958 27.2116 28.6848 28.1124 28.213 28.7881C27.6442 29.6135 26.5824 30.0002 25.5957 29.9574C25.3109 29.9432 25.0275 29.9073 24.7482 29.8501C24.4907 29.7962 24.2226 29.764 23.9761 29.6677C23.5362 29.5175 23.1179 29.2279 22.8711 28.8313C22.7408 28.6284 22.678 28.3896 22.6915 28.1488C22.705 27.9081 22.7941 27.6778 22.9461 27.4907C23.0668 27.346 23.2238 27.236 23.401 27.1719C23.5781 27.1078 23.7692 27.0919 23.9545 27.1259C24.1395 27.1552 24.3137 27.2318 24.4603 27.3483C24.6069 27.4648 24.7208 27.6173 24.791 27.7909C24.9734 28.2414 24.7592 28.8313 24.3944 29.1316C24.3575 29.1598 24.3122 29.1749 24.2658 29.1744C24.4694 29.4531 24.791 29.4959 25.1024 29.5498C25.4778 29.6138 25.8316 29.5498 26.1858 29.4319C26.5003 29.3411 26.7781 29.1534 26.9795 28.8954C27.1518 28.6625 27.2456 28.3809 27.2476 28.0912C27.2476 27.8338 27.1831 27.5657 27.0007 27.3727C26.8183 27.1798 26.5612 27.1153 26.3037 27.1047C26.0034 27.0831 25.703 27.1047 25.4027 27.1153C25.0727 27.1298 24.7421 27.1118 24.4156 27.0615C23.8365 26.9864 23.2252 26.7506 22.9139 26.2251C22.6674 25.8069 22.6568 25.292 22.7854 24.8416C22.9249 24.3805 23.193 23.9407 23.5684 23.6298C24.0834 23.19 24.7478 22.9758 25.4133 22.9114C25.7132 22.8827 26.0152 22.8862 26.3143 22.922C26.5824 22.9542 26.8505 22.997 27.108 23.0937C27.2337 23.1333 27.3529 23.191 27.4618 23.2651C27.4937 23.2761 27.5259 23.2973 27.5581 23.3079C27.9764 23.5438 28.2767 23.9301 28.2657 24.4234C28.2606 24.6563 28.1865 24.8826 28.0529 25.0735C27.9192 25.2644 27.732 25.4114 27.5149 25.496C27.0966 25.6461 26.5922 25.5494 26.3135 25.1957C26.1527 25.0133 26.1099 24.7665 26.1634 24.5307C26.2172 24.3161 26.3564 24.1337 26.4743 23.9517C26.5282 23.8767 26.6139 23.78 26.6032 23.6833C26.5922 23.5976 26.5282 23.5225 26.4637 23.4581C26.3029 23.2973 26.067 23.2545 25.8308 23.2651C25.3591 23.3079 24.8873 23.5764 24.5972 23.9407C24.3936 24.2198 24.2112 24.6058 24.3079 24.9595C24.4364 25.4311 25.0265 25.5282 25.4341 25.5923C25.9703 25.6784 26.5172 25.689 27.0431 25.8391C27.4834 25.9676 27.8911 26.2038 28.1808 26.5576Z" fill="#FFADE3"/>
<path d="M36.1715 29.3996C36.1851 29.4298 36.1892 29.4633 36.1835 29.4958C36.1777 29.5283 36.1623 29.5584 36.1393 29.582C36.1394 29.5834 36.1391 29.5848 36.1386 29.5861C36.1381 29.5875 36.1373 29.5886 36.1363 29.5896C36.1353 29.5906 36.1341 29.5914 36.1328 29.5919C36.1315 29.5924 36.1301 29.5927 36.1287 29.5926C36.1156 29.6108 36.0973 29.6245 36.0763 29.6322C36.0553 29.6398 36.0324 29.641 36.0108 29.6355L35.5602 29.6032C35.5276 29.605 35.495 29.6014 35.4635 29.5926C34.7367 29.5515 34.0075 29.5801 33.2861 29.6783C33.2004 29.6889 33.1253 29.582 33.1253 29.4747C33.1239 29.4372 33.1333 29.4002 33.1523 29.3679C33.1713 29.3355 33.1992 29.3093 33.2326 29.2923C33.2326 29.2909 33.2328 29.2895 33.2333 29.2882C33.2338 29.2869 33.2346 29.2857 33.2356 29.2847C33.2366 29.2837 33.2378 29.2829 33.2391 29.2824C33.2404 29.2819 33.2418 29.2817 33.2433 29.2817C33.4215 29.0768 33.5598 28.8403 33.6509 28.5845C33.6832 28.4343 33.7044 28.2948 33.726 28.1447C33.7174 28.1282 33.7137 28.1097 33.7154 28.0912C33.7366 27.7159 33.7472 27.3405 33.7582 26.9652C33.7582 26.5576 33.7366 26.15 33.7366 25.7424C33.7366 25.496 33.7472 25.2492 33.6831 25.0027C33.6227 24.7656 33.509 24.5454 33.3506 24.3589C33.1788 24.177 32.9535 24.0158 32.696 24.0052C32.4496 23.9946 32.2027 24.0909 32.0097 24.2304C31.7522 24.4128 31.602 24.6914 31.4841 24.9705V25.1847C31.4735 25.496 31.4519 25.7963 31.4306 26.1072C31.3878 26.6967 31.3555 27.2863 31.4841 27.866C31.5341 28.1419 31.6322 28.4069 31.7738 28.6489C31.8489 28.7775 31.924 28.9064 31.9885 29.0349C32.0529 29.1634 32.117 29.2817 32.1815 29.3996C32.1998 29.4245 32.2097 29.4545 32.2097 29.4853C32.2097 29.5162 32.1998 29.5462 32.1815 29.571C32.1708 29.6249 32.117 29.6677 32.0313 29.6677C31.053 29.5819 30.0686 29.5927 29.0924 29.6999C29.0541 29.7008 29.0166 29.6895 28.9851 29.6677C28.8884 29.6249 28.8133 29.4853 28.91 29.378C29.2744 28.9382 29.4246 28.3487 29.5107 27.7909C29.5964 27.2226 29.607 26.6433 29.6176 26.0749C29.6392 25.3887 29.6498 24.7131 29.6392 24.0374C29.6392 23.3618 29.6498 22.6968 29.607 22.0211C29.5747 21.5173 29.4891 20.8306 29.0279 20.5303C28.9917 20.5098 28.9648 20.4761 28.9527 20.4362C28.9407 20.3963 28.9446 20.3533 28.9635 20.3161C28.9688 20.2802 28.987 20.2474 29.0146 20.2237C29.0421 20.2001 29.0773 20.1871 29.1136 20.1872C29.8314 20.1319 30.5526 20.1356 31.2698 20.1982C31.2917 20.1965 31.3137 20.2002 31.3339 20.2088C31.3656 20.2189 31.3932 20.239 31.4125 20.2661C31.4319 20.2931 31.442 20.3257 31.4412 20.359C31.4412 20.5736 31.4306 20.7772 31.4306 20.9808C31.4413 21.0157 31.4413 21.0531 31.4306 21.0881C31.4196 21.5385 31.4196 21.9889 31.4196 22.4393C31.4196 22.8898 31.409 23.3402 31.4306 23.7906C31.5435 23.6965 31.6656 23.6139 31.795 23.5442C32.4924 23.1688 33.34 23.0509 34.1014 23.3083C34.7666 23.5229 35.3672 24.0913 35.4313 24.8097V24.853C35.4423 25.6571 35.4313 26.4613 35.4958 27.2658C35.5602 27.9627 35.6566 28.6706 36.0642 29.2499C36.0928 29.2644 36.1175 29.2856 36.1362 29.3116C36.1549 29.3377 36.167 29.3679 36.1715 29.3996Z" fill="#FFADE3"/>
<path d="M43.2505 28.5415C43.18 28.7594 43.0709 28.9628 42.9286 29.1421C42.7752 29.3242 42.5851 29.4718 42.3707 29.5753C42.1562 29.6788 41.9224 29.7358 41.6844 29.7427C41.2126 29.7533 40.7189 29.5603 40.3973 29.2066C40.3167 29.1209 40.2448 29.0274 40.1827 28.9275C39.8395 29.2066 39.4641 29.4424 39.0675 29.5925C38.3162 29.8712 37.3723 29.7533 36.8684 29.0883C36.4073 28.4877 36.4501 27.5979 37.0614 27.1258C37.3511 26.89 37.7049 26.7827 38.0587 26.6754C38.4345 26.5681 38.799 26.4608 39.1421 26.2572C39.4157 26.1049 39.6682 25.9174 39.893 25.6995C39.893 25.56 39.904 25.4208 39.9146 25.2813C39.9358 25.0345 39.9574 24.7774 39.904 24.5306C39.8073 24.1336 39.3568 23.8333 38.9605 23.8443C38.8104 23.855 38.6386 23.8978 38.5312 24.0051C38.3917 24.1552 38.5206 24.316 38.6602 24.4127C38.6814 24.4339 38.703 24.4449 38.7243 24.4661C38.7353 24.4661 38.7459 24.4771 38.7565 24.4771C38.7899 24.4961 38.8191 24.5216 38.8422 24.5522C38.9818 24.6485 39.1103 24.7664 39.1642 24.9382C39.2392 25.2062 39.1103 25.4637 38.9389 25.6673C38.6386 26.0104 38.1558 26.2144 37.7053 26.1071C37.6637 26.108 37.6227 26.0968 37.5874 26.0748C37.5768 26.0748 37.5768 26.0748 37.5768 26.0642C37.363 25.9883 37.1801 25.8444 37.056 25.6546C36.932 25.4647 36.8737 25.2394 36.89 25.0132C36.9439 24.1769 37.7804 23.5763 38.51 23.3189C39.2498 23.0614 40.1611 23.1365 40.816 23.5975C41.6097 24.1769 41.8994 25.1418 41.9529 26.0737C41.969 26.3737 41.969 26.6744 41.9529 26.9745C41.9387 27.1134 41.9352 27.2532 41.9423 27.3927C41.952 27.6589 41.9989 27.9224 42.0818 28.1756C42.1105 28.3135 42.1573 28.447 42.221 28.5726C42.2491 28.6217 42.2814 28.6683 42.3177 28.7117L42.4034 28.7978C42.4144 28.7978 42.425 28.8084 42.4356 28.8084C42.4438 28.8096 42.4513 28.8133 42.4572 28.819C42.4631 28.8183 42.469 28.819 42.4746 28.8209C42.4802 28.8228 42.4853 28.8259 42.4895 28.83H42.5213L42.5429 28.819C42.5611 28.8178 42.5791 28.8142 42.5964 28.8084C42.7898 28.7227 42.8755 28.5298 42.9612 28.3474C42.9934 28.2613 43.122 28.2401 43.1865 28.2829C43.2722 28.3258 43.2832 28.4225 43.2509 28.4975L43.2505 28.5415ZM39.9681 28.3808C39.9179 28.188 39.8892 27.9903 39.8824 27.7912C39.8501 27.3196 39.8611 26.8365 39.8718 26.3543C39.6143 26.5473 39.3568 26.7296 39.1315 26.9548C38.9063 27.1801 38.7133 27.4693 38.6704 27.7912C38.6382 28.0487 38.7026 28.3596 38.9063 28.5419C39.1421 28.7455 39.4959 28.6815 39.7428 28.5419L39.9681 28.3808Z" fill="#FFADE3"/>
<path d="M49.5451 23.8331C49.7381 24.1766 49.6953 24.5732 49.5557 24.9273C49.4165 25.2704 49.1803 25.5597 48.8371 25.6886C48.6812 25.7524 48.5116 25.775 48.3445 25.7544C48.1773 25.7337 48.0183 25.6705 47.8826 25.5707C47.4644 25.2594 47.3354 24.7339 47.357 24.2301H47.3044C47.1491 24.279 47.0039 24.3553 46.8755 24.4553C46.6735 24.5966 46.4897 24.7623 46.3283 24.9485C46.1171 25.1951 45.9534 25.4787 45.8455 25.7849C45.8672 26.3643 45.8888 26.9432 45.9316 27.5115C45.9745 28.1872 46.114 28.895 46.5858 29.4099C46.6057 29.4353 46.6191 29.4653 46.6247 29.4971C46.6303 29.5289 46.628 29.5616 46.618 29.5923C46.6079 29.6269 46.5867 29.6572 46.5576 29.6785C46.5285 29.6998 46.4933 29.711 46.4572 29.7102C46.2854 29.6996 46.114 29.6886 45.9422 29.6886C45.9272 29.6902 45.912 29.6864 45.8994 29.678C45.1057 29.6567 44.312 29.678 43.5183 29.7318C43.495 29.7338 43.4715 29.731 43.4494 29.7235C43.4272 29.7161 43.4068 29.7042 43.3894 29.6886C43.2931 29.6457 43.2176 29.5172 43.3359 29.4205C43.6469 29.1631 43.8293 28.8094 43.9256 28.4124C44.0117 28.0587 44.0329 27.6939 44.0435 27.3296C44.0651 26.8469 44.0651 26.3537 44.0651 25.871C44.0651 25.3994 44.0757 24.9163 44.0223 24.4447C43.9794 24.0583 43.8183 23.694 43.4538 23.5328C43.3681 23.501 43.3465 23.3721 43.3894 23.3076C43.3894 23.297 43.4 23.2864 43.4 23.2758C43.4152 23.2527 43.4359 23.2337 43.4603 23.2206C43.4846 23.2075 43.5119 23.2007 43.5395 23.2007C44.2508 23.1667 44.9633 23.1702 45.6741 23.2113C45.7492 23.2113 45.7921 23.2542 45.8243 23.3186C45.8511 23.348 45.8664 23.3861 45.8671 23.4259C45.8589 23.4609 45.8553 23.4969 45.8565 23.5328V23.8866C45.8455 24.144 45.8455 24.412 45.8349 24.6695C46.103 24.2403 46.4144 23.8441 46.8326 23.5324C47.3794 23.1252 48.1091 22.9319 48.7738 23.1787C49.0962 23.3076 49.3878 23.5222 49.5451 23.8331Z" fill="#FFADE3"/>
<path d="M55.3064 27.7374C55.3045 27.8785 55.2866 28.0189 55.253 28.1559C55.1028 28.7349 54.6951 29.2281 54.2018 29.539C53.6011 29.9254 52.8931 29.9576 52.2068 29.8716C51.8632 29.8287 51.52 29.7753 51.1984 29.6357C51.0197 29.5567 50.8535 29.4519 50.7051 29.3248C50.6995 29.3245 50.6942 29.3221 50.6902 29.3181C50.6862 29.3141 50.6838 29.3088 50.6835 29.3032C50.6012 29.2438 50.5256 29.1755 50.4582 29.0996C50.0522 28.6674 49.7608 28.1404 49.6107 27.5668C49.4607 27.0132 49.4467 26.4315 49.5699 25.8713C49.6931 25.3111 49.9498 24.789 50.3183 24.3494C50.734 23.8595 51.281 23.4985 51.895 23.309C51.94 23.2901 51.9867 23.2757 52.0346 23.2661H52.0558C52.4655 23.1769 52.8892 23.1733 53.3004 23.2555C53.3335 23.2575 53.366 23.2648 53.3967 23.2772C53.4236 23.2741 53.4505 23.2817 53.4718 23.2984C53.9781 23.4345 54.4263 23.732 54.7482 24.1458C55.102 24.6068 55.306 25.1968 55.2632 25.7757C55.257 25.8218 55.2338 25.8639 55.198 25.8937C55.1623 25.9235 55.1166 25.9387 55.0702 25.9364C53.7729 25.9797 52.4635 26.0115 51.1552 26.0115C51.1407 26.3611 51.1916 26.7104 51.3054 27.0413C51.4297 27.4298 51.6519 27.7798 51.9505 28.0577C52.2491 28.3356 52.6142 28.5322 53.0107 28.6284C53.3967 28.714 53.8362 28.7034 54.2014 28.5211C54.5552 28.3497 54.8555 28.0494 54.9845 27.6741C55.0486 27.4803 55.3493 27.5554 55.3064 27.7374ZM51.1768 25.6786L53.5689 25.6464C53.5583 25.3351 53.5473 25.0242 53.4938 24.7239C53.44 24.3914 53.3542 24.0377 53.129 23.7806C52.8825 23.5126 52.5071 23.4804 52.1958 23.6627C51.8203 23.8773 51.5951 24.3167 51.4343 24.7031C51.3061 25.0156 51.2196 25.3436 51.1768 25.6786Z" fill="#FFADE3"/>
<path d="M32.8678 36.4133C32.7393 36.4491 32.6166 36.5033 32.5034 36.574C32.0529 36.8527 31.8277 37.3892 31.6559 37.8608C31.538 38.2039 31.4413 38.5475 31.3339 38.8906C31.2376 39.2231 31.1197 39.5552 31.0018 39.8877C30.5725 41.2067 30.197 42.5474 29.5001 43.7591C29.1887 44.2956 28.7704 44.8101 28.2028 45.0998C28.1153 45.1401 28.0258 45.1759 27.9347 45.2071C27.6493 45.3366 27.3316 45.3776 27.0227 45.325C26.8581 45.2964 26.7012 45.2343 26.5616 45.1426C26.5293 45.1108 26.4865 45.0892 26.4542 45.0569C26.4543 45.0555 26.4541 45.0541 26.4536 45.0528C26.453 45.0515 26.4523 45.0503 26.4513 45.0493C26.4503 45.0483 26.4491 45.0475 26.4478 45.047C26.4464 45.0465 26.445 45.0463 26.4436 45.0463C26.1971 44.8856 25.9931 44.671 25.8858 44.3919C25.7785 44.0916 25.8323 43.7163 25.9503 43.416C26.043 43.2092 26.2018 43.039 26.4017 42.9323C26.6017 42.8256 26.8315 42.7883 27.0549 42.8265C27.5377 42.9015 27.9776 43.3626 27.9237 43.8664C27.8596 44.3707 27.4303 44.7995 26.9476 44.9068C27.1948 44.9833 27.4583 44.9907 27.7095 44.9284C27.7289 44.9164 27.7508 44.909 27.7735 44.9068C28.0129 44.7969 28.2253 44.6359 28.3958 44.4352C28.6105 44.1883 28.7712 43.9093 28.932 43.6306C29.1145 43.309 29.2758 42.9758 29.4148 42.6331C29.4258 42.6012 29.4364 42.5796 29.447 42.5474C29.2756 42.3328 29.1573 42.0864 29.0393 41.8399C28.9108 41.5613 28.7712 41.3038 28.6317 41.0358C28.3636 40.5209 28.1061 40.006 27.8486 39.5029C27.6556 39.117 27.4842 38.7306 27.3234 38.334C27.0121 37.6045 26.6477 36.8538 25.9397 36.4474C25.9183 36.4448 25.8977 36.4377 25.8792 36.4266C25.8607 36.4155 25.8447 36.4006 25.8323 36.383C25.8078 36.352 25.7954 36.3132 25.7973 36.2737C25.7993 36.2342 25.8155 36.1968 25.843 36.1684C25.864 36.1416 25.8929 36.122 25.9256 36.1124C25.9583 36.1029 25.9932 36.1037 26.0254 36.1149C26.9158 36.1362 27.7944 36.1149 28.6855 36.0611H28.7178C28.7521 36.0538 28.7879 36.057 28.8204 36.0704C28.8529 36.0838 28.8806 36.1067 28.8998 36.1362C28.9196 36.1748 28.924 36.2196 28.9121 36.2614C28.9002 36.3032 28.8729 36.3389 28.8357 36.3614C28.546 36.5866 28.3746 36.9297 28.4603 37.2944C28.4925 37.4662 28.5676 37.6163 28.6427 37.7661C28.7178 37.9485 28.8035 38.1198 28.8786 38.2916C29.0393 38.6347 29.2111 38.9778 29.3719 39.3209C29.6078 39.8036 29.8436 40.2863 30.0693 40.7579C30.1121 40.64 30.155 40.5221 30.1872 40.4042C30.4553 39.6428 30.7128 38.8811 30.9703 38.1198C31.0666 37.7983 31.2278 37.4764 31.2384 37.1333V37.1011C31.2299 37.0846 31.2262 37.0661 31.2278 37.0476C31.2062 36.7902 31.056 36.5433 30.8091 36.447C30.8049 36.4429 30.7998 36.4398 30.7943 36.4379C30.7887 36.436 30.7827 36.4354 30.7769 36.4361H30.7663C30.552 36.4254 30.552 36.0929 30.7663 36.0929C31.4314 36.1145 32.0966 36.1145 32.7711 36.0929C32.9858 36.0391 33.0738 36.3594 32.8678 36.4133Z" fill="#FFADE3"/>
<path d="M38.6064 39.2547C38.6064 41.1209 37.1798 42.6223 35.4222 42.6223C34.625 42.6205 33.8595 42.3091 33.2876 41.7537C33.0422 41.5517 32.8382 41.3041 32.687 41.0246C32.6335 40.9067 32.5796 40.7888 32.5368 40.6708C32.3415 40.2249 32.2429 39.7427 32.2475 39.2559C32.2475 37.4008 33.6627 35.8994 35.4222 35.8994C37.1818 35.8994 38.6064 37.3996 38.6064 39.2547ZM37.0403 40.5195C37.019 39.9834 36.8795 39.4583 36.7187 38.9537C36.5635 38.4399 36.3397 37.9495 36.0536 37.4955C35.8605 37.2164 35.6137 36.9378 35.335 36.7448C35.1954 36.6481 35.0559 36.5624 34.8951 36.5196C34.7665 36.4873 34.6376 36.4763 34.5196 36.5302C34.1658 36.7015 34.0479 37.2164 34.0157 37.5706C33.9834 38.096 34.0691 38.6318 34.1765 39.147C34.282 39.6671 34.4439 40.1741 34.6592 40.659C34.8522 41.0989 35.0775 41.5811 35.4529 41.8924C35.7961 42.1711 36.3217 42.2567 36.6542 41.9136C36.9974 41.5607 37.0619 40.9813 37.0403 40.5195Z" fill="#FFADE3"/>
<path d="M45.5457 42.4063C45.5403 42.4423 45.5222 42.4751 45.4946 42.4987C45.4671 42.5224 45.4319 42.5354 45.3955 42.5353C44.7526 42.5728 44.1079 42.5728 43.465 42.5353C43.454 42.5353 43.4434 42.5246 43.4327 42.5246H43.4005C43.3254 42.5246 43.2287 42.4496 43.2397 42.3635C43.261 42.164 43.2718 41.9635 43.272 41.7629C43.2397 41.7952 43.2181 41.838 43.1859 41.8702C42.9406 42.1705 42.5868 42.367 42.2098 42.4849C41.5421 42.6933 40.8215 42.6513 40.1825 42.367C39.8822 42.2279 39.6035 42.0133 39.4317 41.7236C39.2387 41.4021 39.1636 41.0268 39.1313 40.6624C39.0995 40.2871 39.1207 39.9223 39.1207 39.5576C39.1313 39.1288 39.1313 38.7 39.1101 38.2708C39.0885 37.638 39.1101 36.5229 38.2948 36.3728C38.1985 36.3618 38.1552 36.2439 38.1768 36.1688C38.1768 36.1582 38.1875 36.1366 38.1875 36.126C38.2091 36.0725 38.2626 36.0403 38.3376 36.0293L40.5367 35.9974C40.5744 35.995 40.6118 36.0053 40.6429 36.0267C40.674 36.0481 40.6969 36.0793 40.7081 36.1154C40.7229 36.1453 40.7303 36.1783 40.7297 36.2117C40.7191 36.587 40.7191 36.9734 40.7191 37.3487V39.2145C40.7191 39.6971 40.7191 40.1798 40.7403 40.6624C40.7509 40.9733 40.7832 41.3164 40.9333 41.6057C41.1374 42.0027 41.5769 42.174 42.0061 42.1312C42.7892 42.0667 43.1108 41.3699 43.272 40.662V38.6674C43.261 38.3455 43.2609 38.0346 43.2503 37.7241C43.2181 37.2092 43.0896 36.4797 42.4779 36.3618C42.3065 36.3296 42.3387 36.1154 42.4673 36.0509C42.4947 36.0292 42.5289 36.0177 42.564 36.0187C43.2826 36.0081 43.9906 35.9974 44.6986 35.9758C44.7383 35.9768 44.7764 35.992 44.8059 36.0187C44.8326 36.0305 44.8551 36.0502 44.8704 36.0751C44.8857 36.1 44.8931 36.129 44.8916 36.1582C44.881 36.6621 44.881 37.1553 44.87 37.6596C44.87 38.5498 44.8699 39.4397 44.9022 40.3405C44.9128 40.7159 44.9344 41.0912 45.0417 41.456C45.1274 41.724 45.2454 42.0349 45.4923 42.2067C45.5217 42.2296 45.5428 42.2615 45.5525 42.2975C45.5621 42.3336 45.5597 42.3718 45.5457 42.4063Z" fill="#FFADE3"/>
<path d="M52.2713 36.7022C52.4643 37.0458 52.4215 37.4423 52.2819 37.7965C52.1424 38.1396 51.9065 38.4289 51.5633 38.5578C51.4074 38.6216 51.2377 38.6443 51.0705 38.6236C50.9033 38.603 50.7442 38.5397 50.6085 38.4399C50.1902 38.1286 50.0617 37.6031 50.0833 37.0992H50.0294C49.8742 37.1481 49.7289 37.2244 49.6005 37.3244C49.3985 37.4656 49.2147 37.6313 49.0533 37.8177C48.842 38.0642 48.6783 38.3478 48.5706 38.6541C48.5922 39.2334 48.6134 39.8124 48.6563 40.3807C48.6995 41.0563 48.8387 41.7642 49.3108 42.2791C49.3308 42.3045 49.3441 42.3344 49.3498 42.3662C49.3554 42.398 49.3531 42.4307 49.343 42.4614C49.3329 42.496 49.3117 42.5263 49.2827 42.5476C49.2536 42.569 49.2183 42.5801 49.1823 42.5793C49.0105 42.5687 48.8387 42.5577 48.6673 42.5577C48.6522 42.5593 48.637 42.5556 48.6244 42.5471C47.8304 42.5259 47.0367 42.5471 46.243 42.601C46.2197 42.6029 46.1963 42.6001 46.1742 42.5926C46.1521 42.5852 46.1318 42.5733 46.1144 42.5577C46.0177 42.5149 45.9426 42.3864 46.0606 42.2897C46.3719 42.0322 46.5543 41.6785 46.6502 41.2815C46.7359 40.9278 46.7576 40.5631 46.7682 40.1987C46.7898 39.7161 46.7898 39.2228 46.7898 38.7401C46.7898 38.2685 46.8004 37.7855 46.7469 37.3138C46.7037 36.9275 46.5429 36.5631 46.1785 36.402C46.0924 36.3701 46.0712 36.2412 46.114 36.1768C46.114 36.1661 46.1247 36.1555 46.1247 36.1449C46.1399 36.1218 46.1606 36.1028 46.1849 36.0897C46.2093 36.0766 46.2365 36.0698 46.2642 36.0699C46.9754 36.0359 47.6879 36.0394 48.3988 36.0805C48.4739 36.0805 48.5167 36.1233 48.549 36.1878C48.5758 36.2171 48.591 36.2553 48.5918 36.2951C48.5833 36.33 48.5796 36.366 48.5808 36.402V36.7557C48.5702 37.0131 48.5702 37.2812 48.5596 37.5386C48.8277 37.1094 49.1386 36.7133 49.5569 36.4016C50.1041 35.9944 50.8337 35.801 51.4985 36.0478C51.8208 36.1768 52.1105 36.3925 52.2713 36.7022Z" fill="#FFADE3"/>
<path d="M31.5752 55.1379C31.5936 55.1627 31.6034 55.1927 31.6034 55.2236C31.6034 55.2544 31.5936 55.2845 31.5752 55.3093C31.5646 55.3631 31.5108 55.406 31.4251 55.406C30.4503 55.3202 29.4694 55.331 28.4968 55.4382C28.4794 55.4395 28.4619 55.4373 28.4454 55.4318C28.4289 55.4262 28.4136 55.4175 28.4005 55.406C28.2932 55.3737 28.2181 55.2236 28.3144 55.1163C28.6792 54.6659 28.8294 54.0763 28.9151 53.5076C29.0008 52.9503 29.0118 52.3709 29.0224 51.8026C29.044 51.1376 29.044 50.4619 29.044 49.7863C29.044 49.1217 29.044 48.4567 29.0118 47.7916C28.9795 47.2767 28.8938 46.5689 28.4323 46.2686C28.3966 46.2475 28.3702 46.2137 28.3583 46.174C28.3465 46.1343 28.35 46.0916 28.3682 46.0544C28.373 46.0173 28.3907 45.983 28.4181 45.9575C28.4455 45.932 28.481 45.9169 28.5184 45.9149C29.2253 45.865 29.9349 45.8685 30.6412 45.9255C30.7379 45.9365 30.7808 46.0006 30.8024 46.0756C30.8254 46.1065 30.8367 46.1445 30.8342 46.1829V46.4081C30.8236 47.0409 30.813 47.6843 30.813 48.3277C30.813 49.5721 30.8342 50.8161 30.8987 52.0616C30.9423 53.111 31.0174 54.2261 31.5752 55.1379Z" fill="#FFADE3"/>
<path d="M37.7428 52.1239C37.7428 53.99 36.3162 55.4914 34.5586 55.4914C33.7613 55.4897 32.9959 55.1783 32.424 54.6228C32.1785 54.421 31.9744 54.1733 31.8233 53.8937C31.7695 53.7758 31.716 53.6579 31.6732 53.54C31.4777 53.0941 31.379 52.6118 31.3834 52.125C31.3834 50.2699 32.7986 48.7685 34.5586 48.7685C36.3186 48.7685 37.7428 50.2671 37.7428 52.1239ZM36.177 53.3894C36.1554 52.8533 36.0159 52.3282 35.8551 51.8236C35.6998 51.3099 35.4761 50.8194 35.1899 50.3654C34.9969 50.0863 34.7504 49.8077 34.4713 49.6147C34.3322 49.518 34.1926 49.4323 34.0318 49.3895C33.9029 49.3573 33.7743 49.3466 33.656 49.4001C33.3022 49.5719 33.1843 50.0863 33.1521 50.4405C33.1198 50.966 33.2059 51.5017 33.3128 52.017C33.4185 52.5369 33.5804 53.0439 33.7956 53.529C33.9886 53.9688 34.2138 54.451 34.5893 54.7623C34.9328 55.041 35.4584 55.1271 35.7906 54.7835C36.1342 54.4298 36.1983 53.8509 36.177 53.3894Z" fill="#FFADE3"/>
<path d="M44.0283 49.2281C43.6422 49.3354 43.3741 49.5928 43.1701 49.9254C42.9665 50.2685 42.8376 50.6544 42.7196 51.0408C42.5694 51.4912 42.4515 51.9523 42.3013 52.4027C41.9904 53.357 41.6684 54.301 41.3469 55.2447C41.3353 55.2769 41.317 55.3061 41.293 55.3304C41.2767 55.3566 41.2547 55.3788 41.2288 55.3955C41.2028 55.4121 41.1734 55.4228 41.1428 55.4267C41.0465 55.4377 40.9498 55.4377 40.8531 55.4483C40.7837 55.4649 40.7105 55.4533 40.6495 55.4161C40.5422 55.352 40.4781 55.2125 40.4242 55.1052C40.2847 54.8155 40.1345 54.5263 39.9844 54.2366C39.4804 53.2391 38.9442 52.2419 38.5043 51.2122C38.1933 50.4831 37.8498 49.6357 37.1099 49.2603C37.0835 49.2616 37.0572 49.2552 37.0344 49.2419C37.0115 49.2285 36.9929 49.2089 36.981 49.1853C36.9651 49.1575 36.9568 49.1261 36.9568 49.0941C36.9568 49.0621 36.9651 49.0307 36.981 49.0029C37.0014 48.9691 37.0328 48.9433 37.0698 48.9296C37.1069 48.916 37.1475 48.9153 37.185 48.9278C38.0644 48.9494 38.954 48.9278 39.8452 48.8744H39.877C39.9147 48.8654 39.9541 48.8678 39.9904 48.8811C40.0267 48.8945 40.0582 48.9183 40.0811 48.9494C40.1006 48.9899 40.1049 49.0361 40.0931 49.0794C40.0812 49.1228 40.054 49.1604 40.0166 49.1853C39.7269 49.3999 39.5449 49.743 39.6199 50.1183C39.6561 50.279 39.7137 50.4341 39.7913 50.5794L40.0488 51.1265C40.2206 51.4802 40.392 51.845 40.5638 52.1991C40.778 52.6601 41.0037 53.1105 41.2289 53.5716C41.497 52.778 41.7651 51.9951 42.0332 51.2016C42.0977 51.0086 42.1618 50.8046 42.2369 50.601C42.3033 50.4273 42.3536 50.2478 42.387 50.0649C42.3926 50.0113 42.3926 49.9573 42.387 49.9037V49.8715C42.3658 49.6145 42.2263 49.3676 41.9688 49.2603C41.9582 49.2603 41.9476 49.2497 41.9365 49.2497H41.9259C41.7113 49.2391 41.7113 48.9066 41.9259 48.9066C42.5911 48.9278 43.2562 48.9278 43.9308 48.9066C44.1462 48.852 44.2323 49.1747 44.0283 49.2281Z" fill="#FFADE3"/>
<path d="M49.7454 53.4752C49.7435 53.6163 49.7255 53.7568 49.6915 53.8938C49.5417 54.4727 49.1341 54.966 48.6407 55.2773C48.0401 55.6632 47.3321 55.6955 46.6453 55.6094C46.3021 55.5666 45.9589 55.5131 45.6374 55.3736C45.4581 55.2945 45.2913 55.1896 45.1424 55.0623C45.1369 55.0619 45.1316 55.0595 45.1277 55.0555C45.1238 55.0515 45.1215 55.0463 45.1212 55.0407C45.0387 54.9815 44.9631 54.9132 44.896 54.8371C44.4899 54.4049 44.1985 53.8779 44.0484 53.3042C43.8984 52.7506 43.8845 52.169 44.0077 51.6088C44.1309 51.0486 44.3876 50.5265 44.756 50.0868C45.1717 49.5969 45.7188 49.236 46.3328 49.0464C46.3777 49.0275 46.4245 49.0132 46.4723 49.0036H46.4936C46.9033 48.9144 47.327 48.9108 47.7381 48.993C47.7712 48.995 47.8037 49.0023 47.8345 49.0146C47.8613 49.0116 47.8883 49.0192 47.9095 49.0358C48.4159 49.172 48.864 49.4695 49.186 49.8832C49.5398 50.3443 49.7438 50.9342 49.7009 51.5132C49.6947 51.5592 49.6714 51.6013 49.6357 51.631C49.6 51.6608 49.5544 51.6761 49.5079 51.6739C48.2107 51.7171 46.9012 51.7494 45.5926 51.7494C45.5785 52.0988 45.6294 52.4479 45.7427 52.7787C45.8672 53.1672 46.0894 53.5172 46.3881 53.7951C46.6868 54.0731 47.0519 54.2696 47.4484 54.3658C47.8345 54.4515 48.274 54.4409 48.6392 54.2585C48.993 54.0872 49.2933 53.7869 49.4218 53.4115C49.4879 53.2182 49.7882 53.2936 49.7454 53.4752ZM45.6142 51.4165L48.0062 51.3842C47.9952 51.073 47.9846 50.7621 47.9312 50.4618C47.8773 50.1293 47.7916 49.7755 47.5664 49.5185C47.3195 49.2504 46.9441 49.2182 46.6331 49.4006C46.2577 49.6152 46.0324 50.0546 45.8716 50.4409C45.7433 50.7534 45.6567 51.0814 45.6142 51.4165Z" fill="#FFADE3"/>
</g>
<defs>
<filter id="filter0_d_13838_46260" x="0.728719" y="-0.000152588" width="76.5421" height="76.3389" filterUnits="userSpaceOnUse" color-interpolation-filters="sRGB">
<feFlood flood-opacity="0" result="BackgroundImageFix"/>
<feColorMatrix in="SourceAlpha" type="matrix" values="0 0 0 0 0 0 0 0 0 0 0 0 0 0 0 0 0 0 127 0" result="hardAlpha"/>
<feOffset dy="0.270793"/>
<feGaussianBlur stdDeviation="0.135397"/>
<feComposite in2="hardAlpha" operator="out"/>
<feColorMatrix type="matrix" values="0 0 0 0 0 0 0 0 0 0 0 0 0 0 0 0 0 0 0.25 0"/>
<feBlend mode="normal" in2="BackgroundImageFix" result="effect1_dropShadow_13838_46260"/>
<feBlend mode="normal" in="SourceGraphic" in2="effect1_dropShadow_13838_46260" result="shape"/>
</filter>
</defs>
</svg>
