<svg width="69" height="69" viewBox="0 0 69 69" fill="none" xmlns="http://www.w3.org/2000/svg">
    <path
        d="M34.5 67C52.4493 67 67 52.4493 67 34.5C67 16.5507 52.4493 2 34.5 2C16.5507 2 2 16.5507 2 34.5C2 52.4493 16.5507 67 34.5 67Z"
        fill="#F8442E" stroke="white" stroke-width="4" />
    <path
        d="M46.252 28.1391C46.2535 28.1185 46.2535 28.0978 46.252 28.0771C46.2535 28.0565 46.2535 28.0358 46.252 28.0152C46.2535 27.9966 46.2535 27.978 46.252 27.9594V27.9408L46.2303 27.8912L46.2025 27.8417L46.1622 27.7952C46.1482 27.7792 46.1326 27.7647 46.1157 27.7518L39.6092 22.7945C39.5518 22.7517 39.4849 22.7234 39.4143 22.712C39.3436 22.7007 39.2712 22.7067 39.2033 22.7294L32.1267 25.047L28.7186 26.1934L25.6884 27.2096C25.6246 27.231 25.5667 27.2667 25.5189 27.3139C25.471 27.3612 25.4347 27.4188 25.4126 27.4823L22.7605 35.1816C22.7524 35.2017 22.7462 35.2224 22.7419 35.2436C22.7403 35.2653 22.7403 35.287 22.7419 35.3087C22.7405 35.3293 22.7405 35.35 22.7419 35.3706C22.7404 35.3892 22.7404 35.4078 22.7419 35.4264C22.7419 35.4264 22.7419 35.4512 22.7419 35.4605C22.7413 35.4718 22.7413 35.4832 22.7419 35.4946C22.7419 35.4946 22.7419 35.4946 22.7419 35.5193C22.7493 35.5313 22.7576 35.5426 22.7667 35.5534V35.572L22.7976 35.6061L22.8193 35.6247L22.8534 35.6526L39.0112 46.2675L39.0484 46.2892H39.067H39.0949H39.1321H39.3118H39.3489H39.3768L39.4047 46.2737L39.4326 46.252L39.4605 46.2241C39.4694 46.2151 39.4768 46.2046 39.4822 46.1931L39.5008 46.1466L46.0692 28.3002C46.0787 28.2807 46.0849 28.2598 46.0878 28.2383L46.252 28.1391ZM31.9997 26.0168L33.8587 31.4388L27.3677 33.5178L29.2267 26.9525L31.9997 26.0168ZM35.947 24.6907L41.3257 29.0283L34.6736 31.1724L32.8146 25.7379L35.947 24.6907ZM34.9834 31.9996L41.6851 29.8494L39.1352 44.1544L34.9834 31.9996ZM38.2862 44.393L27.5691 34.3637L34.1313 32.2568L38.2862 44.393ZM26.6179 34.6735L35.2003 42.6951L24.1857 35.4605L26.6179 34.6735ZM42.6208 29.5365L45.0994 28.7402L40.5604 41.0933L42.6208 29.5365ZM39.2281 23.5877L44.8981 27.8974L42.3326 28.7185L36.9415 24.3591L39.2281 23.5877ZM26.1748 27.9718L28.2104 27.2902L26.3514 33.84L23.8728 34.6394L26.1748 27.9718Z"
        fill="#FFDFD7" />
    <path
        d="M20.1299 22.6706C20.0196 22.8037 19.8863 22.916 19.7364 23.0021C19.5926 23.0876 19.4296 23.1355 19.2623 23.1415L19.1632 22.7573C19.2925 22.7402 19.4188 22.7047 19.5381 22.652C19.6397 22.6052 19.7297 22.5364 19.8015 22.4506C19.849 22.3932 19.8886 22.3296 19.9192 22.2616C19.9463 22.2025 19.956 22.137 19.9471 22.0726C19.9334 22.0067 19.8972 21.9475 19.8448 21.9053C19.8155 21.8784 19.7805 21.8583 19.7425 21.8465C19.7045 21.8347 19.6643 21.8315 19.6249 21.8371C19.5427 21.853 19.464 21.8834 19.3925 21.927C19.3119 21.9734 19.2283 22.0292 19.1415 22.0912C18.9893 22.1934 18.8131 22.2543 18.6303 22.2678C18.4705 22.2754 18.314 22.221 18.1934 22.116C18.0934 22.0345 18.0174 21.9274 17.9734 21.8061C17.9252 21.6764 17.9145 21.5358 17.9425 21.4002C17.9774 21.2383 18.0531 21.0879 18.1624 20.9634C18.2596 20.8434 18.3746 20.7389 18.5033 20.6535C18.6263 20.5736 18.7644 20.5198 18.9091 20.4955L19.0331 20.8859C18.9305 20.8914 18.8307 20.9212 18.7418 20.9727C18.6605 21.0142 18.5879 21.071 18.528 21.14C18.4865 21.1931 18.4522 21.2514 18.4258 21.3135C18.4053 21.37 18.3979 21.4303 18.4041 21.4901C18.4138 21.5469 18.4448 21.5979 18.4909 21.6326C18.5167 21.6599 18.5489 21.6803 18.5846 21.6922C18.6203 21.7041 18.6583 21.7071 18.6954 21.7008C18.7771 21.6835 18.8556 21.6532 18.9277 21.6109L19.1725 21.4653C19.2673 21.3974 19.3717 21.3441 19.4823 21.3073C19.5821 21.2744 19.6874 21.2618 19.7922 21.2701C19.907 21.2867 20.0146 21.3362 20.102 21.4126C20.2115 21.5041 20.2966 21.6211 20.3499 21.7535C20.4029 21.8919 20.4126 22.0431 20.3777 22.1872C20.3334 22.3653 20.2486 22.5307 20.1299 22.6706Z"
        fill="white" />
    <path
        d="M21.1276 21.4343L18.0293 18.0262L18.4352 17.6606L20.2539 19.6745L20.1795 19.6063C20.127 19.4241 20.127 19.2308 20.1795 19.0486C20.2438 18.8416 20.3652 18.6569 20.5297 18.5157C20.6794 18.3711 20.8792 18.29 21.0874 18.2895C21.1878 18.2896 21.2871 18.3113 21.3784 18.3529C21.4698 18.3946 21.5512 18.4554 21.6172 18.5312L22.8379 19.8821L22.4227 20.257L21.3507 19.0331C21.2697 18.9445 21.1599 18.8874 21.0409 18.872C20.9778 18.8676 20.9144 18.8773 20.8555 18.9003C20.7966 18.9234 20.7435 18.9592 20.7001 19.0052C20.598 19.0985 20.5266 19.2206 20.4956 19.3553C20.4647 19.4971 20.4711 19.6444 20.5142 19.7829C20.5648 19.939 20.6495 20.0818 20.762 20.2012L21.5366 21.0594L21.1276 21.4343Z"
        fill="white" />
    <path
        d="M21.5892 16.6598C21.5641 16.6261 21.5471 16.587 21.5396 16.5456C21.532 16.5042 21.5342 16.4616 21.5458 16.4212C21.5648 16.3387 21.6133 16.266 21.6822 16.2167C21.7514 16.1676 21.8366 16.1465 21.9207 16.1579C21.9624 16.1618 22.0026 16.175 22.0385 16.1965C22.0744 16.2179 22.1051 16.247 22.1283 16.2818C22.1536 16.3155 22.1709 16.3544 22.1789 16.3958C22.187 16.4371 22.1856 16.4797 22.1748 16.5204C22.1562 16.6022 22.1076 16.6741 22.0385 16.7218C21.9702 16.7704 21.8864 16.7925 21.803 16.7837C21.7602 16.7811 21.7186 16.7686 21.6815 16.747C21.6443 16.7255 21.6128 16.6957 21.5892 16.6598ZM22.1314 17.3693L22.59 17.0595L24.0059 19.0734L23.5505 19.3832L22.1314 17.3693Z"
        fill="white" />
    <path
        d="M23.9688 16.1703L24.2786 16.6815L24.2167 16.6071C24.1983 16.4091 24.2439 16.2103 24.3468 16.0401C24.4604 15.8527 24.6248 15.7013 24.8208 15.6033C25.0007 15.4962 25.2154 15.4639 25.4188 15.5134C25.5155 15.5394 25.6058 15.585 25.6842 15.6474C25.7625 15.7097 25.8272 15.7875 25.8743 15.8759L26.7325 17.484L26.2368 17.7473L25.4684 16.3097C25.4142 16.2044 25.3241 16.1219 25.2143 16.0773C25.154 16.058 25.0902 16.0525 25.0275 16.061C24.9647 16.0696 24.9047 16.0921 24.8518 16.1269C24.7306 16.1904 24.632 16.29 24.5699 16.4119C24.5017 16.5403 24.4706 16.6851 24.48 16.8302C24.4927 16.9957 24.5413 17.1564 24.6226 17.3012L25.1679 18.3205L24.6721 18.5839L23.5103 16.415L23.9688 16.1703Z"
        fill="white" />
    <path
        d="M28.5946 16.8581C28.357 16.9458 28.1008 16.9704 27.851 16.9293C27.6299 16.89 27.424 16.7903 27.2561 16.6412C27.083 16.4813 26.9539 16.2797 26.8812 16.0556C26.8035 15.8345 26.7917 15.5955 26.8471 15.3678C26.8981 15.139 27.0045 14.9262 27.1569 14.7481C27.3156 14.5659 27.5214 14.4308 27.7518 14.3577C28.0275 14.2488 28.3343 14.2488 28.61 14.3577C28.8918 14.4827 29.1262 14.6944 29.2793 14.9619L27.5814 16.2911L27.3521 16.0246L28.7278 14.9092L28.6472 15.0239C28.5588 14.9147 28.4435 14.8304 28.3126 14.7791C28.1659 14.7234 28.0039 14.7234 27.8572 14.7791C27.7219 14.8206 27.6014 14.9002 27.5101 15.0084C27.4232 15.1146 27.3655 15.2417 27.3428 15.3771C27.3195 15.5271 27.3344 15.6805 27.3862 15.8232C27.4352 15.9704 27.518 16.1041 27.6279 16.2136C27.7317 16.313 27.8618 16.3807 28.0028 16.4088C28.1495 16.4385 28.3016 16.4278 28.4427 16.3778C28.5444 16.3444 28.6382 16.2906 28.7185 16.2198C28.8031 16.1496 28.879 16.0695 28.9447 15.9813L29.3134 16.2911C29.2181 16.4084 29.1077 16.5126 28.9849 16.6009C28.87 16.7077 28.7381 16.7946 28.5946 16.8581Z"
        fill="white" />
    <path d="M31.5752 11.4143L32.1298 11.3492L32.6503 15.9286L32.0926 15.9905L31.5752 11.4143Z"
        fill="white" />
    <path
        d="M33.3629 12.508C33.3608 12.466 33.3684 12.424 33.385 12.3853C33.4017 12.3467 33.427 12.3123 33.4589 12.2849C33.5185 12.2255 33.598 12.1902 33.682 12.1858C33.7239 12.1835 33.7658 12.1897 33.8052 12.2041C33.8447 12.2185 33.8807 12.2407 33.9113 12.2695C33.945 12.2942 33.9726 12.3263 33.992 12.3633C34.0113 12.4004 34.0219 12.4414 34.0228 12.4832C34.0253 12.526 34.0183 12.5687 34.0022 12.6084C33.9861 12.648 33.9614 12.6836 33.9299 12.7125C33.8686 12.7696 33.7888 12.8027 33.7051 12.8055C33.6213 12.8084 33.5394 12.7808 33.4744 12.728C33.44 12.7025 33.4121 12.6694 33.3927 12.6312C33.3733 12.593 33.3631 12.5508 33.3629 12.508ZM33.4341 13.4003L33.9919 13.3787L34.0848 15.8573L33.524 15.879L33.4341 13.4003Z"
        fill="white" />
    <path
        d="M34.9246 15.817L35.2716 11.2222L35.8293 11.2656L35.4823 15.8604L34.9246 15.817ZM35.3707 15.0641V14.525L36.954 13.4437L37.2638 13.7536L35.3707 15.0641ZM36.2042 14.2741L37.2049 15.9906L36.5574 15.941L35.8076 14.5591L36.2042 14.2741Z"
        fill="white" />
    <path
        d="M38.7014 16.3747C38.4545 16.3304 38.2231 16.2238 38.0291 16.0649C37.8611 15.9155 37.7377 15.7224 37.6727 15.5072C37.612 15.2799 37.612 15.0405 37.6727 14.8132C37.7203 14.5793 37.8343 14.3641 38.0012 14.1935C38.1661 14.0285 38.3695 13.9072 38.593 13.8403C38.824 13.7679 39.0705 13.7603 39.3056 13.8186C39.5959 13.8738 39.8548 14.0364 40.0306 14.2741C40.205 14.528 40.295 14.8305 40.2877 15.1385L38.1437 15.3864L38.0817 15.0363L39.8385 14.807L39.7083 14.8628C39.6923 14.7225 39.6376 14.5895 39.5503 14.4786C39.4534 14.3549 39.3145 14.2711 39.1599 14.2431C39.0243 14.204 38.8804 14.204 38.7448 14.2431C38.6145 14.288 38.4982 14.3659 38.4071 14.4693C38.3097 14.5865 38.2427 14.7259 38.2119 14.8752C38.1761 15.0259 38.1761 15.1829 38.2119 15.3337C38.2493 15.4722 38.3244 15.5977 38.4287 15.6962C38.5243 15.7813 38.6374 15.8445 38.7599 15.8814C38.8824 15.9184 39.0116 15.9281 39.1383 15.91C39.2442 15.8916 39.348 15.8625 39.4481 15.8232L39.603 16.2787C39.4586 16.3337 39.3075 16.3691 39.1537 16.384C39.0035 16.4058 38.8506 16.4027 38.7014 16.3747Z"
        fill="white" />
    <path
        d="M42.9926 17.9425C42.7988 17.8431 42.6328 17.6973 42.5092 17.518C42.3878 17.3419 42.321 17.1339 42.3171 16.9201C42.3248 16.6757 42.3892 16.4365 42.5054 16.2213C42.6216 16.0062 42.7862 15.8211 42.9864 15.6807C43.172 15.5631 43.3864 15.4988 43.606 15.4948C43.8287 15.4893 44.0489 15.5428 44.2443 15.6497C44.4296 15.7415 44.5838 15.8859 44.6874 16.0649C44.7758 16.2157 44.8258 16.386 44.833 16.5606L44.7586 16.6226L45.0499 16.1919L45.5022 16.4305L44.3465 18.5993L43.857 18.3391L44.1668 17.7721V17.9301C44.1137 17.9641 44.0565 17.9912 43.9964 18.0107C43.9069 18.0413 43.8145 18.0631 43.7207 18.0757C43.6088 18.0928 43.4949 18.0928 43.383 18.0757C43.2459 18.0553 43.1136 18.0101 42.9926 17.9425ZM43.3489 17.611C43.4623 17.6739 43.5882 17.7109 43.7176 17.7194C43.8368 17.7262 43.9559 17.7038 44.0646 17.6544C44.177 17.6025 44.2765 17.5263 44.3558 17.4313L44.5882 17.013C44.6177 16.8971 44.6177 16.7757 44.5882 16.6598C44.5601 16.5469 44.5084 16.4413 44.4364 16.35C44.3578 16.2522 44.2597 16.172 44.1483 16.1145C44.0233 16.0445 43.8816 16.0102 43.7385 16.0151C43.5954 16.02 43.4563 16.064 43.3365 16.1424C43.2089 16.2279 43.1045 16.3436 43.0326 16.4793C42.9607 16.6151 42.9235 16.7665 42.9244 16.9201C42.9287 17.0617 42.968 17.2001 43.0391 17.3228C43.1146 17.445 43.2216 17.5445 43.3489 17.611Z"
        fill="white" />
    <path
        d="M47.1226 20.8363C46.9625 20.6896 46.8466 20.501 46.788 20.2918C46.7295 20.0827 46.7305 19.8613 46.7911 19.6528C46.8566 19.4192 46.9802 19.2059 47.1505 19.0331C47.3172 18.8484 47.5316 18.7133 47.7702 18.6427C47.9809 18.5839 48.2038 18.5839 48.4146 18.6427C48.6323 18.7081 48.8311 18.825 48.994 18.9835C49.1325 19.1155 49.2385 19.2778 49.3038 19.4576C49.3741 19.627 49.3956 19.8126 49.3658 19.9936L49.2078 20.1144L51.0668 18.1532L51.4665 18.5374L48.3062 21.8743L47.9065 21.4901L48.3062 21.0408L48.2473 21.1988C48.051 21.2247 47.8515 21.2089 47.6617 21.1524C47.4591 21.0922 47.2741 20.9837 47.1226 20.8363ZM47.5719 20.6133C47.668 20.7085 47.7845 20.7806 47.9127 20.8239C48.0285 20.8614 48.1512 20.8731 48.2721 20.858C48.3951 20.8432 48.5129 20.7997 48.616 20.731L48.9413 20.3902C48.9998 20.2848 49.0317 20.1668 49.0343 20.0463C49.0409 19.925 49.0186 19.804 48.9692 19.6931C48.918 19.5749 48.8419 19.4693 48.7461 19.3832C48.6419 19.284 48.5138 19.2136 48.3742 19.1788C48.2346 19.1441 48.0884 19.1462 47.9499 19.1849C47.8017 19.2263 47.6684 19.3091 47.5657 19.4235C47.457 19.5327 47.3808 19.67 47.3457 19.8201C47.3085 19.9623 47.3085 20.1116 47.3457 20.2539C47.3855 20.3927 47.4639 20.5173 47.5719 20.6133Z"
        fill="white" />
    <path
        d="M50.7321 20.9789L51.0946 21.4126L49.1799 22.9618L48.8267 22.528L50.7321 20.9789ZM51.4045 20.3902C51.4368 20.3633 51.4747 20.344 51.5155 20.3338C51.5562 20.3236 51.5988 20.3228 51.6399 20.3313C51.7237 20.3429 51.8 20.3858 51.8535 20.4513C51.9069 20.5168 51.9336 20.6001 51.9281 20.6845C51.9273 20.7265 51.9171 20.7677 51.8984 20.8052C51.8796 20.8428 51.8527 20.8756 51.8197 20.9014C51.7878 20.9291 51.75 20.9491 51.7091 20.9598C51.6683 20.9705 51.6256 20.9718 51.5842 20.9634C51.5012 20.9512 51.4259 20.908 51.3735 20.8426C51.321 20.7767 51.2936 20.6944 51.296 20.6102C51.2954 20.5675 51.3049 20.5254 51.3238 20.4871C51.3426 20.4489 51.3703 20.4157 51.4045 20.3902Z"
        fill="white" />
    <path
        d="M50.193 24.5079C50.0746 24.3214 50.0043 24.1085 49.9885 23.8882C49.9722 23.6728 50.0196 23.4573 50.1248 23.2685C50.246 23.0544 50.4226 22.8767 50.636 22.7542C50.8438 22.617 51.0845 22.5379 51.3331 22.5249C51.55 22.519 51.7643 22.5726 51.9528 22.6799C52.1462 22.7889 52.3083 22.9457 52.4238 23.1353C52.53 23.2944 52.5908 23.4795 52.5995 23.6706C52.6082 23.8617 52.5646 24.0516 52.4733 24.2197H52.3773L52.8482 23.9935L53.1178 24.4273L51.0202 25.7286L50.729 25.2577L51.2774 24.9169L51.1906 25.047C51.128 25.0566 51.0643 25.0566 51.0016 25.047C50.9079 25.031 50.8164 25.0039 50.729 24.9664C50.6239 24.9245 50.5258 24.867 50.4377 24.796C50.3409 24.7141 50.2582 24.6167 50.193 24.5079ZM50.6608 24.3932C50.7278 24.5038 50.8176 24.5989 50.9242 24.6721C51.024 24.7394 51.139 24.7809 51.2588 24.7929C51.3807 24.807 51.5042 24.7954 51.6213 24.7588L52.0303 24.5048C52.1133 24.4167 52.1748 24.3107 52.21 24.1949C52.2431 24.0803 52.2515 23.9599 52.2348 23.8417C52.2177 23.7173 52.1744 23.598 52.1077 23.4916C52.0318 23.369 51.925 23.2686 51.7979 23.2004C51.6739 23.1323 51.5333 23.1001 51.392 23.1074C51.2354 23.1132 51.0834 23.1614 50.9521 23.2469C50.8245 23.3227 50.718 23.4292 50.6422 23.5567C50.5722 23.6859 50.537 23.8311 50.54 23.9781C50.5409 24.125 50.5827 24.2688 50.6608 24.3932Z"
        fill="white" />
    <path
        d="M53.9265 26.0601L53.4184 26.2894L53.4556 26.246C53.6551 26.2678 53.8448 26.3439 54.004 26.466C54.1673 26.5942 54.2891 26.7677 54.3541 26.9649C54.3958 27.081 54.4147 27.2041 54.4099 27.3274C54.4041 27.4362 54.3734 27.5422 54.32 27.6372C54.2627 27.7311 54.1815 27.8081 54.0845 27.8603L54.0536 27.8417C54.2448 27.8661 54.4257 27.9426 54.5765 28.0628C54.7273 28.183 54.8422 28.3423 54.9087 28.5233C54.9508 28.6212 54.9725 28.7266 54.9725 28.8331C54.9725 28.9397 54.9508 29.0451 54.9087 29.143C54.8669 29.2323 54.8079 29.3124 54.735 29.3789C54.6622 29.4454 54.577 29.4968 54.4842 29.5303L52.7616 30.1499L52.5726 29.6232L54.1062 29.081C54.2127 29.0428 54.3062 28.9751 54.3758 28.8858C54.4047 28.84 54.422 28.7879 54.4263 28.734C54.4307 28.68 54.4218 28.6258 54.4006 28.576C54.3541 28.4483 54.2671 28.3395 54.1527 28.2662C54.0321 28.188 53.8934 28.1421 53.7499 28.1329C53.5959 28.1211 53.4411 28.1401 53.2945 28.1887L52.1946 28.5791L52.0087 28.0524L53.5392 27.5071C53.6472 27.4699 53.7412 27.4008 53.8088 27.3088C53.8381 27.2591 53.8553 27.2032 53.8591 27.1456C53.8629 27.088 53.8531 27.0303 53.8305 26.9772C53.7841 26.8496 53.697 26.7407 53.5826 26.6674C53.4613 26.5907 53.323 26.545 53.1798 26.5342C53.0243 26.5211 52.8678 26.5423 52.7213 26.5961L51.6214 26.9277L51.4324 26.3979L53.7561 25.5768L53.9265 26.0601Z"
        fill="white" />
    <path
        d="M54.063 30.5155C54.2926 30.4808 54.5273 30.5099 54.7414 30.5995C54.9556 30.6891 55.1411 30.8358 55.2775 31.0237C55.4231 31.2241 55.5138 31.4591 55.5409 31.7053C55.5798 31.9475 55.553 32.1957 55.4634 32.4241C55.3796 32.6356 55.2392 32.82 55.0576 32.957C54.8694 33.0934 54.6501 33.1808 54.4196 33.2111C54.1891 33.2414 53.9547 33.2137 53.7377 33.1305C53.5261 33.0467 53.3418 32.9063 53.2048 32.7247C53.0568 32.5264 52.9648 32.2921 52.9383 32.0461C52.901 31.8033 52.9256 31.555 53.0096 31.3242C53.0876 31.1111 53.2226 30.9236 53.4 30.782C53.5921 30.6336 53.8216 30.5414 54.063 30.5155ZM54.1312 31.0701C53.9809 31.0881 53.8379 31.1447 53.716 31.2344C53.6028 31.3139 53.5113 31.4204 53.4495 31.5442C53.3908 31.6742 53.3704 31.8182 53.3907 31.9594C53.4081 32.1037 53.4661 32.2402 53.558 32.3529C53.6487 32.4616 53.7662 32.5448 53.8988 32.5945C54.0397 32.6445 54.1905 32.6604 54.3388 32.641C54.4885 32.6232 54.6314 32.5678 54.7539 32.4799C54.8686 32.4011 54.9613 32.2945 55.0235 32.17C55.0866 32.0392 55.1082 31.8922 55.0855 31.7487C55.0684 31.6055 55.0091 31.4707 54.915 31.3614C54.8218 31.2519 54.7024 31.1677 54.568 31.1166C54.4282 31.0664 54.2784 31.0505 54.1312 31.0701Z"
        fill="white" />
    <path
        d="M55.6338 34.5403L55.0327 34.562H55.1257C55.3076 34.6425 55.4578 34.7809 55.5532 34.9555C55.6553 35.1455 55.7046 35.3595 55.6958 35.5751C55.6951 35.7841 55.6141 35.9849 55.4696 36.1359C55.3997 36.2071 55.3155 36.2627 55.2226 36.299C55.1297 36.3353 55.0301 36.3516 54.9305 36.3466L53.1086 36.2877L53.1272 35.7269L54.7601 35.7796C54.8786 35.7852 54.9953 35.7478 55.0885 35.6743C55.1352 35.6319 55.1717 35.5795 55.1953 35.521C55.2189 35.4625 55.229 35.3995 55.2248 35.3366C55.2299 35.1997 55.1932 35.0646 55.1195 34.9493C55.0428 34.8288 54.936 34.7306 54.8096 34.6642C54.6611 34.5914 54.4979 34.5533 54.3325 34.5527L53.1768 34.5124L53.1954 33.9547L55.6586 34.0353L55.6338 34.5403Z"
        fill="white" />
    <path
        d="M52.7616 38.0476C52.8039 37.8348 52.9035 37.6377 53.0497 37.4775C53.1971 37.3178 53.3859 37.2019 53.595 37.1429C53.8273 37.0773 54.0723 37.071 54.3077 37.1243C54.5484 37.1673 54.7731 37.2743 54.9583 37.4341C55.1217 37.5801 55.2409 37.7691 55.3022 37.9794C55.3567 38.2013 55.3567 38.433 55.3022 38.6549C55.2632 38.8427 55.1828 39.0195 55.0668 39.1723C54.9578 39.3199 54.8112 39.4355 54.6423 39.5069L54.4564 39.4387L57.1086 39.9933L56.997 40.5355L52.4858 39.5906L52.5974 39.0484L53.1985 39.1754L53.0342 39.2064C52.908 39.0538 52.8151 38.8765 52.7616 38.6858C52.7107 38.4761 52.7107 38.2573 52.7616 38.0476ZM53.1892 38.314C53.1582 38.4455 53.1582 38.5823 53.1892 38.7137C53.2207 38.8271 53.2756 38.9326 53.3503 39.0236C53.4278 39.12 53.5263 39.1974 53.6384 39.2497L54.1001 39.3458C54.2209 39.3399 54.3386 39.306 54.444 39.2466C54.5488 39.1857 54.6396 39.1033 54.7104 39.005C54.7844 38.8979 54.8351 38.7765 54.8592 38.6487C54.8903 38.508 54.8839 38.3616 54.8406 38.2242C54.7977 38.0869 54.7185 37.9638 54.6113 37.8679C54.4966 37.7636 54.3549 37.6938 54.2023 37.6665C54.0526 37.6321 53.8964 37.6385 53.75 37.6851C53.6112 37.7336 53.4859 37.8143 53.3844 37.9206C53.2828 38.0302 53.2151 38.1669 53.1892 38.314Z"
        fill="white" />
    <path
        d="M53.437 43.2838C53.5084 43.3956 53.551 43.5233 53.5609 43.6556C53.5709 43.7917 53.543 43.9278 53.4804 44.0491C53.4218 44.1749 53.3296 44.2822 53.2139 44.3589C53.101 44.4298 52.9721 44.4714 52.839 44.4797C52.702 44.4885 52.5652 44.4607 52.4424 44.3992C52.3213 44.3398 52.2193 44.2474 52.1481 44.1327C52.075 44.0206 52.0323 43.8914 52.0242 43.7578C52.0182 43.619 52.0492 43.481 52.114 43.3581C52.171 43.2399 52.2601 43.14 52.3712 43.07C52.4824 42.9974 52.6105 42.9547 52.743 42.9461C52.878 42.937 53.0129 42.9649 53.1334 43.0266C53.2552 43.0846 53.3598 43.1732 53.437 43.2838Z"
        fill="white" />
    <path
        d="M48.802 46.41C48.9134 46.2768 49.0477 46.1645 49.1985 46.0785C49.3426 45.9944 49.5058 45.9486 49.6726 45.9453L49.7717 46.3294C49.6412 46.3437 49.5137 46.3782 49.3937 46.4317C49.2233 46.5104 49.0869 46.6479 49.0095 46.819C48.9824 46.878 48.9727 46.9436 48.9816 47.008C48.9967 47.0733 49.0326 47.1321 49.0839 47.1753C49.1127 47.2021 49.1471 47.2222 49.1846 47.234C49.2221 47.2458 49.2618 47.249 49.3008 47.2435C49.3839 47.2293 49.4638 47.1999 49.5363 47.1567C49.6168 47.1102 49.7005 47.0545 49.7872 46.9956C49.9398 46.8941 50.1158 46.8333 50.2984 46.819C50.4586 46.8122 50.6152 46.8677 50.7353 46.9739C50.8347 47.056 50.9105 47.1629 50.9553 47.2837C50.9997 47.4144 51.0083 47.5545 50.9801 47.6896C50.9452 47.8522 50.8683 48.0029 50.757 48.1265C50.6601 48.2468 50.5451 48.3513 50.4162 48.4363C50.2929 48.5157 50.1548 48.5695 50.0103 48.5943L49.8864 48.2039C49.9889 48.1984 50.0887 48.1687 50.1776 48.1172C50.2586 48.0764 50.3311 48.0207 50.3914 47.953C50.4358 47.9007 50.4705 47.8409 50.4936 47.7764C50.5167 47.7216 50.5253 47.6619 50.5184 47.6029C50.5089 47.5451 50.4779 47.4931 50.4317 47.4572C50.4052 47.431 50.3728 47.4114 50.3373 47.4001C50.3017 47.3887 50.264 47.386 50.2272 47.3922C50.1451 47.4069 50.0664 47.4363 49.9948 47.4789L49.75 47.6245C49.6531 47.6881 49.5492 47.7401 49.4402 47.7795C49.3405 47.8125 49.2349 47.8241 49.1304 47.8135C49.0149 47.797 48.907 47.7462 48.8205 47.6679C48.7104 47.5778 48.6259 47.4603 48.5758 47.3271C48.5227 47.1887 48.513 47.0374 48.5479 46.8933C48.5922 46.714 48.6794 46.5482 48.802 46.41Z"
        fill="white" />
    <path
        d="M47.7919 47.6431L50.8623 51.0823L50.4533 51.4479L48.647 49.4216L48.7214 49.4897C48.7672 49.6736 48.7619 49.8664 48.7059 50.0474C48.6399 50.2536 48.5176 50.4371 48.3527 50.5773C48.2015 50.7215 48.0008 50.8024 47.7919 50.8034C47.6919 50.8013 47.5935 50.7785 47.5028 50.7364C47.4121 50.6942 47.3312 50.6337 47.2652 50.5587L46.0537 49.1985L46.4689 48.8267L47.5564 50.0412C47.6364 50.1322 47.7463 50.1915 47.8662 50.2085C47.9293 50.2119 47.9923 50.2017 48.051 50.1788C48.1098 50.1558 48.163 50.1205 48.2071 50.0753C48.3091 49.9833 48.3804 49.8622 48.4115 49.7283C48.4486 49.5871 48.4486 49.4388 48.4115 49.2976C48.3614 49.142 48.2779 48.9993 48.1668 48.8794L47.3767 48.018L47.7919 47.6431Z"
        fill="white" />
    <path
        d="M46.7569 51.7143L46.2984 52.0242L44.8979 49.9917L45.3565 49.6818L46.7569 51.7143ZM47.2961 52.427C47.3214 52.4606 47.3382 52.4998 47.3452 52.5413C47.3522 52.5829 47.3492 52.6254 47.3363 52.6655C47.3188 52.7486 47.27 52.8218 47.2 52.87C47.1665 52.8946 47.1284 52.9123 47.0879 52.9218C47.0475 52.9314 47.0055 52.9328 46.9645 52.9258C46.9227 52.9218 46.8822 52.9087 46.8458 52.8875C46.8095 52.8663 46.7782 52.8375 46.754 52.8031C46.7299 52.7686 46.7135 52.7293 46.706 52.6879C46.6984 52.6466 46.7 52.604 46.7105 52.5633C46.7291 52.4814 46.7777 52.4096 46.8468 52.3619C46.9166 52.3141 47.0013 52.2932 47.0854 52.303C47.1287 52.3008 47.1718 52.3096 47.2108 52.3286C47.2499 52.3475 47.2834 52.3761 47.3085 52.4115L47.2961 52.427Z"
        fill="white" />
    <path
        d="M44.9167 52.8917L44.6069 52.3774L44.6688 52.4548C44.6846 52.6521 44.638 52.8494 44.5356 53.0187C44.42 53.2056 44.2548 53.3568 44.0585 53.4556C43.8757 53.558 43.6611 53.5879 43.4574 53.5393C43.361 53.5133 43.2712 53.4674 43.1937 53.4044C43.1163 53.3414 43.0531 53.2628 43.0081 53.1737L42.1592 51.5625L42.6549 51.2992L43.414 52.743C43.4691 52.8483 43.5588 52.9315 43.6681 52.9785C43.7282 52.9976 43.7918 53.0033 43.8545 52.9953C43.9171 52.9872 43.9772 52.9656 44.0306 52.932C44.152 52.8677 44.2514 52.7684 44.3156 52.6469C44.3823 52.518 44.4133 52.3736 44.4055 52.2287C44.394 52.0634 44.3464 51.9026 44.266 51.7577L43.7269 50.7353L44.2227 50.475L45.3722 52.6438L44.9167 52.8917Z"
        fill="white" />
    <path
        d="M40.3095 52.1729C40.5473 52.0862 40.8035 52.0627 41.0531 52.1047C41.2739 52.1439 41.4791 52.2449 41.6448 52.396C41.8199 52.5554 41.9493 52.7586 42.0197 52.9847C42.0948 53.2064 42.1056 53.4449 42.0507 53.6725C41.9993 53.9011 41.8929 54.1138 41.7409 54.2922C41.5796 54.4722 41.3732 54.6059 41.1429 54.6794C40.8672 54.7884 40.5604 54.7884 40.2847 54.6794C40.0022 54.5481 39.7681 54.3313 39.6154 54.0598L41.3226 52.7368L41.5519 53.0063L40.1669 54.1125L40.2506 53.9978C40.3368 54.1088 40.4513 54.1944 40.5821 54.2457C40.7293 54.3043 40.8934 54.3043 41.0407 54.2457C41.1748 54.2033 41.2948 54.1251 41.3877 54.0195C41.4768 53.9143 41.5357 53.7868 41.5581 53.6508C41.5814 53.5008 41.5665 53.3473 41.5147 53.2046C41.468 53.0571 41.3861 52.9231 41.2761 52.8142C41.1722 52.7137 41.0425 52.644 40.9012 52.6129C40.7756 52.589 40.6463 52.5933 40.5225 52.6254C40.3987 52.6576 40.2837 52.7168 40.1855 52.7988C40.1016 52.8698 40.0258 52.9498 39.9594 53.0373L39.5938 52.7275C39.6883 52.6094 39.7988 52.5051 39.9222 52.4177C40.0361 52.3143 40.1672 52.2314 40.3095 52.1729Z"
        fill="white" />
    <path d="M37.2979 57.6012L36.7402 57.6631L36.2476 53.0807L36.8022 53.0187L37.2979 57.6012Z"
        fill="white" />
    <path
        d="M35.4512 55.6028L34.8904 55.6213L34.813 53.1427L35.3738 53.1241L35.4512 55.6028ZM35.5132 56.4951C35.5153 56.5371 35.5077 56.5791 35.4911 56.6178C35.4744 56.6564 35.4491 56.6908 35.4172 56.7181C35.3569 56.778 35.2759 56.8123 35.191 56.8142C35.1072 56.817 35.0253 56.7883 34.9617 56.7336C34.9291 56.7074 34.9026 56.6744 34.8838 56.637C34.8651 56.5996 34.8547 56.5586 34.8533 56.5168C34.8503 56.4744 34.8572 56.432 34.8733 56.3928C34.8894 56.3536 34.9144 56.3186 34.9462 56.2906C35.0083 56.2339 35.0884 56.201 35.1724 56.1976C35.2557 56.1948 35.3372 56.2223 35.4017 56.2751C35.4359 56.3007 35.4637 56.3339 35.4831 56.3721C35.5024 56.4102 35.5127 56.4523 35.5132 56.4951Z"
        fill="white" />
    <path
        d="M33.5209 53.9297V54.4688L31.9346 55.5408L31.6248 55.231L33.5209 53.9297ZM32.6813 54.7166L31.6929 52.9909L32.3374 53.0435L33.081 54.4316L32.6813 54.7166ZM33.9702 53.1675L33.5984 57.7623L33.0407 57.7158L33.4125 53.1241L33.9702 53.1675Z"
        fill="white" />
    <path
        d="M30.1964 52.5974C30.4442 52.6489 30.6746 52.763 30.8657 52.9289C31.0327 53.0785 31.155 53.2716 31.2189 53.4866C31.278 53.7152 31.278 53.9551 31.2189 54.1837C31.1674 54.4121 31.0512 54.6208 30.8842 54.7848C30.7209 54.9437 30.5208 55.0597 30.3018 55.1225C30.0702 55.1924 29.8241 55.1988 29.5891 55.1411C29.298 55.0838 29.0392 54.919 28.8641 54.6795C28.6939 54.4238 28.6063 54.1221 28.6132 53.815L30.7603 53.5796L30.813 53.9266L29.0562 54.1496L29.1864 54.0939C29.2032 54.2334 29.2566 54.3659 29.3413 54.4781C29.4378 54.6027 29.5767 54.6875 29.7317 54.7166C29.8673 54.7556 30.0112 54.7556 30.1468 54.7166C30.2769 54.673 30.3934 54.5961 30.4846 54.4936C30.5822 54.3777 30.6493 54.2392 30.6798 54.0908C30.7201 53.9406 30.7201 53.7824 30.6798 53.6322C30.6456 53.4921 30.5713 53.3651 30.466 53.2666C30.3562 53.1652 30.2215 53.0946 30.0756 53.0621C29.9732 53.0428 29.8681 53.0428 29.7657 53.0621C29.6593 53.0783 29.5553 53.1074 29.4559 53.1489L29.3072 52.6903C29.4517 52.6364 29.6028 52.602 29.7564 52.5881C29.9027 52.5691 30.0511 52.5722 30.1964 52.5974Z"
        fill="white" />
    <path
        d="M25.9176 51.0079C26.1121 51.1075 26.2783 51.2546 26.4009 51.4355C26.5199 51.6126 26.5856 51.8201 26.5899 52.0335C26.5901 52.2791 26.526 52.5205 26.404 52.7337C26.2907 52.9565 26.1208 53.1457 25.9114 53.2821C25.7255 53.3987 25.5111 53.462 25.2917 53.4649C25.069 53.4675 24.8493 53.4131 24.6534 53.3069C24.4814 53.219 24.3364 53.0862 24.2339 52.9225C24.1313 52.7589 24.075 52.5705 24.0709 52.3774L24.1391 52.334L23.8479 52.7647L23.3955 52.523L24.5636 50.3542L25.05 50.6175L24.7402 51.1845V51.0265C24.7936 50.9931 24.8508 50.966 24.9106 50.946C25.0003 50.9156 25.0926 50.8939 25.1863 50.8809C25.2994 50.8655 25.4141 50.8655 25.5272 50.8809C25.6639 50.8993 25.7962 50.9423 25.9176 51.0079ZM25.5705 51.3394C25.4571 51.2766 25.3312 51.2395 25.2018 51.231C25.0829 51.2233 24.9638 51.2446 24.8548 51.293C24.7419 51.3439 24.6422 51.4203 24.5636 51.516L24.3343 51.9405C24.3064 52.0566 24.3064 52.1776 24.3343 52.2937C24.3624 52.4066 24.4141 52.5122 24.4861 52.6036C24.5634 52.7021 24.6605 52.7834 24.7712 52.8421C24.8969 52.9122 25.0394 52.9465 25.1832 52.9413C25.3257 52.9365 25.4645 52.8949 25.586 52.8204C25.7182 52.7355 25.8251 52.6168 25.8959 52.4765C25.9699 52.3431 26.0063 52.1921 26.0012 52.0397C25.9989 51.8929 25.9572 51.7495 25.8804 51.6245C25.8053 51.5028 25.6981 51.4042 25.5705 51.3394Z"
        fill="white" />
    <path
        d="M21.7999 48.0924C21.9592 48.2395 22.0741 48.4285 22.1314 48.6377C22.1902 48.8464 22.1902 49.0673 22.1314 49.2759C22.065 49.5099 21.9403 49.7231 21.7689 49.8956C21.6012 50.0785 21.387 50.2123 21.1492 50.2829C20.9384 50.3417 20.7156 50.3417 20.5048 50.2829C20.2869 50.2163 20.0882 50.0984 19.9254 49.939C19.7873 49.8055 19.6813 49.6423 19.6156 49.4618C19.5465 49.2921 19.5251 49.1068 19.5536 48.9258L19.7116 48.805L17.8309 50.757L17.4343 50.3728L20.6318 47.0544L21.0408 47.4324L20.6163 47.8724L20.6783 47.7175C20.8746 47.6917 21.0741 47.7075 21.2639 47.764C21.4665 47.8284 21.6504 47.9411 21.7999 48.0924ZM21.3506 48.3062C21.2532 48.2126 21.137 48.1408 21.0098 48.0955C20.8938 48.0585 20.7715 48.0459 20.6504 48.0583C20.5267 48.074 20.408 48.1175 20.3034 48.1853L19.975 48.5231C19.9173 48.6289 19.8845 48.7465 19.8789 48.867C19.8756 48.989 19.8977 49.1103 19.944 49.2233C19.9966 49.3398 20.0713 49.445 20.164 49.5331C20.2676 49.632 20.3944 49.7034 20.5327 49.7407C20.6726 49.7794 20.8203 49.7794 20.9602 49.7407C21.109 49.6986 21.243 49.616 21.3475 49.5021C21.455 49.3932 21.531 49.2572 21.5675 49.1086C21.6046 48.9664 21.6046 48.8171 21.5675 48.6749C21.5309 48.5342 21.4558 48.4065 21.3506 48.3062Z"
        fill="white" />
    <path
        d="M17.521 48.52C17.4887 48.5469 17.4508 48.5662 17.41 48.5763C17.3693 48.5865 17.3267 48.5874 17.2855 48.5788C17.2018 48.5643 17.126 48.5204 17.0718 48.4549C17.0448 48.423 17.0246 48.3859 17.0124 48.346C17.0001 48.306 16.9961 48.264 17.0005 48.2225C17.0013 48.1806 17.0115 48.1393 17.0302 48.1018C17.049 48.0643 17.0759 48.0314 17.1089 48.0056C17.1412 47.9785 17.179 47.959 17.2197 47.9482C17.2604 47.9375 17.303 47.936 17.3444 47.9437C17.427 47.9591 17.5015 48.0029 17.5551 48.0676C17.6092 48.135 17.6368 48.2198 17.6326 48.3062C17.6318 48.348 17.6214 48.3891 17.602 48.4262C17.5827 48.4633 17.5549 48.4954 17.521 48.52ZM18.1965 47.9344L17.8463 47.4975L19.7673 45.9483L20.1112 46.3914L18.1965 47.9344Z"
        fill="white" />
    <path
        d="M18.7512 44.3992C18.8668 44.5865 18.9349 44.7992 18.9495 45.0189C18.9658 45.2343 18.9184 45.4498 18.8132 45.6385C18.6831 45.8484 18.5053 46.0246 18.2943 46.1527C18.0832 46.2809 17.8449 46.3573 17.5987 46.3759C17.3818 46.3784 17.1682 46.3239 16.979 46.2179C16.7865 46.1075 16.6254 45.9496 16.5111 45.7594C16.4059 45.5997 16.3462 45.4143 16.3385 45.2232C16.3309 45.0321 16.3756 44.8425 16.4678 44.6749L16.5638 44.6594L16.0929 44.8825L15.8264 44.4457L17.9271 43.1599L18.2183 43.6308L17.6544 43.9685L17.7412 43.8353C17.8047 43.8339 17.8682 43.8401 17.9302 43.8539C18.0225 43.873 18.1128 43.901 18.1997 43.9375C18.3055 43.9794 18.4038 44.038 18.491 44.111C18.5936 44.1915 18.6816 44.289 18.7512 44.3992ZM18.2803 44.5138C18.217 44.4014 18.1278 44.3058 18.02 44.235C17.9197 44.1681 17.8051 44.1256 17.6854 44.111C17.5626 44.0993 17.4388 44.1152 17.3229 44.1575L16.9108 44.4085C16.8286 44.4971 16.7672 44.6029 16.7311 44.7183C16.6972 44.8317 16.6877 44.9511 16.7032 45.0684C16.7203 45.1928 16.7636 45.3121 16.8303 45.4185C16.9017 45.5494 17.0093 45.6569 17.1401 45.7284C17.2644 45.796 17.4046 45.8292 17.546 45.8244C17.6994 45.8154 17.8482 45.7686 17.979 45.688C18.1099 45.6074 18.2187 45.4957 18.2958 45.3628C18.3685 45.2345 18.4049 45.0888 18.4011 44.9414C18.4044 44.79 18.3623 44.6411 18.2803 44.5138Z"
        fill="white" />
    <path
        d="M15.0271 42.8345L15.5352 42.6083L15.5011 42.6517C15.298 42.6311 15.1052 42.5519 14.9462 42.4237C14.7872 42.2956 14.6689 42.124 14.6057 41.9298C14.5641 41.8126 14.5452 41.6885 14.5499 41.5642C14.5577 41.4553 14.5894 41.3495 14.6429 41.2544C14.7002 41.1604 14.7814 41.0834 14.8784 41.0313L14.9093 41.0499C14.7147 41.0226 14.5314 40.9422 14.3795 40.8175C14.2368 40.6967 14.1296 40.5392 14.0697 40.362C14.0276 40.2642 14.0059 40.1588 14.0059 40.0522C14.0059 39.9457 14.0276 39.8402 14.0697 39.7424C14.1563 39.5632 14.3099 39.4253 14.4973 39.3582L16.223 38.7571L16.4089 39.2838L14.8598 39.8198C14.7535 39.8569 14.66 39.9236 14.5902 40.0119C14.5587 40.0601 14.5397 40.1153 14.5348 40.1726C14.5299 40.23 14.5394 40.2876 14.5623 40.3404C14.6088 40.468 14.6958 40.5769 14.8102 40.6502C14.9294 40.7298 15.067 40.7778 15.2099 40.7896C15.3649 40.8016 15.5208 40.7826 15.6684 40.7338L16.7683 40.3497L16.9542 40.8795L15.4051 41.4124C15.2982 41.4499 15.2052 41.519 15.1386 41.6107C15.1073 41.6601 15.0884 41.7163 15.0836 41.7746C15.0787 41.8328 15.088 41.8914 15.1107 41.9453C15.1572 42.0729 15.2442 42.1818 15.3586 42.2551C15.4797 42.3462 15.6231 42.4029 15.7738 42.4193C15.9291 42.435 16.086 42.4148 16.2323 42.3605L17.3291 41.9794L17.5119 42.5092L15.1851 43.3179L15.0271 42.8345Z"
        fill="white" />
    <path
        d="M14.9154 38.3915C14.6853 38.4248 14.4505 38.3945 14.2364 38.3038C14.0223 38.2132 13.8371 38.0656 13.7009 37.8772C13.5582 37.6743 13.4687 37.4389 13.4406 37.1924C13.407 36.9496 13.4358 36.7023 13.5243 36.4736C13.6094 36.2629 13.7509 36.0796 13.9333 35.9438C14.1199 35.8049 14.3402 35.7182 14.5715 35.6929C14.8031 35.6604 15.0392 35.6893 15.2562 35.7765C15.4659 35.8622 15.6481 36.0036 15.783 36.1855C15.9299 36.3852 16.0208 36.6205 16.0463 36.8671C16.082 37.11 16.0575 37.3579 15.9751 37.589C15.8948 37.8017 15.7576 37.9882 15.5785 38.1281C15.3861 38.2756 15.1565 38.3667 14.9154 38.3915ZM14.8442 37.8214C14.9938 37.8031 15.1365 37.7478 15.2593 37.6603C15.3725 37.5807 15.4641 37.4743 15.5258 37.3505C15.5869 37.2212 15.6085 37.0768 15.5878 36.9353C15.5728 36.7909 15.5157 36.654 15.4236 36.5418C15.3345 36.4305 15.2166 36.3458 15.0827 36.297C14.9425 36.2439 14.791 36.2279 14.6428 36.2506C14.4936 36.2667 14.3509 36.32 14.2276 36.4055C14.1128 36.4849 14.0192 36.5913 13.9549 36.7153C13.8975 36.8535 13.8835 37.0058 13.9147 37.1522C13.9309 37.2965 13.9903 37.4325 14.0851 37.5426C14.1776 37.6507 14.2959 37.7338 14.429 37.7842C14.5626 37.829 14.7048 37.8417 14.8442 37.8214Z"
        fill="white" />
    <path
        d="M13.3664 34.3389L13.9674 34.3203H13.8714C13.6918 34.2355 13.5442 34.0954 13.45 33.9206C13.347 33.731 13.2988 33.5164 13.3106 33.3009C13.31 33.0917 13.3911 32.8904 13.5368 32.7401C13.6073 32.6691 13.6921 32.6139 13.7856 32.5781C13.879 32.5423 13.979 32.5268 14.079 32.5326L15.8977 32.6007L15.8791 33.1615L14.2463 33.0965C14.1279 33.0922 14.0117 33.1295 13.9179 33.2018C13.8713 33.2444 13.8347 33.2968 13.8106 33.3551C13.7865 33.4135 13.7755 33.4764 13.7784 33.5395C13.7718 33.6761 13.8075 33.8113 13.8807 33.9268C13.9564 34.048 14.0634 34.1465 14.1905 34.2119C14.3386 34.2867 14.5018 34.3269 14.6677 34.3296L15.8233 34.373L15.8016 34.9338L13.3385 34.8377L13.3664 34.3389Z"
        fill="white" />
    <path
        d="M16.257 30.844C16.2143 31.0572 16.1135 31.2545 15.9658 31.4141C15.8173 31.5718 15.6289 31.6864 15.4205 31.7456C15.1868 31.8063 14.9415 31.8063 14.7079 31.7456C14.4667 31.7037 14.2417 31.5966 14.0572 31.4358C13.8955 31.2882 13.7785 31.0982 13.7195 30.8873C13.6584 30.668 13.6531 30.4369 13.704 30.215C13.7478 30.0333 13.8302 29.8632 13.9457 29.7162C14.0539 29.5686 14.2008 29.4539 14.3702 29.3847L14.5561 29.4528L11.907 28.8827L12.0216 28.3436L16.5297 29.3134L16.412 29.8525L15.8109 29.7162L15.9782 29.6852C16.1031 29.8389 16.1939 30.0174 16.2446 30.2088C16.3012 30.4163 16.3054 30.6345 16.257 30.844ZM15.8326 30.5744C15.862 30.4439 15.862 30.3084 15.8326 30.1778C15.8036 30.0585 15.7497 29.9466 15.6746 29.8494C15.5945 29.7535 15.4953 29.6754 15.3833 29.6201L14.9248 29.521C14.804 29.5268 14.6862 29.5608 14.5808 29.6201C14.4752 29.6811 14.3834 29.7634 14.3113 29.8618C14.238 29.9684 14.1864 30.0884 14.1595 30.215C14.1282 30.3579 14.1357 30.5066 14.1812 30.6457C14.2228 30.7837 14.3009 30.9079 14.4073 31.0051C14.5217 31.1103 14.6635 31.1812 14.8163 31.2096C14.966 31.244 15.1223 31.2376 15.2687 31.191C15.4083 31.1443 15.534 31.0634 15.6343 30.9555C15.7351 30.8498 15.8039 30.7177 15.8326 30.5744Z"
        fill="white" />
    <path
        d="M15.6156 25.6016C15.5446 25.4887 15.5031 25.3598 15.4947 25.2267C15.4859 25.0913 15.5148 24.9562 15.5784 24.8363C15.6369 24.7104 15.7292 24.6032 15.8448 24.5265C15.9576 24.4557 16.0867 24.4151 16.2197 24.4087C16.3571 24.3995 16.4944 24.4285 16.6163 24.4924C16.7432 24.5494 16.8508 24.6419 16.9262 24.7588C16.997 24.8716 17.0375 25.0007 17.0439 25.1337C17.0521 25.2728 17.021 25.4113 16.954 25.5334C16.8948 25.6512 16.8049 25.7507 16.6938 25.8216C16.5822 25.8929 16.4542 25.9344 16.322 25.9424C16.1866 25.9519 16.0512 25.9229 15.9316 25.8588C15.805 25.803 15.6958 25.7142 15.6156 25.6016Z"
        fill="white" />
</svg>