<svg width="122" height="97" viewBox="0 0 122 97" fill="none" xmlns="http://www.w3.org/2000/svg">
<g filter="url(#filter0_ddddd_13424_11907)">
<path d="M46.1413 58.7138L46.1416 58.7137C59.7052 50.8595 77.7609 46.8208 93.3661 47.3102C93.988 47.3301 94.6075 47.2239 95.1872 46.998C95.7673 46.7718 96.2955 46.4303 96.7397 45.9941L95.8522 45.0904L96.7397 45.9941C97.1839 45.558 97.5348 45.0361 97.7711 44.4602C98.0072 43.8846 98.1237 43.2673 98.1137 42.6454C98.1014 41.8336 98.0791 41.054 98.0571 40.284C98.0273 39.244 97.9981 38.2214 97.9945 37.1604V37.1601C97.9906 36.084 97.6078 35.0438 96.9134 34.2215L95.9456 35.0387L96.9134 34.2215C96.2191 33.3993 95.2576 32.8473 94.1975 32.6614L94.1947 32.6609C84.6387 31.0077 72.5539 31.0132 63.6 33.6213C54.1055 36.3867 45.3003 42.239 39.8731 50.5885L39.8723 50.5898C39.3374 51.4148 39.0827 52.39 39.1462 53.3711C39.1462 53.3715 39.1462 53.372 39.1463 53.3725L39.2508 55.0348L39.2508 55.0354C39.4664 58.4375 43.192 60.4207 46.1413 58.7138Z" fill="#FFADE3" stroke="white" stroke-width="2.53333"/>
<path d="M98.0354 36.0666L98.0353 36.0656C97.9389 35.0218 97.8798 34.1545 98.0361 33.3208L98.0363 33.3198C98.0463 33.2664 98.0618 33.1931 98.0801 33.1066C98.1367 32.8389 98.2202 32.444 98.2502 32.1159C98.2889 31.6933 98.2773 31.1327 98.0087 30.5776C98.0373 30.4282 98.0741 30.1361 97.9886 29.8203C97.8443 29.2879 97.4606 28.9739 97.1121 28.811L97.1113 28.8106C92.8802 26.8368 85.9073 25.2435 81.333 24.8341C75.2369 24.2879 69.2434 26.1043 63.8354 28.4064C53.6524 32.7398 43.4616 40.0796 40.0164 50.9647L40.0154 50.9678C39.8211 51.5874 39.7874 52.246 39.9175 52.8821C39.9177 52.8831 39.9179 52.8842 39.9181 52.8853L39.9704 53.1463L39.9708 53.1483C40.5895 56.21 44.3977 57.3194 46.5643 55.0676C57.9581 43.2257 77.2564 37.3481 93.4848 40.232C94.0721 40.3376 94.6758 40.3065 95.2491 40.1411C95.8229 39.9755 96.3509 39.6798 96.7917 39.2768C97.2325 38.8738 97.5743 38.3745 97.7901 37.8176C98.0059 37.2607 98.0899 36.6614 98.0354 36.0666ZM97.9676 30.7786C97.967 30.7848 97.9665 30.7881 97.9664 30.7883C97.9663 30.7884 97.9666 30.7853 97.9676 30.7786Z" fill="#FFF0E9" stroke="white" stroke-width="2.53333"/>
<path d="M36.957 46.8464L36.9589 46.8429C39.2939 42.4622 43.1555 38.6184 46.5832 35.2066C47.0442 34.7477 47.4974 34.2966 47.9379 33.8531L47.9379 33.8531C55.7741 25.9648 65.3917 22.8768 76.2818 22.0617C82.7097 21.58 89.355 21.4676 95.7864 22.8557L95.787 22.8558C96.4237 22.9936 96.9929 23.3485 97.3965 23.8603C97.7997 24.3716 98.0123 25.0074 97.9972 25.6586C97.9772 26.5571 98.0047 27.4638 98.0402 28.4008C98.0456 28.5436 98.0512 28.6873 98.0568 28.8318C98.0877 29.6251 98.1196 30.4425 98.1247 31.2587M36.957 46.8464L64.394 34.8938C73.6911 31.2493 84.8813 30.922 94.4841 33.9446C94.9049 34.0773 95.351 34.1086 95.7862 34.0362L95.5782 32.7867L95.7862 34.0362C96.2213 33.9637 96.6333 33.7896 96.9885 33.5276C97.3437 33.2657 97.6318 32.9234 97.8294 32.5287C98.0266 32.1346 98.1278 31.6995 98.1247 31.2587M36.957 46.8464C36.782 47.1771 36.6755 47.5397 36.6438 47.9124C36.6121 48.2848 36.6556 48.6597 36.7718 49.0148C36.7719 49.0153 36.7721 49.0157 36.7722 49.0161L37.8642 52.3719C37.8642 52.372 37.8643 52.3722 37.8643 52.3723M36.957 46.8464L37.8643 52.3723M98.1247 31.2587L96.858 31.2666M98.1247 31.2587C98.1247 31.258 98.1247 31.2572 98.1247 31.2565L96.858 31.2666M96.858 31.2666C96.8531 30.473 96.8222 29.6795 96.7913 28.8859C96.749 27.8009 96.7067 26.7157 96.7309 25.6304L96.858 31.2666ZM37.8643 52.3723L37.8645 52.3729L39.069 51.9809L37.8643 52.3723Z" fill="#FED33D" stroke="white" stroke-width="2.53333"/>
<mask id="path-4-outside-1_13424_11907" maskUnits="userSpaceOnUse" x="17.998" y="35.5039" width="41" height="41" fill="black">
<rect fill="white" x="17.998" y="35.5039" width="41" height="41"/>
<path d="M31.99 50.097L39.9977 38.9453C40.1103 38.7896 40.263 38.6672 40.4396 38.5911C40.6162 38.515 40.8102 38.488 41.0009 38.513C41.1917 38.5379 41.3721 38.614 41.5231 38.733C41.674 38.852 41.7898 39.0096 41.8583 39.189C43.5794 43.7444 46.3363 50.9489 46.7859 51.3744C47.1565 51.7241 51.6213 53.372 54.9433 54.572C55.1398 54.6429 55.3111 54.7699 55.4359 54.9373C55.5607 55.1046 55.6334 55.3048 55.6451 55.5131C55.6567 55.7213 55.6067 55.9284 55.5014 56.1085C55.3961 56.2887 55.24 56.4339 55.0526 56.5263C51.743 58.1572 47.3069 60.3877 47.0929 60.7629C46.8921 61.1165 46.9627 68.0587 47.0294 72.8113C47.0324 73.0175 46.9754 73.2201 46.8651 73.3946C46.7549 73.569 46.5962 73.7076 46.4084 73.7937C46.2207 73.8798 46.0119 73.9095 45.8075 73.8793C45.6031 73.8492 45.4119 73.7603 45.2571 73.6237C42.6351 71.2958 40.2828 68.682 38.2441 65.8313C38.0904 65.6141 37.8611 65.462 37.601 65.4048C37.3408 65.3475 37.0686 65.3893 36.8377 65.5218C33.3503 67.53 29.6861 69.2156 25.891 70.5576C25.7024 70.6239 25.4989 70.6359 25.3039 70.5922C25.1088 70.5485 24.93 70.4509 24.7879 70.3105C24.6457 70.1701 24.5461 69.9927 24.5003 69.7985C24.4545 69.6043 24.4644 69.4011 24.5289 69.2122L27.4206 60.7018C27.4761 60.5383 27.491 60.3638 27.464 60.1934C27.437 60.0229 27.3689 59.8615 27.2655 59.7231L21.2123 51.6506C21.0895 51.4876 21.0161 51.2929 21.001 51.0895C20.9858 50.8862 21.0295 50.6828 21.1269 50.5035C21.2242 50.3242 21.3711 50.1766 21.5501 50.0782C21.729 49.9798 21.9325 49.9348 22.1364 49.9485L31.0519 50.5357C31.2328 50.5484 31.4139 50.5147 31.578 50.4379C31.7422 50.3612 31.884 50.2438 31.99 50.097Z"/>
</mask>
<path d="M31.99 50.097L39.9977 38.9453C40.1103 38.7896 40.263 38.6672 40.4396 38.5911C40.6162 38.515 40.8102 38.488 41.0009 38.513C41.1917 38.5379 41.3721 38.614 41.5231 38.733C41.674 38.852 41.7898 39.0096 41.8583 39.189C43.5794 43.7444 46.3363 50.9489 46.7859 51.3744C47.1565 51.7241 51.6213 53.372 54.9433 54.572C55.1398 54.6429 55.3111 54.7699 55.4359 54.9373C55.5607 55.1046 55.6334 55.3048 55.6451 55.5131C55.6567 55.7213 55.6067 55.9284 55.5014 56.1085C55.3961 56.2887 55.24 56.4339 55.0526 56.5263C51.743 58.1572 47.3069 60.3877 47.0929 60.7629C46.8921 61.1165 46.9627 68.0587 47.0294 72.8113C47.0324 73.0175 46.9754 73.2201 46.8651 73.3946C46.7549 73.569 46.5962 73.7076 46.4084 73.7937C46.2207 73.8798 46.0119 73.9095 45.8075 73.8793C45.6031 73.8492 45.4119 73.7603 45.2571 73.6237C42.6351 71.2958 40.2828 68.682 38.2441 65.8313C38.0904 65.6141 37.8611 65.462 37.601 65.4048C37.3408 65.3475 37.0686 65.3893 36.8377 65.5218C33.3503 67.53 29.6861 69.2156 25.891 70.5576C25.7024 70.6239 25.4989 70.6359 25.3039 70.5922C25.1088 70.5485 24.93 70.4509 24.7879 70.3105C24.6457 70.1701 24.5461 69.9927 24.5003 69.7985C24.4545 69.6043 24.4644 69.4011 24.5289 69.2122L27.4206 60.7018C27.4761 60.5383 27.491 60.3638 27.464 60.1934C27.437 60.0229 27.3689 59.8615 27.2655 59.7231L21.2123 51.6506C21.0895 51.4876 21.0161 51.2929 21.001 51.0895C20.9858 50.8862 21.0295 50.6828 21.1269 50.5035C21.2242 50.3242 21.3711 50.1766 21.5501 50.0782C21.729 49.9798 21.9325 49.9348 22.1364 49.9485L31.0519 50.5357C31.2328 50.5484 31.4139 50.5147 31.578 50.4379C31.7422 50.3612 31.884 50.2438 31.99 50.097Z" fill="#5C59ED"/>
<path d="M39.9977 38.9453L37.9447 37.4611L37.9399 37.4677L39.9977 38.9453ZM41.8583 39.189L44.2282 38.2936L44.2251 38.2855L41.8583 39.189ZM46.7859 51.3744L45.0446 53.2144L45.0472 53.2169L46.7859 51.3744ZM54.9433 54.572L54.0826 56.9546L54.0833 56.9549L54.9433 54.572ZM55.0526 56.5263L53.9331 54.2537L53.9328 54.2539L55.0526 56.5263ZM47.0929 60.7629L44.8922 59.508L44.89 59.5119L47.0929 60.7629ZM47.0294 72.8113L44.4963 72.8469L44.4963 72.8487L47.0294 72.8113ZM45.2571 73.6237L43.5752 75.5181L43.5803 75.5227L45.2571 73.6237ZM38.2441 65.8313L36.176 67.2945L36.1835 67.3049L38.2441 65.8313ZM36.8377 65.5218L35.5767 63.3246L35.5736 63.3264L36.8377 65.5218ZM25.891 70.5576L26.7309 72.9477L26.7356 72.946L25.891 70.5576ZM24.5289 69.2122L26.9264 70.0305L26.9275 70.0272L24.5289 69.2122ZM27.4206 60.7018L29.8192 61.5168L29.8193 61.5167L27.4206 60.7018ZM27.2655 59.7231L29.2953 58.2072L29.2923 58.2033L27.2655 59.7231ZM21.2123 51.6506L23.2391 50.1308L23.2354 50.1258L21.2123 51.6506ZM22.1364 49.9485L21.9668 52.4761L21.9699 52.4763L22.1364 49.9485ZM31.0519 50.5357L31.2288 48.0085L31.2184 48.0079L31.0519 50.5357ZM34.0478 51.5746L42.0555 40.4229L37.9399 37.4677L29.9322 48.6194L34.0478 51.5746ZM42.0507 40.4295C41.8952 40.6446 41.6848 40.813 41.4422 40.9176L39.437 36.2646C38.8412 36.5214 38.3253 36.9346 37.9447 37.4611L42.0507 40.4295ZM41.4422 40.9176C41.1996 41.0221 40.9335 41.0591 40.6719 41.0248L41.3299 36.0011C40.6869 35.9168 40.0328 36.0078 39.437 36.2646L41.4422 40.9176ZM40.6719 41.0248C40.4103 40.9906 40.1624 40.8863 39.9545 40.7223L43.0916 36.7436C42.5818 36.3417 41.973 36.0853 41.3299 36.0011L40.6719 41.0248ZM39.9545 40.7223C39.7465 40.5583 39.5863 40.3407 39.4916 40.0925L44.2251 38.2855C43.9933 37.6785 43.6016 37.1457 43.0916 36.7436L39.9545 40.7223ZM39.4885 40.0844C40.3498 42.3639 41.4753 45.3199 42.4438 47.7638C42.9269 48.9828 43.3787 50.0941 43.7429 50.9366C43.9235 51.3544 44.0944 51.7338 44.2442 52.0371C44.3179 52.1865 44.4016 52.348 44.4902 52.4991C44.5337 52.5733 44.7273 52.9141 45.0446 53.2144L48.5272 49.5343C48.6916 49.6899 48.7877 49.8268 48.8095 49.8578C48.8281 49.8843 48.8411 49.9044 48.8483 49.9157C48.8557 49.9275 48.8599 49.9345 48.8606 49.9358C48.8615 49.9373 48.8552 49.9266 48.8411 49.9C48.8275 49.8742 48.8096 49.8392 48.7872 49.7938C48.6934 49.6038 48.5617 49.315 48.3937 48.9263C48.0607 48.156 47.6315 47.1017 47.154 45.897C46.2014 43.4934 45.088 40.5695 44.2282 38.2936L39.4885 40.0844ZM45.0472 53.2169C45.2891 53.4451 45.5356 53.5902 45.6211 53.6403C45.7472 53.7142 45.8749 53.7802 45.9864 53.8352C46.2115 53.9462 46.4783 54.0649 46.7576 54.1838C47.322 54.424 48.0518 54.713 48.8499 55.0194C50.4521 55.6345 52.4182 56.3534 54.0826 56.9546L55.8039 52.1893C54.1463 51.5905 52.219 50.8856 50.6657 50.2893C49.8861 49.99 49.2226 49.7264 48.7418 49.5218C48.4985 49.4182 48.3297 49.3415 48.2268 49.2908C48.1742 49.2648 48.1648 49.2584 48.1831 49.2691C48.1929 49.2749 48.2257 49.2943 48.2722 49.3264C48.3108 49.3531 48.4085 49.4223 48.5246 49.5319L45.0472 53.2169ZM54.0833 56.9549C53.8134 56.8575 53.5774 56.6828 53.4051 56.4517L57.4668 53.4228C57.0449 52.8571 56.4662 52.4283 55.8033 52.1891L54.0833 56.9549ZM53.4051 56.4517C53.2327 56.2205 53.1318 55.9433 53.1157 55.6545L58.1744 55.3716C58.135 54.6664 57.8887 53.9887 57.4668 53.4228L53.4051 56.4517ZM53.1157 55.6545C53.0995 55.3656 53.1689 55.0788 53.3145 54.8297L57.6883 57.3873C58.0446 56.778 58.2139 56.077 58.1744 55.3716L53.1157 55.6545ZM53.3145 54.8297C53.4601 54.5808 53.6754 54.3807 53.9331 54.2537L56.1721 58.7988C56.8046 58.4872 57.332 57.9966 57.6883 57.3873L53.3145 54.8297ZM53.9328 54.2539C52.2744 55.0711 50.3165 56.047 48.7401 56.8694C47.9557 57.2787 47.2398 57.6634 46.6947 57.9781C46.4266 58.1329 46.1638 58.2914 45.9431 58.4404C45.8353 58.5132 45.6994 58.6092 45.5645 58.7211C45.5054 58.77 45.153 59.0507 44.8922 59.508L49.2936 62.0178C49.1519 62.2664 49.0015 62.4263 48.9464 62.4834C48.8765 62.5556 48.8208 62.6028 48.798 62.6218C48.7532 62.6589 48.7377 62.6669 48.7782 62.6396C48.854 62.5885 48.9987 62.4984 49.2282 62.3659C49.6785 62.1059 50.3186 61.7607 51.0837 61.3615C52.6062 60.5672 54.5212 59.6124 56.1724 58.7987L53.9328 54.2539ZM44.89 59.5119C44.7039 59.8396 44.6324 60.1381 44.6133 60.2163C44.5823 60.344 44.5635 60.4578 44.552 60.5359C44.5286 60.6949 44.5138 60.859 44.5033 61.0011C44.4818 61.2933 44.4671 61.6585 44.4565 62.059C44.435 62.8686 44.4271 63.9453 44.4275 65.1384C44.4284 67.5307 44.4629 70.469 44.4963 72.8469L49.5624 72.7758C49.5291 70.401 49.495 67.4919 49.4942 65.1365C49.4937 63.9558 49.5017 62.9336 49.5213 62.1936C49.5313 61.8193 49.5435 61.547 49.5563 61.3733C49.563 61.2824 49.5672 61.2565 49.5648 61.2726C49.5638 61.2793 49.556 61.3335 49.5364 61.4139C49.5289 61.4448 49.4694 61.7083 49.2958 62.0139L44.89 59.5119ZM44.4963 72.8487C44.4921 72.5629 44.5712 72.2823 44.7237 72.041L49.0065 74.7481C49.3795 74.158 49.5727 73.4721 49.5624 72.774L44.4963 72.8487ZM44.7237 72.041C44.8761 71.7999 45.0949 71.609 45.3528 71.4908L47.464 76.0966C48.0975 75.8063 48.6336 75.3381 49.0065 74.7481L44.7237 72.041ZM45.3528 71.4908C45.6107 71.3726 45.8972 71.3318 46.1775 71.3732L45.4374 76.3855C46.1266 76.4873 46.8306 76.387 47.464 76.0966L45.3528 71.4908ZM46.1775 71.3732C46.4578 71.4146 46.7207 71.5364 46.9339 71.7247L43.5803 75.5227C44.1031 75.9843 44.7483 76.2838 45.4374 76.3855L46.1775 71.3732ZM46.9391 71.7293C44.4586 69.527 42.2332 67.0543 40.3047 64.3576L36.1835 67.3049C38.3323 70.3097 40.8117 73.0646 43.5752 75.5181L46.9391 71.7293ZM40.3121 64.368C39.7937 63.6353 39.0207 63.1232 38.1454 62.9306L37.0565 67.8789C36.7015 67.8008 36.3872 67.5929 36.176 67.2945L40.3121 64.368ZM38.1454 62.9306C37.2702 62.738 36.3543 62.8783 35.5767 63.3246L38.0988 67.7189C37.783 67.9002 37.4114 67.957 37.0565 67.8789L38.1454 62.9306ZM35.5736 63.3264C32.2199 65.2576 28.6961 66.8786 25.0464 68.1692L26.7356 72.946C30.6761 71.5526 34.4807 69.8023 38.1019 67.7172L35.5736 63.3264ZM25.0511 68.1676C25.3103 68.0765 25.5897 68.0601 25.8577 68.1201L24.75 73.0642C25.4081 73.2117 26.0945 73.1713 26.7309 72.9477L25.0511 68.1676ZM25.8577 68.1201C26.1257 68.1802 26.3719 68.3144 26.5681 68.5081L23.0076 72.1129C23.488 72.5873 24.0919 72.9168 24.75 73.0642L25.8577 68.1201ZM26.5681 68.5081C26.7644 68.702 26.9025 68.9476 26.966 69.217L22.0346 70.3799C22.1897 71.0378 22.5271 71.6383 23.0076 72.1129L26.5681 68.5081ZM26.966 69.217C27.0295 69.4864 27.0158 69.7684 26.9264 70.0305L22.1313 68.3939C21.9129 69.0338 21.8795 69.7221 22.0346 70.3799L26.966 69.217ZM26.9275 70.0272L29.8192 61.5168L25.0219 59.8868L22.1302 68.3972L26.9275 70.0272ZM29.8193 61.5167C30.007 60.9642 30.0576 60.374 29.9662 59.797L24.9619 60.5898C24.9245 60.3537 24.9453 60.1125 25.0219 59.8869L29.8193 61.5167ZM29.9662 59.797C29.8747 59.22 29.6442 58.6745 29.2953 58.2072L25.2358 61.239C25.0935 61.0485 24.9993 60.8258 24.9619 60.5898L29.9662 59.797ZM29.2923 58.2033L23.2391 50.1308L19.1855 53.1704L25.2387 61.2429L29.2923 58.2033ZM23.2354 50.1258C23.4048 50.3506 23.5063 50.6197 23.5273 50.9015L18.4746 51.2776C18.5259 51.966 18.7742 52.6247 19.1892 53.1753L23.2354 50.1258ZM23.5273 50.9015C23.5483 51.1832 23.4877 51.4647 23.3532 51.7123L18.9005 49.2948C18.5714 49.9009 18.4234 50.5892 18.4746 51.2776L23.5273 50.9015ZM23.3532 51.7123C23.2188 51.9599 23.0163 52.1631 22.7706 52.2982L20.3295 47.8583C19.7259 48.1902 19.2297 48.6885 18.9005 49.2948L23.3532 51.7123ZM22.7706 52.2982C22.5249 52.4332 22.2459 52.4949 21.9668 52.4761L22.306 47.4208C21.6191 47.3747 20.9332 47.5264 20.3295 47.8583L22.7706 52.2982ZM21.9699 52.4763L30.8854 53.0636L31.2184 48.0079L22.3029 47.4206L21.9699 52.4763ZM30.8751 53.0629C31.4854 53.1056 32.0967 52.992 32.6512 52.7328L30.5049 48.1431C30.731 48.0374 30.9801 47.9912 31.2288 48.0086L30.8751 53.0629ZM32.6512 52.7328C33.2055 52.4735 33.6851 52.077 34.0439 51.58L29.9361 48.6141C30.0829 48.4107 30.2789 48.2488 30.5049 48.1431L32.6512 52.7328Z" fill="white" mask="url(#path-4-outside-1_13424_11907)"/>
<path d="M61.5149 57.1043C61.2421 57.3151 61.0468 57.6106 60.9598 57.9444L60.9598 57.9444L60.957 57.9554C60.6109 59.3347 60.2837 59.9832 59.8731 60.3936C59.4624 60.8041 58.8134 61.1312 57.4333 61.4772L57.4333 61.4772L57.4223 61.48C57.0887 61.5668 56.7932 61.7618 56.5823 62.0347C56.3712 62.3075 56.2568 62.6427 56.2568 62.9876C56.2568 63.3325 56.3712 63.6677 56.5823 63.9406C56.7932 64.2134 57.0887 64.4084 57.4223 64.4952L57.4223 64.4952L57.4333 64.498C58.8134 64.844 59.4624 65.1711 59.8731 65.5816C60.2837 65.992 60.6109 66.6405 60.957 68.0198L60.957 68.0198L60.9598 68.0308C61.0468 68.3646 61.2421 68.66 61.5149 68.8709C61.7878 69.0817 62.1229 69.196 62.4675 69.196C62.8121 69.196 63.1472 69.0817 63.4201 68.8709C63.6929 68.66 63.8882 68.3646 63.9751 68.0308L63.9752 68.0308L63.9779 68.0198C64.3243 66.6395 64.6506 65.991 65.0603 65.5808C65.4696 65.1709 66.117 64.844 67.497 64.498L67.497 64.498L67.5079 64.4952C67.8415 64.4084 68.137 64.2134 68.348 63.9405C68.559 63.6677 68.6735 63.3325 68.6735 62.9876C68.6735 62.6427 68.559 62.3075 68.348 62.0347C68.137 61.7618 67.8415 61.5668 67.5079 61.48L67.508 61.48L67.497 61.4772C66.117 61.1312 65.4696 60.8043 65.0603 60.3944C64.6506 59.9842 64.3243 59.3358 63.9779 57.9554L63.978 57.9554L63.9751 57.9444C63.8882 57.6106 63.6929 57.3152 63.4201 57.1043C63.1472 56.8936 62.8122 56.7792 62.4675 56.7792C62.1228 56.7792 61.7877 56.8936 61.5149 57.1043ZM61.5149 57.1043L62.2894 58.1067M61.5149 57.1043L62.2894 58.1067M62.2894 58.1067C62.3404 58.0673 62.403 58.0459 62.4675 58.0459C62.532 58.0459 62.5946 58.0673 62.6456 58.1067C62.6966 58.1461 62.7331 58.2013 62.7494 58.2637L61.7981 66.4166C61.2564 64.9394 60.5151 64.1984 59.0374 63.6569C58.7228 63.7572 58.3934 63.8483 58.0493 63.9345L57.8922 63.3078C57.8426 63.2949 57.7923 63.2821 57.7413 63.2694C57.6789 63.2531 57.6237 63.2166 57.5843 63.1657C57.5448 63.1147 57.5234 63.052 57.5234 62.9876C57.5234 62.9232 57.5448 62.8605 57.5843 62.8096C57.6237 62.7586 57.6789 62.7221 57.7413 62.7059C57.7923 62.6931 57.8426 62.6803 57.8922 62.6674L58.0493 62.0407C58.3934 62.127 58.7228 62.218 59.0374 62.3183C60.5151 61.7768 61.2564 61.0358 61.7981 59.5586C61.6979 59.2445 61.607 58.9155 61.5208 58.572L62.1471 58.4148C62.16 58.3651 62.1728 58.3147 62.1856 58.2637C62.2019 58.2013 62.2383 58.1461 62.2894 58.1067ZM61.9357 59.1548C61.9579 59.0848 61.9798 59.0134 62.0015 58.9404C62.0506 58.7752 62.0984 58.6023 62.1455 58.421L61.5236 58.583C61.5781 58.7921 61.7004 58.9771 61.8712 59.109C61.8921 59.1252 61.9136 59.1405 61.9357 59.1548Z" fill="#FED33D" stroke="white" stroke-width="2.53333"/>
<path d="M96.8472 42.6647C96.8546 43.1152 96.7702 43.5625 96.5992 43.9795C96.4282 44.3964 96.174 44.7744 95.8522 45.0904C95.5304 45.4064 95.1476 45.6539 94.7271 45.8178C94.3066 45.9818 93.8571 46.0587 93.4058 46.0441L96.8472 42.6647ZM96.8472 42.6647C96.8355 41.8943 96.8136 41.1237 96.7917 40.353C96.7616 39.2903 96.7314 38.2275 96.7278 37.1647C96.725 36.3864 96.4482 35.6339 95.9456 35.0387C95.4431 34.4436 94.7468 34.0437 93.9787 33.909L96.8472 42.6647ZM93.415 45.7603L93.4147 45.7603C77.5522 45.2629 59.2049 49.3573 45.3646 57.3717C43.4074 58.5044 40.9409 57.1856 40.7984 54.9375C40.7984 54.9374 40.7984 54.9374 40.7984 54.9374L40.6937 53.2725L40.6937 53.2719C40.6516 52.6237 40.8197 51.9791 41.1733 51.4336C46.3666 43.444 54.8361 37.789 64.0337 35.1101L63.9544 34.8379L64.0337 35.1101C72.6976 32.5864 84.5316 32.563 93.9298 34.1888C94.6324 34.312 95.2691 34.6778 95.7286 35.222C96.1882 35.7662 96.4413 36.4542 96.4438 37.1656C96.4474 38.2289 96.4778 39.3009 96.508 40.3687C96.5299 41.1394 96.5517 41.9078 96.5632 42.669L96.5633 42.6694C96.57 43.0813 96.4929 43.4904 96.3364 43.8717C96.18 44.253 95.9476 44.5987 95.6532 44.8877C95.3589 45.1768 95.0087 45.4032 94.6239 45.5532C94.2392 45.7032 93.8279 45.7736 93.415 45.7603Z" fill="#FFADE3" stroke="#26103D" stroke-width="0.568012"/>
<path d="M93.7576 38.7055L93.7583 38.7057C94.1114 38.7693 94.4745 38.7507 94.8192 38.6512C95.1639 38.5517 95.4809 38.3741 95.7454 38.1323C96.0099 37.8905 96.2148 37.591 96.3442 37.2572C96.4735 36.9235 96.5238 36.5645 96.4912 36.2083C96.4912 36.2082 96.4912 36.2081 96.4912 36.208L96.7741 36.1821C96.6787 35.1501 96.5981 34.1172 96.7911 33.0874L93.7576 38.7055ZM93.7576 38.7055C77.0459 35.7351 57.2177 41.7586 45.4469 53.9925C44.1474 55.3431 41.8617 54.6769 41.4908 52.8411M93.7576 38.7055L41.4949 51.4323M41.1589 52.6305L41.2124 52.8974M41.1589 52.6305L93.7079 38.9852C77.0847 36.0305 57.3534 42.0272 45.6515 54.1894C44.1933 55.705 41.6287 54.9577 41.2124 52.8974M41.1589 52.6305C41.0713 52.204 41.0937 51.7624 41.224 51.3469L41.1589 52.6305ZM41.2124 52.8974L41.4909 52.8416L41.4908 52.8411M41.2124 52.8974L41.4908 52.8411M41.4908 52.8411L41.4374 52.5747L41.4371 52.5733C41.3592 52.1942 41.3791 51.8016 41.4949 51.4323M41.4949 51.4323C44.7362 41.1918 54.4135 34.1011 64.4428 29.8332L64.4428 29.8332C69.7695 27.5657 75.4793 25.8665 81.1946 26.3786L81.1946 26.3786C85.6405 26.7765 92.4283 28.337 96.4557 30.2159L41.4949 51.4323Z" fill="#FFF0E9" stroke="#26103D" stroke-width="0.568012"/>
<path d="M38.246 48.5338L38.2458 48.5332C38.1941 48.3756 38.1748 48.2093 38.1889 48.0441C38.2029 47.879 38.25 47.7185 38.3275 47.572C40.5442 43.4132 44.2233 39.7476 47.6707 36.3129C48.132 35.8533 48.5891 35.3979 49.0381 34.9459C56.5281 27.4061 65.7418 24.4056 76.3975 23.608L76.3763 23.3248L76.3975 23.608C82.7796 23.1297 89.2478 23.0309 95.4592 24.3715C95.7442 24.4332 95.9987 24.592 96.1789 24.8205C96.3591 25.0491 96.4539 25.333 96.4469 25.6236L96.4469 25.624C96.4258 26.5729 96.455 27.5197 96.4906 28.4595C96.4961 28.6058 96.5018 28.752 96.5075 28.8979C96.5384 29.6916 96.5691 30.4798 96.574 31.2683L96.574 31.2688C96.5756 31.4651 96.5306 31.6591 96.4427 31.8347C96.3548 32.0104 96.2264 32.1629 96.0681 32.2797L96.2366 32.5082L96.0681 32.2797C95.9097 32.3964 95.7259 32.4742 95.5316 32.5065C95.3373 32.5389 95.138 32.5249 94.9502 32.4657L94.9501 32.4657C85.0165 29.3387 73.462 29.6736 63.8281 33.4501L63.9318 33.7145L63.8281 33.4501C54.6425 37.0512 46.7213 43.7491 41.5943 52.1556C41.038 53.0673 39.6678 52.9063 39.3391 51.8933L39.3391 51.8931L38.246 48.5338Z" fill="#FED33D" stroke="#26103D" stroke-width="0.568012"/>
<path d="M32.2203 50.2633L32.2207 50.2627L40.2279 39.1117C40.2279 39.1116 40.228 39.1115 40.2281 39.1114C40.3106 38.9974 40.4225 38.9077 40.552 38.8519C40.6816 38.796 40.824 38.7762 40.964 38.7946C41.1041 38.8129 41.2365 38.8687 41.3472 38.956C41.4577 39.0431 41.5424 39.1583 41.5927 39.2894C42.4533 41.5673 43.5734 44.509 44.5349 46.935C45.0155 48.1477 45.4573 49.2337 45.8076 50.0442C45.9826 50.449 46.1361 50.7882 46.261 51.0412C46.3234 51.1674 46.3802 51.2756 46.4304 51.3611C46.4755 51.438 46.5302 51.5234 46.5907 51.5807L46.591 51.5809C46.6387 51.6259 46.7011 51.6661 46.7585 51.6997C46.8205 51.7361 46.8957 51.7756 46.981 51.8177C47.1519 51.9019 47.3752 52.002 47.6385 52.1141C48.1657 52.3385 48.8661 52.6162 49.656 52.9195C51.2365 53.5262 53.1854 54.239 54.8468 54.8391L54.8469 54.8391C54.9911 54.8912 55.1168 54.9844 55.2082 55.107C55.2997 55.2297 55.353 55.3764 55.3615 55.5289C55.37 55.6814 55.3334 55.8331 55.2562 55.9652C55.179 56.0972 55.0646 56.2038 54.9271 56.2715L54.9271 56.2715C53.2719 57.0872 51.333 58.0537 49.7805 58.8637C49.0047 59.2684 48.3225 59.6356 47.8195 59.926C47.5685 60.071 47.3581 60.1991 47.2017 60.3046C47.1238 60.3572 47.0551 60.4071 47 60.4528C46.9533 60.4914 46.8873 60.5501 46.8462 60.6222L46.846 60.6227C46.8195 60.6692 46.8062 60.7182 46.7989 60.748C46.7903 60.7833 46.7833 60.8225 46.7774 60.863C46.7655 60.9442 46.7554 61.047 46.7466 61.1663C46.7289 61.4059 46.7153 61.7299 46.705 62.1188C46.6843 62.8975 46.6764 63.95 46.6768 65.1376C46.6777 67.5135 46.712 70.4388 46.7454 72.8153L46.7454 72.8155C46.7476 72.9666 46.7058 73.115 46.625 73.2428C46.5442 73.3706 46.4279 73.4724 46.2901 73.5355C46.1523 73.5987 45.999 73.6205 45.849 73.5984C45.699 73.5762 45.5588 73.5111 45.4454 73.4111C42.8396 71.0974 40.5017 68.4998 38.4755 65.6667C38.281 65.392 37.9909 65.1998 37.662 65.1274C37.3329 65.055 36.9886 65.1078 36.6964 65.2755L36.696 65.2757C33.2237 67.2751 29.5754 68.9535 25.7967 70.2897C25.6583 70.3383 25.5091 70.3471 25.3659 70.315C25.2228 70.283 25.0916 70.2113 24.9874 70.1084L24.7879 70.3105L24.9874 70.1084C24.8833 70.0055 24.8103 69.8755 24.7767 69.7333C24.7432 69.591 24.7504 69.4423 24.7976 69.304L24.7978 69.3036L27.6895 60.7932L27.4206 60.7018L27.6895 60.7931C27.7598 60.5861 27.7788 60.365 27.7445 60.1489C27.7103 59.9329 27.624 59.7284 27.4931 59.5532L27.4927 59.5527L21.4395 51.4802L21.4391 51.4796C21.349 51.3601 21.2953 51.2174 21.2842 51.0685C21.2731 50.9195 21.3051 50.7704 21.3765 50.639C21.4478 50.5076 21.5555 50.3993 21.6869 50.3271L21.5514 50.0806L21.6869 50.3271C21.8182 50.2549 21.9677 50.2218 22.1174 50.2319L22.1177 50.2319L31.0321 50.819C31.0324 50.819 31.0326 50.8191 31.0328 50.8191C31.2616 50.835 31.4907 50.7923 31.6984 50.6952C31.9063 50.598 32.086 50.4493 32.2203 50.2633Z" fill="#5C59ED" stroke="#26103D" stroke-width="0.568012"/>
<path d="M62.7494 58.2637L62.5015 58.3259C62.8635 59.7686 63.2705 60.7565 63.9832 61.4701C64.6957 62.1836 65.6825 62.5916 67.1252 62.9534C67.1326 62.9554 67.1391 62.9599 67.1438 62.9659C67.1486 62.9721 67.1512 62.9798 67.1512 62.9876C67.1512 62.9955 67.1486 63.0031 67.1438 63.0093C67.139 63.0155 67.1323 63.02 67.1246 63.022L67.189 63.2694L67.1268 63.0214C65.6832 63.3833 64.696 63.7914 63.9832 64.5051L57.7413 62.7059C60.6071 61.9874 61.4668 61.1281 62.1856 58.2637L62.433 58.3281C62.433 58.3279 62.4331 58.3277 62.4331 58.3276C62.4352 58.3202 62.4395 58.3137 62.4456 58.309L62.2894 58.1067L62.4456 58.309C62.4519 58.3041 62.4596 58.3015 62.4675 58.3015C62.4754 58.3015 62.4831 58.3041 62.4894 58.309C62.4956 58.3138 62.5 58.3205 62.502 58.3281L62.7494 58.2637ZM62.7494 58.2637C63.4682 61.1281 64.3232 61.9874 67.189 62.7059L62.7494 58.2637ZM60.9493 64.5049C60.2356 63.7916 59.2478 63.3836 57.8051 63.0218L62.7494 67.7115L62.502 67.6471C62.502 67.6473 62.5019 67.6475 62.5019 67.6477C62.4998 67.655 62.4954 67.6615 62.4894 67.6663C62.4831 67.6711 62.4754 67.6737 62.4675 67.6737C62.4595 67.6737 62.4519 67.6711 62.4456 67.6663L62.2894 67.8685L62.4456 67.6663C62.4394 67.6614 62.4349 67.6547 62.433 67.6471L62.1856 67.7115L62.4335 67.6493C62.0715 66.2064 61.6632 65.2185 60.9493 64.5049Z" fill="#FED33D" stroke="#26103D" stroke-width="0.511211"/>
</g>
<defs>
<filter id="filter0_ddddd_13424_11907" x="0.464844" y="0.623712" width="121.068" height="95.957" filterUnits="userSpaceOnUse" color-interpolation-filters="sRGB">
<feFlood flood-opacity="0" result="BackgroundImageFix"/>
<feColorMatrix in="SourceAlpha" type="matrix" values="0 0 0 0 0 0 0 0 0 0 0 0 0 0 0 0 0 0 127 0" result="hardAlpha"/>
<feOffset dx="2" dy="0.156915"/>
<feGaussianBlur stdDeviation="10"/>
<feColorMatrix type="matrix" values="0 0 0 0 0 0 0 0 0 0 0 0 0 0 0 0 0 0 0.1 0"/>
<feBlend mode="normal" in2="BackgroundImageFix" result="effect1_dropShadow_13424_11907"/>
<feColorMatrix in="SourceAlpha" type="matrix" values="0 0 0 0 0 0 0 0 0 0 0 0 0 0 0 0 0 0 127 0" result="hardAlpha"/>
<feOffset dx="0.509975" dy="0.66689"/>
<feGaussianBlur stdDeviation="0.411903"/>
<feColorMatrix type="matrix" values="0 0 0 0 0 0 0 0 0 0 0 0 0 0 0 0 0 0 0.09 0"/>
<feBlend mode="normal" in2="effect1_dropShadow_13424_11907" result="effect2_dropShadow_13424_11907"/>
<feColorMatrix in="SourceAlpha" type="matrix" values="0 0 0 0 0 0 0 0 0 0 0 0 0 0 0 0 0 0 127 0" result="hardAlpha"/>
<feOffset dx="1.09841" dy="1.4907"/>
<feGaussianBlur stdDeviation="0.549204"/>
<feColorMatrix type="matrix" values="0 0 0 0 0 0 0 0 0 0 0 0 0 0 0 0 0 0 0.05 0"/>
<feBlend mode="normal" in2="effect2_dropShadow_13424_11907" result="effect3_dropShadow_13424_11907"/>
<feColorMatrix in="SourceAlpha" type="matrix" values="0 0 0 0 0 0 0 0 0 0 0 0 0 0 0 0 0 0 127 0" result="hardAlpha"/>
<feOffset dx="1.96144" dy="2.62833"/>
<feGaussianBlur stdDeviation="2.5"/>
<feColorMatrix type="matrix" values="0 0 0 0 0 0 0 0 0 0 0 0 0 0 0 0 0 0 0.05 0"/>
<feBlend mode="normal" in2="effect3_dropShadow_13424_11907" result="effect4_dropShadow_13424_11907"/>
<feColorMatrix in="SourceAlpha" type="matrix" values="0 0 0 0 0 0 0 0 0 0 0 0 0 0 0 0 0 0 127 0" result="hardAlpha"/>
<feOffset dx="3.05985" dy="4.11903"/>
<feGaussianBlur stdDeviation="2.5"/>
<feColorMatrix type="matrix" values="0 0 0 0 0 0 0 0 0 0 0 0 0 0 0 0 0 0 0.03 0"/>
<feBlend mode="normal" in2="effect4_dropShadow_13424_11907" result="effect5_dropShadow_13424_11907"/>
<feBlend mode="normal" in="SourceGraphic" in2="effect5_dropShadow_13424_11907" result="shape"/>
</filter>
</defs>
</svg>
