<svg width="122" height="97" viewBox="0 0 122 97" fill="none" xmlns="http://www.w3.org/2000/svg">
    <g filter="url(#filter0_ddddd_13838_46195)">
        <path
            d="M92.8869 40.5273C92.1615 39.8876 91.3211 39.3915 90.4106 39.0655C88.8865 38.5204 87.24 38.4247 85.6225 38.4092C81.2884 38.3699 76.9656 38.8578 72.7492 39.862C72.3198 39.9644 71.8169 40.0578 71.4765 39.7752C71.2762 39.5694 71.1421 39.3082 71.0916 39.0254C70.6154 37.2466 69.9438 35.5259 69.0892 33.8948C65.3513 27.0354 56.5051 23.4377 49.0427 25.7516C41.5804 28.0655 36.3118 36.0263 37.1038 43.7979C35.7288 43.146 33.9088 42.5764 32.8386 43.6599C31.7262 44.7724 32.4182 46.6814 33.3014 47.9896C34.4606 49.7036 35.8577 51.2439 37.4509 52.5641C33.0011 55.1094 28.4711 57.7236 25.1026 61.5861C23.8611 63.0078 22.742 64.81 23.0802 66.6678C23.5585 69.2799 26.5644 70.5347 29.192 70.933C33.4193 71.5715 37.7424 71.1822 41.9319 70.3367C46.6891 69.3738 51.3101 67.83 55.6908 65.74C57.5308 64.8612 59.333 63.8844 61.2531 63.1747C63.7472 62.2513 66.3859 61.7997 68.9557 61.1211C74.518 59.6526 79.7643 57.1162 84.7392 54.2238C85.5513 53.7522 86.4724 52.8021 85.9229 52.039L88.9821 50.2591C90.3304 49.4759 91.7166 48.6593 92.6555 47.4156C93.2103 46.6596 93.602 45.7967 93.8058 44.8814C93.9882 44.1005 94.2263 42.9613 93.9993 42.1759C93.7845 41.5358 93.4 40.966 92.8869 40.5273Z"
            fill="white" stroke="white" stroke-width="10.0121" stroke-miterlimit="10" />
        <path
            d="M85.9362 52.2411C86.2054 53.1644 86.1587 53.3246 85.3422 53.8363C78.2713 58.3142 70.3796 61.3396 62.1274 62.736C61.7036 62.8022 61.2952 62.9439 60.9215 63.1543C53.6527 67.2615 45.9322 70.0293 37.6111 71.0127C35.0708 71.3485 32.5002 71.3888 29.9507 71.1328C28.3554 70.9526 26.8069 70.5988 25.4096 69.7689C23.0156 68.345 22.3704 66.02 23.6942 63.577C24.6754 61.7659 26.1416 60.3642 27.6991 59.0604C30.7005 56.5396 34.0289 54.5149 37.4531 52.6082C37.3886 52.3256 37.126 52.2299 36.9436 52.072C35.3861 50.7036 33.9288 49.2419 32.8942 47.4174C32.6243 46.9508 32.4292 46.4448 32.3158 45.9178C31.9375 44.0267 33.228 42.7295 35.1214 43.1122C35.8202 43.2623 36.4943 43.5102 37.1238 43.8487C37.0949 42.8163 37.0459 41.8641 37.1105 40.914C37.2929 38.2632 38.0889 35.691 39.4355 33.4005C39.8182 32.733 40.1519 32.624 40.8794 32.8531C41.4579 33.4227 41.498 33.6897 41.073 34.4395C39.3297 37.4463 38.6582 40.9558 39.1685 44.3938C39.1889 44.6681 39.2677 44.9349 39.3997 45.1763C39.5317 45.4177 39.7139 45.6281 39.9339 45.7933C40.6013 46.3028 41.2844 46.8479 41.7494 47.522C42.4324 48.5165 43.2735 48.5432 44.3125 48.412C48.0014 47.9025 51.5168 46.7633 54.9921 45.4818C58.7214 44.1451 62.3443 42.5281 65.8297 40.6448C66.7681 40.1672 67.6728 39.6261 68.5374 39.025C68.8489 38.8159 68.9201 38.6045 68.8044 38.2263C68.2778 36.4462 67.45 34.7696 66.357 33.2692C64.0297 30.1209 60.9816 28.0584 57.128 27.2419C56.1436 27.0028 55.1329 26.8892 54.1199 26.9037C50.4889 26.9037 47.2983 28.1296 44.4905 30.4013C43.7474 31.002 43.4715 31.0176 42.7929 30.5059C42.4436 29.894 42.6193 29.429 43.1355 28.984C51.8305 21.4883 65.8474 25.0281 69.9324 35.7656C70.4159 37.0323 70.8684 38.3079 71.2896 39.5924C71.4276 40.0129 71.6033 40.0908 72.0127 40.0085C75.413 39.2736 78.8591 38.7697 82.3274 38.5C84.7615 38.3353 87.1911 38.3264 89.5829 38.9027C90.811 39.1964 91.9435 39.6858 92.8802 40.5691C93.69 41.3301 93.9771 42.3135 94.1083 43.3659L93.7746 45.2793C93.5254 45.3527 93.5276 45.6063 93.4453 45.7843C92.7578 47.2639 91.7188 48.481 90.5952 49.6335C90.1925 50.0495 89.7319 50.0629 89.2803 49.6757C88.8019 49.055 88.8153 48.7279 89.3292 48.1561C89.7608 47.6778 90.2192 47.215 90.6108 46.7121C91.296 45.8489 91.8567 44.9144 92.057 43.8019C92.1282 43.4193 92.0102 43.2835 91.6275 43.357C90.2281 43.5795 88.8353 43.8331 87.5048 44.3381C87.4625 44.3381 87.4136 44.3048 87.378 44.3159C84.7134 45.2365 82.1651 46.464 79.7843 47.9737C75.7795 50.4834 72.7803 54.1233 69.3139 57.236L69.2872 57.256C69.2813 57.2526 69.2747 57.2507 69.268 57.2506C69.2612 57.2504 69.2546 57.2519 69.2486 57.2551C69.2426 57.2582 69.2375 57.2627 69.2337 57.2684C69.23 57.274 69.2277 57.2804 69.2271 57.2872L66.0366 59.8436C66.1231 59.8913 66.2203 59.9163 66.3191 59.9163C66.4179 59.9163 66.5152 59.8913 66.6017 59.8436C72.8604 58.1793 78.7898 55.7386 84.2542 52.2322C84.8616 51.8183 85.3755 51.7182 85.9362 52.2411ZM66.3926 42.5938C66.2546 42.6561 66.1144 42.7073 65.9832 42.7785C61.1769 45.3524 56.1036 47.3929 50.8537 48.8636C49.3096 49.3086 47.7389 49.6579 46.1236 50.0362C46.554 50.5981 46.8414 51.2562 46.9612 51.9538C47.0809 52.6514 47.0294 53.3677 46.8111 54.041C47.0612 54.1015 47.3236 54.0868 47.5653 53.9987C52.4423 53.0465 57.1058 51.4112 61.6691 49.4822C63.7894 48.5922 65.8964 47.6533 67.8632 46.4452C68.8845 45.9779 69.7922 45.3327 70.7156 44.6986C70.7589 44.6796 70.7979 44.6519 70.83 44.6171C70.8622 44.5824 70.8869 44.5415 70.9026 44.4968C70.9182 44.4522 70.9245 44.4047 70.921 44.3575C70.9176 44.3103 70.9044 44.2644 70.8824 44.2225C70.4486 43.0344 70.037 41.8396 69.6031 40.6136L66.3926 42.5938ZM72.1506 41.9508C72.3064 42.3958 72.451 42.7985 72.5956 43.2057C73.3143 45.2926 73.5924 45.1369 71.4565 46.543C65.8942 50.1897 59.7846 52.6104 53.4547 54.5527C50.2174 55.5428 46.8689 56.0145 43.5805 56.7599C43.4264 56.7918 43.2801 56.8541 43.1502 56.9431C43.0204 57.0321 42.9095 57.146 42.824 57.2783C41.8951 58.5472 40.8337 59.7137 39.658 60.758C38.5455 61.7503 37.3841 62.6959 35.8756 63.0497C33.9266 63.5125 32.6206 62.2799 32.9832 60.3131C33.2057 59.1294 33.7619 58.0881 34.4005 57.0802C34.4984 56.9245 34.7098 56.791 34.6097 56.4884C31.8908 58.2483 29.2009 60.0127 26.976 62.3577C26.3185 63.0118 25.7708 63.7676 25.354 64.596C24.6287 66.1245 24.9757 67.2993 26.4397 68.1559C26.8126 68.3707 27.2062 68.5473 27.6145 68.6832C29.8861 69.453 32.2468 69.4819 34.5874 69.3039C46.8393 68.3784 57.7413 64.0398 67.2936 56.2882C69.6387 54.3792 71.65 52.1187 73.8838 50.094C78.6518 45.7688 84.0851 42.7051 90.4906 41.5437C90.5996 41.5236 90.7131 41.5103 90.742 41.3612C90.0068 41.0083 89.222 40.7697 88.4148 40.6537C85.2109 40.1375 82.0182 40.3956 78.8276 40.785C76.5916 41.0586 74.3667 41.448 72.1417 41.9419L72.1506 41.9508ZM39.1885 54.5327C38.1448 55.4293 37.2152 56.4507 36.4207 57.5742C35.7799 58.4931 35.2015 59.4498 34.9367 60.5533C34.7854 61.1741 34.91 61.2831 35.553 61.1919C36.1262 61.0862 36.666 60.846 37.1282 60.491C38.6078 59.4542 39.747 58.0815 40.8528 56.6775C40.9862 56.5084 41.0752 56.395 40.8016 56.2437C40.1111 55.8336 39.5498 55.2376 39.1818 54.5238L39.1885 54.5327ZM38.986 51.251C39.3398 50.5012 39.7626 49.8359 40.4167 49.3598C40.5947 49.2285 40.6392 49.1217 40.4656 48.9548C38.9505 47.4975 37.4531 46.0113 35.4351 45.237C35.0902 45.1035 34.643 44.792 34.3649 45.0946C34.0868 45.3972 34.4138 45.8311 34.5874 46.1648C35.5752 48.2362 37.1527 49.8226 38.9905 51.2421L38.986 51.251ZM45.0534 53.0687C45.1629 52.5049 45.0452 51.9206 44.726 51.4431C44.4069 50.9655 43.912 50.6334 43.3491 50.519C42.1343 50.2965 40.9417 51.0841 40.7371 52.2433C40.6332 52.8316 40.7664 53.4372 41.1073 53.9277C41.4483 54.4183 41.9694 54.7542 42.557 54.862C43.1256 54.9488 43.7054 54.8085 44.1713 54.4712C44.6371 54.134 44.9516 53.627 45.0467 53.0598L45.0534 53.0687Z"
            fill="black" stroke="black" stroke-width="1.11246" stroke-miterlimit="10" />
        <path
            d="M65.8185 40.6335C62.3331 42.5169 58.7103 44.1338 54.9809 45.4705C51.5101 46.752 47.9947 47.8912 44.3014 48.4007C43.2623 48.5431 42.4213 48.5164 41.7382 47.5107C41.2732 46.8432 40.5835 46.2915 39.9227 45.7819C39.7027 45.6167 39.5206 45.4064 39.3886 45.165C39.2566 44.9237 39.1777 44.6568 39.1573 44.3825C38.6471 40.9445 39.3185 37.435 41.0619 34.4282C41.4868 33.6784 41.4468 33.4114 40.8683 32.8418L42.7862 30.4834C43.4648 30.9952 43.7407 30.9796 44.4838 30.3789C47.2916 28.1072 50.4911 26.8858 54.1132 26.8813C55.1262 26.8668 56.1369 26.9804 57.1213 27.2195C59.1104 28.5255 60.9037 30.0451 62.2386 32.032C63.0859 33.2995 63.7594 34.6749 64.241 36.1214C64.7795 37.6343 65.4158 39.0916 65.8185 40.6335Z"
            fill="#EAB48E" />
        <path
            d="M85.9362 52.2405C85.3822 51.7265 84.8683 51.8266 84.2586 52.2182C78.7942 55.7247 72.8648 58.1654 66.6062 59.8296C66.5196 59.8774 66.4224 59.9024 66.3236 59.9024C66.2248 59.9024 66.1276 59.8774 66.041 59.8296L69.2316 57.2732L69.305 57.3444L69.2916 57.2421L69.3183 57.2243C69.5586 57.4023 69.7633 57.2465 69.9858 57.1553C71.0671 56.6836 72.1551 56.2275 73.223 55.7269C75.7898 54.537 78.2596 53.1481 80.6098 51.573C81.5612 50.9097 82.4741 50.1928 83.3442 49.4259C85.0373 47.9775 86.5637 46.3911 87.5026 44.3264C88.8375 43.8214 90.2258 43.5722 91.6253 43.3452C92.008 43.2829 92.1259 43.4187 92.0547 43.7902C91.8545 44.9027 91.2938 45.8371 90.6085 46.7004C90.2081 47.2032 89.7586 47.666 89.327 48.1444C88.813 48.7162 88.7997 49.0343 89.278 49.664C88.3881 50.3693 87.5137 51.0813 86.6259 51.7799C86.4079 51.9512 86.1587 52.0825 85.9362 52.2405Z"
            fill="#CF7C40" />
        <path
            d="M72.1417 41.9421C74.3667 41.4481 76.5916 41.0521 78.8299 40.7873C82.0204 40.398 85.2131 40.1399 88.417 40.656C89.2243 40.772 90.009 41.0106 90.7443 41.3636C90.7064 41.5126 90.6019 41.526 90.4928 41.546C84.0873 42.7074 78.6541 45.7733 73.8861 50.0964C71.6612 52.121 69.6409 54.3816 67.2959 56.2905C57.751 64.0555 46.8489 68.3941 34.5896 69.3063C32.249 69.4843 29.8884 69.4553 27.6167 68.6855C27.2084 68.5497 26.8148 68.373 26.442 68.1582C24.978 67.2994 24.6309 66.1246 25.3562 64.5984C25.773 63.7699 26.3207 63.0141 26.9782 62.3601C29.2031 60.015 31.8953 58.2551 34.6297 56.4908C34.7298 56.7934 34.5184 56.9358 34.4205 57.0826C33.782 58.0905 33.2168 59.1317 33.0032 60.3154C32.645 62.2822 33.9511 63.5148 35.8956 63.052C37.393 62.6983 38.5522 61.7527 39.678 60.7604C40.8479 59.7087 41.9025 58.5355 42.824 57.2606C42.9095 57.1284 43.0204 57.0144 43.1502 56.9255C43.2801 56.8365 43.4264 56.7742 43.5805 56.7422C46.8689 55.9968 50.2174 55.5252 53.4547 54.5351C59.7846 52.5994 65.892 50.1787 71.4565 46.5254C73.5924 45.1237 73.3143 45.2794 72.5956 43.188C72.4443 42.7897 72.2997 42.3848 72.1417 41.9421Z"
            fill="#E9B38E" />
        <path
            d="M67.8654 46.4357C65.8963 47.6438 63.7916 48.5783 61.6712 49.4727C57.1079 51.4017 52.4445 53.0326 47.5675 53.9893C47.3257 54.0774 47.0633 54.0921 46.8133 54.0315C47.0316 53.3582 47.0831 52.642 46.9633 51.9444C46.8435 51.2467 46.5561 50.5886 46.1257 50.0267C47.7455 49.6485 49.3118 49.2947 50.8559 48.8542C56.1058 47.3834 61.1791 45.3429 65.9853 42.769C66.1166 42.6978 66.2568 42.6466 66.3947 42.5844C66.4504 42.6978 66.5149 42.8068 66.5638 42.9225C67.0355 44.0773 67.327 45.3032 67.8654 46.4357Z"
            fill="#008D36" />
        <path
            d="M87.4937 44.3161C86.5548 46.3808 85.0285 47.9672 83.3354 49.4156C82.4653 50.1825 81.5524 50.8993 80.601 51.5627C78.2466 53.1391 75.7723 54.5288 73.2009 55.7188C72.1329 56.2194 71.0449 56.6755 69.9636 57.1472C69.7545 57.2384 69.5431 57.3942 69.2961 57.2162C72.7626 54.1013 75.7484 50.4613 79.7666 47.9516C82.1474 46.4419 84.6957 45.2144 87.3602 44.2939C87.4114 44.2827 87.4604 44.3072 87.4937 44.3161Z"
            fill="#D88C56" />
        <path
            d="M65.8185 40.6338C65.4158 39.092 64.7795 37.6347 64.2611 36.1328C63.7794 34.6863 63.1059 33.3109 62.2587 32.0434C60.9237 30.0566 59.1193 28.537 57.1414 27.231C60.9949 28.0475 64.0386 30.11 66.3703 33.2582C67.4596 34.7623 68.2829 36.4419 68.8044 38.2243C68.9201 38.6025 68.8489 38.8139 68.5374 39.023C67.669 39.6214 66.7605 40.1596 65.8185 40.6338Z"
            fill="#E3A479" />
        <path
            d="M39.1818 54.5236C39.5494 55.2333 40.1081 55.8259 40.7949 56.2346C41.0686 56.3859 40.9796 56.4993 40.8461 56.6684C39.7336 58.0724 38.6011 59.4451 37.1216 60.4819C36.6593 60.8369 36.1195 61.0771 35.5463 61.1828C34.9033 61.274 34.7787 61.165 34.93 60.5442C35.1948 59.4318 35.7733 58.484 36.4141 57.5651C37.2085 56.4417 38.1381 55.4202 39.1818 54.5236Z"
            fill="#008D36" />
        <path
            d="M38.9905 51.2423C37.1639 49.8228 35.5864 48.2342 34.5808 46.1562C34.4183 45.8224 34.1113 45.3775 34.3583 45.086C34.6052 44.7945 35.0836 45.086 35.4284 45.2284C37.4464 46.0026 38.9438 47.4889 40.459 48.9462C40.6325 49.1131 40.588 49.2199 40.41 49.3512C39.7559 49.8273 39.3332 50.4925 38.9905 51.2423Z"
            fill="#008D36" />
        <path
            d="M45.0468 53.0601C44.9497 53.627 44.6334 54.133 44.1662 54.4685C43.6991 54.8041 43.1187 54.9423 42.5505 54.8534C41.9628 54.7456 41.4417 54.4098 41.1007 53.9192C40.7598 53.4286 40.6267 52.823 40.7305 52.2347C40.9352 51.0755 42.1277 50.2901 43.3425 50.5104C43.9054 50.6248 44.4003 50.957 44.7195 51.4345C45.0387 51.912 45.1563 52.4963 45.0468 53.0601Z"
            fill="#F7F4F1" />
        <path
            d="M67.8653 46.4361C67.3269 45.3036 67.0354 44.0777 66.5548 42.923C66.5059 42.8073 66.4414 42.7005 66.3857 42.5848L69.6052 40.6046C70.0502 41.8305 70.4507 43.0253 70.8845 44.2134C70.9065 44.2553 70.9196 44.3013 70.9231 44.3485C70.9266 44.3957 70.9203 44.4431 70.9046 44.4878C70.889 44.5324 70.8643 44.5734 70.8321 44.6081C70.8 44.6428 70.761 44.6706 70.7176 44.6896C69.7943 45.317 68.8866 45.9689 67.8653 46.4361Z"
            fill="#39A935" />
    </g>
    <defs>
        <filter id="filter0_ddddd_13838_46195" x="0.010498" y="0.201593" width="121.088"
            height="96.2116" filterUnits="userSpaceOnUse" color-interpolation-filters="sRGB">
            <feFlood flood-opacity="0" result="BackgroundImageFix" />
            <feColorMatrix in="SourceAlpha" type="matrix"
                values="0 0 0 0 0 0 0 0 0 0 0 0 0 0 0 0 0 0 127 0" result="hardAlpha" />
            <feOffset dx="2" dy="0.156915" />
            <feGaussianBlur stdDeviation="10" />
            <feColorMatrix type="matrix" values="0 0 0 0 0 0 0 0 0 0 0 0 0 0 0 0 0 0 0.1 0" />
            <feBlend mode="normal" in2="BackgroundImageFix" result="effect1_dropShadow_13838_46195" />
            <feColorMatrix in="SourceAlpha" type="matrix"
                values="0 0 0 0 0 0 0 0 0 0 0 0 0 0 0 0 0 0 127 0" result="hardAlpha" />
            <feOffset dx="0.509975" dy="0.66689" />
            <feGaussianBlur stdDeviation="0.411903" />
            <feColorMatrix type="matrix" values="0 0 0 0 0 0 0 0 0 0 0 0 0 0 0 0 0 0 0.09 0" />
            <feBlend mode="normal" in2="effect1_dropShadow_13838_46195"
                result="effect2_dropShadow_13838_46195" />
            <feColorMatrix in="SourceAlpha" type="matrix"
                values="0 0 0 0 0 0 0 0 0 0 0 0 0 0 0 0 0 0 127 0" result="hardAlpha" />
            <feOffset dx="1.09841" dy="1.4907" />
            <feGaussianBlur stdDeviation="0.549204" />
            <feColorMatrix type="matrix" values="0 0 0 0 0 0 0 0 0 0 0 0 0 0 0 0 0 0 0.05 0" />
            <feBlend mode="normal" in2="effect2_dropShadow_13838_46195"
                result="effect3_dropShadow_13838_46195" />
            <feColorMatrix in="SourceAlpha" type="matrix"
                values="0 0 0 0 0 0 0 0 0 0 0 0 0 0 0 0 0 0 127 0" result="hardAlpha" />
            <feOffset dx="1.96144" dy="2.62833" />
            <feGaussianBlur stdDeviation="2.5" />
            <feColorMatrix type="matrix" values="0 0 0 0 0 0 0 0 0 0 0 0 0 0 0 0 0 0 0.05 0" />
            <feBlend mode="normal" in2="effect3_dropShadow_13838_46195"
                result="effect4_dropShadow_13838_46195" />
            <feColorMatrix in="SourceAlpha" type="matrix"
                values="0 0 0 0 0 0 0 0 0 0 0 0 0 0 0 0 0 0 127 0" result="hardAlpha" />
            <feOffset dx="3.05985" dy="4.11903" />
            <feGaussianBlur stdDeviation="2.5" />
            <feColorMatrix type="matrix" values="0 0 0 0 0 0 0 0 0 0 0 0 0 0 0 0 0 0 0.03 0" />
            <feBlend mode="normal" in2="effect4_dropShadow_13838_46195"
                result="effect5_dropShadow_13838_46195" />
            <feBlend mode="normal" in="SourceGraphic" in2="effect5_dropShadow_13838_46195"
                result="shape" />
        </filter>
    </defs>
</svg>